<svg width="903" height="1270" viewBox="0 0 903 1270" fill="none" xmlns="http://www.w3.org/2000/svg">
<path d="M831.05 1269.36C870.555 1269.36 902.58 1237.12 902.58 1197.34C902.58 1157.56 870.555 1125.32 831.05 1125.32C791.545 1125.32 759.52 1157.56 759.52 1197.34C759.52 1237.12 791.545 1269.36 831.05 1269.36Z" fill="#E9F0FC"/>
<path d="M894.41 1162.87C894.33 1162.72 894.29 1162.55 894.17 1162.22C895.55 1162.33 896.51 1163.1 897.49 1163.82C897.95 1164.16 898.46 1164.76 899.04 1164.39C899.79 1163.91 899.31 1163.16 899.1 1162.54C896.62 1155.35 893.21 1148.67 888.11 1142.97C876.95 1130.51 862.74 1125.55 846.32 1126.11C845.85 1126.13 845.39 1126.11 844.54 1126.11C846.43 1123.51 849.18 1122.65 852.01 1120.89C839.9 1117.49 828.95 1119.2 818.28 1124.84C819.02 1123.45 819.76 1122.06 820.95 1119.82C820.71 1120.27 818.59 1120.81 818.07 1121.05C817.03 1121.53 816 1122.04 814.99 1122.59C813.06 1123.64 811.2 1124.83 809.43 1126.15C805.8 1128.87 803.13 1131.83 800.92 1135.8C799.66 1138.06 799.94 1141.53 800.53 1143.97C800.61 1144.31 800.7 1144.65 800.82 1144.99C801.04 1145.68 801.33 1146.38 801.7 1147.11C799.68 1146.31 797.65 1145.41 795.68 1144.48C791.05 1142.31 786.52 1140.04 781.87 1137.9C778.7 1136.44 775.53 1134.99 772.36 1133.53C771.74 1133.24 771.13 1132.92 770.48 1132.71C769.87 1132.52 769.11 1132.03 768.68 1132.9C768.35 1133.56 769.04 1133.94 769.42 1134.32C776.77 1141.68 784.25 1149.06 791.91 1156.18C795.71 1159.71 799.52 1163.24 803.34 1166.75C804.37 1167.7 804.22 1168.56 803.74 1169.62C802.16 1173.09 801.95 1176.52 803.62 1180.09C804.65 1182.28 804.37 1184.68 803.73 1187C801.75 1194.17 799.63 1201.3 797.9 1208.53C796.76 1213.29 793.92 1216.95 791.24 1220.8C789.59 1223.17 787.23 1225.37 787.63 1228.6C788.27 1233.84 789.03 1239.1 791.9 1243.72C792.24 1244.27 792.85 1244.74 793.44 1245.04C797.03 1246.84 800.71 1248.41 804.67 1249.26C806.79 1249.71 808.66 1249.58 810.5 1248.22C812.21 1246.95 814.14 1246.71 816.34 1247.34C820.54 1248.55 824.4 1247.75 827.96 1245.02C830.67 1242.94 833.64 1241.19 836.5 1239.3C840.29 1236.81 842.49 1233.19 842.66 1228.8C842.82 1224.71 844.63 1221.69 847.25 1218.97C850.92 1215.16 854.78 1211.52 858.43 1207.69C859.96 1206.09 861.1 1206.99 862.19 1207.95C867.8 1212.85 869.35 1219.39 868.55 1226.35C867.13 1238.81 860.83 1248.52 850.02 1254.82C836.7 1262.59 822.34 1262.8 808.29 1257.65C782.13 1248.06 767.76 1228.56 764.03 1201.23C761.98 1186.21 765.68 1171.18 772.65 1157.87C773.16 1156.89 773.84 1156.03 774.38 1155.1C774.55 1154.81 774.8 1154.57 774.78 1154.2C774.77 1154.02 774.16 1152.99 774.03 1153.15C771.73 1155.99 769.65 1159.01 767.85 1162.19C760.18 1175.71 757.62 1191.21 759.53 1206.13C761.97 1225.17 771.69 1243.27 787.35 1255.16C811.83 1273.73 847.36 1273.93 872.49 1256.48C902.17 1235.86 911.21 1194.61 894.41 1162.87ZM898.64 1198.47C898.63 1198.42 898.61 1198.37 898.6 1198.32C898.61 1198.37 898.62 1198.42 898.64 1198.47ZM858.01 1136.83C858.06 1133.42 858 1133.28 861.32 1134.19C870.92 1136.81 878.89 1142.15 885.91 1149.05C886.02 1149.19 886.25 1149.41 886.21 1149.46C886.18 1149.51 886.15 1149.54 886.13 1149.57C885.93 1149.77 885.73 1149.59 885.55 1149.41C879.18 1146.53 873 1143.17 866.22 1141.3C865.52 1141.11 864.81 1140.93 864.1 1140.77C862.95 1140.52 861.82 1140.09 860.66 1140.03C858.5 1139.92 857.98 1138.88 858.01 1136.83ZM849.54 1133.63C846.21 1136.55 844.47 1140.29 840.26 1141.6C835.86 1142.96 832.23 1145.84 828.35 1148.9C829.66 1142.11 840.47 1134.32 849.54 1133.63ZM822.13 1134.31C825.31 1129.66 829.66 1126.5 835.17 1125.05L835.18 1125.04H835.19C835.25 1124.91 835.3 1124.78 835.36 1124.64C835.5 1124.75 835.55 1124.83 835.55 1124.88C835.55 1124.9 835.54 1124.92 835.53 1124.93C835.47 1124.99 835.3 1125 835.19 1125.04V1125.05C835.18 1125.05 835.18 1125.05 835.17 1125.05C831.08 1128.79 828.4 1133.2 826.56 1138.02C826.24 1138.85 825.95 1139.69 825.68 1140.53C825.59 1140.81 825.5 1141.1 825.42 1141.38C825.34 1141.67 825.25 1141.95 825.17 1142.24C825.09 1142.53 825.01 1142.82 824.93 1143.11C824.89 1143.25 824.85 1143.4 824.82 1143.55C824.75 1143.84 824.67 1144.13 824.6 1144.43C824.53 1144.72 824.46 1145.02 824.4 1145.31C824 1147.08 823.67 1148.88 823.38 1150.71C819.24 1145.99 818.69 1139.35 822.13 1134.31ZM812.51 1128.35C810.18 1137.42 809.93 1145.59 815.58 1153.08C811.61 1151.94 808.53 1149.8 807.03 1145.94C805.21 1141.25 807.33 1134.16 812.51 1128.35ZM795.05 1152.3C793.93 1151.39 792.87 1150.41 791.78 1149.47C791.93 1149.26 792.07 1149.04 792.22 1148.83C796.34 1150.97 800.47 1153.08 804.57 1155.26C806.55 1156.31 808.48 1157.48 810.41 1158.63C810.99 1158.98 811.6 1159.35 812.05 1159.84C813.2 1161.08 813.28 1162.5 812.25 1163.84C811.08 1165.37 809.91 1164.3 808.98 1163.56C804.3 1159.84 799.68 1156.06 795.05 1152.3ZM831.84 1235.5C829.97 1236.76 827.96 1237.83 826.25 1239.27C823.05 1241.98 819.59 1242.77 815.22 1241.05C815.79 1240.51 816.36 1239.97 816.93 1239.44C819.4 1237.14 821.9 1234.98 824.83 1233.32C825.31 1232.97 825.78 1232.6 826.27 1232.25C826.56 1232.04 826.86 1231.84 827.16 1231.66C829.08 1230.54 831.26 1229.64 831.06 1226.84C830.87 1224.01 829.07 1222.61 826.37 1221.93C827.33 1221.25 828.28 1221.51 829.16 1221.41C822.74 1219.85 820.52 1221 819.25 1227.57C818.02 1233.94 814.92 1238.51 808.9 1241.02C804.51 1244.63 797.35 1242.34 795.52 1236.99C793.65 1231.52 793.66 1226.71 797.97 1222.19C802.91 1217.01 803.79 1209.95 805.7 1203.41C806.82 1199.56 807.76 1195.67 808.85 1191.55C810.92 1194.1 811.59 1196.99 812.14 1200.33C815.04 1196.95 815.93 1193.15 814.4 1189.9C810.15 1180.86 813.11 1173.19 817.75 1165.55C819.57 1162.55 821.18 1159.41 823 1156.13C824.25 1157.25 825.05 1159.09 826.88 1158.88C828.61 1158.69 829.72 1157.22 830.9 1156.08C838.57 1148.64 845.71 1140.7 852.89 1132.79C853.41 1132.22 853.95 1131.68 854.53 1131.07C857.44 1140.27 857.06 1151.97 839.2 1160.62C843.77 1162.12 848 1161.58 852.15 1160.01C853.62 1159.45 854.62 1159.27 855.23 1161.14C856.69 1165.61 857.59 1170.21 858.64 1174.78C858.84 1175.65 858.28 1176.27 857.88 1176.93C855.46 1180.95 852.96 1184.93 850.65 1189.01C849.66 1190.75 848.42 1191.63 846.45 1191.55C842.14 1191.38 839.12 1193 837.28 1197.21C837.06 1197.72 836.83 1198.23 836.59 1198.75C836.31 1199.36 836.01 1199.96 835.7 1200.55C835.6 1200.73 835.5 1200.92 835.4 1201.1C835.31 1201.27 835.22 1201.43 835.12 1201.59C835.08 1201.66 835.03 1201.74 834.99 1201.81C834.33 1202.94 833.59 1204.03 832.74 1205.04C832.25 1206.27 831.79 1207.53 831.21 1208.67C831.05 1208.98 830.89 1209.28 830.71 1209.57L830.7 1209.58C830.68 1209.61 830.66 1209.64 830.65 1209.67C830.56 1209.82 830.46 1209.96 830.36 1210.1C829.82 1210.86 829.18 1211.53 828.37 1212.05C828.17 1212.18 827.96 1212.3 827.74 1212.4C827.52 1212.51 827.29 1212.61 827.05 1212.7C826.81 1212.79 826.55 1212.87 826.28 1212.93C826.01 1213 825.73 1213.05 825.44 1213.1C824.26 1213.28 823.16 1214.11 822.34 1215.35C823.36 1215.96 824.34 1215.64 825.25 1215.62C830.72 1215.52 834.63 1218.54 836.5 1224.36C837.96 1228.82 836.48 1232.36 831.84 1235.5ZM820.89 1231.73C822.09 1229.87 822.04 1228.16 822.58 1226.62C823.08 1225.22 823.75 1224.12 825.5 1224.41C826.72 1224.61 827.8 1225.08 828.12 1226.39C828.55 1228.08 827.49 1229.02 826.1 1229.44C824.45 1229.94 823.27 1231.45 820.89 1231.73ZM883.03 1234.92C881.98 1227.17 879.4 1220.28 874.4 1214.4C873.98 1213.91 873.55 1213.44 873.11 1212.99C872.81 1212.69 872.51 1212.39 872.2 1212.1C872.05 1211.95 871.89 1211.81 871.74 1211.67C870.18 1210.24 868.54 1208.9 867 1207.45C866.24 1207.06 865.49 1206.69 864.73 1206.29C864.48 1206.16 864.23 1206.03 863.98 1205.89C863.85 1205.82 863.83 1205.55 863.71 1205.26C866.87 1204.59 869.93 1203.66 872.59 1201.8C878.22 1197.87 879.96 1192.21 879.6 1185.67C879.59 1185.46 879.57 1185.26 879.56 1185.05C879.45 1183.6 879.26 1182.16 879.11 1180.72C878.78 1180.37 878.46 1180.01 878.13 1179.66C876.95 1180.68 877.89 1182.14 877.36 1183.29C876.26 1193.58 869.03 1199.94 858.52 1198.72C852.99 1198.08 849.39 1199.78 846.3 1203.91C844.61 1206.17 842.49 1208.15 841 1210.53C839.45 1213 837.75 1213.89 835.03 1212.69C834.33 1212.38 833.53 1212.29 832.78 1212.1C832.18 1212.02 830.69 1212.84 831.65 1211.1C834.54 1205.89 837.51 1200.72 840.39 1195.5C841.12 1194.18 842.21 1193.79 843.55 1193.83C848.2 1193.96 851.63 1192.17 853.33 1187.64C854.02 1185.8 855.25 1185.1 857.21 1185.58C859.22 1186.07 860.2 1185.01 861.33 1183.35C863.9 1179.57 864.47 1175.86 862.98 1171.49C861.7 1167.75 861.05 1163.8 860.08 1159.75C892.74 1173.32 902.51 1211.79 883.03 1234.92ZM898.19 1199.39C898.17 1199.19 898.15 1198.97 898.13 1198.74C898.15 1198.98 898.17 1199.19 898.19 1199.39C898.2 1199.47 898.2 1199.55 898.21 1199.63C898.21 1199.56 898.2 1199.48 898.19 1199.39ZM898.22 1199.76C898.26 1200.23 898.3 1200.71 898.34 1201.18C898.31 1200.28 898.22 1199.37 898.1 1198.52C898.1 1198.55 898.1 1198.57 898.11 1198.6C898.11 1198.57 898.11 1198.55 898.1 1198.52C897.77 1196.13 897.22 1194.17 897.17 1193.98C891.42 1174.65 879.79 1159.77 861.73 1149.4C879.28 1149.9 893.48 1164.79 897.1 1184.58C897.1 1184.59 897.1 1184.6 897.11 1184.61C897.12 1184.64 897.12 1184.67 897.13 1184.7C897.15 1184.84 897.18 1184.97 897.2 1185.11C897.58 1187.28 897.82 1189.51 897.94 1191.78C898.29 1196.61 898.34 1201.19 898.34 1201.19C898.31 1200.7 898.27 1200.23 898.22 1199.76Z" fill="#203551"/>
<path d="M803.76 1235.99C807.17 1234.15 809 1231.48 808.85 1227.46C808.71 1223.7 808.82 1219.93 808.82 1215.78C810.74 1217.32 810.88 1219.41 812.25 1221.9C815.62 1211.52 822.97 1206.68 832.76 1205.02C833.61 1204.01 834.34 1202.92 835.01 1201.79C835.05 1201.72 835.1 1201.64 835.14 1201.57C835.23 1201.41 835.33 1201.24 835.42 1201.08C835.52 1200.9 835.62 1200.71 835.72 1200.53C836.03 1199.93 836.33 1199.33 836.61 1198.73C836.85 1198.22 837.08 1197.71 837.3 1197.19C839.14 1192.99 842.16 1191.37 846.47 1191.53C848.45 1191.61 849.69 1190.73 850.67 1188.99C852.98 1184.91 855.48 1180.93 857.9 1176.91C858.3 1176.25 858.86 1175.63 858.66 1174.76C857.6 1170.2 856.71 1165.59 855.25 1161.12C854.64 1159.25 853.63 1159.44 852.17 1159.99C848.02 1161.56 843.8 1162.1 839.22 1160.6C857.07 1151.96 857.46 1140.25 854.55 1131.05C853.97 1131.66 853.42 1132.2 852.91 1132.77C845.73 1140.68 838.59 1148.62 830.92 1156.06C829.74 1157.2 828.64 1158.67 826.9 1158.86C825.07 1159.06 824.27 1157.23 823.02 1156.11C821.2 1159.39 819.6 1162.53 817.77 1165.53C813.13 1173.18 810.17 1180.85 814.42 1189.88C815.95 1193.14 815.05 1196.93 812.16 1200.31C811.6 1196.97 810.94 1194.08 808.87 1191.53C807.78 1195.65 806.84 1199.54 805.72 1203.39C803.81 1209.93 802.94 1216.99 797.99 1222.17C793.68 1226.69 793.67 1231.5 795.54 1236.97C797.37 1242.32 804.53 1244.61 808.92 1241C805.97 1240.65 803.43 1239.21 800.47 1238.12C801.44 1236.88 802.7 1236.56 803.76 1235.99ZM852.05 1139.61C852.1 1147.46 847.24 1152.75 840.12 1152.81C844.13 1148.38 847.92 1144.19 852.05 1139.61ZM817.86 1181.92C818.51 1183.3 818.08 1185.63 819.65 1185.96C821.12 1186.27 822.12 1184.28 823.15 1183.15C827.74 1178.07 832.26 1172.93 836.82 1167.82C837.25 1167.34 837.49 1166.6 838.31 1166.56C838.73 1167.09 838.32 1167.54 838.09 1167.89C836.33 1170.64 835.14 1172.85 838.56 1175.77C841.29 1178.1 840.16 1182.48 837.09 1184.69C833.32 1187.4 829.12 1189.21 824.64 1190.39C823.89 1190.59 823.09 1190.72 822.41 1191.07C819.26 1192.7 817.58 1191.99 816.73 1188.6C816.2 1186.46 816.56 1184.33 817.86 1181.92ZM798.31 1229.92C799.43 1227.03 801.63 1224.9 803.71 1222.62C804.05 1224.18 803.27 1225.47 804.89 1226.82C806.22 1227.93 805.03 1229.89 803.82 1231.17C802.62 1232.43 801.24 1233.44 799.43 1232.68C798.31 1232.2 797.92 1230.93 798.31 1229.92Z" fill="#FAFAFB"/>
<path d="M860.08 1159.76C861.05 1163.81 861.7 1167.76 862.98 1171.5C864.47 1175.86 863.9 1179.58 861.33 1183.36C860.2 1185.02 859.22 1186.09 857.21 1185.59C855.25 1185.11 854.02 1185.81 853.33 1187.65C851.63 1192.18 848.2 1193.97 843.55 1193.84C842.2 1193.8 841.12 1194.19 840.39 1195.51C837.51 1200.73 834.54 1205.89 831.65 1211.11C830.69 1212.84 832.18 1212.03 832.78 1212.11C835.11 1206.92 838.29 1202.21 841.06 1197.27C841.6 1196.31 842.54 1196.01 843.49 1195.78C846.93 1194.97 850.39 1194.23 853.95 1194.54C855.29 1194.66 856.58 1194.69 857.82 1194.63C858.1 1194.62 858.37 1194.6 858.64 1194.58C859.05 1194.55 859.45 1194.5 859.84 1194.45C866.42 1193.55 871.49 1189.83 875.05 1183.26C875.57 1181.47 876.09 1179.69 876.61 1177.9C876.81 1177.12 877.02 1176.35 877.26 1175.44C877.29 1175.31 877.33 1175.18 877.36 1175.04C879.04 1176.1 879.76 1177.66 880.57 1179.14C885.93 1187.38 888.25 1196.17 888.25 1205.37C888.25 1205.97 888.24 1206.57 888.22 1207.17C888.21 1207.57 888.19 1207.98 888.17 1208.38C888.03 1211 887.71 1213.66 887.23 1216.34C886.85 1218.45 886.21 1220.52 885.67 1222.61C885.55 1223.07 885.31 1223.51 885.12 1223.98C884.05 1223.81 884.1 1222.88 883.8 1222.25C880.86 1216.1 876.19 1211.63 870.34 1208.3C869.3 1207.71 868.24 1207.24 867 1207.46C868.54 1208.91 870.19 1210.24 871.74 1211.68C871.9 1211.82 872.05 1211.97 872.2 1212.11C872.51 1212.4 872.81 1212.7 873.11 1213C873.56 1213.45 873.99 1213.92 874.4 1214.41C879.4 1220.28 881.98 1227.18 883.03 1234.93C902.51 1211.79 892.74 1173.32 860.08 1159.76Z" fill="#F9F9FA"/>
<path d="M825.26 1215.6C824.35 1215.62 823.38 1215.94 822.35 1215.33C823.18 1214.09 824.27 1213.26 825.45 1213.08C825.74 1213.04 826.03 1212.98 826.29 1212.91C826.56 1212.84 826.81 1212.76 827.06 1212.68C827.3 1212.59 827.53 1212.49 827.75 1212.38C827.97 1212.27 828.18 1212.15 828.38 1212.03C829.19 1211.51 829.83 1210.84 830.37 1210.08C830.47 1209.94 830.56 1209.8 830.66 1209.65C830.68 1209.62 830.7 1209.59 830.71 1209.56L830.72 1209.55C830.9 1209.26 831.06 1208.96 831.22 1208.65C831.8 1207.5 832.26 1206.25 832.75 1205.02C822.97 1206.69 815.61 1211.53 812.24 1221.9C810.86 1219.41 810.73 1217.33 808.81 1215.78C808.81 1219.93 808.7 1223.7 808.84 1227.46C808.99 1231.48 807.16 1234.15 803.75 1235.99C802.69 1236.56 801.43 1236.88 800.45 1238.13C803.4 1239.23 805.95 1240.66 808.9 1241.01C814.91 1238.5 818.02 1233.93 819.25 1227.56C820.52 1220.98 822.74 1219.83 829.16 1221.4C831.67 1222.63 833.02 1224.5 832.82 1227.44C832.63 1230.29 830.66 1231.38 828.43 1232.31C828.21 1232.4 828 1232.5 827.78 1232.59C827.64 1232.65 827.49 1232.72 827.35 1232.78C827.21 1232.84 827.06 1232.9 826.91 1232.96C826.76 1233.02 826.62 1233.07 826.47 1233.12C826.4 1233.14 826.32 1233.17 826.25 1233.19C826.1 1233.23 825.95 1233.26 825.79 1233.29C825.63 1233.32 825.48 1233.33 825.32 1233.34C825.24 1233.34 825.16 1233.34 825.08 1233.34C825 1233.34 824.92 1233.33 824.83 1233.33C821.89 1234.99 819.39 1237.15 816.93 1239.45C816.36 1239.98 815.79 1240.52 815.22 1241.06C819.6 1242.78 823.05 1241.99 826.25 1239.28C827.96 1237.84 829.98 1236.76 831.84 1235.51C836.48 1232.38 837.96 1228.84 836.52 1224.35C834.64 1218.52 830.73 1215.5 825.26 1215.6Z" fill="#93A5C2"/>
<path d="M870.34 1208.3C876.19 1211.63 880.86 1216.1 883.8 1222.25C884.1 1222.87 884.05 1223.81 885.12 1223.98C885.31 1223.51 885.55 1223.08 885.67 1222.61C886.22 1220.53 886.85 1218.46 887.23 1216.34C887.71 1213.66 888.03 1211 888.17 1208.38C888.19 1207.98 888.21 1207.57 888.22 1207.17C888.24 1206.57 888.25 1205.96 888.25 1205.37C888.25 1196.17 885.92 1187.38 880.57 1179.14C880.48 1179.18 880.4 1179.23 880.32 1179.28C879.98 1179.49 879.71 1179.77 879.48 1180.09C879.39 1180.21 879.31 1180.34 879.23 1180.48C879.19 1180.56 879.14 1180.64 879.1 1180.73C879.24 1182.17 879.44 1183.62 879.55 1185.06C879.57 1185.27 879.58 1185.47 879.59 1185.68C879.95 1192.22 878.21 1197.87 872.58 1201.81C869.92 1203.67 866.86 1204.6 863.7 1205.27C863.82 1205.56 863.84 1205.83 863.97 1205.9C864.22 1206.04 864.47 1206.17 864.72 1206.3C865.47 1206.69 866.23 1207.07 866.99 1207.46C868.23 1207.23 869.3 1207.71 870.34 1208.3Z" fill="#94A6C3"/>
<path d="M859.84 1194.44C859.45 1194.49 859.04 1194.54 858.64 1194.57C858.37 1194.59 858.1 1194.61 857.82 1194.62C856.58 1194.68 855.29 1194.65 853.95 1194.53C850.39 1194.21 846.93 1194.95 843.49 1195.77C842.54 1196 841.6 1196.3 841.06 1197.26C838.29 1202.2 835.11 1206.91 832.78 1212.1C833.53 1212.29 834.33 1212.38 835.03 1212.69C837.74 1213.89 839.45 1213 841 1210.53C842.49 1208.15 844.6 1206.18 846.3 1203.91C849.39 1199.78 852.99 1198.08 858.52 1198.72C869.04 1199.94 876.26 1193.58 877.36 1183.29C876.59 1183.27 875.82 1183.26 875.04 1183.24C871.5 1189.82 866.43 1193.53 859.84 1194.44Z" fill="#93A5C2"/>
<path d="M860.66 1140.04C861.82 1140.1 862.95 1140.52 864.1 1140.78C864.82 1140.94 865.52 1141.12 866.22 1141.31C873 1143.17 879.18 1146.54 885.55 1149.42C885.73 1149.6 885.93 1149.78 886.13 1149.58C886.16 1149.55 886.19 1149.51 886.21 1149.47C886.24 1149.42 886.01 1149.2 885.91 1149.06C878.89 1142.16 870.92 1136.82 861.32 1134.2C858.01 1133.29 858.06 1133.43 858.01 1136.84C857.98 1138.88 858.5 1139.92 860.66 1140.04Z" fill="#CF2425"/>
<path d="M824.4 1145.31C824.47 1145.02 824.53 1144.72 824.6 1144.43C824.67 1144.14 824.74 1143.85 824.82 1143.55C824.86 1143.4 824.89 1143.26 824.93 1143.11C825.01 1142.82 825.08 1142.53 825.17 1142.24C825.26 1141.95 825.33 1141.67 825.42 1141.38C825.51 1141.09 825.59 1140.81 825.68 1140.53C825.95 1139.68 826.24 1138.84 826.56 1138.02C828.4 1133.2 831.08 1128.8 835.17 1125.05C829.66 1126.5 825.31 1129.66 822.13 1134.31C818.69 1139.35 819.24 1145.99 823.38 1150.7C823.67 1148.88 824 1147.07 824.4 1145.31Z" fill="#CF2425"/>
<path d="M835.18 1125.05C835.19 1125.04 835.19 1125.04 835.18 1125.05C835.17 1125.05 835.17 1125.05 835.16 1125.05C835.17 1125.05 835.18 1125.05 835.18 1125.05Z" fill="#CF2425"/>
<path d="M815.59 1153.08C809.93 1145.59 810.19 1137.43 812.52 1128.35C807.34 1134.16 805.22 1141.24 807.05 1145.94C808.54 1149.8 811.62 1151.94 815.59 1153.08Z" fill="#CE2425"/>
<path d="M812.25 1163.83C813.27 1162.49 813.2 1161.08 812.05 1159.83C811.6 1159.34 810.99 1158.97 810.41 1158.62C808.48 1157.47 806.55 1156.31 804.57 1155.25C800.47 1153.07 796.34 1150.96 792.22 1148.82C792.07 1149.03 791.93 1149.25 791.78 1149.46C792.87 1150.41 793.93 1151.38 795.05 1152.29C799.68 1156.06 804.3 1159.83 808.98 1163.54C809.91 1164.28 811.08 1165.36 812.25 1163.83Z" fill="#F2F3F5"/>
<path d="M828.35 1148.9C832.22 1145.84 835.85 1142.96 840.26 1141.6C844.48 1140.3 846.21 1136.56 849.54 1133.63C840.47 1134.32 829.66 1142.11 828.35 1148.9Z" fill="#CD2525"/>
<path d="M800.35 1136.73C796.92 1137.81 794.22 1139.87 792.01 1142.84C795.65 1144.59 797.64 1145.51 801.67 1147.12C801.3 1146.39 801.01 1145.69 800.79 1145C800.68 1144.66 800.58 1144.32 800.5 1143.98C799.9 1141.41 800.13 1139.07 800.35 1136.73Z" fill="#91A3C1"/>
<path d="M828.13 1226.39C827.8 1225.08 826.72 1224.62 825.51 1224.41C823.76 1224.12 823.09 1225.21 822.59 1226.62C822.05 1228.16 822.09 1229.87 820.9 1231.73C823.28 1231.45 824.47 1229.94 826.12 1229.44C827.5 1229.02 828.55 1228.08 828.13 1226.39Z" fill="#F3F4F6"/>
<path d="M825.08 1233.33C825.16 1233.33 825.24 1233.33 825.32 1233.33C825.48 1233.32 825.64 1233.31 825.79 1233.28C825.95 1233.25 826.1 1233.22 826.25 1233.18C826.33 1233.16 826.4 1233.14 826.47 1233.11C826.62 1233.06 826.77 1233.01 826.91 1232.95C827.06 1232.89 827.2 1232.83 827.35 1232.77C827.49 1232.71 827.64 1232.64 827.78 1232.58C828 1232.48 828.21 1232.39 828.43 1232.3C830.66 1231.38 832.62 1230.28 832.82 1227.43C833.02 1224.49 831.67 1222.62 829.16 1221.39C828.28 1221.49 827.33 1221.23 826.37 1221.91C829.07 1222.59 830.86 1223.99 831.06 1226.82C831.25 1229.63 829.08 1230.52 827.16 1231.64C826.85 1231.82 826.56 1232.02 826.27 1232.23C825.79 1232.58 825.32 1232.95 824.83 1233.3C824.91 1233.33 824.99 1233.33 825.08 1233.33Z" fill="#EDEFF2"/>
<path d="M877.85 1178.56C877.71 1178.36 877.52 1178.2 877.28 1178.08C877.09 1177.99 876.86 1177.92 876.6 1177.89C876.08 1179.68 875.56 1181.46 875.04 1183.25C875.81 1183.27 876.58 1183.29 877.36 1183.3C877.88 1182.14 876.94 1180.68 878.13 1179.67C878.13 1179.34 878.09 1179.06 877.99 1178.83C877.95 1178.73 877.91 1178.64 877.85 1178.56Z" fill="#94A6C3"/>
<path d="M879.24 1180.48C879.32 1180.34 879.4 1180.21 879.49 1180.09C879.72 1179.77 879.99 1179.49 880.33 1179.28C880.41 1179.23 880.49 1179.18 880.58 1179.14C879.76 1177.66 879.05 1176.1 877.37 1175.04C877.33 1175.18 877.3 1175.31 877.27 1175.44C877.03 1176.35 876.83 1177.12 876.62 1177.9C876.88 1177.94 877.1 1178 877.3 1178.09C877.54 1178.21 877.73 1178.36 877.87 1178.57C877.93 1178.65 877.97 1178.74 878.01 1178.83C878.11 1179.07 878.15 1179.35 878.15 1179.67C878.48 1180.02 878.8 1180.38 879.13 1180.73C879.15 1180.65 879.2 1180.56 879.24 1180.48Z" fill="#93A5C2"/>
<path d="M835.55 1124.88C835.55 1124.83 835.5 1124.76 835.36 1124.64C835.3 1124.77 835.25 1124.9 835.19 1125.04C835.3 1125 835.47 1124.99 835.53 1124.93C835.54 1124.92 835.55 1124.9 835.55 1124.88Z" fill="#CF2425"/>
<path d="M773.29 1211.97C773.29 1211.2 773.36 1210.42 773.28 1209.66C771.3 1192.03 775.63 1176.11 786.17 1161.87C788.86 1158.24 788.9 1158.27 785.45 1155.12C785.38 1155.05 785.3 1154.99 785.23 1154.92C782.46 1152.43 782.45 1152.42 780.46 1155.57C773.48 1166.62 770.36 1178.82 770 1191.77C769.8 1198.63 770.96 1205.35 773.29 1211.97Z" fill="#97A8C5"/>
<path d="M784.73 1199.4C785.19 1198.84 785.47 1198.64 785.53 1198.39C785.8 1197.25 786.06 1196.1 786.23 1194.95C787.52 1186 791.21 1178.11 796.77 1171.06C799.17 1168.02 799.19 1168.05 796.32 1165.3C796.25 1165.23 796.17 1165.17 796.11 1165.1C794.44 1162.88 793.21 1163.18 791.85 1165.55C785.91 1175.96 783.07 1187.01 784.73 1199.4Z" fill="#97A8C6"/>
<path d="M822.42 1191.08C823.1 1190.73 823.9 1190.59 824.65 1190.4C829.13 1189.22 833.34 1187.42 837.1 1184.7C840.17 1182.49 841.3 1178.1 838.57 1175.78C835.14 1172.86 836.33 1170.64 838.1 1167.9C838.33 1167.55 838.73 1167.09 838.32 1166.57C837.5 1166.61 837.26 1167.35 836.83 1167.83C832.27 1172.94 827.75 1178.08 823.16 1183.16C822.13 1184.29 821.13 1186.27 819.66 1185.97C818.09 1185.64 818.52 1183.31 817.87 1181.93C816.57 1184.34 816.21 1186.47 816.75 1188.62C817.59 1192 819.27 1192.71 822.42 1191.08ZM832.72 1176.93C833.4 1176.05 834.04 1175.92 834.8 1176.89C836.07 1178.53 836.52 1180.28 835.05 1181.92C832.33 1184.97 828.73 1186.48 824.66 1187.21C827.35 1183.78 830.04 1180.35 832.72 1176.93Z" fill="#273C55"/>
<path d="M852.05 1139.61C847.92 1144.19 844.13 1148.38 840.12 1152.81C847.25 1152.76 852.1 1147.46 852.05 1139.61Z" fill="#2D415C"/>
<path d="M803.82 1231.17C805.03 1229.89 806.23 1227.94 804.89 1226.82C803.27 1225.47 804.05 1224.18 803.71 1222.62C801.62 1224.9 799.42 1227.03 798.31 1229.92C797.92 1230.93 798.31 1232.2 799.44 1232.67C801.24 1233.43 802.62 1232.43 803.82 1231.17Z" fill="#293D59"/>
<path d="M835.05 1181.92C836.51 1180.28 836.07 1178.53 834.8 1176.89C834.05 1175.92 833.41 1176.05 832.72 1176.93C830.04 1180.36 827.35 1183.78 824.66 1187.21C828.73 1186.47 832.33 1184.97 835.05 1181.92Z" fill="#F1CF27"/>
<path d="M897.95 1191.77C897.84 1189.5 897.59 1187.27 897.21 1185.1C897.19 1184.96 897.16 1184.82 897.14 1184.69C897.13 1184.66 897.13 1184.63 897.12 1184.6C897.12 1184.59 897.12 1184.58 897.11 1184.57C893.48 1164.78 879.29 1149.89 861.74 1149.39C879.79 1159.77 891.42 1174.65 897.18 1193.97C897.24 1194.16 897.78 1196.12 898.11 1198.51C898.23 1199.36 898.32 1200.27 898.35 1201.17C898.35 1201.17 898.3 1196.59 897.95 1191.77Z" fill="#D02424"/>
</svg>
