<svg width="145" height="145" viewBox="0 0 145 145" fill="none" xmlns="http://www.w3.org/2000/svg">
<path d="M72.1899 144.6C111.916 144.6 144.12 112.396 144.12 72.67C144.12 32.9442 111.916 0.73999 72.1899 0.73999C32.4641 0.73999 0.26001 32.9442 0.26001 72.67C0.26001 112.396 32.4641 144.6 72.1899 144.6Z" fill="url(#paint0_linear_1_3507)"/>
<path d="M103.66 101.25L79.2099 42.36C78.0299 39.51 75.2699 37.67 72.1899 37.67C69.1099 37.67 66.35 39.51 65.17 42.35L54.4699 68.0699H46.5799C44.0899 68.0699 42.0699 70.09 42.0699 72.58C42.0699 75.07 44.0899 77.09 46.5799 77.09H50.7199L40.68 101.21C39.72 103.51 40.8099 106.15 43.1099 107.1C45.4099 108.06 48.0499 106.97 48.9999 104.67L60.4799 77.09H67.52C70.01 77.09 72.03 75.07 72.03 72.58C72.03 70.09 70.01 68.0699 67.52 68.0699H64.2299L72.1899 48.9301L95.3499 104.7C96.0699 106.43 97.75 107.48 99.51 107.48C100.09 107.48 100.67 107.37 101.24 107.13C103.53 106.19 104.62 103.55 103.66 101.25Z" fill="white"/>
<defs>
<linearGradient id="paint0_linear_1_3507" x1="5.71231" y1="112.518" x2="137.581" y2="33.4618" gradientUnits="userSpaceOnUse">
<stop offset="0.0324" stop-color="#2EBAC6"/>
<stop offset="1" stop-color="#B6509E"/>
</linearGradient>
</defs>
</svg>
