<svg width="145" height="145" viewBox="0 0 145 145" fill="none" xmlns="http://www.w3.org/2000/svg">
<path d="M72.1499 144.49C111.914 144.49 144.15 112.254 144.15 72.49C144.15 32.7255 111.914 0.48999 72.1499 0.48999C32.3854 0.48999 0.149902 32.7255 0.149902 72.49C0.149902 112.254 32.3854 144.49 72.1499 144.49Z" fill="black"/>
<path d="M72.1499 29.29L34.6299 50.8999V94.2L72.1499 115.7L109.42 94.0801V50.9099L72.1499 29.29ZM70.47 69.6399L65.3999 66.72L70.47 57.8799V69.6399ZM68.8301 72.5L58.76 78.3301L63.77 69.5901L68.8301 72.5ZM70.47 75.3501V90.3501L57.5601 82.8301L70.47 75.3501ZM73.76 75.3501L86.6399 82.8101L73.76 90.4199V75.3501ZM75.3999 72.49L80.4399 69.5701L85.48 78.3201L75.3999 72.49ZM73.76 69.6399V57.97L78.8 66.72L73.76 69.6399ZM73.76 51.3701V34.03L104.49 51.8501L81.6499 65.0701L73.76 51.3701ZM70.47 51.26L62.55 65.0801L39.5701 51.8501L70.47 34.05V51.26ZM60.9199 67.9399L53.0801 81.6101L37.9199 90.3899V54.7L60.9199 67.9399ZM54.28 84.72L70.47 94.1499V110.94L39.5701 93.24L54.28 84.72ZM73.76 94.23L89.9099 84.6899L104.49 93.1299L73.76 110.95V94.23ZM91.1799 81.6201L83.29 67.9199L106.12 54.7V90.26L91.1799 81.6201Z" fill="url(#paint0_linear_1_6917)"/>
<defs>
<linearGradient id="paint0_linear_1_6917" x1="34.6256" y1="72.4917" x2="109.422" y2="72.4917" gradientUnits="userSpaceOnUse">
<stop stop-color="#3FFEFF"/>
<stop offset="1" stop-color="#8899F3"/>
</linearGradient>
</defs>
</svg>
