<svg width="145" height="145" viewBox="0 0 145 145" fill="none" xmlns="http://www.w3.org/2000/svg">
<path d="M72.33 144.2C112.122 144.2 144.38 111.942 144.38 72.15C144.38 32.3579 112.122 0.0999756 72.33 0.0999756C32.5378 0.0999756 0.280029 32.3579 0.280029 72.15C0.280029 111.942 32.5378 144.2 72.33 144.2Z" fill="#3468D1"/>
<path d="M50.0401 72.35C50.0001 75.84 53.07 78.94 56.62 78.99C60.1 79.04 63.2401 75.97 63.3101 72.45C63.3801 68.96 60.33 65.84 56.78 65.74C53.25 65.65 50.0801 68.75 50.0401 72.35Z" fill="white"/>
<path d="M81.3399 72.46C81.4099 75.98 84.55 79.05 88.03 79C91.58 78.95 94.66 75.8399 94.61 72.3499C94.56 68.7399 91.39 65.64 87.86 65.75C84.31 65.84 81.2699 68.97 81.3399 72.46Z" fill="white"/>
<path d="M71.1801 85.57C71.1801 81.89 68.32 79.0801 64.58 79.0901C60.87 79.1001 58.0601 81.91 58.0601 85.63C58.0601 89.25 61.06 92.24 64.63 92.21C68.24 92.19 71.1801 89.2 71.1801 85.57Z" fill="white"/>
<path d="M64.6601 65.21C68.3601 65.2 71.2001 62.35 71.1801 58.65C71.1701 55.06 68.1601 52.07 64.5601 52.09C60.9801 52.1 58.0501 55.1 58.0601 58.75C58.0701 62.44 60.9101 65.22 64.6601 65.21Z" fill="white"/>
<path d="M73.47 58.67C73.46 62.37 76.3 65.2 80.01 65.21C83.76 65.21 86.58 62.43 86.59 58.73C86.59 55.09 83.64 52.09 80.07 52.09C76.47 52.09 73.48 55.07 73.47 58.67Z" fill="white"/>
<path d="M80 79.0901C76.29 79.1001 73.46 81.94 73.47 85.64C73.48 89.24 76.49 92.24 80.07 92.22C83.67 92.2 86.59 89.22 86.58 85.57C86.58 81.88 83.75 79.0801 80 79.0901Z" fill="white"/>
<path d="M95.3199 54.85C92.8499 54.84 91.16 56.48 91.15 58.9C91.15 61.25 92.95 63.11 95.25 63.12C97.45 63.14 99.4499 61.13 99.4399 58.9C99.4299 56.68 97.5799 54.86 95.3199 54.85Z" fill="white"/>
<path d="M72.2701 94.52C69.9701 94.53 68.1901 96.31 68.1801 98.58C68.1701 100.88 70.06 102.79 72.33 102.8C74.6 102.8 76.49 100.89 76.49 98.59C76.48 96.27 74.6501 94.5 72.2701 94.52Z" fill="white"/>
<path d="M95.29 81.18C93 81.17 91.16 83.03 91.16 85.37C91.16 87.75 92.82 89.44 95.17 89.45C97.54 89.46 99.42 87.7 99.45 85.43C99.48 83.21 97.5 81.19 95.29 81.18Z" fill="white"/>
<path d="M72.35 49.79C74.7 49.78 76.51 47.96 76.48 45.63C76.45 43.39 74.6 41.54 72.36 41.5C70.1 41.47 68.1801 43.38 68.1701 45.68C68.1601 48.01 69.98 49.79 72.35 49.79Z" fill="white"/>
<path d="M49.38 63.12C51.68 63.12 53.5 61.25 53.5 58.91C53.49 56.49 51.8 54.83 49.35 54.85C47.08 54.86 45.23 56.67 45.21 58.89C45.19 61.11 47.18 63.13 49.38 63.12Z" fill="white"/>
<path d="M53.5 85.34C53.49 83.01 51.62 81.14 49.34 81.18C47.16 81.22 45.25 83.14 45.21 85.33C45.17 87.58 47.06 89.45 49.39 89.45C51.83 89.45 53.51 87.78 53.5 85.34Z" fill="white"/>
<path d="M89.3 98.38C87.4 98.4 85.8699 99.94 85.8499 101.85C85.8299 103.89 87.28 105.37 89.31 105.37C91.26 105.37 92.8799 103.75 92.8299 101.84C92.7799 99.98 91.12 98.36 89.3 98.38Z" fill="white"/>
<path d="M110.03 71.9C110.02 70.02 108.46 68.51 106.53 68.49C104.49 68.48 103.02 69.94 103.03 71.96C103.04 73.86 104.56 75.39 106.47 75.42C108.39 75.46 110.04 73.82 110.03 71.9Z" fill="white"/>
<path d="M38.19 68.5C36.2 68.49 34.59 70.05 34.62 71.96C34.65 73.84 36.24 75.42 38.11 75.43C40.06 75.44 41.63 73.87 41.62 71.91C41.62 69.95 40.16 68.5 38.19 68.5Z" fill="white"/>
<path d="M89.31 45.92C91.18 45.93 92.8899 44.19 92.8199 42.34C92.7499 40.43 91.2 38.94 89.3 38.94C87.27 38.94 85.8299 40.42 85.8499 42.46C85.8699 44.35 87.42 45.91 89.31 45.92Z" fill="white"/>
<path d="M55.3101 45.92C57.2301 45.93 58.8201 44.32 58.8101 42.37C58.8001 40.35 57.3101 38.91 55.2601 38.94C53.3801 38.97 51.82 40.55 51.83 42.43C51.83 44.25 53.4801 45.91 55.3101 45.92Z" fill="white"/>
<path d="M55.3399 98.38C53.4699 98.37 51.7599 100.12 51.8199 101.96C51.8899 103.86 53.4399 105.36 55.3399 105.36C57.3699 105.36 58.82 103.88 58.8 101.84C58.79 99.95 57.2199 98.39 55.3399 98.38Z" fill="white"/>
<path d="M35.73 53.82C37.26 53.82 38.5499 52.56 38.5799 51.05C38.6099 49.5 37.28 48.15 35.73 48.14C34.21 48.13 32.82 49.54 32.86 51.06C32.9 52.57 34.21 53.82 35.73 53.82Z" fill="white"/>
<path d="M108.91 48.14C107.35 48.16 106.04 49.52 106.08 51.07C106.12 52.58 107.42 53.82 108.94 53.82C110.47 53.82 111.76 52.55 111.79 51.04C111.82 49.53 110.41 48.12 108.91 48.14Z" fill="white"/>
<path d="M35.7601 90.48C34.2301 90.46 32.93 91.69 32.86 93.21C32.8 94.71 34.18 96.15 35.7 96.16C37.25 96.17 38.59 94.83 38.58 93.27C38.57 91.77 37.2901 90.5 35.7601 90.48Z" fill="white"/>
<path d="M108.87 90.48C107.35 90.51 106.07 91.79 106.07 93.29C106.07 94.84 107.42 96.18 108.97 96.16C110.44 96.14 111.77 94.8 111.79 93.32C111.81 91.77 110.45 90.45 108.87 90.48Z" fill="white"/>
<path d="M72.35 32.61C73.9 32.6 75.18 31.36 75.19 29.85C75.2 28.34 73.92 27.08 72.37 27.07C70.75 27.06 69.42 28.34 69.47 29.89C69.51 31.4 70.79 32.61 72.35 32.61Z" fill="white"/>
<path d="M72.3001 111.7C70.7501 111.71 69.47 112.96 69.46 114.47C69.45 115.97 70.7301 117.23 72.2901 117.24C73.8601 117.25 75.14 116.07 75.19 114.54C75.24 112.99 73.9101 111.69 72.3001 111.7Z" fill="white"/>
<path d="M26 69.77C24.64 69.78 23.6799 70.81 23.7099 72.23C23.7399 73.57 24.71 74.54 26.02 74.54C27.33 74.54 28.4699 73.42 28.4599 72.15C28.4499 70.86 27.31 69.76 26 69.77Z" fill="white"/>
<path d="M118.59 69.77C117.28 69.79 116.16 70.93 116.19 72.21C116.22 73.45 117.3 74.51 118.56 74.54C119.92 74.57 120.93 73.56 120.94 72.17C120.95 70.76 119.95 69.75 118.59 69.77Z" fill="white"/>
<path d="M95.7 34.37C97.06 34.37 98.13 33.3 98.11 31.98C98.09 30.78 96.96 29.65 95.74 29.61C94.49 29.57 93.28 30.74 93.27 32C93.27 33.33 94.34 34.38 95.7 34.37Z" fill="white"/>
<path d="M48.96 34.37C50.32 34.37 51.4 33.31 51.38 31.99C51.36 30.73 50.15 29.57 48.9 29.61C47.69 29.65 46.56 30.79 46.55 31.99C46.52 33.32 47.6 34.37 48.96 34.37Z" fill="white"/>
<path d="M48.91 109.93C47.55 109.95 46.49 111.04 46.54 112.35C46.59 113.56 47.7199 114.67 48.9399 114.68C50.1999 114.69 51.38 113.51 51.38 112.26C51.37 110.94 50.28 109.91 48.91 109.93Z" fill="white"/>
<path d="M95.65 109.93C94.29 109.95 93.23 111.04 93.28 112.36C93.33 113.57 94.47 114.68 95.68 114.69C96.93 114.7 98.13 113.51 98.11 112.26C98.1 110.93 97.01 109.91 95.65 109.93Z" fill="white"/>
</svg>
