<svg width="167" height="166" viewBox="0 0 167 166" fill="none" xmlns="http://www.w3.org/2000/svg">
<path d="M94.8846 154.123C134.234 147.736 160.956 110.66 154.57 71.3103C148.184 31.9607 111.108 5.23856 71.7581 11.6248C32.4084 18.011 5.6863 55.0871 12.0725 94.4368C18.4587 133.786 55.5349 160.509 94.8846 154.123Z" fill="#3F55C4"/>
<path d="M68.43 89.21C73.27 89.21 76.94 92.88 76.93 97.73C76.92 102.52 73.1702 106.24 68.3702 106.22C63.6702 106.2 59.96 102.46 59.95 97.74C59.93 92.88 63.59 89.21 68.43 89.21Z" fill="white"/>
<path d="M89.5902 67.9699C89.6102 63.1299 93.29 59.51 98.16 59.54C102.86 59.57 106.6 63.3199 106.59 67.9999C106.59 72.8399 102.78 76.57 97.9 76.54C93.23 76.51 89.5702 72.7399 89.5902 67.9699Z" fill="white"/>
<path d="M76.9499 68.06C76.9399 72.87 73.2198 76.55 68.3898 76.54C63.6198 76.52 59.9299 72.7399 59.9599 67.9199C59.9899 63.1499 63.76 59.51 68.61 59.54C73.34 59.58 76.9599 63.28 76.9499 68.06Z" fill="white"/>
<path d="M89.5601 97.65C89.5701 92.82 93.2701 89.17 98.1201 89.21C102.83 89.24 106.56 92.97 106.58 97.67C106.6 102.41 102.79 106.23 98.03 106.22C93.25 106.22 89.5501 102.48 89.5601 97.65Z" fill="white"/>
<path d="M51.6499 56.63C48.6499 56.65 46.18 54.1901 46.21 51.2001C46.24 48.3001 48.6801 45.8502 51.5801 45.8302C54.5601 45.8102 57.01 48.2902 57 51.2902C56.99 54.2302 54.6099 56.61 51.6499 56.63Z" fill="white"/>
<path d="M51.6799 109.16C54.7099 109.17 57.06 111.59 57.01 114.64C56.97 117.56 54.5101 119.97 51.6001 119.95C48.6701 119.93 46.1599 117.34 46.2299 114.41C46.2999 111.47 48.7099 109.15 51.6799 109.16Z" fill="white"/>
<path d="M109.54 114.45C109.55 111.39 111.88 109.11 114.99 109.14C117.95 109.17 120.32 111.57 120.3 114.5C120.28 117.45 117.92 119.79 114.95 119.81C111.84 119.83 109.53 117.54 109.54 114.45Z" fill="white"/>
<path d="M109.53 51.1202C109.55 48.0802 111.95 45.7601 115.01 45.8101C117.94 45.8601 120.22 48.2601 120.18 51.2701C120.15 54.2501 117.77 56.6302 114.86 56.6102C111.86 56.6002 109.5 54.1802 109.53 51.1202Z" fill="white"/>
<path d="M83.22 55.7501C81.31 55.7401 79.8201 54.2301 79.8701 52.3401C79.9201 50.5001 81.36 49.1001 83.22 49.0901C85.15 49.0801 86.6699 50.55 86.6699 52.42C86.6699 54.31 85.16 55.7601 83.22 55.7501Z" fill="white"/>
<path d="M117 82.8602C117 84.7102 115.46 86.3001 113.64 86.3001C111.85 86.3001 110.22 84.6799 110.21 82.8899C110.2 81.0699 111.77 79.5 113.61 79.49C115.49 79.48 117 80.9802 117 82.8602Z" fill="white"/>
<path d="M49.5401 82.83C49.5501 80.9 51.01 79.4499 52.93 79.4799C54.85 79.5099 56.23 80.9899 56.19 82.9499C56.15 84.7999 54.6799 86.27 52.8899 86.27C51.0199 86.26 49.5301 84.73 49.5401 82.83Z" fill="white"/>
<path d="M83.3101 109.97C85.2001 110 86.73 111.56 86.66 113.4C86.58 115.27 85.0202 116.7 83.1102 116.64C81.2702 116.59 79.8699 115.12 79.8799 113.27C79.8699 111.37 81.3601 109.94 83.3101 109.97Z" fill="white"/>
</svg>
