<svg width="175" height="175" viewBox="0 0 175 175" fill="none" xmlns="http://www.w3.org/2000/svg">
<path d="M157.708 104.282C166.869 65.4864 142.845 26.6103 104.049 17.4495C65.2536 8.2888 26.3774 32.3125 17.2166 71.1081C8.05592 109.904 32.0796 148.78 70.8752 157.941C109.671 167.102 148.547 143.078 157.708 104.282Z" fill="#F2F2F2"/>
<path d="M30.1599 87.49L87.3401 144.67L144.52 87.49L87.3401 30.31L30.1599 87.49ZM110.72 64.11C113.76 67.15 116.14 70.68 117.81 74.62C119.54 78.7 120.41 83.03 120.41 87.49C120.41 91.95 119.54 96.28 117.81 100.36C116.14 104.3 113.76 107.83 110.72 110.87C107.68 113.91 104.15 116.29 100.21 117.96C96.13 119.69 91.8001 120.56 87.3401 120.56C82.8801 120.56 78.55 119.69 74.47 117.96C70.53 116.29 67 113.91 63.96 110.87C60.92 107.83 58.5401 104.3 56.8701 100.36C55.1401 96.28 54.27 91.95 54.27 87.49C54.27 83.03 55.1401 78.7 56.8701 74.62C58.5401 70.68 60.92 67.15 63.96 64.11C67 61.07 70.53 58.69 74.47 57.02C78.55 55.29 82.8801 54.42 87.3401 54.42C91.8001 54.42 96.13 55.29 100.21 57.02C104.15 58.69 107.69 61.07 110.72 64.11Z" fill="#00A3E8"/>
<path d="M146.75 85.27L89.57 28.09C88.96 27.48 88.15 27.17 87.35 27.17C86.54 27.17 85.7398 27.48 85.1298 28.09L27.9498 85.27C26.7198 86.5 26.7198 88.49 27.9498 89.72L85.1298 146.9C85.7398 147.51 86.55 147.82 87.35 147.82C88.16 147.82 88.96 147.51 89.57 146.9L146.75 89.72C147.97 88.49 147.97 86.5 146.75 85.27ZM144.52 87.49L87.34 144.67L30.1598 87.49L87.34 30.31L144.52 87.49Z" fill="black"/>
<path d="M57.4199 87.49C57.4199 104.02 70.8201 117.41 87.3401 117.41C103.87 117.41 117.26 104.01 117.26 87.49C117.26 70.97 103.86 57.57 87.3401 57.57C70.8101 57.57 57.4199 70.97 57.4199 87.49ZM85.4099 77.55H85.5801H88.97H89.0901L89.03 77.71L96.96 97.43H92.6001L90.9199 92.78H83.6599L82 97.43H77.71L85.49 77.78L85.4099 77.55Z" fill="#3AA12C"/>
<path d="M87.27 82.67L84.76 89.7H89.8101L87.27 82.67Z" fill="#3AA12C"/>
<path d="M74.47 57.02C70.53 58.69 67 61.07 63.96 64.11C60.92 67.15 58.5401 70.68 56.8701 74.62C55.1401 78.7 54.27 83.03 54.27 87.49C54.27 91.95 55.1401 96.28 56.8701 100.36C58.5401 104.3 60.92 107.83 63.96 110.87C67 113.91 70.53 116.29 74.47 117.96C78.55 119.69 82.8801 120.56 87.3401 120.56C91.8001 120.56 96.13 119.69 100.21 117.96C104.15 116.29 107.68 113.91 110.72 110.87C113.76 107.83 116.14 104.3 117.81 100.36C119.54 96.28 120.41 91.95 120.41 87.49C120.41 83.03 119.54 78.7 117.81 74.62C116.14 70.68 113.76 67.15 110.72 64.11C107.68 61.07 104.15 58.69 100.21 57.02C96.13 55.29 91.8001 54.42 87.3401 54.42C82.8801 54.42 78.54 55.3 74.47 57.02ZM87.3401 57.57C103.87 57.57 117.26 70.97 117.26 87.49C117.26 104.01 103.86 117.41 87.3401 117.41C70.8101 117.41 57.4199 104.01 57.4199 87.49C57.4199 70.97 70.8101 57.57 87.3401 57.57Z" fill="black"/>
<path d="M82.01 97.43L83.6699 92.78H90.9299L92.6101 97.43H96.97L89.04 77.71L89.1001 77.55H88.98H85.5901H85.4199L85.5 77.78L77.72 97.43H82.01ZM87.27 82.67L89.8101 89.7H84.76L87.27 82.67Z" fill="white"/>
</svg>
