<svg width="174" height="174" viewBox="0 0 174 174" fill="none" xmlns="http://www.w3.org/2000/svg">
<path d="M156.769 103.639C165.909 64.9297 141.939 26.1396 103.229 16.9991C64.5197 7.85872 25.7297 31.8293 16.5893 70.5388C7.44884 109.248 31.4193 148.038 70.1289 157.179C108.838 166.319 147.629 142.349 156.769 103.639Z" fill="black"/>
<path d="M92.1201 60.5C92.1201 60.5 93.8101 66.93 96.0801 75.58L70.8401 119.39H84.6201L100.33 91.72C103.57 103.98 106.74 115.96 107.72 119.39H120.09L108.71 76.95L116.67 62.94H104.96L99.8301 43.8H87.9099L44.3501 119.39H57.78L92.1201 60.5Z" fill="white"/>
</svg>
