<svg width="203" height="203" viewBox="0 0 203 203" fill="none" xmlns="http://www.w3.org/2000/svg">
<path d="M151.797 151.934C179.704 124.027 179.704 78.7815 151.797 50.8749C123.891 22.9683 78.6452 22.9682 50.7386 50.8748C22.832 78.7814 22.8321 124.027 50.7387 151.934C78.6452 179.84 123.891 179.84 151.797 151.934Z" fill="#D62D79"/>
<path d="M64.6399 101.38H77.4199H87.02H115.92H125.49H137.93C140.42 101.38 142.44 99.36 142.44 96.87C142.44 94.38 140.42 92.36 137.93 92.36H122.33L114.14 69C112.26 63.63 107.36 60.14 101.67 60.11C101.65 60.11 101.63 60.11 101.61 60.11C95.9501 60.11 91.0499 63.55 89.1299 68.89L80.6799 92.36H64.6499C62.1599 92.36 60.1399 94.38 60.1399 96.87C60.1399 99.36 62.1499 101.38 64.6399 101.38ZM97.6201 71.9399C98.5601 69.3399 100.89 69.13 101.61 69.13C101.62 69.13 101.62 69.13 101.63 69.13C102.33 69.13 104.69 69.35 105.61 71.97L112.75 92.34H90.27L97.6201 71.9399Z" fill="white"/>
<path d="M137.93 110.49H128.69H119.12H83.74H74.1399H64.6399C62.1499 110.49 60.1299 112.51 60.1299 115C60.1299 117.49 62.1499 119.51 64.6399 119.51H70.8799L64.71 136.63C63.86 138.98 65.0799 141.56 67.4299 142.41C67.9399 142.59 68.45 142.68 68.96 142.68C70.81 142.68 72.54 141.53 73.21 139.69L80.48 119.51H122.28L129.34 139.65C129.99 141.51 131.74 142.67 133.6 142.67C134.1 142.67 134.6 142.59 135.09 142.41C137.44 141.59 138.68 139.01 137.86 136.66L131.85 119.5H137.93C140.42 119.5 142.44 117.48 142.44 114.99C142.44 112.5 140.42 110.49 137.93 110.49Z" fill="white"/>
</svg>
