<svg width="174" height="174" viewBox="0 0 174 174" fill="none" xmlns="http://www.w3.org/2000/svg">
<path d="M157.107 102.651C165.993 63.7876 141.691 25.0794 102.828 16.1937C63.9647 7.30803 25.2564 31.6098 16.3708 70.4731C7.4851 109.336 31.7869 148.045 70.6502 156.93C109.514 165.816 148.222 141.514 157.107 102.651Z" fill="#F4F4F4"/>
<path d="M43.11 97.3701C43.28 97.3801 43.46 97.3899 43.63 97.3899C47.02 97.3899 50.4201 97.3899 53.8101 97.3899C53.9801 97.3899 54.15 97.3899 54.37 97.3899C54.37 97.5999 54.37 97.7599 54.37 97.9199C54.37 100.07 54.39 102.23 54.36 104.38C54.35 105.44 54.87 106.15 55.77 106.6C58.35 107.91 60.94 109.21 63.53 110.51C69.31 113.43 75.09 116.34 80.88 119.26C81.03 119.34 81.19 119.4 81.38 119.49C81.38 115.13 81.38 110.82 81.38 106.49C81.25 106.45 81.12 106.39 80.98 106.35C77.61 105.29 74.6599 103.53 72.1899 101.01C69.1099 97.87 67.22 94.12 66.52 89.78C66.26 88.21 66.19 86.62 66.3 85.04C66.62 80.65 68.1599 76.72 70.9399 73.29C73.6799 69.91 77.16 67.5801 81.34 66.3301C83.54 65.6801 85.7799 65.39 88.0699 65.49C97.9099 65.92 105.83 73.03 107.71 81.98C109.12 88.71 107.56 94.74 103.15 100.01C100.55 103.11 97.27 105.23 93.38 106.37C93.28 106.4 93.1899 106.44 93.0699 106.48C93.0699 110.79 93.0699 115.09 93.0699 119.41C93.2399 119.47 93.37 119.34 93.5 119.27C96.18 117.89 98.85 116.5 101.52 115.11C106.97 112.28 112.43 109.46 117.88 106.63C117.98 106.58 118.08 106.51 118.19 106.47C119.04 106.14 119.35 105.46 119.39 104.62C119.4 104.49 119.39 104.36 119.39 104.23C119.39 102.12 119.39 100.01 119.39 97.8999C119.39 97.7399 119.39 97.5801 119.39 97.3601C119.59 97.3601 119.76 97.3601 119.93 97.3601C123.28 97.3601 126.63 97.3601 129.98 97.3601C130.15 97.3601 130.33 97.3501 130.5 97.3401C130.5 100.22 130.5 103.1 130.5 105.99C130.46 106.26 130.43 106.53 130.38 106.8C129.52 111.19 127.13 114.47 123.18 116.56C120.55 117.95 117.9 119.27 115.25 120.62C107.85 124.4 100.45 128.18 93.05 131.97C91.65 132.69 90.18 133.16 88.62 133.36C88.31 133.4 88.0001 133.46 87.6801 133.52C87.2101 133.52 86.75 133.52 86.28 133.52C85.78 133.46 85.29 133.41 84.79 133.35C83.29 133.14 81.87 132.7 80.52 132.01C77.89 130.66 75.27 129.3 72.64 127.95C65.28 124.16 57.9001 120.39 50.5601 116.57C46.3301 114.37 43.86 110.87 43.25 106.11C43.29 105.77 43.23 105.45 43.1 105.14C43.11 102.55 43.11 99.9601 43.11 97.3701ZM96.53 86.45C96.56 81.15 92.1 76.8999 86.95 76.9199C81.61 76.9399 77.4301 81.17 77.4301 86.47C77.4401 91.79 81.87 96 86.97 96.01C92.07 96.01 96.57 91.8 96.53 86.45Z" fill="#396AE7"/>
<path d="M130.5 76.4099C130.37 76.4199 130.24 76.4399 130.11 76.4399C126.76 76.4399 123.41 76.4399 120.06 76.4399C119.93 76.4399 119.8 76.4399 119.62 76.4399C119.61 76.2599 119.6 76.1 119.6 75.95C119.6 73.81 119.58 71.67 119.61 69.53C119.63 68.43 119.11 67.71 118.18 67.23C110.37 63.23 102.56 59.24 94.75 55.25C92.56 54.13 90.3699 53.02 88.1899 51.89C87.3799 51.47 86.5901 51.5 85.8101 51.9C76.2701 56.77 66.74 61.65 57.21 66.52C56.63 66.82 56.05 67.1299 55.45 67.3999C54.78 67.7099 54.48 68.2499 54.39 68.9399C54.37 69.1299 54.38 69.32 54.38 69.51C54.38 71.65 54.38 73.7899 54.38 75.9299C54.38 76.0899 54.38 76.2399 54.38 76.4199C54.2 76.4299 54.08 76.4399 53.95 76.4399C50.46 76.4399 46.96 76.4399 43.47 76.4399C43.35 76.4399 43.24 76.4199 43.12 76.4099C43.12 73.6999 43.12 70.99 43.12 68.29C43.2 67.9 43.29 67.5101 43.37 67.1101C44.11 63.0401 46.24 59.91 49.74 57.74C50.67 57.17 51.66 56.71 52.63 56.21C61.99 51.42 71.36 46.64 80.72 41.85C82.23 41.08 83.82 40.6 85.5 40.42C85.79 40.39 86.08 40.36 86.38 40.34C86.73 40.34 87.0801 40.34 87.4301 40.34C87.7201 40.37 88.0101 40.4 88.3101 40.42C90.0601 40.6 91.7401 41.07 93.3101 41.87C99.4001 44.98 105.48 48.09 111.57 51.2C115.53 53.23 119.5 55.23 123.45 57.28C126.86 59.04 129.17 61.7499 130.28 65.4399C130.37 65.7399 130.44 66.0501 130.52 66.3601C130.5 69.7101 130.5 73.0599 130.5 76.4099Z" fill="#396AE7"/>
<path d="M85.3199 133.53C85.1399 133.47 84.97 133.42 84.79 133.36C85.29 133.42 85.78 133.47 86.28 133.53C85.96 133.53 85.6399 133.53 85.3199 133.53Z" fill="#9EB6F3"/>
<path d="M43.26 106.12C43.21 106.12 43.16 106.11 43.11 106.11C43.11 105.79 43.11 105.47 43.11 105.15C43.24 105.46 43.3 105.78 43.26 106.12Z" fill="#B3C9F6"/>
<path d="M85.49 40.41C85.5 40.38 85.5 40.35 85.49 40.33C85.78 40.33 86.07 40.33 86.36 40.33C86.07 40.36 85.78 40.39 85.49 40.41Z" fill="#B2C5F6"/>
<path d="M88.29 40.33C88.28 40.36 88.28 40.39 88.29 40.41C88 40.38 87.71 40.35 87.41 40.33C87.71 40.33 88 40.33 88.29 40.33Z" fill="#A6BCF4"/>
</svg>
