<svg width="146" height="145" viewBox="0 0 146 145" fill="none" xmlns="http://www.w3.org/2000/svg">
<path d="M63.78 80.84C63.78 89.6 76.31 86.31 78.5 84.49C79.76 83.44 80.88 82.2601 81.66 81.2701C81.66 80.0501 81.66 78.84 81.66 77.62C81.66 75.88 81.66 74.1401 81.66 72.4101H73.2C73.21 72.4101 63.78 72.08 63.78 80.84Z" fill="white"/>
<path d="M134.28 72.41C134.28 64.12 132.66 56.08 129.46 48.52C126.37 41.21 121.94 34.64 116.3 29.01C110.66 23.37 104.1 18.94 96.79 15.85C89.23 12.65 81.19 11.03 72.9 11.03C64.61 11.03 56.57 12.65 49.01 15.85C41.7 18.94 35.13 23.37 29.5 29.01C23.87 34.65 19.43 41.22 16.34 48.52C13.14 56.08 11.52 64.12 11.52 72.41C11.52 80.7 13.14 88.74 16.34 96.3C19.43 103.61 23.86 110.17 29.5 115.81C35.14 121.45 41.71 125.88 49.01 128.97C56.57 132.17 64.61 133.79 72.9 133.79C81.19 133.79 89.23 132.17 96.79 128.97C104.1 125.88 110.66 121.45 116.3 115.81C121.94 110.17 126.37 103.61 129.46 96.3C132.66 88.74 134.28 80.7 134.28 72.41ZM83.79 95.5C83.17 94.7 82.72 92.56 82.39 90.2C81.21 91.81 77.07 96.47 68.52 96.47C58.18 96.47 50.45 90.02 50.45 81.26C50.45 72.5 57.45 64.59 72.35 64.59C77.01 64.59 79.9 64.59 81.66 64.59C81.66 63.95 81.66 63.3 81.66 62.66C81.66 60.65 81.82 58.73 80.53 57.01C78.71 54.58 75.31 53.52 72.41 53.52C64.14 53.52 64.5601 59.75 64.5601 59.75H51.79C51.79 43.23 73.35 43.72 73.35 43.72C94.76 43.72 94.67 60.14 94.67 60.14C94.67 60.14 94.67 74.01 94.67 82.4C94.67 90.79 97.04 95.48 97.04 95.48H83.79V95.5Z" fill="white"/>
<path d="M139.4 44.3101C135.76 35.7101 130.56 28 123.93 21.37C117.3 14.74 109.58 9.54002 100.99 5.90002C92.09 2.13002 82.63 0.22998 72.89 0.22998C63.15 0.22998 53.7 2.14002 44.79 5.90002C36.19 9.54002 28.48 14.74 21.85 21.37C15.22 28 10.02 35.7201 6.38 44.3101C2.61 53.2101 0.709961 62.67 0.709961 72.41C0.709961 82.15 2.62 91.6 6.38 100.51C10.02 109.11 15.22 116.82 21.85 123.45C28.48 130.08 36.2 135.28 44.79 138.92C53.69 142.69 63.15 144.59 72.89 144.59C82.63 144.59 92.09 142.68 100.99 138.92C109.59 135.28 117.3 130.08 123.93 123.45C130.56 116.82 135.76 109.1 139.4 100.51C143.17 91.61 145.07 82.15 145.07 72.41C145.07 62.67 143.16 53.2201 139.4 44.3101ZM96.79 128.98C89.23 132.18 81.19 133.8 72.9 133.8C64.61 133.8 56.57 132.18 49.01 128.98C41.7 125.89 35.13 121.46 29.5 115.82C23.86 110.18 19.43 103.62 16.34 96.3101C13.14 88.7501 11.52 80.71 11.52 72.42C11.52 64.13 13.14 56.09 16.34 48.53C19.43 41.22 23.86 34.65 29.5 29.02C35.14 23.39 41.71 18.95 49.01 15.86C56.57 12.66 64.61 11.04 72.9 11.04C81.19 11.04 89.23 12.66 96.79 15.86C104.1 18.95 110.66 23.38 116.3 29.02C121.94 34.66 126.37 41.23 129.46 48.53C132.66 56.09 134.28 64.13 134.28 72.42C134.28 80.71 132.66 88.7501 129.46 96.3101C126.37 103.62 121.94 110.18 116.3 115.82C110.66 121.46 104.1 125.88 96.79 128.98Z" fill="black"/>
<path d="M94.6801 60.16C94.6801 60.16 94.77 43.7399 73.36 43.7399C73.36 43.7399 51.8 43.25 51.8 59.77H64.5699C64.5699 59.77 64.14 53.54 72.42 53.54C75.33 53.54 78.72 54.6 80.54 57.03C81.83 58.75 81.67 60.67 81.67 62.68C81.67 63.32 81.67 63.9699 81.67 64.6099C79.91 64.6099 77.03 64.6099 72.36 64.6099C57.46 64.6099 50.46 72.52 50.46 81.28C50.46 90.04 58.19 96.4899 68.53 96.4899C77.08 96.4899 81.22 91.8299 82.4 90.2199C82.73 92.5799 83.18 94.72 83.8 95.52H97.0601C97.0601 95.52 94.6899 90.8399 94.6899 82.4399C94.6799 74.0299 94.6801 60.16 94.6801 60.16ZM81.66 77.6199C81.66 78.8399 81.66 80.05 81.66 81.27C80.88 82.26 79.76 83.4399 78.5 84.4899C76.31 86.3099 63.78 89.5999 63.78 80.8399C63.78 72.0799 73.21 72.41 73.21 72.41H81.67C81.66 74.15 81.66 75.8899 81.66 77.6199Z" fill="black"/>
</svg>
