<svg width="145" height="145" viewBox="0 0 145 145" fill="none" xmlns="http://www.w3.org/2000/svg">
<path d="M72.52 144.37C112.384 144.37 144.7 112.054 144.7 72.1899C144.7 32.326 112.384 0.0100098 72.52 0.0100098C32.6561 0.0100098 0.340088 32.326 0.340088 72.1899C0.340088 112.054 32.6561 144.37 72.52 144.37Z" fill="url(#paint0_linear_1_7991)"/>
<path d="M54.9199 93.4799C54.9199 97.6299 54.9299 101.57 54.9099 105.52C54.9099 106.33 54.87 107.14 54.76 107.93C54.53 109.63 53.0001 111.59 51.3501 111.68C47.8801 111.86 44.39 111.74 40.81 111.74C40.79 111.34 40.76 110.91 40.76 110.47C40.76 103.52 40.7799 96.56 40.7299 89.61C40.7199 88.61 41.0699 88.1098 41.9399 87.6598C47.3599 84.8798 52.7499 82.0299 58.1699 79.2599C58.8499 78.9099 59.6899 78.6999 60.4499 78.6999C70.1899 78.6599 79.9199 78.6798 89.6599 78.6698C93.4399 78.6698 95.3401 76.7399 95.3401 72.9499C95.3401 68.9999 95.3101 65.05 95.3701 61.11C95.3801 60.6 95.7001 59.8398 96.1001 59.6298C100.35 57.4198 104.65 55.2998 108.94 53.1598C109.01 53.1298 109.11 53.1598 109.32 53.1598C109.34 53.6098 109.38 54.08 109.38 54.55C109.38 62.09 109.39 69.6198 109.38 77.1598C109.37 86.4798 102.35 93.4799 93.02 93.4799C80.91 93.4799 68.7899 93.4799 56.6799 93.4799C56.1799 93.4799 55.6499 93.4799 54.9199 93.4799Z" fill="white"/>
<path d="M40.7599 75.0701C40.7599 68.0001 40.7299 61.0501 40.7799 54.0901C40.7899 52.7101 40.9599 51.31 41.2699 49.97C42.8799 43.02 49.24 37.8601 56.36 37.8301C68.88 37.7701 81.3998 37.7901 93.9198 37.8201C97.8398 37.8301 102.31 39.83 104.44 42.43C103.96 42.68 103.51 42.94 103.04 43.17C97.6399 45.89 92.24 48.6201 86.82 51.3001C86.17 51.6201 85.3698 51.7601 84.6398 51.7701C76.6498 51.8001 68.6598 51.7901 60.6698 51.7901C56.6798 51.7901 54.8099 53.6601 54.8099 57.6001C54.8099 60.7001 54.8299 63.7899 54.7799 66.8899C54.7699 67.3399 54.5298 68.01 54.1898 68.19C49.9298 70.48 45.62 72.69 41.33 74.92C41.23 74.99 41.0899 74.9901 40.7599 75.0701Z" fill="white"/>
<defs>
<linearGradient id="paint0_linear_1_7991" x1="-0.163712" y1="72.1932" x2="141.341" y2="72.1932" gradientUnits="userSpaceOnUse">
<stop stop-color="#B78B36"/>
<stop offset="1" stop-color="#EFDB96"/>
</linearGradient>
</defs>
</svg>
