<svg width="176" height="175" viewBox="0 0 176 175" fill="none" xmlns="http://www.w3.org/2000/svg">
<path d="M105.1 157.85C143.827 148.398 167.56 109.341 158.109 70.6131C148.657 31.8853 109.6 8.15241 70.8719 17.6041C32.1441 27.0559 8.41117 66.1131 17.8629 104.841C27.3146 143.569 66.3718 167.302 105.1 157.85Z" fill="#2E3148"/>
<path d="M120.07 97.22C116.59 94.13 112.31 90.85 107.5 87.53C112.31 84.22 116.58 80.93 120.07 77.84C127.29 71.45 130.15 66.84 128.59 64.13C127.17 61.67 122.56 61.59 114.88 63.88C114.03 62.51 112.52 61.6 110.79 61.6C108.14 61.6 105.99 63.75 105.99 66.4C105.99 66.62 106.01 66.83 106.03 67.04C103.39 68.11 100.62 69.34 97.77 70.69C97.3 64.87 96.5899 59.52 95.6599 54.96C93.7299 45.51 91.17 40.73 88.05 40.73C84.92 40.73 82.36 45.52 80.44 54.96C79.51 59.52 78.8 64.87 78.33 70.69C73.06 68.18 68.0699 66.13 63.6599 64.65C54.5199 61.6 49.09 61.42 47.53 64.13C46.16 66.5 48.18 70.32 53.53 75.51C53.19 76.17 53 76.91 53 77.7C53 80.35 55.15 82.5 57.8 82.5C58.83 82.5 59.79 82.17 60.58 81.61C63.03 83.55 65.73 85.53 68.62 87.52C63.81 90.83 59.54 94.12 56.05 97.21C48.83 103.6 45.97 108.21 47.53 110.92C48.26 112.19 49.85 112.83 52.28 112.83C55.02 112.83 58.82 112.02 63.67 110.4C68.08 108.92 73.07 106.87 78.34 104.36C78.62 107.82 78.98 111.1 79.42 114.16C77.7 114.89 76.49 116.59 76.49 118.58C76.49 121.2 78.58 123.32 81.18 123.38C83 130.64 85.31 134.32 88.05 134.32C91.18 134.32 93.7399 129.53 95.6599 120.09C96.5899 115.53 97.3 110.18 97.77 104.36C103.04 106.87 108.03 108.92 112.44 110.4C117.29 112.02 121.09 112.83 123.83 112.83C126.25 112.83 127.84 112.19 128.58 110.92C130.16 108.23 127.29 103.61 120.07 97.22ZM106.76 69C107.61 70.33 109.11 71.21 110.8 71.21C113.45 71.21 115.6 69.06 115.6 66.41C115.6 66.22 115.59 66.04 115.57 65.85C119.37 64.72 122.09 64.29 123.92 64.29C125.58 64.29 126.5 64.65 126.8 65.17C127.5 66.37 125.79 70.01 118.7 76.29C115.12 79.46 110.68 82.86 105.67 86.28C103.34 84.71 100.89 83.14 98.36 81.59C98.28 78.62 98.15 75.72 97.96 72.92C101 71.45 103.95 70.14 106.76 69ZM93.25 96.51C94.26 95.93 95.25 95.34 96.24 94.75C96.17 96.93 96.07 99.07 95.93 101.16C94.06 100.23 92.1499 99.25 90.2299 98.22C91.2299 97.67 92.24 97.1 93.25 96.51ZM92.21 94.72C90.82 95.52 89.44 96.3 88.06 97.06C86.68 96.3 85.2999 95.52 83.9099 94.72C82.5199 93.92 81.16 93.11 79.81 92.3C79.78 90.73 79.76 89.14 79.76 87.54C79.76 85.94 79.78 84.35 79.81 82.78C81.15 81.97 82.5199 81.16 83.9099 80.36C85.2999 79.56 86.68 78.78 88.06 78.02C89.44 78.78 90.82 79.56 92.21 80.36C93.6 81.16 94.96 81.97 96.31 82.78C96.34 84.35 96.36 85.94 96.36 87.54C96.36 89.14 96.34 90.73 96.31 92.3C94.96 93.11 93.6 93.92 92.21 94.72ZM85.9 98.23C83.98 99.26 82.07 100.24 80.2 101.17C80.07 99.08 79.97 96.94 79.89 94.76C80.88 95.35 81.87 95.94 82.88 96.52C83.89 97.1 84.89 97.67 85.9 98.23ZM77.7199 91C75.8699 89.85 74.06 88.69 72.32 87.53C74.06 86.37 75.8599 85.21 77.7199 84.06C77.6999 85.21 77.69 86.37 77.69 87.53C77.7 88.7 77.6999 89.86 77.7199 91ZM79.89 80.31C79.96 78.13 80.06 75.99 80.2 73.9C82.07 74.83 83.98 75.81 85.9 76.84C84.9 77.4 83.89 77.97 82.88 78.55C81.87 79.13 80.88 79.72 79.89 80.31ZM90.2299 76.84C92.1499 75.81 94.06 74.83 95.93 73.9C96.06 75.99 96.16 78.13 96.24 80.31C95.25 79.72 94.26 79.13 93.25 78.55C92.24 77.97 91.2299 77.4 90.2299 76.84ZM98.4099 84.07C100.26 85.22 102.07 86.38 103.81 87.54C102.07 88.7 100.27 89.86 98.4099 91.01C98.4299 89.86 98.44 88.7 98.44 87.54C98.43 86.37 98.4199 85.22 98.4099 84.07ZM82.4799 55.39C84.3699 46.11 86.67 42.82 88.06 42.82C89.45 42.82 91.75 46.11 93.64 55.39C94.6 60.08 95.32 65.62 95.77 71.67C93.25 72.91 90.67 74.24 88.06 75.66C85.45 74.24 82.8699 72.91 80.3499 71.67C80.8099 65.62 81.5299 60.08 82.4799 55.39ZM61.9799 80.08C62.3799 79.38 62.61 78.57 62.61 77.71C62.61 75.06 60.46 72.91 57.81 72.91C56.7 72.91 55.68 73.29 54.87 73.92C49.93 69.09 48.73 66.22 49.33 65.18C49.63 64.66 50.54 64.3 52.21 64.3C54.4 64.3 57.9 64.93 63.01 66.63C67.55 68.15 72.71 70.29 78.18 72.92C77.99 75.72 77.85 78.63 77.78 81.59C75.25 83.14 72.7999 84.71 70.4699 86.28C67.3999 84.19 64.5499 82.11 61.9799 80.08ZM63.01 108.44C54.03 111.44 50.03 111.1 49.33 109.89C48.63 108.69 50.34 105.05 57.43 98.77C61.01 95.6 65.45 92.2 70.46 88.78C72.79 90.35 75.24 91.92 77.77 93.47C77.85 96.44 77.98 99.34 78.17 102.14C72.71 104.78 67.55 106.93 63.01 108.44ZM93.64 119.69C91.75 128.97 89.45 132.26 88.06 132.26C86.85 132.26 84.9499 129.76 83.2299 122.99C84.92 122.25 86.0999 120.56 86.0999 118.6C86.0999 116.01 84.0399 113.89 81.4699 113.8C80.9999 110.57 80.6299 107.08 80.3499 103.41C82.8699 102.17 85.45 100.84 88.06 99.42C90.67 100.84 93.25 102.17 95.77 103.41C95.32 109.45 94.6 114.99 93.64 119.69ZM126.79 109.9C126.09 111.1 122.09 111.45 113.11 108.45C108.57 106.93 103.41 104.79 97.94 102.16C98.13 99.36 98.27 96.45 98.34 93.49C100.87 91.94 103.32 90.37 105.65 88.8C110.66 92.22 115.1 95.62 118.68 98.79C125.79 105.06 127.49 108.69 126.79 109.9Z" fill="white"/>
<path d="M88.0599 82.04C85.0299 82.04 82.5699 84.5 82.5699 87.53C82.5699 90.56 85.0299 93.02 88.0599 93.02C91.0899 93.02 93.5499 90.56 93.5499 87.53C93.5599 84.5 91.0999 82.04 88.0599 82.04Z" fill="white"/>
</svg>
