<svg width="204" height="205" viewBox="0 0 204 205" fill="none" xmlns="http://www.w3.org/2000/svg">
<mask id="mask0_1_7450" style="mask-type:luminance" maskUnits="userSpaceOnUse" x="30" y="30" width="145" height="145">
<path d="M152.998 153.581C181.119 125.459 181.119 79.8656 152.998 51.7442C124.876 23.6228 79.2827 23.6228 51.1613 51.7442C23.0399 79.8656 23.0399 125.459 51.1613 153.581C79.2827 181.702 124.876 181.702 152.998 153.581Z" fill="white"/>
</mask>
<g mask="url(#mask0_1_7450)">
<path d="M27.5701 113.4C28.9701 119.76 34.1901 145.34 48.3101 157.05C62.4401 168.76 77.96 174.36 78.85 174.74C79.74 175.12 89.4301 176.46 89.4301 176.46C89.4301 176.46 96.9201 175.12 97.8101 174.36C98.7001 173.6 100.48 169.4 97.8101 166.22C95.1401 163.04 90.4301 155.28 87.2501 152.09C84.0701 148.91 78.21 140 74.91 137.2C71.6 134.4 64.1301 125.87 64.1301 125.87L55.4401 112.76C55.4401 112.76 54.93 111.05 53.91 110.89C52.89 110.73 37.37 99.93 36.35 99.47C35.33 99.02 28.4601 99.47 28.4601 99.47L27.5701 113.4Z" fill="#2E1096"/>
<path d="M28.47 102C28.47 102 43.87 103.86 55.45 118.75C67.03 133.64 73.65 148.66 77.59 155.53C81.53 162.4 90.7 174.25 93.88 176.47C97.06 178.69 102.26 175.51 102.26 175.51C102.26 175.51 104.44 165.2 103.93 164.31C103.42 163.42 97.69 155.4 96.29 154.26C94.89 153.11 75.67 127.28 75.67 127.28L57.98 102.72L34.44 87.0699L24.26 89.11L28.47 102Z" fill="#7418B9"/>
<path d="M28.47 99.47C32.97 100.6 37.42 102.29 41.57 104.35C48.35 107.73 53.53 113.21 58.25 119.02C64.27 126.43 69.49 134.59 73.53 143.24C81.93 161.25 93.64 175.76 95.16 176.26C96.69 176.77 131.68 176.81 131.81 169.54L58.64 48.11L47.19 45.3101L32.68 56.64L28.47 99.47Z" fill="#821CC8"/>
<path d="M44.75 57.03C44.75 57.03 54.8 61.74 65.49 81.97C76.18 102.2 91.7099 134.15 104.69 150.56C117.67 166.98 123.78 171.11 128.36 173.75L134.13 156.28L131.54 136.3L52.77 37.04L44.75 57.03Z" fill="url(#paint0_linear_1_7450)"/>
<path d="M44.75 53.46C45.19 53.02 51.14 58.17 51.54 58.54C57.37 63.83 61.05 70.9 64.96 77.63C68.73 84.13 72.43 90.68 76.04 97.27C79.82 104.16 83.65 111.07 86.86 118.24C92.46 130.71 112.82 163.03 126.56 170.16C140.3 177.29 154.81 152.47 154.81 152.47L148.83 144.58L70.69 27.5C70.72 27.5 44.76 53.45 44.75 53.46Z" fill="#5512B9"/>
<path d="M65.5 35.9L67.66 37.05C67.66 37.05 80.13 51.3 85.99 64.66C91.85 78.02 110.42 118.11 124.04 137.58C137.66 157.05 152.8 161.12 152.8 161.12L158.13 151.07L153.18 143.24L80.64 21.14L65.5 35.9Z" fill="#5710AF"/>
<path d="M68.8101 35.01C68.8101 35.01 79.2501 46.97 90.0601 68.61C100.88 90.24 121.87 128.17 125.82 135.29C129.76 142.42 141.35 154.76 150 157.05C150 157.05 166.29 148.93 167.18 140.14C168.07 131.35 166.29 127.02 166.29 127.02C166.29 127.02 108.9 22.92 107.88 22.92C106.86 22.92 68.8101 35.01 68.8101 35.01Z" fill="#7C1AC5"/>
<path d="M99.96 26.16C102.45 30.59 104.86 35.07 107.18 39.59C116.54 57.86 122.41 77.75 131.13 96.34C132.9 100.11 134.76 103.85 136.73 107.52C142.42 118.12 148.84 128.52 157.15 137.28C158.41 138.6 159.74 139.86 161.13 141.04C161.2 141.1 161.28 141.16 161.35 141.23C161.42 141.29 161.48 141.34 161.55 141.4C161.87 141.66 163.81 143.43 164.23 143.24C164.23 143.24 175.79 137.85 175.27 125.9C174.74 113.94 154.43 49.57 145.34 40.11C136.24 30.63 99.96 26.16 99.96 26.16Z" fill="#9120D0"/>
<path d="M102.26 26.74C104.67 31.03 107.01 35.37 109.25 39.75C118.32 57.44 124 76.71 132.45 94.71C134.16 98.36 135.96 101.98 137.87 105.54C143.38 115.81 149.6 125.88 157.65 134.36C158.87 135.64 160.16 136.86 161.51 138C161.58 138.06 161.65 138.12 161.72 138.18C161.78 138.23 161.85 138.29 161.91 138.34C162.22 138.59 164.1 140.31 164.5 140.12C164.5 140.12 175.7 134.9 175.19 123.32C174.68 111.74 155 49.38 146.2 40.22C137.4 31.06 102.26 26.74 102.26 26.74Z" fill="#A821D3"/>
<path d="M67.6699 116.07H82.2599C84.1699 116.07 85.9199 115.04 86.8599 113.38L96.5099 96.2299C97.3799 94.6899 99.5799 94.66 100.49 96.17L112.11 115.45C113.15 117.18 111.91 119.38 109.89 119.38H90.18C89.03 119.38 87.9599 119.97 87.3399 120.94L78.7299 134.6C77.5699 136.44 78.8899 138.85 81.0699 138.85H143.73C145.61 138.85 146.8 136.82 145.87 135.18C137.81 121 108.69 69.85 100.49 56.03C99.1599 53.78 97.32 54.2499 95.78 56.9499C89.19 68.4399 71.64 99.38 64.89 111.3C63.68 113.43 65.2199 116.07 67.6699 116.07Z" fill="white"/>
<path d="M134.13 32.79C134.13 32.79 140.19 48.08 142.26 57.72C144.33 67.36 151.35 95.5999 154.1 102.07C156.85 108.54 163.47 121.35 174.62 126.17C185.78 130.99 184.4 71.9101 171.04 55.9301C157.68 39.9501 145.15 32.79 145.15 32.79H134.13Z" fill="#BC28DC"/>
<path d="M137.78 37.05C137.78 37.05 143.38 51.18 145.29 60.08C147.2 68.99 153.69 95.0801 156.23 101.06C158.78 107.04 164.88 118.88 175.19 123.33C185.5 127.78 184.23 73.1901 171.88 58.4301C159.53 43.6701 147.96 37.05 147.96 37.05H137.78Z" fill="#D100D0"/>
</g>
<defs>
<linearGradient id="paint0_linear_1_7450" x1="44.7545" y1="105.399" x2="134.131" y2="105.399" gradientUnits="userSpaceOnUse">
<stop stop-color="#A322D5"/>
<stop offset="1" stop-color="#A322D5"/>
</linearGradient>
</defs>
</svg>
