<svg width="205" height="205" viewBox="0 0 205 205" fill="none" xmlns="http://www.w3.org/2000/svg">
<path d="M153.901 153.344C182.089 125.156 182.089 79.4543 153.901 51.2666C125.714 23.0788 80.0121 23.0789 51.8243 51.2667C23.6365 79.4545 23.6366 125.156 51.8244 153.344C80.0121 181.531 125.713 181.531 153.901 153.344Z" fill="#E84143"/>
<path d="M153.63 132.41L137 103.09C135.17 99.86 130.52 99.86 128.69 103.09L112.06 132.41C110.25 135.6 112.55 139.55 116.22 139.55H149.48C153.14 139.54 155.44 135.59 153.63 132.41Z" fill="white"/>
<path d="M118.26 70.57L106.67 50.13C104.83 46.89 100.16 46.89 98.3201 50.13L51.8501 132.06C49.9601 135.4 52.37 139.54 56.21 139.54H78.3799C84.2699 139.54 89.7101 136.37 92.6101 131.25L118.26 86.03C120.98 81.24 120.98 75.37 118.26 70.57Z" fill="white"/>
</svg>
