<svg width="145" height="146" viewBox="0 0 145 146" fill="none" xmlns="http://www.w3.org/2000/svg">
<path d="M72.83 145.24C112.694 145.24 145.01 112.924 145.01 73.06C145.01 33.1961 112.694 0.880005 72.83 0.880005C32.9661 0.880005 0.650024 33.1961 0.650024 73.06C0.650024 112.924 32.9661 145.24 72.83 145.24Z" fill="#0055D5"/>
<path d="M114.67 62.89C114.49 59.49 114.25 56.72 113.92 54.19C113.7 52.55 113.38 50.4 112.83 48.3C112.48 46.97 112.05 45.57 111.26 44.34C110.57 43.26 109.68 42.83 108.54 43.03C107.35 43.23 106.29 43.73 105.5 44.14C103.39 45.23 101.47 46.57 99.7101 47.86C95.9401 50.63 92.3801 53.58 89.3901 56.11C86.3401 58.7 83.2501 61.34 80.2701 63.9C79.3101 64.72 78.3501 65.55 77.3901 66.37C73.9201 69.34 70.2001 72.48 65.6801 76.23C62.5601 78.83 58.8301 81.87 54.8901 84.72C53.0401 86.06 50.8201 87.61 48.4301 88.9C47.1601 89.59 45.7801 90.26 44.2501 90.54C43.1501 90.74 42.5801 90.48 42.0101 89.51C41.7801 89.11 41.58 88.67 41.41 88.18C40.59 85.8 40.2901 83.34 40.0601 81.03C39.8901 79.37 39.78 77.57 39.73 75.53C39.67 73.31 39.6901 71.11 39.7801 69.01C39.8801 66.78 40.05 64.82 40.29 63.01C40.48 61.6 40.7401 59.95 41.2401 58.36C41.5101 57.5 41.7901 56.8 42.2801 56.21C42.6601 55.75 43.0401 55.6 43.4901 55.74C46.6501 56.69 49.5201 58.05 52.0301 59.8C52.2501 59.95 52.3701 60.15 52.3801 60.36C52.3901 60.57 52.2901 60.78 52.0901 60.95C51.7701 61.23 51.4501 61.5 51.1301 61.78C50.7201 62.13 50.3001 62.49 49.8901 62.85C46.9001 65.45 44.5001 67.64 42.3201 69.76C42.1901 69.89 42.0601 70.05 42.0601 70.32C42.0901 72.23 42.22 73.94 42.47 75.56C42.51 75.8 42.5901 76.05 42.9001 76.16C43.2101 76.26 43.4101 76.06 43.5601 75.92C47.4801 72.1 51.6801 68.39 56.4001 64.58C56.8101 64.25 57.12 64.28 57.47 64.67C58.13 65.4 58.7601 66.2 59.3701 66.96L59.4601 67.07C59.6201 67.27 59.7801 67.48 59.9301 67.69C60.3701 68.27 60.82 68.86 61.35 69.37C61.66 69.67 62.0201 69.77 62.4401 69.68C64.2201 69.28 65.7801 68.4 67.0901 67.07C67.9201 66.23 68.35 65.33 68.41 64.33C68.43 63.94 68.3101 63.66 68.0201 63.42C63.6401 59.78 59.5501 56.52 55.5001 53.48C55.3401 53.36 55.1901 53.24 55.0301 53.12C54.5301 52.74 54.01 52.34 53.47 52L53.4601 51.99C53.3101 51.93 53.1901 51.82 53.0701 51.7C52.9501 51.58 52.82 51.47 52.66 51.39C51.8 50.72 50.9001 50.1 50.0201 49.49L49.8301 49.36C47.1401 47.49 44.22 45.53 41.16 43.95C39.89 43.3 38.52 42.65 37.04 42.35C35.65 42.07 34.9801 42.4 34.3101 43.69C33.7601 44.73 33.4501 45.84 33.1801 46.89C32.7201 48.68 32.4201 50.52 32.1801 52.09L32.0101 53.42C31.9901 53.57 31.9701 53.71 31.9501 53.86C31.9101 54.18 31.8601 54.51 31.8201 54.83C31.6301 56.6 31.4901 58.02 31.3801 59.33C31.2401 61.01 31.1301 62.69 31.0501 64.32C30.9601 66.09 30.8901 67.95 30.8401 70.02C30.8101 71.25 30.7901 72.57 30.8201 73.9L30.8101 74.1C30.8001 74.33 30.7801 74.57 30.8201 74.82V74.93C30.8201 74.96 30.8201 75 30.8101 75.03C30.8001 75.11 30.8001 75.18 30.8001 75.26C30.8001 75.66 30.8101 76.06 30.8101 76.46C30.8201 77.37 30.83 78.31 30.85 79.24C30.91 81.51 31.0001 83.54 31.1301 85.46C31.2901 87.85 31.4901 89.99 31.7601 92.01C32.0901 94.5 32.44 96.38 32.91 98.1C33.24 99.33 33.6501 100.63 34.4001 101.8C34.8901 102.56 35.4301 102.98 36.0901 103.15C36.6101 103.28 37.1801 103.27 37.8301 103.14C39.1701 102.86 40.3901 102.27 41.3901 101.73C43.5401 100.58 45.48 99.22 47.1 98.04C51.58 94.77 55.91 91.15 60.1 87.65L60.1201 87.63C61.4501 86.52 62.7901 85.39 64.0901 84.29C65.8501 82.8 67.6801 81.26 69.4901 79.76C71.8901 77.78 74.3001 75.73 76.6401 73.76C77.2801 73.22 77.9101 72.68 78.5501 72.14C82.6201 68.7 86.8301 65.14 91.2401 61.8C93.4901 60.09 95.9101 58.31 98.5801 56.84C99.4901 56.34 100.49 55.84 101.62 55.6C102.42 55.43 103.01 55.66 103.44 56.3C103.71 56.7 103.91 57.09 104.07 57.47C104.9 59.59 105.22 61.85 105.49 63.98C105.67 65.43 105.79 66.98 105.87 68.71C105.86 68.73 105.85 68.75 105.86 68.78C105.86 68.8 105.87 68.81 105.88 68.83L105.93 69.79V69.96C105.92 70.27 105.94 70.58 105.95 70.88C105.96 71.1 105.97 71.32 105.97 71.54C106 75.49 105.87 78.68 105.56 81.57C105.37 83.35 105.1 85.45 104.5 87.55L104.27 88.33L103.79 89.4L103.33 90.05C102.96 90.37 102.61 90.55 102.15 90.41C99.4101 89.58 96.8501 88.43 94.5501 86.98C91.5301 85.08 88.8401 82.55 86.3001 79.24C86.1701 79.07 86.0501 78.91 85.9201 78.74C85.4301 78.08 84.9201 77.41 84.3101 76.82C84.0001 76.52 83.6301 76.41 83.2001 76.51C81.4401 76.9 79.8701 77.78 78.5601 79.12C77.7401 79.95 77.3201 80.84 77.2601 81.83C77.2401 82.24 77.35 82.52 77.66 82.77C78.53 83.47 79.4001 84.19 80.2501 84.88C80.9301 85.44 81.6201 86.01 82.3101 86.57C83.5701 87.59 85.0601 88.79 86.6101 89.97C86.6601 90.04 86.7301 90.08 86.8101 90.11C86.8601 90.16 86.92 90.2 86.97 90.25C87.1 90.36 87.2301 90.47 87.3701 90.58C90.3301 92.86 93.8601 95.52 97.6201 98.06C99.8601 99.57 102.29 101.14 104.92 102.45C106.05 103.01 107.29 103.57 108.62 103.83C108.92 103.89 109.19 103.92 109.43 103.92C110.3 103.92 110.82 103.51 111.34 102.53C111.91 101.47 112.23 100.31 112.48 99.31C113.24 96.32 113.64 93.22 113.96 90.32C114.21 88.09 114.4 85.75 114.55 83.15C114.73 79.91 114.84 76.94 114.86 74.08C114.9 69.66 114.84 66.12 114.67 62.89Z" fill="white"/>
</svg>
