<svg width="146" height="146" viewBox="0 0 146 146" fill="none" xmlns="http://www.w3.org/2000/svg">
<path d="M139.56 44.79C135.92 36.19 130.72 28.48 124.09 21.85C117.46 15.22 109.74 10.02 101.15 6.38C92.2499 2.61 82.79 0.709961 73.05 0.709961C63.31 0.709961 53.86 2.62 44.95 6.38C36.35 10.02 28.64 15.22 22.01 21.85C15.38 28.48 10.18 36.2 6.54004 44.79C2.77004 53.69 0.870117 63.15 0.870117 72.89C0.870117 82.63 2.78004 92.08 6.54004 100.99C10.18 109.59 15.38 117.3 22.01 123.93C28.64 130.56 36.36 135.76 44.95 139.4C53.85 143.17 63.31 145.07 73.05 145.07C82.79 145.07 92.2399 143.16 101.15 139.4C109.75 135.76 117.46 130.56 124.09 123.93C130.72 117.3 135.92 109.58 139.56 100.99C143.33 92.09 145.23 82.63 145.23 72.89C145.23 63.15 143.32 53.7 139.56 44.79Z" fill="#FEEA5A"/>
<path d="M88.05 113.23C88.05 113.23 83.31 112.43 80.5 114.48V115.19C80.51 115.41 80.6 115.58 80.79 115.74C81.27 116.16 82.2899 116.43 83.6599 116.51C84.0499 116.53 84.41 116.54 84.73 116.53C86.53 115.31 88.05 113.23 88.05 113.23Z" fill="#FDFDFC"/>
<path d="M88.1699 113.09C88.0899 113.19 88.05 113.24 88.05 113.24C88.08 113.19 88.1199 113.14 88.1699 113.09Z" fill="#FDFDFC"/>
<path d="M88.05 113.23C88.05 113.23 86.53 115.31 84.72 116.52C85.33 116.51 85.74 116.47 85.75 116.47C85.77 116.47 85.8001 116.47 85.8201 116.47C86.9001 116.45 88.0199 115.9 89.1699 114.81C89.2599 114.63 89.4001 114.49 89.5801 114.4C89.7201 114.26 89.85 114.11 89.99 113.95C89.09 113.42 88.05 113.23 88.05 113.23Z" fill="#DEDDDD"/>
<path d="M88.05 113.23C88.05 113.23 88.0899 113.18 88.1699 113.08C89.2399 111.66 92.7499 105.16 94.4399 99.15C96.0099 93.57 94.3501 89.31 94.1001 88.38C93.6501 88.61 93.1501 88.86 92.5801 89.12C92.6301 90.44 92.39 93.1101 90.23 96.0601C87.72 99.5001 82.56 103.63 80.51 106.25V114.47C83.31 112.44 88.05 113.23 88.05 113.23Z" fill="#FDA525"/>
<path d="M95.8101 87.41C95.4301 87.65 94.8501 88 94.0901 88.39C94.3401 89.32 95.9999 93.58 94.4299 99.16C92.7399 105.17 89.2299 111.67 88.1599 113.09C88.1199 113.15 88.08 113.2 88.04 113.24C88.04 113.24 89.08 113.42 89.98 113.96C90.06 113.87 90.14 113.78 90.21 113.68C91.51 112.11 92.8201 109.9 94.0801 107.13C96.2701 102.35 97.5901 97.5 97.6001 97.46C98.2901 93.07 97.65 90.49 96.99 89.09C96.59 88.21 96.1301 87.69 95.8101 87.41Z" fill="#EE8203"/>
<path d="M61.6399 112.56C61.6799 112.62 61.72 112.67 61.76 112.71C61.76 112.71 61.7199 112.66 61.6399 112.56Z" fill="#FDFDFC"/>
<path d="M61.76 112.71C61.76 112.71 63.79 115.48 65.95 116.49C67.03 116.41 68.1001 116.19 68.6201 115.73C68.8001 115.57 68.8899 115.4 68.9099 115.19V113.69C66.0799 111.99 61.76 112.71 61.76 112.71Z" fill="#FDFDFC"/>
<path d="M61.76 112.71C61.76 112.71 60.25 112.98 59.3 113.8C60.77 115.55 62.2101 116.45 63.5901 116.47C63.6101 116.47 63.6399 116.47 63.6599 116.47C64.2799 116.53 65.12 116.55 65.95 116.49C63.79 115.48 61.76 112.71 61.76 112.71Z" fill="#DEDDDD"/>
<path d="M59.2399 95.9399C57.1299 93.0499 56.8598 90.43 56.8898 89.08C56.3898 88.86 55.94 88.6399 55.54 88.4399C55.07 89.9999 54.02 93.83 55.37 98.64C57.06 104.65 60.5698 111.15 61.6398 112.57C61.7198 112.67 61.7599 112.72 61.7599 112.72C61.7599 112.72 66.0698 112 68.9098 113.7V106.06C66.8098 103.43 61.7299 99.3399 59.2399 95.9399Z" fill="#FDA525"/>
<path d="M61.7599 112.71C61.7299 112.67 61.6898 112.62 61.6398 112.56C60.5698 111.14 57.06 104.64 55.37 98.63C54.02 93.82 55.07 89.9901 55.54 88.4301C54.74 88.0201 54.1399 87.66 53.7499 87.41C53.4299 87.69 52.97 88.21 52.56 89.08C52.04 90.17 51.5399 91.99 51.6799 94.83L51.9799 97.58C52.0899 98 53.3498 102.61 55.3998 107.18C56.6398 109.94 57.9199 112.13 59.2099 113.69C59.2399 113.73 59.27 113.76 59.3 113.79C60.26 112.98 61.7599 112.71 61.7599 112.71Z" fill="#EE8203"/>
<path d="M70.71 109.74V114.31H78.7V109.68C77.91 110.21 76.5499 110.87 74.6599 110.87C72.8399 110.87 71.52 110.26 70.71 109.74Z" fill="#EE8203"/>
<path d="M58.1898 89.62C57.7298 89.44 57.2898 89.26 56.8898 89.08C56.8598 90.43 57.1299 93.0499 59.2399 95.9399C61.7299 99.3399 66.8098 103.43 68.9098 106.06V103.05C68.9098 102.65 69.1699 102.31 69.5399 102.19C68.3199 97.3999 64.19 92.2101 63.35 91.1801C61.55 90.7801 59.8198 90.26 58.1898 89.62Z" fill="#FDFDFC"/>
<path d="M90.23 96.0699C92.39 93.1199 92.6301 90.44 92.5801 89.13C92.1001 89.35 91.58 89.57 91.02 89.78C89.35 90.43 87.6101 90.96 85.8401 91.34C84.7701 92.67 80.96 97.59 79.79 102.16C80.2 102.24 80.51 102.61 80.51 103.04V106.26C82.56 103.64 87.71 99.5099 90.23 96.0699Z" fill="#FDFDFC"/>
<path d="M84.9199 91.52C82.9899 91.88 81.02 92.08 79.04 92.11C79.65 92.98 80.01 94.0401 80.01 95.1801C80.01 98.1201 77.6199 100.52 74.6699 100.52C71.7199 100.52 69.3301 98.1301 69.3301 95.1801C69.3301 94.0101 69.7101 92.93 70.3501 92.05C68.2301 91.97 66.1499 91.73 64.1599 91.34C63.8899 91.29 63.6101 91.23 63.3401 91.17C64.1801 92.2 68.31 97.3901 69.53 102.18C69.62 102.15 69.71 102.14 69.8 102.14C70.3 102.14 70.7 102.54 70.7 103.04V109.74C71.5 110.26 72.8299 110.87 74.6499 110.87C76.5399 110.87 77.8999 110.21 78.6899 109.68V103.04C78.6899 102.54 79.0901 102.14 79.5901 102.14C79.6501 102.14 79.71 102.15 79.77 102.16C80.95 97.59 84.7501 92.67 85.8201 91.34C85.5301 91.4 85.2299 91.47 84.9199 91.52Z" fill="#DEDDDD"/>
<path d="M44.1101 71.25C45.7301 73.39 47.75 75.22 49.95 76.74C59.36 83.22 72.21 83.98 83.21 82.34C87.61 81.68 91.99 80.5 95.99 78.53C98.2 77.44 100.3 76.11 102.16 74.5C103.12 73.67 104.02 72.76 104.84 71.79C105.1 71.47 105.56 70.99 105.99 70.48C106.22 69.59 106.39 68.6501 106.49 67.6801C105.46 69.3301 103.41 70.98 99.3 70.66C91.54 70.05 84.6 56 74.77 55.71C64.94 56 58.01 70.05 50.24 70.66C46.14 70.98 44.08 69.3301 43.05 67.6801C43.16 68.7101 43.3401 69.7 43.6001 70.64C43.8101 70.87 43.9901 71.08 44.1101 71.25ZM65.3799 64.72C65.8499 64.56 66.36 64.81 66.53 65.28C66.55 65.35 67.8199 68.8601 70.1799 68.6801C70.9899 68.6201 71.7399 68.3301 72.4299 67.8101C70.2599 67.2201 68.74 65.8 68.74 64.16C68.74 63.68 68.8701 63.22 69.1101 62.79C68.9501 62.29 68.91 61.78 69.05 61.3C69.12 61.06 69.2201 60.84 69.3601 60.63C70.0901 59.54 71.5501 59.06 72.8101 58.8C74.2901 58.5 75.75 58.53 77.23 58.9C78.57 59.23 80.16 59.9 80.55 61.3C80.7 61.83 80.6399 62.4 80.4299 62.96C80.6099 63.34 80.71 63.74 80.71 64.16C80.71 65.81 79.18 67.2201 77.02 67.8101C77.7 68.3201 78.46 68.6101 79.27 68.6801C81.64 68.8601 82.9099 65.32 82.9199 65.28C83.0799 64.81 83.6001 64.56 84.0701 64.73C84.5401 64.89 84.7899 65.41 84.6299 65.88C84.6099 65.93 84.2099 67.08 83.3799 68.21C82.6199 69.25 81.74 69.95 80.78 70.28C80.69 71.01 80.48 72.28 79.98 73.54C79.52 74.71 78.9099 75.66 78.1699 76.34C77.2299 77.2 76.09 77.64 74.78 77.64C74.76 77.64 74.75 77.64 74.73 77.64C74.71 77.64 74.6999 77.64 74.6799 77.64C73.3799 77.64 72.24 77.2 71.29 76.34C70.55 75.66 69.94 74.72 69.48 73.54C68.98 72.27 68.7699 71.01 68.6799 70.28C67.7199 69.95 66.8401 69.25 66.0801 68.21C65.2501 67.08 64.8501 65.93 64.8301 65.88C64.6601 65.4 64.9099 64.88 65.3799 64.72Z" fill="#FDFDFC"/>
<path d="M50.26 70.66C58.02 70.05 64.96 56 74.79 55.71C84.62 56 91.5501 70.05 99.3201 70.66C103.42 70.98 105.48 69.3301 106.51 67.6801C106.9 63.9701 106.3 59.71 104.72 54.96C104.69 54.91 104.66 54.85 104.64 54.8C103.82 52.42 102.69 50.1 101.27 47.9C100.13 46.14 98.8101 44.45 97.3401 42.88C94.8301 40.2 92.7299 38.79 92.7099 38.78C92.3299 38.52 92.1999 38.02 92.4099 37.61C93.6599 35.22 96.4899 32.7 98.8899 30.86C94.6999 32.66 88.5901 38 88.5901 38C81.8201 34.46 74.8 34.7 74.8 34.7C66.95 34.7 60.28 38 60.28 38C56.33 34.47 53.2799 32.53 51.3799 31.52C53.5999 33.29 56.0099 35.55 57.1399 37.7C57.3499 38.11 57.2201 38.61 56.8401 38.87C56.8201 38.88 54.7199 40.29 52.2099 42.97C50.7399 44.54 49.42 46.23 48.28 47.99C46.86 50.19 45.7299 52.51 44.9099 54.89C43.3199 59.67 42.7101 63.9501 43.1001 67.6801C44.1001 69.3301 46.16 70.98 50.26 70.66ZM93.1699 53.03C94.9299 53.76 96.1601 55.26 96.1001 57.23C95.9801 61.17 92.5201 60.8101 91.3301 60.8101C90.1401 60.8101 86.12 60.09 86.51 56.97C86.86 54.18 89.23 52.36 91.81 52.67C92.25 52.72 92.7099 52.84 93.1699 53.03ZM85.8701 44.8199C87.1701 44.1799 88.7599 44.75 89.8799 45.51C91.1099 46.35 91.8601 47.62 90.8301 48.9C90.0401 49.88 88.5601 50.4201 87.3301 50.4301C85.9701 50.4501 84.3801 49.66 84.1101 48.21C83.8801 46.93 84.7101 45.3799 85.8701 44.8199ZM59.5901 45.51C60.7101 44.75 62.3001 44.1799 63.6001 44.8199C64.7601 45.3899 65.5901 46.94 65.3501 48.21C65.0801 49.66 63.4899 50.4501 62.1299 50.4301C60.9099 50.4101 59.4199 49.88 58.6299 48.9C57.6099 47.62 58.3701 46.35 59.5901 45.51ZM56.31 53.03C56.76 52.84 57.2199 52.72 57.6699 52.67C60.2499 52.37 62.62 54.18 62.97 56.97C63.36 60.09 59.3399 60.8101 58.1499 60.8101C56.9599 60.8101 53.4901 61.17 53.3701 57.23C53.3201 55.25 54.55 53.76 56.31 53.03Z" fill="#FDA525"/>
<path d="M102.17 74.5C100.31 76.11 98.21 77.45 96 78.53C91.99 80.5 87.62 81.68 83.22 82.34C72.22 83.98 59.37 83.21 49.96 76.74C47.75 75.22 45.7401 73.39 44.1201 71.25C43.9901 71.08 43.8199 70.87 43.6299 70.64C43.7699 71.14 43.9201 71.63 44.1001 72.11C45.7201 76.4 49.0901 79.77 54.1201 82.1C54.1201 82.1 54.1199 82.1 54.1299 82.1C54.1399 82.11 55.3399 82.67 57.4399 83.37C59.3799 84.01 62.4999 84.9 66.3999 85.48C70.7699 86.13 75.2001 86.27 79.5601 85.89C85.0001 85.42 90.35 84.14 95.47 82.09C100.49 79.75 103.86 76.39 105.47 72.11C105.67 71.58 105.84 71.04 105.99 70.48C105.56 71 105.1 71.48 104.84 71.79C104.03 72.76 103.13 73.66 102.17 74.5Z" fill="#DEDDDD"/>
<path d="M73.46 66.79C71.67 66.2 69.6401 64.51 69.0901 62.79C68.8501 63.22 68.72 63.68 68.72 64.16C68.72 65.81 70.2499 67.2201 72.4099 67.8101C72.6099 67.6601 72.8 67.5001 72.98 67.3101C73.18 67.1301 73.33 66.95 73.46 66.79Z" fill="#DEDDDD"/>
<path d="M75.99 66.8199C76.11 66.9699 76.2599 67.1401 76.4299 67.3101C76.6199 67.5001 76.81 67.6601 77 67.8101C79.17 67.2201 80.6899 65.8 80.6899 64.16C80.6899 63.74 80.5899 63.34 80.4099 62.96C79.7799 64.66 77.75 66.2899 75.99 66.8199Z" fill="#DEDDDD"/>
<path d="M74.79 34.7C74.79 34.7 81.8001 34.46 88.5801 38C88.5801 38 94.6899 32.67 98.8799 30.86C99.6799 30.24 100.44 29.7 101.07 29.27C100.45 29.32 99.78 29.52 99.2 29.77C96.75 30.84 92.0101 33.86 89.5801 36.16C89.3101 36.41 88.9101 36.4799 88.5801 36.3199C86.5301 35.3599 83.21 34.0799 79.01 33.4399C76.49 33.0599 74.8301 33.09 74.8101 33.09C74.8001 33.09 74.78 33.09 74.77 33.09C74.75 33.09 73.0901 33.0599 70.5701 33.4399C68.2501 33.7899 64.71 34.5799 61 36.3199C60.67 36.4799 60.27 36.41 60 36.16C57.57 33.87 52.8399 30.85 50.3799 29.77C49.7399 29.49 48.98 29.27 48.3 29.25C49.13 29.82 50.2201 30.6 51.3601 31.51C53.2601 32.52 56.31 34.46 60.26 37.99C60.26 37.99 66.93 34.7 74.79 34.7Z" fill="#F9C960"/>
<path d="M103.1 47.4301C103.93 48.7701 104.66 50.15 105.29 51.55C105.87 48.46 106.16 45.21 106.13 42C106.1 38.34 105.64 35.5 104.67 33.05C104.28 32.06 103.76 30.8799 103.09 30.0699C102.66 30.3499 102.05 30.77 101.34 31.28C102.18 33.65 104.27 40.4901 103.1 47.4301Z" fill="#DD6C04"/>
<path d="M101.33 31.28C99.1201 32.87 95.9299 35.39 94.3899 37.77C95.2499 38.42 96.8201 39.7 98.6101 41.6C100.16 43.25 101.56 45.03 102.76 46.89C102.88 47.07 102.99 47.2501 103.1 47.4301C104.27 40.4901 102.18 33.65 101.33 31.28Z" fill="#C64E02"/>
<path d="M43.4399 42C43.4099 45.2 43.6999 48.45 44.2799 51.53C44.8999 50.16 45.6098 48.82 46.4198 47.52C45.2498 40.59 47.3398 33.74 48.1798 31.37C47.4598 30.85 46.8398 30.43 46.4098 30.15C45.7698 30.95 45.2698 32.09 44.8998 33.04C43.9398 35.5 43.4699 38.34 43.4399 42Z" fill="#DD6C04"/>
<path d="M46.42 47.52C46.53 47.34 46.6501 47.16 46.7601 46.98C47.9601 45.12 49.36 43.3399 50.91 41.6899C52.7 39.7899 54.2699 38.51 55.1299 37.86C53.5799 35.49 50.4 32.96 48.19 31.37C47.34 33.75 45.25 40.59 46.42 47.52Z" fill="#C64E02"/>
<path d="M99.05 98.98C98.54 100.7 97.39 104.25 95.74 107.86C94.53 110.51 93.29 112.66 92.02 114.3C92.48 114.3 92.9201 114.31 93.3601 114.32C95.5401 114.36 97.2601 114.38 98.5801 113.59C100.46 112.45 101.24 109.59 101.65 107.54C102.25 104.58 102.02 102.26 100.95 100.65C100.36 99.74 99.6 99.24 99.05 98.98Z" fill="#EE8203"/>
<path d="M45.8601 103.23C46.0001 102.03 46.3401 100.97 46.8701 100.04C41.1401 96.73 40.3199 90.32 40.2299 87.74C39.3799 90.33 39.2699 92.82 39.9099 95.17C41.0199 99.24 44.1101 101.96 45.8601 103.23Z" fill="#DEDDDD"/>
<path d="M56.6398 114.32C56.8898 114.32 57.1398 114.31 57.3998 114.31C56.1498 112.67 54.9299 110.54 53.7499 107.9C52.1199 104.27 51 100.7 50.51 99.01C49.4 99.57 47.53 101.08 47.59 104.83C47.59 104.85 47.59 104.87 47.59 104.88C47.61 105.7 47.7199 106.58 47.9099 107.54C48.5699 110.78 49.5998 112.7 51.1498 113.58C52.5698 114.39 54.4598 114.35 56.6398 114.32Z" fill="#EE8203"/>
<path d="M46.8701 100.05C46.9501 99.9 47.0399 99.76 47.1399 99.62C48.0799 98.23 49.3001 97.54 50.1001 97.21C50.0201 96.64 49.9599 96.08 49.9199 95.54C48.1099 94.86 46.4999 93.85 45.1399 92.54C43.9399 91.38 42.9199 89.98 42.1299 88.39C41.6399 87.42 41.3 86.49 41.05 85.7C40.73 86.39 40.45 87.08 40.23 87.76C40.32 90.33 41.1401 96.74 46.8701 100.05Z" fill="#EE8203"/>
<path d="M71.4299 90.28V89.15C62.2499 88.93 56.1499 85.86 54.6499 85.03V85.84C55.2799 86.25 56.7299 87.12 58.9299 87.97C61.5599 89 65.8299 90.2 71.4299 90.28Z" fill="#D6202B"/>
<path d="M71.4299 89.15V87.8101C69.6399 87.7101 67.8501 87.52 66.0701 87.26C60.6001 86.44 56.5899 85.05 54.6499 84.29V85.04C56.1499 85.86 62.2499 88.93 71.4299 89.15Z" fill="#B01620"/>
<path d="M84.55 89.76C86.52 89.39 88.4601 88.84 90.3101 88.12C92.6401 87.21 94.2499 86.27 94.9399 85.83V85.15C93.4899 85.96 87.2899 89.12 77.9299 89.3V90.3199C80.1399 90.3599 82.37 90.17 84.55 89.76Z" fill="#D6202B"/>
<path d="M94.9299 85.15V84.23C89.9999 86.08 84.8699 87.2399 79.6699 87.6899C79.0899 87.7399 78.4999 87.7801 77.9199 87.8101V89.29C87.2799 89.12 93.4799 85.96 94.9299 85.15Z" fill="#B01620"/>
<path d="M73.23 89.16V90.05C73.69 89.92 74.1799 89.85 74.6799 89.85C75.1799 89.85 75.6601 89.92 76.1101 90.05V89.17H73.23V89.16Z" fill="#FDFDFC"/>
<path d="M76.1101 87.89C75.6501 87.9 75.19 87.91 74.73 87.91C74.23 87.91 73.72 87.9 73.22 87.89V89.17H76.1001V87.89H76.1101Z" fill="#CED0CE"/>
<path d="M78.22 95.1899C78.22 93.5799 77.1399 92.22 75.6599 91.79C76.8199 92.67 77.2899 94.32 76.6899 95.85C76.0099 97.6 74.1901 98.53 72.5601 98.02C73.1501 98.46 73.8799 98.72 74.6699 98.72C76.6299 98.72 78.22 97.1399 78.22 95.1899Z" fill="white"/>
<path d="M76.6899 95.85C77.2799 94.32 76.8199 92.67 75.6599 91.79C75.3499 91.7 75.0199 91.65 74.6799 91.65C72.7299 91.65 71.1399 93.2399 71.1399 95.1899C71.1399 96.3499 71.7001 97.38 72.5601 98.02C74.2001 98.53 76.0099 97.6 76.6899 95.85Z" fill="#F8E138"/>
<path d="M107.16 72.74C109.03 67.77 108.8 61.65 106.48 54.56C107.47 50.59 107.97 46.25 107.94 41.99C107.91 38.11 107.4 35.06 106.35 32.39C105.8 31 105.09 29.45 104.01 28.43C103.9 28.24 103.72 28.12 103.53 28.05C102.86 27.61 102.01 27.4099 101.05 27.4599C100.02 27.5199 99.08 27.85 98.47 28.12C95.98 29.21 91.47 32.06 88.79 34.43C85.07 32.76 81.56 32 79.23 31.64C76.69 31.26 75.01 31.27 74.79 31.27C74.57 31.27 72.8901 31.25 70.3501 31.64C66.2801 32.25 62.98 33.45 60.79 34.43C58.11 32.05 53.6001 29.21 51.1101 28.12C50.5001 27.85 49.56 27.5199 48.53 27.4599C47.39 27.3899 46.4099 27.69 45.6999 28.31L45.6899 28.3199C44.5399 29.3299 43.8 30.95 43.23 32.39C42.18 35.05 41.6799 38.1 41.6399 41.99C41.5999 46.26 42.1101 50.6 43.1001 54.56C40.7701 61.65 40.5399 67.77 42.4199 72.74C44.1499 77.34 47.6601 80.9499 52.8501 83.4799V85.8299C52.3801 86.1899 51.66 86.8899 51.04 88.1099C50.29 89.5999 49.9001 91.42 49.8601 93.56C48.5801 92.99 47.4199 92.22 46.4199 91.26C45.3699 90.25 44.48 89.03 43.77 87.63C42.55 85.21 42.3 83.06 42.29 83.04C42.25 82.66 41.9701 82.34 41.5901 82.26C41.2101 82.18 40.8201 82.34 40.6201 82.67C37.8801 87.21 37.0599 91.57 38.1699 95.64C38.9099 98.34 40.5399 100.93 42.8899 103.11C44.0999 104.24 45.21 104.99 45.81 105.36C45.85 106.16 45.9699 107 46.1499 107.89C46.9199 111.68 48.23 113.98 50.26 115.13C52.11 116.18 54.3299 116.15 56.6799 116.11C57.3899 116.1 58.1101 116.09 58.8601 116.1C58.8701 116.1 58.8699 116.1 58.8799 116.1C58.9199 116.1 58.96 116.1 59 116.09C60.48 117.5 61.99 118.22 63.53 118.26C63.72 118.28 64.2499 118.32 64.9399 118.32C66.4099 118.32 68.61 118.13 69.81 117.08C70.13 116.8 70.38 116.47 70.53 116.1H78.8899C79.0399 116.47 79.2801 116.8 79.6101 117.08C80.8101 118.12 83.01 118.32 84.48 118.32C85.17 118.32 85.6999 118.28 85.8899 118.26C87.4199 118.22 88.9299 117.5 90.4099 116.1H91.1499C91.1599 116.1 91.1599 116.1 91.1699 116.1C91.9199 116.08 92.6401 116.1 93.3401 116.11C93.7801 116.12 94.2001 116.12 94.6201 116.12C96.4601 116.12 98.09 115.98 99.53 115.11C100.48 114.53 101.25 113.69 101.89 112.53C102.54 111.35 103.04 109.82 103.44 107.88C104.15 104.41 103.82 101.62 102.45 99.5899C101.51 98.1999 100.29 97.51 99.49 97.18C100.01 93.41 99.7 90.3599 98.55 88.0899C97.93 86.8699 97.22 86.17 96.74 85.81V83.4599C101.92 80.9499 105.43 77.34 107.16 72.74ZM101.66 107.54C101.24 109.59 100.47 112.45 98.5901 113.59C97.2701 114.39 95.5501 114.36 93.3701 114.32C92.9301 114.31 92.49 114.31 92.03 114.3C93.3 112.66 94.54 110.51 95.75 107.86C97.4 104.25 98.54 100.7 99.06 98.9799C99.61 99.2399 100.37 99.74 100.97 100.65C102.03 102.26 102.27 104.58 101.66 107.54ZM97.6101 97.4499C97.6001 97.4999 96.2801 102.35 94.0901 107.13C92.8201 109.9 91.52 112.1 90.22 113.68C90.14 113.77 90.06 113.87 89.99 113.96C89.85 114.12 89.7201 114.27 89.5801 114.41C89.4001 114.5 89.2599 114.64 89.1699 114.82C88.0199 115.9 86.9001 116.46 85.8201 116.48C85.8001 116.48 85.77 116.48 85.75 116.48C85.74 116.48 85.33 116.52 84.72 116.53C84.41 116.53 84.0399 116.53 83.6499 116.51C82.2799 116.43 81.26 116.16 80.78 115.74C80.6 115.58 80.51 115.41 80.49 115.19V114.48V106.26V103.04C80.49 102.6 80.18 102.24 79.77 102.16C79.71 102.15 79.6501 102.14 79.5901 102.14C79.0901 102.14 78.6899 102.54 78.6899 103.04V109.68V114.31H70.6999V109.74V103.04C70.6999 102.54 70.3 102.14 69.8 102.14C69.71 102.14 69.61 102.15 69.53 102.18C69.17 102.3 68.8999 102.64 68.8999 103.04V106.05V113.69V115.19C68.8899 115.41 68.8001 115.58 68.6101 115.73C68.0901 116.18 67.0299 116.4 65.9399 116.49C65.1099 116.55 64.2699 116.53 63.6499 116.47C63.6299 116.47 63.6001 116.47 63.5801 116.47C62.2001 116.45 60.76 115.55 59.29 113.8C59.26 113.77 59.2299 113.73 59.1999 113.7C57.9099 112.14 56.6299 109.94 55.3899 107.19C53.3399 102.63 52.08 98.0099 51.97 97.5899L51.6699 94.8399C51.5299 91.9999 52.04 90.1799 52.55 89.0899C52.96 88.2199 53.42 87.71 53.74 87.42C54.13 87.67 54.73 88.0299 55.53 88.4399C55.93 88.6399 56.3799 88.8599 56.8799 89.0799C57.2799 89.2599 57.7099 89.44 58.1799 89.62C59.8099 90.26 61.5401 90.78 63.3401 91.17C63.6101 91.23 63.8799 91.2899 64.1599 91.3399C66.1599 91.7299 68.2301 91.97 70.3501 92.05C69.7101 92.93 69.3301 94.01 69.3301 95.18C69.3301 98.12 71.7199 100.52 74.6699 100.52C77.6199 100.52 80.01 98.13 80.01 95.18C80.01 94.04 79.65 92.9799 79.04 92.1099C81.01 92.0799 82.9799 91.88 84.9199 91.52C85.2199 91.46 85.5301 91.3999 85.8301 91.3299C87.6001 90.9499 89.34 90.42 91.01 89.77C91.57 89.55 92.0901 89.33 92.5701 89.12C93.1401 88.86 93.6401 88.62 94.0901 88.38C94.8501 87.99 95.43 87.64 95.81 87.4C96.13 87.68 96.59 88.1999 97 89.0699C97.67 90.4799 98.3001 93.0599 97.6101 97.4499ZM47.9099 107.54C47.7199 106.59 47.6101 105.7 47.5901 104.88C47.5901 104.86 47.5901 104.84 47.5901 104.83C47.5301 101.08 49.4 99.58 50.51 99.01C51 100.7 52.12 104.27 53.75 107.9C54.93 110.53 56.1499 112.67 57.3999 114.31C57.1399 114.31 56.8899 114.32 56.6399 114.32C54.4499 114.36 52.5699 114.39 51.1399 113.58C49.5999 112.7 48.5699 110.78 47.9099 107.54ZM40.23 87.74C40.45 87.06 40.73 86.38 41.05 85.68C41.29 86.47 41.6399 87.4 42.1299 88.37C42.9299 89.97 43.9399 91.36 45.1399 92.52C46.4999 93.84 48.1099 94.84 49.9199 95.52C49.9599 96.06 50.0201 96.6199 50.1001 97.1899C49.3001 97.5099 48.0799 98.1999 47.1399 99.5999C47.0499 99.7399 46.9601 99.89 46.8701 100.03C46.3401 100.95 46.0001 102.02 45.8601 103.22C44.1101 101.95 41.0199 99.23 39.9099 95.16C39.2699 92.82 39.38 90.33 40.23 87.74ZM71.1499 95.1899C71.1499 93.2399 72.7399 91.65 74.6899 91.65C75.0299 91.65 75.3599 91.7 75.6699 91.79C77.1399 92.22 78.23 93.5799 78.23 95.1899C78.23 97.1399 76.6399 98.7299 74.6899 98.7299C73.8999 98.7299 73.1701 98.47 72.5801 98.03C71.7101 97.37 71.1499 96.3499 71.1499 95.1899ZM74.6799 89.8499C74.1799 89.8499 73.69 89.92 73.23 90.05V89.16V87.88C73.73 87.89 74.24 87.9 74.74 87.9C75.2 87.9 75.6601 87.89 76.1201 87.88V89.16V90.04C75.6601 89.92 75.1799 89.8499 74.6799 89.8499ZM54.6499 85.8399V85.03V84.28C56.5899 85.05 60.6001 86.43 66.0701 87.25C67.8501 87.52 69.6399 87.7 71.4299 87.8V89.14V90.27C65.8299 90.19 61.5599 88.9799 58.9199 87.9599C56.7199 87.1199 55.2699 86.2499 54.6499 85.8399ZM77.9199 89.3V87.8199C78.4999 87.7899 79.0899 87.7499 79.6699 87.6999C84.8699 87.2499 89.9999 86.09 94.9299 84.24V85.16V85.8399C94.2399 86.2799 92.64 87.23 90.3 88.13C88.45 88.85 86.52 89.4 84.54 89.77C82.36 90.18 80.1399 90.3599 77.9099 90.3299V89.3H77.9199ZM104.67 33.05C105.64 35.5 106.1 38.35 106.13 42C106.16 45.21 105.87 48.46 105.29 51.55C104.66 50.14 103.93 48.76 103.1 47.43C102.99 47.25 102.87 47.07 102.76 46.89C101.56 45.03 100.16 43.2499 98.6101 41.5999C96.8201 39.6999 95.2499 38.42 94.3899 37.77C95.9399 35.4 99.1201 32.87 101.33 31.28C102.04 30.77 102.66 30.3499 103.08 30.0699C103.76 30.8799 104.28 32.06 104.67 33.05ZM46.4199 30.16C46.8499 30.44 47.4699 30.86 48.1899 31.38C50.3999 32.97 53.5899 35.49 55.1299 37.87C54.2699 38.52 52.6999 39.7999 50.9099 41.6999C49.3599 43.3499 47.96 45.13 46.76 46.99C46.64 47.17 46.5299 47.35 46.4199 47.53C45.6099 48.83 44.9 50.17 44.28 51.54C43.7 48.46 43.4099 45.21 43.4399 42.01C43.4699 38.35 43.9299 35.51 44.8999 33.06C45.2799 32.09 45.7699 30.96 46.4199 30.16ZM44.8899 54.88C45.7099 52.5 46.84 50.1799 48.26 47.9799C49.4 46.2199 50.7199 44.5299 52.1899 42.9599C54.6999 40.2799 56.8001 38.8699 56.8201 38.8599C57.2001 38.5999 57.3301 38.0999 57.1201 37.6899C56.0001 35.5299 53.5801 33.28 51.3601 31.51C50.2201 30.6 49.13 29.82 48.3 29.25C48.98 29.27 49.7399 29.48 50.3799 29.77C52.8299 30.84 57.57 33.86 60 36.16C60.27 36.41 60.67 36.4799 61 36.3199C64.71 34.5799 68.2501 33.7899 70.5701 33.4399C73.0901 33.0599 74.75 33.0899 74.77 33.0899C74.78 33.0899 74.8 33.0899 74.81 33.0899C74.83 33.0899 76.49 33.0599 79.01 33.4399C83.21 34.0799 86.5301 35.3599 88.5801 36.3199C88.9101 36.4799 89.3101 36.41 89.5801 36.16C92.0101 33.87 96.7399 30.85 99.1999 29.77C99.7799 29.52 100.45 29.32 101.07 29.27C100.44 29.7 99.6899 30.2399 98.8799 30.8599C96.4899 32.6999 93.6499 35.2099 92.3999 37.6099C92.1899 38.0199 92.3199 38.52 92.6999 38.78C92.7199 38.79 94.8201 40.2 97.3301 42.88C98.8001 44.45 100.12 46.14 101.26 47.9C102.68 50.1 103.81 52.42 104.63 54.8C104.65 54.86 104.68 54.9099 104.71 54.9599C106.29 59.7099 106.88 63.97 106.5 67.68C106.4 68.65 106.23 69.5799 106 70.4799C105.85 71.0399 105.68 71.5799 105.48 72.1099C103.87 76.3999 100.5 79.7599 95.48 82.0899C90.36 84.1399 85.0101 85.42 79.5701 85.89C75.2101 86.27 70.7799 86.1299 66.4099 85.4799C62.5199 84.8999 59.3899 84.01 57.4499 83.37C55.3499 82.67 54.1499 82.1099 54.1399 82.0999C54.1399 82.0999 54.1399 82.0999 54.1299 82.0999C49.0899 79.7599 45.7201 76.3999 44.1101 72.1099C43.9301 71.6299 43.7699 71.14 43.6399 70.64C43.3799 69.7 43.2001 68.71 43.0901 67.68C42.6901 63.95 43.2899 59.66 44.8899 54.88Z" fill="#31201B"/>
<path d="M78.2 73.08C75.24 71.97 72.31 72.78 71.26 73.14C71.6 73.94 72.02 74.56 72.52 75.01C73.12 75.55 73.8099 75.82 74.6299 75.83C74.6399 75.83 74.6399 75.83 74.6499 75.83C74.6599 75.83 74.6599 75.83 74.6699 75.83C74.6899 75.83 74.71 75.83 74.73 75.83C74.75 75.83 74.76 75.83 74.78 75.83C74.79 75.83 74.8 75.83 74.8 75.83C74.81 75.83 74.8101 75.83 74.8201 75.83C75.6401 75.82 76.3299 75.55 76.9299 75.01C77.4199 74.55 77.85 73.9 78.2 73.08Z" fill="#FA8881"/>
<path d="M66.0701 68.2C66.8301 69.24 67.7099 69.94 68.6699 70.27C68.7599 71 68.97 72.27 69.47 73.53C69.93 74.7 70.5401 75.65 71.2801 76.33C72.2301 77.19 73.3599 77.63 74.6699 77.63C74.6899 77.63 74.7 77.63 74.72 77.63C74.74 77.63 74.75 77.63 74.77 77.63C76.07 77.63 77.2099 77.19 78.1599 76.33C78.8999 75.65 79.51 74.71 79.97 73.53C80.47 72.26 80.68 71 80.77 70.27C81.73 69.94 82.6101 69.24 83.3701 68.2C84.2001 67.07 84.6001 65.92 84.6201 65.87C84.7801 65.4 84.5301 64.89 84.0601 64.72C83.5901 64.56 83.0799 64.8 82.9099 65.27C82.8999 65.31 81.63 68.8501 79.26 68.6701C78.45 68.6101 77.7 68.3201 77.01 67.8001C76.81 67.6501 76.62 67.4901 76.44 67.3001C76.27 67.1301 76.13 66.9701 76 66.8101C77.76 66.2801 79.79 64.64 80.43 62.95C80.64 62.39 80.7001 61.8201 80.5501 61.2901C80.1501 59.8801 78.56 59.22 77.23 58.89C75.76 58.52 74.2901 58.4901 72.8101 58.7901C71.5501 59.0501 70.0901 59.52 69.3601 60.62C69.2201 60.83 69.1201 61.0501 69.0501 61.2901C68.9101 61.7701 68.9501 62.27 69.1101 62.78C69.6601 64.5 71.69 66.19 73.48 66.78C73.35 66.95 73.19 67.1201 73.01 67.3001C72.82 67.4901 72.63 67.6501 72.44 67.8001C71.76 68.3101 71 68.6001 70.19 68.6701C67.83 68.8501 66.5601 65.34 66.5401 65.27C66.3801 64.8 65.8599 64.55 65.3899 64.71C64.9199 64.87 64.6701 65.39 64.8301 65.86C64.8401 65.92 65.2401 67.07 66.0701 68.2ZM76.9099 75C76.3099 75.54 75.6201 75.81 74.8001 75.82C74.7901 75.82 74.7901 75.82 74.7801 75.82C74.7701 75.82 74.77 75.82 74.76 75.82C74.74 75.82 74.73 75.82 74.71 75.82C74.69 75.82 74.6699 75.82 74.6499 75.82C74.6399 75.82 74.6299 75.82 74.6299 75.82C74.6199 75.82 74.6201 75.82 74.6101 75.82C73.7901 75.81 73.1 75.54 72.5 75C72.01 74.55 71.59 73.93 71.24 73.13C72.29 72.77 75.22 71.97 78.18 73.07C77.85 73.9 77.4199 74.55 76.9099 75ZM71.3401 61.2901C71.3401 60.4601 72.8801 59.78 74.7801 59.78C76.6801 59.78 78.22 60.4501 78.22 61.2901C78.22 62.1301 76.6801 62.8001 74.7801 62.8001C72.8801 62.8001 71.3401 62.1301 71.3401 61.2901Z" fill="#31201B"/>
<path d="M78.22 61.29C78.22 60.46 76.68 59.78 74.78 59.78C72.88 59.78 71.3401 60.45 71.3401 61.29C71.3401 62.13 72.88 62.8 74.78 62.8C76.68 62.8 78.22 62.13 78.22 61.29Z" fill="#5B3C38"/>
<path d="M62.1399 50.4301C63.4999 50.4501 65.0901 49.66 65.3601 48.21C65.6001 46.93 64.7701 45.3799 63.6101 44.8199C62.3101 44.1799 60.7201 44.75 59.6001 45.51C58.3701 46.35 57.6199 47.62 58.6499 48.9C59.4299 49.88 60.9199 50.4201 62.1399 50.4301Z" fill="#FDFDFC"/>
<path d="M53.3798 57.22C53.4998 61.16 56.9598 60.8 58.1598 60.8C59.3598 60.8 63.3699 60.08 62.9799 56.96C62.6299 54.17 60.2598 52.35 57.6798 52.66C57.2298 52.71 56.77 52.83 56.32 53.02C54.55 53.76 53.3198 55.25 53.3798 57.22ZM58.7399 57.22C57.8999 57.22 57.2199 56.5399 57.2199 55.6999C57.2199 54.8599 57.8999 54.1801 58.7399 54.1801C59.5799 54.1801 60.2599 54.8599 60.2599 55.6999C60.2599 56.5399 59.5799 57.22 58.7399 57.22Z" fill="#31201B"/>
<path d="M58.74 57.22C59.5795 57.22 60.26 56.5394 60.26 55.7C60.26 54.8605 59.5795 54.1801 58.74 54.1801C57.9005 54.1801 57.22 54.8605 57.22 55.7C57.22 56.5394 57.9005 57.22 58.74 57.22Z" fill="#FDFDFC"/>
<path d="M87.3401 50.4301C88.5601 50.4101 90.0501 49.88 90.8401 48.9C91.8701 47.62 91.1099 46.35 89.8899 45.51C88.7699 44.75 87.1799 44.1799 85.8799 44.8199C84.7199 45.3899 83.8899 46.94 84.1299 48.21C84.3899 49.67 85.9801 50.4601 87.3401 50.4301Z" fill="#FDFDFC"/>
<path d="M86.4999 56.97C86.1099 60.09 90.13 60.8101 91.32 60.8101C92.51 60.8101 95.98 61.17 96.09 57.23C96.15 55.26 94.9198 53.77 93.1598 53.03C92.7098 52.84 92.25 52.72 91.8 52.67C89.22 52.36 86.8499 54.18 86.4999 56.97ZM92.2599 55.6999C92.2599 56.5399 91.5799 57.22 90.7399 57.22C89.8999 57.22 89.2199 56.5399 89.2199 55.6999C89.2199 54.8599 89.8999 54.1801 90.7399 54.1801C91.5699 54.1801 92.2599 54.8599 92.2599 55.6999Z" fill="#31201B"/>
<path d="M89.21 55.7C89.21 56.54 89.89 57.22 90.73 57.22C91.57 57.22 92.25 56.54 92.25 55.7C92.25 54.86 91.57 54.1801 90.73 54.1801C89.89 54.1801 89.21 54.86 89.21 55.7Z" fill="#FDFDFC"/>
</svg>
