<svg width="146" height="145" viewBox="0 0 146 145" fill="none" xmlns="http://www.w3.org/2000/svg">
<path d="M72.98 144.85C112.883 144.85 145.23 112.503 145.23 72.6001C145.23 32.6975 112.883 0.350098 72.98 0.350098C33.0774 0.350098 0.72998 32.6975 0.72998 72.6001C0.72998 112.503 33.0774 144.85 72.98 144.85Z" fill="#1E1E1E"/>
<path d="M72.98 82.76C64.22 82.76 55.9399 81.4501 49.6899 79.0701C47.4599 78.2201 45.55 77.26 43.99 76.2C36.1 79.15 31.1899 83.2801 31.1899 87.8601C31.1899 96.8001 49.9 104.05 72.98 104.05C96.06 104.05 114.77 96.8001 114.77 87.8601C114.77 83.2801 109.86 79.14 101.97 76.2C100.41 77.26 98.5 78.2201 96.27 79.0701C90.02 81.4501 81.75 82.76 72.98 82.76Z" fill="white"/>
<path d="M72.98 63.3999C66.16 63.3999 59.7201 62.3 54.8401 60.29C54.0401 59.96 53.2901 59.61 52.6001 59.24C45.5701 61.46 41.0901 64.8201 41.0901 68.5601C41.0901 75.2601 55.37 80.6799 72.98 80.6799C90.59 80.6799 104.87 75.2501 104.87 68.5601C104.87 64.8101 100.39 61.46 93.3601 59.24C92.6701 59.61 91.9201 59.96 91.1201 60.29C86.2401 62.29 79.8 63.3999 72.98 63.3999Z" fill="white"/>
<path d="M72.98 61.3201C86.5275 61.3201 97.51 56.8025 97.51 51.23C97.51 45.6574 86.5275 41.1399 72.98 41.1399C59.4324 41.1399 48.45 45.6574 48.45 51.23C48.45 56.8025 59.4324 61.3201 72.98 61.3201Z" fill="white"/>
</svg>
