<svg width="205" height="205" viewBox="0 0 205 205" fill="none" xmlns="http://www.w3.org/2000/svg">
<path d="M153.33 153.697C181.518 125.51 181.517 79.8082 153.33 51.6204C125.142 23.4326 79.4406 23.4327 51.2528 51.6205C23.0651 79.8082 23.065 125.51 51.2528 153.697C79.4406 181.885 125.142 181.885 153.33 153.697Z" fill="#5169FF"/>
<path d="M95.77 91.1699V116.65L117.87 104.03L110.39 99.6599L103.54 103.34V95.8999L95.77 91.1699Z" fill="white"/>
<path d="M105.38 83.53L95.77 88.8L125.87 106.28V127.29L104.73 139.4L83.34 127.24V76.0701L104.61 63.75L114.63 69.6799V86.3899L124.39 91.9099V63.75L104.61 52.8101L73.53 70.75V132.5L104.73 150.75L135.53 132.5V101.27L105.38 83.53Z" fill="white"/>
</svg>
