<svg width="174" height="175" viewBox="0 0 174 175" fill="none" xmlns="http://www.w3.org/2000/svg">
<path d="M157.401 104.248C166.562 65.4522 142.538 26.5761 103.742 17.4154C64.9467 8.25462 26.0704 32.2783 16.9097 71.0739C7.74897 109.869 31.7728 148.746 70.5684 157.906C109.364 167.067 148.24 143.043 157.401 104.248Z" fill="#ECEFF0"/>
<path d="M88.4899 38.59V72.1601L69.87 104.56C69.87 104.56 40.8098 121.31 40.4198 121.31C40.0298 121.31 88.4899 38.59 88.4899 38.59Z" fill="#FC5000"/>
<path d="M88.49 38.59V72.1601L107.03 104.56C107.03 104.56 135.97 121.31 136.37 121.31C136.77 121.31 88.49 38.59 88.49 38.59Z" fill="#A01E66"/>
<path d="M69.8701 104.56H107.03L136.36 121.31H40.4199L69.8701 104.56Z" fill="#662E93"/>
</svg>
