<svg width="145" height="145" viewBox="0 0 145 145" fill="none" xmlns="http://www.w3.org/2000/svg">
<path d="M72.36 144.65C112.141 144.65 144.39 112.401 144.39 72.62C144.39 32.8389 112.141 0.590027 72.36 0.590027C32.5789 0.590027 0.329956 32.8389 0.329956 72.62C0.329956 112.401 32.5789 144.65 72.36 144.65Z" fill="#8DC351"/>
<path d="M109.79 76.42C108.71 71.52 105.34 68.22 101.17 65.68C99.07 64.4 96.79 63.59 94.18 63.17C94.49 62.84 94.64 62.67 94.8 62.52C97.57 59.8 99.0099 56.49 98.8499 52.62C98.5499 45.52 94.24 40.28 87.36 38.5C83.28 37.45 79.17 37.63 75.05 38.26C74.36 38.37 74.0399 38.3 73.8399 37.5C72.8699 33.52 71.8 29.57 70.8 25.6C70.65 24.99 70.4699 24.82 69.8199 25C67.5699 25.63 65.3 26.22 63.02 26.76C62.35 26.92 62.3099 27.18 62.4699 27.78C63.4999 31.74 64.48 35.72 65.52 39.68C65.7 40.38 65.55 40.57 64.88 40.71C63.23 41.06 61.5799 41.45 59.9499 41.91C59.3099 42.09 59.1199 41.96 58.9699 41.33C57.9799 37.36 56.93 33.4 55.93 29.43C55.79 28.88 55.66 28.66 55.03 28.84C52.78 29.47 50.51 30.05 48.23 30.6C47.55 30.76 47.45 31 47.63 31.66C48.67 35.59 49.6299 39.54 50.6899 43.46C50.8999 44.23 50.75 44.45 50 44.64C45.05 45.89 40.12 47.21 35.18 48.46C34.41 48.66 34.31 48.93 34.51 49.66C35.16 51.97 35.76 54.31 36.31 56.65C36.48 57.38 36.6699 57.59 37.4699 57.36C39.4699 56.78 41.46 56.17 43.52 55.85C45.87 55.49 47.8 56.72 48.4 59.02C51.5 70.98 54.58 82.94 57.67 94.9C58.25 97.16 57.54 98.45 55.28 99.12C53.63 99.61 51.96 100.03 50.28 100.4C49.65 100.54 49.44 100.75 49.51 101.42C49.8 104.27 50.05 107.12 50.26 109.98C50.32 110.77 50.5299 110.95 51.3199 110.74C56.1899 109.45 61.0799 108.24 65.9499 106.96C66.7399 106.75 67.09 106.79 67.31 107.73C68.27 111.71 69.3499 115.66 70.3399 119.63C70.4999 120.29 70.71 120.43 71.38 120.24C73.57 119.62 75.77 119.03 77.99 118.53C78.81 118.34 78.84 118.04 78.65 117.33C77.59 113.34 76.61 109.33 75.54 105.34C75.34 104.59 75.58 104.39 76.24 104.24C77.83 103.89 79.4099 103.51 80.9699 103.08C81.6599 102.89 81.95 102.96 82.15 103.76C83.12 107.77 84.1899 111.76 85.1899 115.77C85.3499 116.42 85.55 116.61 86.24 116.41C88.43 115.79 90.6399 115.24 92.8499 114.7C93.5299 114.54 93.71 114.31 93.52 113.58C92.47 109.66 91.5099 105.71 90.4499 101.79C90.2299 100.98 90.3399 100.7 91.1899 100.48C96.0999 99.2 100.66 97.18 104.41 93.67C109.43 88.93 111.26 83.1 109.79 76.42ZM66.8399 67.97C66.3599 68.08 66.2099 67.9 66.0999 67.49C64.7499 62.4 63.38 57.32 62.02 52.24C61.92 51.87 61.95 51.65 62.39 51.53C66.32 50.39 70.22 49.1 73.67 49.07C77.1 49.07 79.63 49.63 81.61 51.65C85.02 55.12 83.9499 60.12 80.9499 62.76C78.7999 64.66 76.21 65.7 73.49 66.43C71.29 67.01 69.0499 67.44 66.8399 67.97ZM91.86 86.91C90.22 88.99 88 90.27 85.61 91.28C82.17 92.73 78.53 93.45 74.9 94.19C72.95 94.59 72.94 94.58 72.43 92.68C71.06 87.56 69.7099 82.44 68.3199 77.33C68.1599 76.73 68.23 76.48 68.87 76.31C72.91 75.2 76.94 74.02 81.13 73.6C81.97 73.52 82.82 73.48 83.66 73.43C84.81 73.43 85.94 73.52 87.06 73.74C94.73 75.21 95.25 82.61 91.86 86.91Z" fill="#FDFEFE"/>
</svg>
