<svg width="167" height="167" viewBox="0 0 167 167" fill="none" xmlns="http://www.w3.org/2000/svg">
<path d="M94.7666 154.484C134.116 148.097 160.839 111.021 154.452 71.6715C148.066 32.3218 110.99 5.59971 71.6402 11.9859C32.2905 18.3721 5.56839 55.4483 11.9546 94.798C18.3408 134.148 55.417 160.87 94.7666 154.484Z" fill="#F2F2F2"/>
<path d="M90.24 125.25H74.8501C72.9601 125.25 71.4299 123.72 71.4299 121.83C71.4299 119.94 72.9601 118.41 74.8501 118.41H90.24C97.03 118.41 103.41 115.77 108.21 110.97C113.01 106.17 115.65 99.79 115.65 93C115.65 86.21 113.01 79.83 108.21 75.03C103.41 70.23 97.03 67.59 90.24 67.59H82.1799C80.2299 67.59 78.6499 69.17 78.6499 71.12C78.6499 73.07 80.2299 74.65 82.1799 74.65H90.3999C95.3099 74.65 99.9199 76.56 103.39 80.03C106.86 83.5 108.77 88.11 108.77 93.02C108.77 97.93 106.86 102.54 103.39 106.01C99.9199 109.48 95.3099 111.39 90.3999 111.39H68.1101C62.4001 111.39 57.76 106.75 57.76 101.04V38.81C57.76 36.92 59.2899 35.39 61.1799 35.39C63.0699 35.39 64.6001 36.92 64.6001 38.81V101.04C64.6001 102.97 66.1701 104.54 68.1001 104.54H90.3899C96.7399 104.54 101.91 99.37 101.91 93.02C101.91 86.67 96.7399 81.5 90.3899 81.5H82.1699C76.4499 81.5 71.79 76.84 71.79 71.12C71.79 65.4 76.4499 60.74 82.1699 60.74H90.23C94.58 60.74 98.81 61.59 102.79 63.28C106.63 64.91 110.08 67.23 113.04 70.19C116 73.15 118.33 76.6 119.95 80.44C121.63 84.42 122.49 88.65 122.49 93C122.49 97.35 121.64 101.58 119.95 105.56C118.32 109.4 116 112.85 113.04 115.81C110.08 118.77 106.63 121.1 102.79 122.72C98.82 124.4 94.6 125.25 90.24 125.25Z" fill="#E53F73"/>
</svg>
