<svg width="206" height="205" viewBox="0 0 206 205" fill="none" xmlns="http://www.w3.org/2000/svg">
<path d="M154 153.565C182.188 125.377 182.188 79.676 154 51.4882C125.812 23.3005 80.1107 23.3005 51.9229 51.4883C23.7351 79.6761 23.735 125.378 51.9228 153.565C80.1106 181.753 125.812 181.753 154 153.565Z" fill="black"/>
<path d="M131.94 106.66C131.97 107.18 132.01 107.52 132.01 107.85C132.01 115.03 132 122.22 132.03 129.4C132.03 130.2 131.81 130.68 131.09 131.09C122.45 135.98 113.84 140.9 105.21 145.8C104.92 145.97 104.59 146.07 104.1 146.29C104.1 145.7 104.1 145.27 104.1 144.84C104.1 137.83 104.12 130.83 104.08 123.82C104.07 122.82 104.34 122.25 105.25 121.73C113.7 116.97 122.13 112.15 130.56 107.36C130.97 107.13 131.39 106.94 131.94 106.66Z" fill="white"/>
<path d="M104.17 113.88C104.14 113.34 104.11 112.95 104.11 112.57C104.11 105.44 104.11 98.3101 104.1 91.1801C104.1 90.4901 104.14 89.9601 104.87 89.5401C111.34 85.8701 117.77 82.16 124.22 78.46C124.4 78.36 124.61 78.2901 124.99 78.1301C125.02 78.7101 125.06 79.1801 125.06 79.6401C125.06 86.6401 125.05 93.6301 125.08 100.63C125.08 101.58 124.83 102.14 123.97 102.63C117.77 106.14 111.6 109.7 105.42 113.24C105.06 113.46 104.67 113.63 104.17 113.88Z" fill="white"/>
<path d="M95.6899 113.88C95.1499 113.62 94.7902 113.47 94.4502 113.28C88.2302 109.71 82.02 106.13 75.79 102.58C75.17 102.23 74.7798 101.9 74.7798 101.08C74.8198 93.68 74.7998 86.2801 74.7998 78.8801C74.7998 78.6701 74.8399 78.4601 74.8799 78.1301C75.3199 78.3501 75.67 78.5 76 78.69C82.18 82.23 88.3501 85.8001 94.5601 89.3101C95.4101 89.7901 95.72 90.3101 95.71 91.2801C95.67 98.3201 95.6899 105.37 95.6899 112.42C95.6899 112.85 95.6899 113.27 95.6899 113.88Z" fill="white"/>
<path d="M74.8801 110.54C75.3601 110.79 75.7503 110.97 76.1203 111.18C82.2603 114.7 88.3902 118.25 94.5602 121.73C95.4102 122.21 95.7201 122.73 95.7101 123.7C95.6701 130.74 95.6901 137.79 95.6901 144.83C95.6901 145.26 95.6901 145.69 95.6901 146.3C95.1401 146.03 94.7901 145.88 94.4601 145.69C88.2401 142.12 82.03 138.55 75.8 134.99C75.19 134.64 74.7802 134.32 74.7902 133.49C74.8302 126.09 74.8102 118.69 74.8102 111.29C74.8002 111.1 74.8501 110.89 74.8801 110.54Z" fill="white"/>
<path d="M120.54 70.57C117.47 72.33 114.59 73.98 111.72 75.63C108 77.77 104.28 79.92 100.54 82.01C100.14 82.23 99.4098 82.29 99.0298 82.07C92.6298 78.38 86.2499 74.6401 79.8799 70.9101C79.7399 70.8301 79.6099 70.71 79.3599 70.51C79.7799 70.23 80.12 69.97 80.48 69.76C86.55 66.2 92.6302 62.65 98.7002 59.1C99.2702 58.76 99.7402 58.4801 100.49 58.9201C106.91 62.6601 113.37 66.3401 119.82 70.0501C120.01 70.1601 120.17 70.3 120.54 70.57Z" fill="white"/>
</svg>
