<svg width="145" height="145" viewBox="0 0 145 145" fill="none" xmlns="http://www.w3.org/2000/svg">
<path d="M72.8301 144.49C112.595 144.49 144.83 112.254 144.83 72.49C144.83 32.7255 112.595 0.48999 72.8301 0.48999C33.0656 0.48999 0.830078 32.7255 0.830078 72.49C0.830078 112.254 33.0656 144.49 72.8301 144.49Z" fill="#2D598A"/>
<path d="M89.71 71.1101C89.71 71.1101 97.25 66.8101 97.25 59.3501C97.25 51.8901 92.3901 44.1101 79.8201 44.1101H61.8999H45.72C45.72 44.4301 45.72 100.86 45.72 100.86H61.8999H81.76C81.76 100.86 99.9199 100.05 99.9199 84.48C99.9299 84.49 100.66 74.9201 89.71 71.1101ZM61.8999 55.3401H75.1599C78.3799 55.3401 81 57.9499 81 61.1799C81 64.3999 78.3899 67.02 75.1599 67.02H61.8999V55.3401ZM77.8401 89.1499H75.1599H64.5801H61.8999V77.47H64.5801H75.1599H77.8401C81.0601 77.47 83.6799 80.0801 83.6799 83.3101C83.6799 86.5401 81.0601 89.1499 77.8401 89.1499Z" fill="white"/>
</svg>
