<svg width="145" height="145" viewBox="0 0 145 145" fill="none" xmlns="http://www.w3.org/2000/svg">
<path d="M72.9001 144.39C112.709 144.39 144.98 112.119 144.98 72.3101C144.98 32.5014 112.709 0.22998 72.9001 0.22998C33.0914 0.22998 0.820068 32.5014 0.820068 72.3101C0.820068 112.119 33.0914 144.39 72.9001 144.39Z" fill="#E8B321"/>
<path d="M91.17 43.24C88.68 42.29 86.01 41.73 83.48 41.48C83.32 41.46 83.15 41.4401 82.98 41.4301C82.97 36.9401 82.97 36.77 82.96 32.3C80.22 32.3 76.11 32.3101 73.38 32.3101C73.38 36.6901 73.39 36.74 73.39 41.08C71.19 41.11 69.05 41.14 66.88 41.17C66.88 36.78 66.87 36.6999 66.87 32.3199C64.12 32.3199 59.29 32.32 56.57 32.33C56.57 36.81 56.58 36.98 56.58 41.49C51.07 41.49 49.89 41.49 44.41 41.49C44.41 44.44 44.42 47.31 44.42 50.21C45.64 50.2 46.82 50.15 48 50.17C49.25 50.19 48.38 50.16 49.61 50.37C51.8 50.74 52.87 52.31 52.89 54.35C52.94 60.94 52.92 67.52 52.93 74.11C52.94 79.52 52.95 84.92 52.93 90.33C52.92 91.51 52.38 92.42 51.27 92.97C50.73 93.24 50.16 93.24 49.6 93.24C47.84 93.26 48.23 93.25 46.47 93.23C46.16 93.23 46.06 93.31 46.01 93.61C45.53 96.6 45.03 99.5799 44.54 102.57C44.52 102.7 44.51 102.82 44.49 102.97C49.98 102.98 51.16 102.99 56.64 103C56.65 107.57 56.65 108.49 56.66 113.02C59.39 113.02 64.22 113.01 66.95 113.01C66.95 108.53 66.94 107.64 66.94 103.17C69.14 103.19 71.3 103.21 73.46 103.23C73.46 107.7 73.47 108.55 73.47 113.01C76.2 113.01 80.33 113 83.05 113C83.05 108.47 83.04 107.55 83.04 103.03C83.88 102.98 84.68 102.96 85.48 102.88C89.44 102.48 93.52 101.49 97.12 99.76C101.01 97.89 103.78 94.9601 105.1 90.8101C107.34 83.7501 104.3 73.63 96.8 70.99C96.04 70.72 95.26 70.53 94.46 70.42C94.59 70.32 94.32 70.5 94.46 70.42C97.91 68.52 100.52 64.02 101.23 60.09C101.59 58.11 101.53 56.14 101.22 54.17C100.36 48.57 96.14 45.14 91.17 43.24ZM86.4 90.52C84.85 91.47 83.16 92.06 81.4 92.42C80.06 92.69 78.69 92.9 77.33 93.05C74.4 93.38 71.45 93.34 68.5 93.3C68.05 93.29 67.6 93.29 67.12 93.28C67.12 87.27 67.11 81.3101 67.11 75.3101C68.33 75.2901 69.52 75.26 70.71 75.24C73.63 75.19 76.54 75.22 79.43 75.64C81.58 75.95 83.68 76.4201 85.63 77.4301C87.21 78.2501 88.53 79.34 89.29 80.99C90.95 84.58 89.77 88.45 86.4 90.52ZM86.05 57.5C86.55 60.65 85.64 63.61 81.82 65.34C80.75 65.82 79.62 66.2 78.48 66.47C77.39 66.73 76.25 66.8201 75.13 66.9301C72.51 67.1901 69.88 67.11 67.25 67.08C67.23 67.08 67.2 67.07 67.12 67.04C67.11 61.65 67.11 56.24 67.1 50.78C68.62 50.75 70.08 50.71 71.54 50.7C74.02 50.69 76.49 50.81 78.92 51.36C80.56 51.73 82.13 52.2901 83.5 53.3101C84.89 54.3801 85.77 55.76 86.05 57.5Z" fill="white"/>
</svg>
