<svg width="146" height="145" viewBox="0 0 146 145" fill="none" xmlns="http://www.w3.org/2000/svg">
<path d="M145.01 68.46C144.95 67.62 144.94 66.77 144.86 65.92C144.77 64.92 144.65 63.93 144.5 62.94C144.28 61.43 144.08 59.92 143.79 58.43C142.58 52.12 140.54 46.08 137.68 40.33C131.75 28.4 123.2 18.81 112.01 11.58C104.3 6.59999 95.9199 3.24 86.9099 1.47C85.3699 1.17 83.8199 0.919991 82.2599 0.709991C81.1699 0.559991 80.0699 0.489994 78.9699 0.399994C77.9099 0.309994 76.8499 0.240013 75.7899 0.170013C75.7499 0.170013 75.7099 0.129985 75.6699 0.109985C73.8899 0.109985 72.1099 0.109985 70.3299 0.109985C69.7999 0.149985 69.2599 0.18999 68.7299 0.23999C66.5199 0.47999 64.2999 0.670011 62.0999 0.980011C55.5399 1.89001 49.2699 3.82001 43.2399 6.54001C36.2999 9.67001 30.0099 13.82 24.3799 18.96C18.3199 24.49 13.3499 30.87 9.4599 38.09C5.9599 44.59 3.5199 51.47 2.1399 58.72C1.8799 60.1 1.6399 61.48 1.4299 62.86C1.2899 63.82 1.2099 64.79 1.1399 65.76C1.0499 66.96 0.949901 68.17 0.919901 69.38C0.869901 71.22 0.779905 73.06 0.869905 74.89C0.969905 77.11 1.1799 79.33 1.4499 81.54C1.9399 85.59 2.8199 89.56 4.0199 93.46C6.9799 103.07 11.7199 111.69 18.2699 119.32C24.4499 126.52 31.7799 132.28 40.2399 136.6C46.1599 139.62 52.3799 141.79 58.8899 143.07C60.9199 143.47 62.9799 143.75 65.0399 144.03C66.2099 144.19 67.3899 144.24 68.5699 144.34C69.0899 144.38 69.5999 144.43 70.1199 144.48C72.0199 144.48 73.9199 144.48 75.8199 144.48C75.9099 144.46 75.9899 144.42 76.0799 144.41C77.5599 144.31 79.0499 144.3 80.5199 144.1C82.9999 143.77 85.4799 143.4 87.9299 142.9C96.7899 141.06 105 137.64 112.55 132.66C123.07 125.73 131.24 116.67 137.06 105.49C140.51 98.85 142.85 91.84 144.11 84.47C144.38 82.88 144.57 81.28 144.77 79.68C144.86 78.92 144.88 78.15 144.93 77.39C144.98 76.65 145.03 75.91 145.09 75.18C145.09 75.14 145.13 75.1 145.15 75.06C145.15 73.26 145.15 71.45 145.15 69.65C145.1 69.23 145.04 68.84 145.01 68.46ZM105.54 62.27C105.36 64.23 104.95 66.13 104.14 67.93C102.53 71.51 99.7499 73.68 95.9999 74.67C95.8699 74.71 95.7299 74.75 95.5099 74.81C95.6899 74.91 95.7999 74.97 95.9099 75.03C97.8599 76.1 99.6699 77.36 101.12 79.08C102.95 81.26 103.89 83.76 103.9 86.62C103.92 90.82 102.67 94.65 100.49 98.18C98.2399 101.83 94.8999 103.96 90.7399 104.82C89.6699 105.04 88.5799 105.19 87.4999 105.26C86.1299 105.35 84.7399 105.35 83.3599 105.33C82.5499 105.32 81.7399 105.2 80.9299 105.11C79.7899 104.98 78.6499 104.85 77.5199 104.68C76.7299 104.57 75.9599 104.39 75.1499 104.24C74.0699 108.55 72.9999 112.84 71.9299 117.16C69.3199 116.51 66.7499 115.87 64.1399 115.22C65.1999 110.96 66.2599 106.74 67.3199 102.47C65.2599 101.94 63.2099 101.4 61.1099 100.86C60.0499 105.12 58.9799 109.38 57.9199 113.66C55.3099 113.01 52.7399 112.37 50.1299 111.72C51.1999 107.4 52.2699 103.11 53.3599 98.74C48.1299 97.42 42.9199 96.11 37.6799 94.79C37.7299 94.66 37.7699 94.54 37.8199 94.42C38.9999 91.69 40.1899 88.96 41.3699 86.22C41.4899 85.94 41.6099 85.89 41.8999 85.96C43.5699 86.4 45.2499 86.83 46.9299 87.23C47.4699 87.36 47.9999 87.5 48.5899 87.37C49.7799 87.1 50.5199 86.36 50.7999 85.24C52.1099 80.08 53.3899 74.92 54.6799 69.76C56.2499 63.47 57.8399 57.18 59.3599 50.88C59.8299 48.93 59.1799 47.17 57.1799 46.29C56.0599 45.8 54.8299 45.53 53.6399 45.2C52.5199 44.9 51.3799 44.66 50.2099 44.38C50.8999 41.62 51.5799 38.87 52.2799 36.06C57.5099 37.37 62.7299 38.68 67.9899 39.99C69.0699 35.68 70.1299 31.43 71.1899 27.15C73.7799 27.8 76.3499 28.44 78.9799 29.09C77.9399 33.28 76.8999 37.44 75.8499 41.64C77.9399 42.13 79.9899 42.61 82.0899 43.11C83.1199 38.97 84.1599 34.83 85.1999 30.65C87.8099 31.3 90.3799 31.94 92.9899 32.59C91.9299 36.86 90.8699 41.1 89.7999 45.4C89.9599 45.46 90.1099 45.52 90.2599 45.57C93.1399 46.6 95.9399 47.79 98.5199 49.46C100.44 50.71 102.16 52.18 103.47 54.08C105.17 56.56 105.81 59.31 105.54 62.27Z" fill="#F6921A"/>
<path d="M98.5199 49.47C95.9399 47.8 93.1399 46.61 90.2599 45.58C90.1099 45.53 89.9599 45.47 89.7999 45.41C90.8699 41.12 91.9299 36.87 92.9899 32.6C90.3799 31.95 87.8099 31.31 85.1999 30.66C84.1599 34.84 83.1199 38.98 82.0899 43.12C79.9899 42.63 77.9299 42.14 75.8499 41.65C76.8999 37.46 77.9299 33.29 78.9799 29.1C76.3499 28.44 73.7799 27.8 71.1899 27.16C70.1199 31.44 69.0599 35.69 67.9899 40C62.7299 38.68 57.5199 37.38 52.2799 36.07C51.5799 38.88 50.8999 41.63 50.2099 44.39C51.3799 44.67 52.5199 44.9101 53.6399 45.2101C54.8299 45.5301 56.0499 45.8 57.1799 46.3C59.1799 47.18 59.8299 48.93 59.3599 50.89C57.8399 57.19 56.2399 63.4801 54.6799 69.7701C53.3899 74.93 52.1199 80.1 50.7999 85.25C50.5099 86.37 49.7699 87.11 48.5899 87.38C48.0099 87.51 47.4699 87.37 46.9299 87.24C45.2499 86.84 43.5699 86.41 41.8999 85.97C41.6099 85.89 41.4899 85.95 41.3699 86.23C40.1999 88.97 39.0099 91.7 37.8199 94.43C37.7699 94.55 37.7299 94.66 37.6799 94.8C42.9199 96.12 48.1299 97.43 53.3599 98.75C52.2799 103.11 51.2099 107.41 50.1299 111.73C52.7399 112.38 55.3099 113.02 57.9199 113.67C58.9899 109.39 60.0499 105.13 61.1099 100.87C63.2099 101.42 65.2599 101.95 67.3199 102.48C66.2599 106.75 65.1999 110.97 64.1399 115.23C66.7499 115.88 69.3199 116.52 71.9299 117.17C73.0099 112.84 74.0799 108.56 75.1499 104.25C75.9599 104.4 76.7399 104.58 77.5199 104.69C78.6499 104.86 79.7899 104.99 80.9299 105.12C81.7399 105.21 82.5499 105.33 83.3599 105.34C84.7399 105.36 86.1199 105.36 87.4999 105.27C88.5899 105.2 89.6799 105.05 90.7399 104.83C94.8999 103.97 98.2499 101.84 100.49 98.19C102.67 94.66 103.92 90.83 103.9 86.63C103.88 83.77 102.95 81.2701 101.12 79.0901C99.6699 77.3701 97.8699 76.11 95.9099 75.04C95.7999 74.98 95.6899 74.92 95.5099 74.82C95.7299 74.76 95.8699 74.72 95.9999 74.68C99.7499 73.69 102.53 71.52 104.14 67.94C104.95 66.14 105.37 64.2401 105.54 62.2801C105.81 59.3201 105.17 56.57 103.47 54.1C102.16 52.19 100.44 50.72 98.5199 49.47ZM82.6899 93.43C80.9899 93.97 79.2299 94.13 77.4599 94.04C76.1099 93.98 74.7599 93.85 73.4199 93.67C70.5399 93.28 67.7299 92.54 64.9299 91.8C64.4999 91.69 64.0699 91.5801 63.6099 91.4601C65.0399 85.7201 66.4599 80.03 67.8899 74.3C69.0599 74.57 70.1999 74.8301 71.3399 75.0901C74.1399 75.7401 76.9099 76.47 79.5699 77.55C81.5499 78.36 83.4399 79.31 85.0599 80.74C86.3699 81.9 87.3699 83.26 87.6999 85.01C88.4599 88.85 86.3999 92.26 82.6899 93.43ZM90.2399 61.82C89.9599 64.95 88.3899 67.55 84.3199 68.3C83.1899 68.51 82.0099 68.6 80.8599 68.58C79.7499 68.57 78.6499 68.38 77.5499 68.22C74.9799 67.84 72.4899 67.13 69.9899 66.48C69.9699 66.47 69.9499 66.46 69.8699 66.41C71.1499 61.26 72.4399 56.1 73.7399 50.88C75.1899 51.22 76.5999 51.52 77.9999 51.87C80.3699 52.45 82.6999 53.1601 84.8899 54.2701C86.3699 55.0201 87.7399 55.92 88.7999 57.23C89.8899 58.56 90.3999 60.1 90.2399 61.82Z" fill="#FEFEFE"/>
<path d="M85.0799 80.75C83.4599 79.32 81.5699 78.37 79.5899 77.56C76.9299 76.47 74.1499 75.74 71.3599 75.1C70.2199 74.84 69.0699 74.58 67.9099 74.31C66.4799 80.03 65.0599 85.73 63.6299 91.47C64.0899 91.59 64.5199 91.7 64.9499 91.81C67.7599 92.55 70.5599 93.29 73.4399 93.68C74.7799 93.86 76.1299 93.98 77.4799 94.05C79.2499 94.13 80.9999 93.97 82.7099 93.44C86.4199 92.27 88.4699 88.85 87.7399 85.03C87.3899 83.27 86.3899 81.91 85.0799 80.75Z" fill="#F6931A"/>
<path d="M84.8899 54.26C82.6999 53.15 80.3699 52.45 77.9999 51.86C76.5999 51.52 75.1999 51.21 73.7399 50.87C72.4399 56.08 71.1499 61.25 69.8699 66.4C69.9399 66.44 69.9599 66.46 69.9899 66.47C72.4899 67.13 74.9799 67.84 77.5499 68.21C78.6499 68.37 79.7599 68.56 80.8599 68.57C82.0099 68.58 83.1899 68.49 84.3199 68.29C88.3899 67.55 89.9599 64.94 90.2399 61.81C90.3899 60.09 89.8899 58.56 88.7999 57.22C87.7399 55.92 86.3699 55.01 84.8899 54.26Z" fill="#F6931A"/>
</svg>
