<svg width="146" height="145" viewBox="0 0 146 145" fill="none" xmlns="http://www.w3.org/2000/svg">
<path d="M144.91 68.55C144.85 67.71 144.84 66.86 144.76 66.01C144.67 65.01 144.55 64.02 144.4 63.03C144.18 61.52 143.98 60.01 143.7 58.52C142.49 52.21 140.45 46.17 137.59 40.42C131.66 28.49 123.11 18.9 111.92 11.67C104.21 6.68998 95.83 3.33 86.82 1.56C85.28 1.26 83.7301 1.00999 82.1701 0.799988C81.0801 0.649988 79.9801 0.57999 78.8801 0.48999C77.8201 0.39999 76.76 0.33001 75.7 0.26001C75.66 0.26001 75.62 0.220012 75.58 0.200012C73.8 0.200012 72.02 0.200012 70.24 0.200012C69.71 0.240012 69.1701 0.280017 68.6401 0.330017C66.4301 0.570017 64.2101 0.760007 62.0101 1.07001C55.4501 1.98001 49.1801 3.91 43.1501 6.63C36.2101 9.76 29.9201 13.91 24.2901 19.05C18.2301 24.58 13.26 30.96 9.37004 38.18C5.87004 44.68 3.4301 51.56 2.0501 58.81C1.7901 60.19 1.55001 61.57 1.34001 62.95C1.20001 63.91 1.1201 64.88 1.0501 65.85C0.960097 67.05 0.860004 68.26 0.830004 69.47C0.780004 71.31 0.690077 73.15 0.780077 74.98C0.880077 77.2 1.09003 79.42 1.36003 81.63C1.85003 85.68 2.7301 89.65 3.9301 93.55C6.8901 103.16 11.6301 111.78 18.1801 119.41C24.3601 126.61 31.6901 132.37 40.1501 136.69C46.0701 139.71 52.2901 141.88 58.8001 143.16C60.8301 143.56 62.89 143.84 64.95 144.11C66.12 144.27 67.3 144.32 68.48 144.42C69 144.46 69.5101 144.51 70.0301 144.56C71.9301 144.56 73.83 144.56 75.73 144.56C75.82 144.54 75.9 144.5 75.99 144.49C77.47 144.39 78.9601 144.38 80.4301 144.18C82.9101 143.85 85.39 143.48 87.84 142.98C96.7 141.14 104.91 137.72 112.46 132.74C122.98 125.81 131.15 116.75 136.97 105.57C140.42 98.94 142.76 91.92 144.02 84.55C144.29 82.96 144.48 81.36 144.68 79.76C144.77 79 144.79 78.23 144.84 77.47C144.89 76.73 144.94 75.99 145 75.26C145 75.22 145.04 75.18 145.06 75.14C145.06 73.34 145.06 71.53 145.06 69.73C145 69.32 144.93 68.94 144.91 68.55ZM105.44 62.37C105.26 64.33 104.85 66.23 104.04 68.03C102.43 71.61 99.6501 73.78 95.9001 74.77C95.7701 74.81 95.6301 74.85 95.4101 74.91C95.5901 75.01 95.7001 75.07 95.8101 75.13C97.7601 76.2 99.5701 77.46 101.02 79.18C102.85 81.36 103.79 83.86 103.8 86.72C103.82 90.92 102.57 94.75 100.39 98.28C98.1401 101.93 94.8001 104.06 90.6401 104.92C89.5701 105.14 88.4801 105.29 87.4001 105.36C86.0301 105.45 84.6401 105.45 83.2601 105.43C82.4501 105.42 81.64 105.3 80.83 105.21C79.69 105.08 78.5501 104.95 77.4201 104.78C76.6301 104.67 75.8601 104.49 75.0501 104.34C73.9701 108.65 72.9 112.94 71.83 117.27C69.22 116.62 66.6501 115.98 64.0401 115.33C65.1001 111.07 66.16 106.85 67.22 102.58C65.16 102.05 63.1101 101.51 61.0101 100.97C59.9501 105.23 58.88 109.49 57.82 113.77C55.21 113.12 52.6401 112.48 50.0301 111.83C51.1001 107.51 52.1701 103.22 53.2601 98.85C48.0301 97.53 42.82 96.22 37.58 94.9C37.63 94.77 37.67 94.65 37.72 94.53C38.9 91.8 40.0901 89.07 41.2701 86.33C41.3901 86.05 41.5101 86 41.8001 86.07C43.4701 86.51 45.15 86.94 46.83 87.34C47.37 87.47 47.9 87.61 48.49 87.48C49.68 87.21 50.42 86.47 50.7 85.35C52.01 80.19 53.29 75.03 54.58 69.87C56.15 63.58 57.7401 57.29 59.2601 50.99C59.7301 49.04 59.08 47.29 57.08 46.4C55.96 45.91 54.7301 45.64 53.5401 45.31C52.4201 45.01 51.28 44.77 50.11 44.49C50.8 41.73 51.4801 38.98 52.1801 36.17C57.4101 37.48 62.6301 38.79 67.8901 40.1C68.9701 35.79 70.03 31.54 71.09 27.26C73.68 27.91 76.2501 28.55 78.8801 29.2C77.8401 33.39 76.8 37.55 75.75 41.75C77.84 42.24 79.89 42.72 81.99 43.22C83.02 39.08 84.06 34.94 85.1 30.76C87.71 31.41 90.2801 32.05 92.8901 32.7C91.8301 36.97 90.77 41.21 89.7 45.5C89.86 45.56 90.0101 45.62 90.1601 45.67C93.0401 46.7 95.8401 47.89 98.4201 49.56C100.34 50.81 102.06 52.28 103.37 54.18C105.07 56.66 105.7 59.4 105.44 62.37Z" fill="#F2C41E"/>
<path d="M98.42 49.57C95.84 47.9 93.04 46.71 90.16 45.68C90.01 45.63 89.86 45.57 89.7 45.51C90.77 41.22 91.83 36.97 92.89 32.71C90.28 32.06 87.71 31.42 85.1 30.77C84.06 34.95 83.02 39.09 81.99 43.23C79.89 42.74 77.83 42.25 75.75 41.76C76.8 37.57 77.83 33.4 78.88 29.21C76.25 28.55 73.68 27.91 71.09 27.27C70.02 31.55 68.96 35.8 67.89 40.11C62.63 38.79 57.4201 37.49 52.1801 36.18C51.4801 38.99 50.8 41.74 50.11 44.5C51.28 44.78 52.42 45.02 53.54 45.32C54.73 45.64 55.95 45.91 57.08 46.41C59.08 47.29 59.73 49.04 59.26 51C57.74 57.3 56.14 63.59 54.58 69.88C53.29 75.04 52.02 80.21 50.7 85.36C50.41 86.48 49.67 87.22 48.49 87.49C47.91 87.62 47.37 87.48 46.83 87.35C45.15 86.95 43.47 86.52 41.8 86.08C41.51 86 41.39 86.06 41.27 86.34C40.1 89.08 38.91 91.81 37.72 94.54C37.67 94.66 37.63 94.77 37.58 94.91C42.82 96.23 48.03 97.54 53.26 98.86C52.18 103.22 51.11 107.52 50.03 111.84C52.64 112.49 55.2099 113.13 57.8199 113.78C58.8899 109.5 59.95 105.24 61.01 100.98C63.11 101.53 65.16 102.06 67.22 102.59C66.16 106.86 65.1 111.08 64.04 115.34C66.65 115.99 69.22 116.63 71.83 117.28C72.91 112.95 73.98 108.67 75.05 104.35C75.86 104.5 76.64 104.68 77.42 104.79C78.55 104.96 79.69 105.09 80.83 105.22C81.64 105.31 82.45 105.43 83.26 105.44C84.64 105.46 86.02 105.46 87.4 105.37C88.49 105.3 89.58 105.15 90.64 104.93C94.8 104.07 98.15 101.94 100.39 98.29C102.57 94.76 103.82 90.93 103.8 86.73C103.78 83.87 102.85 81.37 101.02 79.19C99.57 77.47 97.7701 76.21 95.8101 75.14C95.7001 75.08 95.59 75.02 95.41 74.92C95.63 74.86 95.77 74.82 95.9 74.78C99.65 73.79 102.43 71.62 104.04 68.04C104.85 66.24 105.27 64.34 105.44 62.38C105.71 59.42 105.07 56.67 103.37 54.2C102.06 52.28 100.34 50.81 98.42 49.57ZM82.59 93.53C80.89 94.07 79.13 94.23 77.36 94.14C76.01 94.08 74.6599 93.95 73.3199 93.77C70.4399 93.38 67.63 92.64 64.83 91.9C64.4 91.79 63.97 91.68 63.51 91.56C64.94 85.82 66.36 80.13 67.79 74.4C68.96 74.67 70.1 74.93 71.24 75.19C74.04 75.84 76.81 76.57 79.47 77.65C81.45 78.46 83.34 79.41 84.96 80.84C86.27 82 87.27 83.36 87.6 85.11C88.35 88.94 86.3 92.36 82.59 93.53ZM90.14 61.91C89.86 65.04 88.29 67.64 84.22 68.39C83.09 68.6 81.91 68.69 80.76 68.67C79.65 68.66 78.55 68.47 77.45 68.31C74.88 67.93 72.39 67.22 69.89 66.57C69.87 66.56 69.85 66.55 69.78 66.5C71.06 61.35 72.35 56.19 73.65 50.97C75.1 51.31 76.51 51.61 77.91 51.96C80.28 52.54 82.61 53.25 84.8 54.36C86.28 55.11 87.65 56.01 88.71 57.32C89.79 58.66 90.29 60.19 90.14 61.91Z" fill="#2C2B28"/>
<path d="M84.98 80.85C83.36 79.42 81.47 78.47 79.49 77.66C76.83 76.57 74.05 75.84 71.26 75.2C70.12 74.94 68.9701 74.68 67.8101 74.41C66.3801 80.13 64.96 85.83 63.53 91.57C63.99 91.69 64.42 91.8 64.85 91.91C67.66 92.65 70.46 93.39 73.34 93.78C74.68 93.96 76.03 94.08 77.38 94.15C79.15 94.23 80.9 94.07 82.61 93.54C86.32 92.37 88.37 88.95 87.64 85.13C87.29 83.36 86.29 82 84.98 80.85Z" fill="#F2C41E"/>
<path d="M84.79 54.36C82.6 53.25 80.27 52.55 77.9 51.96C76.5 51.62 75.1 51.31 73.64 50.97C72.34 56.18 71.05 61.35 69.77 66.5C69.84 66.54 69.86 66.56 69.88 66.57C72.38 67.23 74.8699 67.94 77.4399 68.31C78.5399 68.47 79.65 68.66 80.75 68.67C81.9 68.68 83.08 68.59 84.21 68.39C88.28 67.65 89.85 65.04 90.13 61.91C90.28 60.19 89.7799 58.66 88.6899 57.32C87.6399 56.01 86.27 55.11 84.79 54.36Z" fill="#F2C41E"/>
</svg>
