<svg width="147" height="147" viewBox="0 0 147 147" fill="none" xmlns="http://www.w3.org/2000/svg">
<path d="M73.37 0.77002C33.04 0.77002 0.349976 33.46 0.349976 73.79C0.349976 114.12 33.04 146.81 73.37 146.81C113.7 146.81 146.39 114.12 146.39 73.79C146.39 33.46 113.7 0.77002 73.37 0.77002ZM73.37 144.16C34.5 144.16 3 112.65 3 73.79C3 34.92 34.51 3.42004 73.37 3.42004C112.24 3.42004 143.74 34.93 143.74 73.79C143.74 112.66 112.24 144.16 73.37 144.16Z" fill="#000052"/>
<path d="M73.37 3.42004C34.5 3.42004 3 34.93 3 73.79C3 112.66 34.51 144.16 73.37 144.16C112.24 144.16 143.74 112.65 143.74 73.79C143.74 34.93 112.24 3.42004 73.37 3.42004ZM73.37 140.08C36.76 140.08 7.07996 110.4 7.07996 73.79C7.07996 37.18 36.76 7.5 73.37 7.5C109.98 7.5 139.66 37.18 139.66 73.79C139.66 110.4 109.98 140.08 73.37 140.08Z" fill="#FEFEFE"/>
<path d="M73.37 7.5C36.76 7.5 7.07996 37.18 7.07996 73.79C7.07996 110.4 36.76 140.08 73.37 140.08C109.98 140.08 139.66 110.4 139.66 73.79C139.66 37.18 109.98 7.5 73.37 7.5ZM73.37 119.86C47.93 119.86 27.3101 99.24 27.3101 73.79C27.3101 48.35 47.93 27.73 73.37 27.73C98.81 27.73 119.43 48.35 119.43 73.79C119.44 99.23 98.81 119.86 73.37 119.86Z" fill="#FFAA00"/>
<path d="M73.37 27.73C47.93 27.73 27.3101 48.35 27.3101 73.79C27.3101 99.23 47.93 119.86 73.37 119.86C98.81 119.86 119.43 99.24 119.43 73.79C119.44 48.35 98.81 27.73 73.37 27.73ZM73.37 115.72C50.22 115.72 31.4399 96.95 31.4399 73.79C31.4399 50.64 50.21 31.86 73.37 31.86C96.52 31.86 115.3 50.63 115.3 73.79C115.3 96.95 96.53 115.72 73.37 115.72Z" fill="#FEFEFE"/>
<path d="M73.37 31.87C50.22 31.87 31.4399 50.64 31.4399 73.8C31.4399 96.95 50.21 115.73 73.37 115.73C96.52 115.73 115.3 96.96 115.3 73.8C115.3 50.64 96.53 31.87 73.37 31.87ZM79.22 91.54C76.56 91.83 73.89 91.79 71.22 91.76C70.81 91.76 70.41 91.75 69.97 91.75C69.97 86.43 69.96 81.15 69.96 75.85C71.06 75.83 72.14 75.8 73.22 75.79C75.86 75.74 78.5 75.77 81.12 76.14C83.06 76.41 84.97 76.83 86.73 77.72C88.16 78.44 89.35 79.41 90.04 80.87C91.55 84.04 90.4801 87.47 87.4301 89.3C86.0301 90.14 84.5 90.66 82.9 90.98C81.69 91.22 80.45 91.4 79.22 91.54ZM83.28 67.02C82.31 67.45 81.29 67.78 80.26 68.02C79.27 68.25 78.24 68.3301 77.22 68.4301C74.84 68.6601 72.46 68.5901 70.08 68.5601C70.06 68.5601 70.04 68.55 69.96 68.53C69.95 63.76 69.9499 58.97 69.9399 54.14C71.3099 54.12 72.64 54.0799 73.96 54.0699C76.21 54.0599 78.45 54.17 80.65 54.66C82.14 54.99 83.56 55.48 84.8 56.39C86.07 57.32 86.86 58.55 87.11 60.08C87.56 62.86 86.74 65.48 83.28 67.02ZM75.65 34.75C75.65 38.56 75.65 41.77 75.66 45.55C73.67 45.58 71.73 45.61 69.76 45.63C69.76 41.83 69.75 38.62 69.75 34.84C70.95 34.73 72.16 34.67 73.38 34.67C74.14 34.68 74.89 34.71 75.65 34.75ZM34.26 73.79C34.26 55.98 46.16 40.95 62.45 36.23C62.45 39.52 62.46 42.48 62.46 45.92C57.47 45.92 51.75 45.92 46.78 45.92C46.78 48.53 46.79 51.07 46.79 53.63C47.89 53.62 48.96 53.58 50.03 53.6C51.17 53.62 53 53.59 54.11 53.78C56.09 54.11 57.06 55.5 57.08 57.3C57.13 63.13 57.11 68.96 57.12 74.79C57.12 79.57 57.14 84.36 57.12 89.14C57.12 90.18 56.62 90.99 55.62 91.48C55.13 91.72 54.62 91.71 54.11 91.72C52.52 91.74 50.25 91.73 48.66 91.71C48.38 91.71 48.29 91.78 48.24 92.05C47.8 94.69 47.35 97.34 46.91 99.98C46.89 100.09 46.88 100.2 46.86 100.33C51.83 100.34 57.55 100.35 62.52 100.35C62.53 103.86 62.53 107.78 62.54 111.38C46.21 106.68 34.26 91.63 34.26 73.79ZM69.8199 112.74C69.8199 108.83 69.8101 104.37 69.8101 100.5C71.8101 100.52 73.76 100.53 75.72 100.55C75.72 104.45 75.73 108.92 75.73 112.83C74.95 112.88 74.17 112.9 73.37 112.9C72.17 112.9 70.9899 112.84 69.8199 112.74ZM82.95 111.72C82.95 108.03 82.9399 103.97 82.9399 100.38C83.6999 100.34 85.88 100.32 86.61 100.25C90.19 99.9 93.89 99.02 97.15 97.49C100.68 95.83 103.18 93.2399 104.37 89.5699C106.4 83.3299 103.64 74.37 96.86 72.03C96.17 71.79 95.46 71.62 94.74 71.52C97.87 69.83 100.23 65.85 100.87 62.38C101.19 60.63 101.14 58.88 100.86 57.14C100.07 52.19 96.24 49.14 91.75 47.47C89.5 46.63 85.62 46.14 83.33 45.92C83.18 45.91 83.03 45.89 82.88 45.87C82.88 42.32 82.87 39.28 82.87 35.86C99.88 40.11 112.48 55.48 112.48 73.8C112.48 92.09 99.92 107.44 82.95 111.72Z" fill="#000052"/>
<path d="M75.72 100.55C73.76 100.53 71.8101 100.52 69.8101 100.5C69.8101 104.37 69.8199 108.83 69.8199 112.74C70.9899 112.85 72.17 112.9 73.37 112.9C74.16 112.9 74.95 112.87 75.73 112.83C75.72 108.92 75.72 104.45 75.72 100.55Z" fill="#FEFEFE"/>
<path d="M62.52 100.35C57.55 100.34 51.83 100.33 46.86 100.33C46.88 100.2 46.89 100.09 46.91 99.98C47.36 97.34 47.81 94.7 48.24 92.05C48.28 91.78 48.38 91.71 48.66 91.71C50.25 91.73 52.52 91.74 54.11 91.72C54.62 91.71 55.13 91.72 55.62 91.48C56.62 90.99 57.11 90.18 57.12 89.14C57.14 84.36 57.13 79.57 57.12 74.79C57.11 68.96 57.13 63.13 57.08 57.3C57.06 55.49 56.09 54.11 54.11 53.78C53 53.59 51.17 53.63 50.03 53.6C48.96 53.58 47.89 53.62 46.79 53.63C46.79 51.07 46.78 48.53 46.78 45.92C51.75 45.92 57.47 45.92 62.46 45.92C62.46 42.48 62.45 39.52 62.45 36.23C46.16 40.96 34.26 55.98 34.26 73.79C34.26 91.63 46.2 106.68 62.53 111.38C62.53 107.78 62.52 103.86 62.52 100.35Z" fill="#FEFEFE"/>
<path d="M69.75 45.64C71.72 45.61 73.66 45.5801 75.65 45.5601C75.65 41.7801 75.65 38.56 75.64 34.76C74.89 34.72 74.13 34.6899 73.36 34.6899C72.14 34.6899 70.93 34.75 69.73 34.86C69.75 38.62 69.75 41.84 69.75 45.64Z" fill="#FEFEFE"/>
<path d="M90.05 80.87C89.36 79.41 88.16 78.4399 86.74 77.7199C84.98 76.8299 83.07 76.41 81.13 76.14C78.51 75.77 75.87 75.74 73.23 75.79C72.15 75.81 71.07 75.8299 69.97 75.8499C69.97 81.1499 69.98 86.43 69.98 91.75C70.42 91.75 70.82 91.76 71.23 91.76C73.9 91.79 76.57 91.83 79.23 91.54C80.46 91.4 81.7 91.2199 82.92 90.9799C84.52 90.6699 86.05 90.14 87.45 89.3C90.48 87.47 91.55 84.04 90.05 80.87Z" fill="#FEFEFE"/>
<path d="M84.8 56.38C83.56 55.47 82.14 54.98 80.65 54.65C78.45 54.16 76.21 54.0501 73.96 54.0601C72.64 54.0701 71.3099 54.1 69.9399 54.13C69.9499 58.96 69.95 63.75 69.96 68.52C70.04 68.54 70.06 68.55 70.08 68.55C72.46 68.58 74.84 68.65 77.22 68.42C78.24 68.32 79.27 68.24 80.26 68.01C81.29 67.77 82.32 67.44 83.28 67.01C86.75 65.47 87.56 62.8499 87.11 60.0699C86.86 58.5399 86.07 57.31 84.8 56.38Z" fill="#FEFEFE"/>
<path d="M82.87 35.85C82.87 39.27 82.88 42.32 82.88 45.86C83.03 45.88 83.18 45.89 83.33 45.91C85.62 46.13 89.5 46.62 91.75 47.46C96.25 49.13 100.07 52.17 100.86 57.13C101.14 58.87 101.19 60.62 100.87 62.37C100.23 65.84 97.86 69.82 94.74 71.51C95.46 71.61 96.17 71.78 96.86 72.02C103.65 74.36 106.4 83.3201 104.37 89.5601C103.18 93.2301 100.67 95.82 97.15 97.48C93.89 99.01 90.19 99.89 86.61 100.24C85.88 100.31 83.6999 100.33 82.9399 100.37C82.9399 103.96 82.95 108.02 82.95 111.71C99.92 107.44 112.48 92.08 112.48 73.79C112.48 55.47 99.88 40.09 82.87 35.85Z" fill="#FEFEFE"/>
</svg>
