<svg width="175" height="175" viewBox="0 0 175 175" fill="none" xmlns="http://www.w3.org/2000/svg">
<path d="M157.554 104.035C166.715 65.2397 142.691 26.3635 103.896 17.2028C65.1002 8.04209 26.224 32.0658 17.0633 70.8614C7.90254 109.657 31.9263 148.533 70.7219 157.694C109.517 166.855 148.394 142.831 157.554 104.035Z" fill="#F4C41B"/>
<path d="M106.041 55.1024L55.241 106.365L68.1968 119.204L118.997 67.9416L106.041 55.1024Z" fill="white"/>
<path d="M125.326 74.2127L74.5251 125.475L87.481 138.314L138.282 87.0519L125.326 74.2127Z" fill="white"/>
<path d="M86.745 35.9812L55.0625 67.9518L68.0184 80.7909L99.7009 48.8203L86.745 35.9812Z" fill="white"/>
<path d="M48.7864 74.2914L35.9473 87.2473L48.9031 100.086L61.7423 87.1306L48.7864 74.2914Z" fill="white"/>
</svg>
