<svg width="207" height="206" viewBox="0 0 207 206" fill="none" xmlns="http://www.w3.org/2000/svg">
<path d="M154.82 154.513C183.254 126.08 183.254 79.9795 154.82 51.5457C126.386 23.1119 80.286 23.1118 51.8522 51.5456C23.4184 79.9794 23.4183 126.08 51.8521 154.514C80.2859 182.947 126.386 182.947 154.82 154.513Z" fill="#49D7DD"/>
<path d="M141.78 112.2C137.77 101.11 122.09 92.84 103.37 92.84C84.6501 92.84 68.97 101.11 64.96 112.2H63.96V117.8C63.96 131.58 81.6001 142.76 103.37 142.76C125.14 142.76 142.78 131.59 142.78 117.8V112.2H141.78Z" fill="#FEDC90"/>
<path d="M123.71 90.83L127.11 72.61C127.94 68.18 124.9 63.96 120.43 63.35C115.66 62.69 111.41 66.42 111.46 71.24L111.62 87.8C108.96 87.44 106.2 87.25 103.36 87.25C100.5 87.25 97.72 87.44 95.03 87.81L95.1899 71.24C95.2399 66.42 90.99 62.69 86.22 63.35C81.76 63.97 78.72 68.19 79.54 72.61L82.9399 90.86C71.5499 95.23 63.9399 103.16 63.9399 112.21C63.9399 125.99 81.5801 137.17 103.35 137.17C125.12 137.17 142.76 126 142.76 112.21C142.78 103.13 135.14 95.2 123.71 90.83Z" fill="#D1884F"/>
<path d="M118.1 117.04C120.453 117.04 122.36 114.081 122.36 110.43C122.36 106.779 120.453 103.82 118.1 103.82C115.747 103.82 113.84 106.779 113.84 110.43C113.84 114.081 115.747 117.04 118.1 117.04Z" fill="#633001"/>
<path d="M88.1599 117.04C90.5126 117.04 92.4199 114.081 92.4199 110.43C92.4199 106.779 90.5126 103.82 88.1599 103.82C85.8072 103.82 83.8999 106.779 83.8999 110.43C83.8999 114.081 85.8072 117.04 88.1599 117.04Z" fill="#633001"/>
<path d="M140.06 97.45C136.91 93.99 132.63 91.01 127.58 88.73L130.47 73.23C130.76 71.68 130.73 70.13 130.37 68.6C130.03 67.13 129.41 65.77 128.53 64.54C127.65 63.31 126.55 62.29 125.26 61.51C123.93 60.69 122.46 60.17 120.9 59.95C120.38 59.88 119.86 59.84 119.34 59.84C117.82 59.84 116.33 60.14 114.93 60.74C113.57 61.32 112.36 62.14 111.32 63.19C110.28 64.24 109.47 65.45 108.91 66.8C108.32 68.21 108.03 69.71 108.05 71.25L108.17 83.99C106.58 83.87 104.97 83.82 103.37 83.82C101.74 83.82 100.11 83.88 98.5 84L98.6201 71.26C98.6301 69.72 98.35 68.22 97.76 66.81C97.2 65.46 96.3901 64.24 95.3501 63.2C94.3101 62.15 93.09 61.32 91.74 60.75C90.34 60.15 88.8501 59.85 87.3301 59.85C86.8101 59.85 86.28 59.89 85.77 59.96C84.21 60.18 82.7399 60.7 81.4099 61.52C80.1299 62.31 79.0299 63.33 78.1399 64.55C77.2599 65.78 76.64 67.14 76.3 68.61C75.95 70.13 75.91 71.69 76.2 73.24L79.1001 88.77C74.0701 91.05 69.8099 94.03 66.6699 97.48C62.6699 101.88 60.55 106.98 60.55 112.21V117.81C60.55 119.86 60.87 121.91 61.52 123.89C62.13 125.79 63.05 127.65 64.23 129.42C66.48 132.79 69.6599 135.79 73.6899 138.34C77.5999 140.82 82.1299 142.76 87.1599 144.1C92.3099 145.48 97.7699 146.18 103.38 146.18C108.99 146.18 114.46 145.48 119.6 144.1C124.63 142.75 129.16 140.82 133.07 138.34C137.1 135.79 140.28 132.79 142.53 129.42C143.71 127.65 144.62 125.79 145.24 123.89C145.88 121.91 146.21 119.86 146.21 117.81V112.21C146.2 106.96 144.07 101.86 140.06 97.45Z" fill="#633001"/>
<path d="M141.78 112.2C137.77 101.11 122.09 92.84 103.37 92.84C84.6501 92.84 68.97 101.11 64.96 112.2H63.96V117.8C63.96 131.58 81.6001 142.76 103.37 142.76C125.14 142.76 142.78 131.59 142.78 117.8V112.2H141.78Z" fill="#FEDC90"/>
<path d="M123.71 90.83L127.11 72.61C127.94 68.18 124.9 63.96 120.43 63.35C115.66 62.69 111.41 66.42 111.46 71.24L111.62 87.8C108.96 87.44 106.2 87.25 103.36 87.25C100.5 87.25 97.72 87.44 95.03 87.81L95.1899 71.24C95.2399 66.42 90.99 62.69 86.22 63.35C81.76 63.97 78.72 68.19 79.54 72.61L82.9399 90.86C71.5499 95.23 63.9399 103.16 63.9399 112.21C63.9399 125.99 81.5801 137.17 103.35 137.17C125.12 137.17 142.76 126 142.76 112.21C142.78 103.13 135.14 95.2 123.71 90.83Z" fill="#D1884F"/>
<path d="M118.1 117.04C120.453 117.04 122.36 114.081 122.36 110.43C122.36 106.779 120.453 103.82 118.1 103.82C115.747 103.82 113.84 106.779 113.84 110.43C113.84 114.081 115.747 117.04 118.1 117.04Z" fill="#633001"/>
<path d="M88.1599 117.04C90.5126 117.04 92.4199 114.081 92.4199 110.43C92.4199 106.779 90.5126 103.82 88.1599 103.82C85.8072 103.82 83.8999 106.779 83.8999 110.43C83.8999 114.081 85.8072 117.04 88.1599 117.04Z" fill="#633001"/>
</svg>
