<svg width="167" height="167" viewBox="0 0 167 167" fill="none" xmlns="http://www.w3.org/2000/svg">
<path d="M95.0219 154.884C134.442 148.486 161.213 111.343 154.815 71.9224C148.417 32.5019 111.274 5.73154 71.8538 12.1292C32.4333 18.5269 5.66318 55.67 12.0609 95.0905C18.4586 134.511 55.6014 161.281 95.0219 154.884Z" fill="white"/>
<path d="M83.3899 142.55C50.7999 142.55 24.3701 116.13 24.3701 83.53C24.3701 50.94 50.7899 24.51 83.3899 24.51C97.7599 24.51 110.93 29.6501 121.16 38.1801L129.65 27.95C117.11 17.5 100.98 11.22 83.3899 11.22C43.4499 11.22 11.0801 43.6 11.0801 83.53C11.0801 123.47 43.4599 155.84 83.3899 155.84C100.82 155.84 116.82 149.67 129.31 139.39L120.92 129.07C110.71 137.49 97.6399 142.55 83.3899 142.55Z" fill="url(#paint0_linear_1_3512)"/>
<path d="M155.7 83.53C155.7 61.19 145.57 41.21 129.65 27.95L121.16 38.1801C134.14 49.0101 142.4 65.3 142.4 83.53C142.4 101.87 134.03 118.26 120.91 129.08L129.3 139.4C145.42 126.14 155.7 106.03 155.7 83.53Z" fill="#EEEFF4"/>
<path d="M109.19 76.09H103.38C100.26 67.89 92.33 62.0699 83.04 62.0699H64.71V76.09H58.8101V80.84H64.71V86.3199H58.8101V91.0699H64.71V105.58H83.04C92.51 105.58 100.57 99.5199 103.56 91.0699H109.19V86.3199H104.65C104.74 85.4999 104.79 84.6699 104.79 83.8199C104.79 82.8099 104.72 81.81 104.59 80.84H109.19V76.09ZM69.46 66.8199H83.04C87.58 66.8199 91.8501 68.59 95.0601 71.8C96.3401 73.08 97.3899 74.52 98.1899 76.09H69.46V66.8199ZM95.0601 95.85C91.8501 99.06 87.58 100.83 83.04 100.83H69.46V91.08H98.4299C97.5999 92.83 96.4701 94.44 95.0601 95.85ZM100.04 83.8199C100.04 84.6599 99.9801 85.4999 99.8601 86.3199H69.46V80.84H99.78C99.96 81.82 100.04 82.8099 100.04 83.8199Z" fill="#223B4F"/>
<defs>
<linearGradient id="paint0_linear_1_3512" x1="70.3616" y1="152.319" x2="70.3616" y2="13.7886" gradientUnits="userSpaceOnUse">
<stop stop-color="#9387FF"/>
<stop offset="0.5058" stop-color="#5FAFD0"/>
<stop offset="1" stop-color="#24D8A3"/>
</linearGradient>
</defs>
</svg>
