<svg width="146" height="145" viewBox="0 0 146 145" fill="none" xmlns="http://www.w3.org/2000/svg">
<path d="M73.01 144.94C112.791 144.94 145.04 112.691 145.04 72.91C145.04 33.129 112.791 0.880005 73.01 0.880005C33.2289 0.880005 0.97998 33.129 0.97998 72.91C0.97998 112.691 33.2289 144.94 73.01 144.94Z" fill="url(#paint0_linear_1_3439)"/>
<path d="M107.54 98.35L101.93 94.22C100.94 93.49 99.56 93.67 98.77 94.61C95.89 98.03 92.34 100.88 88.39 102.93C83.57 105.42 78.36 106.68 72.9 106.68C63.88 106.68 55.4 103.17 49.02 96.79C42.64 90.41 39.13 81.93 39.13 72.91C39.13 63.89 42.64 55.41 49.02 49.03C55.4 42.65 63.88 39.14 72.9 39.14C79.98 39.14 86.69 41.27 92.4 45.33C93.31 45.98 94.56 45.87 95.36 45.08L100.41 40.1C101.44 39.09 101.3 37.3901 100.12 36.5601C96.47 33.9901 92.01 31.55 88.13 30.17C83.25 28.43 78.13 27.55 72.91 27.55C66.79 27.55 60.85 28.75 55.25 31.12C49.85 33.4 45 36.67 40.83 40.84C36.67 45 33.4 49.85 31.11 55.26C28.74 60.86 27.54 66.8 27.54 72.92C27.54 79.04 28.74 84.98 31.11 90.58C33.4 95.98 36.67 100.83 40.83 105C44.99 109.16 49.84 112.43 55.25 114.72C60.85 117.09 66.79 118.29 72.91 118.29C80.14 118.29 87.34 116.54 93.73 113.24C99.18 110.42 104.06 106.46 107.97 101.72C108.8 100.66 108.61 99.14 107.54 98.35Z" fill="white"/>
<path d="M109.13 45.76C102.96 45.76 97.95 50.7799 97.95 56.9399C97.95 63.1099 102.97 68.12 109.13 68.12C115.29 68.12 120.31 63.0999 120.31 56.9399C120.31 50.7699 115.3 45.76 109.13 45.76ZM109.13 60.3199C107.26 60.3199 105.75 58.8099 105.75 56.9399C105.75 55.0699 107.26 53.5601 109.13 53.5601C111 53.5601 112.51 55.0699 112.51 56.9399C112.51 58.8099 111 60.3199 109.13 60.3199Z" fill="white"/>
<defs>
<linearGradient id="paint0_linear_1_3439" x1="21.7068" y1="128.262" x2="120.348" y2="21.833" gradientUnits="userSpaceOnUse">
<stop stop-color="#F47C29"/>
<stop offset="1" stop-color="#F8CA66"/>
</linearGradient>
</defs>
</svg>
