<svg width="145" height="146" viewBox="0 0 145 146" fill="none" xmlns="http://www.w3.org/2000/svg">
<path d="M72.31 145.07C112.174 145.07 144.49 112.754 144.49 72.89C144.49 33.0261 112.174 0.709961 72.31 0.709961C32.4461 0.709961 0.130005 33.0261 0.130005 72.89C0.130005 112.754 32.4461 145.07 72.31 145.07Z" fill="#FBCC5C"/>
<path d="M113.5 50.05C111.75 45.92 109.25 42.21 106.07 39.03C102.89 35.85 99.18 33.35 95.05 31.6C90.77 29.79 86.23 28.87 81.55 28.87C76.87 28.87 72.33 29.79 68.05 31.6C63.92 33.35 60.21 35.85 57.03 39.03C53.85 42.21 51.35 45.92 49.6 50.05C49.56 50.14 49.52 50.24 49.49 50.33C45.39 52.07 41.71 54.56 38.54 57.73C35.36 60.91 32.86 64.62 31.11 68.75C29.3 73.03 28.38 77.57 28.38 82.25C28.38 86.93 29.3 91.47 31.11 95.75C32.86 99.88 35.36 103.59 38.54 106.77C41.72 109.95 45.43 112.45 49.56 114.2C53.84 116.01 58.38 116.93 63.06 116.93C67.74 116.93 72.28 116.01 76.56 114.2C80.69 112.45 84.4 109.95 87.58 106.77C90.76 103.59 93.26 99.88 95.01 95.75C95.05 95.66 95.09 95.56 95.12 95.47C99.22 93.73 102.9 91.2399 106.07 88.0699C109.25 84.8899 111.75 81.18 113.5 77.05C115.31 72.77 116.23 68.23 116.23 63.55C116.23 58.86 115.31 54.32 113.5 50.05ZM88.37 88.77C86.18 89.36 83.89 89.66 81.56 89.66C74.58 89.66 68.02 86.94 63.09 82.01C58.16 77.08 55.44 70.52 55.44 63.54C55.44 61.31 55.72 59.11 56.26 57.01C58.45 56.42 60.74 56.12 63.07 56.12C70.05 56.12 76.61 58.84 81.54 63.77C86.47 68.7 89.19 75.26 89.19 82.24C89.19 84.47 88.91 86.66 88.37 88.77ZM63.07 108.36C56.09 108.36 49.53 105.64 44.6 100.71C39.67 95.78 36.95 89.22 36.95 82.24C36.95 75.26 39.67 68.7 44.6 63.77C45.34 63.03 46.13 62.3299 46.94 61.6899C46.91 62.3099 46.89 62.93 46.89 63.55C46.89 68.23 47.81 72.77 49.62 77.05C51.37 81.18 53.87 84.8899 57.05 88.0699C60.23 91.2499 63.94 93.75 68.07 95.5C72.35 97.31 76.89 98.23 81.57 98.23C82.32 98.23 83.07 98.2 83.81 98.16C83.12 99.06 82.37 99.92 81.55 100.73C76.61 105.64 70.05 108.36 63.07 108.36ZM100.03 82.01C99.29 82.75 98.5 83.45 97.69 84.09C97.72 83.47 97.74 82.85 97.74 82.23C97.74 77.55 96.82 73.01 95.01 68.73C93.26 64.6 90.76 60.89 87.58 57.71C84.4 54.53 80.69 52.03 76.56 50.28C72.28 48.47 67.74 47.55 63.06 47.55C62.31 47.55 61.56 47.58 60.82 47.62C61.51 46.72 62.26 45.86 63.08 45.05C68.01 40.12 74.57 37.4 81.55 37.4C88.53 37.4 95.09 40.12 100.02 45.05C104.95 49.98 107.67 56.54 107.67 63.52C107.68 70.52 104.96 77.08 100.03 82.01Z" fill="white"/>
</svg>
