<svg width="2214" height="1052" viewBox="0 0 2214 1052" fill="none" xmlns="http://www.w3.org/2000/svg">
<path d="M2141.25 1038.37C2108.67 1038.37 2082.26 1011.96 2082.26 979.38C2082.26 946.8 2108.67 920.39 2141.25 920.39C2155.47 920.39 2168.52 925.42 2178.7 933.81L2187.04 923.59C2174.58 913.35 2158.63 907.2 2141.24 907.2C2101.38 907.2 2069.06 939.52 2069.06 979.38C2069.06 1019.24 2101.38 1051.56 2141.24 1051.56C2158.72 1051.56 2174.75 1045.34 2187.24 1035L2178.67 1024.97C2168.5 1033.34 2155.46 1038.37 2141.25 1038.37Z" fill="url(#paint0_linear_1_3225)"/>
<path d="M2213.43 979.38C2213.43 956.9 2203.16 936.83 2187.05 923.59L2178.71 933.81C2191.86 944.63 2200.24 961.03 2200.24 979.38C2200.24 997.75 2191.85 1014.15 2178.69 1024.97L2187.26 1035C2203.24 1021.76 2213.43 1001.76 2213.43 979.38Z" fill="#ECF0F3"/>
<path d="M2178.71 933.81C2168.52 925.43 2155.48 920.39 2141.26 920.39C2108.68 920.39 2082.27 946.8 2082.27 979.38C2082.27 1011.96 2108.68 1038.37 2141.26 1038.37C2155.47 1038.37 2168.51 1033.34 2178.69 1024.97C2191.85 1014.15 2200.24 997.75 2200.24 979.38C2200.24 961.02 2191.85 944.63 2178.71 933.81Z" fill="white"/>
<path d="M2124.21 979.69C2126.41 978.69 2128.61 977.69 2130.81 976.69C2132.58 975.89 2134.35 975.08 2136.12 974.28C2138.02 973.42 2139.91 972.56 2141.81 971.69C2141.85 971.67 2141.9 971.66 2141.95 971.64C2141.96 971.58 2141.97 971.51 2141.97 971.45C2141.97 964.25 2141.97 957.06 2141.97 949.86C2141.97 949.8 2141.96 949.73 2141.96 949.67C2141.93 949.71 2141.89 949.75 2141.87 949.79C2140.79 951.58 2139.71 953.38 2138.62 955.18C2135.98 959.55 2133.35 963.93 2130.71 968.3C2128.82 971.44 2126.92 974.59 2125.03 977.73C2124.81 978.09 2124.6 978.45 2124.38 978.81C2124.16 979.17 2123.95 979.53 2123.73 979.89C2123.89 979.82 2124.05 979.76 2124.21 979.69Z" fill="#283A48"/>
<path d="M2158.42 976.95C2157.45 975.33 2156.47 973.72 2155.5 972.1C2154.55 970.52 2153.6 968.95 2152.65 967.37C2151.68 965.75 2150.7 964.13 2149.73 962.52C2148.77 960.93 2147.82 959.34 2146.86 957.75C2145.92 956.19 2144.98 954.64 2144.04 953.08C2143.38 951.98 2142.72 950.88 2142.06 949.78C2142.05 949.77 2142.05 949.76 2142.04 949.75C2142.01 949.72 2141.98 949.69 2141.95 949.66C2141.96 949.72 2141.96 949.79 2141.96 949.85C2141.96 957.05 2141.96 964.24 2141.96 971.44C2141.96 971.5 2141.95 971.57 2141.94 971.63C2141.95 971.64 2141.95 971.64 2141.96 971.65C2142.05 971.69 2142.15 971.72 2142.24 971.76C2142.33 971.8 2142.43 971.83 2142.52 971.87C2143.42 972.28 2144.32 972.69 2145.21 973.1C2146.4 973.64 2147.58 974.18 2148.77 974.72C2149.83 975.2 2150.9 975.69 2151.96 976.17C2153.02 976.65 2154.09 977.14 2155.15 977.62C2156.21 978.1 2157.28 978.59 2158.34 979.07C2158.91 979.33 2159.47 979.58 2160.04 979.84C2160.08 979.86 2160.12 979.86 2160.16 979.88C2160.14 979.84 2160.12 979.79 2160.09 979.75C2159.55 978.83 2158.99 977.89 2158.42 976.95Z" fill="#657687"/>
<path d="M2160.06 979.85C2159.49 979.59 2158.93 979.34 2158.36 979.08C2157.3 978.6 2156.23 978.11 2155.17 977.63C2154.11 977.15 2153.04 976.66 2151.98 976.18C2150.92 975.7 2149.85 975.21 2148.79 974.73C2147.6 974.19 2146.42 973.65 2145.23 973.11C2144.33 972.7 2143.44 972.29 2142.54 971.88C2142.45 971.84 2142.35 971.8 2142.26 971.77C2142.17 971.73 2142.07 971.7 2141.98 971.66C2141.97 971.65 2141.97 971.65 2141.96 971.64C2141.91 971.66 2141.87 971.67 2141.82 971.69C2139.92 972.55 2138.03 973.41 2136.13 974.28C2134.36 975.08 2132.59 975.89 2130.82 976.69C2128.62 977.69 2126.42 978.69 2124.22 979.69C2124.06 979.76 2123.89 979.82 2123.73 979.89C2123.73 979.9 2123.74 979.9 2123.74 979.91C2123.75 979.93 2123.75 979.96 2123.77 979.96C2124.42 980.35 2125.08 980.74 2125.74 981.13C2131.1 984.3 2136.47 987.47 2141.83 990.64C2141.87 990.67 2141.93 990.68 2141.97 990.7C2141.98 990.7 2141.99 990.71 2142 990.7C2142.6 990.35 2143.2 990 2143.8 989.64C2144.65 989.14 2145.5 988.63 2146.35 988.12C2147.41 987.49 2148.47 986.88 2149.53 986.25C2150.42 985.73 2151.3 985.19 2152.19 984.67C2153.39 983.96 2154.59 983.26 2155.78 982.56C2156.53 982.12 2157.28 981.66 2158.03 981.22C2158.74 980.8 2159.46 980.38 2160.17 979.96C2160.18 979.95 2160.19 979.92 2160.19 979.9C2160.14 979.88 2160.1 979.87 2160.06 979.85Z" fill="#AAB8C1"/>
<path d="M2141.96 994.4C2141.96 994.32 2141.96 994.25 2141.97 994.17C2141.85 994.11 2141.73 994.05 2141.62 993.98C2139.11 992.5 2136.61 991.02 2134.1 989.54C2131.02 987.72 2127.94 985.9 2124.86 984.08C2124.5 983.87 2124.13 983.66 2123.77 983.45C2123.8 983.5 2123.82 983.56 2123.85 983.61C2125.66 986.16 2127.46 988.71 2129.27 991.25C2133.34 996.98 2137.4 1002.71 2141.47 1008.44C2141.62 1008.66 2141.79 1008.87 2141.95 1009.08C2141.96 1009.01 2141.97 1008.93 2141.97 1008.86C2141.96 1004.04 2141.96 999.22 2141.96 994.4Z" fill="#283A48"/>
<path d="M2160.12 983.46C2160.09 983.48 2160.05 983.49 2160.02 983.51C2155.75 986.03 2151.48 988.55 2147.21 991.08C2145.46 992.11 2143.72 993.14 2141.97 994.17C2141.97 994.25 2141.96 994.32 2141.96 994.4C2141.96 999.22 2141.96 1004.04 2141.96 1008.86C2141.96 1008.93 2141.95 1009.01 2141.94 1009.08C2141.94 1009.09 2141.94 1009.09 2141.95 1009.1C2141.96 1009.09 2141.98 1009.09 2141.99 1009.08C2142.01 1009.05 2142.03 1009.02 2142.06 1008.99C2147.28 1001.63 2152.51 994.28 2157.73 986.92C2158.54 985.78 2159.34 984.64 2160.15 983.5C2160.14 983.48 2160.13 983.47 2160.12 983.46Z" fill="#657687"/>
<path d="M2123.74 983.43L2123.75 983.44C2123.75 983.43 2123.75 983.43 2123.74 983.43C2123.75 983.43 2123.75 983.43 2123.74 983.43Z" fill="#8C8C8C"/>
<path d="M2160.12 983.46C2160.13 983.47 2160.14 983.48 2160.15 983.48C2160.15 983.47 2160.15 983.45 2160.15 983.44C2160.14 983.45 2160.13 983.46 2160.12 983.46Z" fill="#343434"/>
<defs>
<linearGradient id="paint0_linear_1_3225" x1="2128.16" y1="1045.6" x2="2128.16" y2="905.922" gradientUnits="userSpaceOnUse">
<stop stop-color="#9388FE"/>
<stop offset="1" stop-color="#26D4A1"/>
</linearGradient>
</defs>
</svg>
