<svg width="145" height="145" viewBox="0 0 145 145" fill="none" xmlns="http://www.w3.org/2000/svg">
<path d="M72.52 144.22C112.18 144.22 144.33 112.07 144.33 72.41C144.33 32.7505 112.18 0.599976 72.52 0.599976C32.8605 0.599976 0.709961 32.7505 0.709961 72.41C0.709961 112.07 32.8605 144.22 72.52 144.22Z" fill="#CD0124"/>
<path d="M108.35 35.25C106.2 35.25 104.33 36.4399 103.36 38.1899H41.6399C40.6599 36.4599 38.8099 35.29 36.6799 35.29C33.5299 35.29 30.98 37.84 30.98 40.99C30.98 44.14 33.5299 46.6899 36.6799 46.6899C36.8899 46.6899 37.1001 46.68 37.3101 46.65L50.45 75.3101C49.81 76.2301 49.4299 77.3599 49.4299 78.5699C49.4299 81.5199 51.67 83.95 54.54 84.24L68.6899 115.1C67.6199 116.14 66.95 117.59 66.95 119.19C66.95 122.34 69.4999 124.89 72.6499 124.89C75.7999 124.89 78.3501 122.34 78.3501 119.19C78.3501 117.61 77.7099 116.18 76.6699 115.15L90.79 84.27C93.89 84.22 96.3899 81.6899 96.3899 78.5699C96.3899 77.1799 95.8901 75.91 95.0601 74.92L108 46.64C108.12 46.65 108.24 46.65 108.36 46.65C111.51 46.65 114.06 44.1 114.06 40.95C114.06 37.8 111.5 35.25 108.35 35.25ZM90.6899 72.87C89.2199 72.87 87.8801 73.43 86.8701 74.34L76.28 66.6L103.3 46.78L91.3501 72.9C91.1301 72.89 90.9099 72.87 90.6899 72.87ZM58.78 74.21C57.79 73.38 56.5101 72.88 55.1201 72.88C54.7401 72.88 54.37 72.92 54.01 72.99L41.99 46.78L69.1399 66.62L58.78 74.21ZM43.1699 42.41H102.15L72.71 64L43.1699 42.41ZM72.6499 113.5C72.6299 113.5 72.6101 113.5 72.5901 113.5L58.6399 83.0601C59.9699 82.0201 60.8301 80.3899 60.8301 78.5699C60.8301 78.3599 60.82 78.16 60.8 77.96L72.73 69.21L85.02 78.1899C85.01 78.3099 85.01 78.4401 85.01 78.5601C85.01 80.2201 85.7201 81.72 86.8601 82.76L72.8 113.49C72.74 113.5 72.6899 113.5 72.6499 113.5Z" fill="white"/>
</svg>
