<svg width="205" height="205" viewBox="0 0 205 205" fill="none" xmlns="http://www.w3.org/2000/svg">
<path d="M153.682 153.238C181.869 125.051 181.869 79.349 153.682 51.1612C125.494 22.9735 79.7924 22.9736 51.6046 51.1614C23.4168 79.3492 23.4168 125.05 51.6046 153.238C79.7924 181.426 125.494 181.426 153.682 153.238Z" fill="#F4F4F4"/>
<path d="M73.53 66.7499C78.18 71.3799 82.83 76.0098 87.48 80.6398C91.68 84.8298 95.8798 89.0098 100.09 93.1998C100.85 93.9598 101.62 94.6998 102.39 95.4498C102.44 95.5098 102.49 95.5798 102.54 95.6298C107.14 100.22 111.73 104.8 116.33 109.38C116.57 109.62 116.84 109.84 117.19 110.15C117.19 109.78 117.19 109.54 117.19 109.31C117.19 100.33 117.19 91.3598 117.2 82.3798C117.2 82.1298 117.28 81.8898 117.32 81.6398C122.2 86.5298 127.09 91.4099 131.97 96.2999C131.96 96.4799 131.95 96.66 131.95 96.84C131.95 111.21 131.95 125.58 131.95 139.95C131.95 140.15 131.96 140.35 131.97 140.55C130.8 139.41 129.62 138.27 128.47 137.12C124.8 133.47 121.13 129.82 117.46 126.17C112.94 121.67 108.42 117.17 103.9 112.68C103.63 112.41 103.34 112.17 103.06 111.92C102.94 111.78 102.84 111.63 102.71 111.51C98.03 106.84 93.3499 102.17 88.6699 97.4999C88.5699 97.3999 88.45 97.3198 88.28 97.1898C88.28 97.5098 88.28 97.7298 88.28 97.9398C88.28 106.96 88.28 115.97 88.28 124.99C88.28 125.24 88.2099 125.49 88.1699 125.73C83.2799 120.84 78.4 115.96 73.51 111.07C73.51 106.05 73.5 101.04 73.5 96.0199C73.5 86.2899 73.5 76.56 73.51 66.83C73.52 66.8 73.53 66.7799 73.53 66.7499Z" fill="#3CC589"/>
<path d="M73.51 66.83C73.51 76.56 73.5 86.2899 73.5 96.0199C73.5 101.04 73.51 106.05 73.51 111.07C68.61 111.07 63.7 111.07 58.8 111.08L58.77 111.1L58.74 111.08C58.74 110.82 58.75 110.56 58.75 110.3C58.75 96.0499 58.75 81.7999 58.75 67.5499C58.75 67.3099 58.75 67.0799 58.75 66.7999C58.94 66.7899 59.09 66.7599 59.25 66.7599C63.83 66.7599 68.4 66.7599 72.98 66.7599C73.16 66.7599 73.34 66.8 73.51 66.83Z" fill="#424242"/>
<path d="M131.98 140.54C131.97 140.34 131.96 140.14 131.96 139.94C131.96 125.57 131.96 111.2 131.96 96.83C131.96 96.65 131.97 96.4699 131.98 96.2899C132.2 96.2899 132.42 96.2899 132.64 96.2899C137.29 96.2799 141.94 96.2799 146.59 96.2699C146.6 96.4499 146.62 96.6299 146.62 96.8099C146.62 111.27 146.62 125.74 146.62 140.2C146.62 140.32 146.62 140.44 146.61 140.56C142.59 140.57 138.56 140.57 134.54 140.58C133.69 140.58 132.83 140.56 131.98 140.54Z" fill="#424242"/>
<path d="M58.8101 111.07C63.7101 111.07 68.62 111.07 73.52 111.06C78.41 115.95 83.2899 120.83 88.1799 125.72C88.3999 125.92 88.6201 126.11 88.8301 126.32C93.3701 130.86 97.92 135.4 102.46 139.94C102.62 140.1 102.83 140.21 103.02 140.35C102.86 140.42 102.7 140.56 102.54 140.56C99.66 140.57 96.7799 140.57 93.8999 140.57C92.1799 140.57 90.46 140.58 88.74 140.56C88.49 140.56 88.18 140.45 88.01 140.28C78.32 130.61 68.63 120.92 58.95 111.24C58.9 111.2 58.8501 111.13 58.8101 111.07Z" fill="black"/>
<path d="M103.02 140.36C102.83 140.22 102.62 140.11 102.46 139.95C97.91 135.41 93.3701 130.87 88.8301 126.33C88.6201 126.12 88.3899 125.93 88.1799 125.73C88.2199 125.48 88.29 125.23 88.29 124.99C88.3 115.97 88.29 106.96 88.29 97.9398C88.29 97.7198 88.29 97.4998 88.29 97.1898C88.46 97.3198 88.5799 97.3999 88.6799 97.4999C93.3599 102.17 98.0402 106.83 102.72 111.51C102.85 111.64 102.95 111.78 103.07 111.92C103.06 116.4 103.06 120.89 103.05 125.37C103.05 130.17 103.05 134.97 103.05 139.78C103.04 139.97 103.03 140.17 103.02 140.36Z" fill="#424242"/>
<path d="M146.59 96.27C141.94 96.28 137.29 96.28 132.64 96.29C132.42 96.29 132.2 96.29 131.98 96.29C127.1 91.4 122.21 86.5199 117.33 81.6299C116.59 80.9099 115.84 80.1899 115.11 79.4599C111.1 75.4499 107.09 71.4399 103.07 67.4299C102.9 67.2599 102.67 67.14 102.46 67C102.51 66.91 102.53 66.77 102.6 66.75C102.73 66.71 102.88 66.73 103.02 66.73C107.58 66.73 112.14 66.72 116.7 66.74C116.96 66.74 117.3 66.86 117.48 67.04C127.18 76.71 136.86 86.4001 146.54 96.0801C146.57 96.1101 146.59 96.1399 146.62 96.1699C146.6 96.2199 146.59 96.24 146.59 96.27Z" fill="black"/>
<path d="M102.46 67.0099C102.66 67.1499 102.89 67.2698 103.07 67.4398C107.09 71.4498 111.09 75.4598 115.11 79.4698C115.84 80.1998 116.59 80.9198 117.33 81.6398C117.29 81.8898 117.21 82.1298 117.21 82.3798C117.2 91.3598 117.2 100.33 117.2 109.31C117.2 109.54 117.2 109.78 117.2 110.15C116.85 109.84 116.58 109.63 116.34 109.38C111.74 104.8 107.14 100.21 102.55 95.6298C102.49 95.5698 102.45 95.5098 102.4 95.4498C102.4 92.2198 102.41 88.9799 102.41 85.7499C102.41 79.7399 102.41 73.7298 102.41 67.7198C102.41 67.4798 102.44 67.2499 102.46 67.0099Z" fill="#424242"/>
</svg>
