<svg width="146" height="145" viewBox="0 0 146 145" fill="none" xmlns="http://www.w3.org/2000/svg">
<path d="M73.0001 144.7C112.864 144.7 145.18 112.384 145.18 72.52C145.18 32.6561 112.864 0.339966 73.0001 0.339966C33.1362 0.339966 0.820068 32.6561 0.820068 72.52C0.820068 112.384 33.1362 144.7 73.0001 144.7Z" fill="#F4F4F4"/>
<path opacity="0.32" d="M106.07 89.3401C106.07 89.3401 102.79 78.6601 96.2701 74.3101L101.17 75.1399C101.17 75.1399 105 82.4101 106.07 89.3401Z" fill="black"/>
<path d="M72.9202 24.2801L71.9202 44.37C71.9202 44.37 96.5302 43.66 100.97 69.49L93.7802 70.2701C104.76 75.8601 106.41 91.3999 106.41 91.3999C124.47 80.7299 128.3 66.5401 128.3 66.5401L121.07 67.3201C120.71 63.2801 118.37 46.17 104.56 35.36C88.8102 23.04 72.9202 24.2801 72.9202 24.2801Z" fill="url(#paint0_linear_1_7536)"/>
<path opacity="0.32" d="M90.1402 39.45C90.1402 39.45 79.4602 42.73 75.1102 49.25L75.9402 44.35C75.9402 44.36 83.2102 40.53 90.1402 39.45Z" fill="black"/>
<path d="M25.0802 72.6001L45.1702 73.5901C45.1702 73.5901 44.4602 48.98 70.2902 44.54L71.0702 51.73C76.6602 40.75 92.2002 39.1 92.2002 39.1C81.5302 21.04 67.3402 17.21 67.3402 17.21L68.1202 24.4399C64.0802 24.7999 46.9702 27.14 36.1602 40.95C23.8402 56.72 25.0802 72.6001 25.0802 72.6001Z" fill="url(#paint1_linear_1_7536)"/>
<path opacity="0.32" d="M39.9302 55.52C39.9302 55.52 43.2102 66.2 49.7302 70.55L44.8302 69.72C44.8302 69.71 41.0002 62.45 39.9302 55.52Z" fill="black"/>
<path d="M73.0802 120.57L74.0702 100.48C74.0702 100.48 49.4602 101.19 45.0202 75.3601L52.2102 74.5801C41.2302 68.9901 39.5802 53.45 39.5802 53.45C21.5202 64.12 17.6902 78.3101 17.6902 78.3101L24.9202 77.53C25.2802 81.57 27.6202 98.68 41.4302 109.49C57.1902 121.81 73.0802 120.57 73.0802 120.57Z" fill="url(#paint2_linear_1_7536)"/>
<path opacity="0.32" d="M56.2502 105.59C56.2502 105.59 66.9302 102.31 71.2802 95.79L70.4502 100.69C70.4402 100.68 63.1802 104.51 56.2502 105.59Z" fill="black"/>
<path d="M106.41 91.3999C106.41 91.3999 105.53 83.0799 100.75 76.4199C99.4502 83.8499 94.5402 97.31 76.0902 100.49L75.3102 93.3C69.7202 104.28 54.1802 105.93 54.1802 105.93C64.8502 123.99 79.0402 127.82 79.0402 127.82L78.2602 120.59C82.3002 120.23 99.4102 117.89 110.22 104.08C117.52 94.7601 120.06 85.38 120.92 79.29C117.62 83.22 112.94 87.5399 106.41 91.3999Z" fill="url(#paint3_linear_1_7536)"/>
<defs>
<linearGradient id="paint0_linear_1_7536" x1="108.737" y1="91.6508" x2="101.279" y2="60.3696" gradientUnits="userSpaceOnUse">
<stop stop-color="#517BBE"/>
<stop offset="1" stop-color="#373F99"/>
</linearGradient>
<linearGradient id="paint1_linear_1_7536" x1="92.4504" y1="36.7878" x2="61.1691" y2="44.2456" gradientUnits="userSpaceOnUse">
<stop stop-color="#517BBE"/>
<stop offset="1" stop-color="#373F99"/>
</linearGradient>
<linearGradient id="paint2_linear_1_7536" x1="37.2609" y1="53.2053" x2="44.7184" y2="84.486" gradientUnits="userSpaceOnUse">
<stop stop-color="#517BBE"/>
<stop offset="1" stop-color="#373F99"/>
</linearGradient>
<linearGradient id="paint3_linear_1_7536" x1="54.4843" y1="110.557" x2="85.7651" y2="103.099" gradientUnits="userSpaceOnUse">
<stop stop-color="#517BBE"/>
<stop offset="1" stop-color="#373F99"/>
</linearGradient>
</defs>
</svg>
