<svg width="145" height="145" viewBox="0 0 145 145" fill="none" xmlns="http://www.w3.org/2000/svg">
<path d="M72.39 144.62C112.215 144.62 144.5 112.335 144.5 72.51C144.5 32.6848 112.215 0.400024 72.39 0.400024C32.5648 0.400024 0.280029 32.6848 0.280029 72.51C0.280029 112.335 32.5648 144.62 72.39 144.62Z" fill="#070A0F"/>
<path d="M102.14 97.46C102.14 96.91 102.14 96.51 102.14 96.11C102.14 87.53 102.11 78.95 102.16 70.37C102.18 67.66 100.99 65.7701 98.6201 64.6401C93.2901 62.0801 87.9201 59.58 82.5701 57.07C76.7701 54.34 70.9701 51.6001 65.1601 48.9001C64.5401 48.6101 64.3901 48.24 64.3901 47.62C64.4101 42.72 64.4001 37.8101 64.4001 32.9101C64.4001 30.4401 66.3001 28.89 68.7001 29.58C70.2501 30.03 71.7301 30.77 73.2101 31.44C81.8901 35.38 90.5601 39.3401 99.2301 43.2901C102.07 44.5801 104.91 45.8701 107.74 47.1801C110.05 48.2501 111.25 49.98 111.24 52.61C111.2 65.54 111.2 78.4701 111.25 91.4001C111.26 93.0901 110.68 94.04 109.1 94.63C106.97 95.41 104.91 96.38 102.82 97.26C102.67 97.32 102.5 97.35 102.14 97.46Z" fill="#00D394"/>
<path d="M84.66 105.65C84.66 105.2 84.66 104.89 84.66 104.58C84.66 100.14 84.58 95.71 84.69 91.27C84.76 88.51 83.49 86.7 81.15 85.56C76.72 83.42 72.25 81.35 67.79 79.26C61.35 76.25 54.9 73.2399 48.45 70.2399C47.96 70.0099 47.76 69.71 47.76 69.17C47.78 63.68 47.77 58.1999 47.78 52.7099C47.78 51.1999 48.96 49.9899 50.6 49.9799C51.53 49.9699 52.54 50.13 53.38 50.51C61.33 54.08 69.26 57.6999 77.18 61.3199C81.87 63.4599 86.57 65.6 91.24 67.78C93.35 68.76 94.53 70.41 94.53 72.81C94.53 81.77 94.52 90.7299 94.53 99.6899C94.53 100.8 94.13 101.6 93.08 102.05C90.46 103.19 87.85 104.35 85.24 105.5C85.11 105.55 84.97 105.57 84.66 105.65Z" fill="#00D394"/>
<path d="M77.11 100.16C77.11 102.2 77.11 104.24 77.11 106.29C77.11 109.14 74.8001 111 72.0101 110.24C70.6501 109.87 69.36 109.2 68.08 108.59C56.82 103.22 45.57 97.85 34.33 92.43C31.71 91.17 30.21 89.13 30.27 86.0601C30.34 82.15 30.2901 78.2399 30.2901 74.3299C30.2901 71.9299 32.1301 70.38 34.4801 71.02C35.9801 71.43 37.4101 72.14 38.8401 72.8C50.4301 78.08 62.0101 83.37 73.5901 88.66C75.9601 89.75 77.2601 91.5 77.1401 94.22C77.0401 96.19 77.11 98.17 77.11 100.16Z" fill="#00D394"/>
</svg>
