<svg width="173" height="173" viewBox="0 0 173 173" fill="none" xmlns="http://www.w3.org/2000/svg">
<path d="M156.929 102.591C165.691 63.7039 141.269 25.0764 102.382 16.3143C63.4948 7.55224 24.8675 31.9735 16.1054 70.8608C7.34331 109.748 31.7645 148.375 70.6518 157.137C109.539 165.9 148.167 141.478 156.929 102.591Z" fill="#F4F4F4"/>
<path d="M130.8 55.81C126.1 56.18 115.57 58.1899 97.3 69.1599V92.4399C89.48 98.2499 82.58 102.84 76.51 106.46V124.11C76.51 124.11 115.68 94.33 132.18 95.81C133.04 95.89 133.78 95.2 133.78 94.34V58.58C133.78 56.96 132.41 55.68 130.8 55.81Z" fill="url(#paint0_linear_1_7897)"/>
<path d="M97.29 69.1598V51.6298C97.29 51.6298 57.75 81.4098 41.09 79.9298C40.22 79.8498 39.48 80.5398 39.48 81.3998V117.16C39.48 118.77 40.86 120.05 42.49 119.93C47.25 119.56 57.94 117.54 76.51 106.46V83.2999C84.33 77.4199 91.24 72.7998 97.29 69.1598Z" fill="url(#paint1_linear_1_7897)"/>
<path d="M97.29 69.1598C91.23 72.7998 84.33 77.4199 76.5 83.2899V106.45C82.57 102.83 89.47 98.2498 97.29 92.4298V69.1598Z" fill="#194AAD"/>
<defs>
<linearGradient id="paint0_linear_1_7897" x1="95.5695" y1="127.589" x2="118.141" y2="63.7705" gradientUnits="userSpaceOnUse">
<stop stop-color="#2BBFDF"/>
<stop offset="1" stop-color="#194AAD"/>
</linearGradient>
<linearGradient id="paint1_linear_1_7897" x1="68.3886" y1="62.346" x2="68.3886" y2="109.55" gradientUnits="userSpaceOnUse">
<stop stop-color="#2BBFDF"/>
<stop offset="1" stop-color="#194AAD"/>
</linearGradient>
</defs>
</svg>
