<svg width="174" height="174" viewBox="0 0 174 174" fill="none" xmlns="http://www.w3.org/2000/svg">
<path d="M103.326 157.178C142.198 148.332 166.538 109.649 157.692 70.7782C148.847 31.9069 110.164 7.56641 71.2929 16.4122C32.4216 25.258 8.08109 63.9404 16.9269 102.812C25.7727 141.683 64.455 166.023 103.326 157.178Z" fill="#103F68"/>
<path d="M66.0801 76.01H107.79L103.68 58.7H70.1901L66.0801 76.01Z" fill="white"/>
<path d="M94.3901 88.08L97.85 78.58H76.1901L79.6401 88.08L78.5701 98.97H95.4601L94.3901 88.08Z" fill="white"/>
<path d="M76.19 99.62C76.25 99.56 76.19 88.08 76.19 88.08L66.08 81.62L54.73 90.2L70.17 117.27H76.19L83.71 110.48V106.9C83.7 106.9 76.13 99.69 76.19 99.62Z" fill="white"/>
<path d="M97.6901 88.08C97.6901 88.08 97.6301 99.56 97.6901 99.62C97.7501 99.68 90.17 106.89 90.17 106.89V110.47L97.6901 117.26H103.7L119.14 90.19L107.79 81.61L97.6901 88.08Z" fill="white"/>
<path d="M87.1201 37.18L44.54 61.82V111.66L87.11 136.34L130.06 111.62V61.93L87.1201 37.18ZM125.66 109.08L87.1201 131.26L48.9401 109.12V64.35L87.1201 42.25L125.66 64.47V109.08Z" fill="white"/>
</svg>
