<svg width="147" height="146" viewBox="0 0 147 146" fill="none" xmlns="http://www.w3.org/2000/svg">
<path d="M73.46 132.49C40.67 132.49 14.08 105.91 14.08 73.11C14.08 40.31 40.66 13.73 73.46 13.73C87.78 13.73 100.91 18.8 111.16 27.23L119.56 16.9399C107.02 6.62994 90.96 0.439941 73.46 0.439941C33.33 0.439941 0.800049 32.97 0.800049 73.1C0.800049 113.23 33.33 145.76 73.46 145.76C91.06 145.76 107.19 139.5 119.77 129.09L111.14 118.99C100.89 127.43 87.76 132.49 73.46 132.49Z" fill="url(#paint0_linear_1_7869)"/>
<path d="M146.11 73.12C146.11 50.5 135.77 30.29 119.55 16.96L111.15 27.25C124.39 38.14 132.83 54.65 132.83 73.12C132.83 91.61 124.38 108.12 111.13 119.01L119.76 129.11C135.86 115.78 146.11 95.64 146.11 73.12Z" fill="#ECF0F3"/>
<path d="M111.16 27.24C100.91 18.8 87.77 13.74 73.46 13.74C40.67 13.74 14.08 40.32 14.08 73.12C14.08 105.92 40.66 132.5 73.46 132.5C87.77 132.5 100.89 127.44 111.14 119.01C124.39 108.12 132.84 91.61 132.84 73.12C132.84 54.64 124.39 38.13 111.16 27.24Z" fill="white"/>
<path d="M78.97 64.09V57.59H94.5V47.16H52.42V57.59H67.95V64.09C55.34 64.67 45.84 67.19 45.84 70.21C45.84 73.23 55.33 75.75 67.95 76.33V98.22H78.98V76.33C91.59 75.75 101.09 73.23 101.09 70.21C101.09 67.19 91.58 64.66 78.97 64.09ZM78.97 74.49C77.2 74.57 75.35 74.61 73.46 74.61C71.57 74.61 69.72 74.57 67.95 74.49C56.7 74 48.3 72.0301 48.3 69.6801C48.3 67.3301 56.71 65.36 67.95 64.87V72.63C69.72 72.69 71.57 72.73 73.46 72.73C75.35 72.73 77.2 72.7 78.97 72.63V64.87C90.22 65.36 98.62 67.3301 98.62 69.6801C98.62 72.0301 90.22 73.99 78.97 74.49Z" fill="#283947"/>
<defs>
<linearGradient id="paint0_linear_1_7869" x1="60.2826" y1="139.772" x2="60.2826" y2="-0.827955" gradientUnits="userSpaceOnUse">
<stop stop-color="#9388FE"/>
<stop offset="1" stop-color="#26D4A1"/>
</linearGradient>
</defs>
</svg>
