<svg width="145" height="145" viewBox="0 0 145 145" fill="none" xmlns="http://www.w3.org/2000/svg">
<path d="M72.3701 144.85C112.234 144.85 144.55 112.534 144.55 72.6699C144.55 32.806 112.234 0.48999 72.3701 0.48999C32.5062 0.48999 0.189941 32.806 0.189941 72.6699C0.189941 112.534 32.5062 144.85 72.3701 144.85Z" fill="#3AB03E"/>
<path d="M97.0601 96.6101C90.6001 102.99 82.0001 106.5 72.8601 106.5C63.7101 106.5 55.1199 102.99 48.6599 96.6101C42.2199 90.2501 38.6699 81.8101 38.6699 72.8301C38.6699 63.8501 42.2199 55.4 48.6599 49.05C55.1199 42.67 63.7201 39.1599 72.8601 39.1599C82.0101 39.1599 90.6001 42.67 97.0601 49.05C101.07 53.01 103.96 57.78 105.57 62.98H117.45C116.85 60.33 116.02 57.74 114.94 55.22C112.63 49.84 109.34 45.0101 105.14 40.8701C100.95 36.7301 96.0601 33.48 90.6201 31.21C84.9901 28.86 79.0201 27.6699 72.8601 27.6699C66.7001 27.6699 60.7301 28.86 55.1001 31.21C49.6601 33.48 44.7801 36.7301 40.5801 40.8701C36.3801 45.0101 33.08 49.84 30.78 55.22C28.39 60.8 27.1799 66.7201 27.1799 72.8201C27.1799 78.9201 28.39 84.8499 30.78 90.4199C33.09 95.7999 36.3801 100.63 40.5801 104.77C44.7701 108.91 49.6601 112.16 55.1001 114.43C60.7301 116.78 66.7001 117.97 72.8601 117.97C79.0201 117.97 84.9901 116.78 90.6201 114.43C96.0601 112.16 100.94 108.91 105.14 104.77C109.34 100.63 112.64 95.7999 114.94 90.4199C116 87.9399 116.83 85.4 117.42 82.8H105.53C103.91 87.96 101.04 92.6801 97.0601 96.6101Z" fill="white"/>
<path d="M77.6201 89.22V76.22C81.1101 74.48 83.51 70.88 83.51 66.72C83.51 60.87 78.7599 56.1201 72.9099 56.1201C67.0599 56.1201 62.3101 60.87 62.3101 66.72C62.3101 70.88 64.71 74.48 68.2 76.22V89.22H77.6201Z" fill="white"/>
</svg>
