<svg width="205" height="205" viewBox="0 0 205 205" fill="none" xmlns="http://www.w3.org/2000/svg">
<path d="M153.654 153.922C181.842 125.734 181.842 80.0324 153.654 51.8447C125.466 23.6569 79.7648 23.6568 51.577 51.8446C23.3893 80.0324 23.3893 125.734 51.5771 153.922C79.7649 182.109 125.466 182.109 153.654 153.922Z" fill="#3A3A3A"/>
<path d="M70.3701 76.5301H64.8101V102.85H70.3701V76.5301Z" fill="#61D9A3"/>
<path d="M79.07 67.7701H73.51V76.5301H79.07V67.7701Z" fill="#61D9A3"/>
<path d="M70.3701 102.85H64.8101V128.9H70.3701V102.85Z" fill="#EEBF3D"/>
<path d="M79.04 128.89H73.48V138H79.04V128.89Z" fill="#EEBF3D"/>
<path d="M96.7401 138.01H91.1801V146.64H96.7401V138.01Z" fill="#FF5759"/>
<path d="M114.07 120.26H108.51V128.89H114.07V120.26Z" fill="#FF5759"/>
<path d="M122.9 111.63H117.34V120.26H122.9V111.63Z" fill="#FF5759"/>
<path d="M122.9 85.38H117.34V94.01H122.9V85.38Z" fill="#1484FA"/>
<path d="M114.07 76.5301H108.51V85.37H114.07V76.5301Z" fill="#1484FA"/>
<path d="M122.9 94.01H140.63V76.5301H131.76V67.7701H114.08V59.14H96.4901V67.7701H90.9301H79.0701V76.5301H73.5101H70.3801V102.85V128.89H73.4801H79.0401V138.01H91.1801H96.7401V146.64H114.08V138.01H131.73V129.15H140.57V111.63H122.9V120.26H117.34H114.08V128.89H108.51H96.7401V120.26H87.9501V85.38H96.4901V76.5301H108.51H114.08V85.38H117.34H122.9V94.01Z" fill="white"/>
<path d="M96.4901 59.14H90.9301V67.7701H96.4901V59.14Z" fill="#1484FA"/>
</svg>
