<svg width="205" height="205" viewBox="0 0 205 205" fill="none" xmlns="http://www.w3.org/2000/svg">
<path d="M153.372 153.561C181.56 125.373 181.56 79.6715 153.372 51.4837C125.185 23.2959 79.4832 23.2958 51.2954 51.4836C23.1077 79.6714 23.1076 125.373 51.2954 153.561C79.4831 181.749 125.185 181.748 153.372 153.561Z" fill="#F2F2F2"/>
<path d="M149.21 129.45C147.86 130.23 146.43 131.06 145 131.88C130.89 140 116.77 148.11 102.67 156.24C102.25 156.48 101.96 156.45 101.56 156.22C86.2701 147.42 70.9799 138.62 55.6899 129.83C55.2999 129.61 55.1699 129.36 55.1699 128.92C55.1799 111.28 55.1799 93.64 55.1699 76.01C55.1699 75.53 55.34 75.29 55.74 75.06C70.94 66.33 86.1301 57.5899 101.32 48.8399C101.92 48.4899 102.34 48.4799 102.96 48.8299C118.1 57.5699 133.26 66.28 148.42 74.99C148.95 75.29 149.17 75.61 149.17 76.25C149.15 93.46 149.15 110.66 149.16 127.87C149.13 128.37 149.18 128.86 149.21 129.45ZM58.03 127.03C66.93 127.03 75.7499 127.03 84.6899 127.03C75.8199 111.43 66.9999 95.92 58.1899 80.42C58.1399 80.44 58.09 80.47 58.03 80.49C58.03 95.99 58.03 111.48 58.03 127.03ZM119.27 77.99C128.24 93.3 137.15 108.5 146.06 123.7C146.23 123.42 146.26 123.18 146.26 122.94C146.26 108.23 146.26 93.52 146.27 78.8C146.27 78.13 146.11 77.91 145.41 77.92C136.98 77.94 128.55 77.9399 120.11 77.9399C119.88 77.9399 119.64 77.97 119.27 77.99ZM115.59 102.52C115.59 100.14 115.58 97.76 115.6 95.38C115.6 94.97 115.47 94.73 115.11 94.52C110.94 92.14 106.78 89.75 102.63 87.35C102.26 87.14 102 87.17 101.64 87.37C97.5099 89.73 93.38 92.08 89.24 94.42C88.85 94.64 88.72 94.8899 88.72 95.3299C88.74 100.07 88.74 104.8 88.72 109.54C88.72 109.99 88.86 110.23 89.25 110.45C93.38 112.8 97.5001 115.17 101.62 117.55C102.01 117.77 102.29 117.77 102.67 117.55C106.77 115.2 110.89 112.86 115.01 110.54C115.48 110.28 115.62 109.98 115.61 109.47C115.58 107.14 115.59 104.83 115.59 102.52ZM145.41 128.32C140.91 120.65 136.47 113.07 131.96 105.38C123.2 120.63 114.51 135.77 105.81 150.9C105.86 150.94 105.9 150.98 105.95 151.01C119.09 143.46 132.21 135.91 145.41 128.32ZM89.6399 74.99C107.28 74.99 124.78 74.99 142.29 74.99C142.3 74.95 142.31 74.9 142.32 74.86C129.16 67.29 116 59.72 102.78 52.11C98.38 59.76 94.0299 67.34 89.6399 74.99ZM62.1101 130.02C62.0901 130.07 62.07 130.12 62.05 130.17C75.14 137.7 88.2399 145.23 101.39 152.8C105.75 145.2 110.08 137.66 114.47 130.03C96.9 130.02 79.5101 130.02 62.1101 130.02ZM72.29 99.38C81.01 84.21 89.63 69.18 98.26 54.16C98.22 54.12 98.1799 54.08 98.1399 54.03C85.1799 61.48 72.23 68.93 59.23 76.41C63.58 84.06 67.89 91.64 72.29 99.38ZM115.53 127.04C115.53 122.54 115.53 118.1 115.53 113.53C107.62 118.03 99.82 122.47 92.01 126.91C92.03 126.95 92.0401 127 92.0601 127.04C99.8801 127.04 107.7 127.04 115.53 127.04ZM88.78 77.99C88.78 82.44 88.78 86.84 88.78 91.36C96.6 86.91 104.32 82.52 112.05 78.13C112.03 78.08 112.01 78.04 111.99 77.99C104.26 77.99 96.53 77.99 88.78 77.99ZM85.75 108.42C85.75 99.52 85.75 90.75 85.75 81.99C85.71 81.98 85.6699 81.9699 85.6299 81.9599C81.8399 88.5599 78.05 95.16 74.23 101.81C78.1 104.02 81.88 106.19 85.75 108.42ZM118.52 96.49C118.52 105.31 118.52 114 118.52 122.68C118.57 122.7 118.61 122.71 118.66 122.73C122.41 116.19 126.17 109.66 129.95 103.06C126.14 100.86 122.4 98.71 118.52 96.49ZM99.22 119.48C91.54 115.07 84.02 110.75 76.51 106.43C76.47 106.48 76.4299 106.53 76.3899 106.58C80.0899 113.08 83.79 119.59 87.51 126.14C91.42 123.92 95.25 121.74 99.22 119.48ZM105.07 85.42C112.72 89.81 120.2 94.11 127.68 98.41C127.72 98.37 127.76 98.32 127.8 98.28C124.03 91.85 120.26 85.4099 116.46 78.9399C112.67 81.0999 108.94 83.23 105.07 85.42Z" fill="#1240A0"/>
</svg>
