<svg width="145" height="145" viewBox="0 0 145 145" fill="none" xmlns="http://www.w3.org/2000/svg">
<path d="M72.8198 144.21C112.612 144.21 144.87 111.952 144.87 72.16C144.87 32.3679 112.612 0.109985 72.8198 0.109985C33.0277 0.109985 0.77002 32.3679 0.77002 72.16C0.77002 111.952 33.0277 144.21 72.8198 144.21Z" fill="#FAB01E"/>
<path d="M115.48 60.34H106.99C102.17 47.44 89.7499 38.26 75.1699 38.26H45.3799V60.34H35.8901V68.03H45.3799V76.57H35.8901V84.26H45.3799V106.18H75.1699C89.6899 106.18 102.07 97.07 106.93 84.26H115.48V76.57H108.85C109.03 75.15 109.13 73.69 109.13 72.22C109.13 70.8 109.04 69.4 108.87 68.03H115.48V60.34ZM53.0601 45.95H75.1699C82.1899 45.95 88.78 48.68 93.75 53.64C95.75 55.64 97.3801 57.9 98.6201 60.34H53.0698V45.95H53.0601ZM93.7402 90.79C88.7802 95.75 82.1802 98.48 75.1602 98.48H53.0498V84.25H98.52C97.3 86.64 95.6902 88.84 93.7402 90.79ZM101.43 72.22C101.43 73.69 101.31 75.15 101.07 76.57H53.0498V68.03H101.09C101.32 69.4 101.43 70.8 101.43 72.22Z" fill="white"/>
</svg>
