<svg width="204" height="204" viewBox="0 0 204 204" fill="none" xmlns="http://www.w3.org/2000/svg">
<path d="M152.682 152.556C180.749 124.49 180.749 78.9843 152.682 50.9176C124.616 22.8509 79.1105 22.851 51.0438 50.9177C22.977 78.9844 22.977 124.489 51.0437 152.556C79.1104 180.623 124.616 180.623 152.682 152.556Z" fill="#111856"/>
<path d="M70.15 134.48C70.15 134.48 81.8901 121.54 102.68 121.54C123.47 121.54 133.27 133.97 133.27 133.97L124.36 111.37L119.54 110.71C119.54 110.71 103.49 100.66 84.37 110.71C84.36 110.71 68.01 119.15 70.15 134.48Z" fill="url(#paint0_linear_1_7009)"/>
<path d="M64.54 136.65C63.13 136.65 61.69 136.29 60.38 135.53C56.4 133.23 55.05 128.14 57.35 124.16L76.11 91.7601C78.41 87.7801 83.5 86.4301 87.48 88.7301C91.46 91.0301 92.81 96.1202 90.51 100.1L71.75 132.5C70.21 135.16 67.41 136.65 64.54 136.65Z" fill="#235DF4"/>
<path d="M139.25 136.49C136.38 136.49 133.58 135 132.04 132.33L94.7801 67.8701C92.4801 63.8901 93.84 58.8 97.82 56.51C101.8 54.21 106.89 55.57 109.18 59.55L146.44 124.01C148.74 127.99 147.38 133.08 143.4 135.37C142.09 136.13 140.66 136.49 139.25 136.49Z" fill="#235DF4"/>
<defs>
<linearGradient id="paint0_linear_1_7009" x1="76.6508" y1="127.263" x2="90.7188" y2="124.706" gradientUnits="userSpaceOnUse">
<stop stop-color="#231873"/>
<stop offset="1" stop-color="#235DF4"/>
</linearGradient>
</defs>
</svg>
