<svg width="174" height="175" viewBox="0 0 174 175" fill="none" xmlns="http://www.w3.org/2000/svg">
<path d="M157.179 104.194C166.339 65.3984 142.316 26.522 103.52 17.3613C64.7246 8.20054 25.8483 32.2245 16.6875 71.02C7.52681 109.816 31.5507 148.692 70.3462 157.853C109.142 167.013 148.018 142.99 157.179 104.194Z" fill="#0081DE"/>
<path d="M56.6799 121.6C57.5399 116.84 58.39 112.12 59.24 107.36C59.37 107.36 59.4999 107.36 59.6299 107.36C68.3999 107.36 77.1699 107.36 85.9399 107.36C88.6699 107.36 91.4001 107.21 94.0901 106.68C96.7501 106.16 99.2901 105.33 101.61 103.89C104.13 102.32 106.02 100.2 107.37 97.57C108.51 95.36 109.21 93 109.82 90.6C110.51 87.87 111.08 85.12 111.36 82.32C111.6 79.88 111.5 77.46 110.7 75.12C109.87 72.69 108.27 70.91 106.02 69.69C104.23 68.73 102.29 68.2101 100.3 67.8901C98.08 67.5301 95.8401 67.4301 93.6001 67.4201C84.6101 67.4001 75.6199 67.3901 66.6399 67.3801C66.5099 67.3801 66.37 67.3801 66.21 67.3801C67.05 62.6301 67.89 57.9201 68.73 53.1801C68.85 53.1801 68.9701 53.1801 69.0801 53.1801C79.1301 53.1801 89.18 53.1801 99.23 53.1801C101.68 53.1801 104.13 53.29 106.56 53.57C109.91 53.96 113.17 54.6801 116.28 56.0301C119.54 57.4401 122.32 59.46 124.43 62.36C125.9 64.38 126.89 66.6301 127.53 69.0401C128.15 71.3701 128.42 73.7401 128.48 76.1501C128.58 80.0201 128.15 83.8401 127.49 87.6501C126.8 91.6401 125.8 95.55 124.29 99.32C122.71 103.29 120.64 106.97 117.85 110.22C114.67 113.93 110.82 116.73 106.31 118.64C103.53 119.82 100.65 120.6 97.6599 121.02C94.1299 121.51 90.58 121.6 87.02 121.61C77.04 121.62 67.0601 121.61 57.0801 121.61C56.9701 121.6 56.8599 121.6 56.6799 121.6Z" fill="#FEFEFE"/>
<path d="M44.23 94.5101C44.5 93.2801 44.73 92.1001 45.01 90.9301C45.4 89.3301 45.77 87.7301 46.26 86.1601C46.75 84.5601 47.63 83.17 48.98 82.12C50.16 81.2 51.52 80.68 52.98 80.48C53.86 80.36 54.7599 80.2801 55.6599 80.2801C65.9699 80.2701 76.2801 80.2701 86.6001 80.2701C86.7001 80.2701 86.8 80.2701 86.95 80.2701C86.81 80.9201 86.7 81.5401 86.55 82.1601C86.1 84.0701 85.6699 85.9901 85.1699 87.9001C84.7299 89.5701 83.9599 91.0701 82.6699 92.2601C81.3099 93.5101 79.6601 94.14 77.8501 94.35C76.9701 94.45 76.08 94.5101 75.2 94.5101C65.04 94.5201 54.89 94.5201 44.73 94.5201C44.58 94.5101 44.44 94.5101 44.23 94.5101Z" fill="#FDFEFE"/>
</svg>
