<svg width="175" height="174" viewBox="0 0 175 174" fill="none" xmlns="http://www.w3.org/2000/svg">
<path d="M158.044 103.751C167.205 64.9551 143.181 26.0786 104.386 16.9179C65.5903 7.75719 26.714 31.7811 17.5533 70.5767C8.39253 109.372 32.4164 148.248 71.2119 157.409C110.008 166.57 148.884 142.546 158.044 103.751Z" fill="#F2F2F2"/>
<path d="M80.54 108.09H73.1399C65.2199 108.09 58.8 101.67 58.8 93.7501C58.8 85.8301 65.2199 79.4101 73.1399 79.4101H93.3701L81.8701 67.9901L64.0801 50.22H44.1899L62.27 68.45C51.95 70.56 44.1899 79.6901 44.1899 90.6301V94.2601C44.1899 110.02 56.97 122.8 72.73 122.8H94.9102L80.54 108.09Z" fill="url(#paint0_linear_1_7381)"/>
<path d="M113.38 104.69C123.58 102.7 131.28 93.73 131.28 82.95V78.85C131.28 63.04 118.47 50.23 102.66 50.23H80.54L95.1602 65.09H102.83C110.75 65.09 117.17 71.5101 117.17 79.4301C117.17 87.3501 110.75 93.7701 102.83 93.7701H82.6001L111.37 122.82H131.81L113.38 104.69Z" fill="url(#paint1_linear_1_7381)"/>
<defs>
<linearGradient id="paint0_linear_1_7381" x1="49.2952" y1="114.013" x2="88.187" y2="61.2417" gradientUnits="userSpaceOnUse">
<stop stop-color="#2576F4"/>
<stop offset="1" stop-color="#3298DA"/>
</linearGradient>
<linearGradient id="paint1_linear_1_7381" x1="90.6665" y1="107.549" x2="125.578" y2="60.1794" gradientUnits="userSpaceOnUse">
<stop stop-color="#36BDB9"/>
<stop offset="1" stop-color="#39D8AA"/>
</linearGradient>
</defs>
</svg>
