<svg width="172" height="172" viewBox="0 0 172 172" fill="none" xmlns="http://www.w3.org/2000/svg">
<path d="M156.586 100.978C164.79 61.9672 139.816 23.692 100.805 15.488C61.7939 7.284 23.5188 32.2579 15.3148 71.2687C7.11085 110.28 32.0847 148.555 71.0955 156.759C110.106 164.963 148.382 139.989 156.586 100.978Z" fill="#F4F4F4"/>
<path d="M131.09 45.84C131.09 65.15 131.09 84.3699 131.09 103.73C130.6 103.73 130.15 103.73 129.71 103.73C122.78 103.73 115.86 103.75 108.93 103.71C107.12 103.7 105.3 103.54 103.5 103.35C100 102.98 97.1601 101.3 94.6801 98.85C89.4301 93.67 84.0201 88.64 78.8701 83.35C74.9801 79.34 70.4201 77.62 64.9001 77.86C60.9301 78.03 56.9501 77.8898 52.9801 77.8898C52.5301 77.8898 52.0801 77.8898 51.5201 77.8898C51.5201 92.8098 51.5201 107.66 51.5201 122.62C51.9201 122.64 52.3201 122.67 52.7301 122.68C57.7301 122.68 62.7201 122.76 67.7201 122.66C71.8501 122.57 75.4901 121 78.4301 118.12C82.2901 114.33 86.0201 110.41 89.8001 106.53C90.1101 106.21 90.3301 105.8 90.4101 105.69C92.1601 107.31 93.7101 108.74 95.2901 110.21C95.1101 110.42 94.9901 110.6 94.8301 110.76C90.5301 115.13 86.2301 119.5 81.9101 123.85C78.4301 127.36 74.1301 129.14 69.2701 129.23C61.3601 129.38 53.4501 129.28 45.5401 129.28C45.3601 129.28 45.1701 129.24 44.9001 129.21C44.9001 109.93 44.9001 90.69 44.9001 71.33C45.2601 71.31 45.6201 71.2799 45.9901 71.2699C52.5401 71.2499 59.0801 71.2199 65.6301 71.2299C69.2501 71.2399 72.8001 71.7698 76.1701 73.1598C78.2201 73.9998 80.0401 75.1699 81.6401 76.7299C87.0101 81.9599 92.4101 87.15 97.8301 92.32C98.7801 93.23 99.8101 94.09 100.89 94.85C103.05 96.35 105.46 97.14 108.14 97.12C113.17 97.08 118.21 97.11 123.24 97.11C123.61 97.11 123.98 97.11 124.51 97.11C124.51 96.59 124.51 96.1899 124.51 95.7799C124.51 81.7399 124.5 67.6998 124.53 53.6598C124.53 52.6698 124.35 52.2799 123.24 52.2999C118.17 52.3999 113.1 52.3099 108.03 52.4899C104.73 52.6099 101.77 53.8098 99.3201 56.1498C95.2301 60.0798 91.1001 63.9798 87.0001 67.8998C86.7001 68.1798 86.5301 68.5899 86.2501 69.0199C84.3501 67.2799 82.7101 65.7799 81.0401 64.2399C81.3001 63.9399 81.4701 63.6999 81.6801 63.4899C85.4701 59.6799 89.3202 55.9199 93.0302 52.0399C97.1102 47.7699 102.22 45.96 107.93 45.82C115.46 45.64 122.99 45.7399 130.52 45.7299C130.7 45.7499 130.84 45.8 131.09 45.84Z" fill="#1DC0DB"/>
</svg>
