<svg width="205" height="205" viewBox="0 0 205 205" fill="none" xmlns="http://www.w3.org/2000/svg">
<path d="M153.288 153.345C181.476 125.157 181.475 79.4555 153.288 51.2678C125.1 23.08 79.3986 23.08 51.2108 51.2677C23.023 79.4555 23.0231 125.157 51.2108 153.345C79.3986 181.532 125.1 181.532 153.288 153.345Z" fill="#C1AD57"/>
<path d="M135.68 83.75C136.78 84.5 137.37 83.4 137.61 81.78C137.12 82.45 136.4 83.24 135.68 83.75Z" fill="#C99B3C"/>
<path d="M136.08 69.9301C135.42 70.0001 134.86 69.2901 134.51 68.2901C133.97 69.5001 132.69 72.6501 132.22 74.2101C134.27 73.8001 134.73 72.7201 136.38 72.1601C135.94 71.5501 135.59 71.0501 136.4 70.4401C137.43 69.6701 138.58 68.4101 138.58 68.4101C138.42 67.7801 138.41 67.2701 138.5 66.6901C137.64 68.2701 137.15 69.8101 136.08 69.9301Z" fill="#C99B3C"/>
<path d="M137.13 73.4501C137.13 73.6201 137.22 74.2 137.34 74.97C137.41 74.33 137.31 73.8701 137.13 73.4501Z" fill="#C99B3C"/>
<path d="M122.3 53.22C122.01 54.83 122.09 55.42 121.28 56.13C117.58 58.07 120.04 62.24 119.13 65.1C118.81 66.19 118.63 68.84 118.4 67.51C118.17 66.19 118.4 64.52 118 64.01C117.6 63.49 117.71 64.13 117.08 63.61C116.45 63.09 116.51 63.55 116.16 62.63C115.98 62.15 115.88 61.89 115.85 61.64C115.46 62.47 114.96 62.93 114.56 63.06C115.9 65.27 117.27 67.75 118.59 68.52C118.9 65.1 119.7 63.35 122.46 61.3C121.7 61.68 121.65 61.75 121.79 60.97C121.96 60.02 122.4 59.72 123.64 58.6C122.84 58.75 121.99 58.82 121.52 58.52C120.56 57.91 122.76 57.01 123.74 56.13C124.72 55.25 125.63 54.83 126.27 53.57C126.76 52.59 130.96 50.48 133.02 49.55C132.49 48.35 132.98 47.7 131.71 46.05C130.81 45.05 130.33 43.75 129.47 43.08C127.13 44.23 125.54 49.13 124.61 50.29C123.62 51.67 122.59 51.62 122.3 53.22Z" fill="#B79945"/>
<path d="M122.3 53.22C122.59 51.61 123.62 51.67 124.6 50.29C125.15 49.51 126.41 46.95 127.42 44.84C125.63 46.52 123.68 48.62 121.99 50.3C122.22 51.31 122.42 52.5 122.3 53.22Z" fill="#CDA84D"/>
<path d="M122.3 53.22C122.13 54.31 120.73 55.68 119.89 57.12C121.58 56.14 122.08 55.57 122.3 53.22Z" fill="#CDA84D"/>
<path d="M129.71 56.72C136.22 54.44 132.98 59.36 132.11 60.51C131.24 61.66 130.29 64.7 128.79 66.69C127.1 69.12 126.5 69.94 124.96 71.62C126.09 72.32 126.12 72.71 127.6 73.73C127.45 71.92 130.35 74.79 131.2 72.28C131.72 71.37 130.57 72.33 129.36 72.12C128.15 71.91 128.44 71.3 128.56 69.76C128.67 68.23 130.17 67.85 131.66 66.68C132.43 66.07 133.52 65.27 134.38 64.64C137.15 57.79 136.74 55.64 133.01 49.54C130.95 50.47 126.75 52.58 126.26 53.56C125.63 54.82 124.71 55.24 123.73 56.12C122.75 57 120.55 57.9 121.51 58.51C121.99 58.82 122.83 58.75 123.63 58.59C124.9 57.34 129.69 56.73 129.71 56.72Z" fill="#957336"/>
<path d="M133.01 49.55C136.73 55.6 137.15 57.84 134.38 64.65C135.18 64.06 135.79 63.62 135.79 63.62C135.94 64.4 134.9 67.32 134.5 68.3C135.79 71.63 137.42 69.23 138.49 66.7C141.3 57.76 139.1 53.9 137.51 46.52C137.23 41.67 132.86 40.56 129.58 43C130.18 43.94 130.88 44.99 131.7 46.06C132.97 47.69 132.48 48.35 133.01 49.55Z" fill="#9F7D33"/>
<path d="M125.61 70.73C124.27 71.82 124.48 70.27 124.31 69.34C124.14 68.41 122.36 69.47 121.72 68.95C121.08 68.43 122.01 68.09 123.04 67.23C124.07 66.37 124.19 65.85 124.93 64.81C125.68 63.77 126.82 62.75 128.37 61.66C129.92 60.57 128.54 60.57 126.99 61.58C125.44 62.59 126.13 61.66 127.33 60.57C128.54 59.48 127.1 59.25 126.07 59.82C125.05 60.39 123.74 60.59 122.44 61.3C119.68 63.35 118.87 65.11 118.57 68.52C120.26 69.55 123.44 70.77 124.94 71.61C125.27 71.39 125.51 71.1 125.61 70.73Z" fill="#AF8E3F"/>
<path d="M120.87 53.11C120.35 54.83 119.84 55.6401 118.57 56.9001C117.32 58.1501 116.69 59.9501 115.85 61.6501C115.88 61.9001 115.98 62.1601 116.16 62.6401C116.5 63.5601 116.45 63.1001 117.08 63.6201C117.71 64.1401 117.6 63.5001 118 64.0201C118.4 64.5401 118.17 66.2 118.4 67.5201C118.63 68.8401 118.8 66.2 119.13 65.11C119.45 64.02 119.38 63.39 119.32 62.3C117.94 55.37 123.71 56.1001 122 50.3101C120.88 51.0601 121.29 51.75 120.87 53.11Z" fill="#8D6329"/>
<path d="M115.42 55.58C115.25 56.1 112.15 57.88 112.18 59.77C112.8 60.17 113.65 61.52 114.57 63.07C116.49 61.96 116.85 58.29 118.58 56.9C120.16 55.43 121.21 53.22 121.15 51.13C118.77 53.69 116.34 54.04 113.17 54.38C114.37 54.77 115.51 55.3 115.42 55.58Z" fill="#AD8233"/>
<path d="M76.25 53.11C76.51 51.5 76.1601 43.58 75.8701 41.23C75.6401 38.83 78.7 38.38 78.8 38.35C71.11 36.67 78.7 51.51 73.45 56.57C75.03 56.1 76.05 54.35 76.25 53.11Z" fill="#CCA03F"/>
<path d="M72.4199 61.11C72.8899 59.32 73.7401 57.9201 75.0901 55.6901C72.6101 56.7501 71.71 59.3001 69.26 60.8401C71.14 60.2601 71.0899 60.39 72.4199 61.11Z" fill="#C19535"/>
<path d="M78.25 58.04C79.13 57.06 80.1199 56.14 81.1799 55.58C81.3799 55.48 82.19 54.71 83.51 54.06C83.23 53.83 82.9201 53.57 82.6201 53.28C82.1301 53.4 81.6199 53.49 81.1499 53.51C79.5499 53.59 77.86 55.14 77.21 54.56C75.06 56.1 74.8601 58.6 72.5901 61.21C72.9001 61.4 73.0601 61.62 73.1101 61.87C74.8501 60.78 77.23 59.18 78.25 58.04Z" fill="#C19535"/>
<path d="M84.9299 55.01C84.8299 54.97 84.24 54.63 83.51 54.05C82.19 54.7 81.3799 55.47 81.1799 55.57C84.7599 53.37 88.24 57.75 87.52 61.19C87.13 63.39 85.0999 67.66 84.9299 68.93C85.0299 71.86 84.29 72.26 82.96 74.83C86.73 72.39 85.93 69.33 87.52 66.81C87.52 66.81 92.2099 60.7 94.8899 59.92C97.5699 59.14 99.6401 57.94 99.0801 58.8C101.44 58.74 109.1 57.84 112.18 59.75C112.15 57.86 115.25 56.08 115.42 55.56C115.51 55.28 114.37 54.75 113.17 54.37C111.74 54.56 110.13 54.82 108.25 55.45C104.36 56.75 96.0001 55.15 91.3601 53.38C91.3501 53.39 85.1699 55.12 84.9299 55.01Z" fill="#D3A83F"/>
<path d="M72.1398 67.83C76.0898 64.46 81.9899 54.53 82.9199 66.19C82.2999 68.18 84.21 68.23 84.79 69.75C84.91 67.81 86.96 63.9601 87.51 61.2001C88.23 57.7701 84.7499 53.38 81.1699 55.58C80.0999 56.14 79.1099 57.06 78.2399 58.04C77.2199 59.18 74.8501 60.78 73.1101 61.87C73.3001 62.72 72.1999 63.91 71.6799 65.56C71.3599 67.87 66.2999 70.23 68.4299 71.43C69.3999 69.67 71.3798 68.39 72.1398 67.83Z" fill="#DBB958"/>
<path d="M55.75 82.4C56.28 81.12 56.1299 81.4 57.1899 79.91C57.9599 78.88 58.0499 79.39 59.1799 78.1C60.3099 76.81 61.2301 76.03 62.6101 75.95C64.7701 75.85 63.3001 79.56 61.6101 80.41C61.3501 83.13 62.9701 86.64 63.5801 89.25C66.0301 87.89 68.05 85.15 70.99 82.87C69.18 82.89 67.0201 82.53 67.0801 80.84C65.9801 78.68 66.5501 76.56 67.3701 75.97C67.3701 75.97 67.4399 73.3 68.4199 71.42C66.2799 70.22 71.3499 67.85 71.6699 65.55C72.1999 63.52 74.0301 62.32 72.5801 61.2C72.3001 61.53 72.2999 61.43 72.4099 61.1C69.8899 59.13 67.3901 62.62 64.8501 63.54C55.7401 68.86 57.0801 77.18 52.3701 85.2C53.5201 84.3 54.66 83.37 55.75 82.4Z" fill="#ECCC75"/>
<path d="M70.9099 73.6901C76.6999 68.4101 77.19 63.3001 77.78 74.9401C79.79 72.6901 80.81 72.4801 81.47 70.7801C82.15 69.0701 81.6299 66.7701 82.8899 67.7401C82.9999 66.4001 82.8 60.5501 80.23 60.5601C78.33 61.0201 76.3299 63.6001 75.1299 64.8001C71.4199 69.2801 67.5499 69.43 67.3799 75.97C67.7199 74.73 69.2099 73.6001 70.9099 73.6901Z" fill="#E9CE77"/>
<path d="M77.7801 74.94C77.1901 63.28 76.69 68.43 70.91 73.69C75.17 74.2 75.6601 78.79 73.5801 80.57C71.0501 82.99 68.0102 82.76 67.1002 80.69C66.8902 82.5 69.1301 82.9 71.0001 82.88C72.5601 81.65 74.0801 80.54 75.7901 79.23C76.0701 77.97 76.6401 76.24 77.7801 74.94Z" fill="#D8BC6B"/>
<path d="M132.1 76.01C132.04 76.2 131.45 76.26 130.76 76.25C131.58 77.19 132.9 80.37 134.11 81.73C135.15 82.89 134.69 83.24 135.66 83.76C137.57 82.54 138.01 80.95 137.58 78.93C137.24 77.08 136.72 77.6801 137.15 75.9601C137.52 74.4201 137.15 73.21 136.36 72.17C134.71 72.73 134.25 73.81 132.2 74.22C131.87 75.18 132.23 75.64 132.1 76.01Z" fill="#8D6329"/>
<path d="M136.39 70.4401C134.85 71.5301 137.86 73.09 137.34 74.97C136.87 77.35 136.9 76.54 137.59 78.92C137.87 80.17 137.75 85.0601 135.67 83.7501C134.7 83.2301 135.15 82.88 134.12 81.72C132.97 80.43 131.57 77.24 130.86 76.35C130.22 76.08 129.04 76.2201 128.73 76.0101C128.1 75.7801 127.7 75.0301 127.6 73.7301C124.9 71.1001 121.76 70.3101 118.49 68.4601C116.6 67.4301 114.01 61.2401 112.18 59.7601C111.01 59.0201 108.44 58.6801 107.38 58.5601C109.78 59.0901 106.64 61.8801 107.82 63.6301C108.14 64.6001 106.94 65.5801 108.1 65.9701C111.5 62.9801 115.94 66.3001 117.94 70.0301C122.8 71.7101 128.83 77.89 130.69 83.23C132.22 86.13 131.67 93.0401 133.2 95.8701C133.72 94.7301 134.95 91.31 136.54 92.16C135.42 79.05 139.52 93.46 141.48 86.47C142.08 84.98 142.53 83.3 142.96 81.91C140.87 74.7 139.74 71.4601 138.58 68.4001C138.57 68.4101 137.43 69.6701 136.39 70.4401Z" fill="#CBA13F"/>
<path d="M97.3 60.54C98.69 61.23 99.4799 60.63 97.9199 61.83C96.3699 63.04 94.4301 63.04 93.8101 64.15C93.3301 65 92.9601 66.25 92.8601 66.99C93.8301 65.99 94.5201 64.97 96.1101 64.84C98.4101 64.52 105.21 66.32 106.96 69.96C111.87 68.58 106.93 75.92 110.16 80.2C110.34 79.88 110.62 79.66 111.23 79.53C113 79.17 115.87 77.62 115.76 75.29C115.65 72.96 113.35 74.46 113.69 72.85C114.03 71.24 113.36 70.67 115.07 70.1C115.87 69.83 116.84 69.79 117.93 70.05C115.93 66.32 111.48 63 108.09 65.99C106.94 65.59 108.14 64.62 107.81 63.65C107.47 62.62 107.38 62.1 107.98 60.81C108.69 59.44 108.28 58.51 106.9 58.53C105.3 58.49 99.0701 58.83 99.0701 58.83C98.5201 59.68 95.9 59.85 97.3 60.54Z" fill="#D1AD4B"/>
<path d="M87.82 69.8701C89.43 69.8201 90.98 67.4801 92.86 66.9901C92.95 66.2501 93.33 65.0001 93.81 64.1501C94.44 63.0301 96.3698 63.0301 97.9198 61.8301C99.4798 60.6201 98.69 61.2301 97.3 60.5401C95.91 59.8501 98.52 59.6801 99.08 58.8201C99.64 57.9601 97.5698 59.1601 94.8898 59.9401C92.2098 60.7201 87.5199 66.8301 87.5199 66.8301C88.4399 65.8801 86.69 70.1701 87.82 69.8701Z" fill="#C49837"/>
<path d="M82.8501 76.35C82.6501 79.11 82.42 80.09 81.73 82.29C84.38 79.4 90.5301 73.92 91.3601 70.35C91.9801 68.94 92.48 67.81 93.03 66.94C91.1 67.35 89.4501 69.83 87.8301 69.87C86.6901 70.16 88.45 65.88 87.52 66.82C86.59 67.77 86.8101 69.4 85.8201 71.55C84.9701 73.4 83.39 74.55 82.96 74.83C82.86 75.12 82.9701 75.32 82.8501 76.35Z" fill="#B59540"/>
<path d="M86.98 88.86C87.31 88 87.6199 87.29 87.9099 86.75C87.7699 85.24 88.52 84.68 87.99 83.11C87.41 81.36 88.3999 81.5 89.6899 80.41C90.1799 80 90.5301 79.74 90.8501 79.57C89.8101 77.05 91.12 74.39 92.54 72.42C93.77 70.61 92.1901 70.73 94.8701 69.77C97.4401 68.85 101.15 69.44 102.34 71.15C104.77 68.95 102.57 73.24 105.13 70.95C105.65 70.55 106.31 70.17 106.94 69.95C104.39 65.65 95.33 62.57 93 66.94C92.45 67.81 91.9501 68.94 91.3301 70.35C90.5201 73.92 84.31 79.41 81.7 82.31C85.34 83.96 84.6901 87.4701 85.1201 90.8401C85.9101 90.4101 86.64 89.77 86.98 88.86Z" fill="#D6B75C"/>
<path d="M92.7501 79.4001C93.5001 79.4701 93.81 80.3101 93.95 81.1201C94.99 79.8601 96.5301 78.74 98.3001 78.47C99.3201 77.41 100.62 76.0601 100.86 75.5101C101.18 74.7501 100.76 75.0201 99.6002 74.6201C97.9602 74.0601 101.77 72.0601 102.36 71.1501C101.17 69.4401 97.46 68.8401 94.89 69.7701C92.21 70.7301 93.7801 70.6101 92.5501 72.4201C91.1201 74.3901 89.8202 77.0601 90.8602 79.5701C91.4002 79.3001 91.8601 79.3101 92.7501 79.4001Z" fill="#CDB464"/>
<path d="M103.66 70.79C103.3 69.72 101.4 72.26 100.86 72.51C96.6501 75.52 101.58 74.06 100.86 75.51C100.63 76.05 99.33 77.4 98.3 78.47C101.07 78.03 103.73 79.71 105.24 80.88C106.42 81.3 107.45 82.48 106.58 83.83C109.03 84.32 109.81 81.07 110.15 80.21C109.96 79.7 109.67 79.13 109.27 78.4C108.33 76.69 109.44 73.38 109.27 71.14C109.05 68.73 106.29 70.07 105.14 70.97C103.68 72.08 103.85 71.82 103.66 70.79Z" fill="#CCA848"/>
<path d="M82.9199 67.77C81.6199 66.74 82.15 69.05 81.47 70.78C80.22 73.51 76.47 74.71 75.79 79.22C77.73 77.71 78.7099 76.98 80.4399 76.34C82.2899 75.68 82.8499 74.76 82.9199 74.92C84.3399 72.14 86.4999 69.97 82.9199 67.77Z" fill="#CCAE50"/>
<path d="M87.5 101.34C88.36 101 89.2899 100.71 89.8799 100.77C90.6899 98.33 91.55 96.19 92.47 94.86C91.31 93.4 90.1501 91.59 90.5701 90.02C89.6901 89.66 87.8999 88.35 87.9199 86.76C87.2699 88 86.7199 90.22 85.1599 90.86C85.5299 93.85 85.73 95.8 86.24 98.12C87.01 99.03 87.64 100.07 87.5 101.34Z" fill="#E2C172"/>
<path d="M68.1201 87.57C76.6001 90.4 75.51 80.91 81.72 82.32C82.42 80.11 82.6401 79.12 82.8501 76.36C82.9101 75.49 83.0001 74.77 82.8501 74.93C82.8501 74.93 82.1599 75.7 80.4399 76.36C78.7199 76.99 77.73 77.73 75.79 79.24C72.45 81.59 67.6699 85.6 65.3799 88.13C66.2799 87.67 67.2501 87.4 68.1201 87.57Z" fill="#E2C172"/>
<path d="M90.4701 83.61C91.2101 82.15 91.5401 83.01 92.2701 82.14C93.0001 81.27 92.7501 81.54 93.7201 81.4C94.2801 80.75 93.4301 79.42 92.7501 79.4C91.2201 79.22 90.82 79.47 89.7 80.41C88.41 81.5 87.4201 81.37 88.0001 83.11C88.5201 84.68 87.78 85.24 87.92 86.75C87.91 88.35 89.6902 89.65 90.5702 90.01C90.8602 88.31 90.94 87.07 91.66 85.42C90.99 84.86 89.6901 85.17 90.4701 83.61Z" fill="#B58F3A"/>
<path d="M115.08 70.1C113.36 70.67 114.04 71.25 113.7 72.85C113.36 74.46 115.65 72.96 115.77 75.29C115.88 77.62 113.02 79.16 111.24 79.53C110.62 79.66 110.34 79.87 110.17 80.2C109.83 81.05 109.05 84.3 106.6 83.82C105.09 86.45 102.36 88.17 97.31 88.12C95.82 88.1 94.77 87.82 94.04 87.43C92.61 87.31 92.1899 85.91 91.6699 85.43C90.8999 87.16 90.84 88.54 90.52 90.34C90.27 91.74 91.3999 93.53 92.4699 94.87C95.7499 90.05 100.06 99.61 111.24 85.49C113.01 83.54 114.28 81.94 117.6 83.26C120.93 84.58 129.08 80.22 130.69 83.26C129.09 78.18 120.47 68.41 115.08 70.1Z" fill="#CDB464"/>
<path d="M74.99 93.28C81.84 91.35 81.9 93.44 86.23 98.11C85.64 95.27 85.0099 90.67 84.8799 87.47C84.8999 85.44 83.5401 82.56 81.0901 82.14C78.5601 81.67 76.6101 84.44 74.8501 86.51C71.6101 90.21 67.5501 85.38 63.5801 89.26C63.7401 89.74 63.8801 90.16 64.0701 90.58C67.6301 89.87 72.19 90.75 74.99 93.28Z" fill="#E2C470"/>
<path d="M137.34 86.6201C136.01 85.7601 136.25 88.88 136.54 92.17C137.68 93.12 138.03 97.4401 137.52 100.76C136.83 105.22 130.29 118.88 132.87 117.82C135.45 116.75 139.41 112.64 141.82 107.55C148.78 94.22 140.6 114.05 143.71 112.83C145.43 112.44 144.63 113.15 144.77 117.1C144.92 121.05 146.46 118.81 147.5 119.07C148.53 119.33 150.08 119.5 148.36 122.6C146.64 125.7 146.29 126.97 144.23 127.8C142.16 128.63 141.71 130.09 140.31 128.54C139.69 127.85 139.4 127.07 139.13 126.57C138.07 128.58 136.82 131.07 135.39 132.76C132.29 136.13 132.61 134.16 130.71 138.77C135.66 136.56 137.54 135.24 140.21 134.81C143.08 134.35 143.54 131.25 146.75 131.83C148.49 132.14 149.49 133.5 150.1 135.17C152.46 127.13 153.57 129.71 152.5 121.05C151.15 111.03 146.6 94.59 142.96 81.91C142.53 83.29 142.08 84.97 141.48 86.47C139.93 90.31 139.75 88.1701 137.34 86.6201Z" fill="#CCA846"/>
<path d="M131.6 108.05C130.22 111.31 120.47 126 121.15 127.15C121.84 128.3 127.58 123.13 126.89 125.2C126.2 127.27 123.1 128.41 124.36 129.45C125.62 130.48 126.2 129.92 125.28 131.87C124.36 133.82 127.11 132.21 127.4 133.47C127.62 134.45 124.79 138.03 122.33 140.56C123.43 141.13 127.67 140.39 130.7 138.8C131.19 137.77 131.74 136.6 132.27 135.44C131.52 135.9 130.6 136.44 129.29 137.32C123.1 141.12 134.2 130.83 131.36 131.18C129.98 131.18 128.95 132.75 128.91 132.1C128.87 131.45 130.13 130.99 129.98 130.3C129.83 129.61 129.87 129.65 128.99 129.8C128.11 129.95 128.08 128.57 129.3 127.82C129.3 127.82 133.43 125.44 136.53 122.57C139.63 119.7 143.15 114.09 142.77 115.52C142.38 116.95 137.56 121.42 138.6 122.57C141.13 124.21 141.37 122.31 139.13 126.6C139.4 127.1 139.68 127.88 140.31 128.57C141.71 130.12 142.16 128.66 144.23 127.83C146.3 127 146.64 125.73 148.36 122.63C150.08 119.53 148.53 119.36 147.5 119.1C146.47 118.84 144.92 121.08 144.77 117.13C144.62 113.18 145.43 112.47 143.71 112.86C141.99 113.25 143.37 109.2 144.4 105.3C146.4 96.35 139.19 116.18 132.86 117.84C129.77 117.96 141.75 97.52 136.53 92.19C136.14 91.87 135.67 91.93 135.1 92.56C130.78 97.54 137.2 95.82 131.6 108.05Z" fill="#C1993A"/>
<path d="M49.7901 105.79C50.6501 105.22 51.52 104.67 52.41 104.14C51.59 104.77 50.77 105.38 49.92 105.97C50.38 106.63 50.94 107.7 51.47 108.84C52.54 107.71 53.6902 106.65 54.8602 105.62C53.8202 100.65 52.5299 95.14 57.3799 91.3C55.4999 89.73 53.7 88.06 51.93 86.37C51.24 88.21 50.49 90.61 49.66 93.91C50.98 94.07 52.65 94.28 53.95 94.48C52.62 94.39 50.9402 94.25 49.6102 94.12C49.2802 95.47 49.0901 96.87 49.0201 98.29C50.1401 97.99 51.27 97.72 52.41 97.47C51.28 97.84 50.1501 98.19 49.0101 98.52C48.9801 99.31 48.97 100.1 49 100.9C49.99 100.47 50.99 100.05 52 99.65C51.01 100.16 50.0101 100.65 49.0101 101.12C49.0401 101.84 49.1 102.56 49.18 103.28C50.7 102.42 52.4 101.47 53.96 100.66C52.45 101.62 50.76 102.64 49.21 103.54C49.37 104.32 49.1901 105.21 49.7901 105.79Z" fill="#F7ECB6"/>
<path d="M55.6499 89.55C56.2399 90.12 56.8199 90.7 57.3899 91.29C59.9999 89.13 62.37 86.6601 63.96 90.3101C63.34 88.6901 62.9799 87.1801 62.4399 85.2401C61.8899 83.2501 61.3901 82.21 61.6101 80.41C60.9901 80.77 60.7299 80.43 59.6899 81.11C58.2299 82.06 58.3099 83.6101 55.8999 85.2401C53.4899 86.8701 55.3 84.03 55.47 83.17C55.47 83.17 55.59 82.8001 55.75 82.3901C54.56 83.7101 52.57 84.4001 52.01 86.1501C53.24 87.2601 54.4599 88.39 55.6499 89.55Z" fill="#F7ECB6"/>
<path d="M52.6699 107.91C52.2799 108.24 51.89 108.57 51.49 108.88C51.83 109.6 52.1499 110.36 52.4399 111.06C54.6799 115.9 55.7899 108.07 54.9099 105.89C54.1799 106.58 53.4299 107.26 52.6699 107.91Z" fill="#F7ECB6"/>
<path d="M57.22 125.42C58.87 127.14 60.9599 128.4 62.6399 129.47C54.3899 123.13 60.5399 118.81 61.1799 111.27C60.9699 109.86 60.4899 108.46 59.8899 107.05C59.2299 105.5 58.6001 105.96 58.8301 103.15C58.9701 101.42 59.7401 98.9601 60.3101 97.3201C59.8501 94.4101 60.9301 91.1001 64.0801 90.5701C62.4701 86.6201 60.1699 88.97 57.3899 91.29C57.4399 91.34 57.49 91.3901 57.54 91.4401C57.48 91.3901 57.4299 91.35 57.3799 91.3C52.5299 95.14 53.8201 100.65 54.8601 105.62C55.4401 105.11 56.0399 104.61 56.6499 104.14C56.0899 104.75 55.4999 105.32 54.8999 105.89C55.7799 108.07 54.6699 115.9 52.4299 111.06C52.1399 110.35 51.82 109.6 51.48 108.88C51.4 108.94 51.33 109 51.25 109.06C51.32 108.98 51.39 108.91 51.46 108.84C50.93 107.69 50.3699 106.63 49.9099 105.97C49.7999 106.05 49.7001 106.12 49.5901 106.2C51.2101 115.18 55.1299 122.43 55.6299 124.68C56.0499 124.56 56.57 124.75 57.22 125.42ZM55.47 111.94C55.21 112.38 54.9499 112.81 54.6599 113.23C55.4599 111.37 56.43 109.58 57.54 107.88C56.95 109.28 56.23 110.62 55.47 111.94Z" fill="#F4E19D"/>
<path d="M49.46 105.43C49.49 105.6 49.52 105.77 49.55 105.94C49.63 105.89 49.71 105.84 49.79 105.78C49.67 105.64 49.56 105.52 49.46 105.43Z" fill="#F4E19D"/>
<path d="M108.21 131.95C106.17 132.91 102.94 134.11 99.95 135.1C103.99 134.04 106.93 132.85 108.21 131.95Z" fill="#E1CE8A"/>
<path d="M117.6 83.24C110.95 80.97 111.09 89.26 103.14 92.53C94.7899 96.74 94.2699 87.73 89.8799 100.76C90.1599 100.78 90.4101 100.91 90.5701 101.13C94.8001 101.22 99.3999 101.23 103.17 103.36C99.2799 101.56 94.8299 101.55 90.6299 101.21C91.1399 102.02 90.8901 103.78 91.1201 105.39C91.9001 108.38 93.5199 107.6 93.3999 111.3C102.36 117.97 92.2499 118.96 86.8999 121.57C85.6199 122.21 83.7101 123.96 81.6101 125.55C83.6301 127.38 83.8801 128.31 86.8101 129.72C86.0501 127.84 84.95 125.93 83.97 124.15C85.27 125.86 86.37 127.75 87.02 129.81C89.26 131.01 91.6499 130.69 94.3799 129.7C92.3399 118.37 105.58 125.26 106.24 121.97C105.9 120.36 101.67 119.47 103.67 117.1C105.67 114.73 104.05 114.25 109.28 111.91C114.51 109.57 115.66 109.11 118.3 107.05C120.94 104.98 125.76 103.03 127.02 104.07C128.28 105.1 126.33 104.9 124.38 108.04C122.43 111.18 124.72 111.3 122.2 113.14C117.67 115.53 114.41 110.35 116.46 120.49C116.57 122.33 119.23 120.72 115.09 123.82C109.97 127.17 110.91 123.94 109.28 129.41C109.8 129.69 110.15 129.98 110.28 130.26C117.17 125.32 115.97 129.02 110.33 133.58C109.03 134.6 107.52 135.84 105.85 137.05C107.95 136.5 109.88 136.04 111.07 135.86C114.86 135.29 112.46 137.54 115.09 138.6C118.99 139.91 119.73 139.28 122.36 140.55C124.82 138.02 127.65 134.44 127.43 133.46C127.14 132.2 124.39 133.8 125.31 131.86C126.23 129.91 125.65 130.48 124.39 129.44C123.13 128.41 126.23 127.26 126.92 125.19C127.61 123.12 121.87 128.29 121.18 127.14C122.07 121.09 137.94 104.07 133.22 95.88C131.68 93.05 132.24 86.14 130.71 83.24C129.08 80.21 120.93 84.56 117.6 83.24Z" fill="#E1CE8A"/>
<path d="M87.5199 137.22C96.1399 136.16 104.01 135.11 110.27 130.25C110.15 129.98 109.79 129.69 109.27 129.4C108.45 131.61 107.75 131.69 104.97 131.76C101.54 131.81 94.46 132.4 94.37 129.7C91.64 130.69 89.2499 131 87.0099 129.81C87.1399 130.25 87.24 130.7 87.29 131.16C87.15 130.67 87 130.19 86.8 129.72C83.87 128.31 83.62 127.38 81.6 125.55C76.05 130.17 72.26 129.04 69.56 123.81C68.81 122.55 66.4 122.43 64.85 119.74C63.52 117.08 61.8399 113.95 61.1799 111.27C60.5399 118.83 54.3998 123.14 62.6398 129.47C63.7698 130.19 64.7099 130.82 65.1999 131.44C65.9899 132.45 68.23 135.07 70.1 136.75C74.55 137.8 80.6799 137.82 87.5199 137.22ZM62.05 117.95C61.91 118.62 61.6799 119.26 61.4699 119.91C61.3899 118.99 61.7298 118.07 62.1598 117.27C62.1398 117.51 62.1 117.73 62.05 117.95ZM63.61 119.63C63.3 121.11 63.1199 122.7 62.7299 124.16C62.8299 122.55 62.9099 120.77 63.7099 119.34C63.6599 119.43 63.64 119.53 63.61 119.63Z" fill="#EFDA8B"/>
<path d="M94.53 118.65C99.03 116.61 96.1899 113.15 93.3899 111.31C93.3699 111.94 93.0699 112.69 92.4099 113.17C92.3099 114.71 91.28 115.84 89.22 116.93C87.57 119.77 83.15 120.43 78.99 120.73C79.57 121.81 80.1501 122.94 80.3301 124.16C79.9301 122.95 79.3 121.85 78.7 120.74C78.14 120.75 77.64 120.73 77.25 120.66C75.13 120.32 76.68 121.23 73.29 121.06C68.71 120.41 68.4799 118.44 66.6699 117.1C64.4699 116.94 64.7501 115.44 63.8701 114.81C63.1801 114.31 62.31 113.79 61.76 113.03C62.47 114.79 63.7801 117.89 64.8501 119.75C66.4001 122.45 68.8101 122.56 69.5601 123.82C74.5401 133.68 81.0799 125.37 86.8899 121.58C89.1899 120.43 92.29 119.51 94.53 118.65Z" fill="#E0C777"/>
<path d="M61.5801 136.73C65.8601 139.81 71.34 140.34 71.22 144.42C72.58 144.56 74.13 145.16 75.52 146.77C79.02 150.82 82.1201 149.98 80.8601 146.77C78.5201 140.92 65.4601 139.56 61.8101 131.73C61.8101 131.73 61.24 130.71 64.22 134.03C65.36 135.3 67.4199 136.21 70.1399 136.8C66.6699 133.81 65.9999 131.47 62.6399 129.48C60.9599 128.41 58.87 127.14 57.22 125.43C56.57 124.76 56.0499 124.57 55.6299 124.68C56.0899 126.82 57.8201 133.96 61.5801 136.73Z" fill="#D2B25B"/>
<path d="M146.75 131.84C143.54 131.27 143.08 134.37 140.21 134.82C137.78 135.1 134.04 137.38 129.54 139.3C124.75 141.17 123.36 141.12 120.7 139.87C119.67 139.41 117.72 139.64 115.08 138.59C112.45 137.54 114.85 135.28 111.06 135.85C109.88 136.03 107.94 136.49 105.84 137.04C96.8801 144.18 91.8799 140.42 90.3999 144.13C88.9099 147.23 89.7101 148.19 86.6101 149.5C83.5101 150.82 83.97 149.76 83.28 152.74C82.59 155.72 83.0499 155.95 80.1799 157.1C77.3099 158.25 77.61 156.87 76.02 159.63C74.49 162.29 77.16 162.27 74.29 162.68C82.59 168.98 86.86 165.04 90 168.54C97.74 165.1 97.83 164.47 104.97 160.49C112.37 156.36 116.33 156.03 120.81 152.75C125.29 149.47 130.45 143.96 135.1 142.07C139.75 140.18 144.08 139.66 142.77 144.82C142.02 147.77 140.97 151.81 140.21 155.14C142.42 152.94 144.83 150.59 147.15 147.75C152.49 141.21 148.7 142.24 149.9 136.04C150.41 134.11 148.52 132.17 146.75 131.84Z" fill="#D8C173"/>
<path d="M115.08 123.82C119.22 120.72 116.57 122.33 116.45 120.49C114.4 110.35 117.66 115.54 122.19 113.14C124.72 111.3 122.42 111.19 124.37 108.04C126.32 104.9 128.27 105.1 127.01 104.07C125.75 103.04 120.93 104.99 118.29 107.05C115.65 109.12 114.5 109.58 109.27 111.91C104.04 114.25 105.66 114.74 103.66 117.1C101.66 119.46 105.89 120.36 106.23 121.97C105.48 125.29 92.1999 118.29 94.4099 129.89C94.6199 132.3 101.64 131.84 104.97 131.76C107.75 131.69 108.45 131.61 109.27 129.4C110.9 123.92 109.96 127.17 115.08 123.82Z" fill="#ECD592"/>
<path d="M90 168.54C87.32 165.3 81.4799 168.33 75.6599 163.5C75.1799 163.23 74.6 162.6 73.95 162.73C71.49 163.06 69.1299 162.97 67.6599 162.43C67.1199 162.92 66.6399 164.08 66.4199 164.95C71.7999 168.04 77.62 170.45 83.76 172.07C85.55 170.72 87.77 169.47 90 168.54Z" fill="#D2B25B"/>
<path d="M76.02 159.63C77.6 156.88 77.3099 158.25 80.1799 157.1C83.0499 155.95 82.59 155.72 83.28 152.74C83.97 149.76 83.5101 150.81 86.6101 149.5C89.7101 148.18 88.9099 147.23 90.3999 144.13C91.8899 141.03 93.5 142.98 98.27 141.26C103.17 139.47 113.99 131.97 115.08 127.95C114.72 127.06 109.43 130.68 108.22 131.95C103.57 134.81 94.58 136.55 87.53 137.23C78.33 137.64 70.2699 138.73 64.2399 134.04C61.2599 130.72 61.83 131.74 61.83 131.74C65.58 139.66 78.4398 140.83 80.8798 146.78C82.1398 149.99 79.04 150.83 75.54 146.78C74.15 145.17 72.5999 144.57 71.2399 144.43C70.3699 155.31 76.16 156.63 72.79 160.5C71.23 162.63 69.2099 160.9 67.6799 162.43C69.1799 163.01 71.86 163.06 74.31 162.69C77.16 162.27 74.5 162.29 76.02 159.63Z" fill="#C2A44C"/>
<path d="M67.6599 162.42C69.1899 160.89 71.22 162.61 72.77 160.49C76.14 156.64 70.35 155.29 71.22 144.42C69.89 136.7 58.5899 141.93 55.6599 124.85C56.0899 127.65 54.9301 133.2 53.3201 137.08C51.3501 142.33 53.4299 146.78 49.8999 151.96C54.7299 157.05 60.2899 161.44 66.4199 164.95C66.6399 164.07 67.1199 162.91 67.6599 162.42Z" fill="#E6CB7A"/>
<path d="M140.22 155.14C140.98 151.81 142.03 147.78 142.78 144.82C144.08 139.65 139.75 140.17 135.11 142.07C130.46 143.96 125.3 149.47 120.82 152.75C116.34 156.03 112.38 156.36 104.98 160.49C97.82 164.51 96.9499 165.53 89.1399 168.93C87.1499 169.81 85.35 170.9 83.77 172.07C98.81 176.2 116.48 174.88 130.53 168.73C133.42 163.19 135.4 159.53 140.22 155.14Z" fill="#DCC67A"/>
<path d="M92.4099 113.17C93.7799 112.11 93.3699 110.72 93.1699 109.24C92.9999 107.81 91.3901 107.4 91.1001 105.4C90.8701 103.79 91.1201 102.04 90.6101 101.22C90.2301 101.2 89.85 101.18 89.47 101.16C89.83 101.14 90.1901 101.13 90.5501 101.13C89.7601 100.32 88.64 100.97 87.49 101.34C87.23 103.79 84.6199 103.95 83.6699 106.42C81.4599 110.58 80.8001 110.58 84.8701 111.93C87.1901 111.08 89.4 110.96 91.53 111.43C92.25 111.58 92.3899 111.74 92.1799 111.94C92.6999 112.05 92.5599 112.49 92.4099 113.17Z" fill="#CBAC5A"/>
<path d="M85.6899 117.73C82.8799 117.44 81.9 116.12 81.21 116.41C80.52 116.7 78.9101 117.9 77.3601 116.7C75.8101 115.49 75.2399 116.59 73.9399 117.85C72.6499 119.11 69.7201 119.57 68.1101 118.42C68.1101 118.42 69.89 120.89 73.28 121.06C76.67 121.23 75.12 120.31 77.24 120.66C77.64 120.72 78.1299 120.75 78.6899 120.74C78.1899 119.82 77.6699 118.9 77.1699 117.97C77.8499 118.84 78.44 119.77 78.98 120.74C83.13 120.44 87.56 119.78 89.21 116.94C88.1 117.49 86.8299 117.85 85.6899 117.73Z" fill="#CBAC5A"/>
<path d="M83.68 106.43C85.37 102.98 89.8001 102.75 86.2301 98.12C81.9101 93.45 81.8301 91.36 74.9901 93.29C75.2401 93.53 75.49 93.79 75.69 94.08C78.02 94.53 76.15 98.07 74.44 100.69C74.6 100.68 75.08 100.9 74.97 101.15C74.93 101.34 75.0302 101.36 74.8502 101.61C74.6702 101.86 74.4901 101.46 74.2801 101.15C74.2801 101.15 74.2902 100.98 74.3402 100.84C73.9802 101.4 73.6302 101.87 73.3302 102.32C73.6102 102.06 74.04 102.47 74.13 102.65C73.95 102.87 73.3302 102.97 73.1002 102.74C71.8802 105.49 74.8601 110.2 76.0201 111.49C77.2301 112.83 82.57 112.68 84.88 111.95C80.8 110.58 81.47 110.59 83.68 106.43ZM73.9 105.24C73.88 105.41 73.65 105.59 73.65 105.59L73.4 105.5C73.21 104.65 74.12 104.62 73.9 105.24ZM74.64 107.98C74.54 108.08 74.5001 108.17 74.2901 108.05C74.1601 107.94 73.88 107.95 74.13 107.76C74.34 107.6 74.4801 107.63 74.5401 107.76C74.6001 107.89 74.7 107.9 74.64 107.98ZM74.4901 104.12C73.9901 104.23 73.86 103.32 74.45 103.33C75.26 103.29 75.1801 103.96 74.4901 104.12ZM75.5501 106.31C75.3201 106.44 75.3 106.48 75.13 106.31C74.51 105.82 75.11 105.72 75.46 105.74C75.63 106.06 75.7801 106.18 75.5501 106.31ZM76.3001 108.42C75.8601 108.92 75.7002 108.61 75.8402 108.27C76.0902 108.04 76.2001 107.89 76.3001 108.06C76.3901 108.22 76.5201 108.22 76.3001 108.42ZM76.5401 103.56C76.3501 103.56 76.3101 103.79 76.2301 103.56C76.1501 103.33 76.17 103.35 76.13 103.22C76.08 102.9 76.52 103.07 76.67 103.03C76.66 103.23 76.7401 103.56 76.5401 103.56ZM77.18 110.19C77.14 110.45 76.7301 110.23 76.7601 110.08C76.8401 109.86 77.0702 109.67 77.1002 109.84C77.1302 110.01 77.21 110.1 77.18 110.19ZM77.88 105.83C77.71 105.98 77.19 105.79 77.17 105.64C77.56 105 78.33 105.44 77.88 105.83ZM78.42 108.69C77.94 108.26 78.7 108.24 78.68 108.47C78.68 108.47 78.55 108.77 78.42 108.69ZM78.6102 102.43C78.4402 102.22 78.3001 102.34 78.3201 102.13C78.3401 101.92 78.7401 101.74 78.7401 101.74C78.8701 101.74 79.1401 102.07 78.9901 102.24C78.8401 102.41 78.7802 102.64 78.6102 102.43ZM79.8201 105.47C79.4301 105.72 78.7701 105.72 79.0401 105.16C79.1501 105.02 79.7701 104.74 79.8201 104.87C79.9501 105.28 80.1401 105.35 79.8201 105.47ZM81.2701 101.15C81.1801 101.77 80.1 101.86 80.41 101.15C80.86 100.55 81.3301 100.86 81.2701 101.15Z" fill="#D0C283"/>
<path d="M68.1201 118.42C69.7301 119.57 72.66 119.11 73.95 117.85C75.24 116.59 75.8201 115.5 77.3701 116.7C78.9201 117.91 80.53 116.7 81.22 116.41C81.91 116.12 82.88 117.44 85.7 117.73C88.29 118.01 92.4699 115.61 92.4299 113.17C92.5799 112.49 92.72 112.05 92.21 111.95C87.64 114.28 81.37 116.67 75.49 114.58C72.27 113.58 70.6599 117.69 66.6899 117.1C67.1299 117.59 67.6301 118.07 68.1201 118.42Z" fill="#927C4A"/>
<path d="M61.7599 113.02C62.3099 113.78 63.1801 114.3 63.8701 114.8C64.7501 115.43 64.4599 116.93 66.6699 117.09C70.6499 117.67 72.2399 113.57 75.4699 114.57C78.6799 115.49 82.0098 115.78 84.6498 114.86C86.2898 114.2 94.51 111.95 91.54 111.43C89.78 112.53 87.5899 114.7 81.9599 113.82C73.2999 111.78 66.13 110.74 60.55 108.6C60.55 108.6 62.8401 107.34 68.1201 108.6C83.0901 114.19 75.8598 113.57 91.1398 111.35C89.0298 110.99 87.1098 111.11 84.8798 111.92C82.5698 112.65 77.23 112.8 76.02 111.46C74.85 110.16 71.88 105.45 73.1 102.71C74.35 100.59 78.8499 94.73 75.6899 94.05C77.3599 96.5 71.8598 98.3401 70.8798 100.69C71.2298 100.93 71.6499 101.29 71.9399 101.68C72.3899 102.28 71.7498 102.11 71.1498 102.89C70.5498 103.66 71.15 103.75 71.32 104.61C71.63 106.03 72.69 106.35 71.06 107.28C69.8 108.12 69.28 104.16 68.05 104.78C67.44 104.98 66.44 104.9 65.56 105.15C65.57 105.44 65.5398 105.65 65.3998 106.24C65.2198 106.82 65.29 105.51 65.29 105.17C64.8 105.18 64.3599 105.09 63.7499 105.04C62.7999 104.95 62.89 103.66 62.29 102.54C61.94 101.9 62 101.37 62.1 100.87C61.06 99.7601 60.52 98.7401 60.33 97.3101C59.3 100.32 57.7899 104.62 59.9099 107.04C60.9599 108.99 60.8299 111.19 61.7599 113.02Z" fill="#6E6443"/>
<path d="M67.6101 103.07C67.0201 103.19 66.4201 103.18 65.8401 103.07C65.6201 103.56 65.4801 104.6 65.5601 105.17C66.4301 104.91 67.4301 105 68.0501 104.8C68.6501 104.54 68.74 104.89 69.26 105.66C69.78 106.43 70.2901 107.81 71.0701 107.3C71.8401 106.78 72.02 106.7 71.93 106.18C71.84 105.66 71.5001 105.49 71.3301 104.63C71.1601 103.77 70.5599 103.68 71.1599 102.91C71.7599 102.14 72.41 102.31 71.95 101.7C71.66 101.32 71.2499 100.96 70.8899 100.71C70.0099 101.79 69.0601 102.77 67.6101 103.07Z" fill="#3E3320"/>
<path d="M62.08 100.89C61.97 101.39 61.9199 101.91 62.2699 102.56C62.8699 103.68 62.7899 104.97 63.7299 105.06C64.3499 105.12 64.7799 105.21 65.2699 105.19C65.2599 104.53 65.2198 103.35 65.1698 102.9C64.0198 102.52 62.93 101.77 62.08 100.89Z" fill="#3E3320"/>
<path d="M150.1 135.18C148.35 141.59 152.7 141.13 147.16 147.75C142.64 153.51 136.4 157.69 133.21 163.76C132.54 165.1 131.58 166.85 130.52 168.73C139.47 164.92 147.5 159.35 154.16 152.46C153.54 148.14 153.27 136.15 152.92 127.96C151.87 129.97 150.73 132.54 150.1 135.18Z" fill="#B78E3E"/>
<path d="M62.0801 100.89C62.9201 101.77 64.0099 102.52 65.1799 102.9C65.2999 103.01 65.1699 107.06 65.3899 106.26C65.5199 105.8 65.54 105.42 65.56 105.3C65.48 104.68 65.5801 103.61 65.8301 103.07C68.8201 103.78 70.64 101.03 72.22 99.01C73.39 97.65 77.1499 96.23 75.6799 94.07C73.0599 90.84 67.9201 89.85 64.0701 90.58C59.5201 91.4 59.1101 98 62.0801 100.89Z" fill="#25220F"/>
<path d="M106.89 82.5C106.02 82.53 104.46 85.15 102.74 86.22C101.11 87.63 97.1701 87.84 95.1101 87.31C94.1301 87.94 92.53 86.68 92.3 85.01C92.18 84.17 92.7099 82.73 93.7299 81.4C92.7599 81.54 93.01 81.27 92.28 82.14C91.55 83.01 91.2199 82.15 90.4799 83.61C89.6999 85.17 90.9899 84.86 91.6599 85.42C94.7399 90.67 106.79 87.72 106.89 82.5Z" fill="#47462A"/>
<path d="M106.83 82.26C106.59 81.53 105.81 81.11 105.24 80.87C105.85 81.35 106.5 81.84 106.83 82.26Z" fill="#47462A"/>
<path d="M97.74 84.67C97.31 83.8 97.3899 82.99 97.6899 82.29C96.3999 81.99 98.8699 79.7801 99.4399 79.5701C95.8099 79.4701 91.0601 85.0001 95.1001 87.3101C97.1701 87.8401 101.1 87.63 102.73 86.22C101.3 87.08 99.12 87.48 97.74 84.67Z" fill="#E8D99E"/>
<path d="M91.1399 111.36C75.8799 113.58 83.0701 114.19 68.1201 108.6C62.8401 107.34 60.55 108.6 60.55 108.6C66.13 110.74 73.3 111.79 81.96 113.82C85.9 115.22 93.1099 111.16 91.1399 111.36Z" fill="#25220F"/>
<path d="M72.9399 81.04C71.9799 81.53 70.3099 81.71 68.9099 80.35C67.4099 81.64 66.6898 77.49 67.3798 75.98C64.8398 78.25 67.9099 85.36 72.9399 81.04Z" fill="#47462A"/>
<path d="M93.95 81.11C92.89 82.33 92.1301 84.14 92.2901 85C92.5201 86.66 94.1302 87.93 95.1002 87.3C91.0502 84.98 95.82 79.46 99.44 79.56C100.01 79.33 100.93 79.28 100.86 80C100.59 81.07 98.69 82.27 97.69 82.28C96.47 85.69 100.63 88 102.74 86.21C104.17 85.35 106.13 82.65 106.53 82.59C106.8 82.55 107.05 82.54 106.84 82.25C103.65 78.83 97.66 76.3 93.95 81.11Z" fill="#25220F"/>
<path d="M70.02 74.5701C71.21 74.1301 71.9099 76.41 71.1699 76.35C70.4299 76.29 69.74 77.1501 69.28 78.1301C68.89 78.9501 69.3599 79.9 68.9199 80.35C72.1499 83.55 77.2501 78.8801 73.5901 74.9501C71.6901 72.7901 67.8801 73.6501 67.3601 76.1401C68.0101 75.0501 69.68 74.7001 70.02 74.5701ZM73.24 75.3301C74.24 75.1701 74.52 77.2601 73.52 77.3801C72.51 77.5301 72.23 75.4401 73.24 75.3301Z" fill="#25220F"/>
<path d="M97.4 81.6301C96.85 83.5301 100.99 80.9201 100.86 80.0101C100.46 78.2101 97.71 80.7101 97.4 81.6301Z" fill="#F9FDEF"/>
<path d="M73.51 77.3801C74.51 77.2701 74.23 75.1701 73.23 75.3301C72.23 75.4401 72.51 77.5301 73.51 77.3801Z" fill="#F9FDEF"/>
<path d="M69.2699 78.1301C69.7299 77.1501 70.4198 76.2901 71.1598 76.3501C71.8998 76.4101 71.1999 74.1301 70.0099 74.5701C69.4499 74.6601 66.8 75.6001 67.08 77.2101C67.21 79.3101 67.5998 81.2401 68.8998 80.3401C69.3598 79.9001 68.8899 78.9501 69.2699 78.1301Z" fill="#E8D99E"/>
<path d="M138.6 122.55C137.57 121.4 142.39 116.93 142.77 115.5C143.16 114.07 139.63 119.68 136.53 122.55C133.43 125.42 129.3 127.8 129.3 127.8C128.08 128.55 128.11 129.93 128.99 129.78C129.87 129.63 129.83 129.59 129.98 130.28C130.13 130.97 128.87 131.43 128.91 132.08C128.95 132.73 129.98 131.16 131.36 131.16C134.2 130.81 123.1 141.1 129.29 137.3C134.75 134.19 136.34 132.22 139.11 126.58C141.37 122.3 141.14 124.19 138.6 122.55Z" fill="#A67B2F"/>
<path d="M126.09 59.8201C127.12 59.2501 128.56 59.4801 127.35 60.5701C126.14 61.6601 125.46 62.59 127.01 61.58C128.56 60.57 129.94 60.57 128.39 61.66C126.84 62.75 125.69 63.77 124.95 64.81C123.61 67.55 120.78 68.2601 121.73 68.9501C122.37 69.4701 124.14 68.4 124.32 69.34C124.49 70.27 124.28 71.8201 125.62 70.7301C128.06 68.8101 130.81 62.9101 132.11 60.5101C132.98 59.3601 136.22 54.45 129.71 56.72C128.36 56.77 122.27 57.96 121.79 60.97C121.65 61.75 121.7 61.69 122.46 61.3C123.77 60.6 125.07 60.4001 126.09 59.8201Z" fill="#533F26"/>
<path d="M85.46 48.06L84.9299 52.54C84.9299 52.54 83.8401 52.99 82.6201 53.28C83.1101 53.82 84.6999 54.95 84.9299 55.01C85.1699 55.12 91.3601 53.39 91.3601 53.39C86.3401 52.19 86.37 47.11 85.26 43.86C85.55 45.58 85.46 48.06 85.46 48.06Z" fill="#B58636"/>
<path d="M80.7 44.4401C80.92 48.2001 78.65 51.8101 76.75 54.8101C76.91 54.7201 77.07 54.6401 77.22 54.5601C77.87 55.1401 79.5499 53.5901 81.1599 53.5101C82.0299 53.5601 84.8699 52.6201 84.9299 52.5301C85.6499 46.3901 86.91 42.75 80.01 38.8C80.9 40.1 80.65 43.4901 80.7 44.4401Z" fill="#CCA03F"/>
<path d="M128.56 69.77C128.45 71.3 128.16 71.92 129.36 72.13C130.57 72.34 131.71 71.38 131.2 72.29C130.68 73.2 130.8 73.26 129.77 73.37C128.74 73.48 127.51 72.43 127.61 73.73C127.82 76.17 128.74 76.17 130.78 76.25C132.9 76.3 131.73 75.89 132.23 74.21C133.17 70.8 135.6 66.89 135.8 63.62C135.06 64.15 132.59 65.96 131.67 66.69C130.17 67.86 128.67 68.24 128.56 69.77Z" fill="#AF8E3F"/>
<path d="M75.87 41.23C75.99 45.49 77.41 52.45 75.09 55.69C73.74 57.92 72.8898 59.32 72.4198 61.11C72.1698 61.91 72.98 60.7 73.37 60.17C75.01 57.87 74.9499 57.14 75.7599 56.13C76.5299 55.16 77.9199 53.22 78.2499 52.3C78.5799 51.39 79.8199 49.84 80.2299 48.12C80.6399 46.4 80.7498 45.71 80.6998 44.45C80.6598 43.49 80.9099 40.11 80.0099 38.81C79.5899 38.63 79.1699 38.39 78.7399 38.36C78.7399 38.36 75.59 38.88 75.87 41.23Z" fill="#E0C069"/>
<path d="M62.6202 79.5301C64.1702 77.8501 64.0002 75.8701 62.6202 75.9501C61.2402 76.0401 60.32 76.8101 59.19 78.1001C58.06 79.3901 57.97 78.8701 57.2 79.9101C56.43 80.9401 56.43 81.0301 56.17 81.4601C56 81.6901 55.53 83.0201 55.48 83.1801C55.31 84.0401 53.4999 86.8801 55.9099 85.2501C58.3199 83.6201 58.23 82.0601 59.7 81.1201C61.29 80.2401 61.4902 80.9001 62.6202 79.5301Z" fill="#F5F0C8"/>
<path d="M80.41 101.15C80.1 101.86 81.1801 101.77 81.2701 101.15C81.3301 100.86 80.86 100.55 80.41 101.15Z" fill="#35301B"/>
<path d="M78.7401 101.74C78.7401 101.74 78.3401 101.91 78.3201 102.13C78.3001 102.34 78.4302 102.22 78.6102 102.43C78.7902 102.64 78.8401 102.41 78.9901 102.24C79.1401 102.07 78.8801 101.74 78.7401 101.74Z" fill="#35301B"/>
<path d="M76.24 103.02C76.06 103.11 76.17 103.31 76.24 103.56C76.32 103.79 76.3501 103.56 76.5501 103.56C76.7401 103.56 76.66 103.23 76.68 103.02H76.24Z" fill="#35301B"/>
<path d="M79.0401 105.16C78.7601 105.72 79.4201 105.72 79.8201 105.47C80.1501 105.36 79.9501 105.28 79.8201 104.88C79.7701 104.75 79.1401 105.02 79.0401 105.16Z" fill="#35301B"/>
<path d="M77.1799 105.64C77.1999 105.78 77.7199 105.98 77.8899 105.83C78.3299 105.45 77.5699 104.99 77.1799 105.64Z" fill="#35301B"/>
<path d="M74.8602 105.89C74.8202 106.05 74.9599 106.14 75.1299 106.31C75.2999 106.48 75.3201 106.44 75.5501 106.31C75.7801 106.18 75.63 106.06 75.45 105.74C75.45 105.74 74.9002 105.74 74.8602 105.89Z" fill="#35301B"/>
<path d="M73.7901 104.84C73.2701 104.67 73.4099 105.5 73.4099 105.5L73.6599 105.59C73.7699 105.54 74.1801 104.94 73.7901 104.84Z" fill="#35301B"/>
<path d="M75.0501 103.64C74.8901 103.02 73.5999 103.4 74.1799 104.02C74.4199 104.32 75.0101 103.95 75.0501 103.64Z" fill="#35301B"/>
<path d="M73.3999 102.85C74.0799 102.88 74.3999 102.6 73.6699 102.22C73.2499 102.17 72.7299 102.8 73.3999 102.85Z" fill="#35301B"/>
<path d="M74.8501 101.59C75.0301 101.34 74.93 101.32 74.97 101.13C75.08 100.89 74.6 100.66 74.44 100.67C74.33 100.7 74.2801 101.12 74.2901 101.13C74.5001 101.43 74.6801 101.83 74.8501 101.59Z" fill="#35301B"/>
<path d="M75.84 108.26C75.7 108.6 75.86 108.91 76.3 108.41C76.53 108.22 76.4 108.22 76.3 108.05C76.2 107.88 76.08 108.03 75.84 108.26Z" fill="#35301B"/>
<path d="M78.32 108.34C78.32 108.34 78.1498 108.53 78.4198 108.7C78.6998 108.71 78.84 108.23 78.32 108.34Z" fill="#35301B"/>
<path d="M76.7501 110.09C76.7201 110.23 77.13 110.46 77.17 110.2C77.19 109.9 77.0001 109.53 76.7501 110.09Z" fill="#35301B"/>
<path d="M74.13 107.76C73.88 107.95 74.1501 107.93 74.2901 108.05C74.4201 108.16 74.5802 108.05 74.5802 108.05C74.7002 107.94 74.6701 107.94 74.5401 107.76C74.4801 107.63 74.34 107.61 74.13 107.76Z" fill="#35301B"/>
<path d="M90.6201 101.22C94.8201 101.56 99.2799 101.56 103.16 103.37C99.0499 101.1 94.05 101.15 89.47 101.17C89.86 101.18 90.2401 101.2 90.6201 101.22Z" fill="#CAAE5B"/>
<path d="M56.9099 109.26C57.1299 108.81 57.35 108.35 57.54 107.88C56.43 109.57 55.4599 111.36 54.6599 113.23C55.5099 111.96 56.2299 110.62 56.9099 109.26Z" fill="#CAAE5B"/>
<path d="M52.53 107.76C52.09 108.18 51.67 108.62 51.25 109.07C53.16 107.56 54.9699 105.92 56.6399 104.14C55.1999 105.26 53.85 106.49 52.53 107.76Z" fill="#CAAE5B"/>
<path d="M52.0801 94.35C52.7001 94.4 53.32 94.45 53.95 94.49C49.03 93.78 44.0201 93.24 39.0601 92.88C43.3601 93.51 47.7501 93.98 52.0801 94.35Z" fill="#CAAE5B"/>
<path d="M52.3999 97.47C48.4899 98.36 44.6201 99.43 40.8101 100.66C44.7201 99.77 48.5899 98.71 52.3999 97.47Z" fill="#CAAE5B"/>
<path d="M52 99.65C48.31 101.13 44.6899 102.77 41.1499 104.57C44.8399 103.09 48.46 101.45 52 99.65Z" fill="#CAAE5B"/>
<path d="M52.47 101.6C52.96 101.29 53.46 100.99 53.95 100.67C49.84 102.84 45.7701 105.19 41.8401 107.66C45.4301 105.77 49 103.7 52.47 101.6Z" fill="#CAAE5B"/>
<path d="M50.29 105.7C51 105.19 51.7099 104.67 52.3999 104.14C49.4099 105.96 46.52 107.94 43.73 110.05C45.98 108.7 48.15 107.22 50.29 105.7Z" fill="#CAAE5B"/>
<path d="M55.51 89.7001C56.17 90.3001 56.85 90.8701 57.54 91.4501C55.05 88.8901 52.44 86.46 49.71 84.16C51.56 86.08 53.52 87.9101 55.51 89.7001Z" fill="#CAAE5B"/>
<path d="M86.05 127.47C85.45 126.31 84.77 125.19 83.97 124.16C85.18 126.41 86.6 128.7 87.3 131.16C87.16 129.86 86.63 128.63 86.05 127.47Z" fill="#CAAE5B"/>
<path d="M63.4199 119.89C62.9699 121.26 62.77 122.72 62.73 124.16C63.18 122.61 63.25 120.88 63.71 119.34C63.57 119.49 63.4999 119.7 63.4199 119.89Z" fill="#CAAE5B"/>
<path d="M61.63 118.54C61.52 118.98 61.3901 119.45 61.4701 119.91C61.7401 119.04 62.06 118.19 62.16 117.27C61.92 117.67 61.76 118.1 61.63 118.54Z" fill="#CAAE5B"/>
<path d="M77.1899 117.96C78.2499 120.02 79.5601 121.96 80.3401 124.16C79.9001 121.86 78.5499 119.82 77.1899 117.96Z" fill="#CAAE5B"/>
<g opacity="0.77">
<path d="M61.6899 125.39H71.95V82.03H61.6899V59.08H104.02C132.85 59.08 146.78 73.24 146.78 102.57C146.78 132.67 132.2 148.35 104.13 148.35H61.6899V125.39ZM104.88 127.43C115.14 127.43 120.11 119.65 120.11 103.33C120.11 87.26 115.36 79.99 104.88 79.99H97.8601V127.43H104.88Z" fill="white"/>
</g>
</svg>
