<svg width="145" height="144" viewBox="0 0 145 144" fill="none" xmlns="http://www.w3.org/2000/svg">
<path d="M72.5701 143.97C112.208 143.97 144.34 111.837 144.34 72.2C144.34 32.5625 112.208 0.429993 72.5701 0.429993C32.9326 0.429993 0.800049 32.5625 0.800049 72.2C0.800049 111.837 32.9326 143.97 72.5701 143.97Z" fill="#E6047A"/>
<path d="M72.5701 43.07C82.7984 43.07 91.0901 38.3108 91.0901 32.44C91.0901 26.5692 82.7984 21.81 72.5701 21.81C62.3418 21.81 54.05 26.5692 54.05 32.44C54.05 38.3108 62.3418 43.07 72.5701 43.07Z" fill="white"/>
<path d="M72.5701 122.6C82.7984 122.6 91.0901 117.841 91.0901 111.97C91.0901 106.099 82.7984 101.34 72.5701 101.34C62.3418 101.34 54.05 106.099 54.05 111.97C54.05 117.841 62.3418 122.6 72.5701 122.6Z" fill="white"/>
<path d="M116.28 68.52C121.38 65.6 121.39 56.04 116.31 47.17C111.23 38.29 102.98 33.46 97.8798 36.38C92.7798 39.3 92.77 48.86 97.85 57.73C102.93 66.61 111.18 71.44 116.28 68.52Z" fill="white"/>
<path d="M47.1952 108.011C52.2904 105.095 52.3024 95.5348 47.222 86.6576C42.1416 77.7804 33.8927 72.9479 28.7974 75.8639C23.7022 78.78 23.69 88.3403 28.7704 97.2174C33.8508 106.095 42.0999 110.927 47.1952 108.011Z" fill="white"/>
<path d="M115.988 97.538C121.15 88.7079 121.226 79.1477 116.158 76.1847C111.09 73.2218 102.796 77.978 97.6342 86.8081C92.4719 95.6382 92.3957 105.198 97.464 108.161C102.532 111.124 110.826 106.368 115.988 97.538Z" fill="white"/>
<path d="M47.5901 36.14C42.5201 33.18 34.2301 37.93 29.0601 46.76C23.9001 55.59 23.8199 65.15 28.8899 68.11C33.9599 71.07 42.25 66.32 47.42 57.49C52.58 48.67 52.6601 39.11 47.5901 36.14Z" fill="white"/>
</svg>
