<svg width="167" height="167" viewBox="0 0 167 167" fill="none" xmlns="http://www.w3.org/2000/svg">
<path d="M95.4712 154.611C134.797 148.078 161.38 110.901 154.846 71.5753C148.313 32.2496 111.136 5.66637 71.8105 12.2001C32.4848 18.7338 5.90159 55.9102 12.4353 95.2359C18.969 134.562 56.1454 161.145 95.4712 154.611Z" fill="#ECEFF0"/>
<path d="M77.65 41.93C75.35 42.28 73.1 42.84 70.9 43.61C67.01 44.97 63.45 46.94 60.16 49.41C59.94 49.58 59.72 49.75 59.5 49.92C59.55 49.97 59.58 50.01 59.62 50.04C62.64 53.08 65.67 56.13 68.69 59.18C68.83 59.32 68.91 59.32 69.07 59.22C70.67 58.17 72.37 57.31 74.16 56.65C76.58 55.75 79.09 55.24 81.67 55.05C83.93 54.88 86.18 54.98 88.41 55.37C91.66 55.94 94.69 57.09 97.52 58.78C97.83 58.96 98.14 59.15 98.39 59.31C101.55 56.16 104.68 53.02 107.82 49.89C107.82 49.89 107.8 49.87 107.78 49.85C107.5 49.64 107.22 49.43 106.94 49.23C104.09 47.17 101.06 45.44 97.79 44.14C94 42.64 90.07 41.77 86 41.54C85.61 41.52 85.22 41.49 84.83 41.47C84.02 41.47 83.21 41.47 82.41 41.47C82.35 41.48 82.29 41.5 82.23 41.5C80.69 41.56 79.17 41.7 77.65 41.93Z" fill="black"/>
<path d="M88.84 124.9C91.4 124.59 93.9 123.96 96.33 123.1C100.42 121.65 104.15 119.55 107.6 116.94C107.64 116.91 107.68 116.87 107.72 116.83C107.69 116.8 107.68 116.78 107.66 116.76C104.61 113.69 101.55 110.61 98.4999 107.53C98.3799 107.41 98.31 107.45 98.2 107.52C94.6 109.92 90.6599 111.41 86.3599 111.9C83.8399 112.18 81.3399 112.08 78.8499 111.65C75.7999 111.11 72.9399 110.05 70.2899 108.42C69.7999 108.12 69.33 107.81 68.84 107.49C65.71 110.6 62.5699 113.72 59.4299 116.84C59.4999 116.9 59.54 116.93 59.59 116.96C61.4 118.36 63.2999 119.62 65.3099 120.72C67.6299 121.98 70.0599 123 72.5999 123.75C75.3599 124.57 78.1799 125.05 81.0499 125.22C81.3999 125.24 81.7599 125.27 82.1099 125.29C82.9699 125.29 83.84 125.29 84.7 125.29C84.77 125.28 84.8499 125.26 84.9199 125.26C86.2299 125.13 87.54 125.06 88.84 124.9Z" fill="black"/>
<path d="M117.44 123.57C121.08 123.56 124.04 120.59 124.04 116.96C124.04 113.33 121.07 110.36 117.43 110.36C113.76 110.36 110.82 113.31 110.83 116.98C110.83 120.61 113.81 123.58 117.44 123.57Z" fill="black"/>
<path d="M117.57 42.92C113.97 42.9 111.03 45.86 111.02 49.52C111 53.15 113.94 56.13 117.55 56.14C121.15 56.15 124.09 53.19 124.11 49.54C124.12 45.9 121.19 42.93 117.57 42.92Z" fill="black"/>
<path d="M49.9999 110.36C46.3899 110.36 43.45 113.32 43.45 116.97C43.45 120.61 46.3699 123.56 49.9799 123.57C53.5699 123.58 56.5399 120.59 56.5399 116.96C56.5499 113.31 53.6199 110.36 49.9999 110.36Z" fill="black"/>
<path d="M49.8999 42.92C46.2899 42.87 43.3099 45.8 43.2599 49.44C43.2199 52.99 46.1999 55.97 49.8299 56.02C53.4399 56.07 56.4299 53.15 56.4799 49.53C56.5399 45.95 53.5699 42.97 49.8999 42.92Z" fill="black"/>
<path d="M98.0801 69.13C97.5201 68.66 96.8701 68.54 96.1801 68.78C95.1401 69.14 94.7701 70.39 95.4601 71.16C95.8201 71.56 96.2501 71.81 96.8201 71.77C96.8201 71.79 96.8301 71.81 96.8301 71.82C97.1001 71.75 97.3901 71.71 97.6401 71.6C98.6801 71.13 98.9001 69.83 98.0801 69.13Z" fill="black"/>
<path d="M76.14 90.86C75.51 90.26 74.38 90.25 73.73 90.83C73.21 91.29 73.05 91.9301 73.3 92.5301C73.56 93.1401 74.25 93.57 74.88 93.54C75.05 93.52 75.23 93.51 75.39 93.47C76 93.31 76.42 92.92 76.6 92.31C76.76 91.74 76.55 91.26 76.14 90.86Z" fill="black"/>
<path d="M109.59 55.48C108.77 55.63 108.2 56.39 108.28 57.18C108.36 57.89 109.15 58.58 109.94 58.57C110.32 58.58 110.72 58.44 111.09 58.19C111.8 57.7 111.95 56.77 111.41 56.1C110.94 55.53 110.31 55.35 109.59 55.48Z" fill="black"/>
<path d="M60.59 62.75C61.28 63.21 61.96 63.14 62.63 62.75C63.1 62.48 63.3299 62.05 63.3499 61.51C63.3599 61.22 63.27 60.96 63.11 60.72C62.56 59.91 61.46 59.71 60.59 60.26C59.66 60.87 59.67 62.14 60.59 62.75Z" fill="black"/>
<path d="M74.93 76.18C75.66 76.35 76.48 75.37 76.51 74.74C76.56 73.88 75.89 73.14 74.96 73.06C74.07 72.99 73.25 73.65 73.18 74.51C73.11 75.41 73.98 76.22 74.93 76.18Z" fill="black"/>
<path d="M88.01 86.02C87.96 86.02 87.88 86.02 87.81 86.03C87.17 86.13 86.73 86.5 86.49 87.09C86.27 87.64 86.43 88.14 86.82 88.57C87.15 88.94 87.58 89.05 88.05 89.14C88.78 89.29 89.71 88.35 89.73 87.66C89.75 86.77 89.01 86.02 88.01 86.02Z" fill="black"/>
<path d="M61.68 103.63C61.09 103.65 60.58 103.9 60.24 104.45C59.72 105.29 60.1701 106.25 61.0301 106.64C61.7301 106.95 62.73 106.61 63.13 105.96C63.41 105.5 63.44 105.01 63.18 104.53C62.87 103.96 62.39 103.64 61.68 103.63Z" fill="black"/>
<path d="M110.19 111.15C110.74 111.17 111.49 110.58 111.67 109.98C111.91 109.2 111.41 108.36 110.55 108.1C109.49 107.78 108.4 108.54 108.39 109.58C108.4 109.68 108.41 109.77 108.43 109.87C108.6 110.59 109.32 111.11 110.19 111.15Z" fill="black"/>
<path d="M92.55 73.05C91.68 73.06 91 73.75 90.98 74.62C90.96 75.41 91.71 76.2 92.36 76.19C93.41 76.17 94.12 75.55 94.12 74.58C94.16 73.64 93.33 73.05 92.55 73.05Z" fill="black"/>
<path d="M79.31 86.02C78.42 86.03 77.75 86.71 77.76 87.59C77.77 88.39 78.46 89.16 79.15 89.15C80.2 89.13 80.9 88.47 80.89 87.52C80.89 86.67 80.2 86.01 79.31 86.02Z" fill="black"/>
<path d="M105.74 103.63C104.84 103.62 104.15 104.28 104.14 105.15C104.13 106.04 104.83 106.74 105.72 106.75C106.59 106.77 107.31 106.02 107.28 105.21C107.29 104.33 106.62 103.64 105.74 103.63Z" fill="black"/>
<path d="M57.39 55.44C56.5 55.42 55.8 56.06 55.77 56.91C55.74 57.88 56.41 58.53 57.46 58.57C58.17 58.59 58.87 57.8501 58.9 57.0301C58.94 56.1901 58.24 55.46 57.39 55.44Z" fill="black"/>
<path d="M66.2001 99.24C65.1701 99.22 64.62 100.06 64.6 100.79C64.57 101.67 65.3 102.36 66.17 102.36C67.03 102.36 67.73 101.67 67.74 100.8C67.74 99.94 67.0701 99.26 66.2001 99.24Z" fill="black"/>
<path d="M101.08 99.24C100.03 99.23 99.5 100.11 99.5 100.79C99.5 101.66 100.18 102.36 101.05 102.37C101.92 102.38 102.65 101.69 102.64 100.82C102.63 99.94 101.96 99.25 101.08 99.24Z" fill="black"/>
<path d="M70.56 68.67C69.68 68.67 68.99 69.35 68.99 70.22C68.99 71.02 69.66 71.83 70.57 71.79C71.56 71.86 72.14 70.89 72.13 70.23C72.12 69.35 71.44 68.67 70.56 68.67Z" fill="black"/>
<path d="M79.33 77.44C78.45 77.44 77.77 78.11 77.77 78.98C77.77 79.86 78.46 80.56 79.32 80.56C80.2 80.56 80.9 79.88 80.9 79.02C80.91 78.14 80.21 77.43 79.33 77.44Z" fill="black"/>
<path d="M83.73 81.89C82.84 81.88 82.16 82.54 82.15 83.4C82.14 84.29 82.82 84.99 83.7 85.01C84.56 85.03 85.28 84.32 85.29 83.46C85.29 82.59 84.61 81.9 83.73 81.89Z" fill="black"/>
<path d="M57.33 108.02C56.44 108.02 55.77 108.7 55.77 109.59C55.77 110.39 56.49 111.15 57.21 111.15C58.36 111.15 58.88 110.31 58.9 109.56C58.92 108.69 58.22 108.02 57.33 108.02Z" fill="black"/>
<path d="M96.93 94.85C96.05 94.86 95.36 95.55 95.37 96.42C95.38 97.27 96.09 97.98 96.93 97.98C97.7 97.97 98.52 97.38 98.51 96.4C98.5 95.52 97.82 94.85 96.93 94.85Z" fill="black"/>
<path d="M87.97 80.56C88.84 80.56 89.55 79.85 89.55 78.98C89.55 78.12 88.87 77.45 87.98 77.44C87.11 77.43 86.42 78.12 86.41 79C86.4 79.86 87.1 80.56 87.97 80.56Z" fill="black"/>
<path d="M70.56 94.85C69.68 94.85 69 95.53 68.99 96.41C68.99 97.36 69.8 97.95 70.57 97.98C71.42 98 72.13 97.28 72.13 96.41C72.13 95.53 71.44 94.85 70.56 94.85Z" fill="black"/>
<path d="M92.56 90.41C91.52 90.4 90.99 91.25 90.99 91.97C90.99 92.87 91.72 93.55 92.69 93.54C93.43 93.54 94.12 92.78 94.13 91.97C94.13 91.27 93.59 90.39 92.56 90.41Z" fill="black"/>
<path d="M66.17 64.2801C65.28 64.2801 64.6 64.9601 64.61 65.8401C64.62 66.7001 65.31 67.4 66.17 67.39C66.94 67.38 67.76 66.8 67.75 65.81C67.73 65.14 67.21 64.2701 66.17 64.2801Z" fill="black"/>
<path d="M101.13 64.28C100.25 64.28 99.5799 64.95 99.5599 65.82C99.5499 66.69 100.25 67.39 101.14 67.39C102.01 67.39 102.7 66.69 102.7 65.82C102.7 64.95 102.02 64.28 101.13 64.28Z" fill="black"/>
<path d="M105.71 63.08C106.55 63.08 107.28 62.35 107.28 61.51C107.28 60.64 106.58 59.95 105.71 59.95C104.85 59.95 104.15 60.64 104.15 61.49C104.14 62.34 104.87 63.08 105.71 63.08Z" fill="black"/>
<path d="M125.08 77.4C124.73 75.1 124.17 72.85 123.4 70.65C122.04 66.76 120.07 63.2 117.6 59.91C117.43 59.69 117.26 59.47 117.09 59.25C117.04 59.3 117 59.33 116.97 59.37C113.93 62.39 110.88 65.42 107.83 68.44C107.69 68.58 107.69 68.66 107.79 68.82C108.84 70.42 109.7 72.12 110.36 73.91C111.26 76.33 111.77 78.84 111.96 81.42C112.13 83.68 112.03 85.93 111.64 88.16C111.07 91.41 109.92 94.44 108.23 97.27C108.05 97.58 107.86 97.89 107.7 98.14C110.85 101.3 113.99 104.43 117.12 107.57C117.12 107.57 117.14 107.55 117.16 107.53C117.37 107.25 117.58 106.97 117.78 106.69C119.84 103.84 121.57 100.81 122.87 97.54C124.37 93.75 125.24 89.82 125.47 85.75C125.49 85.36 125.52 84.97 125.54 84.58C125.54 83.77 125.54 82.96 125.54 82.16C125.53 82.1 125.51 82.04 125.51 81.98C125.45 80.44 125.31 78.92 125.08 77.4Z" fill="black"/>
<path d="M42.11 88.59C42.42 91.15 43.05 93.65 43.91 96.08C45.36 100.17 47.46 103.9 50.07 107.35C50.1 107.39 50.14 107.43 50.18 107.47C50.21 107.44 50.23 107.43 50.25 107.41C53.32 104.36 56.4 101.3 59.48 98.25C59.6 98.13 59.56 98.06 59.49 97.95C57.09 94.35 55.6 90.41 55.11 86.11C54.83 83.59 54.93 81.09 55.36 78.6C55.9 75.55 56.96 72.69 58.59 70.04C58.89 69.55 59.2 69.08 59.52 68.59C56.41 65.46 53.29 62.32 50.17 59.18C50.11 59.25 50.08 59.29 50.05 59.34C48.65 61.15 47.39 63.05 46.29 65.06C45.03 67.38 44.01 69.81 43.26 72.35C42.44 75.11 41.96 77.93 41.79 80.8C41.77 81.15 41.74 81.51 41.72 81.86C41.72 82.72 41.72 83.59 41.72 84.45C41.73 84.52 41.75 84.6 41.75 84.67C41.87 85.98 41.95 87.29 42.11 88.59Z" fill="black"/>
</svg>
