<svg width="146" height="146" viewBox="0 0 146 146" fill="none" xmlns="http://www.w3.org/2000/svg">
<path d="M72.9399 145.07C112.804 145.07 145.12 112.754 145.12 72.89C145.12 33.0261 112.804 0.709961 72.9399 0.709961C33.076 0.709961 0.76001 33.0261 0.76001 72.89C0.76001 112.754 33.076 145.07 72.9399 145.07Z" fill="#F4F4F4"/>
<path d="M44.03 32.22C44.03 32.22 38.47 30.64 36.63 31.84C34.8 33.04 32.61 34.83 32.52 39.78C32.43 44.73 31.83 48.94 32.6 53.99C33.36 59.03 31.77 64.39 31.58 64.66C31.39 64.93 28.6899 76.6 28.6899 76.6L26.13 83.98L24.52 90.99L22.9 93.61L24.86 97.22L27.74 100.15L119.09 99.9L122 98.4301L123.53 96.15L126.07 93.75C126.07 93.75 122.55 88.9601 122.34 86.0501C122.13 83.1401 117.56 66.64 117.56 66.64L115.99 46.1L115.13 37.28C115.13 37.28 114.16 32.74 112.65 32.25C111.14 31.76 107.71 32.15 107.09 31.87C106.47 31.59 102.9 32.87 102.9 32.87L101.07 36.6L100.02 39.28L95.77 33.72L44.03 32.22Z" fill="url(#paint0_radial_1_7995)"/>
<path d="M97.4 45.72C97.4 45.72 102.5 48.2901 103.42 49.1701L112.24 48.61C112.24 48.61 113.04 30.59 102.89 37.86L97.4 45.72Z" fill="white"/>
<path d="M43.58 37.1C43.43 36.98 37.69 33.5 36.71 39.78C35.73 46.06 36.97 54.92 38.08 57.6C38.08 57.6 41.8801 50.9601 50.0601 46.8101C50.0601 46.8101 52.41 44.3 43.58 37.1Z" fill="white"/>
<path d="M32.6 53.99L33.92 63.12C33.92 63.12 32.16 68.38 32.12 71.05C32.09 73.72 30.68 83.3199 30.68 83.3199C30.68 83.3199 29.95 81.3299 29.59 76.8199C29.23 72.3099 28.84 64.72 28.84 64.72C28.84 64.72 26.66 56.8 32.6 53.99Z" fill="#614717"/>
<path d="M31.51 44.52C31.51 44.52 29.61 47.48 22.55 47.59L23.28 50.12H21.25C21.25 50.12 24.81 54.47 31.67 51.58C31.67 51.58 32.21 45.52 31.51 44.52Z" fill="#80704F"/>
<path d="M51.83 44.52C51.83 44.52 43.3801 42.73 40.3101 38.47C40.3101 38.47 40.31 49.7499 52.42 46.0699L57.48 45.21C57.48 45.21 56.88 44.67 58.38 44.74C59.88 44.82 60.21 44.74 60.21 44.74C60.21 44.74 58.31 42.08 59.95 42.6C61.59 43.12 63.94 44.95 67.87 44.1C67.87 44.1 65.7499 42.33 65.0699 41.91C65.0699 41.91 76.4 44.15 82.21 42.53C82.21 42.53 77.6301 39.98 77.5601 40.24C77.4901 40.5 85.33 42.33 88.78 40.96L91.3101 42.53L92.48 42.61L93.37 40.98L94.14 43.13L96.28 42.53L97.4 45.73L102.31 39C102.31 39 105.4 33.88 104.08 29.83C102.76 25.78 97.76 22.6201 94.98 22.4301C94.98 22.4301 99.69 27.8 100.48 31.33C101.27 34.86 100.02 39.25 100.02 39.25L98.52 30.91C98.52 30.91 96.41 24.68 90.53 23.14C84.65 21.6 74.95 22.03 74.95 22.03L67.75 20.79L73.4301 24.96C73.4301 24.96 67.53 24.59 65.65 24.13C63.76 23.67 58.98 21.44 58.13 16.86C58.13 16.86 54.74 23.04 55.42 27.02C55.42 27.02 55.3599 28.18 54.0699 27.53C52.7799 26.88 50.28 23.73 50.28 23.73C50.28 23.73 47.07 28.98 47.2 30.48C47.2 30.48 45.3 27.99 44.58 24.91L42.29 31.79C42.29 31.79 42.42 36.9599 44.97 39.3199C47.5 41.6799 51.83 44.52 51.83 44.52Z" fill="url(#paint1_radial_1_7995)"/>
<path d="M102.89 49.9301C102.89 49.9301 104.18 53.7899 105.6 54.9399C107.02 56.0899 109.89 56.9399 109.89 56.9399L105.46 57.85L109.1 60.33L107.8 62.01L114.12 65.77L110.62 67.36L116.4 71.02C116.4 71.02 116.11 81.77 116.41 81.66C116.71 81.55 119.09 75.48 119.09 75.48L121.73 80.6801V74.15L124.17 75L120.24 68.62L117.42 64.35L121.72 65.25L120.68 62.4399L121.25 62.02L121.13 61.1801C121.13 61.1801 121.9 59.04 121.72 59.04C121.54 59.04 118.53 59.04 118.53 59.04L120.7 55.39L121.99 53.34C121.99 53.34 121.16 51.49 120.76 51.47C120.36 51.45 116.09 49.4601 115.45 49.4301C114.8 49.4101 107.93 48.62 107.93 48.62L102.89 49.9301Z" fill="#5A4D45"/>
<path d="M26.1199 99.15C26.1199 99.15 24.2099 90.7 31.1899 88.94C38.1599 87.17 43.4999 93.65 49.7199 95.86C55.9399 98.07 57.8 97.14 64.28 93.45C70.76 89.77 74.4699 90.4101 74.4699 90.4101C74.4699 90.4101 80.24 90.45 85.4 94.33C90.56 98.21 95.37 97.5201 97.43 96.5401C99.49 95.5601 111.18 87.54 116.73 88.63C122.28 89.72 122.13 95.9001 122.01 98.4101C122.01 98.4101 112.36 111.42 103.67 116.14C94.98 120.85 91.8399 123.01 86.0899 124.98C80.3499 126.94 75.9699 130.89 75.9699 130.89H72.3399C72.3399 130.89 66.78 126.22 63.16 125.37C59.54 124.53 48.18 118.74 48.04 118.74C47.89 118.74 34.8799 109.5 34.7299 109.4C34.5799 109.3 26.1199 99.15 26.1199 99.15Z" fill="url(#paint2_radial_1_7995)"/>
<path d="M44.54 76.9C44.54 76.9 49.25 76.16 52.45 78.86C54.29 80.42 56.7601 81.27 59.1801 80.96C60.4801 80.8 61.86 80.17 62.52 78.98C64.01 76.3 61.41 73.2301 58.78 72.6801C55.99 72.1001 52.8401 72.59 50.1801 73.52C49.1401 73.89 48.12 74.3501 47.17 74.9101C46.7 75.1901 46.24 75.49 45.8 75.83C45.51 76.05 44.86 76.85 44.54 76.9Z" fill="white"/>
<path d="M98.5101 72.19C98.5101 72.19 92.27 67.87 85.35 70.62C78.43 73.37 81.3201 77.5901 82.4001 78.2801C83.4801 78.9701 87.06 80.55 90.21 76.74C93.36 72.93 98.5101 72.19 98.5101 72.19Z" fill="white"/>
<path d="M74.1099 116.63C74.1099 116.63 76.85 116.29 76.76 117.86C76.67 119.43 75.34 119.48 73.76 119.38C72.19 119.28 69.5899 117.31 74.1099 116.63Z" fill="#E6E6E6"/>
<path d="M50.84 85.54C51.7071 85.54 52.41 84.8371 52.41 83.97C52.41 83.1029 51.7071 82.4 50.84 82.4C49.9729 82.4 49.27 83.1029 49.27 83.97C49.27 84.8371 49.9729 85.54 50.84 85.54Z" fill="white"/>
<path d="M94.04 83.97C94.04 84.84 93.34 85.54 92.47 85.54C91.6 85.54 90.9 84.84 90.9 83.97C90.9 83.1 91.6 82.4 92.47 82.4C93.34 82.4 94.04 83.11 94.04 83.97Z" fill="white"/>
<path d="M71.73 100.28C72.5971 100.28 73.3 99.577 73.3 98.71C73.3 97.8429 72.5971 97.14 71.73 97.14C70.8629 97.14 70.16 97.8429 70.16 98.71C70.16 99.577 70.8629 100.28 71.73 100.28Z" fill="white"/>
<path d="M76.2499 106.91C77.5099 107.29 78.62 107.69 79.76 107.96C82.01 108.49 84.27 108.96 86.53 109.44C87.55 109.66 88.1 110.33 87.91 111.17C87.74 111.92 87.1499 112.39 86.3299 112.28C85.1599 112.12 84.0099 111.87 82.8399 111.7C82.4899 111.65 82.1 111.65 81.77 111.74C78.05 112.8 74.2899 113.18 70.4599 112.57C69.4999 112.42 68.5699 112.06 67.6099 111.85C67.0599 111.73 66.47 111.65 65.91 111.72C64.84 111.84 63.7799 112.11 62.7099 112.26C61.7699 112.39 61.13 111.9 61.01 111.05C60.89 110.26 61.38 109.67 62.29 109.45C65.16 108.77 68.02 108.08 70.89 107.38C71.21 107.3 71.5199 107.15 71.9399 106.99C71.5699 106.49 71.2599 106.06 70.9399 105.64C70.2499 104.75 69.5599 103.85 68.8499 102.97C68.1099 102.07 67.8199 101.01 67.8199 99.8801C67.8199 98.2401 68.4499 97.3901 70.1899 96.7801C72.7399 95.8801 75.45 95.9201 78.03 96.7701C80.42 97.5601 81.1099 100.37 79.5699 102.58C78.6999 103.83 77.71 105 76.78 106.2C76.64 106.39 76.5099 106.57 76.2499 106.91ZM79.1299 110.85C78.1799 110.55 77.18 110.35 76.28 109.93C74.96 109.31 73.75 109.18 72.42 109.91C71.75 110.28 70.9399 110.41 70.1899 110.64C69.9499 110.72 69.7099 110.79 69.4699 110.86C69.4799 110.93 69.49 111 69.51 111.07C72.7 111.76 75.9099 111.67 79.1299 110.85ZM71.5999 97.2801C70.7899 97.2601 70.28 97.8 70.28 98.69C70.28 99.48 70.86 100.1 71.64 100.14C72.47 100.18 73.1699 99.5901 73.1999 98.8101C73.2299 97.9401 72.5699 97.3101 71.5999 97.2801Z" fill="black"/>
<path d="M95.7099 81.66C97.3399 81.83 98.95 81.87 100.4 82.66C102.84 83.99 102.95 87.13 100.64 88.65C98.99 89.74 97.1099 90.12 95.1899 90.3C92.8699 90.51 90.5699 90.37 88.3699 89.5C87.4299 89.13 86.66 88.53 86.27 87.55C85.65 86.01 85.99 84.77 87.4 83.92C88.27 83.39 89.2399 82.94 90.2199 82.7C92.0299 82.26 93.8799 82 95.7099 81.66ZM93.3599 83.62C93.3399 83.21 93.02 82.95 92.51 82.95C91.93 82.95 91.5899 83.3 91.5699 83.86C91.5599 84.43 91.9499 84.6699 92.4799 84.6899C93.0199 84.7099 93.3799 84.29 93.3599 83.62Z" fill="black"/>
<path d="M55.17 90.41C52.38 90.37 50.32 90.01 48.36 89.1C46.71 88.33 45.93 87.0899 46.03 85.4399C46.12 83.9099 47.08 82.8 48.78 82.26C49.13 82.15 49.49 82.04 49.85 82C53.37 81.55 56.77 81.99 59.99 83.5C61.08 84.01 62.04 84.74 62.04 86.14C62.04 87.58 61.38 88.64 60.11 89.29C59.68 89.51 59.22 89.7299 58.74 89.8199C57.36 90.0899 55.95 90.29 55.17 90.41ZM50.8399 82.8101C50.1499 82.9301 49.6899 83.36 49.7099 83.85C49.7399 84.41 50.08 84.6999 50.62 84.6899C51.21 84.6799 51.58 84.3 51.5 83.75C51.45 83.41 51.0699 83.1201 50.8399 82.8101Z" fill="black"/>
<path d="M30.55 85.82C30.3 85.82 30.06 85.68 29.95 85.44C28.33 82.07 28.2 64.96 28.2 64.24C28.2 63.87 28.49 63.57 28.86 63.57C29.22 63.57 29.52 63.86 29.52 64.23C29.54 67.47 29.7001 74.3901 30.1801 79.4201C30.2801 78.0801 30.4099 76.6 30.5699 75.11C31.2999 68.53 32.4 64.6 33.91 63.12C33.79 62.76 33.6 62.24 33.51 61.99C33.44 61.8 33.39 61.6701 33.38 61.6401C32.84 59.9301 32.39 58.1701 32.03 56.3901C30.81 50.3201 31.16 43.05 33.04 35.36C33.29 34.36 33.62 32.9901 34.53 32.0401C35.72 30.8001 37.4799 30.89 38.6899 31.07C38.6999 31.07 38.71 31.07 38.73 31.08L42.27 31.8001C42.63 31.8701 42.86 32.22 42.79 32.58C42.72 32.94 42.37 33.17 42.01 33.1L38.49 32.38C37.01 32.17 36.09 32.34 35.5 32.96C34.84 33.65 34.57 34.7701 34.34 35.6701C32.5 43.1701 32.16 50.25 33.34 56.13C33.69 57.86 34.13 59.58 34.65 61.24C34.66 61.27 34.7 61.3801 34.76 61.5401C34.86 61.8101 35 62.2101 35.12 62.5401C35.35 63.2101 35.49 63.6101 35.05 63.9101C32.59 65.5801 31.39 77.8401 31.22 85.1801C31.21 85.4901 31 85.7501 30.7 85.8101C30.64 85.8101 30.59 85.82 30.55 85.82Z" fill="black"/>
<path d="M47.8599 47.59C46.4999 47.59 45.03 47.3301 43.68 46.5401C41.23 45.1001 39.78 42.2801 39.38 38.1401C39.35 37.8401 39.53 37.56 39.81 37.45C40.09 37.35 40.4099 37.44 40.5799 37.69C40.6099 37.74 43.3199 41.5001 48.3299 43.2501C46.2099 41.7601 43.76 39.45 42.54 36.19C41.17 32.53 41.6399 28.45 43.9599 24.08C44.0899 23.83 44.37 23.69 44.65 23.73C44.93 23.78 45.1499 24.0001 45.1999 24.2801C45.4099 25.5601 46.29 29.1701 47.75 30.4301C48.03 30.6701 48.0599 31.09 47.8199 31.37C47.5799 31.65 47.16 31.68 46.88 31.44C45.58 30.32 44.7699 28.0501 44.3199 26.4101C42.9099 29.7801 42.73 32.9 43.78 35.72C45.93 41.48 52.59 44.1101 52.66 44.1301C52.97 44.2501 53.1399 44.5701 53.0699 44.8901C53.0199 45.1201 52.86 45.29 52.66 45.37C52.82 45.43 52.96 45.55 53.03 45.72C53.18 46.06 53.0299 46.45 52.6899 46.6C52.5499 46.67 50.4099 47.59 47.8599 47.59ZM41.06 40.24C41.63 42.72 42.7399 44.4501 44.3599 45.3901C47.5499 47.2601 51.79 45.5401 52.13 45.4001C46.72 44.9701 43 42.16 41.06 40.24Z" fill="black"/>
<path d="M58.37 46.0799C58.23 46.0799 58.0501 46.08 56.8001 45.28C56.1601 44.87 55.15 44.19 54.01 43.27C52.06 41.7 49.42 39.16 47.91 36.01C45.77 31.56 46.39 27.1799 49.74 22.9999C49.89 22.8099 50.13 22.72 50.36 22.76C50.6 22.8 50.79 22.96 50.88 23.18C50.93 23.3 52.07 26.15 55.4 27.03C55.75 27.12 55.97 27.4899 55.87 27.8399C55.78 28.1899 55.4101 28.41 55.0601 28.31C52.3601 27.6 50.86 25.8 50.15 24.65C48.19 27.45 47.5701 30.3299 48.3001 33.2299C50.0101 40.0199 58.19 44.57 58.58 44.77C58.85 44.86 59.04 45.11 59.04 45.4C59.04 45.78 58.74 46.0799 58.37 46.0799Z" fill="black"/>
<path d="M61.58 43.13C61.49 43.13 61.3901 43.1099 61.3001 43.0699C61.2001 43.0199 58.9 41.92 56.69 39.38C54.65 37.03 52.31 32.96 52.76 26.89C52.79 26.52 53.11 26.25 53.47 26.28C53.84 26.31 54.11 26.6299 54.08 26.9899C53.75 31.4699 54.95 35.3399 57.65 38.4699C59.68 40.8199 61.84 41.87 61.86 41.88C62.19 42.04 62.3301 42.43 62.1801 42.76C62.0701 42.99 61.83 43.13 61.58 43.13Z" fill="black"/>
<path d="M66.49 42.61C66.39 42.61 66.2899 42.59 66.1999 42.54C65.8599 42.38 57.9199 38.4599 55.4399 30.2199C52.9399 21.9199 57.65 16.1 57.86 15.86C58.04 15.64 58.3399 15.56 58.5999 15.66C58.8599 15.76 59.04 16.01 59.03 16.29C59.03 16.57 59.04 23.19 67.31 23.73C68.38 23.8 69.53 23.84 70.74 23.89C75.24 24.06 80.3499 24.2499 84.9599 25.9399C90.3899 27.9299 93.9899 31.59 95.9799 37.13C96.0999 37.48 95.9199 37.86 95.5799 37.98C95.2399 38.1 94.8499 37.9199 94.7299 37.5799C90.5599 25.9599 79.5399 25.5499 70.6899 25.2199C69.4699 25.1699 68.3199 25.13 67.2299 25.06C64.4899 24.88 60.8099 23.9399 58.8499 20.4399C58.3899 19.6199 58.1199 18.82 57.9499 18.14C56.7799 20.25 55.1099 24.5299 56.7099 29.8399C59.0199 37.5099 66.7 41.3099 66.77 41.3499C67.1 41.5099 67.2399 41.91 67.0799 42.24C66.9699 42.47 66.74 42.61 66.49 42.61Z" fill="black"/>
<path d="M86.46 40.96C81.35 40.96 76.29 39.11 71.71 35.57C67.92 32.63 65.83 29.61 65.74 29.49C65.53 29.19 65.6101 28.77 65.9101 28.57C66.2101 28.36 66.63 28.44 66.83 28.74C66.85 28.77 68.9201 31.7401 72.5501 34.5501C75.8701 37.1201 81.2301 40.07 87.9101 39.58C88.2701 39.55 88.59 39.83 88.62 40.19C88.65 40.56 88.3701 40.8701 88.0101 40.9001C87.5001 40.9401 86.98 40.96 86.46 40.96Z" fill="black"/>
<path d="M97.98 46.08C97.96 46.08 97.9301 46.08 97.9101 46.08C97.6901 46.06 97.5001 45.93 97.4001 45.73L96.1701 43.4201L95.08 44.14C94.92 44.24 94.7301 44.27 94.5401 44.23C94.3601 44.18 94.2 44.06 94.12 43.89L93.3101 42.28L92.87 43.78C92.79 44.04 92.5701 44.22 92.3101 44.25C92.0401 44.28 91.7901 44.1501 91.6601 43.9201C89.2201 39.6501 81.9601 38.04 81.8801 38.02C81.5201 37.94 81.29 37.59 81.37 37.23C81.45 36.87 81.8001 36.64 82.1601 36.72C82.2401 36.74 84.1501 37.16 86.4101 38.15C88.8701 39.24 90.74 40.55 91.99 42.07L92.5101 40.29C92.5901 40.03 92.82 39.84 93.09 39.82C93.36 39.79 93.62 39.9401 93.74 40.1801L94.98 42.63L96.0601 41.9201C96.2201 41.8201 96.41 41.79 96.59 41.83C96.77 41.88 96.9201 42 97.0101 42.16L97.6701 43.39C97.9201 42.77 98.07 41.99 98.2 41.29C98.23 41.11 98.2701 40.93 98.3001 40.76C98.8101 38.22 98.8701 35.84 98.5001 33.66C98.0301 30.91 96.6301 28.31 94.5601 26.35C92.2701 24.17 89.7501 23.49 86.4201 23.1C84.4101 22.86 82.35 22.8301 80.36 22.8001C78.35 22.7701 76.28 22.73 74.23 22.49C73.31 22.38 72.29 22.25 71.22 22.08L74.11 23.83C74.42 24.02 74.52 24.43 74.33 24.74C74.14 25.05 73.7301 25.15 73.4201 24.96L67.1401 21.16C66.6401 20.97 66.18 20.71 65.82 20.34C65.59 20.1 65.5701 19.72 65.7801 19.46C65.9901 19.2 66.3601 19.1301 66.6401 19.3101L67.72 19.96C68.2 20.13 68.75 20.24 69.24 20.34C69.38 20.37 69.5201 20.4001 69.6401 20.4201C71.2901 20.7801 72.96 20.99 74.37 21.16C76.35 21.39 78.39 21.43 80.37 21.46C82.4 21.49 84.49 21.53 86.57 21.77C90.07 22.19 92.92 22.96 95.47 25.38C97.74 27.54 99.2801 30.3901 99.8001 33.4301C99.9901 34.5601 100.08 35.74 100.05 36.97C100.42 34.83 100.3 32.78 99.7 30.86C97.9 25.06 92.25 22.27 92.2 22.24C91.9 22.09 91.75 21.7501 91.86 21.4301C91.97 21.1101 92.29 20.92 92.62 20.99C93.14 21.09 105.28 23.54 105.07 31.09C104.87 38.31 98.75 45.54 98.49 45.84C98.36 45.99 98.18 46.08 97.98 46.08ZM96.2801 23.47C98.0301 25.01 99.98 27.32 100.96 30.46C101.97 33.71 101.74 37.24 100.28 40.99C101.9 38.31 103.63 34.64 103.73 31.07C103.84 27.12 99.6101 24.74 96.2801 23.47Z" fill="black"/>
<path d="M122.66 96.8001C122.38 96.8001 122.13 96.63 122.03 96.35C121.91 96 122.1 95.6301 122.44 95.5101L122.76 95.4001L122.57 95.3801C122.21 95.3301 121.95 95.0001 122 94.6401C122.05 94.2801 122.38 94.02 122.74 94.07L125.75 94.46C126.06 94.5 126.29 94.7501 126.33 95.0501C126.36 95.3601 126.18 95.65 125.88 95.74L122.87 96.7701C122.81 96.7801 122.74 96.8001 122.66 96.8001Z" fill="black"/>
<path d="M126.59 94.76C124.6 94.76 122.76 93.05 122.67 92.97C122.4 92.72 122.39 92.3 122.64 92.03C122.89 91.76 123.31 91.75 123.58 92C123.85 92.25 124.41 92.69 125.06 93.01C123.8 91.6 122.22 89.05 121.17 84.51C120.26 80.58 119.59 77.81 119.14 76C118.51 78.9 117.5 83.1 116.71 84.33C116.55 84.58 116.24 84.69 115.96 84.61C115.68 84.52 115.48 84.26 115.49 83.96L115.92 67.27C115.93 66.91 116.22 66.62 116.58 66.62C116.59 66.62 116.59 66.62 116.6 66.62C116.97 66.63 117.26 66.93 117.25 67.3L116.93 79.59C117.55 77.17 118.14 74.3601 118.42 72.9301C118.48 72.6301 118.74 72.4 119.05 72.39C119.35 72.38 119.63 72.58 119.72 72.88C119.73 72.91 120.6 76.12 122.48 84.22C123.41 88.24 124.76 90.52 125.72 91.73C126.75 93.02 127.57 93.38 127.58 93.38C127.84 93.48 128.01 93.74 127.99 94.03C127.98 94.31 127.78 94.55 127.51 94.64C127.2 94.72 126.89 94.76 126.59 94.76Z" fill="black"/>
<path d="M122.27 69.58C122.2 69.58 122.13 69.57 122.07 69.55C122.04 69.54 119.15 68.61 115.85 67.16C111.36 65.2 108.27 63.2701 106.66 61.4301C106.49 61.2301 106.45 60.96 106.55 60.72C106.66 60.48 106.89 60.33 107.16 60.33H110.56C110.93 60.33 111.22 60.63 111.22 60.99C111.22 61.35 110.92 61.65 110.56 61.65H108.81C113.17 65.25 122.38 68.24 122.48 68.27C122.83 68.38 123.02 68.76 122.91 69.11C122.81 69.4 122.55 69.58 122.27 69.58Z" fill="black"/>
<path d="M116.12 50.1999C115.99 50.1999 115.86 50.1599 115.74 50.0799C115.56 49.9599 115.45 49.75 115.45 49.53C115.45 49.52 115.45 49.48 115.45 49.42C115.51 47.14 115.57 39.38 114.11 35.22C112.83 31.57 111.17 31.92 106.72 32.85C106.02 33 105.31 33.15 104.51 33.3C104.15 33.37 103.8 33.13 103.73 32.77C103.66 32.41 103.9 32.06 104.26 31.99C105.04 31.84 105.75 31.69 106.44 31.55C110.8 30.64 113.68 30.03 115.35 34.78C116.6 38.33 116.79 44.2199 116.79 47.5699L118.93 47.8299C119.23 47.8699 119.47 48.11 119.51 48.41C119.55 48.71 119.37 49 119.09 49.11L116.34 50.16C116.28 50.19 116.2 50.1999 116.12 50.1999Z" fill="black"/>
<path d="M116.39 71.0201C112.56 71.0201 109.4 67.47 109.26 67.32C109.02 67.04 109.04 66.62 109.32 66.38C109.6 66.14 110.01 66.16 110.26 66.44C110.29 66.47 113.17 69.69 116.39 69.69C116.42 69.69 116.45 69.69 116.48 69.69H116.49C116.85 69.69 117.15 69.98 117.15 70.34C117.16 70.71 116.86 71.0101 116.5 71.0201C116.47 71.0201 116.43 71.0201 116.39 71.0201Z" fill="black"/>
<path d="M121.48 83.61C121.43 83.61 121.37 83.6 121.31 83.59C120.95 83.5 120.74 83.1401 120.83 82.7801C120.84 82.7401 121.63 79.51 120.82 73.85C120.78 73.6 120.89 73.36 121.09 73.21C121.29 73.07 121.56 73.0501 121.78 73.1601L122.53 73.5401L119.19 68.37C118.99 68.06 119.08 67.65 119.39 67.45C119.7 67.25 120.11 67.3401 120.31 67.6501L124.99 74.8901C125.15 75.1401 125.13 75.47 124.93 75.7C124.73 75.92 124.4 75.98 124.13 75.85L122.3 74.9201C122.88 80.0901 122.16 82.98 122.12 83.11C122.05 83.41 121.78 83.61 121.48 83.61Z" fill="black"/>
<path d="M122.27 66.5C122.18 66.5 122.09 66.48 122.01 66.45L105.12 59.12C104.82 58.99 104.66 58.65 104.74 58.34C104.83 58.02 105.14 57.81 105.46 57.86L117.6 59.38L119.8 55.63C119.99 55.31 120.39 55.21 120.71 55.39C121.03 55.58 121.13 55.9801 120.95 56.3001L119.67 58.48L122.59 58.12C122.87 58.08 123.15 58.23 123.27 58.49C123.39 58.75 123.34 59.06 123.13 59.25L121.14 61.1701L122.99 61.52C123.27 61.57 123.49 61.81 123.53 62.09C123.56 62.38 123.41 62.65 123.15 62.77L121.56 63.5L122.84 65.47C123 65.72 122.98 66.04 122.79 66.26C122.65 66.42 122.46 66.5 122.27 66.5ZM109.89 59.74L120.51 64.35L120.01 63.58C119.9 63.42 119.88 63.2201 119.93 63.0301C119.98 62.8401 120.12 62.69 120.29 62.61L120.68 62.4301L119.62 62.23C119.38 62.18 119.18 62.01 119.11 61.77C119.04 61.53 119.11 61.27 119.29 61.1L120.77 59.6701L118.81 59.9101L118.52 60.4101C118.39 60.6401 118.13 60.77 117.86 60.73L109.89 59.74Z" fill="black"/>
<path d="M112.52 57.6C108.98 57.6 106.8 56.16 105.59 54.94C104.25 53.59 103.78 52.2301 103.76 52.1701C103.73 52.0801 103.72 51.98 103.73 51.89C103.15 51.33 102.58 50.69 102.02 49.94C101.9 49.77 101.86 49.56 101.91 49.36C101.97 49.16 102.11 49.0001 102.31 48.9201C102.62 48.8001 109.89 46.06 118.65 49.75C118.95 49.8 120.12 50.0001 120.99 50.0601C121.29 50.0801 121.54 50.3 121.6 50.59C121.64 50.8 121.58 51 121.45 51.15C121.49 51.18 121.53 51.21 121.56 51.25C122.76 52.54 122.67 53.6201 122.37 54.3101C121.7 55.8601 118.8 57.55 112.63 57.61C112.61 57.6 112.57 57.6 112.52 57.6ZM106.34 53.8001C107.44 55.0001 109.35 56.27 112.53 56.27C112.57 56.27 112.61 56.27 112.65 56.27C116.37 56.23 120.5 55.37 121.18 53.78C121.24 53.63 121.41 53.24 120.95 52.57C119.83 53.22 117.01 54.66 113.63 54.98C111.34 55.19 108.83 55.1401 106.34 53.8001ZM103.69 49.88C106.89 53.68 110.29 53.95 113.5 53.65C115.46 53.47 117.24 52.86 118.54 52.28C116.5 52.84 113.53 53.3101 110.29 52.6701C109.93 52.6001 109.7 52.25 109.77 51.89C109.84 51.53 110.19 51.3 110.55 51.37C113.52 51.96 116.31 51.51 118.2 50.99C111.64 48.21 105.83 49.3 103.69 49.88Z" fill="black"/>
<path d="M115.69 40.0699C115.57 40.0699 115.44 40.0399 115.33 39.9699C115.02 39.7699 114.93 39.36 115.13 39.05L115.48 38.51C115.24 38.52 115 38.39 114.88 38.17C114.7 37.85 114.82 37.45 115.14 37.27L117.05 36.1999C117.32 36.0499 117.65 36.0999 117.86 36.3199C118.07 36.5399 118.1 36.88 117.94 37.13L116.27 39.76C116.12 39.96 115.91 40.0699 115.69 40.0699Z" fill="black"/>
<path d="M116.01 43.52C115.76 43.52 115.52 43.38 115.41 43.14C115.25 42.81 115.39 42.41 115.72 42.25L117.07 41.5999C117.4 41.4399 117.8 41.58 117.96 41.91C118.12 42.24 117.98 42.64 117.65 42.8L116.3 43.4499C116.2 43.4999 116.1 43.52 116.01 43.52Z" fill="black"/>
<path d="M32.3599 68.94C32.2499 68.94 32.14 68.91 32.03 68.85C29.49 67.4 28.02 64.99 27.53 61.48C27.08 58.26 29.92 54.8201 31.65 53.0601C31.68 53.0301 31.7099 53 31.7199 52.99C31.8299 52.86 31.98 52.77 32.16 52.75C32.53 52.71 32.85 52.97 32.9 53.33C32.94 53.65 32.7699 53.82 32.5999 53.99C29.9399 56.69 28.5799 59.3601 28.8499 61.3001C29.2899 64.4201 30.5099 66.45 32.6999 67.7C33.0199 67.88 33.1299 68.29 32.9499 68.61C32.8199 68.82 32.5999 68.94 32.3599 68.94ZM31.5999 53.23C31.5799 53.3 31.5699 53.38 31.5799 53.48C31.5699 53.39 31.5799 53.31 31.5999 53.23Z" fill="black"/>
<path d="M33.1701 66.28C33.0501 66.28 32.9201 66.25 32.8101 66.17C29.3501 63.95 29.7601 60 30.0401 59.14C30.1601 58.79 30.53 58.6 30.88 58.72C31.22 58.83 31.4101 59.2 31.3001 59.55C31.2701 59.67 30.48 63.1001 33.52 65.0601C33.83 65.2601 33.92 65.67 33.72 65.98C33.61 66.18 33.3901 66.28 33.1701 66.28Z" fill="black"/>
<path d="M27.88 53.38C25.3 53.38 22 52.78 19.35 50.28C19.14 50.08 19.08 49.77 19.21 49.5C19.34 49.24 19.6201 49.09 19.9101 49.14C19.9401 49.15 21.61 49.3999 23.7 49.4799C21.96 49.1099 20.31 48.46 19.32 47.37C19.11 47.14 19.0901 46.81 19.2601 46.55C19.4301 46.3 19.7501 46.19 20.0401 46.3C20.0901 46.32 25.4701 48.22 31.5101 44.52C31.8201 44.33 32.2301 44.4299 32.4201 44.7399C32.6101 45.0499 32.51 45.46 32.2 45.65C29.04 47.58 26.08 48.12 23.82 48.15C24.54 48.31 25.34 48.43 26.22 48.52C28.5 48.74 30.48 48.6099 30.5 48.6099C30.82 48.5899 31.11 48.7999 31.19 49.1099C31.27 49.4199 31.12 49.74 30.82 49.88C28.47 50.97 24.72 50.9199 22.23 50.7299C26.49 53.0199 31.6101 51.5999 31.6701 51.5799C32.0201 51.4799 32.39 51.68 32.49 52.04C32.59 52.39 32.3901 52.7599 32.0401 52.8599C31.9001 52.8999 30.18 53.38 27.88 53.38Z" fill="black"/>
<path d="M72.25 131.78C72.05 131.78 71.85 131.69 71.72 131.52C69.57 128.73 64.54 126.62 58.72 124.19C53.55 122.03 47.7 119.58 42.17 116.03C30.25 108.37 24.81 98.5299 24.59 98.1099C24.41 97.7899 24.53 97.3799 24.86 97.2099C25.18 97.0399 25.59 97.1499 25.76 97.4799C25.81 97.5799 31.27 107.44 42.89 114.92C48.33 118.41 54.12 120.84 59.24 122.98C65.24 125.49 70.41 127.65 72.78 130.72C73 131.01 72.95 131.43 72.66 131.65C72.54 131.73 72.39 131.78 72.25 131.78Z" fill="black"/>
<path d="M74.4699 132.76C74.0999 132.76 73.81 132.46 73.81 132.1C73.8 130.8 72.9899 130.26 72.9499 130.24C72.6399 130.05 72.5399 129.64 72.7299 129.33C72.9199 129.02 73.33 128.92 73.65 129.11C73.71 129.15 75.13 130.03 75.14 132.1C75.14 132.46 74.8399 132.76 74.4699 132.76Z" fill="black"/>
<path d="M75.98 131.55C75.84 131.55 75.7 131.51 75.59 131.42C75.3 131.2 75.23 130.79 75.45 130.49C75.57 130.33 78.47 126.45 84.13 124.97C88.38 123.86 92.31 121.92 95.26 120.36C98.49 118.65 102.27 116.56 105.75 114.1C109.2 111.66 112.49 108.61 116.09 104.5C117.4 103.01 118.7 101.45 119.96 99.95C120.67 99.1 121.41 98.22 122.14 97.36C122.15 97.35 122.16 97.34 122.17 97.33C122.42 97.06 122.84 97.0501 123.11 97.3001C123.37 97.5501 123.39 97.96 123.15 98.23C122.42 99.09 121.68 99.9601 120.98 100.81C119.72 102.32 118.41 103.87 117.09 105.38C113.41 109.57 110.05 112.68 106.51 115.18C102.96 117.69 99.14 119.8 95.87 121.53C92.86 123.13 88.84 125.1 84.46 126.25C79.27 127.61 76.54 131.24 76.51 131.27C76.39 131.45 76.19 131.55 75.98 131.55Z" fill="black"/>
<path d="M23.22 83.61C22.97 83.61 22.72 83.4599 22.61 83.2199C22.46 82.8799 22.61 82.4899 22.95 82.3399C25.46 81.2199 27.73 75.48 28.39 73.36C28.5 73.01 28.87 72.81 29.22 72.92C29.57 73.03 29.77 73.4 29.66 73.75C29.56 74.08 27.06 81.95 23.49 83.54C23.4 83.59 23.31 83.61 23.22 83.61Z" fill="black"/>
<path d="M25.8699 97.0799C25.1199 97.0799 23.21 96.95 22.4 95.73C22.28 95.54 22.2499 95.31 22.3399 95.1C22.4299 94.89 22.6099 94.7499 22.8299 94.7099C23.7499 94.5399 24.7299 94.27 24.9499 94.12C25.1899 93.87 25.5899 93.8399 25.8599 94.0699C26.1399 94.2999 26.1799 94.72 25.9499 95.01C25.7599 95.23 25.3499 95.45 24.7199 95.64C25.2199 95.75 25.7499 95.77 26.0799 95.76C26.4499 95.74 26.76 96.02 26.78 96.39C26.8 96.76 26.52 97.0699 26.15 97.0899C26.11 97.0799 26.0099 97.0799 25.8699 97.0799Z" fill="black"/>
<path d="M21.4 94.72C21.36 94.72 21.32 94.72 21.29 94.72C21 94.71 20.7601 94.51 20.6801 94.23C20.6001 93.95 20.72 93.66 20.95 93.5C20.98 93.48 24.3901 91.18 25.0501 87.46C25.4601 85.16 26.0001 82.7801 26.5501 80.9301C27.5301 77.6101 28.2401 76.86 28.6801 76.6C28.9901 76.41 29.4 76.51 29.59 76.83C29.78 77.14 29.68 77.55 29.36 77.74C28.69 78.14 27.32 82.24 26.35 87.7C25.96 89.88 24.8 91.6101 23.73 92.7901C24.35 92.5601 24.96 92.3 25.41 92.09C25.74 91.93 26.14 92.0801 26.29 92.4101C26.45 92.7401 26.3 93.1401 25.97 93.2901C25.66 93.4301 22.87 94.72 21.4 94.72Z" fill="black"/>
<defs>
<radialGradient id="paint0_radial_1_7995" cx="0" cy="0" r="1" gradientUnits="userSpaceOnUse" gradientTransform="translate(73.3652 84.9562) scale(46.3633 46.3633)">
<stop stop-color="#FDE5B7"/>
<stop offset="1" stop-color="#FDB261"/>
</radialGradient>
<radialGradient id="paint1_radial_1_7995" cx="0" cy="0" r="1" gradientUnits="userSpaceOnUse" gradientTransform="translate(73.1688 10.7125) scale(27.5116 27.5116)">
<stop stop-color="#877863"/>
<stop offset="1" stop-color="#564941"/>
</radialGradient>
<radialGradient id="paint2_radial_1_7995" cx="0" cy="0" r="1" gradientUnits="userSpaceOnUse" gradientTransform="translate(73.2315 102.174) scale(56.3396 56.3396)">
<stop offset="0.1948" stop-color="white"/>
<stop offset="1" stop-color="#E5E5E5"/>
</radialGradient>
</defs>
</svg>
