<svg width="145" height="145" viewBox="0 0 145 145" fill="none" xmlns="http://www.w3.org/2000/svg">
<path d="M72.5701 144.37C112.434 144.37 144.75 112.054 144.75 72.1899C144.75 32.326 112.434 0.0100098 72.5701 0.0100098C32.7062 0.0100098 0.389893 32.326 0.389893 72.1899C0.389893 112.054 32.7062 144.37 72.5701 144.37Z" fill="url(#paint0_linear_1_7967)"/>
<path d="M74.5701 22.28L105.39 69.6799C105.39 69.6799 114.1 81.2401 112.76 90.6201C112.89 89.6801 114.15 88.2501 114.56 87.3701C115.95 84.3401 116.84 81.08 117.32 77.79C118.9 66.96 116.72 55.6 108.9 47.71C106.7 45.48 104.38 43.43 101.87 41.55C91.8201 34 74.5701 22.28 74.5701 22.28Z" fill="white"/>
<path d="M74.5701 122.11L102.54 75.21C102.54 75.21 110.58 83.75 107.73 93.8C105.13 102.98 96.6599 107 89.3799 111.95C84.4299 115.32 79.5001 118.71 74.5701 122.11Z" fill="white"/>
<path d="M70.5701 122.11L39.7501 74.71C39.7501 74.71 31.04 63.15 32.38 53.77C32.25 54.71 30.9902 56.14 30.5802 57.02C29.1902 60.05 28.3001 63.3101 27.8201 66.6001C26.2401 77.4301 28.4201 88.7899 36.2401 96.6799C38.4401 98.9099 40.7601 100.96 43.2701 102.84C53.3101 110.38 70.5701 122.11 70.5701 122.11Z" fill="white"/>
<path d="M70.57 22.28L42.6001 69.1799C42.6001 69.1799 34.5599 60.6401 37.4099 50.5901C40.0099 41.4101 48.48 37.3899 55.76 32.4399C60.7 29.0699 65.63 25.67 70.57 22.28Z" fill="white"/>
<defs>
<linearGradient id="paint0_linear_1_7967" x1="20.0421" y1="20.3328" x2="125.125" y2="124.085" gradientUnits="userSpaceOnUse">
<stop stop-color="#7E99FD"/>
<stop offset="1" stop-color="#51B3F4"/>
</linearGradient>
</defs>
</svg>
