<svg width="174" height="174" viewBox="0 0 174 174" fill="none" xmlns="http://www.w3.org/2000/svg">
<path d="M156.936 102.796C165.901 64.0108 141.726 25.3014 102.941 16.3364C64.1551 7.37152 25.4456 31.546 16.4807 70.3316C7.51578 109.117 31.6903 147.827 70.4759 156.792C109.262 165.756 147.971 141.582 156.936 102.796Z" fill="black"/>
<path d="M121.78 118.05C121.78 118.05 121.79 118.04 121.79 118.03C121.81 118.01 121.82 117.99 121.84 117.97C121.85 117.96 121.85 117.95 121.86 117.94C121.87 117.92 121.89 117.9 121.9 117.87C121.91 117.86 121.91 117.85 121.91 117.84C121.92 117.81 121.93 117.79 121.94 117.76C121.94 117.75 121.95 117.75 121.95 117.74C121.96 117.71 121.97 117.67 121.98 117.64C121.98 117.63 121.98 117.62 121.98 117.62C121.99 117.59 121.99 117.57 122 117.54C122 117.53 122 117.52 122 117.5C122 117.48 122 117.45 122.01 117.43C122.01 117.42 122.01 117.41 122.01 117.39C122.01 117.36 122.01 117.34 122.01 117.31C122.01 117.3 122.01 117.29 122.01 117.28C122.01 117.25 122 117.22 122 117.19C122 117.18 122 117.18 122 117.17V117.16C122 117.16 122 117.16 122 117.15L111.12 65.4499C111.09 65.2999 111.03 65.17 110.94 65.05L87.65 33.59C87.53 33.42 87.35 33.29 87.14 33.22C86.71 33.08 86.2499 33.23 85.9799 33.59L62.84 65.05C62.75 65.17 62.6899 65.2999 62.6599 65.4499L51.4699 117.17V117.18C51.4699 117.2 51.46 117.23 51.46 117.25C51.46 117.26 51.46 117.26 51.46 117.27C51.46 117.3 51.45 117.33 51.45 117.36V117.37C51.45 117.4 51.45 117.42 51.45 117.45C51.45 117.46 51.45 117.47 51.45 117.48C51.45 117.5 51.45 117.52 51.46 117.53C51.46 117.54 51.4599 117.55 51.4699 117.57C51.4699 117.59 51.4799 117.6 51.4799 117.62C51.4799 117.63 51.4899 117.65 51.4899 117.66C51.4899 117.68 51.4999 117.69 51.4999 117.71C51.4999 117.72 51.5099 117.73 51.5099 117.75C51.5199 117.77 51.52 117.78 51.53 117.8C51.53 117.81 51.5399 117.82 51.5399 117.83C51.5499 117.85 51.5499 117.86 51.5599 117.88C51.5699 117.89 51.57 117.9 51.58 117.91C51.59 117.93 51.5999 117.94 51.6099 117.96C51.6199 117.97 51.6199 117.98 51.6299 117.99C51.6399 118.01 51.6499 118.02 51.6599 118.03C51.6699 118.04 51.6699 118.05 51.6799 118.06C51.6899 118.07 51.6999 118.09 51.7199 118.1C51.7299 118.11 51.7299 118.12 51.7399 118.12C51.7499 118.13 51.77 118.15 51.78 118.16C51.79 118.17 51.7899 118.17 51.7999 118.18C51.8199 118.2 51.8399 118.22 51.8699 118.23C51.8799 118.24 51.89 118.25 51.9 118.25C51.91 118.26 51.9199 118.27 51.9399 118.27H51.95L86.27 139.74C86.28 139.75 86.2899 139.75 86.3099 139.76C86.3299 139.77 86.3499 139.78 86.3699 139.79C86.3999 139.81 86.43 139.82 86.46 139.83C86.48 139.84 86.5 139.84 86.52 139.85C86.55 139.86 86.5899 139.87 86.6299 139.88C86.6499 139.88 86.6599 139.89 86.6799 139.89C86.7299 139.9 86.78 139.9 86.84 139.9C86.89 139.9 86.9399 139.9 86.9999 139.89C87.0199 139.89 87.0299 139.88 87.0499 139.88C87.0899 139.87 87.12 139.86 87.15 139.85C87.17 139.84 87.19 139.84 87.21 139.83C87.24 139.82 87.2699 139.81 87.2999 139.79C87.3199 139.78 87.3399 139.77 87.3599 139.76C87.3699 139.75 87.38 139.75 87.4 139.74L121.58 118.27C121.61 118.25 121.64 118.23 121.67 118.21L121.68 118.2C121.71 118.18 121.73 118.16 121.75 118.13C121.76 118.12 121.76 118.12 121.77 118.11C121.73 118.1 121.75 118.08 121.78 118.05C121.78 118.06 121.77 118.06 121.78 118.05ZM86.7999 135.44L81.4199 118.43H92.21L86.7999 135.44ZM80.77 116.36L71.3599 86.6L86.7899 59.74L102.27 86.8L92.8699 116.36H80.77ZM78.59 116.36H54.2599L69.96 89.05L78.59 116.36ZM87.83 37.37L108.93 65.87L103.12 84.12L87.8199 57.39V37.37H87.83ZM103.67 89.25L119.18 116.36H95.0399L103.67 89.25ZM118.6 111.16L104.53 86.5601L109.88 69.74L118.6 111.16ZM85.7599 57.39L70.5099 83.92L64.7999 65.87L85.7499 37.39V57.39H85.7599ZM63.8499 69.72L69.1099 86.37L54.89 111.11L63.8499 69.72ZM56.08 118.44H79.2499L84.96 136.5L56.08 118.44ZM94.39 118.44H117.38L88.65 136.49L94.39 118.44Z" fill="white"/>
</svg>
