<svg width="175" height="175" viewBox="0 0 175 175" fill="none" xmlns="http://www.w3.org/2000/svg">
<path d="M158.181 104.096C167.394 65.08 143.234 25.9829 104.218 16.7701C65.2019 7.55735 26.1048 31.7177 16.8921 70.7336C7.67932 109.75 31.8396 148.846 70.8555 158.059C109.871 167.272 148.968 143.112 158.181 104.096Z" fill="#328332"/>
<path d="M87.4199 33.45V64.3L55.46 82.34L87.4199 33.45Z" fill="white"/>
<path d="M87.4199 70.27V89.91L56.48 87.55L87.4199 70.27Z" fill="white"/>
<path d="M87.4199 104.61V89.91L56.48 87.55L87.4199 104.61Z" fill="#ADCDAD"/>
<path d="M87.4199 110.43V140.99L55.46 92.39L87.4199 110.43Z" fill="white"/>
<path d="M87.4199 33.45V64.3L119.39 82.34L87.4199 33.45Z" fill="#ADCDAD"/>
<path d="M87.4199 70.27V89.91L118.37 87.55L87.4199 70.27Z" fill="#ADCDAD"/>
<path d="M87.4199 104.61V89.91L118.37 87.55L87.4199 104.61Z" fill="#5B9C5B"/>
<path d="M119.39 92.39L87.4199 110.43V140.99" fill="#ADCDAD"/>
</svg>
