<svg width="175" height="175" viewBox="0 0 175 175" fill="none" xmlns="http://www.w3.org/2000/svg">
<path d="M157.547 103.919C166.708 65.1236 142.684 26.2473 103.888 17.0866C65.0927 7.92588 26.2164 31.9497 17.0557 70.7452C7.89498 109.541 31.9188 148.417 70.7144 157.578C109.51 166.738 148.386 142.715 157.547 103.919Z" fill="#ECEFF0"/>
<path d="M55.0299 87.8499C59.0299 86.0299 63.0299 84.21 67.0299 82.39C70.2499 80.93 73.4699 79.46 76.6899 78C80.1399 76.43 83.5899 74.8599 87.0399 73.2899C87.1199 73.2499 87.2099 73.23 87.2899 73.2C87.2999 73.08 87.3199 72.9699 87.3199 72.8499C87.3199 59.7499 87.3199 46.65 87.3199 33.56C87.3199 33.44 87.2999 33.33 87.2899 33.21C87.2299 33.29 87.1699 33.36 87.1199 33.44C85.1499 36.71 83.1799 39.97 81.2099 43.24C76.4099 51.2 71.6199 59.16 66.8199 67.12C63.3699 72.84 59.9299 78.5599 56.4799 84.2899C56.0899 84.9399 55.6899 85.6 55.2999 86.25C54.9099 86.9 54.5199 87.56 54.1299 88.21C54.4399 88.09 54.7399 87.9799 55.0299 87.8499Z" fill="#8B8B8B"/>
<path d="M117.29 82.87C115.52 79.93 113.75 76.9799 111.97 74.0399C110.24 71.1699 108.51 68.3 106.78 65.44C105.01 62.5 103.23 59.55 101.46 56.61C99.7199 53.72 97.9799 50.82 96.2299 47.93C94.5199 45.1 92.7999 42.27 91.0899 39.43C89.8899 37.43 88.6899 35.43 87.4899 33.43C87.4799 33.41 87.4599 33.39 87.4499 33.37C87.3999 33.32 87.3399 33.27 87.2899 33.21C87.2999 33.33 87.3199 33.44 87.3199 33.56C87.3199 46.66 87.3199 59.7599 87.3199 72.8499C87.3199 72.9699 87.2999 73.08 87.2899 73.2C87.2999 73.21 87.3099 73.2199 87.3199 73.2299C87.4899 73.2999 87.6699 73.36 87.8399 73.42C88.0099 73.49 88.1799 73.55 88.3499 73.63C89.9899 74.37 91.6199 75.12 93.2499 75.87C95.4099 76.85 97.5699 77.83 99.7299 78.82C101.67 79.7 103.6 80.58 105.54 81.46C107.48 82.34 109.41 83.2199 111.35 84.0999C113.29 84.9799 115.22 85.86 117.16 86.74C118.19 87.21 119.22 87.68 120.25 88.14C120.32 88.17 120.4 88.18 120.47 88.21C120.43 88.13 120.4 88.0499 120.35 87.9799C119.34 86.2799 118.31 84.57 117.29 82.87Z" fill="#343434"/>
<path d="M87.3199 73.2299C87.3099 73.2199 87.2999 73.21 87.2899 73.2C87.2099 73.23 87.1199 73.2499 87.0399 73.2899C83.5899 74.8599 80.1399 76.4299 76.6899 77.9999C73.4699 79.4599 70.2499 80.93 67.0299 82.39C63.0299 84.21 59.0299 86.0299 55.0299 87.8499C54.7399 87.9799 54.4399 88.09 54.1399 88.21C54.1499 88.22 54.1499 88.2299 54.1499 88.2499C54.1599 88.2899 54.1699 88.3299 54.1999 88.3499C55.3899 89.0599 56.5899 89.7599 57.7799 90.4699C67.5399 96.2399 77.2999 102.01 87.0599 107.78C87.1399 107.83 87.2299 107.85 87.3199 107.89C87.3199 96.45 87.3199 84.9999 87.3199 73.5599C87.3199 73.4399 87.3199 73.3399 87.3199 73.2299Z" fill="#393939"/>
<path d="M117.17 86.75C115.23 85.87 113.3 84.99 111.36 84.11C109.42 83.23 107.49 82.35 105.55 81.47C103.61 80.59 101.68 79.71 99.7398 78.83C97.5798 77.85 95.4199 76.87 93.2599 75.88C91.6299 75.14 89.9898 74.38 88.3598 73.64C88.1898 73.56 88.0199 73.5 87.8499 73.43C87.6799 73.36 87.4998 73.3 87.3298 73.24C87.3298 73.35 87.3298 73.46 87.3298 73.56C87.3298 85 87.3298 96.45 87.3298 107.89C87.3498 107.89 87.3699 107.9 87.3899 107.89C88.4799 107.25 89.5699 106.61 90.6599 105.96C92.2099 105.04 93.7498 104.11 95.2998 103.2C97.2298 102.06 99.1598 100.94 101.09 99.8C102.71 98.85 104.31 97.87 105.93 96.92C108.11 95.63 110.29 94.36 112.47 93.07C113.84 92.26 115.2 91.44 116.56 90.63C117.86 89.86 119.16 89.1 120.46 88.33C120.49 88.31 120.49 88.26 120.5 88.22C120.43 88.2 120.35 88.19 120.28 88.15C119.23 87.68 118.2 87.21 117.17 86.75Z" fill="#151515"/>
<path d="M87.3199 114.61C87.3199 114.47 87.3298 114.34 87.3298 114.2C87.1198 114.08 86.8998 113.97 86.6898 113.85C82.1298 111.16 77.5699 108.46 73.0099 105.76C67.4099 102.45 61.7999 99.14 56.1999 95.83C55.5399 95.44 54.8698 95.0599 54.2098 94.6799C54.2598 94.7799 54.2998 94.8799 54.3598 94.9699C57.6498 99.6099 60.9298 104.24 64.2198 108.88C71.6198 119.31 79.0199 129.74 86.4199 140.16C86.6999 140.56 86.9999 140.94 87.2899 141.33C87.2999 141.19 87.3199 141.06 87.3199 140.92C87.3199 132.15 87.3199 123.38 87.3199 114.61Z" fill="#8C8C8C"/>
<path d="M54.2 94.6699L54.2099 94.6799L54.2 94.6699Z" fill="#8C8C8C"/>
<path d="M120.37 94.71C120.31 94.74 120.24 94.7599 120.19 94.7999C112.42 99.3899 104.65 103.98 96.8798 108.57C93.6998 110.45 90.5198 112.32 87.3398 114.2C87.3398 114.34 87.3298 114.47 87.3298 114.61C87.3298 123.38 87.3298 132.15 87.3298 140.92C87.3298 141.06 87.3098 141.19 87.2998 141.33C87.2998 141.35 87.3098 141.35 87.3198 141.36C87.3398 141.35 87.3698 141.33 87.3898 141.32C87.4298 141.26 87.4698 141.21 87.5098 141.15C97.0098 127.76 106.52 114.37 116.02 100.98C117.49 98.9099 118.96 96.8299 120.43 94.7599C120.41 94.7399 120.39 94.73 120.37 94.71Z" fill="#343434"/>
<path d="M54.1699 94.65C54.1799 94.65 54.1899 94.66 54.1899 94.66C54.1899 94.66 54.1899 94.65 54.1799 94.65C54.1899 94.65 54.1799 94.65 54.1699 94.65Z" fill="#8C8C8C"/>
<path d="M120.37 94.71C120.39 94.72 120.41 94.7399 120.43 94.7499C120.43 94.7299 120.43 94.6999 120.43 94.6799C120.41 94.6999 120.39 94.71 120.37 94.71Z" fill="#343434"/>
</svg>
