<svg width="190" height="191" viewBox="0 0 190 191" fill="none" xmlns="http://www.w3.org/2000/svg">
<path d="M95.3 167.4C135.087 167.4 167.34 135.147 167.34 95.3599C167.34 55.5733 135.087 23.3199 95.3 23.3199C55.5135 23.3199 23.26 55.5733 23.26 95.3599C23.26 135.147 55.5135 167.4 95.3 167.4Z" fill="#57D56C"/>
<path d="M142.601 142.697C168.743 116.556 168.743 74.1723 142.601 48.0308C116.46 21.8894 74.0762 21.8894 47.9348 48.0308C21.7933 74.1723 21.7933 116.556 47.9348 142.697C74.0762 168.839 116.46 168.839 142.601 142.697Z" fill="black"/>
<path d="M73.46 62.5999H62.22V127.41H73.46V100.62H127.43V89.3799H73.46V62.5999Z" fill="#57D56C"/>
<path d="M127.43 62.5999H89.24V73.8399H127.43V62.5999Z" fill="#57D56C"/>
<path d="M127.43 116.17H89.24V127.41H127.43V116.17Z" fill="#57D56C"/>
</svg>
