<svg width="174" height="175" viewBox="0 0 174 175" fill="none" xmlns="http://www.w3.org/2000/svg">
<path d="M157.17 104.295C166.33 65.4991 142.307 26.6228 103.511 17.4621C64.7155 8.30138 25.8392 32.3252 16.6785 71.1208C7.51777 109.916 31.5416 148.793 70.3372 157.953C109.133 167.114 148.009 143.09 157.17 104.295Z" fill="#F4F4F4"/>
<path d="M75.86 125.34C74.09 125.34 72.41 124.51 71.35 123.07L51.6899 96.5301H39.05V85.3001H54.52C56.3 85.3001 57.97 86.1401 59.03 87.5701L74.7 108.73L100.09 53.08C101 51.08 103 49.8001 105.2 49.8001H136.68V61.0301H108.81L80.97 122.06C80.14 123.87 78.43 125.11 76.45 125.31C76.25 125.33 76.06 125.34 75.86 125.34Z" fill="#3ECF8E"/>
</svg>
