<svg width="175" height="175" viewBox="0 0 175 175" fill="none" xmlns="http://www.w3.org/2000/svg">
<path d="M157.474 104.342C166.635 65.5467 142.611 26.6706 103.815 17.5098C65.0197 8.34911 26.1434 32.3728 16.9827 71.1684C7.82197 109.964 31.8458 148.84 70.6414 158.001C109.437 167.162 148.313 143.138 157.474 104.342Z" fill="#23996F"/>
<path d="M128.83 108.08L110.73 77.1299C108.97 74.1199 105.75 72.2801 102.27 72.2801H87.14H72.0802C68.5902 72.2801 65.3702 74.13 63.6102 77.15L45.5602 108.1C42.9802 112.52 46.1701 118.06 51.2801 118.06H87.13H123.11C128.23 118.06 131.42 112.5 128.83 108.08Z" fill="white"/>
<path d="M77.27 63.46H79.5901H87.1399H87.26H94.1101H96.47C99.15 63.46 100.83 60.55 99.49 58.23L91.5501 44.47C89.5901 41.08 84.7199 41.02 82.6799 44.37L74.29 58.1601C72.88 60.4801 74.55 63.46 77.27 63.46Z" fill="white"/>
</svg>
