<svg width="205" height="205" viewBox="0 0 205 205" fill="none" xmlns="http://www.w3.org/2000/svg">
<path d="M153.257 153.229C181.445 125.041 181.445 79.3398 153.257 51.152C125.069 22.9642 79.3677 22.9642 51.1799 51.152C22.9921 79.3398 22.9921 125.041 51.1799 153.229C79.3677 181.417 125.069 181.417 153.257 153.229Z" fill="#202944"/>
<path d="M65.95 97.3501C65.94 97.2401 65.9399 97.14 65.9399 97.05C65.9399 94.21 65.9399 91.36 65.9299 88.52C65.9299 88.29 65.98 88.22 66.22 88.22C69.06 88.23 71.91 88.23 74.75 88.22C74.97 88.22 75.06 88.26 75.05 88.51C75.04 91.36 75.04 94.2201 75.05 97.0701C75.05 97.2901 74.99 97.3601 74.77 97.3601C71.91 97.3501 69.0499 97.3501 66.1899 97.3501C66.1299 97.3501 66.05 97.3501 65.95 97.3501Z" fill="white"/>
<path d="M75.4299 66.2599C75.4299 69.2899 75.4299 72.31 75.4299 75.34C72.3999 75.34 69.3801 75.34 66.3401 75.34C66.3401 72.32 66.3401 69.2999 66.3401 66.2599C69.3601 66.2599 72.3799 66.2599 75.4299 66.2599Z" fill="white"/>
<path d="M119.79 66.2499C119.79 69.2799 119.79 72.3 119.79 75.33C116.76 75.33 113.74 75.33 110.7 75.33C110.7 72.31 110.7 69.2899 110.7 66.2499C113.73 66.2499 116.75 66.2499 119.79 66.2499Z" fill="white"/>
<path d="M88.3301 88.6299C91.3501 88.6299 94.3699 88.6299 97.4099 88.6299C97.4099 91.6599 97.4099 94.68 97.4099 97.71C94.3899 97.71 91.3701 97.71 88.3301 97.71C88.3301 94.69 88.3301 91.6699 88.3301 88.6299Z" fill="white"/>
<path d="M66.3301 111.38C69.3701 111.38 72.3899 111.38 75.4199 111.38C75.4199 114.29 75.4199 117.18 75.4199 120.1C75.3299 120.1 75.2499 120.11 75.1699 120.11C72.3099 120.11 69.4501 120.11 66.5901 120.11C66.4001 120.11 66.3201 120.08 66.3201 119.86C66.3301 117.11 66.3201 114.36 66.3301 111.61C66.3201 111.54 66.3301 111.47 66.3301 111.38Z" fill="white"/>
<path d="M97.03 66.2599C97.03 69.2799 97.03 72.3 97.03 75.33C94.13 75.33 91.2401 75.33 88.3301 75.33C88.3301 72.32 88.3301 69.2999 88.3301 66.2599C91.2201 66.2599 94.11 66.2599 97.03 66.2599Z" fill="white"/>
<path d="M139.11 94.6998C138.59 94.6998 138.08 94.6998 137.57 94.6998C137.03 94.6998 136.48 94.6898 135.94 94.6998C135.75 94.6998 135.71 94.6398 135.71 94.4598C135.72 93.4698 135.72 92.4899 135.71 91.4999C135.71 91.3299 135.74 91.2499 135.94 91.2499C136.93 91.2599 137.93 91.2499 138.92 91.2499C139.04 91.2499 139.15 91.2298 139.15 91.4198C139.14 92.4798 139.15 93.53 139.14 94.59C139.14 94.62 139.13 94.6398 139.11 94.6998Z" fill="white"/>
<path d="M94.75 117.06C93.62 117.06 92.4901 117.06 91.3601 117.06C91.3601 115.92 91.3601 114.8 91.3601 113.66C92.4901 113.66 93.61 113.66 94.75 113.66C94.75 114.78 94.75 115.91 94.75 117.06Z" fill="white"/>
<path d="M139.14 115.34C139.14 115.85 139.14 116.36 139.14 116.88C139.14 117.03 139.09 117.08 138.94 117.08C137.92 117.08 136.91 117.08 135.89 117.08C135.75 117.08 135.7 117.04 135.7 116.89C135.7 115.87 135.7 114.86 135.7 113.84C135.7 113.69 135.74 113.64 135.9 113.64C136.91 113.65 137.92 113.65 138.93 113.64C139.09 113.64 139.15 113.68 139.14 113.85C139.14 114.34 139.14 114.84 139.14 115.34Z" fill="white"/>
<path d="M139.13 69.29C139.13 70.43 139.13 71.5399 139.13 72.6799C137.99 72.6799 136.87 72.6799 135.72 72.6799C135.72 71.5499 135.72 70.43 135.72 69.29C136.86 69.29 137.98 69.29 139.13 69.29Z" fill="white"/>
<path d="M116.76 94.6899C115.62 94.6899 114.5 94.6899 113.37 94.6899C113.37 93.5599 113.37 92.43 113.37 91.29C114.5 91.29 115.63 91.29 116.76 91.29C116.76 92.42 116.76 93.5399 116.76 94.6899Z" fill="white"/>
<path d="M113.35 117.06C113.35 115.92 113.35 114.8 113.35 113.66C114.48 113.66 115.6 113.66 116.74 113.66C116.74 114.78 116.74 115.91 116.74 117.06C115.62 117.06 114.5 117.06 113.35 117.06Z" fill="white"/>
<path d="M72.3899 138.3C71.2499 138.3 70.14 138.3 69 138.3C69 137.17 69 136.04 69 134.9C70.13 134.9 71.2499 134.9 72.3899 134.9C72.3899 136.03 72.3899 137.15 72.3899 138.3Z" fill="white"/>
<path d="M135.73 134.9C136.87 134.9 137.99 134.9 139.13 134.9C139.13 136.04 139.13 137.16 139.13 138.3C138 138.3 136.87 138.3 135.73 138.3C135.73 137.17 135.73 136.04 135.73 134.9Z" fill="white"/>
<path d="M94.76 134.91C94.76 136.03 94.76 137.16 94.76 138.3C93.63 138.3 92.5101 138.3 91.3601 138.3C91.3601 137.18 91.3601 136.06 91.3601 134.91C92.4901 134.91 93.61 134.91 94.76 134.91Z" fill="white"/>
<path d="M116.76 134.9C116.76 136.04 116.76 137.16 116.76 138.29C115.63 138.29 114.5 138.29 113.36 138.29C113.36 137.16 113.36 136.04 113.36 134.9C114.49 134.9 115.61 134.9 116.76 134.9Z" fill="white"/>
</svg>
