<svg width="175" height="175" viewBox="0 0 175 175" fill="none" xmlns="http://www.w3.org/2000/svg">
<path d="M157.433 104.289C166.594 65.4933 142.57 26.617 103.775 17.4562C64.9792 8.29552 26.1029 32.3193 16.9422 71.1149C7.78145 109.91 31.8053 148.787 70.6009 157.947C109.396 167.108 148.273 143.084 157.433 104.289Z" fill="#181D4C"/>
<path d="M67.34 73.44L87.21 62.09L107.21 73.7401L108.21 73.17L87.51 61.11L87.21 60.9301L86.91 61.11L66.33 72.8702L67.34 73.44Z" fill="#7CD8E3"/>
<path d="M86.37 109.83L66.17 98.44V75.3001L65.17 74.73V98.68L65.52 98.48L65.8199 98.9901L65.47 99.2L86.37 110.98V109.83Z" fill="#4BC0D2"/>
<path d="M108.25 75.67V98.2601L88.5699 109.5V110.65L108.95 99.0101L109.25 98.8401V98.4901V75.1102L108.25 75.67Z" fill="#12A4C6"/>
<path d="M87.22 38.6601L45.74 62.3801V110.36L87.17 133.71L128.69 110V62.83L87.22 38.6601ZM109.25 98.4901V98.8401L108.95 99.0101L126.19 108.9L88.5699 130.38V110.65V109.5V86.8301L108.25 75.68L109.25 75.1102L126.49 65.3401V108.39L109.25 98.4901ZM65.47 99.2L65.8199 99.0001L65.52 98.48L65.17 98.68L47.9301 108.73V64.9L65.17 74.73L66.17 75.3001L86.37 86.8201V109.83V110.98V130.75L48.23 109.25L65.47 99.2ZM87.21 60.9301L87.51 61.1V41.36L125.39 63.43L108.22 73.16L107.22 73.73L87.48 84.91L67.35 73.43L66.34 72.8602L49.05 63.0001L86.92 41.35V61.1L87.21 60.9301Z" fill="#7979F5"/>
</svg>
