<svg width="205" height="205" viewBox="0 0 205 205" fill="none" xmlns="http://www.w3.org/2000/svg">
<path d="M153.675 153.273C181.824 125.124 181.824 79.4858 153.675 51.3371C125.526 23.1884 79.8883 23.1883 51.7396 51.337C23.5909 79.4858 23.591 125.124 51.7397 153.273C79.8884 181.421 125.526 181.421 153.675 153.273Z" fill="#0090FF"/>
<path d="M134.37 59.28C129.44 54.14 118.47 55.63 113.88 60.42C106.92 67.67 103.85 77.8499 101.5 87.6899L81.71 84.64L80.83 90.38L100.2 93.37C100.06 93.98 99.92 94.5899 99.78 95.1899C99.16 97.8499 98.57 100.51 98.01 103.18L79.48 100.32L78.6 106.06L96.8 108.87C96.24 111.4 95.69 113.93 95.13 116.47C94.85 117.74 94.58 119.02 94.31 120.29C93.32 124.91 92.3 129.53 90.85 134.03C89.65 137.72 88.19 141.79 85.16 144.39C82.58 146.6 79.17 145.47 77.44 142.81C76.6 141.51 76.03 140.29 74.46 139.72C73 139.19 71.41 139.53 70.31 140.63C68.85 142.09 69.9 144.13 71.09 145.36C76.02 150.5 86.99 149.01 91.58 144.22C100.14 135.3 102.82 121.92 105.51 110.22L124.75 113.19L126 107.45L106.8 104.55C107.53 101.28 108.23 98.01 108.93 94.73L126.99 97.51L128.24 91.77L110.16 89.04C110.22 88.76 110.28 88.4699 110.35 88.1899C110.63 86.9199 110.9 85.64 111.17 84.37C112.16 79.75 113.18 75.13 114.63 70.63C115.83 66.94 117.29 62.87 120.33 60.27C122.91 58.06 126.32 59.1899 128.05 61.8499C128.89 63.1499 129.46 64.3699 131.03 64.9399C132.49 65.4699 134.08 65.13 135.18 64.03C136.6 62.55 135.55 60.51 134.37 59.28Z" fill="white"/>
</svg>
