<svg width="175" height="175" viewBox="0 0 175 175" fill="none" xmlns="http://www.w3.org/2000/svg">
<path d="M103.988 157.466C142.784 148.305 166.807 109.429 157.647 70.6334C148.486 31.8379 109.61 7.81404 70.8141 16.9748C32.0186 26.1355 7.99485 65.0118 17.1556 103.807C26.3163 142.603 65.1925 166.627 103.988 157.466Z" fill="#01EE8A"/>
<path d="M80.0601 102.53C80.0601 106.62 76.7499 109.93 72.6599 109.93H72.45C68.36 109.93 65.05 106.62 65.05 102.53C65.05 98.44 68.36 95.13 72.45 95.13H80.0601V74.75H72.29C57.07 74.75 44.73 87.0901 44.73 102.31C44.73 117.53 57.07 129.88 72.29 129.88H72.8701C88.0901 129.88 100.43 117.54 100.43 102.31V95.12H80.05V102.53H80.0601Z" fill="white"/>
<path d="M120.29 74.76H100.44V95.14H120.29V74.76Z" fill="white"/>
<path d="M108.12 64.75H110.37H130.22V44.9H110.37H107.23C92.23 44.9 80.0701 57.0601 80.0701 72.0601V74.75H100.45V72.42C100.44 68.19 103.88 64.75 108.12 64.75Z" fill="white"/>
</svg>
