<svg width="174" height="174" viewBox="0 0 174 174" fill="none" xmlns="http://www.w3.org/2000/svg">
<path d="M103.809 157.17C142.428 148.051 166.342 109.353 157.223 70.7347C148.104 32.1165 109.405 8.20258 70.7871 17.3214C32.1689 26.4403 8.25507 65.1387 17.3739 103.757C26.4928 142.375 65.1911 166.289 103.809 157.17Z" fill="#2B61D1"/>
<path d="M87.3301 41.47L47.9399 65.01V84.84L60.8899 77.55L73.5901 85.24V79.74L104.98 61.61L126.83 74.16V64.85L87.3301 41.47Z" fill="white"/>
<path d="M83.3 85.24V110.81L105.06 123.11L126.83 110.81V85.24L105.06 72.78L83.3 85.24Z" fill="white"/>
<path d="M73.3501 96.08L60.6499 88.8L47.95 96.08V110.81C47.95 110.81 60.4099 118.17 60.6499 118.09C60.8899 118.01 73.3501 110.81 73.3501 110.81V96.08Z" fill="white"/>
<path d="M69.99 123.47L87.3899 133.54L95.6799 128.93L78.2 118.74L69.99 123.47Z" fill="white"/>
</svg>
