<svg width="205" height="204" viewBox="0 0 205 204" fill="none" xmlns="http://www.w3.org/2000/svg">
<path d="M153.28 152.803C181.323 124.76 181.323 79.2925 153.28 51.2492C125.237 23.2059 79.7694 23.206 51.7261 51.2492C23.6828 79.2925 23.6828 124.76 51.7261 152.803C79.7693 180.846 125.236 180.846 153.28 152.803Z" fill="black"/>
<path d="M131.02 120.32C134.58 114.82 136.49 108.41 136.49 101.7C136.49 95.08 134.63 88.75 131.16 83.3L142.74 71.66L132.66 61.63L121.22 73.13C115.63 69.38 109.05 67.37 102.17 67.37C95.3999 67.37 88.9399 69.32 83.4099 72.94L72.2 61.79L62.1699 71.87L73.3701 83.01C69.7801 88.52 67.8501 94.96 67.8501 101.7C67.8501 108.64 69.9 115.27 73.71 120.9L62.3301 132.34L72.4099 142.37L83.9299 130.79C89.3499 134.2 95.6199 136.03 102.18 136.03C108.98 136.03 115.47 134.07 121.02 130.41L132.89 142.22L142.92 132.14L131.02 120.32ZM111.17 120.63C108.44 121.93 105.39 122.66 102.17 122.66C99.1799 122.66 96.34 122.03 93.77 120.9C89.3 118.93 85.64 115.45 83.45 111.11C82.02 108.28 81.22 105.09 81.22 101.71C81.22 98.53 81.93 95.51 83.21 92.81C85.29 88.4 88.86 84.83 93.26 82.75C95.97 81.47 98.9899 80.76 102.18 80.76C105.52 80.76 108.68 81.55 111.49 82.94C115.85 85.11 119.35 88.75 121.34 93.21C122.5 95.81 123.14 98.69 123.14 101.71C123.14 104.86 122.44 107.85 121.19 110.53C119.12 114.94 115.56 118.53 111.17 120.63Z" fill="white"/>
</svg>
