<svg width="204" height="204" viewBox="0 0 204 204" fill="none" xmlns="http://www.w3.org/2000/svg">
<path d="M152.73 153.13C180.749 125.11 180.749 79.681 152.73 51.6612C124.71 23.6413 79.2806 23.6413 51.2608 51.6612C23.2409 79.681 23.2409 125.11 51.2608 153.13C79.2806 181.15 124.71 181.15 152.73 153.13Z" fill="#206DFE"/>
<path d="M126.37 72.08L106.32 61.4201C103.65 60.0001 100.46 60.0001 97.79 61.4201L77.74 72.09C76.55 72.72 75.81 73.9601 75.8 75.3001L75.6801 128.51C75.6801 129.95 76.47 131.26 77.74 131.93L98.1 142.63C99.32 143.27 100.66 143.59 102 143.59C103.33 143.59 104.66 143.27 105.88 142.64L126.22 132.04C127.5 131.37 128.29 130.07 128.29 128.63V75.3001C128.31 73.9501 127.57 72.71 126.37 72.08ZM97.59 88.19L79.05 98.0001L79.09 78.6L97.59 88.19ZM99.48 90.9001C99.73 90.7701 99.98 90.66 100.24 90.57V112.43C99.99 112.34 99.75 112.24 99.52 112.12L79.3101 101.57L99.48 90.9001ZM103.52 90.46C103.91 90.57 104.29 90.7101 104.65 90.9001L124.8 101.52L104.59 112.12C104.24 112.3 103.88 112.44 103.51 112.54V90.46H103.52ZM125.03 97.9301L106.47 88.1501L125.03 78.3801V97.9301ZM99.34 64.3101C100.19 63.8601 101.13 63.6301 102.06 63.6301C102.99 63.6301 103.93 63.8601 104.78 64.3101L124.64 74.8801L103.8 85.84C102.67 86.44 101.32 86.44 100.18 85.85L79.25 75.0001C79.26 74.9901 79.27 74.99 79.28 74.98L99.34 64.3101ZM124.72 129.13L104.38 139.73C102.89 140.5 101.12 140.5 99.64 139.72L79.28 129.02C79.09 128.92 78.98 128.73 78.98 128.51L79.03 105.13L98 115.03C99.27 115.69 100.66 116.02 102.05 116.02C103.45 116.02 104.85 115.69 106.12 115.02L125.02 105.1V128.62C125.03 128.84 124.91 129.03 124.72 129.13Z" fill="white"/>
<path d="M131.38 67.47C130.09 66.35 129.01 65.8099 128.41 65.5699C128.14 65.4599 127.83 65.5699 127.69 65.8199L126.64 67.6999C126.48 67.9999 126.6 68.37 126.91 68.5C127.49 68.76 128.41 69.2299 129.23 69.9399C130.87 71.3599 131.74 73.2501 131.81 75.5601C131.82 75.8601 132.07 76.11 132.38 76.11L134.51 76.16C134.84 76.17 135.11 75.8999 135.1 75.5699C135 71.4699 133.05 68.91 131.38 67.47Z" fill="white"/>
<path d="M77.1801 135.73C76.6001 135.47 75.68 135 74.86 134.29C73.22 132.87 72.3501 130.98 72.2801 128.67C72.2701 128.37 72.02 128.12 71.71 128.12L69.58 128.07C69.25 128.06 68.98 128.33 68.99 128.66C69.08 132.77 71.04 135.33 72.71 136.77C74 137.89 75.0801 138.43 75.6801 138.67C75.9501 138.78 76.26 138.67 76.4 138.42L77.45 136.54C77.61 136.24 77.4901 135.87 77.1801 135.73Z" fill="white"/>
</svg>
