<svg width="146" height="145" viewBox="0 0 146 145" fill="none" xmlns="http://www.w3.org/2000/svg">
<path d="M70.8201 0.219971C72.3101 0.219971 73.8 0.219971 75.29 0.219971C75.49 0.239971 75.6899 0.270029 75.8999 0.280029C79.3199 0.400029 82.7001 0.780024 86.0601 1.40002C91.6101 2.42002 96.9701 4.04997 102.12 6.33997C112.38 10.88 121.13 17.44 128.34 26.03C134.24 33.06 138.63 40.95 141.52 49.67C143.51 55.67 144.7 61.83 145.06 68.15C145.1 68.81 145.15 69.46 145.19 70.12C145.19 71.61 145.19 73.1 145.19 74.59C145.17 74.72 145.14 74.85 145.14 74.98C145.04 77.95 144.74 80.9 144.27 83.83C143.36 89.51 141.79 95 139.56 100.3C135.17 110.7 128.71 119.61 120.16 126.99C111.93 134.09 102.55 139.06 92.0701 141.94C87.2201 143.28 82.27 144.08 77.24 144.36C76.59 144.4 75.95 144.44 75.3 144.49C73.81 144.49 72.3201 144.49 70.8301 144.49C70.7001 144.47 70.5699 144.44 70.4399 144.44C66.1699 144.29 61.95 143.76 57.77 142.85C48.74 140.88 40.38 137.33 32.73 132.16C22.31 125.11 14.2601 115.96 8.61011 104.73C4.15011 95.88 1.65007 86.48 1.07007 76.59C1.03007 75.93 0.979941 75.27 0.939941 74.62C0.939941 73.13 0.939941 71.64 0.939941 70.15C0.959941 70 0.98999 69.8399 0.98999 69.6899C1.08999 66.8899 1.36004 64.11 1.79004 61.34C2.67004 55.63 4.19993 50.1 6.42993 44.78C11.9199 31.68 20.5099 21.06 32.1899 12.97C37.8299 9.05997 43.9299 6.06002 50.4399 3.90002C56.4099 1.93002 62.5301 0.750015 68.8101 0.390015C69.4801 0.310015 70.1501 0.259971 70.8201 0.219971ZM109.77 36.25C106.5 32.98 103.29 29.77 100.05 26.52C99.98 26.61 99.9001 26.7201 99.8101 26.8101C95.9401 30.6801 92.07 34.54 88.21 38.42C88.02 38.61 87.8899 38.66 87.6299 38.55C85.3999 37.65 83.11 36.95 80.72 36.58C77.2 36.03 73.6701 35.8901 70.1201 36.0601C66.1601 36.2501 62.2999 36.9499 58.6499 38.5699C58.3599 38.6999 58.19 38.64 57.97 38.42C54.08 34.54 50.19 30.66 46.29 26.79C46.2 26.7 46.1001 26.6099 46.0601 26.5699C42.8301 29.7999 39.6199 33.01 36.3799 36.25C36.4399 36.3 36.5401 36.37 36.6201 36.46C40.5001 40.33 44.37 44.21 48.26 48.08C48.49 48.3 48.5499 48.48 48.4299 48.79C47.7099 50.74 47.2099 52.7299 47.1499 54.8199C47.0599 57.7499 47.51 60.57 48.72 63.24C50.56 67.32 53.59 70.28 57.49 72.38C60.19 73.83 63.07 74.8401 66 75.6801C69.58 76.7001 73.18 77.61 76.77 78.58C78.84 79.14 80.9299 79.66 82.8799 80.59C84.1199 81.18 85.3099 81.87 86.1799 82.97C87.7799 84.99 87.8701 87.32 87.1001 89.61C86.1001 92.57 83.88 94.47 81 95.59C79.12 96.32 77.1499 96.62 75.1499 96.72C72.5999 96.84 70.0799 96.6701 67.6499 95.8101C65.0099 94.8801 62.79 93.38 61.25 90.97C60.19 89.3 59.4099 87.52 58.9099 85.62C58.7099 84.87 58.5501 84.11 58.3701 83.34C58.1401 83.36 57.94 83.37 57.74 83.38C55.85 83.56 53.9601 83.73 52.0701 83.92C49.8201 84.14 47.5801 84.37 45.3301 84.61C44.5401 84.69 44.5399 84.72 44.6499 85.5C45.0399 88.47 45.8 91.34 46.95 94.1C47.32 94.98 47.7499 95.84 48.1799 96.76C44.2399 100.69 40.2899 104.62 36.3899 108.51C39.6199 111.74 42.8201 114.95 46.0901 118.21C46.1501 118.13 46.2201 118 46.3201 117.9C50.1901 114.02 54.0699 110.15 57.9399 106.26C58.1499 106.05 58.3001 106.03 58.5601 106.14C62.2801 107.8 66.23 108.51 70.27 108.78C73.3 108.98 76.3201 108.91 79.3401 108.59C82.3201 108.27 85.2501 107.7 88.0701 106.65C88.3401 106.55 88.4899 106.6 88.6899 106.8C92.3899 110.51 96.1 114.22 99.8 117.92C99.9 118.02 100 118.11 100.07 118.17C103.31 114.93 106.51 111.73 109.73 108.52C106.15 104.94 102.54 101.34 98.9299 97.73C98.9999 97.58 99.0701 97.46 99.1201 97.33C99.7101 95.95 100.4 94.6099 100.86 93.1899C101.88 90.0099 101.92 86.74 101.54 83.45C100.92 78.06 98.3301 73.79 94.0701 70.49C91.8801 68.79 89.38 67.68 86.8 66.75C82.86 65.33 78.81 64.33 74.77 63.28C71.66 62.48 68.5401 61.66 65.5701 60.4C64.5101 59.95 63.4801 59.43 62.5901 58.67C60.1001 56.55 60.0601 52.62 62.5601 50.6C63.2701 50.02 64.0899 49.56 64.9099 49.15C66.4999 48.36 68.23 48.06 69.98 47.87C72.55 47.59 75.1099 47.65 77.6399 48.26C80.8999 49.05 83.26 50.92 84.47 54.08C84.88 55.15 85.14 56.28 85.45 57.39C85.53 57.69 85.64 57.81 85.98 57.8C90.17 57.63 94.3601 57.49 98.5601 57.33C98.9701 57.31 99.37 57.28 99.8 57.25C99.73 56.53 99.6801 55.83 99.6001 55.14C99.3601 52.86 98.7201 50.69 97.8601 48.58C97.7401 48.29 97.78 48.12 98 47.9C101.82 44.09 105.64 40.27 109.45 36.45C109.58 36.36 109.7 36.3 109.77 36.25Z" fill="black"/>
<path d="M109.77 36.25C109.7 36.3 109.58 36.36 109.49 36.45C105.67 40.27 101.86 44.09 98.04 47.9C97.82 48.12 97.7799 48.3 97.8999 48.58C98.7599 50.69 99.3999 52.86 99.6399 55.14C99.7099 55.83 99.7701 56.52 99.8401 57.25C99.4001 57.28 99.0001 57.31 98.6001 57.33C94.4101 57.49 90.22 57.63 86.02 57.8C85.68 57.81 85.58 57.69 85.49 57.39C85.19 56.28 84.92 55.15 84.51 54.08C83.3 50.92 80.9399 49.05 77.6799 48.26C75.1499 47.64 72.59 47.59 70.02 47.87C68.27 48.06 66.54 48.35 64.95 49.15C64.13 49.56 63.3101 50.02 62.6001 50.6C60.1001 52.62 60.1399 56.55 62.6299 58.67C63.5199 59.43 64.5501 59.95 65.6101 60.4C68.5801 61.66 71.6901 62.47 74.8101 63.28C78.8501 64.32 82.9101 65.33 86.8401 66.75C89.4301 67.68 91.9201 68.79 94.1101 70.49C98.3701 73.79 100.96 78.06 101.58 83.45C101.96 86.74 101.91 90.0099 100.9 93.1899C100.44 94.6099 99.7499 95.95 99.1599 97.33C99.0999 97.46 99.04 97.59 98.97 97.73C102.58 101.34 106.18 104.94 109.77 108.52C106.55 111.74 103.35 114.94 100.11 118.17C100.04 118.11 99.9401 118.01 99.8401 117.92C96.1301 114.21 92.43 110.51 88.73 106.8C88.53 106.6 88.3801 106.55 88.1101 106.65C85.2901 107.7 82.3599 108.27 79.3799 108.59C76.3599 108.91 73.3401 108.99 70.3101 108.78C66.2701 108.51 62.3301 107.8 58.6001 106.14C58.3401 106.03 58.19 106.05 57.98 106.26C54.11 110.14 50.2301 114.02 46.3601 117.9C46.2601 118 46.1899 118.13 46.1299 118.21C42.8599 114.94 39.6599 111.74 36.4299 108.51C40.3299 104.62 44.28 100.69 48.22 96.76C47.79 95.84 47.36 94.98 46.99 94.1C45.84 91.34 45.0799 88.47 44.6899 85.5C44.5899 84.71 44.5901 84.69 45.3701 84.61C47.6201 84.37 49.8601 84.15 52.1101 83.92C54.0001 83.73 55.89 83.56 57.78 83.38C57.98 83.36 58.1799 83.35 58.4099 83.34C58.5899 84.11 58.75 84.87 58.95 85.62C59.45 87.53 60.24 89.31 61.29 90.97C62.82 93.39 65.0499 94.8801 67.6899 95.8101C70.1199 96.6701 72.6399 96.84 75.1899 96.72C77.1899 96.62 79.16 96.32 81.04 95.59C83.92 94.47 86.1399 92.58 87.1399 89.61C87.9099 87.32 87.82 85 86.22 82.97C85.35 81.87 84.1599 81.18 82.9199 80.59C80.9699 79.66 78.8801 79.14 76.8101 78.58C73.2201 77.61 69.61 76.7001 66.04 75.6801C63.11 74.8401 60.22 73.84 57.53 72.38C53.63 70.28 50.6 67.32 48.76 63.24C47.55 60.56 47.0999 57.7399 47.1899 54.8199C47.2499 52.7299 47.75 50.74 48.47 48.79C48.59 48.48 48.53 48.3 48.3 48.08C44.41 44.21 40.5399 40.34 36.6599 36.46C36.5799 36.38 36.4799 36.3 36.4199 36.25C39.6499 33.02 42.8601 29.8099 46.1001 26.5699C46.1401 26.6099 46.2401 26.7 46.3301 26.79C50.2201 30.67 54.12 34.54 58.01 38.42C58.23 38.64 58.3999 38.6999 58.6899 38.5699C62.3399 36.9499 66.1999 36.2601 70.1599 36.0601C73.7099 35.8901 77.25 36.03 80.76 36.58C83.14 36.95 85.4299 37.66 87.6699 38.55C87.9299 38.65 88.07 38.6 88.25 38.42C92.11 34.55 95.9801 30.6801 99.8501 26.8101C99.9401 26.7201 100.02 26.61 100.09 26.52C103.29 29.77 106.5 32.98 109.77 36.25Z" fill="white"/>
</svg>
