<svg width="205" height="204" viewBox="0 0 205 204" fill="none" xmlns="http://www.w3.org/2000/svg">
<path d="M153.227 152.957C181.301 124.883 181.301 79.3649 153.227 51.2903C125.152 23.2158 79.6342 23.2159 51.5597 51.2904C23.4851 79.3649 23.4852 124.883 51.5597 152.957C79.6343 181.032 125.152 181.032 153.227 152.957Z" fill="#F4F6F5"/>
<path d="M86.77 101.1L94.8401 105.73L94.73 134.3L70.27 119.18V84.9301L64.52 81.61V122.47L100.67 144.76V102.49L86.77 94.42V101.1Z" fill="black"/>
<path d="M118.07 94.46V94.42L104.18 102.49V118.58L110.04 115.23L110 105.73L118.07 101.1L134.58 91.55V119.18L110.11 134.3L104.18 137.84V144.76L140.33 122.47V88.22V81.61L118.07 94.46Z" fill="black"/>
<path d="M110.23 88.17L102.38 92.7L78.51 78.83L102.38 66.04L132.19 82.1899L138.11 78.78L102.38 59.45L66.5601 78.83L102.38 99.42L116.03 91.51L110.23 88.17Z" fill="black"/>
</svg>
