<svg width="204" height="205" viewBox="0 0 204 205" fill="none" xmlns="http://www.w3.org/2000/svg">
<path d="M153.075 153.403C181.193 125.285 181.193 79.6979 153.075 51.5804C124.958 23.4629 79.3702 23.4629 51.2528 51.5804C23.1353 79.6979 23.1353 125.285 51.2528 153.403C79.3702 181.52 124.958 181.52 153.075 153.403Z" fill="#F8931F"/>
<path d="M123.2 102.61C123.2 98.8901 120.17 95.8601 116.45 95.8601H74.6799V109.09H109.97V125.88H68.02C65.36 125.88 63.2 123.72 63.2 121.06V83.9099C63.2 81.2499 65.36 79.0901 68.02 79.0901H77.05L92.3501 65.8601H68.02C58.07 65.8601 49.97 73.9599 49.97 83.9099V121.06C49.97 131.01 58.07 139.11 68.02 139.11H107.88L123.2 125.85V102.61Z" fill="white"/>
<path d="M136.38 65.8601H99.53L84.23 79.0901H136.38C139.04 79.0901 141.2 81.2499 141.2 83.9099V121.06C141.2 123.72 139.04 125.88 136.38 125.88H130.35L115.05 139.11H136.38C146.33 139.11 154.43 131.01 154.43 121.06V83.9099C154.43 73.9599 146.33 65.8601 136.38 65.8601Z" fill="white"/>
</svg>
