<svg width="205" height="205" viewBox="0 0 205 205" fill="none" xmlns="http://www.w3.org/2000/svg">
<path d="M153.275 153.222C181.463 125.035 181.463 79.3331 153.275 51.1454C125.087 22.9576 79.3857 22.9576 51.1979 51.1454C23.0101 79.3331 23.0101 125.034 51.1979 153.222C79.3856 181.41 125.087 181.41 153.275 153.222Z" fill="#F4F4F4"/>
<path d="M125.42 79.71C125.42 74.51 123.6 69.74 120.57 65.97L131.64 55.0801L128.16 51.54L117.04 62.48C113.31 59.54 108.61 57.78 103.5 57.78C91.4101 57.78 81.5701 67.62 81.5701 79.71C81.5701 90.96 90.0901 100.25 101.01 101.49V111.78C90.0801 113.02 81.5701 122.31 81.5701 133.56C81.5701 145.65 91.4101 155.49 103.5 155.49C115.59 155.49 125.43 145.65 125.43 133.56C125.43 122.31 116.91 113.02 105.99 111.78V101.49C116.9 100.25 125.42 90.96 125.42 79.71ZM86.5302 79.71C86.5302 70.34 94.1301 62.75 103.49 62.75C112.86 62.75 120.45 70.35 120.45 79.71C120.45 89.08 112.85 96.6699 103.49 96.6699C94.1301 96.6699 86.5302 89.08 86.5302 79.71ZM120.46 133.56C120.46 142.93 112.86 150.52 103.5 150.52C94.1301 150.52 86.5402 142.92 86.5402 133.56C86.5402 124.2 94.1401 116.6 103.5 116.6C112.87 116.6 120.46 124.19 120.46 133.56Z" fill="url(#paint0_linear_1_7911)"/>
<defs>
<linearGradient id="paint0_linear_1_7911" x1="106.604" y1="51.5496" x2="106.604" y2="155.487" gradientUnits="userSpaceOnUse">
<stop stop-color="#181EA9"/>
<stop offset="1" stop-color="#0B94D6"/>
</linearGradient>
</defs>
</svg>
