<svg width="174" height="175" viewBox="0 0 174 175" fill="none" xmlns="http://www.w3.org/2000/svg">
<path d="M157.357 104.071C166.517 65.275 142.493 26.3987 103.698 17.238C64.9022 8.07729 26.026 32.101 16.8653 70.8966C7.70454 109.692 31.7283 148.568 70.5238 157.729C109.319 166.89 148.196 142.866 157.357 104.071Z" fill="#00A6C4"/>
<path d="M48.71 62.67C50.16 64.07 51.5901 65.4402 53.0501 66.8502C50.1701 71.3602 49.25 76.22 50.47 81.41C51.33 85.06 53.21 88.15 55.98 90.68C61.54 95.77 70.4901 97.1701 78.0401 92.2201C81.3301 95.5901 84.64 98.96 87.99 102.39C91.82 98.51 95.6 94.6702 99.41 90.8102C101.3 92.0402 103.32 92.8902 105.51 93.3102C114.17 94.9702 122.68 90.01 125.49 81.65C127.23 76.48 126.66 71.5202 123.98 66.7902C123.73 66.3402 123.73 66.0901 124.11 65.7401C125.17 64.7601 126.19 63.75 127.32 62.67C128.12 64.13 129 65.6 129.77 67.13C133.36 74.27 135.09 81.8502 134.91 89.8302C134.4 111.98 118.93 130.79 97.67 135.34C74.63 140.27 51.4101 127.07 43.7701 104.63C39.0201 90.69 40.42 77.24 47.67 64.41C47.99 63.84 48.33 63.2901 48.66 62.7301C48.67 62.6801 48.72 62.66 48.71 62.67Z" fill="#FEFEFE"/>
<path d="M88.1599 95.1601C75.2299 81.9801 62.35 68.8602 49.47 55.7402C69.07 32.2202 106.09 31.7202 126.39 56.5402C113.67 69.4002 100.95 82.2501 88.1599 95.1601ZM120.15 56.3801C101.87 37.5201 72.26 38.7802 55.79 55.7402C66.57 66.7102 77.3499 77.6701 88.1599 88.6601C98.8499 77.8801 109.48 67.1501 120.15 56.3801Z" fill="#FCFDFE"/>
<path d="M58.2 72.45C62.71 76.85 67.2401 81.2599 71.7601 85.6799C69.2601 88.1099 63.79 89.01 59.74 85.52C55.9 82.19 55.24 76.07 58.2 72.45Z" fill="#FCFDFE"/>
<path d="M105.32 84.9099C109.71 80.4599 114.1 76.01 118.49 71.55C120.42 73.79 121.33 79.46 117.62 83.49C113.85 87.58 108.15 87.1799 105.32 84.9099Z" fill="#FCFDFE"/>
</svg>
