<svg width="205" height="205" viewBox="0 0 205 205" fill="none" xmlns="http://www.w3.org/2000/svg">
<path d="M153.853 153.446C182.041 125.258 182.041 79.557 153.853 51.3692C125.666 23.1814 79.9643 23.1814 51.7765 51.3692C23.5887 79.5569 23.5888 125.258 51.7766 153.446C79.9643 181.634 125.666 181.634 153.853 153.446Z" fill="#6847EE"/>
<path d="M135.81 73.25C138.461 73.25 140.61 71.1009 140.61 68.45C140.61 65.799 138.461 63.65 135.81 63.65C133.159 63.65 131.01 65.799 131.01 68.45C131.01 71.1009 133.159 73.25 135.81 73.25Z" fill="white"/>
<path d="M130.96 92.36C130.96 84.67 127.97 77.44 122.53 72.01C117.09 66.57 109.87 63.58 102.18 63.58C94.49 63.58 87.26 66.57 81.83 72.01C76.39 77.45 73.4 84.67 73.4 92.36C73.4 100.05 76.39 107.28 81.83 112.71C87.27 118.15 94.49 121.14 102.18 121.14C109.87 121.14 117.1 118.15 122.53 112.71C127.97 107.28 130.96 100.05 130.96 92.36ZM102.18 111.73C91.5 111.73 82.81 103.04 82.81 92.36C82.81 81.68 91.5 72.99 102.18 72.99C112.86 72.99 121.55 81.68 121.55 92.36C121.55 103.04 112.86 111.73 102.18 111.73Z" fill="white"/>
<path d="M122.99 122.29L103.73 141.83C101.91 143.68 101.93 146.66 103.78 148.48C104.7 149.38 105.89 149.83 107.08 149.83C108.3 149.83 109.51 149.36 110.43 148.43L129.69 128.89C131.51 127.04 131.49 124.06 129.64 122.24C127.79 120.42 124.81 120.44 122.99 122.29Z" fill="white"/>
</svg>
