<svg width="145" height="146" viewBox="0 0 145 146" fill="none" xmlns="http://www.w3.org/2000/svg">
<path d="M72.25 145.07C112.114 145.07 144.43 112.754 144.43 72.89C144.43 33.0261 112.114 0.709961 72.25 0.709961C32.3861 0.709961 0.0700684 33.0261 0.0700684 72.89C0.0700684 112.754 32.3861 145.07 72.25 145.07Z" fill="#F4F4F4"/>
<path d="M115.53 51.7901L88.04 66.1801V83.07L97.53 77.9301V87.87L69.77 102.55L49.2 90.6301C46.15 88.8601 44.26 85.6 44.26 82.07V56.8901L66.3501 43.84C69.0001 42.27 72.3 42.2601 74.96 43.8001L97.6299 56.9001L111.17 48.7L76.25 28.9201C73.07 27.1201 69.16 27.13 65.99 28.96L30.8501 49.2V89.0601C30.8501 93.0101 32.9401 96.6601 36.3401 98.6601L70.6299 118.82L105.95 98.2901C109.18 96.4101 111.16 92.96 111.16 89.23V70.5501L115.51 68.19V51.7901H115.53Z" fill="#D45657"/>
</svg>
