<svg width="174" height="175" viewBox="0 0 174 175" fill="none" xmlns="http://www.w3.org/2000/svg">
<path d="M157.129 104.383C166.29 65.5873 142.266 26.711 103.47 17.5503C64.6747 8.38955 25.7985 32.4133 16.6377 71.2089C7.47702 110.004 31.5007 148.881 70.2963 158.041C109.092 167.202 147.968 143.178 157.129 104.383Z" fill="#00DBF9"/>
<path d="M70.2199 69.9697C71.2899 61.5997 75.0699 54.7398 81.6899 49.5198C87.5299 44.9098 94.2399 42.7299 101.68 43.1099C109.41 43.5099 116.07 46.4697 121.55 51.9497C126.1 56.4997 128.93 61.9798 129.93 68.3398C131.27 76.8198 129.31 84.5296 124.16 91.3896C119.87 97.1096 112.7 102.13 103.45 103.18C102.22 112.58 97.6899 119.97 89.7899 125.21C84.2299 128.89 78.0499 130.5 71.4199 130.03C64.1899 129.51 57.8599 126.73 52.6099 121.69C47.3599 116.65 44.2899 110.47 43.4999 103.26C42.5999 95.0198 44.7999 87.5796 50.0199 81.1296C55.2099 74.6896 61.9899 71.0097 70.2199 69.9697ZM50.3999 103.38C51.8899 114.52 62.1199 124.26 75.4799 123.2C80.8199 122.77 85.5099 120.65 89.4299 116.96C93.3499 113.27 95.6899 108.73 96.5499 103.38C81.1299 103.38 65.7699 103.38 50.3999 103.38ZM77.1399 69.7598C92.5099 69.7598 107.88 69.7598 123.28 69.7598C122.37 64.1998 119.91 59.4998 115.71 55.7898C110.44 51.1398 104.24 49.2398 97.2699 50.0598C86.1099 51.3698 78.2699 60.4898 77.1399 69.7598ZM96.7999 76.5999C90.1299 76.5999 83.4999 76.5999 76.8499 76.5999C76.8499 83.2399 76.8499 89.8497 76.8499 96.4897C83.5099 96.4897 90.1399 96.4897 96.7999 96.4897C96.7999 89.8597 96.7999 83.2399 96.7999 76.5999ZM103.62 96.2598C109.3 95.3098 114.03 92.7397 117.79 88.4297C120.76 85.0297 122.55 81.0799 123.27 76.6099C116.69 76.6099 110.16 76.6099 103.62 76.6099C103.62 83.1599 103.62 89.6698 103.62 96.2598ZM70.0199 76.8796C60.7299 78.1096 51.9399 85.8097 50.3999 96.4897C56.9399 96.4897 63.4699 96.4897 70.0199 96.4897C70.0199 89.9497 70.0199 83.4296 70.0199 76.8796Z" fill="#FEFEFE"/>
</svg>
