<svg width="175" height="175" viewBox="0 0 175 175" fill="none" xmlns="http://www.w3.org/2000/svg">
<path d="M157.508 104.087C166.669 65.2914 142.645 26.4152 103.85 17.2545C65.054 8.09372 26.1777 32.1175 17.017 70.913C7.85629 109.709 31.8801 148.585 70.6757 157.746C109.471 166.906 148.347 142.883 157.508 104.087Z" fill="#F4F4F4"/>
<path d="M137.72 107.22C137.69 106.84 137.69 106.45 137.65 106.07C137.61 105.62 137.55 105.17 137.49 104.72C137.39 104.04 137.3 103.36 137.17 102.68C136.62 99.8301 135.7 97.1001 134.41 94.5001C131.73 89.1101 127.86 84.7701 122.81 81.5101C119.32 79.2601 115.54 77.74 111.47 76.94C110.77 76.8 110.07 76.69 109.37 76.59C108.88 76.52 108.38 76.49 107.88 76.45C107.4 76.41 106.92 76.38 106.44 76.34C106.42 76.34 106.4 76.3201 106.38 76.3101C105.58 76.3101 104.77 76.3101 103.97 76.3101C103.73 76.3301 103.49 76.3501 103.25 76.3701C102.25 76.4801 101.25 76.56 100.25 76.7C97.28 77.11 94.45 77.98 91.73 79.21C88.59 80.63 85.75 82.5 83.21 84.82C80.47 87.32 78.22 90.2 76.47 93.47C74.89 96.41 73.79 99.5201 73.16 102.79C73.04 103.41 72.93 104.04 72.84 104.66C72.78 105.09 72.74 105.53 72.71 105.97C72.67 106.51 72.62 107.06 72.61 107.6C72.59 108.43 72.55 109.26 72.59 110.09C72.64 111.09 72.73 112.1 72.85 113.1C73.07 114.93 73.47 116.72 74.01 118.49C75.35 122.83 77.49 126.73 80.45 130.18C83.24 133.44 86.56 136.04 90.38 137.99C93.05 139.36 95.86 140.33 98.81 140.91C99.73 141.09 100.66 141.22 101.59 141.34C102.12 141.41 102.65 141.43 103.18 141.48C103.41 141.5 103.65 141.52 103.88 141.54C104.74 141.54 105.6 141.54 106.46 141.54C106.5 141.53 106.54 141.51 106.58 141.51C107.25 141.46 107.92 141.46 108.59 141.37C109.71 141.22 110.83 141.06 111.94 140.83C115.94 140 119.65 138.45 123.07 136.2C127.82 133.07 131.52 128.97 134.14 123.92C135.7 120.92 136.76 117.75 137.32 114.42C137.44 113.7 137.53 112.98 137.62 112.25C137.66 111.91 137.67 111.56 137.69 111.21C137.71 110.88 137.74 110.54 137.76 110.21C137.76 110.19 137.78 110.17 137.79 110.16C137.79 109.34 137.79 108.53 137.79 107.71C137.76 107.57 137.73 107.39 137.72 107.22ZM119.88 104.42C119.8 105.3 119.61 106.16 119.25 106.98C118.52 108.6 117.27 109.58 115.57 110.03C115.51 110.05 115.45 110.06 115.35 110.09C115.43 110.14 115.48 110.16 115.53 110.19C116.41 110.67 117.23 111.25 117.88 112.02C118.71 113 119.13 114.13 119.14 115.43C119.15 117.33 118.58 119.06 117.6 120.66C116.58 122.31 115.07 123.27 113.19 123.66C112.71 123.76 112.22 123.83 111.72 123.86C111.1 123.9 110.47 123.9 109.85 123.89C109.48 123.88 109.12 123.83 108.75 123.79C108.24 123.73 107.72 123.67 107.21 123.6C106.86 123.55 106.5 123.47 106.14 123.4C105.65 125.35 105.17 127.29 104.68 129.24C103.5 128.95 102.34 128.66 101.16 128.36C101.64 126.44 102.12 124.53 102.6 122.6C101.67 122.36 100.74 122.12 99.79 121.87C99.31 123.8 98.83 125.72 98.35 127.66C97.17 127.37 96.01 127.08 94.83 126.78C95.32 124.83 95.8 122.89 96.29 120.92C93.93 120.32 91.57 119.73 89.2 119.13C89.22 119.07 89.24 119.02 89.26 118.96C89.8 117.72 90.33 116.49 90.86 115.25C90.91 115.12 90.97 115.1 91.1 115.13C91.86 115.33 92.61 115.52 93.37 115.7C93.61 115.76 93.86 115.82 94.12 115.76C94.66 115.64 94.99 115.31 95.12 114.8C95.71 112.47 96.29 110.14 96.87 107.8C97.58 104.96 98.3 102.12 98.99 99.2701C99.2 98.3901 98.91 97.6 98.01 97.2C97.5 96.98 96.95 96.85 96.41 96.71C95.9 96.57 95.39 96.46 94.86 96.34C95.17 95.09 95.48 93.85 95.8 92.58C98.17 93.17 100.52 93.76 102.9 94.36C103.39 92.41 103.86 90.4901 104.35 88.5601C105.52 88.8501 106.68 89.14 107.87 89.44C107.4 91.33 106.93 93.21 106.46 95.11C107.4 95.33 108.33 95.5501 109.28 95.7701C109.75 93.9001 110.21 92.0301 110.69 90.1401C111.87 90.4301 113.03 90.7201 114.21 91.0201C113.73 92.9501 113.25 94.8701 112.77 96.8101C112.84 96.8401 112.91 96.8601 112.98 96.8901C114.28 97.3501 115.55 97.8901 116.71 98.6501C117.58 99.2101 118.36 99.8801 118.95 100.74C119.72 101.84 120 103.08 119.88 104.42Z" fill="#F68819"/>
<path d="M116.71 98.6401C115.55 97.8801 114.28 97.3501 112.98 96.8801C112.91 96.8601 112.84 96.8301 112.77 96.8001C113.25 94.8601 113.73 92.9401 114.21 91.0101C113.03 90.7201 111.87 90.4301 110.69 90.1301C110.22 92.0201 109.75 93.8901 109.28 95.7601C108.33 95.5401 107.4 95.32 106.46 95.1C106.93 93.2 107.4 91.3201 107.87 89.4301C106.68 89.1301 105.52 88.8401 104.35 88.5501C103.87 90.4801 103.39 92.4 102.9 94.35C100.52 93.76 98.1699 93.16 95.7999 92.57C95.4799 93.84 95.1699 95.08 94.8599 96.33C95.3899 96.46 95.8999 96.56 96.4099 96.7C96.9499 96.85 97.4999 96.97 98.0099 97.19C98.9099 97.59 99.2099 98.3801 98.9899 99.2601C98.2999 102.11 97.5799 104.95 96.8699 107.79C96.2899 110.12 95.7099 112.46 95.1199 114.79C94.9899 115.3 94.6599 115.63 94.1199 115.75C93.8599 115.81 93.6099 115.74 93.3699 115.69C92.6099 115.51 91.8499 115.32 91.0999 115.12C90.9699 115.08 90.9099 115.11 90.8599 115.24C90.3299 116.48 89.7899 117.71 89.2599 118.95C89.2399 119 89.22 119.06 89.2 119.12C91.57 119.72 93.9199 120.31 96.2899 120.91C95.7999 122.88 95.3199 124.82 94.8299 126.77C96.0099 127.06 97.1699 127.35 98.3499 127.65C98.8299 125.71 99.3099 123.79 99.7899 121.86C100.74 122.11 101.67 122.35 102.6 122.59C102.12 124.52 101.64 126.43 101.16 128.35C102.34 128.64 103.5 128.93 104.68 129.23C105.17 127.27 105.65 125.34 106.14 123.39C106.51 123.46 106.86 123.54 107.21 123.59C107.72 123.66 108.24 123.72 108.75 123.78C109.11 123.82 109.48 123.88 109.85 123.88C110.47 123.89 111.1 123.89 111.72 123.85C112.21 123.82 112.7 123.75 113.19 123.65C115.07 123.26 116.58 122.3 117.6 120.65C118.58 119.05 119.15 117.32 119.14 115.42C119.13 114.13 118.71 113 117.88 112.01C117.23 111.23 116.41 110.66 115.53 110.18C115.48 110.15 115.43 110.13 115.35 110.08C115.45 110.05 115.51 110.03 115.57 110.02C117.27 109.57 118.52 108.59 119.25 106.97C119.62 106.16 119.8 105.3 119.88 104.41C120 103.07 119.71 101.83 118.95 100.71C118.35 99.87 117.58 99.2001 116.71 98.6401ZM109.55 118.51C108.78 118.75 107.99 118.83 107.19 118.79C106.58 118.76 105.97 118.7 105.37 118.62C104.07 118.45 102.8 118.11 101.53 117.78C101.34 117.73 101.14 117.68 100.94 117.62C101.59 115.03 102.23 112.45 102.88 109.87C103.41 109.99 103.92 110.11 104.44 110.23C105.7 110.52 106.96 110.85 108.16 111.34C109.05 111.7 109.91 112.14 110.64 112.78C111.23 113.3 111.68 113.92 111.83 114.71C112.16 116.43 111.23 117.98 109.55 118.51ZM112.97 104.22C112.84 105.63 112.14 106.81 110.3 107.15C109.79 107.24 109.26 107.28 108.74 107.28C108.24 107.27 107.74 107.19 107.24 107.12C106.08 106.95 104.95 106.63 103.82 106.33C103.81 106.33 103.8 106.32 103.77 106.3C104.35 103.97 104.93 101.64 105.52 99.2801C106.18 99.4301 106.81 99.57 107.44 99.73C108.51 99.99 109.56 100.31 110.55 100.81C111.22 101.15 111.84 101.56 112.32 102.15C112.81 102.75 113.04 103.44 112.97 104.22Z" fill="#FEFEFE"/>
<path d="M110.64 112.78C109.91 112.14 109.05 111.7 108.16 111.34C106.96 110.85 105.7 110.52 104.44 110.23C103.92 110.11 103.41 109.99 102.88 109.87C102.23 112.46 101.59 115.03 100.94 117.62C101.15 117.67 101.34 117.72 101.53 117.78C102.8 118.11 104.07 118.45 105.37 118.62C105.97 118.7 106.58 118.76 107.19 118.79C107.99 118.83 108.78 118.75 109.55 118.51C111.23 117.98 112.16 116.44 111.82 114.71C111.68 113.91 111.23 113.3 110.64 112.78Z" fill="#F68819"/>
<path d="M110.55 100.8C109.56 100.3 108.51 99.98 107.44 99.72C106.81 99.57 106.17 99.4301 105.52 99.2701C104.93 101.63 104.35 103.96 103.77 106.29C103.8 106.31 103.81 106.32 103.82 106.32C104.95 106.62 106.08 106.94 107.24 107.11C107.74 107.18 108.24 107.27 108.74 107.27C109.26 107.28 109.79 107.24 110.3 107.14C112.14 106.8 112.85 105.62 112.97 104.21C113.04 103.43 112.81 102.74 112.32 102.13C111.84 101.55 111.22 101.14 110.55 100.8Z" fill="#F68819"/>
<path d="M76.61 31.5601C77.4 37.5901 77.32 43.81 77.03 49.86C76.68 56.99 75.86 64.12 74.4 71.11C72.96 77.99 70.69 84.45 68.11 90.97C66.55 94.9 64.89 99.0601 64.38 103.28C63.68 109.05 60.96 123.51 78.68 141.05C78.68 141.05 58.04 144.43 45.66 124.73C39.18 114.41 38.39 101.9 42.69 90.61C47.2 78.76 57.34 70.0401 63.94 59.4101C66.56 55.2001 68.96 50.84 71.08 46.35C72.23 43.92 73.29 41.4501 74.24 38.9301C74.71 37.6801 75.16 36.4201 75.57 35.1401C75.85 34.2301 76.73 32.5201 76.61 31.5601Z" fill="url(#paint0_linear_1_7847)"/>
<path d="M84.11 49.69C84.11 49.69 80.73 70.89 79.04 76.33C79.04 76.33 87.86 69.8601 98.17 67.8901C98.18 67.8901 89.27 57.29 84.11 49.69Z" fill="url(#paint1_linear_1_7847)"/>
<defs>
<linearGradient id="paint0_linear_1_7847" x1="59.3351" y1="141.269" x2="59.3351" y2="31.5577" gradientUnits="userSpaceOnUse">
<stop stop-color="#1128E0"/>
<stop offset="1" stop-color="#5C93F2"/>
</linearGradient>
<linearGradient id="paint1_linear_1_7847" x1="85.8563" y1="117.235" x2="90.2883" y2="44.6356" gradientUnits="userSpaceOnUse">
<stop stop-color="#1128E0"/>
<stop offset="1" stop-color="#5C93F2"/>
</linearGradient>
</defs>
</svg>
