<svg width="146" height="146" viewBox="0 0 146 146" fill="none" xmlns="http://www.w3.org/2000/svg">
<path d="M72.9399 145.14C112.804 145.14 145.12 112.824 145.12 72.9601C145.12 33.0961 112.804 0.780029 72.9399 0.780029C33.076 0.780029 0.76001 33.0961 0.76001 72.9601C0.76001 112.824 33.076 145.14 72.9399 145.14Z" fill="#0E0E0E"/>
<path d="M120.01 71.4301L97.8001 32.9601C97.2501 32.0101 96.24 31.4301 95.14 31.4301H50.72C49.62 31.4301 48.6101 32.0101 48.0601 32.9601L25.85 71.4301C25.3 72.3801 25.3 73.5501 25.85 74.5001L30.97 83.36L45.47 58.2401C45.89 57.5201 46.65 57.0801 47.48 57.0801H80.61C81.44 57.0801 82.21 57.5201 82.62 58.2401L99.1801 86.9301C99.6001 87.6501 99.6001 88.5401 99.1801 89.2501L84.61 114.49H95.14C96.24 114.49 97.2501 113.91 97.8001 112.96L120.01 74.4901C120.56 73.5501 120.56 72.3801 120.01 71.4301Z" fill="url(#paint0_linear_1_1268)"/>
<path d="M93.99 86.8101L80.13 62.8101C79.67 62.0101 78.82 61.5201 77.9 61.5201H50.1899C49.2699 61.5201 48.4199 62.0101 47.9599 62.8101L34.1 86.8101C33.85 87.2401 33.74 87.7301 33.76 88.2101L38.38 96.2001L45.74 83.4501C46 83.0001 46.47 82.73 46.99 82.73H66.49C67.01 82.73 67.48 83.0101 67.74 83.4501L77.49 100.34C77.75 100.79 77.75 101.34 77.49 101.78L70.15 114.5H78.8C79.35 114.29 79.82 113.9 80.12 113.38L93.98 89.3801C94.45 88.5801 94.45 87.6001 93.99 86.8101Z" fill="url(#paint1_linear_1_1268)"/>
<path d="M72.47 100.7L64.92 87.6201C64.79 87.4001 64.5601 87.2701 64.3101 87.2701H49.2C48.95 87.2701 48.71 87.4101 48.59 87.6201L41.04 100.7C41.03 100.71 41.03 100.73 41.02 100.74L48.08 112.96C48.63 113.91 49.64 114.49 50.74 114.49H64.9301L72.48 101.41C72.6 101.19 72.6 100.92 72.47 100.7Z" fill="url(#paint2_linear_1_1268)"/>
<defs>
<linearGradient id="paint0_linear_1_1268" x1="45.5081" y1="114.516" x2="99.4742" y2="32.7536" gradientUnits="userSpaceOnUse">
<stop stop-color="#FCE100"/>
<stop offset="0.5042" stop-color="#FE4E5B"/>
<stop offset="1" stop-color="#FF02F5"/>
</linearGradient>
<linearGradient id="paint1_linear_1_1268" x1="46.2773" y1="115.023" x2="100.243" y2="33.2615" gradientUnits="userSpaceOnUse">
<stop stop-color="#FCE100"/>
<stop offset="0.5042" stop-color="#FE4E5B"/>
<stop offset="1" stop-color="#FF02F5"/>
</linearGradient>
<linearGradient id="paint2_linear_1_1268" x1="47.1521" y1="115.601" x2="101.118" y2="33.839" gradientUnits="userSpaceOnUse">
<stop stop-color="#FCE100"/>
<stop offset="0.5042" stop-color="#FE4E5B"/>
<stop offset="1" stop-color="#FF02F5"/>
</linearGradient>
</defs>
</svg>
