<svg width="175" height="174" viewBox="0 0 175 174" fill="none" xmlns="http://www.w3.org/2000/svg">
<path d="M104.007 157.317C142.706 148.179 166.67 109.4 157.532 70.7012C148.394 32.0024 109.615 8.03856 70.9161 17.1764C32.2173 26.3143 8.25342 65.0936 17.3913 103.792C26.5292 142.491 65.3085 166.455 104.007 157.317Z" fill="#E31337"/>
<path d="M65.45 48.6699L42.28 87.71L65.6399 126.62L88.6299 87.71L65.45 48.6699Z" fill="white"/>
<path d="M107.92 82.6399L88.1399 48.6699H75.6499L95.1899 82.6399H107.92Z" fill="white"/>
<path d="M94.99 92.6499L75.21 126.62H87.9399L107.48 92.6499H94.99Z" fill="white"/>
<path d="M110.44 48.6699H97.79L120.17 87.49L97.79 126.62H110.03L132.79 87.6499L110.44 48.6699Z" fill="white"/>
</svg>
