<svg width="145" height="145" viewBox="0 0 145 145" fill="none" xmlns="http://www.w3.org/2000/svg">
<path d="M72.31 144.57C112.174 144.57 144.49 112.254 144.49 72.39C144.49 32.5261 112.174 0.209961 72.31 0.209961C32.4461 0.209961 0.130005 32.5261 0.130005 72.39C0.130005 112.254 32.4461 144.57 72.31 144.57Z" fill="#474DFE"/>
<path d="M104.24 61.0101C112.41 58.6801 117.65 50.17 115.99 41.94C114.44 34.28 107.98 28.6701 100.43 28.4301C92.34 28.1701 85.57 33.1601 83.55 40.9301C83.34 41.7501 83.05 41.63 82.47 41.44C73.4 38.45 64.6 39.1401 56.25 43.7601C42.41 51.4301 36.29 67.6 41.41 82.58C41.63 83.23 41.59 83.4601 40.87 83.6501C32.25 85.9001 27.07 93.9901 28.59 102.8C30.1 111.55 38.82 117.75 47.56 116.14C54.62 114.84 59.12 110.62 61.05 103.7C61.23 103.05 61.41 102.97 62.04 103.19C62.36 103.3 62.68 103.41 62.99 103.51C66.08 104.48 69.25 104.98 72.5 104.93C74.45 104.96 76.39 104.78 78.31 104.44C78.44 104.42 78.57 104.39 78.69 104.37C97.65 100.8 109.33 81.04 103.3 62.71C102.89 61.39 102.89 61.3901 104.24 61.0101ZM98.16 55.7901C94.75 55.2901 92.2 56.8401 91.28 60.0101C90.91 61.2801 91.05 62.55 91.59 63.74C92.72 66.25 93.36 68.84 93.48 71.61C93.72 77.02 92.14 81.81 88.73 85.94C85.07 90.38 80.29 92.87 74.55 93.49C70.66 93.91 66.99 93.16 63.44 91.57C59.95 90 55.8 92.71 55.67 96.57C55.61 98.11 55.93 99.6301 55.71 101.18C54.99 106.28 50.47 110.39 45.27 110.55C39.91 110.72 35.15 107.04 34.12 101.94C32.71 94.95 37.87 88.54 45.1 88.59C46.19 88.5 47.48 89 48.84 88.71C52.4 87.96 54.38 84.0601 52.83 80.7701C46.95 68.3301 55.02 53.23 68.58 51.23C72.74 50.62 76.73 51.0801 80.57 52.8001C82.69 53.7501 84.75 53.64 86.61 52.19C88.44 50.77 89.02 48.85 88.69 46.57C87.85 40.7 91.71 35.2001 97.37 34.1401C103.34 33.0201 108.83 36.57 110.25 42.47C112 49.8 105.58 56.8701 98.16 55.7901Z" fill="#FEFEFE"/>
<path d="M110.23 42.48C108.81 36.59 103.31 33.0301 97.35 34.1501C91.69 35.2101 87.83 40.71 88.67 46.58C89 48.86 88.42 50.78 86.59 52.2C84.73 53.64 82.68 53.7601 80.55 52.8101C76.71 51.0801 72.72 50.62 68.56 51.24C55 53.24 46.93 68.3401 52.81 80.7801C54.37 84.0801 52.38 87.97 48.82 88.72C47.46 89.01 46.17 88.51 45.08 88.6C37.85 88.55 32.69 94.96 34.1 101.95C35.13 107.05 39.89 110.73 45.25 110.56C50.45 110.4 54.98 106.28 55.69 101.19C55.91 99.63 55.6 98.11 55.65 96.58C55.79 92.71 59.94 90.01 63.42 91.58C66.97 93.17 70.64 93.92 74.53 93.5C80.27 92.88 85.05 90.39 88.71 85.95C92.11 81.82 93.7 77.03 93.46 71.62C93.34 68.85 92.7 66.26 91.57 63.75C91.03 62.56 90.89 61.2901 91.26 60.0201C92.18 56.8601 94.73 55.3001 98.14 55.8001C105.58 56.8701 112 49.8 110.23 42.48ZM72.79 84.5401C65.54 84.7901 60.05 79.05 60.14 72.21C60.23 65.51 65.54 60.6201 71.37 60.2701C78.98 59.8101 84.66 66.0101 84.34 72.3801C84.6 79.3201 78.72 84.3401 72.79 84.5401Z" fill="#474DFE"/>
<path d="M71.38 60.2701C65.55 60.6201 60.24 65.51 60.15 72.21C60.05 79.04 65.55 84.7801 72.8 84.5401C78.73 84.3401 84.61 79.3201 84.36 72.3801C84.67 66.0101 78.99 59.8101 71.38 60.2701Z" fill="#FEFEFE"/>
</svg>
