<svg width="205" height="205" viewBox="0 0 205 205" fill="none" xmlns="http://www.w3.org/2000/svg">
<path d="M153.153 153.939C181.34 125.751 181.341 80.0498 153.153 51.862C124.965 23.6742 79.2636 23.6743 51.0758 51.8621C22.888 80.0499 22.8881 125.751 51.0759 153.939C79.2636 182.127 124.965 182.127 153.153 153.939Z" fill="#F4F6F5"/>
<path d="M144.77 134.18C143.81 134.74 140.5 134.19 139.27 134.14C137.05 134.05 134.89 133.78 132.73 133.32C128.8 132.48 125.06 131.09 121.57 129.08C113.54 124.43 108.13 117.82 106.31 108.55C106.25 108.23 105.81 107.73 105.54 107.73C102.88 107.67 100.21 107.69 97.51 107.69C96.95 112.05 95.2901 115.85 92.8701 119.27C89.2501 124.39 84.21 128.2 78.49 130.7C75.64 131.95 72.6499 132.88 69.6299 133.62C66.0599 134.5 62.37 134.18 58.71 134.18C58.39 134 58.0699 133.82 57.6599 133.58C58.6599 131.28 59.7299 128.99 60.6299 126.64C61.0799 125.48 61.7099 125.17 62.9199 125.13C72.6899 124.8 80.43 120.87 85.29 112.12C85.99 110.87 86.35 109.44 86.99 107.79C82.95 107.79 79.32 107.79 75.47 107.79C76.8 104.79 78.06 102.06 79.2 99.2801C79.59 98.3301 80.1001 98.04 81.0801 98.07C83.0301 98.14 84.9899 98.09 87.1299 98.09C86.9199 97.3 86.8299 96.7701 86.6499 96.2701C84.8799 91.2901 81.7401 87.36 77.3501 84.46C73.0101 81.59 68.19 80.3 63.01 80.21C62.49 80.2 61.68 80.0101 61.51 79.6701C60.2 76.9101 59.02 74.1001 57.78 71.2701C64.39 70.0701 75.3999 71.4 82.3999 75.46C91.0999 80.5 96.6799 87.6401 98.3999 97.6701C100.19 97.6701 101.87 97.6701 103.55 97.6701C106.44 97.6701 106.44 97.6701 107.09 95.0001C107.11 94.9001 107.15 94.81 107.17 94.72C112.07 78.08 130.27 69.1501 146.83 71.4001C146.83 71.5001 146.83 71.6 146.83 71.7C145.86 73.74 144.73 75.72 143.97 77.83C143.3 79.68 142.33 80.24 140.33 80.32C130.63 80.68 123.16 84.92 118.49 93.61C117.8 94.89 117.39 96.3201 116.76 97.9301C120.84 97.9301 124.58 97.9301 128.53 97.9301C127.12 101.12 125.84 104.1 124.46 107.04C124.3 107.38 123.61 107.63 123.16 107.65C121.19 107.72 119.22 107.68 117.11 107.68C117.8 110.42 118.97 112.74 120.54 114.86C125.62 121.74 132.64 124.8 141.02 125.2C141.47 125.22 142.17 125.43 142.32 125.75C143.54 128.34 144.65 130.98 145.79 133.59C145.39 133.82 145.08 134 144.77 134.18Z" fill="#1DA8AF"/>
</svg>
