<svg width="145" height="145" viewBox="0 0 145 145" fill="none" xmlns="http://www.w3.org/2000/svg">
<path d="M72.24 144.6C112.109 144.6 144.43 112.279 144.43 72.41C144.43 32.5406 112.109 0.219971 72.24 0.219971C32.3706 0.219971 0.0500488 32.5406 0.0500488 72.41C0.0500488 112.279 32.3706 144.6 72.24 144.6Z" fill="#EEEEEE"/>
<path d="M40.04 90.23C40.02 82.41 42.2999 76.08 46.1899 70.25C48.0699 67.44 50.3699 64.9701 52.6899 62.5301C55.2999 59.7901 57.9 57.0401 60.2 54.0201C64.56 48.2801 67.34 41.8401 68.71 34.7801C69.42 31.0801 69.7801 27.35 69.8601 23.58C69.8601 23.37 69.8699 23.15 69.8899 22.94C69.9199 22.6 70.0801 22.52 70.3601 22.72C70.6201 22.91 70.8601 23.12 71.1001 23.34C73.4201 25.47 75.1699 28.0401 76.6699 30.7801C81.5699 39.7701 84.9301 52.3 80.1001 61.94C78.4101 65.31 76.23 68.3701 74 71.3901C71.38 74.9301 68.7199 78.4301 66.1699 82.0201C64.0099 85.0701 62.1999 88.32 60.9399 91.87C59.9399 94.69 59.39 97.59 59.55 100.59C59.74 104.09 60.55 107.45 61.8 110.72C62.87 113.54 64.3 116.17 65.78 118.79C66.08 119.33 66.3599 119.88 66.6299 120.43C66.7499 120.68 66.8499 120.95 66.9099 121.22C67.0499 121.83 66.7999 122.14 66.1599 122.15C64.8599 122.16 63.6499 121.77 62.4399 121.38C57.6199 119.82 53.5701 117.04 50.0801 113.44C45.3401 108.55 42.17 102.79 40.72 96.12C40.25 93.94 39.99 91.73 40.04 90.23Z" fill="#1A1E3B"/>
<path d="M104.45 90.51C104.27 99.06 100.7 106.77 93.9 112.99C91.9 114.82 89.7301 116.39 87.2901 117.61C85.3301 118.59 83.6501 119.92 82.5001 121.85C82.2301 122.31 81.9502 122.33 81.5802 121.9C80.4102 120.54 79.2202 119.19 78.1202 117.77C76.0602 115.11 74.5501 112.17 73.7801 108.88C72.9001 105.1 73.0901 101.35 73.9901 97.5999C75.0701 93.1099 77 88.98 79.4 85.06C80.7 82.93 82.1301 80.89 83.5001 78.8C85.9401 75.1 88.19 71.2899 89.91 67.1999C90.48 65.8299 90.99 64.4299 91.19 62.9399C91.23 62.6399 91.4601 62.57 91.7201 62.78C92.1201 63.1 92.51 63.43 92.88 63.77C98.23 68.73 101.93 74.68 103.62 81.81C104.24 84.43 104.5 87.11 104.45 90.51Z" fill="#289DDB"/>
</svg>
