<svg width="205" height="205" viewBox="0 0 205 205" fill="none" xmlns="http://www.w3.org/2000/svg">
<path d="M153.43 153.551C181.555 125.426 181.555 79.826 153.43 51.7007C125.305 23.5754 79.7047 23.5755 51.5794 51.7007C23.4541 79.826 23.4541 125.426 51.5794 153.551C79.7046 181.677 125.305 181.677 153.43 153.551Z" fill="#F2F2F2"/>
<path d="M152.82 110.25C150.37 114.69 146.65 117.51 141.78 118.83C140.75 119.11 139.7 119.29 138.64 119.42C137.37 119.57 136.1 119.6 134.83 119.56C133.59 119.51 132.36 119.3 131.16 118.97C130.3 118.73 129.45 118.49 128.63 118.13C127.64 117.78 126.69 117.34 125.76 116.86C122.94 115.42 120.31 113.69 117.92 111.6C116.61 110.46 115.44 109.18 114.25 107.92C112.58 106.16 110.95 104.36 109.37 102.52C109.27 102.4 109.17 102.28 109.08 102.16C108.22 101.19 107.35 100.22 106.49 99.25C105.08 97.64 103.67 96.03 102.26 94.42C102.15 94.39 102.1 94.29 102.04 94.21C99.64 91.38 97.1299 88.65 94.4199 86.12C91.6699 83.55 88.75 81.2 85.47 79.35C83.3 78.13 81.0201 77.18 78.5701 76.71C77.9901 76.6 77.4101 76.52 76.8201 76.47C76.7601 76.46 76.6799 76.49 76.6299 76.42C75.8499 76.42 75.07 76.42 74.29 76.42C74.07 76.53 73.8401 76.49 73.6101 76.51C69.8601 76.83 66.3599 77.94 63.1399 79.88C57.3499 83.37 53.49 88.39 51.49 94.84C51.41 95.1 51.32 95.37 51.24 95.63C51.24 95.67 51.24 95.71 51.24 95.76C51.32 95.75 51.3201 95.69 51.3401 95.65C53.2901 91.34 56.4999 88.36 60.8799 86.62C62.6099 85.94 64.41 85.57 66.25 85.36C69.65 84.97 72.9301 85.42 76.1001 86.71C76.1801 86.74 76.2701 86.75 76.3201 86.83C76.3701 86.84 76.41 86.86 76.46 86.87C77.9 87.43 79.2701 88.14 80.6001 88.91C82.9901 90.31 85.27 91.87 87.28 93.79C89.8 96.2 92.1499 98.77 94.4399 101.4C94.8299 101.85 95.2398 102.29 95.5898 102.77C96.9698 104.33 98.35 105.89 99.73 107.46C100.61 108.47 101.49 109.48 102.37 110.49C102.51 110.47 102.54 110.59 102.61 110.66C104.64 113.03 106.73 115.34 108.96 117.53C111.56 120.07 114.29 122.43 117.35 124.41C119.57 125.85 121.91 127.04 124.45 127.79C126.59 128.42 128.76 128.59 130.98 128.4C136 127.97 140.49 126.2 144.42 123.07C148.97 119.45 151.95 114.79 153.46 109.19C153.48 109.12 153.48 109.05 153.48 108.99C153.25 109.39 153.05 109.83 152.82 110.25Z" fill="#29ABE2"/>
<path d="M154.19 100.26C154.12 99.27 153.99 98.28 153.79 97.31C152.87 92.68 150.86 88.58 147.76 85.01C147.07 84.22 146.35 83.46 145.54 82.79C145.22 82.47 144.87 82.19 144.52 81.91C141.68 79.65 138.53 78.02 134.99 77.15C133.74 76.85 132.49 76.61 131.21 76.5C130.96 76.48 130.7 76.51 130.45 76.41C129.62 76.41 128.78 76.41 127.95 76.41C127.78 76.51 127.58 76.47 127.4 76.49C124.72 76.77 122.22 77.62 119.83 78.83C116.52 80.5 113.59 82.72 110.85 85.19C107.72 88.02 104.88 91.12 102.24 94.41C103.65 96.02 105.06 97.63 106.47 99.24C107.33 100.22 108.2 101.18 109.06 102.15C110.64 100.2 112.25 98.27 113.97 96.44C116.13 94.16 118.4 92 120.94 90.14C122.41 89.07 123.96 88.15 125.65 87.47C127.43 86.76 129.26 86.65 131.14 86.93C133.83 87.33 136.22 88.41 138.35 90.1C138.4 90.15 138.45 90.2 138.5 90.24C141.81 93.08 143.66 96.68 144.08 101.02C144.18 102.04 144.15 103.06 144.06 104.08C143.96 105.18 143.73 106.25 143.39 107.3C141.39 113.61 135.47 118.27 128.6 118.12C129.42 118.48 130.27 118.72 131.13 118.96C132.33 119.29 133.56 119.51 134.8 119.55C136.07 119.6 137.34 119.57 138.61 119.41C139.67 119.28 140.72 119.1 141.75 118.82C146.63 117.5 150.34 114.68 152.79 110.24C153.02 109.82 153.22 109.38 153.43 108.95V108.96C153.44 108.92 153.39 108.85 153.49 108.86C153.67 108.29 153.75 107.7 153.87 107.11C154.12 105.9 154.19 104.68 154.26 103.46C154.34 102.4 154.27 101.33 154.19 100.26Z" fill="url(#paint0_linear_1_3145)"/>
<path d="M76.4299 86.84C76.3799 86.84 76.33 86.85 76.29 86.8C76.34 86.82 76.3799 86.83 76.4299 86.84Z" fill="#672683"/>
<path d="M99.7002 107.43C98.3202 105.86 96.9401 104.3 95.5601 102.74C95.4701 102.78 95.4199 102.87 95.3599 102.94C94.7999 103.62 94.2599 104.3 93.6899 104.97C91.2499 107.88 88.66 110.65 85.74 113.09C83.9 114.63 81.96 116.02 79.78 117.03C78.53 117.61 77.2401 118.06 75.8501 118.1C73.1701 118.19 70.52 117.47 68.2 116.15C66.97 115.45 65.8699 114.58 64.8899 113.55C64.2599 112.88 63.6599 112.18 63.1499 111.41C61.2299 108.55 60.23 105.06 60.45 101.61C60.49 100.94 60.5099 100.27 60.6499 99.62C61.0299 97.78 61.6301 96.02 62.6001 94.4C64.8801 90.62 68.14 88.15 72.45 87.12C73.71 86.82 75 86.71 76.29 86.78C76.24 86.7 76.1401 86.69 76.0701 86.66C72.9001 85.37 69.62 84.92 66.22 85.31C64.38 85.52 62.5801 85.89 60.8501 86.57C56.4701 88.31 53.2601 91.29 51.3101 95.6C51.2901 95.64 51.29 95.7 51.21 95.71C51.21 95.66 51.21 95.62 51.21 95.58C50.89 96.36 50.7899 97.18 50.6399 98C50.4699 98.95 50.3701 99.9 50.3201 100.86C50.3201 100.9 50.32 100.95 50.27 100.97C50.27 101.92 50.27 102.88 50.27 103.83C50.35 103.88 50.3201 103.95 50.3201 104.02C50.3601 104.88 50.4501 105.74 50.5901 106.59C50.8801 108.31 51.2899 110.01 51.9099 111.64C53.4299 115.63 55.79 119.22 58.98 122.08C60.14 123.12 61.38 124.06 62.73 124.86C64.24 125.81 65.85 126.55 67.53 127.14C69.53 127.84 71.5799 128.25 73.6899 128.41C75.1099 128.52 76.53 128.51 77.95 128.3C80.41 127.93 82.7099 127.1 84.9099 125.97C88.0199 124.38 90.7801 122.3 93.3901 120C96.3501 117.38 99.0298 114.49 101.55 111.45C101.82 111.12 102.13 110.81 102.34 110.43C101.46 109.46 100.58 108.44 99.7002 107.43Z" fill="url(#paint1_linear_1_3145)"/>
<path d="M153.46 108.96C153.47 108.92 153.42 108.85 153.52 108.86C153.49 108.89 153.52 108.96 153.46 108.96Z" fill="#29AAE1"/>
<defs>
<linearGradient id="paint0_linear_1_3145" x1="102.249" y1="97.9884" x2="154.305" y2="97.9884" gradientUnits="userSpaceOnUse">
<stop stop-color="#F15A24"/>
<stop offset="1" stop-color="#FBB03B"/>
</linearGradient>
<linearGradient id="paint1_linear_1_3145" x1="52.6472" y1="89.9661" x2="82.0818" y2="116.816" gradientUnits="userSpaceOnUse">
<stop stop-color="#522785"/>
<stop offset="1" stop-color="#ED1E79"/>
</linearGradient>
</defs>
</svg>
