<svg width="205" height="205" viewBox="0 0 205 205" fill="none" xmlns="http://www.w3.org/2000/svg">
<path d="M153.259 153.56C181.447 125.372 181.447 79.6709 153.259 51.4831C125.072 23.2953 79.3702 23.2952 51.1825 51.483C22.9947 79.6708 22.9948 125.372 51.1826 153.56C79.3703 181.748 125.072 181.748 153.259 153.56Z" fill="#F4F4F4"/>
<path d="M148.97 64.4899C148.93 64.7099 148.88 64.92 148.84 65.14C148.22 68.54 145.59 71.1299 142.16 71.6899C137.89 72.3899 133.72 69.5099 132.96 65.1299C132.85 64.5099 132.78 63.8699 132.83 63.2499C132.98 61.1999 133.75 59.4199 135.23 57.9699C136.61 56.6199 138.26 55.85 140.18 55.68C140.22 55.68 140.27 55.66 140.31 55.64C140.75 55.64 141.18 55.64 141.62 55.64C141.9 55.69 142.17 55.74 142.45 55.79C145.41 56.29 148.08 58.84 148.74 61.79C148.83 62.2 148.9 62.62 148.98 63.04C148.97 63.53 148.97 64.0099 148.97 64.4899Z" fill="#189FB0"/>
<path d="M55.29 140.65C55.37 140.21 55.42 139.76 55.52 139.33C56.22 136.28 58.8399 133.82 61.9399 133.29C66.1499 132.58 70.0899 135.11 71.1699 139.21C71.4099 140.13 71.4899 141.06 71.3899 142.01C71.0399 145.68 68.2301 148.66 64.5801 149.22C64.3701 149.25 64.1599 149.28 63.9399 149.31C63.4899 149.31 63.0301 149.31 62.5801 149.31C62.5601 149.3 62.53 149.27 62.51 149.27C61.9 149.13 61.2599 149.06 60.6799 148.84C57.9699 147.84 56.24 145.93 55.51 143.13C55.4 142.69 55.35 142.23 55.28 141.77C55.29 141.4 55.29 141.03 55.29 140.65Z" fill="#189FB0"/>
<path d="M82.02 132.46C84.16 130.32 86.31 128.17 88.46 126.01C93.05 128.68 98.0401 129.97 103.36 129.71C110.33 129.36 116.34 126.71 121.3 121.78C124.15 118.95 126.24 115.62 127.6 111.84C128.96 108.06 129.44 104.17 129.07 100.16C128.7 96.1599 127.48 92.4399 125.47 88.9899C127.62 86.8399 129.76 84.7 131.9 82.56C139.52 93.12 141.86 112.12 129.05 126.54C115.67 141.61 94.9 141.51 82.02 132.46Z" fill="#189FB0"/>
<path d="M78.78 116.31C76.62 118.47 74.48 120.61 72.34 122.75C63.9 110.74 62.9798 91.08 76.6398 77.31C90.3498 63.5 110.24 64.34 122.26 72.87C122.21 72.93 122.16 72.98 122.1 73.04C120.06 75.08 118.01 77.1199 115.98 79.1699C115.85 79.2999 115.77 79.31 115.61 79.22C112.85 77.62 109.9 76.55 106.76 76C106.09 75.88 105.41 75.83 104.73 75.75C103.54 75.6 102.34 75.56 101.15 75.62C100.18 75.67 99.2099 75.77 98.2399 75.89C95.7199 76.2 93.3199 76.93 91.0099 77.97C88.0999 79.27 85.4999 81.04 83.2199 83.27C79.2999 87.12 76.77 91.7401 75.62 97.1101C75.15 99.2901 74.96 101.51 75.08 103.74C75.13 104.61 75.2 105.48 75.31 106.34C75.78 109.83 76.9098 113.1 78.6698 116.15C78.7298 116.2 78.76 116.26 78.78 116.31Z" fill="#189FB0"/>
</svg>
