<svg width="144" height="145" viewBox="0 0 144 145" fill="none" xmlns="http://www.w3.org/2000/svg">
<path d="M72.0501 144.41C111.793 144.41 144.01 112.192 144.01 72.45C144.01 32.7075 111.793 0.48999 72.0501 0.48999C32.3077 0.48999 0.0900879 32.7075 0.0900879 72.45C0.0900879 112.192 32.3077 144.41 72.0501 144.41Z" fill="url(#paint0_linear_1_7066)"/>
<path d="M63.6401 113.61C63.6401 113.61 62.8201 112.59 61.3901 110.55C59.9601 108.51 60.0601 104.63 60.0601 104.63L59.5501 15.76C56.7901 53.04 46.11 62.03 46.11 62.03C52.03 65.35 51.5301 77.25 51.5301 77.25C51.5301 77.25 51.1201 108.76 51.1201 111.47C51.1201 114.18 47.29 126.54 46.47 128.32C45.65 130.11 46.47 129.65 46.47 129.65C46.47 129.65 62.9201 117.09 64.1401 116.27C65.3801 115.45 63.6401 113.61 63.6401 113.61Z" fill="white"/>
<path d="M71.8102 62.02L71.1001 25.6599L70.3801 62.02L71.1001 98.3899L71.8102 62.02Z" fill="white"/>
<path d="M91.0701 111.46C91.0701 108.75 90.6602 77.24 90.6602 77.24C90.6602 77.24 90.1601 65.34 96.0801 62.02C96.0801 62.02 85.4002 53.03 82.6402 15.75L82.1302 104.62C82.1302 104.62 82.2302 108.5 80.8002 110.54C79.3702 112.58 78.5502 113.6 78.5502 113.6C78.5502 113.6 76.8102 115.44 78.0402 116.26C79.2702 117.08 95.7101 129.64 95.7101 129.64C95.7101 129.64 96.5301 130.1 95.7101 128.31C94.9001 126.53 91.0701 114.17 91.0701 111.46Z" fill="white"/>
<path d="M73.58 116.63C72.89 116.1 72.04 115.24 71.09 115.24C70.14 115.24 69.3 116.1 68.6 116.63C67.72 117.3 51.04 130.1 48.97 131.68C48.1 133.21 50.25 131.68 50.25 131.68C61.18 124.43 71.09 124.79 71.09 124.79C71.09 124.79 81.0001 124.43 91.9301 131.68C91.9301 131.68 94.08 133.21 93.21 131.68C91.14 130.1 74.46 117.3 73.58 116.63Z" fill="white"/>
<defs>
<linearGradient id="paint0_linear_1_7066" x1="72.0503" y1="142.642" x2="72.0503" y2="2.13039" gradientUnits="userSpaceOnUse">
<stop stop-color="#242553"/>
<stop offset="0.7312" stop-color="#5F1B90"/>
<stop offset="1" stop-color="#5C2872"/>
</linearGradient>
</defs>
</svg>
