<svg width="174" height="175" viewBox="0 0 174 175" fill="none" xmlns="http://www.w3.org/2000/svg">
<path d="M103.441 157.703C142.236 148.542 166.26 109.665 157.099 70.8698C147.939 32.0742 109.062 8.05054 70.2669 17.2113C31.4713 26.372 7.44758 65.2482 16.6083 104.044C25.769 142.839 64.6453 166.863 103.441 157.703Z" fill="#0F1925"/>
<path d="M43.8 52.3301C44.06 52.3101 44.1899 52.2901 44.3199 52.2901C46.9499 52.2901 49.58 52.2801 52.2 52.3001C52.42 52.3001 52.71 52.4101 52.84 52.5701C55.93 56.1401 72.17 75.1 74.37 77.66C76.65 80.31 78.96 82.9402 81.22 85.6102C81.67 86.1402 82 86.82 82.23 87.48C82.51 88.26 82.11 88.9701 81.61 89.5601C79.49 92.0701 58.05 117.25 55.9 119.78C55.04 120.79 54.15 121.79 53.26 122.78C53.13 122.92 52.9 123.03 52.71 123.03C49.83 123.04 46.9499 123.03 44.0699 123.03C44.0399 123.03 44 123 43.88 122.95C44.48 122.25 45.07 121.56 45.65 120.88C47.95 118.2 70.8401 91.6201 72.1801 90.0701C72.8101 89.3301 73.2301 88.52 73.1801 87.49C73.1501 86.8 72.89 86.2401 72.48 85.7501C70.99 83.9701 69.46 82.22 67.95 80.46C66.24 78.47 46.45 55.49 44.66 53.42C44.39 53.1 44.14 52.7601 43.8 52.3301Z" fill="url(#paint0_linear_1_6988)"/>
<path d="M129.86 52.4C129.72 52.59 129.63 52.7499 129.51 52.8899C126.91 55.8499 97.5101 89.46 93.1601 94.5C91.9201 95.94 91.98 97.38 93.1 98.75C95.08 101.15 111.96 120.78 113.45 122.5C113.57 122.64 113.68 122.8 113.84 123.01C113.61 123.03 113.47 123.05 113.32 123.05C110.58 123.05 107.83 123.06 105.09 123.04C104.83 123.04 104.48 122.94 104.33 122.76C102.37 120.49 100.45 118.2 98.5001 115.92C97.1301 114.31 90.1701 106.12 88.0601 103.63C86.8001 102.14 85.5701 100.63 84.3001 99.1399C83.1401 97.7799 83.5201 96.2101 84.5301 95.0301C87.2601 91.8401 114.56 59.9501 116.58 57.5901C118.03 55.9001 119.47 54.2101 120.93 52.5301C121.03 52.4201 121.22 52.3201 121.37 52.3201C124.13 52.3101 126.9 52.3201 129.66 52.3201C129.71 52.3101 129.74 52.34 129.86 52.4Z" fill="url(#paint1_linear_1_6988)"/>
<path d="M60.21 52.33C60.47 52.31 60.62 52.2999 60.77 52.2999C63.22 52.2999 65.68 52.29 68.13 52.32C68.41 52.32 68.78 52.4898 68.96 52.6998C70.77 54.8198 81.45 67.3899 85.04 71.5099C86.68 73.3899 88.3699 75.2199 90.0699 77.0399C90.6499 77.6599 90.7599 78.8599 90.1899 79.5599C89.1999 80.7799 88.17 81.9498 87.15 83.1498C86.89 83.4498 86.7401 83.2399 86.5601 83.0299C85.1901 81.4299 62.17 54.7099 60.5 52.7499C60.42 52.6399 60.35 52.52 60.21 52.33Z" fill="url(#paint2_linear_1_6988)"/>
<path d="M129.83 123.01C129.52 123.03 129.37 123.05 129.22 123.05C126.81 123.05 124.39 123.06 121.98 123.03C121.7 123.03 121.34 122.86 121.15 122.65C119.09 120.29 117.06 117.91 115.03 115.53C113.18 113.37 111.34 111.21 109.5 109.05C107.37 106.55 105.24 104.04 103.11 101.54C102.21 100.48 101.25 99.4701 100.43 98.3501C99.46 97.0301 99.6399 95.97 100.71 94.71C101.1 94.25 101.49 93.7901 101.89 93.3401C102.28 92.9101 102.68 92.5 103.15 92C112.02 102.33 120.88 112.61 129.83 123.01Z" fill="url(#paint3_linear_1_6988)"/>
<path d="M113.47 52.38C113.3 52.59 113.17 52.75 113.04 52.91C110.67 55.68 108.31 58.4601 105.93 61.2301C104.2 63.2501 102.44 65.2601 100.71 67.2901C98.9299 69.3701 97.16 71.4601 95.4 73.5601C95.14 73.8701 94.92 73.9902 94.62 73.6102C93.85 72.6402 93.03 71.72 92.29 70.72C91.3 69.4 91.36 68.18 92.43 66.92C94.59 64.38 96.7699 61.8501 98.9399 59.3101C100.85 57.0801 102.75 54.8402 104.66 52.6202C104.79 52.4602 105.04 52.3101 105.23 52.3101C107.9 52.2901 110.56 52.3001 113.23 52.3101C113.27 52.3101 113.3 52.33 113.47 52.38Z" fill="url(#paint4_linear_1_6988)"/>
<path d="M78.76 101.74C79.14 102.21 80.79 104.21 81.41 104.92C82.25 106.07 82.21 107.77 81.34 108.75C78.77 111.68 76.27 114.68 73.74 117.65C72.3 119.34 70.86 121.03 69.41 122.7C69.26 122.87 69 123.04 68.79 123.04C66.14 123.06 63.5 123.05 60.85 123.05C60.8 123.05 60.75 123.02 60.6 122.97C66.64 115.9 72.65 108.87 78.76 101.74Z" fill="url(#paint5_linear_1_6988)"/>
<defs>
<linearGradient id="paint0_linear_1_6988" x1="43.8002" y1="87.6681" x2="82.3208" y2="87.6681" gradientUnits="userSpaceOnUse">
<stop stop-color="#069DB3"/>
<stop offset="1" stop-color="#30CAE0"/>
</linearGradient>
<linearGradient id="paint1_linear_1_6988" x1="130.195" y1="75.327" x2="91.829" y2="112.576" gradientUnits="userSpaceOnUse">
<stop stop-color="#069DB3"/>
<stop offset="1" stop-color="#30CAE0"/>
</linearGradient>
<linearGradient id="paint2_linear_1_6988" x1="60.2104" y1="67.7897" x2="90.5633" y2="67.7897" gradientUnits="userSpaceOnUse">
<stop stop-color="#069DB3"/>
<stop offset="1" stop-color="#30CAE0"/>
</linearGradient>
<linearGradient id="paint3_linear_1_6988" x1="99.7916" y1="107.532" x2="129.826" y2="107.532" gradientUnits="userSpaceOnUse">
<stop stop-color="#069DB3"/>
<stop offset="1" stop-color="#30CAE0"/>
</linearGradient>
<linearGradient id="paint4_linear_1_6988" x1="110.263" y1="51.1068" x2="92.7559" y2="71.5939" gradientUnits="userSpaceOnUse">
<stop stop-color="#069DB3"/>
<stop offset="1" stop-color="#30CAE0"/>
</linearGradient>
<linearGradient id="paint5_linear_1_6988" x1="81.4587" y1="103.561" x2="64.1379" y2="123.862" gradientUnits="userSpaceOnUse">
<stop stop-color="#069DB3"/>
<stop offset="1" stop-color="#30CAE0"/>
</linearGradient>
</defs>
</svg>
