<svg width="146" height="145" viewBox="0 0 146 145" fill="none" xmlns="http://www.w3.org/2000/svg">
<path d="M73.1599 144.7C113.024 144.7 145.34 112.384 145.34 72.52C145.34 32.6561 113.024 0.339966 73.1599 0.339966C33.296 0.339966 0.97998 32.6561 0.97998 72.52C0.97998 112.384 33.296 144.7 73.1599 144.7Z" fill="black"/>
<path d="M32.1201 49.2V96.0601L73.6101 119.65L114.2 96.27V49.2L73.6101 25.4L32.1201 49.2Z" fill="white"/>
<path d="M91.8999 75.5901L84.6799 71.6101L80.73 73.8201L72.1299 68.78L75.96 66.54L68.74 62.5601L65.04 64.6399L56.8899 59.8701L73.6101 50.28L97.3899 63.8501L104.29 59.8701L73.6101 42.09L42.03 60.3L57.1499 69.0701L53.02 71.3899L60.6599 75.48L64.4199 73.29L72.9099 78.22L68.96 80.4399L76.6001 84.53L80.1899 82.4399L87.7 86.79L73.6101 94.98L42.03 76.45V85.0701L73.6101 103.27L102.89 86.79L87.8201 77.97L91.8999 75.5901Z" fill="url(#paint0_linear_1_6882)"/>
<defs>
<linearGradient id="paint0_linear_1_6882" x1="42.0293" y1="72.6831" x2="104.286" y2="72.6831" gradientUnits="userSpaceOnUse">
<stop/>
<stop offset="1"/>
</linearGradient>
</defs>
</svg>
