<svg width="145" height="145" viewBox="0 0 145 145" fill="none" xmlns="http://www.w3.org/2000/svg">
<path d="M72.3398 144.27C112.027 144.27 144.2 112.097 144.2 72.41C144.2 32.7229 112.027 0.550049 72.3398 0.550049C32.6527 0.550049 0.47998 32.7229 0.47998 72.41C0.47998 112.097 32.6527 144.27 72.3398 144.27Z" fill="black"/>
<path d="M91.6899 58.36H77.6602L86.79 48.7C87.64 47.8 87.6002 46.38 86.7002 45.52C85.8002 44.67 84.38 44.71 83.52 45.61L74.5898 55.0601V42.67C74.5898 41.43 73.5798 40.42 72.3398 40.42C71.0998 40.42 70.0898 41.43 70.0898 42.67V55.0601L61.1602 45.61C60.3102 44.71 58.89 44.67 57.98 45.52C57.08 46.37 57.0401 47.79 57.8901 48.7L67.0098 58.36H52.98C51.74 58.36 50.73 59.37 50.73 60.61C50.73 61.85 51.74 62.86 52.98 62.86H67.23L57.8901 72.75C57.0401 73.65 57.08 75.0701 57.98 75.9301C58.41 76.3401 58.97 76.54 59.52 76.54C60.12 76.54 60.7099 76.3 61.1499 75.84L70.0801 66.39V91.85H65.5298C64.2898 91.85 63.2798 92.86 63.2798 94.1C63.2798 95.34 64.2898 96.35 65.5298 96.35H70.0801V102.17C70.0801 103.41 71.0901 104.42 72.3301 104.42C73.5701 104.42 74.5801 103.41 74.5801 102.17V96.35H79.1299C80.3699 96.35 81.3799 95.34 81.3799 94.1C81.3799 92.86 80.3699 91.85 79.1299 91.85H74.5801V66.39L83.5098 75.84C83.9498 76.31 84.5501 76.54 85.1401 76.54C85.6901 76.54 86.2502 76.3401 86.6802 75.9301C87.5802 75.0801 87.62 73.66 86.77 72.75L77.4302 62.86H91.6802C92.9202 62.86 93.9302 61.85 93.9302 60.61C93.9402 59.36 92.9299 58.36 91.6899 58.36Z" fill="white"/>
<path d="M72.3398 138.77C63.3798 138.77 54.6898 137.02 46.5098 133.56C38.6098 130.22 31.5099 125.43 25.4199 119.34C19.3299 113.25 14.5402 106.15 11.2002 98.25C7.7402 90.07 5.99023 81.38 5.99023 72.42C5.99023 63.46 7.7402 54.77 11.2002 46.59C14.5402 38.69 19.3299 31.59 25.4199 25.5C31.5099 19.41 38.6098 14.62 46.5098 11.28C54.6898 7.82003 63.3798 6.06995 72.3398 6.06995C81.2998 6.06995 89.9899 7.82003 98.1699 11.28C106.07 14.62 113.17 19.41 119.26 25.5C125.35 31.59 130.14 38.69 133.48 46.59C136.94 54.77 138.69 63.46 138.69 72.42C138.69 81.38 136.94 90.07 133.48 98.25C130.14 106.15 125.35 113.25 119.26 119.34C113.17 125.43 106.07 130.22 98.1699 133.56C89.9899 137.01 81.2998 138.77 72.3398 138.77ZM72.3398 8.85999C63.7598 8.85999 55.4401 10.54 47.6001 13.85C40.0301 17.05 33.2299 21.63 27.3999 27.47C21.5599 33.31 16.9798 40.1 13.7798 47.67C10.4698 55.5 8.79004 63.83 8.79004 72.41C8.79004 80.99 10.4698 89.31 13.7798 97.15C16.9798 104.72 21.5599 111.51 27.3999 117.35C33.2399 123.19 40.0301 127.77 47.6001 130.97C55.4301 134.28 63.7598 135.96 72.3398 135.96C80.9198 135.96 89.2401 134.28 97.0801 130.97C104.65 127.77 111.45 123.19 117.28 117.35C123.12 111.51 127.7 104.72 130.9 97.15C134.21 89.32 135.89 80.99 135.89 72.41C135.89 63.83 134.21 55.51 130.9 47.67C127.7 40.1 123.12 33.31 117.28 27.47C111.44 21.63 104.65 17.05 97.0801 13.85C89.2401 10.54 80.9198 8.85999 72.3398 8.85999Z" fill="#EB7F7A"/>
</svg>
