<svg width="145" height="145" viewBox="0 0 145 145" fill="none" xmlns="http://www.w3.org/2000/svg">
<path d="M72.5701 144.55C112.423 144.55 144.73 112.243 144.73 72.39C144.73 32.5371 112.423 0.22998 72.5701 0.22998C32.7172 0.22998 0.409912 32.5371 0.409912 72.39C0.409912 112.243 32.7172 144.55 72.5701 144.55Z" fill="#13AE8C"/>
<path d="M50.51 63.22C51.02 62.74 51.3101 62.47 51.5901 62.19C60.1101 53.67 68.6299 45.14 77.1499 36.62C80.4199 33.35 84.1499 33.3801 87.3999 36.6501C93.4899 42.7701 99.63 48.85 105.7 54.99C107.56 56.88 108.07 59.2 107.14 61.71C106.23 64.16 104.39 65.5701 101.8 65.9001C99.8901 66.1501 98.16 65.59 96.79 64.26C93.53 61.09 90.3301 57.8601 87.1101 54.6501C85.5101 53.0501 83.9301 51.42 82.3701 49.83C74.8001 57.41 67.3299 64.8801 59.9399 72.2801C67.3999 79.7101 74.9001 87.19 82.5501 94.82C83.9301 93.4 85.4901 91.7601 87.0901 90.1601C90.1901 87.0401 93.2899 83.92 96.4199 80.84C98.2999 78.99 100.56 78.3301 103.1 79.1701C105.59 79.9901 107.06 81.78 107.48 84.35C107.82 86.47 107.17 88.34 105.66 89.85C99.6499 95.89 93.6301 101.93 87.5701 107.92C86.6701 108.81 85.62 109.68 84.47 110.13C81.81 111.18 79.4299 110.44 77.4199 108.42C69.2799 100.27 61.13 92.13 52.99 83.97C52.25 83.23 51.5701 82.4401 50.8601 81.6701C50.7701 81.7301 50.6701 81.79 50.5801 81.85C50.5601 82.21 50.53 82.5701 50.53 82.9301C50.52 87.9001 50.55 92.86 50.5 97.83C50.47 100.57 48.6999 102.91 46.1699 103.79C43.6099 104.67 40.8101 103.9 39.0801 101.81C37.9601 100.46 37.5601 98.8901 37.5601 97.1601C37.5701 85.7501 37.5701 74.3401 37.5701 62.9301C37.5701 57.7001 37.5301 52.47 37.5801 47.24C37.6301 42.17 42.8199 39.05 47.1599 41.48C49.3899 42.73 50.51 44.7201 50.52 47.2801C50.54 52.1301 50.53 56.98 50.53 61.84C50.51 62.19 50.51 62.55 50.51 63.22Z" fill="#FBFDFD"/>
<path d="M82.2 78.84C78.64 78.82 75.7801 75.93 75.7901 72.37C75.8001 68.83 78.69 65.96 82.26 65.97C85.84 65.97 88.72 68.83 88.71 72.37C88.71 76.01 85.84 78.86 82.2 78.84Z" fill="#FAFDFD"/>
</svg>
