<svg width="205" height="205" viewBox="0 0 205 205" fill="none" xmlns="http://www.w3.org/2000/svg">
<path d="M153.818 153.932C182.005 125.744 182.005 80.0429 153.818 51.8552C125.63 23.6674 79.9284 23.6673 51.7407 51.8551C23.5529 80.0428 23.5529 125.744 51.7407 153.932C79.9284 182.12 125.63 182.12 153.818 153.932Z" fill="#0E0E0E"/>
<path d="M119.86 140.44H141.39L110.96 95.15L98.28 108.32L119.86 140.44Z" fill="url(#paint0_linear_1_6788)"/>
<path d="M110.96 95.15L139.66 65.34H117.56L91.6 92.3101V115.26L98.28 108.32L110.96 95.15Z" fill="url(#paint1_linear_1_6788)"/>
<path d="M91.6 65.34H73V140.44H91.6V115.26V92.3101V65.34Z" fill="#6A0097"/>
<defs>
<linearGradient id="paint0_linear_1_6788" x1="103.788" y1="102.746" x2="131.561" y2="138.709" gradientUnits="userSpaceOnUse">
<stop stop-color="#ED098F"/>
<stop offset="1" stop-color="#6A0097"/>
</linearGradient>
<linearGradient id="paint1_linear_1_6788" x1="87.1813" y1="106.752" x2="132.05" y2="64.3223" gradientUnits="userSpaceOnUse">
<stop offset="0.057" stop-color="#ED098F"/>
<stop offset="1" stop-color="#6A0097"/>
</linearGradient>
</defs>
</svg>
