<svg width="174" height="175" viewBox="0 0 174 175" fill="none" xmlns="http://www.w3.org/2000/svg">
<path d="M157.134 104.016C166.295 65.2208 142.271 26.3443 103.476 17.1836C64.6801 8.02285 25.8038 32.0468 16.6431 70.8424C7.48237 109.638 31.5061 148.514 70.3017 157.675C109.097 166.836 147.974 142.812 157.134 104.016Z" fill="black"/>
<path d="M100.86 86.8401C101.6 87.7001 102.33 88.54 103.05 89.39C107.35 94.38 111.65 99.3802 115.96 104.37C116.09 104.52 116.33 104.63 116.53 104.63C117.9 104.65 119.26 104.64 120.63 104.64C120.78 104.64 120.92 104.64 121.1 104.64C121.1 109.43 121.1 114.19 121.1 118.97C110.32 118.97 99.55 118.97 88.76 118.97C88.76 114.21 88.76 109.46 88.76 104.66C90.36 104.66 91.9599 104.66 93.6599 104.66C93.5299 104.49 93.4799 104.4 93.3999 104.32C90.1999 100.73 87.0001 97.1401 83.8101 93.5401C83.6201 93.3301 83.4399 93.2501 83.1599 93.2501C81.8999 93.2701 80.6501 93.2601 79.3701 93.2601C79.3701 97.2301 79.3701 101.16 79.3701 105.12C81.2501 105.12 83.11 105.12 85 105.12C85 109.91 85 114.66 85 119.44C74.57 119.44 64.1299 119.44 53.6499 119.44C53.6499 114.69 53.6499 109.93 53.6499 105.13C53.8299 105.13 53.9899 105.13 54.1499 105.13C56.1499 105.13 58.1399 105.12 60.1399 105.14C60.4799 105.14 60.5601 105.04 60.5601 104.71C60.5501 93.03 60.55 81.35 60.55 69.66C60.55 69.54 60.54 69.4301 60.53 69.2701C58.24 69.2701 55.9699 69.2701 53.6599 69.2701C53.6599 64.4701 53.6599 59.71 53.6599 54.93C56.2799 54.93 58.88 54.93 61.53 54.93C61.53 56.73 61.53 58.5201 61.53 60.3301C62.94 60.3301 64.31 60.3301 65.73 60.3301C65.73 58.5301 65.73 56.74 65.73 54.93C68.3 54.93 70.8299 54.93 73.3999 54.93C73.3999 56.72 73.3999 58.5101 73.3999 60.3301C74.8199 60.3301 76.1901 60.3301 77.6001 60.3301C77.6001 58.5301 77.6001 56.74 77.6001 54.94C80.1701 54.94 82.69 54.94 85.24 54.94C85.24 59.62 85.24 64.2901 85.24 69.0101C83.37 69.0101 81.5001 69.0101 79.6101 69.0101C79.6101 72.9901 79.6101 76.9102 79.6101 80.8602C79.7101 80.8702 79.8099 80.89 79.9099 80.89C81.0999 80.89 82.29 80.8999 83.49 80.8799C83.65 80.8799 83.86 80.79 83.96 80.67C87.22 76.87 90.47 73.0601 93.73 69.2501C93.77 69.2001 93.8099 69.1401 93.8899 69.0301C92.2399 69.0301 90.64 69.0301 89.01 69.0301C89.01 64.3101 89.01 59.64 89.01 54.95C99.87 54.95 110.73 54.95 121.63 54.95C121.47 59.63 121.3 64.2901 121.14 69.0001C120.97 69.0101 120.83 69.0201 120.69 69.0201C119.31 69.0201 117.93 69.0101 116.55 69.0301C116.36 69.0301 116.12 69.1201 116.01 69.2601C111.01 75.0501 106.02 80.84 101.03 86.64C100.97 86.69 100.93 86.7401 100.86 86.8401Z" fill="white"/>
</svg>
