<svg width="205" height="205" viewBox="0 0 205 205" fill="none" xmlns="http://www.w3.org/2000/svg">
<path d="M153.43 153.435C181.618 125.247 181.618 79.5456 153.43 51.3579C125.242 23.1701 79.5409 23.1702 51.3531 51.358C23.1654 79.5458 23.1654 125.247 51.3532 153.435C79.5409 181.623 125.242 181.623 153.43 153.435Z" fill="#F4F6F5"/>
<path d="M52.1899 101.54C52.1899 101.54 52.4201 122.86 65.3501 135.56L99.1101 55L52.1899 101.54Z" fill="black"/>
<path d="M68.6599 137.85L102.42 152.16L136.29 137.85L102.48 104.67L68.6599 137.85Z" fill="black"/>
<path d="M139.38 67.62C139.38 67.62 152.65 82.47 152.65 102.61C152.65 102.61 152.31 122.64 139.38 135.57L105.28 101.6L139.38 67.62Z" fill="black"/>
<path d="M71.98 129.84L136.29 65.42L104.14 52.6L71.98 129.84Z" fill="black"/>
</svg>
