<svg width="175" height="175" viewBox="0 0 175 175" fill="none" xmlns="http://www.w3.org/2000/svg">
<path d="M103.78 157.506C142.576 148.345 166.6 109.469 157.439 70.6732C148.278 31.8777 109.402 7.85386 70.6065 17.0146C31.8109 26.1753 7.78721 65.0516 16.9479 103.847C26.1087 142.643 64.9848 166.666 103.78 157.506Z" fill="black"/>
<path d="M122 59.22C122.09 59.26 122.19 59.33 122.29 59.34C123.65 59.56 124.95 59.99 126.03 60.84C128.48 62.75 130.87 64.74 133.39 66.77C133.07 66.92 132.91 67.01 132.74 67.08C131.57 67.56 130.41 68.08 129.22 68.51C126.25 69.58 124.38 71.74 123.19 74.55C122.17 76.96 121.16 79.38 120.33 81.86C118.82 86.38 115.86 89.6399 111.8 91.9399C108.92 93.5699 105.96 95.05 103.05 96.62C101.99 97.19 100.96 97.8 99.9301 98.42C96.8101 100.27 96.48 103.61 97.39 106.28C98.05 108.21 99.49 109.55 100.89 110.91C102.29 112.28 103.88 113.34 105.8 113.87C106.72 114.12 107.59 114.54 108.2 115.6C104.45 114.52 100.84 114.46 97.23 115.57C97.27 114.82 97.27 114.82 99.25 113.54C98.76 112.94 98.34 112.29 97.79 111.78C97.08 111.11 96.31 110.49 95.5 109.96C93.1 108.39 91.58 106.26 91.1 103.42C91.09 103.33 91.05 103.25 91.01 103.12C88.85 102.98 86.69 102.83 84.53 102.69C84.52 102.66 84.52 102.63 84.51 102.59C85.68 102.24 86.86 101.89 88.03 101.53C88.03 101.46 88.03 101.39 88.03 101.32C87.29 101.2 86.54 101.01 85.79 100.98C82.31 100.84 78.94 101.57 75.59 102.38C66.31 104.61 57.33 107.79 48.42 111.16C48.2 111.24 47.97 111.32 47.71 111.42C47.67 111.14 47.64 110.93 47.61 110.72C44.45 111.82 42.63 112.04 41.05 111.46C42.35 110.47 43.6 109.51 45 108.44C44.04 108.44 43.26 108.44 42.48 108.44C42.46 108.39 42.4501 108.33 42.4301 108.28C51.7601 103.48 61.09 98.68 70.42 93.88C70.41 93.81 70.4 93.7501 70.38 93.6801C68.45 93.6801 66.52 93.6801 64.59 93.6801C64.58 93.6201 64.5701 93.57 64.5601 93.51C65.0001 93.23 65.44 92.94 65.88 92.66C75.76 86.41 85.61 80.13 95.53 73.95C97.86 72.5 100.34 71.2601 102.86 70.1801C105.6 69.0101 108.04 67.49 110.16 65.4C112.11 63.48 114.23 61.74 116.73 60.55C117.86 60.01 119.08 59.66 120.26 59.23C120.84 59.22 121.42 59.22 122 59.22Z" fill="white"/>
</svg>
