<svg width="145" height="145" viewBox="0 0 145 145" fill="none" xmlns="http://www.w3.org/2000/svg">
<path d="M72.58 144.84C112.372 144.84 144.63 112.582 144.63 72.79C144.63 32.9979 112.372 0.73999 72.58 0.73999C32.7878 0.73999 0.530029 32.9979 0.530029 72.79C0.530029 112.582 32.7878 144.84 72.58 144.84Z" fill="#2A5ADA"/>
<path d="M104.32 44.74L81 31.28L72.58 26.42L64.16 31.28L40.83 44.75L32.41 49.61V59.33V86.27V95.99L40.83 100.85L64.16 114.32L72.58 119.18L81 114.32L104.33 100.85L112.75 95.99V86.27V59.33V49.61L104.32 44.74ZM95.91 86.26L72.58 99.73L49.25 86.26V59.32L72.58 45.85L95.91 59.32V86.26Z" fill="white"/>
</svg>
