<svg width="172" height="172" viewBox="0 0 172 172" fill="none" xmlns="http://www.w3.org/2000/svg">
<path d="M156.585 101.312C164.789 62.3012 139.815 24.0261 100.804 15.8221C61.7931 7.61807 23.5179 32.5919 15.3139 71.6028C7.10988 110.614 32.0838 148.889 71.0946 157.093C110.105 165.297 148.381 140.323 156.585 101.312Z" fill="#F4F4F4"/>
<path d="M74.15 62.5101H46.6899V130.47C46.6899 130.47 90.4499 130.47 107.79 130.47C109.83 130.47 111.51 130.47 112.71 130.47H114.74V103.86L74.15 62.5101ZM104.66 123.7H63.4H53.9699V114.27V71.43H63.4V114.27H104.66V123.7Z" fill="#E73059"/>
<path d="M74.1499 62.5101L58.8999 47.6801H129.32V118.44L114.74 103.87V62.5101H74.1499Z" fill="#151B31"/>
</svg>
