<svg width="206" height="205" viewBox="0 0 206 205" fill="none" xmlns="http://www.w3.org/2000/svg">
<path d="M154.02 153.214C182.208 125.026 182.208 79.3243 154.02 51.1365C125.832 22.9488 80.1308 22.9488 51.943 51.1366C23.7552 79.3243 23.7552 125.026 51.943 153.213C80.1307 181.401 125.832 181.401 154.02 153.214Z" fill="#F4F4F4"/>
<path d="M154.61 99.6001C140.23 99.6001 125.86 99.6001 111.43 99.6001C114.52 104.53 117.6 109.42 120.68 114.33C120.6 114.4 87.66 140.69 87.66 140.69C87.72 140.65 154.69 99.8301 154.61 99.6001Z" fill="#1C60FE"/>
<path d="M51.74 114.34C51.77 114.36 86.04 141.48 86.04 141.38C86.04 114.33 86.03 59.92 86.04 59.92C86.04 59.9 51.74 114.32 51.74 114.34Z" fill="#1C60FE"/>
</svg>
