<svg width="146" height="145" viewBox="0 0 146 145" fill="none" xmlns="http://www.w3.org/2000/svg">
<path d="M73.0001 144.94C112.864 144.94 145.18 112.624 145.18 72.76C145.18 32.8961 112.864 0.580017 73.0001 0.580017C33.1362 0.580017 0.820068 32.8961 0.820068 72.76C0.820068 112.624 33.1362 144.94 73.0001 144.94Z" fill="#345D9D"/>
<path d="M104.46 102.65H65.4801L72.9001 77.79L83.7801 74.51L86.0701 66.34L75.3301 69.68L87.3401 29.46C87.7301 28.15 86.7501 26.83 85.3801 26.83H69.3001C68.4001 26.83 67.6001 27.42 67.3401 28.29L52.8501 76.68L41.9801 80.06L39.5001 87.9L50.4901 84.58L40.2601 118.72H100.94C101.85 118.72 102.65 118.12 102.9 117.25L106.42 105.29C106.81 103.96 105.82 102.65 104.46 102.65Z" fill="white"/>
</svg>
