<svg width="145" height="146" viewBox="0 0 145 146" fill="none" xmlns="http://www.w3.org/2000/svg">
<path d="M72.21 145.14C112.074 145.14 144.39 112.824 144.39 72.9601C144.39 33.0961 112.074 0.780029 72.21 0.780029C32.346 0.780029 0.0300293 33.0961 0.0300293 72.9601C0.0300293 112.824 32.346 145.14 72.21 145.14Z" fill="#172852"/>
<path d="M113.11 64.4901C111.04 63.1001 99.2199 58.7101 92.9399 56.4601C93.3899 58.7101 95.02 64.1601 100.61 68.3201C106.75 72.8901 112.11 77.46 113.57 78.73C113.83 76.85 113.96 74.92 113.96 72.97C113.97 70.06 113.68 67.2301 113.11 64.4901Z" fill="#FF6F03"/>
<path d="M72.21 31.2001C67.65 31.2001 62.1301 31.7001 58.0401 33.8801C55.9601 34.9901 51.87 37.5901 54.11 40.3401C54.41 40.7101 54.7901 41.0101 55.1701 41.2801C60.7001 45.1301 77.28 51.58 89.1 55.11C89.42 55.2 90.88 55.7101 92.95 56.4601C99.22 58.7101 111.05 63.1001 113.12 64.4901C109.2 45.4901 92.37 31.2001 72.21 31.2001Z" fill="#FFD83D"/>
<path d="M74.51 82.9001C49.76 71.1201 45.75 47.4801 45.12 41.1801C36.14 48.8401 30.45 60.2401 30.45 72.9601C30.45 96.0201 49.15 114.72 72.21 114.72C91.08 114.72 107.03 102.2 112.2 85.0101C103.33 87.9101 89.43 90.0001 74.51 82.9001Z" fill="#FFD83D"/>
</svg>
