<svg width="174" height="175" viewBox="0 0 174 175" fill="none" xmlns="http://www.w3.org/2000/svg">
<path d="M157.336 104.101C166.496 65.3052 142.472 26.4288 103.677 17.2681C64.8813 8.10733 26.0051 32.1313 16.8443 70.9269C7.6836 109.722 31.7073 148.599 70.5028 157.76C109.298 166.92 148.175 142.896 157.336 104.101Z" fill="#F4F4F4"/>
<path d="M87.1099 34.73L39.8398 61.7401V116.34L87.1099 144.46L135.02 116.34V62.4901L87.1099 34.73Z" fill="url(#paint0_linear_1_8098)"/>
<path d="M58.7798 89.4099L73.27 114.72H101.64L87.1099 89.4099H58.7798Z" fill="#DADBDA"/>
<path d="M115.76 89.41L101.64 114.72L87.1099 89.41C87.1099 89.41 100.48 66.52 101.64 64.49C101.66 64.45 115.76 89.41 115.76 89.41Z" fill="#EFEEEE"/>
<path d="M73.02 64.48H101.64L87.1099 89.4099H58.7798L73.02 64.48Z" fill="white"/>
<defs>
<linearGradient id="paint0_linear_1_8098" x1="49.9237" y1="43.3486" x2="120.59" y2="130.135" gradientUnits="userSpaceOnUse">
<stop offset="0.0365" stop-color="#E6A099"/>
<stop offset="1" stop-color="#6A3FBA"/>
</linearGradient>
</defs>
</svg>
