<svg width="205" height="205" viewBox="0 0 205 205" fill="none" xmlns="http://www.w3.org/2000/svg">
<path d="M153.829 153.237C182.017 125.049 182.017 79.3475 153.829 51.1598C125.641 22.972 79.9398 22.972 51.752 51.1598C23.5642 79.3475 23.564 125.049 51.7518 153.237C79.9396 181.425 125.641 181.425 153.829 153.237Z" fill="#1C68F2"/>
<path d="M141.25 115.91C141.27 116.33 141.3 116.64 141.3 116.94C141.3 122.59 141.31 128.24 141.3 133.89C141.29 138.28 138.02 141.57 133.65 141.57C113.08 141.58 92.5 141.58 71.93 141.57C67.56 141.57 64.2901 138.28 64.2901 133.88C64.2801 118.95 64.2901 104.03 64.2901 89.1C64.2901 88.79 64.2901 88.48 64.2901 88.11C89.9801 88.11 115.58 88.11 141.25 88.11C141.25 95.22 141.25 102.28 141.25 109.47C118.99 109.47 96.7301 109.47 74.3501 109.47C74.9301 112.13 75.7901 114.55 77.0701 116.77C83.2401 127.44 92.5301 132.8 104.82 132.06C115.27 131.42 123.11 126.1 128.31 116.99C128.77 116.19 129.22 115.87 130.15 115.89C133.46 115.95 136.77 115.91 140.09 115.91C140.45 115.91 140.82 115.91 141.25 115.91ZM98.1299 103.49C97.0799 97.0099 91.3601 92.5899 85.0801 93.2599C79.6001 93.8499 74.2802 98.9998 74.6102 103.46C76.7302 103.46 78.84 103.46 80.95 103.46C83.62 98.4098 88.33 98.2798 91.48 103.14C91.59 103.31 91.8401 103.47 92.0301 103.47C94.0301 103.5 96.0499 103.49 98.1299 103.49ZM131.03 103.49C131 98.1499 125.15 93.1699 119.09 93.2299C113.24 93.2899 107.51 98.3599 107.56 103.49C109.51 103.49 111.46 103.51 113.4 103.46C113.68 103.45 114.07 103.16 114.21 102.9C115.28 100.82 116.95 99.6698 119.29 99.6798C121.64 99.6798 123.3 100.84 124.36 102.92C124.48 103.15 124.76 103.45 124.98 103.46C127 103.51 129.01 103.49 131.03 103.49Z" fill="#FDFDFE"/>
<path d="M64.3001 81.5701C64.3001 78.0401 64.1602 74.5799 64.3402 71.1399C64.5202 67.6499 67.95 64.56 71.46 64.56C92.35 64.54 113.23 64.54 134.12 64.56C137.63 64.56 141.06 67.6499 141.24 71.1399C141.41 74.5799 141.28 78.0401 141.28 81.5701C115.63 81.5701 90.0201 81.5701 64.3001 81.5701Z" fill="#FDFDFE"/>
<path d="M121.51 115.98C116.42 122.73 109.9 126.09 101.66 125.79C93.0899 125.48 86.6399 120.2 84.1899 115.98C96.5699 115.98 108.92 115.98 121.51 115.98Z" fill="#FAFBFE"/>
</svg>
