<svg width="205" height="205" viewBox="0 0 205 205" fill="none" xmlns="http://www.w3.org/2000/svg">
<path d="M153.364 153.239C181.552 125.052 181.552 79.3502 153.364 51.1624C125.176 22.9747 79.4752 22.9747 51.2874 51.1624C23.0996 79.3502 23.0994 125.052 51.2872 153.239C79.475 181.427 125.177 181.427 153.364 153.239Z" fill="#5B449B"/>
<path d="M87.47 119.42C87.47 107.49 87.47 95.6799 87.47 83.7899C106.37 80.2399 125.22 76.6898 144.15 73.1298C144.15 92.1298 144.15 111 144.15 130.07C125.26 126.52 106.42 122.98 87.47 119.42Z" fill="white"/>
<path d="M60.5901 137.21C60.5901 113.37 60.5901 89.7899 60.5901 65.9899C76.1401 68.9099 91.6001 71.8098 107.06 74.7198C107.08 74.7798 107.09 74.8498 107.11 74.9098C105.3 75.2698 103.48 75.6399 101.66 75.9799C97.2699 76.8099 92.91 77.87 88.48 78.36C86.18 78.62 83.7499 77.9599 81.3999 77.5599C77.2299 76.8399 73.0799 75.9998 68.9199 75.2198C68.6999 75.1798 68.4699 75.2098 68.1599 75.2098C68.1599 92.7998 68.1599 110.35 68.1599 128.08C70.5199 127.65 72.8101 127.25 75.1001 126.82C78.8001 126.12 82.47 125.2 86.2 124.79C88.19 124.57 90.2901 125.14 92.3101 125.5C97.1701 126.36 102.01 127.3 106.89 128.51C91.4899 131.4 76.1101 134.29 60.5901 137.21Z" fill="white"/>
</svg>
