<svg width="206" height="205" viewBox="0 0 206 205" fill="none" xmlns="http://www.w3.org/2000/svg">
<path d="M153.993 153.236C182.181 125.048 182.181 79.3469 153.993 51.1591C125.805 22.9713 80.1039 22.9713 51.9161 51.1591C23.7283 79.3469 23.7283 125.048 51.9161 153.236C80.1039 181.424 125.805 181.424 153.993 153.236Z" fill="#F4F4F4"/>
<path d="M88.3899 131.3C92.0099 129.71 95.5801 127.98 99.2801 126.61C100.97 125.99 103.62 124.86 104.51 126.98C105.41 129.13 102.9 130.41 101.18 131.37C96.78 133.81 92.0502 134.96 86.6202 134.57C83.3202 146.05 80.5199 157.96 71.6499 167.3C65.0999 164.24 59.07 160.17 53.75 155.11C37.94 140.08 30.25 121.6 30.69 99.82C31.35 66.56 56.7101 37.0699 89.5901 31.1799C127.46 24.3999 163.39 47.2599 173.02 84.2399C182.75 121.61 160.76 160.48 123.74 171.44C121.94 171.97 120.69 171.64 119.53 170.36C118.31 169.01 117.23 167.6 118.07 165.64C119.65 161.92 121.43 158.28 122.83 154.49C124.69 149.48 126.25 144.35 127.98 139.29C128.43 137.97 129.02 136.68 129.62 135.41C130.42 133.74 131.72 133.14 133.65 133.08C138.13 132.94 142.62 132.59 147.09 132.13C151.28 131.7 152.48 130.32 152.4 126.16C152.35 123.47 151.54 120.72 154.14 118.6C154.38 118.4 153.98 116.98 153.51 116.44C152.52 115.31 152.56 114.39 153.67 113.53C155.09 112.43 155.11 111.24 154.13 109.88C152.91 108.18 152.95 106.81 155.15 106.01C155.31 105.95 155.45 105.82 155.59 105.72C159.82 102.79 160.77 102.19 156.02 98.78C153.75 97.15 151.82 95.0399 149.7 93.1999C146.44 90.3799 145.98 86.9199 147.65 83.2099C148.5 81.3199 148 80.0001 147.1 78.3701C144.78 74.1601 142.36 69.96 140.54 65.53C137.27 57.53 131 54.3 122.94 53.28C116.14 52.42 109.39 51.08 102.57 50.34C95.7801 49.61 89.3101 51.2699 83.7701 55.1799C79.1301 58.4599 75.1099 62.5898 70.6499 66.1398C68.8599 67.5598 66.6201 68.39 64.6101 69.54C63.7601 70.03 62.97 70.6299 62.16 71.1899C61.63 71.5599 61.1101 71.94 60.6001 72.32C59.6401 73.04 58.61 73.6799 57.75 74.4999C56.54 75.6499 55.46 76.95 54.24 78.27C54.02 78.09 54.3601 78.3699 54.7701 78.6899C53.2601 80.2499 51.4002 81.5898 50.3702 83.3998C49.1702 85.5198 48.33 87.9999 47.99 90.4199C47.58 93.2699 48.6499 96.2699 46.6599 98.9899C46.2499 99.5399 47.0301 100.98 47.2801 102C47.4601 102.75 47.7901 103.49 47.8601 104.25C48.2201 107.95 49.8601 110.8 53.3301 112.35C55.3201 113.24 56.11 114.72 56.48 116.83C57.03 119.96 57.44 123.36 61.45 124.36C61.98 124.49 62.45 125.31 62.72 125.91C63.49 127.59 64.1801 129.3 64.8201 131.03C66.3201 135.06 68.75 138.05 73.2 139.02C74.01 139.2 74.7 139.89 75.48 140.28C77.87 141.49 80.2701 142.66 82.8301 143.93C83.7801 139.97 84.6701 136.59 85.3401 133.17C85.4601 132.54 84.8401 131.58 84.2901 131.04C80.8401 127.57 78.75 123.34 77.46 118.72C77.21 117.82 77.8101 116.68 78.0201 115.64C79.0501 116.11 80.5501 116.3 81.0201 117.09C82.8401 120.19 84.33 123.48 85.93 126.7C86.19 127.22 86.3599 127.78 86.6399 128.51C88.7299 124.45 89.9901 120.76 88.8501 116.14C87.7001 111.52 87.8199 106.57 87.6299 101.76C87.5899 100.81 88.7001 99.82 89.2701 98.85C89.9901 99.72 91.1801 100.52 91.3501 101.49C92.1001 105.7 92.5599 109.97 93.1399 114.37C94.5799 112.12 96.05 109.88 97.43 107.59C97.67 107.2 97.5501 106.58 97.5601 106.06C97.6101 101.41 97.5101 96.75 97.7801 92.11C97.8801 90.34 98.66 88.5298 99.47 86.8998C99.9 86.0298 101.03 85.51 101.85 84.83C102.2 85.76 102.91 86.7298 102.84 87.6298C102.5 91.9898 101.95 96.3399 101.46 100.69C101.42 101.06 101.29 101.43 101.04 102.44C103.36 99.8399 105.26 97.8098 107.03 95.6598C107.48 95.1098 107.58 94.2299 107.71 93.4799C109.09 85.5399 113.19 79.0999 118.71 73.4399C118.92 73.2199 119.29 73.17 120.02 72.84C119.91 78.58 117.26 82.9798 114.87 87.6498C121.4 82.9698 127.3 77.0798 136.02 76.6498C130.51 83.3998 122.35 86.34 114.85 91.52C120.42 91.04 125.31 89.2099 130.26 90.2399C130.33 90.5099 130.39 90.77 130.46 91.04C129.78 91.52 129.13 92.0499 128.41 92.4599C123.2 95.3999 117.62 96.5799 111.64 96.1899C110.61 96.1199 109.24 96.6598 108.51 97.3998C106.49 99.4598 104.73 101.77 102.87 103.99C102.78 104.17 102.69 104.34 102.61 104.51C102.82 104.49 103.03 104.46 103.24 104.44C108.67 102.44 114.15 100.86 120.31 102.24C119.7 102.76 119.13 103.35 118.47 103.8C113.22 107.4 107.42 109.2 101.04 108.87C99.5001 108.79 98.6002 109.24 97.8702 110.53C96.3602 113.19 94.7501 115.8 92.8401 119C99.1701 117.39 104.85 115.91 110.82 116.1C108.57 119.47 105.23 120.86 101.59 121.43C98.9201 121.85 96.15 121.64 93.44 121.86C92.66 121.92 91.49 122.31 91.23 122.88C90.03 125.51 89.1001 128.25 88.0701 130.95C87.9701 131.07 87.8801 131.2 87.7801 131.32C87.9701 131.32 88.1799 131.31 88.3899 131.3Z" fill="#03DACC"/>
</svg>
