<svg width="146" height="146" viewBox="0 0 146 146" fill="none" xmlns="http://www.w3.org/2000/svg">
<path d="M72.9299 145.45C112.937 145.45 145.37 113.018 145.37 73.01C145.37 33.0025 112.937 0.570007 72.9299 0.570007C32.9224 0.570007 0.48999 33.0025 0.48999 73.01C0.48999 113.018 32.9224 145.45 72.9299 145.45Z" fill="#F2F2F2"/>
<path d="M54.3401 111H46.26V119.54H54.75V111H54.3401Z" fill="#5552FD"/>
<path d="M93.1001 111V119.54H101.49V111H93.52H93.1001Z" fill="#5552FD"/>
<path d="M93.52 35.76H101.49V27.22H93.1001V35.76H93.52Z" fill="#5552FD"/>
<path d="M54.75 35.76V27.22H46.26V35.76H54.3401H54.75Z" fill="#5552FD"/>
<path d="M110.7 101.71H102.14V110.42H110.7V101.71Z" fill="#5552FD"/>
<path d="M110.7 36.34H102.14V45.05H110.7V36.34Z" fill="#5552FD"/>
<path d="M45.71 36.34H37.05V45.05H45.71V36.34Z" fill="#5552FD"/>
<path d="M45.71 101.71H37.05V110.42H45.71V101.71Z" fill="#5552FD"/>
<path d="M36.3101 92.97V92.55H28.1499V101.1H36.96V92.97H36.3101Z" fill="#5552FD"/>
<path d="M111.55 92.97H110.89V101.1H119.6V92.55H111.55V92.97Z" fill="#5552FD"/>
<path d="M36.3101 53.79H36.96V45.66H28.1499V54.21H36.3101V53.79Z" fill="#5552FD"/>
<path d="M111.55 53.79V54.21H119.6V45.66H110.89V53.79H111.55Z" fill="#5552FD"/>
<path d="M102.14 53.79H110.89V45.66V45.05H110.7H102.14V53.79Z" fill="#9695F8"/>
<path d="M102.14 92.97V101.48H93.52V111H101.49H102.14V110.42V101.71H110.7H110.89V101.1V92.97H102.14Z" fill="#9695F8"/>
<path d="M129.84 54.79H120.09V91.97H129.84V54.79Z" fill="#5552FD"/>
<path d="M27.77 54.79H18.02V91.97H27.77V54.79Z" fill="#5552FD"/>
<path d="M120.09 54.21H119.6H111.55V92.55H119.6H120.09V91.97V54.79V54.21Z" fill="#9695F8"/>
<path d="M36.3101 54.21H28.1499H27.77V54.79V91.97V92.55H28.1499H36.3101V54.21Z" fill="#9695F8"/>
<path d="M36.3101 54.21V92.55V92.97H36.96H45.71V53.79H36.96H36.3101V54.21Z" fill="#FED955"/>
<path d="M110.89 53.79H102.14V92.97H110.89H111.55V92.55V54.21V53.79H110.89Z" fill="#FED955"/>
<path d="M92.52 119.54H55.3401V129.29H92.52V119.54Z" fill="#5552FD"/>
<path d="M92.52 17.47H55.3401V27.22H92.52V17.47Z" fill="#5552FD"/>
<path d="M93.1001 35.76V27.22H92.52H55.3401H54.75V35.76H93.1001Z" fill="#9695F8"/>
<path d="M54.75 111V119.54H55.3401H92.52H93.1001V111H54.75Z" fill="#9695F8"/>
<path d="M93.52 45.05H102.14V36.34V35.76H101.49H93.52V45.05Z" fill="#9695F8"/>
<path d="M54.3401 101.48H45.71V45.05H54.3401V35.76H46.26H45.71V36.34V45.05H37.05H36.96V45.66V53.79H45.71V92.97H36.96V101.1V101.71H37.05H45.71V110.42V111H46.26H54.3401V101.48Z" fill="#9695F8"/>
<path d="M55.3401 45.05V54.21H64.6699V63.42H83.1001V54.21H92.52V45.05H93.52V35.76H93.1001H54.75H54.3401V45.05H55.3401Z" fill="#FED955"/>
<path d="M92.52 101.48V64.05H83.77V73.94H64.1399V64.05H55.3401V101.48H54.3401V111H54.75H93.1001H93.52V101.48H92.52Z" fill="#FED955"/>
<path d="M102.14 53.79V45.05H93.52H92.52V54.21H83.1001V63.42H64.6699V54.21H55.3401V45.05H54.3401H45.71V101.48H54.3401H55.3401V64.05H64.1399V73.94H83.77V64.05H92.52V101.48H93.52H102.14V92.97V53.79Z" fill="#5552FD"/>
</svg>
