<svg width="167" height="167" viewBox="0 0 167 167" fill="none" xmlns="http://www.w3.org/2000/svg">
<path d="M95.0521 155.082C134.527 148.675 161.334 111.481 154.928 72.0055C148.521 32.5304 111.327 5.72306 71.8519 12.1296C32.3769 18.5362 5.56952 55.7306 11.9761 95.2056C18.3826 134.681 55.577 161.488 95.0521 155.082Z" fill="black"/>
<path d="M34.5699 87.1899C34.6599 86.7799 34.73 86.3599 34.86 85.9599C35.64 83.5799 37.95 82.04 40.38 82.26C42.86 82.48 44.86 84.3799 45.23 86.8399C45.67 89.7499 43.7901 92.44 40.9301 93.01C38.1501 93.56 35.35 91.7299 34.73 88.9399C34.68 88.6999 34.63 88.4499 34.58 88.2099C34.57 87.8699 34.5699 87.5299 34.5699 87.1899Z" fill="white"/>
<path d="M90.01 130.9C89.6 130.79 89.17 130.71 88.77 130.56C86.9 129.84 85.7101 127.88 85.9201 125.91C86.1501 123.77 87.66 122.11 89.69 121.78C92.19 121.37 94.57 123.14 94.9 125.66C95.23 128.16 93.66 130.36 91.22 130.83C91.11 130.85 91 130.88 90.89 130.9C90.59 130.9 90.3 130.9 90.01 130.9Z" fill="white"/>
<path d="M105.61 47.3199C102.63 47.3199 100.21 44.87 100.21 41.85C100.21 38.83 102.64 36.35 105.62 36.35C108.6 36.35 111.02 38.82 111.02 41.85C111.01 44.87 108.59 47.3199 105.61 47.3199Z" fill="white"/>
<path d="M117.26 122.34C117.26 125.35 114.86 127.8 111.9 127.81C108.94 127.82 106.52 125.37 106.52 122.36C106.52 119.35 108.92 116.9 111.89 116.89C114.85 116.88 117.26 119.33 117.26 122.34Z" fill="white"/>
<path d="M52.12 74.1C54.64 74.1 56.69 76.19 56.69 78.75C56.69 81.32 54.63 83.42 52.1 83.42C49.55 83.42 47.5 81.32 47.51 78.71C47.52 76.16 49.58 74.1 52.12 74.1Z" fill="white"/>
<path d="M102.63 56.9301C102.62 54.3701 104.68 52.28 107.2 52.28C109.72 52.28 111.78 54.36 111.78 56.92C111.79 59.48 109.74 61.5501 107.2 61.5601C104.69 61.5801 102.64 59.5001 102.63 56.9301Z" fill="white"/>
<path d="M51.9201 66.8199C51.9201 69.3799 49.89 71.46 47.37 71.46C44.85 71.46 42.8001 69.4 42.7901 66.84C42.7801 64.26 44.84 62.1801 47.38 62.1801C49.88 62.1901 51.9201 64.2699 51.9201 66.8199Z" fill="white"/>
<path d="M119.77 63.39C117.26 63.39 115.21 61.31 115.21 58.76C115.21 56.2 117.24 54.13 119.76 54.12C122.29 54.12 124.34 56.19 124.34 58.76C124.34 61.31 122.28 63.39 119.77 63.39Z" fill="white"/>
<path d="M93.75 116.35C93.75 113.83 95.76 111.8 98.24 111.8C100.71 111.8 102.72 113.85 102.71 116.36C102.7 118.87 100.7 120.89 98.23 120.89C95.75 120.9 93.75 118.87 93.75 116.35Z" fill="white"/>
<path d="M105.62 73.9301C103.43 73.9401 101.63 72.12 101.62 69.88C101.62 67.63 103.4 65.81 105.62 65.82C107.84 65.82 109.62 67.6401 109.62 69.8901C109.63 72.1101 107.83 73.9201 105.62 73.9301Z" fill="white"/>
<path d="M59.96 73.75C59.95 71.54 61.7 69.76 63.87 69.75C66.04 69.75 67.8 71.52 67.82 73.72C67.83 75.91 66.0701 77.71 63.9001 77.71C61.7201 77.72 59.96 75.95 59.96 73.75Z" fill="white"/>
<path d="M128.3 79.5301C126.12 79.5201 124.38 77.73 124.39 75.5C124.4 73.32 126.19 71.5501 128.37 71.5601C130.53 71.5801 132.27 73.39 132.25 75.59C132.24 77.78 130.47 79.5401 128.3 79.5301Z" fill="white"/>
<path d="M88.08 104.53C90.24 104.53 92 106.32 92 108.5C92 110.69 90.2301 112.48 88.0601 112.48C85.9101 112.48 84.1401 110.66 84.1501 108.47C84.1601 106.3 85.94 104.53 88.08 104.53Z" fill="white"/>
<path d="M63 61.83C63 64.02 61.24 65.8 59.08 65.79C56.92 65.79 55.17 64.0099 55.17 61.8199C55.17 59.6199 56.93 57.84 59.1 57.84C61.26 57.85 63.01 59.63 63 61.83Z" fill="white"/>
<path d="M80.3101 122.61C78.1601 122.62 76.4001 120.87 76.3901 118.7C76.3801 116.49 78.1301 114.69 80.2901 114.69C82.4301 114.69 84.19 116.45 84.2 118.62C84.21 120.82 82.4701 122.6 80.3101 122.61Z" fill="white"/>
<path d="M122.17 71.62C122.17 73.81 120.44 75.57 118.28 75.58C116.11 75.59 114.37 73.82 114.37 71.62C114.37 69.44 116.12 67.6701 118.27 67.6701C120.42 67.6601 122.16 69.44 122.17 71.62Z" fill="white"/>
<path d="M71.9301 121.6C74.1001 121.62 75.8201 123.4 75.8001 125.61C75.7801 127.78 74.01 129.52 71.83 129.49C69.71 129.47 68.0001 127.67 68.0201 125.51C68.0401 123.32 69.7901 121.58 71.9301 121.6Z" fill="white"/>
<path d="M61.1899 51.01C61.1899 53.13 59.49 54.85 57.39 54.85C55.3 54.85 53.6 53.13 53.6 51C53.6 48.86 55.3 47.14 57.4 47.14C59.5 47.16 61.1999 48.89 61.1899 51.01Z" fill="white"/>
<path d="M124.65 82.4699C126.54 82.4999 127.99 84.0399 127.96 85.9699C127.93 87.8299 126.39 89.32 124.54 89.29C122.68 89.26 121.23 87.7 121.26 85.78C121.29 83.94 122.83 82.4399 124.65 82.4699Z" fill="white"/>
<path d="M98.6501 80.23C98.6501 78.36 100.15 76.84 102 76.84C103.86 76.84 105.36 78.36 105.35 80.25C105.34 82.14 103.84 83.64 101.98 83.63C100.13 83.62 98.6401 82.11 98.6501 80.23Z" fill="white"/>
<path d="M71.4201 49.1401C71.4101 51.0301 69.9101 52.5301 68.0401 52.5201C66.2001 52.5101 64.7 50.98 64.71 49.1C64.72 47.23 66.23 45.72 68.08 45.73C69.93 45.73 71.4301 47.2601 71.4201 49.1401Z" fill="white"/>
<path d="M66.45 59.95C66.46 58.06 67.95 56.5601 69.82 56.5601C71.67 56.5701 73.1601 58.09 73.1601 59.96C73.1501 61.82 71.6301 63.36 69.8001 63.35C67.9401 63.33 66.44 61.81 66.45 59.95Z" fill="white"/>
<path d="M74.5799 68.4599C76.4999 68.4899 77.93 69.9999 77.9 71.9599C77.87 73.7799 76.32 75.2799 74.5 75.2399C72.63 75.1999 71.1899 73.67 71.2199 71.77C71.2499 69.92 72.7599 68.4299 74.5799 68.4599Z" fill="white"/>
<path d="M117.9 81.98C117.9 83.85 116.42 85.35 114.57 85.35C112.74 85.35 111.26 83.8601 111.25 82.0201C111.25 80.1101 112.72 78.6 114.58 78.6C116.43 78.59 117.9 80.1 117.9 81.98Z" fill="white"/>
<path d="M84.49 100.13C84.49 101.99 82.99 103.5 81.15 103.5C79.32 103.5 77.84 101.98 77.84 100.1C77.84 98.24 79.3301 96.73 81.1801 96.74C83.0301 96.75 84.49 98.2501 84.49 100.13Z" fill="white"/>
<path d="M76.6501 110.27C76.6501 112.12 75.16 113.63 73.33 113.63C71.51 113.63 70 112.11 70 110.27C69.99 108.43 71.51 106.89 73.34 106.9C75.17 106.89 76.6501 108.4 76.6501 110.27Z" fill="white"/>
<path d="M68.24 117.17C68.24 119.01 66.74 120.54 64.92 120.53C63.11 120.53 61.6 119 61.6 117.16C61.6 115.31 63.1099 113.79 64.9399 113.79C66.7599 113.8 68.24 115.31 68.24 117.17Z" fill="white"/>
<path d="M109.56 92.7701C107.97 92.7601 106.66 91.4201 106.68 89.8101C106.7 88.1801 108.01 86.8801 109.63 86.8901C111.22 86.9001 112.5 88.2401 112.48 89.8701C112.46 91.4701 111.14 92.7801 109.56 92.7701Z" fill="white"/>
<path d="M83.7901 69.45C85.3901 69.45 86.6801 70.76 86.6801 72.37C86.6701 73.97 85.3701 75.28 83.7801 75.28C82.1701 75.28 80.8701 73.96 80.8801 72.35C80.8801 70.74 82.1801 69.45 83.7901 69.45Z" fill="white"/>
<path d="M74.4 49.5601C74.48 47.8801 75.82 46.62 77.43 46.71C79 46.79 80.26 48.18 80.18 49.75C80.09 51.4 78.75 52.6401 77.14 52.5601C75.6 52.4801 74.33 51.0901 74.4 49.5601Z" fill="white"/>
<path d="M72.0601 101.96C72.0601 103.57 70.7701 104.88 69.1801 104.89C67.5901 104.89 66.2901 103.59 66.2801 101.98C66.2701 100.36 67.5701 99.04 69.1801 99.04C70.7701 99.05 72.0601 100.35 72.0601 101.96Z" fill="white"/>
<path d="M94.14 88.0601C94.14 86.4701 95.44 85.14 97.01 85.14C98.57 85.14 99.88 86.4799 99.87 88.0699C99.87 89.6599 98.55 90.99 96.99 90.97C95.43 90.96 94.14 89.6501 94.14 88.0601Z" fill="white"/>
<path d="M57.95 108.88C57.94 107.27 59.2101 105.99 60.8101 105.98C62.3601 105.97 63.6701 107.27 63.6701 108.84C63.6701 110.47 62.4001 111.77 60.8001 111.77C59.2201 111.76 57.96 110.48 57.95 108.88Z" fill="white"/>
<path d="M81.86 60.4399C81.86 62.0199 80.59 63.3199 79.03 63.3199C77.43 63.3299 76.15 62.03 76.15 60.41C76.15 58.83 77.44 57.53 79.01 57.53C80.6 57.54 81.86 58.8299 81.86 60.4399Z" fill="white"/>
<path d="M116.82 93.7701C116.83 92.1901 118.11 90.9001 119.67 90.9101C121.23 90.9201 122.49 92.2201 122.49 93.8001C122.48 95.3601 121.2 96.6601 119.65 96.6501C118.1 96.6501 116.82 95.3501 116.82 93.7701Z" fill="white"/>
<path d="M79.8199 91.8701C79.8199 93.4401 78.54 94.71 76.98 94.71C75.43 94.71 74.15 93.4301 74.15 91.8801C74.15 90.3101 75.42 89.0401 76.99 89.0401C78.55 89.0301 79.8199 90.2901 79.8199 91.8701Z" fill="white"/>
<path d="M116.6 99.28C116.6 100.69 115.46 101.84 114.07 101.84C112.67 101.84 111.5 100.67 111.52 99.27C111.53 97.87 112.68 96.7299 114.07 96.7299C115.46 96.7199 116.6 97.86 116.6 99.28Z" fill="white"/>
<path d="M103.99 92.84C105.38 92.84 106.5 93.97 106.49 95.36C106.48 96.76 105.37 97.88 103.99 97.89C102.62 97.89 101.5 96.78 101.49 95.39C101.48 93.98 102.6 92.84 103.99 92.84Z" fill="white"/>
<path d="M72.61 84.1299C72.63 82.7299 73.75 81.6099 75.13 81.6199C76.52 81.6299 77.63 82.7799 77.61 84.1899C77.59 85.5599 76.44 86.7 75.09 86.68C73.69 86.66 72.59 85.5299 72.61 84.1299Z" fill="white"/>
<path d="M91.39 91.09C92.78 91.09 93.89 92.2 93.9 93.6C93.91 94.99 92.78 96.13 91.41 96.13C90.03 96.13 88.9 95 88.9 93.61C88.89 92.22 90.01 91.09 91.39 91.09Z" fill="white"/>
<path d="M69.76 94.36C69.72 95.77 68.59 96.8899 67.25 96.8399C65.85 96.7899 64.7699 95.65 64.8199 94.26C64.8599 92.86 65.99 91.7799 67.37 91.8199C68.71 91.8499 69.8 93.01 69.76 94.36Z" fill="white"/>
<path d="M61.35 101.21C61.35 102.59 60.24 103.7 58.87 103.7C57.51 103.7 56.4 102.57 56.4 101.2C56.4 99.83 57.52 98.71 58.88 98.71C60.26 98.71 61.36 99.83 61.35 101.21Z" fill="white"/>
<path d="M87.28 51.8499C87.27 53.2099 86.19 54.3 84.85 54.3C83.49 54.3 82.38 53.1799 82.38 51.8299C82.39 50.4699 83.5 49.37 84.87 49.38C86.22 49.39 87.29 50.4899 87.28 51.8499Z" fill="white"/>
<path d="M93.8299 74.5799C93.8199 75.9399 92.72 77.04 91.38 77.03C90.05 77.02 88.9599 75.89 88.9699 74.53C88.9799 73.19 90.09 72.0899 91.42 72.0999C92.76 72.1199 93.8399 73.2199 93.8299 74.5799Z" fill="white"/>
<path d="M84.09 62.67C84.09 61.33 85.18 60.24 86.53 60.24C87.87 60.24 88.97 61.3401 88.97 62.6801C88.97 64.0201 87.86 65.13 86.51 65.13C85.17 65.11 84.09 64.01 84.09 62.67Z" fill="white"/>
<path d="M90.67 57.3199C89.48 57.3199 88.5 56.34 88.5 55.14C88.49 53.93 89.46 52.93 90.66 52.92C91.85 52.91 92.8399 53.8999 92.8499 55.1099C92.8499 56.3199 91.87 57.3099 90.67 57.3199Z" fill="white"/>
<path d="M98.3101 101.11C97.1301 101.11 96.16 100.13 96.16 98.9399C96.16 97.7499 97.13 96.77 98.3 96.76C99.47 96.76 100.45 97.7401 100.45 98.9301C100.46 100.14 99.4901 101.11 98.3101 101.11Z" fill="white"/>
<path d="M67.2 85.42C68.38 85.42 69.35 86.41 69.34 87.6C69.33 88.78 68.37 89.76 67.21 89.76C66.02 89.77 65.05 88.7799 65.05 87.5699C65.05 86.3799 66.01 85.42 67.2 85.42Z" fill="white"/>
<path d="M58.8199 96.63C57.6599 96.63 56.7099 95.68 56.6999 94.5C56.6899 93.3 57.63 92.3299 58.8 92.3199C59.97 92.3099 60.9399 93.2999 60.9399 94.4899C60.9299 95.6699 59.9799 96.62 58.8199 96.63Z" fill="white"/>
<path d="M90.28 65.92C90.28 64.73 91.23 63.76 92.4 63.76C93.57 63.76 94.5 64.72 94.51 65.91C94.51 67.09 93.57 68.05 92.4 68.05C91.23 68.05 90.29 67.1 90.28 65.92Z" fill="white"/>
<path d="M110.38 102.76C110.38 103.88 109.5 104.78 108.4 104.79C107.3 104.79 106.4 103.9 106.4 102.78C106.4 101.66 107.28 100.76 108.38 100.76C109.5 100.76 110.38 101.64 110.38 102.76Z" fill="white"/>
<path d="M104.82 104.56C104.82 105.57 104.01 106.38 103.01 106.38C102.02 106.38 101.23 105.57 101.22 104.57C101.21 103.54 102.02 102.72 103.03 102.72C104.02 102.72 104.82 103.54 104.82 104.56Z" fill="white"/>
<path d="M61.78 88.9301C61.78 89.9401 60.9599 90.75 59.9699 90.75C58.9799 90.74 58.17 89.91 58.18 88.91C58.19 87.9 59 87.09 60 87.09C60.98 87.1 61.78 87.9301 61.78 88.9301Z" fill="white"/>
<path d="M96.7099 58.97C96.7099 59.98 95.92 60.77 94.92 60.77C93.93 60.77 93.13 59.96 93.14 58.96C93.14 57.96 93.95 57.15 94.93 57.15C95.92 57.16 96.7099 57.97 96.7099 58.97Z" fill="white"/>
</svg>
