<svg width="205" height="204" viewBox="0 0 205 204" fill="none" xmlns="http://www.w3.org/2000/svg">
<path d="M153.276 152.951C181.351 124.877 181.351 79.3589 153.276 51.2844C125.202 23.2098 79.6837 23.2099 51.6092 51.2844C23.5347 79.359 23.5348 124.877 51.6093 152.951C79.6838 181.026 125.202 181.026 153.276 152.951Z" fill="#56B2A4"/>
<path d="M96.97 105.12L61.21 78.19C58.19 75.92 53.8701 78.07 53.8701 81.85V126.96H61.51V87.9301L91.05 110.42V126.95H98.77V108.73C98.77 107.31 98.1 105.97 96.97 105.12Z" fill="white"/>
<path d="M143.72 78.19L107.96 105.12C106.82 105.98 106.16 107.32 106.16 108.74V126.96H113.88V110.43L143.42 87.94V126.97H151.06V81.86C151.06 78.07 146.74 75.91 143.72 78.19Z" fill="white"/>
</svg>
