<svg width="145" height="145" viewBox="0 0 145 145" fill="none" xmlns="http://www.w3.org/2000/svg">
<path d="M72.2 144.59C112.064 144.59 144.38 112.274 144.38 72.41C144.38 32.5461 112.064 0.22998 72.2 0.22998C32.336 0.22998 0.0200195 32.5461 0.0200195 72.41C0.0200195 112.274 32.336 144.59 72.2 144.59Z" fill="white"/>
<path d="M72.2 0.22998C32.34 0.22998 0.0200195 32.55 0.0200195 72.41C0.0200195 112.27 32.34 144.59 72.2 144.59C112.06 144.59 144.38 112.27 144.38 72.41C144.38 32.55 112.06 0.22998 72.2 0.22998ZM115.46 115.67C109.84 121.29 103.29 125.71 96.01 128.79C88.47 131.98 80.46 133.59 72.2 133.59C63.94 133.59 55.9199 131.97 48.3899 128.79C41.1099 125.71 34.5599 121.3 28.9399 115.67C23.3199 110.05 18.9101 103.5 15.8201 96.22C12.6301 88.68 11.02 80.67 11.02 72.41C11.02 69.11 11.28 65.85 11.79 62.65H88.8201C90.5801 65.24 93.5499 66.95 96.9299 66.95C102.34 66.95 106.72 62.56 106.72 57.16C106.72 51.75 102.33 47.37 96.9299 47.37C93.5599 47.37 90.5901 49.07 88.8201 51.66H14.6299C14.9999 50.64 15.4001 49.62 15.8201 48.61C18.9001 41.33 23.3099 34.78 28.9399 29.16C34.5599 23.54 41.1099 19.12 48.3899 16.04C55.9299 12.85 63.94 11.24 72.2 11.24C80.46 11.24 88.48 12.86 96.01 16.04C103.29 19.12 109.84 23.53 115.46 29.16C121.08 34.78 125.49 41.33 128.58 48.61C131.77 56.15 133.38 64.16 133.38 72.42C133.38 77.14 132.85 81.77 131.81 86.28H56.1101C54.3501 83.69 51.38 81.99 48 81.99C42.59 81.99 38.21 86.38 38.21 91.78C38.21 97.18 42.6 101.57 48 101.57C51.37 101.57 54.3401 99.87 56.1101 97.28H128.13C125.06 104.14 120.81 110.32 115.46 115.67Z" fill="black"/>
</svg>
