<svg width="175" height="175" viewBox="0 0 175 175" fill="none" xmlns="http://www.w3.org/2000/svg">
<path d="M157.441 104.054C166.601 65.2586 142.578 26.3821 103.782 17.2214C64.9865 8.06069 26.1102 32.0847 16.9495 70.8802C7.78877 109.676 31.8125 148.552 70.6081 157.713C109.404 166.873 148.28 142.85 157.441 104.054Z" fill="#F4F4F4"/>
<path d="M118.58 96.43C117.48 96.55 116.39 96.76 115.38 97.23C114.14 97.81 113.27 98.7501 112.77 100.02C112.5 100.7 112.35 101.4 112.25 102.12C112.13 102.97 112.09 103.83 112.11 104.7C112.15 105.99 111.9 107.21 111.32 108.36C110.36 110.27 108.87 111.6 106.88 112.39C106.25 112.64 105.59 112.8 104.92 112.88C104.82 112.89 104.72 112.91 104.63 112.92C104.53 112.92 104.43 112.92 104.32 112.92C103.98 112.92 103.63 112.92 103.29 112.92C103.17 112.91 103.04 112.89 102.92 112.88C102.62 112.83 102.31 112.79 102.02 112.72C98.84 111.96 96.39 109.38 95.81 106.16C95.32 103.43 96.0699 101.06 97.9699 99.0601C99.0799 97.8901 100.43 97.13 101.99 96.72C102.27 96.64 102.56 96.6001 102.84 96.5401C102.97 96.5101 103.1 96.46 103.23 96.42C103.34 96.39 103.45 96.3701 103.56 96.3401C103.94 96.3401 104.33 96.3401 104.71 96.3401C104.87 96.3401 105.03 96.3501 105.19 96.3401C105.28 96.3401 105.37 96.3101 105.45 96.3001C105.48 96.3001 105.51 96.2901 105.54 96.2901C105.76 96.2801 105.97 96.2601 106.19 96.2501C106.22 96.2501 106.25 96.2501 106.28 96.2501C106.44 96.2401 106.59 96.22 106.75 96.21C107.61 96.13 108.46 95.99 109.27 95.69C110.45 95.25 111.27 94.4601 111.7 93.2601C111.91 92.6701 112.03 92.06 112.12 91.44C112.26 90.39 112.29 89.3401 112.28 88.2901C112.27 87.2901 112.42 86.33 112.76 85.4C113.72 82.72 116.09 80.69 118.89 80.19C119.12 80.15 119.36 80.1302 119.6 80.1002C120.24 80.1002 120.87 80.1002 121.51 80.1002C121.57 80.1002 121.62 80.0701 121.68 80.0601C121.69 80.0601 121.71 80.0501 121.72 80.0501C121.84 80.0501 121.97 80.0501 122.09 80.0501C122.24 80.0401 122.4 80.0201 122.55 80.0101C122.56 80.0101 122.58 80.0101 122.59 80.0101C122.76 80.0001 122.93 79.98 123.1 79.97C123.11 79.97 123.13 79.97 123.14 79.97C123.26 79.96 123.39 79.94 123.51 79.93C124.32 79.83 125.12 79.6702 125.88 79.3502C127.09 78.8502 127.84 77.95 128.22 76.72C128.42 76.06 128.54 75.39 128.6 74.71C128.7 73.66 128.71 72.6101 128.72 71.5501C128.74 69.7601 129.32 68.1601 130.4 66.7401C131.43 65.3801 132.77 64.4299 134.39 63.8799C135.03 63.6599 135.68 63.53 136.35 63.48C136.78 63.48 137.21 63.48 137.64 63.48C138.09 63.55 138.55 63.59 139 63.7C141.08 64.23 142.72 65.39 143.89 67.19C144.57 68.23 145 69.3602 145.09 70.6102C145.09 70.6402 145.12 70.66 145.13 70.69C145.13 71.21 145.13 71.7401 145.13 72.2601C145.1 72.4101 145.05 72.55 145.04 72.7C145.01 73.26 144.85 73.7901 144.64 74.3001C143.57 76.9901 141.63 78.71 138.84 79.48C138.39 79.6 137.93 79.68 137.46 79.7C137.13 79.7 136.8 79.7 136.48 79.7C136.44 79.7 136.39 79.7201 136.35 79.7401C136.29 79.7401 136.23 79.7401 136.17 79.7501C135.96 79.7501 135.76 79.7501 135.55 79.7501C135.46 79.7501 135.37 79.7801 135.29 79.7901C135.26 79.7901 135.23 79.7901 135.2 79.7901C135.06 79.8001 134.92 79.8201 134.78 79.8301C133.85 79.9301 132.93 80.1 132.05 80.45C130.64 81.02 129.69 82.03 129.16 83.44C128.87 84.23 128.72 85.05 128.63 85.89C128.54 86.69 128.54 87.4901 128.54 88.2801C128.52 90.4101 127.76 92.2401 126.3 93.7801C125.16 94.9901 123.76 95.78 122.13 96.14C121.76 96.22 121.39 96.2501 121.01 96.3101C120.67 96.3101 120.32 96.3101 119.98 96.3201C119.94 96.3201 119.89 96.3402 119.85 96.3602C119.8 96.3602 119.76 96.3602 119.71 96.3602C119.49 96.3702 119.28 96.39 119.06 96.4C119.05 96.4 119.03 96.4 119.02 96.4C118.9 96.4 118.74 96.42 118.58 96.43Z" fill="#4A90E2"/>
<path d="M38.48 96.3401C40.41 96.4701 42.11 97.16 43.55 98.46C44.98 99.74 45.8699 101.34 46.1899 103.24C46.5499 105.37 46.15 107.36 44.96 109.17C43.68 111.13 41.8601 112.33 39.5601 112.8C39.3701 112.84 39.18 112.86 38.99 112.89C38.85 112.9 38.7101 112.91 38.5701 112.93C38.1901 112.93 37.8099 112.94 37.4199 112.94C36.8199 112.89 36.2199 112.79 35.6399 112.62C34.2399 112.19 33.03 111.47 32.02 110.42C30.7 109.04 29.94 107.38 29.73 105.48C29.7 105.28 29.6799 105.07 29.6499 104.87C29.6499 104.75 29.6499 104.62 29.6499 104.5C29.7299 104.3 29.76 104.1 29.73 103.89C29.89 102.14 30.55 100.59 31.7 99.26C33.05 97.69 34.7701 96.7699 36.8201 96.4399C37.0601 96.3999 37.31 96.3901 37.55 96.3701C37.86 96.3401 38.17 96.3401 38.48 96.3401Z" fill="#4A90E2"/>
<path d="M70.2601 63.47C70.6901 63.47 71.1201 63.47 71.5501 63.47C72.0001 63.54 72.46 63.59 72.9 63.7C74.1 63.98 75.1702 64.5201 76.1102 65.3001C77.5602 66.4801 78.51 67.9901 78.95 69.8001C79.08 70.3201 79.16 70.8402 79.17 71.3702C79.18 71.9602 79.19 72.55 79.21 73.15C79.25 74.22 79.3102 75.2901 79.5802 76.3301C79.7602 77.0301 80.0301 77.6801 80.5001 78.2501C80.9601 78.8001 81.54 79.15 82.2 79.41C82.89 79.68 83.6202 79.82 84.3502 79.91C84.7002 79.95 85.05 79.9801 85.4 80.0101C85.65 80.0201 85.89 80.0401 86.14 80.0501C86.17 80.0501 86.2001 80.0601 86.2301 80.0601C86.2901 80.0701 86.34 80.1002 86.4 80.1002C87.08 80.1002 87.76 80.1002 88.45 80.1002C89.18 80.1602 89.8801 80.3402 90.5401 80.6202C93.0301 81.6602 94.6701 83.4701 95.4801 86.0401C95.7601 86.9401 95.8801 87.8701 95.7801 88.8201C95.4601 91.7001 94.0701 93.8901 91.5301 95.3201C90.6201 95.8301 89.6402 96.1301 88.6102 96.2601C88.4702 96.2801 88.32 96.2901 88.18 96.3101C87.73 96.3101 87.2802 96.3101 86.8402 96.3101C85.4402 96.2001 84.1401 95.7701 82.9801 94.9901C81.2701 93.8501 80.1201 92.2901 79.5301 90.3201C79.3201 89.6201 79.23 88.91 79.21 88.18C79.19 87.4 79.1502 86.6302 79.0802 85.8602C79.0102 85.0502 78.8401 84.2601 78.5401 83.4901C77.9801 82.0301 76.9301 81.0601 75.4801 80.5301C74.7001 80.2501 73.9002 80.0901 73.0802 80.0101C72.9402 80.0001 72.8 79.98 72.66 79.97H72.64H72.6202C72.3302 79.95 72.0301 79.94 71.7401 79.92V79.91C71.6901 79.9 71.6402 79.8702 71.5902 79.8702C71.1302 79.8702 70.6801 79.8702 70.2201 79.8702C70.1701 79.8702 70.1202 79.89 70.0702 79.91C70.0402 79.91 70.0101 79.91 69.9801 79.92C69.7201 79.93 69.45 79.95 69.19 79.96C68.28 80.04 67.3801 80.17 66.5001 80.46C64.8301 81.01 63.7 82.1101 63.14 83.7801C62.89 84.5101 62.76 85.2701 62.67 86.0301C62.58 86.8101 62.5802 87.5899 62.5802 88.3799C62.5802 90.2999 61.92 91.98 60.68 93.43C59.47 94.85 57.94 95.74 56.13 96.16C55.91 96.21 55.6901 96.2301 55.4701 96.2701C55.3601 96.2801 55.25 96.3001 55.14 96.3101C55.11 96.3101 55.0801 96.3201 55.0501 96.3201C54.6201 96.3201 54.1901 96.3201 53.7501 96.3201C52.4401 96.2101 51.2202 95.8299 50.1002 95.1299C48.0202 93.8199 46.7401 91.9601 46.2601 89.5401C46.1401 88.9501 46.1102 88.3501 46.1202 87.7501C46.1602 86.0801 46.68 84.57 47.66 83.22C48.9 81.52 50.57 80.4601 52.63 80.0301C52.88 79.9801 53.13 79.95 53.38 79.91C53.89 79.91 54.4 79.91 54.9 79.91C55.16 79.91 55.42 79.91 55.68 79.91C55.73 79.91 55.7802 79.8802 55.8302 79.8702C55.8402 79.8702 55.8602 79.8602 55.8702 79.8602C56.0902 79.8502 56.3001 79.8301 56.5201 79.8201C56.5601 79.8201 56.61 79.8201 56.65 79.8101C56.81 79.8001 56.9602 79.7801 57.1202 79.7701C57.5602 79.7601 57.98 79.6701 58.41 79.5801C59.03 79.4601 59.63 79.28 60.2 78.98C61.06 78.52 61.6401 77.82 61.9801 76.91C62.2501 76.16 62.37 75.3901 62.45 74.5901C62.54 73.6501 62.5802 72.7201 62.5702 71.7801C62.5602 70.9301 62.68 70.1001 62.93 69.2801C63.26 68.2101 63.7801 67.26 64.5001 66.41C65.5101 65.21 66.7701 64.3602 68.2501 63.8602C68.9201 63.6502 69.5901 63.51 70.2601 63.47Z" fill="#4A90E2"/>
</svg>
