<svg width="175" height="175" viewBox="0 0 175 175" fill="none" xmlns="http://www.w3.org/2000/svg">
<path d="M104.411 157.872C143.139 148.42 166.871 109.363 157.42 70.6355C147.968 31.9077 108.911 8.17475 70.183 17.6265C31.4552 27.0782 7.72232 66.1354 17.1741 104.863C26.6258 143.591 65.683 167.324 104.411 157.872Z" fill="#ECEFF0"/>
<path d="M120.96 59.86C120.43 57.35 118.98 55.58 116.64 54.54C115.95 54.24 115.22 54.07 114.47 54.02C114.43 54.02 114.4 54 114.36 53.99C114.03 53.99 113.71 53.99 113.38 53.99C113.04 54.04 112.69 54.08 112.35 54.15C110.42 54.56 108.9 55.6 107.79 57.23C105.93 59.98 104.08 62.75 102.22 65.5C99.3399 69.78 96.46 74.07 93.56 78.34C92.87 79.36 93.5099 80.44 94.3799 80.69C94.8699 80.83 95.3199 80.73 95.7099 80.4C96.5499 79.68 97.3799 78.95 98.2199 78.23C101.75 75.16 105.27 72.09 108.8 69.03C109.08 68.79 109.36 68.54 109.64 68.3C109.82 68.14 110.03 68.07 110.26 68.18C110.49 68.28 110.58 68.48 110.58 68.73C110.58 68.79 110.58 68.84 110.58 68.9C110.58 81.37 110.58 93.83 110.58 106.3C110.58 106.36 110.58 106.42 110.58 106.49C110.57 106.76 110.44 106.95 110.2 107.03C109.96 107.11 109.76 107.05 109.58 106.84C109.11 106.27 108.63 105.71 108.16 105.14C105.08 101.45 102 97.77 98.92 94.08C95.39 89.85 91.8599 85.63 88.3199 81.4C84.7499 77.13 81.1799 72.86 77.6199 68.59C74.2499 64.56 70.89 60.53 67.52 56.51C66.27 55.01 64.6599 54.2 62.7199 54.02C62.6699 54.02 62.6199 54 62.5699 53.99C61.7499 53.99 60.9199 53.99 60.0999 53.99C59.8199 54.03 59.5299 54.06 59.2499 54.12C57.0199 54.58 55.36 55.83 54.27 57.83C53.8 58.69 53.54 59.62 53.46 60.6C53.46 60.64 53.4399 60.69 53.4299 60.73C53.4299 78.77 53.4299 96.82 53.4299 114.86C53.4699 115.15 53.4999 115.44 53.5599 115.72C54.0199 117.99 55.29 119.68 57.33 120.78C58.18 121.24 59.0899 121.49 60.0499 121.56C60.0899 121.56 60.1199 121.58 60.1599 121.59C60.4899 121.59 60.81 121.59 61.14 121.59C61.41 121.55 61.68 121.52 61.95 121.46C63.95 121.07 65.51 120.02 66.65 118.34C69.03 114.82 71.4 111.28 73.78 107.76C76.14 104.25 78.4899 100.74 80.8699 97.25C81.5999 96.18 80.88 95.01 79.89 94.85C79.43 94.77 79.03 94.91 78.68 95.21C77.74 96.02 76.7899 96.84 75.8499 97.65C72.1699 100.83 68.49 104.02 64.81 107.2C64.62 107.36 64.41 107.44 64.17 107.34C63.94 107.23 63.8499 107.03 63.8499 106.79C63.8499 106.73 63.8499 106.67 63.8499 106.6C63.8499 94.17 63.8499 81.74 63.8499 69.3C63.8499 69.23 63.8499 69.16 63.8499 69.1C63.8599 68.83 63.9999 68.64 64.2399 68.56C64.4799 68.48 64.6799 68.54 64.8599 68.75C65.7799 69.85 66.6999 70.96 67.6299 72.06C70.9899 76.08 74.3499 80.1 77.7199 84.13C80.9599 88 84.19 91.87 87.43 95.74C91.19 100.23 94.9399 104.73 98.6999 109.22C101.43 112.48 104.15 115.74 106.88 119C108.16 120.53 109.79 121.36 111.76 121.55C111.8 121.55 111.85 121.57 111.89 121.58C112.71 121.58 113.54 121.58 114.36 121.58C114.65 121.54 114.94 121.51 115.22 121.45C117.6 120.96 119.32 119.61 120.4 117.44C120.79 116.66 121 115.83 121.06 114.96C121.06 114.92 121.08 114.89 121.09 114.85C121.09 96.81 121.09 78.76 121.09 60.72C121.05 60.44 121.02 60.14 120.96 59.86Z" fill="black"/>
</svg>
