<svg width="174" height="174" viewBox="0 0 174 174" fill="none" xmlns="http://www.w3.org/2000/svg">
<path d="M103.684 156.882C142.323 147.758 166.251 109.038 157.127 70.3984C148.003 31.7587 109.283 7.83146 70.6431 16.9554C32.0034 26.0793 8.07621 64.7994 17.2001 103.439C26.3241 142.079 65.044 166.006 103.684 156.882Z" fill="#3360BE"/>
<path d="M62.72 70.62L38.0699 56.29V112.12C38.0699 112.66 38.36 113.16 38.83 113.44L62.72 127.33V98.75V70.62Z" fill="white"/>
<path d="M111.6 98.85L62.72 70.62V98.75L87.1801 113.03L111.65 127.3L136.16 113.03L111.6 98.85Z" fill="#C1DDFC"/>
<path d="M135.15 55.63L111.6 41.65V70.25V98.84L136.16 113.02V57.38C136.16 56.67 135.77 56 135.15 55.63Z" fill="#A8CCFA"/>
<path d="M111.6 98.8499V70.26L87.1899 56.1099L63.64 42.4599C63.07 42.1299 62.37 42.1299 61.8 42.4599L38.0699 56.29L111.6 98.8499Z" fill="#DDEDFD"/>
<path d="M111.6 70.26V41.65L87.1899 56.11L111.6 70.26Z" fill="#C1DDFC"/>
<path d="M62.72 127.33L87.1801 113.03L62.72 98.75V127.33Z" fill="#DDEDFD"/>
</svg>
