<svg width="145" height="146" viewBox="0 0 145 146" fill="none" xmlns="http://www.w3.org/2000/svg">
<path d="M72.58 145.11C112.444 145.11 144.76 112.794 144.76 72.9299C144.76 33.066 112.444 0.75 72.58 0.75C32.716 0.75 0.400024 33.066 0.400024 72.9299C0.400024 112.794 32.716 145.11 72.58 145.11Z" fill="#050A11"/>
<path d="M114.38 55.3702C114.29 55.7202 114.22 56.07 114.12 56.41C113.27 59.38 110.17 61.27 107.14 60.66C104.04 60.03 101.92 57.1701 102.26 54.0501C102.6 50.9201 105.29 48.5499 108.43 48.6399C111.38 48.7199 113.78 50.79 114.28 53.69C114.3 53.8 114.35 53.9 114.39 54.01C114.38 54.46 114.38 54.9202 114.38 55.3702Z" fill="white"/>
<path d="M78.64 36.6499C78.67 39.9899 75.97 42.74 72.64 42.77C69.28 42.8 66.54 40.12 66.51 36.79C66.48 33.41 69.17 30.6599 72.53 30.6399C75.87 30.6099 78.61 33.3199 78.64 36.6499Z" fill="white"/>
<path d="M66.51 72.4299C66.52 69.0899 69.23 66.3799 72.58 66.3799C75.94 66.3799 78.6701 69.13 78.6501 72.49C78.6301 75.82 75.8901 78.53 72.5501 78.52C69.2101 78.5 66.5 75.7699 66.51 72.4299Z" fill="white"/>
<path d="M36.8199 48.64C40.1699 48.62 42.9 51.32 42.91 54.66C42.92 58.03 40.2 60.7801 36.85 60.7701C33.52 60.7701 30.79 58.0401 30.78 54.7101C30.76 51.3701 33.4599 48.66 36.8199 48.64Z" fill="white"/>
<path d="M48.77 63.4199C48.79 60.0599 51.48 57.3799 54.84 57.3899C58.19 57.3999 60.9001 60.11 60.9001 63.45C60.9001 66.8 58.1201 69.5701 54.7901 69.5301C51.4301 69.4901 48.76 66.7699 48.77 63.4199Z" fill="white"/>
<path d="M48.77 45.72C48.76 42.37 51.4401 39.6599 54.7901 39.6299C58.1201 39.5999 60.91 42.37 60.89 45.71C60.88 49.06 58.18 51.75 54.82 51.76C51.48 51.77 48.78 49.08 48.77 45.72Z" fill="white"/>
<path d="M72.58 48.6399C75.93 48.6399 78.64 51.35 78.64 54.69C78.64 58.05 75.8801 60.81 72.5401 60.77C69.1801 60.73 66.5 58.03 66.51 54.68C66.51 51.34 69.23 48.6299 72.58 48.6399Z" fill="white"/>
<path d="M96.62 63.44C96.63 66.78 93.93 69.5001 90.59 69.5301C87.25 69.5601 84.49 66.8 84.5 63.44C84.51 60.08 87.2001 57.3999 90.5601 57.3999C93.9101 57.3899 96.61 60.08 96.62 63.44Z" fill="white"/>
<path d="M96.62 45.6899C96.63 49.0399 93.9399 51.74 90.5799 51.76C87.1999 51.77 84.47 49.0499 84.49 45.6899C84.51 42.3399 87.23 39.6299 90.56 39.6299C93.9 39.6299 96.61 42.3399 96.62 45.6899Z" fill="white"/>
<path d="M108.4 75.8301C105.9 75.8201 103.92 73.8101 103.94 71.3001C103.96 68.8401 105.99 66.8401 108.44 66.8501C110.92 66.8701 112.92 68.8999 112.9 71.3999C112.89 73.8599 110.87 75.8501 108.4 75.8301Z" fill="white"/>
<path d="M36.94 75.8301C34.45 75.8201 32.45 73.8001 32.47 71.3001C32.49 68.8501 34.53 66.8401 36.98 66.8501C39.47 66.8601 41.46 68.8899 41.44 71.3899C41.42 73.8699 39.42 75.8401 36.94 75.8301Z" fill="white"/>
<path d="M72.71 84.6201C75.21 84.6301 77.1901 86.6299 77.1701 89.1399C77.1501 91.5999 75.1301 93.6001 72.6701 93.5901C70.1901 93.5801 68.19 91.54 68.2 89.05C68.22 86.59 70.23 84.6201 72.71 84.6201Z" fill="white"/>
<path d="M54.7 75.8702C57.19 75.8602 59.22 77.9002 59.2 80.3702C59.18 82.8302 57.17 84.8401 54.72 84.8501C52.25 84.8601 50.2 82.8101 50.22 80.3401C50.23 77.8601 52.23 75.8702 54.7 75.8702Z" fill="white"/>
<path d="M94.9201 80.3301C94.9301 82.7901 92.95 84.8101 90.49 84.8501C88.03 84.8901 85.97 82.8502 85.95 80.3702C85.93 77.9002 87.97 75.8602 90.45 75.8702C92.92 75.8702 94.9001 77.8501 94.9201 80.3301Z" fill="white"/>
<path d="M93.47 94.04C93.41 95.71 91.99 97.0499 90.36 96.9999C88.71 96.9499 87.35 95.5198 87.4 93.8898C87.45 92.2398 88.89 90.8699 90.51 90.9299C92.18 90.9899 93.53 92.42 93.47 94.04Z" fill="white"/>
<path d="M51.6701 93.96C51.6801 92.32 53.08 90.9299 54.72 90.9299C56.36 90.9399 57.7501 92.34 57.7501 93.98C57.7401 95.62 56.34 97.01 54.7 97.01C53.05 96.99 51.6601 95.59 51.6701 93.96Z" fill="white"/>
<path d="M39.98 84.99C39.97 86.66 38.6 88.0101 36.94 88.0001C35.28 87.9801 33.93 86.61 33.94 84.95C33.95 83.29 35.33 81.93 36.99 81.94C38.65 81.95 39.99 83.32 39.98 84.99Z" fill="white"/>
<path d="M105.41 85C105.4 83.33 106.74 81.9499 108.4 81.9399C110.06 81.9199 111.44 83.2799 111.45 84.9399C111.46 86.6099 110.13 87.98 108.46 88C106.8 88.02 105.41 86.66 105.41 85Z" fill="white"/>
<path d="M75.71 102.99C75.7 104.66 74.3301 106 72.6601 105.99C71.0001 105.98 69.6601 104.61 69.6701 102.93C69.6801 101.26 71.04 99.93 72.72 99.94C74.4 99.96 75.72 101.31 75.71 102.99Z" fill="white"/>
<path d="M109.98 95.7101C109.96 96.5601 109.26 97.2501 108.41 97.2401C107.54 97.2301 106.85 96.5102 106.87 95.6202C106.89 94.7702 107.6 94.0802 108.44 94.0902C109.31 94.1002 110 94.8301 109.98 95.7101Z" fill="white"/>
<path d="M56.28 104.67C56.27 105.54 55.55 106.24 54.67 106.22C53.82 106.2 53.13 105.49 53.14 104.65C53.15 103.78 53.88 103.07 54.75 103.1C55.6 103.12 56.29 103.83 56.28 104.67Z" fill="white"/>
<path d="M35.41 95.6399C35.42 94.7899 36.12 94.0901 36.97 94.0901C37.84 94.0901 38.54 94.8199 38.53 95.6899C38.51 96.5499 37.82 97.23 36.97 97.23C36.09 97.24 35.4 96.5199 35.41 95.6399Z" fill="white"/>
<path d="M90.4399 103.1C91.2899 103.1 91.99 103.79 92.01 104.64C92.03 105.5 91.31 106.23 90.43 106.23C89.57 106.23 88.88 105.55 88.86 104.7C88.85 103.82 89.5599 103.1 90.4399 103.1Z" fill="white"/>
<path d="M71.14 113.66C71.14 112.77 71.82 112.09 72.72 112.1C73.59 112.11 74.25 112.78 74.25 113.65C74.25 114.54 73.56 115.23 72.67 115.21C71.81 115.21 71.14 114.53 71.14 113.66Z" fill="white"/>
</svg>
