<svg width="146" height="145" viewBox="0 0 146 145" fill="none" xmlns="http://www.w3.org/2000/svg">
<path d="M73.1499 0.329956C33.2899 0.329956 0.969971 32.65 0.969971 72.51C0.969971 112.37 33.2899 144.69 73.1499 144.69C113.01 144.69 145.33 112.37 145.33 72.51C145.33 32.65 113.01 0.329956 73.1499 0.329956ZM107.63 74.72C107.6 76.07 107.49 77.42 107.36 78.77C106.82 84.31 105.49 89.63 102.98 94.62C100.71 99.12 97.75 103.08 93.76 106.22C90.06 109.13 85.87 110.97 81.29 111.9C79.87 112.19 78.42 112.37 76.98 112.55C75.22 112.76 73.4499 112.79 71.6799 112.74C70.7299 112.71 69.7701 112.71 68.8201 112.61C62.1201 111.94 55.97 109.87 50.78 105.4C47.98 102.99 45.7201 100.14 43.8401 96.98C43.4601 96.33 43.13 95.66 42.74 95.01C42.56 94.71 42.5901 94.53 42.8401 94.26C46.5701 90.4 50.28 86.52 54 82.64C56.97 79.55 59.9399 76.46 62.9099 73.36C69.3999 66.59 75.8899 59.8301 82.3799 53.0601C82.4599 52.9801 82.5399 52.89 82.6399 52.78C81.2199 50.8 79.4499 49.32 77.1399 48.59C74.2099 47.66 71.2501 47.62 68.3401 48.7C65.2801 49.84 63.17 52.0399 61.77 54.9399C60.83 56.8899 60.27 58.99 59.79 61.09C59.45 62.55 59.17 64.03 58.95 65.51C58.78 66.61 58.7299 67.73 58.6499 68.84C58.5799 69.77 58.56 70.71 58.5 71.64C58.49 71.77 58.37 71.91 58.28 72.01C55.02 75.41 51.76 78.81 48.5 82.21C46.05 84.76 43.5999 87.31 41.1599 89.87C41.0299 90 40.9 90.1399 40.73 90.3199C40.61 89.9799 40.4999 89.69 40.3999 89.4C39.2899 86.09 38.6 82.7 38.22 79.23C38.12 78.35 38.07 77.4599 38 76.5699C37.78 73.9099 37.85 71.25 37.99 68.6C38.27 63.54 39.2 58.6 41.04 53.86C43.14 48.46 46.2001 43.69 50.5601 39.83C54.3001 36.52 58.65 34.41 63.5 33.3C64.79 33 66.0999 32.79 67.4099 32.61C68.4299 32.47 69.46 32.4 70.48 32.38C72.19 32.34 73.9101 32.29 75.6101 32.38C82.1501 32.75 88.2 34.57 93.48 38.59C96.65 41.01 99.18 44 101.28 47.36C101.32 47.42 101.35 47.4801 101.39 47.5601C100.25 48.7501 99.11 49.94 97.97 51.12C92.32 57.01 86.66 62.9 81.01 68.8C74.51 75.59 68.02 82.38 61.52 89.17C61.4 89.29 61.2601 89.38 61.3701 89.61C62.4601 91.9 63.9001 93.9 66.0601 95.29C67.8701 96.46 69.89 96.9899 72.02 97.0699C74.47 97.1699 76.8099 96.75 78.9399 95.47C81.5799 93.88 83.3001 91.5499 84.3401 88.6899C85.1101 86.5799 85.7001 84.42 86.1201 82.22C86.3501 81.02 86.4899 79.8 86.6299 78.58C86.7599 77.49 86.8599 76.39 86.9199 75.3C86.9799 74.01 86.98 72.7199 86.99 71.4399C86.99 70.6599 86.9399 69.87 86.9299 69.09C86.9299 68.94 86.9801 68.76 87.0801 68.66C92.5001 63 97.9201 57.3399 103.35 51.6899C103.39 51.6499 103.43 51.61 103.52 51.53C103.61 51.74 103.7 51.92 103.78 52.1C105.25 55.41 106.24 58.8601 106.85 62.4301C107.04 63.5701 107.18 64.72 107.29 65.86C107.42 67.16 107.52 68.47 107.57 69.78C107.62 71.44 107.66 73.08 107.63 74.72Z" fill="#1A82FE"/>
<path d="M107.28 65.88C107.17 64.73 107.03 63.58 106.84 62.45C106.23 58.89 105.24 55.43 103.77 52.12C103.69 51.94 103.6 51.7501 103.51 51.5501C103.43 51.6301 103.38 51.66 103.34 51.71C97.9102 57.36 92.4902 63.0201 87.0702 68.6801C86.9702 68.7801 86.92 68.97 86.92 69.11C86.93 69.89 86.9801 70.68 86.9801 71.46C86.9801 72.75 86.97 74.04 86.91 75.32C86.86 76.42 86.7502 77.51 86.6202 78.6C86.4802 79.82 86.3302 81.04 86.1102 82.24C85.7002 84.44 85.1002 86.61 84.3302 88.71C83.2902 91.57 81.57 93.9 78.93 95.49C76.8 96.77 74.4601 97.19 72.0101 97.09C69.8701 97.01 67.8601 96.4801 66.0501 95.3101C63.8901 93.9101 62.4502 91.92 61.3602 89.63C61.2502 89.4 61.4001 89.31 61.5101 89.19C68.0101 82.4 74.5001 75.61 81.0001 68.82C86.6501 62.92 92.3001 57.0301 97.9601 51.1401C99.1001 49.9501 100.24 48.77 101.38 47.58C101.34 47.5 101.31 47.44 101.27 47.38C99.1601 44.02 96.6401 41.02 93.4701 38.61C88.1901 34.59 82.1402 32.7801 75.6002 32.4001C73.8902 32.3001 72.1801 32.3601 70.4701 32.4001C69.4401 32.4201 68.41 32.49 67.4 32.63C66.09 32.81 64.7801 33.03 63.4901 33.32C58.6401 34.43 54.2901 36.55 50.5501 39.85C46.1901 43.71 43.1301 48.48 41.0301 53.88C39.1901 58.62 38.2601 63.55 37.9801 68.62C37.8301 71.28 37.7701 73.94 37.9901 76.59C38.0601 77.48 38.1201 78.36 38.2101 79.25C38.5901 82.71 39.28 86.1101 40.39 89.4201C40.49 89.7101 40.6001 90 40.7201 90.34C40.8901 90.16 41.02 90.0301 41.15 89.8901C43.6 87.3401 46.0501 84.79 48.4901 82.23C51.7501 78.83 55.0101 75.4301 58.2701 72.0301C58.3701 71.9301 58.4901 71.7901 58.4901 71.6601C58.5501 70.7301 58.58 69.79 58.64 68.86C58.72 67.75 58.77 66.6301 58.94 65.5301C59.16 64.0501 59.4401 62.57 59.7801 61.11C60.2701 59.01 60.8201 56.91 61.7601 54.96C63.1601 52.06 65.2702 49.85 68.3302 48.72C71.2302 47.64 74.2 47.69 77.13 48.61C79.44 49.34 81.21 50.8201 82.63 52.8001C82.53 52.9101 82.4502 53 82.3702 53.08C75.8802 59.85 69.39 66.62 62.9 73.38C59.93 76.47 56.9601 79.5601 53.9901 82.6601C50.2701 86.5301 46.5602 90.4101 42.8302 94.2801C42.5802 94.5401 42.5501 94.7201 42.7301 95.0301C43.1201 95.6701 43.4502 96.35 43.8302 97C45.7102 100.16 47.9701 103.01 50.7701 105.42C55.9601 109.89 62.1102 111.96 68.8102 112.63C69.7602 112.72 70.72 112.73 71.67 112.76C73.44 112.81 75.2101 112.78 76.9701 112.57C78.4101 112.39 79.8601 112.21 81.2801 111.92C85.8701 110.98 90.0601 109.14 93.7501 106.24C97.7401 103.1 100.71 99.1401 102.97 94.6401C105.48 89.6501 106.81 84.3301 107.35 78.7901C107.48 77.4401 107.59 76.09 107.62 74.74C107.65 73.1 107.62 71.46 107.56 69.82C107.51 68.49 107.41 67.18 107.28 65.88Z" fill="#FEFEFE"/>
</svg>
