<svg width="205" height="205" viewBox="0 0 205 205" fill="none" xmlns="http://www.w3.org/2000/svg">
<path d="M153.28 153.43C181.468 125.243 181.468 79.5413 153.28 51.3536C125.093 23.1658 79.3912 23.1657 51.2034 51.3535C23.0156 79.5413 23.0157 125.243 51.2034 153.43C79.3912 181.618 125.093 181.618 153.28 153.43Z" fill="#ECEFF0"/>
<path d="M100.43 116.13C99.8301 115.17 99.3499 114.13 98.9399 113.08C98.2199 111.25 97.4501 109.16 97.3001 107.11C97.1901 105.65 97.4 104.2 98.17 102.88C98.83 101.75 99.7701 100.8 100.81 100.03C100.96 99.92 102.1 98.98 102.31 99.08C108.87 102.42 107.39 109.06 105.16 110.17C102.93 111.29 101.97 103.44 101.97 103.44C99.26 111.22 105.48 113.99 105.48 113.99C110.03 111.51 109.79 106.18 109.79 106.18C109.79 102.53 107.18 99.82 104.44 97.79C104.79 98.05 106.08 95.7301 106.2 95.4301C107.46 92.1701 106.24 87.39 102.78 85.99C103.25 86.18 104.93 88.17 105.04 91.61C105.12 94.16 103.31 95.81 102.32 96.52C95.1699 91.98 101.74 85.98 101.74 85.98C94.24 90.9 100.15 97.88 100.15 97.88C100.15 97.88 93.93 99.24 94.73 107.09C95.53 114.95 101.83 117.73 101.83 117.73C101.22 117.49 100.75 116.64 100.43 116.13Z" fill="black"/>
<path d="M87.48 118.41C87.8 116.82 91.95 115.38 91.95 115.38C86.63 114.48 84.72 118.62 84.72 118.62C84.72 118.62 85.15 121.49 91.1 122.55C97.05 123.61 101.68 120.21 101.68 120.21C91.0901 124.2 87.48 118.41 87.48 118.41Z" fill="black"/>
<path d="M119.87 119.01C119.87 119.01 118.17 114.69 111.26 114.96C104.35 115.23 103.11 119.01 103.11 119.01C103.11 119.01 107.01 115.7 111.21 116.07C115.41 116.44 116.9 119.01 116.9 119.01C116.9 119.01 115.36 121.66 111 121.71C106.64 121.76 103.13 120.12 103.13 120.12C103.13 120.12 106.11 122.71 111.32 122.77C116.52 122.82 119.28 120.35 119.87 119.01Z" fill="black"/>
<path d="M135.27 119.78C139.81 113.25 142.46 105.33 142.46 96.78C142.46 74.49 124.39 56.4301 102.11 56.4301C79.82 56.4301 61.76 74.5 61.76 96.78C61.76 105.44 64.49 113.46 69.13 120.03L57.38 142.33H67.83H89.6801V135.18V126.17C85.9301 124.58 82.56 122.3 79.7 119.49L102.27 76.05L124.73 119.28C121.91 122.11 118.57 124.42 114.86 126.03V135.07V142.33H136.71H147.16L135.27 119.78ZM81.38 131.41C81.34 131.43 81.33 131.44 81.33 131.44C81.33 131.48 81.33 133.89 81.33 133.89H72.22L75.66 127.26C77.44 128.8 79.35 130.19 81.38 131.41ZM98.02 65.2L73.71 111.33C71.47 106.97 70.21 102.02 70.21 96.78C70.21 80.54 82.34 67.14 98.04 65.14L98.02 65.2ZM123.2 133.88C123.2 133.88 123.2 131.48 123.2 131.43C123.2 131.44 123.12 131.39 122.99 131.31C125.05 130.06 126.98 128.64 128.77 127.06L132.31 133.87H123.2V133.88ZM130.65 111.03L106.5 65.2L106.49 65.1801C122.03 67.3201 134 80.65 134 96.78C134.01 101.9 132.8 106.74 130.65 111.03Z" fill="black"/>
</svg>
