<svg width="205" height="205" viewBox="0 0 205 205" fill="none" xmlns="http://www.w3.org/2000/svg">
<path d="M153.528 153.811C181.716 125.624 181.716 79.9223 153.528 51.7346C125.341 23.5468 79.6393 23.5467 51.4515 51.7345C23.2637 79.9223 23.2638 125.624 51.4516 153.811C79.6393 181.999 125.341 181.999 153.528 153.811Z" fill="black"/>
<path d="M114.44 103.16C114.44 106.12 114.62 109.1 114.33 112.03C114.24 112.91 112.87 114.34 112.05 114.36C105.93 114.56 99.7999 114.56 93.6799 114.36C92.8599 114.33 91.4299 112.85 91.3999 112C91.1999 105.98 91.31 99.95 91.28 93.93C91.27 92.15 92.0601 91.3 93.8601 91.3C99.8801 91.32 105.91 91.31 111.93 91.3C113.73 91.3 114.49 92.18 114.45 93.96C114.4 97.03 114.44 100.09 114.44 103.16Z" fill="white"/>
<path d="M91.27 80.11C91.27 82.97 91.2201 85.83 91.2901 88.69C91.3301 90.44 90.7601 91.34 88.8401 91.32C82.8201 91.26 76.79 91.26 70.77 91.32C68.88 91.34 68.27 90.51 68.28 88.73C68.33 82.81 68.35 76.88 68.27 70.96C68.24 68.93 69.11 68.31 71.03 68.33C76.85 68.4 82.67 68.43 88.49 68.32C90.67 68.28 91.3701 69.16 91.3001 71.23C91.1901 74.19 91.27 77.15 91.27 80.11Z" fill="white"/>
<path d="M114.44 125.88C114.44 122.92 114.5 119.95 114.42 116.99C114.37 115.13 115.17 114.45 116.98 114.46C123.01 114.51 129.04 114.51 135.07 114.46C136.8 114.45 137.47 115.26 137.46 116.87C137.45 123 137.53 129.14 137.35 135.27C137.33 136.03 135.96 137.37 135.18 137.39C129.05 137.57 122.92 137.48 116.78 137.5C115.13 137.5 114.38 136.78 114.41 135.08C114.48 132.01 114.44 128.94 114.44 125.88Z" fill="white"/>
<path d="M125.83 91.3C122.87 91.3 119.9 91.25 116.94 91.32C115.1 91.36 114.39 90.62 114.41 88.78C114.47 82.85 114.48 76.93 114.4 71C114.37 68.98 115.19 68.32 117.13 68.34C123.06 68.41 128.98 68.41 134.91 68.34C136.77 68.32 137.48 69.1 137.47 70.89C137.44 76.82 137.43 82.74 137.48 88.67C137.5 90.64 136.67 91.4 134.71 91.33C131.76 91.22 128.8 91.3 125.83 91.3Z" fill="white"/>
<path d="M91.27 126.12C91.27 128.98 91.2 131.84 91.29 134.7C91.35 136.6 90.7099 137.54 88.6799 137.52C82.7499 137.46 76.8299 137.46 70.8999 137.52C68.8899 137.54 68.24 136.64 68.27 134.72C68.34 128.9 68.36 123.07 68.26 117.25C68.23 115.08 69.1099 114.41 71.1799 114.44C76.8999 114.53 82.6301 114.55 88.3501 114.43C90.7101 114.38 91.3901 115.35 91.3001 117.53C91.1801 120.39 91.27 123.26 91.27 126.12Z" fill="white"/>
</svg>
