<svg width="175" height="175" viewBox="0 0 175 175" fill="none" xmlns="http://www.w3.org/2000/svg">
<path d="M158.022 104.402C167.182 65.6065 143.159 26.7301 104.363 17.5694C65.5676 8.40868 26.6913 32.4326 17.5306 71.2282C8.36982 110.024 32.3937 148.9 71.1892 158.061C109.985 167.221 148.861 143.198 158.022 104.402Z" fill="#F4F4F4"/>
<path d="M82.5298 91.39C82.9198 89.72 83.1401 87.98 83.1401 86.19C83.1401 84.34 82.9102 82.5401 82.4902 80.8201C74.2302 78.8901 67.71 72.43 65.7 64.2C64.05 63.81 62.32 63.6002 60.55 63.6002C48.08 63.6002 37.96 73.71 37.96 86.18C37.96 98.65 48.07 108.77 60.55 108.77C62.34 108.77 64.08 108.56 65.75 108.16C67.71 99.87 74.2398 93.35 82.5298 91.39Z" fill="#205FEC"/>
<path d="M92.8799 91.3799C91.2299 90.9899 89.5 90.7801 87.73 90.7801C85.94 90.7801 84.1998 90.99 82.5298 91.39C80.5698 99.69 74.05 106.21 65.75 108.17C65.36 109.84 65.1399 111.58 65.1399 113.37C65.1399 125.84 75.2502 135.96 87.7202 135.96C100.19 135.96 110.31 125.85 110.31 113.37C110.31 111.52 110.08 109.72 109.66 108C101.4 106.07 94.8899 99.6099 92.8799 91.3799Z" fill="#3075EE"/>
<path d="M82.5298 91.39C74.2298 93.35 67.71 99.87 65.75 108.17C74.05 106.21 80.5798 99.69 82.5298 91.39Z" fill="#0932E8"/>
<path d="M82.4902 80.8201C84.1402 81.2101 85.8701 81.42 87.6401 81.42C89.4301 81.42 91.1698 81.2101 92.8398 80.8101C94.7998 72.5101 101.32 65.9901 109.62 64.0301C110.01 62.3601 110.23 60.62 110.23 58.83C110.23 46.36 100.12 36.2401 87.6499 36.2401C75.1799 36.2401 65.0601 46.35 65.0601 58.83C65.0601 60.68 65.29 62.48 65.71 64.2C73.97 66.13 80.4802 72.5901 82.4902 80.8201Z" fill="#88BDF3"/>
<path d="M82.4902 80.8201C80.4802 72.5901 73.96 66.13 65.7 64.2C67.71 72.44 74.2302 78.9001 82.4902 80.8201Z" fill="#134BEF"/>
<path d="M114.82 63.42C113.03 63.42 111.29 63.6301 109.62 64.0301C107.66 72.3301 101.14 78.8501 92.8398 80.8101C92.4498 82.4801 92.23 84.2201 92.23 86.0101C92.23 87.8601 92.4599 89.6599 92.8799 91.3799C101.14 93.3099 107.66 99.7701 109.67 108C111.32 108.39 113.05 108.6 114.82 108.6C127.29 108.6 137.4 98.4901 137.4 86.0101C137.4 73.5301 127.29 63.42 114.82 63.42Z" fill="#5795F1"/>
<path d="M92.8799 91.3799C94.8899 99.6099 101.41 106.07 109.67 108C107.66 99.7701 101.14 93.3099 92.8799 91.3799Z" fill="#164BEA"/>
<path d="M92.8398 80.8101C101.14 78.8501 107.66 72.3301 109.62 64.0301C101.32 65.9901 94.7898 72.5101 92.8398 80.8101Z" fill="#3170F1"/>
</svg>
