<svg width="146" height="145" viewBox="0 0 146 145" fill="none" xmlns="http://www.w3.org/2000/svg">
<path d="M70.3799 144.68C68.9499 144.57 67.5201 144.47 66.1001 144.34C59.4801 143.75 53.0701 142.24 46.8701 139.84C37.1501 136.07 28.6201 130.47 21.3401 123.02C11.8901 113.34 5.60003 101.89 2.54003 88.6999C1.18003 82.8799 0.569984 76.96 0.739984 70.99C1.25998 52.51 7.78994 36.4299 20.4399 22.9599C30.8799 11.8499 43.6799 4.80998 58.6399 1.74998C65.5099 0.349977 72.4399 -2.83122e-05 79.4099 0.619972C88.1399 1.39997 96.4601 3.70001 104.36 7.53001C111.63 11.06 118.14 15.66 123.84 21.38C133.76 31.33 140.3 43.16 143.38 56.89C144.43 61.59 145 66.36 145.05 71.18C145.24 90.55 138.84 107.43 125.71 121.67C115.81 132.41 103.63 139.38 89.4299 142.78C84.9499 143.85 80.4 144.44 75.8 144.62C75.67 144.63 75.5399 144.66 75.3999 144.68C73.7199 144.68 72.0499 144.68 70.3799 144.68ZM72.8701 6.18003C36.4801 6.20003 7.18005 35.5799 6.56005 71.3399C5.93005 108.09 35.4401 138.54 72.3301 138.84C109.31 139.14 139.2 109.22 139.22 72.5799C139.25 35.6999 109.23 6.14003 72.8701 6.18003Z" fill="black"/>
<path d="M72.87 6.18008C109.23 6.15008 139.26 35.7 139.23 72.57C139.2 109.22 109.31 139.13 72.34 138.83C35.45 138.54 5.93996 108.08 6.56996 71.33C7.17996 35.58 36.47 6.19008 72.87 6.18008ZM71.8998 81.49C71.7798 81.18 71.7198 81.04 71.6598 80.9C68.6298 72.55 65.6 64.2 62.58 55.84C62.43 55.44 62.26 55.27 61.81 55.27C59.48 55.3 57.15 55.2801 54.83 55.2801C54.64 55.2801 54.4599 55.3001 54.2699 55.3101C54.2699 66.7801 54.2699 78.19 54.2699 89.62C56.2299 89.62 58.1498 89.62 60.1498 89.62C60.1498 81.68 60.1498 73.7901 60.1498 65.9101C60.2898 66.0301 60.3398 66.15 60.3898 66.27C63.1798 73.91 65.9699 81.5401 68.7499 89.1801C68.8799 89.5501 69.0498 89.6901 69.4498 89.6801C70.9998 89.6601 72.55 89.6501 74.1 89.6801C74.57 89.6901 74.7698 89.53 74.9298 89.09C77.6398 81.61 80.37 74.1401 83.1 66.6601C83.2 66.4001 83.3098 66.14 83.4098 65.88C83.4498 65.89 83.4899 65.9 83.5299 65.9C83.5299 73.79 83.5299 81.69 83.5299 89.6C85.5599 89.6 87.5199 89.6 89.4899 89.6C89.4899 78.14 89.4899 66.7201 89.4899 55.2801C89.2799 55.2701 89.1098 55.25 88.9398 55.25C86.6098 55.25 84.2799 55.26 81.9599 55.24C81.5399 55.24 81.3599 55.37 81.2199 55.76C78.6599 62.86 76.0899 69.9601 73.5099 77.0601C72.9899 78.5101 72.4698 79.92 71.8998 81.49ZM125.77 66.72C125.8 66.65 125.82 66.61 125.82 66.58C125.81 66.43 125.8 66.27 125.78 66.12C125.03 61.37 122.56 57.8801 118.12 55.9101C115.16 54.6001 112.04 54.29 108.84 54.6C103.46 55.13 99.26 57.6 96.59 62.35C93.88 67.18 93.4199 72.38 94.5399 77.73C95.2999 81.37 96.98 84.54 99.83 87C103.03 89.76 106.8 90.7701 110.95 90.5301C113.54 90.3801 115.96 89.67 117.98 87.97C118.65 87.41 119.21 86.7201 119.87 86.0401C119.87 87.2501 119.87 88.44 119.87 89.65C121.89 89.65 123.84 89.65 125.82 89.65C125.82 83.5 125.82 77.3901 125.82 71.2901C120.47 71.2901 115.16 71.2901 109.86 71.2901C109.86 73.2701 109.86 75.22 109.86 77.22C113.14 77.22 116.37 77.22 119.62 77.22C119.63 77.34 119.64 77.42 119.63 77.49C119.25 80.12 118.04 82.2 115.64 83.48C113.98 84.36 112.2 84.6201 110.35 84.5501C106.25 84.3901 103.25 82.52 101.59 78.73C100.17 75.5 100.09 72.11 100.84 68.7C101.38 66.25 102.47 64.1 104.48 62.51C107.73 59.94 113.28 59.84 116.65 62.26C118.03 63.25 118.93 64.58 119.22 66.26C119.3 66.7 119.47 66.78 119.86 66.77C121.66 66.75 123.47 66.76 125.27 66.76C125.45 66.75 125.62 66.73 125.77 66.72ZM15.2699 72.52C15.2199 72.53 15.16 72.5401 15.11 72.5501C15.38 74.3101 15.5098 76.1001 15.9398 77.8101C17.2198 82.8901 20.1398 86.74 24.9498 88.99C28.0298 90.43 31.2998 90.82 34.6598 90.45C39.8298 89.88 44 87.55 46.81 83.13C49.83 78.39 50.4199 73.18 49.2299 67.76C48.1299 62.8 45.4598 58.93 40.9498 56.46C38.0698 54.89 34.9498 54.33 31.6898 54.47C25.9498 54.73 21.3498 57.1 18.1898 61.97C16.1098 65.16 15.2799 68.73 15.2699 72.52Z" fill="white"/>
<path d="M71.8999 81.49C72.4799 79.92 72.99 78.51 73.51 77.09C76.08 69.99 78.66 62.9 81.22 55.79C81.36 55.4 81.54 55.26 81.96 55.27C84.29 55.29 86.6199 55.28 88.9399 55.28C89.1099 55.28 89.28 55.3001 89.49 55.3101C89.49 66.7501 89.49 78.17 89.49 89.63C87.52 89.63 85.56 89.63 83.53 89.63C83.53 81.71 83.53 73.8201 83.53 65.9301C83.49 65.9201 83.4499 65.91 83.4099 65.91C83.3099 66.17 83.1901 66.4299 83.1001 66.6899C80.3701 74.1599 77.6399 81.64 74.9299 89.12C74.7699 89.55 74.5801 89.72 74.1001 89.71C72.5501 89.68 71 89.68 69.45 89.71C69.05 89.72 68.88 89.58 68.75 89.21C65.97 81.57 63.1799 73.9301 60.3899 66.3001C60.3399 66.1801 60.2899 66.0499 60.1499 65.9399C60.1499 73.8299 60.1499 81.71 60.1499 89.65C58.1499 89.65 56.23 89.65 54.27 89.65C54.27 78.22 54.27 66.81 54.27 55.34C54.46 55.33 54.6501 55.3101 54.8301 55.3101C57.1601 55.3101 59.4901 55.3201 61.8101 55.3001C62.2701 55.2901 62.4401 55.46 62.5801 55.87C65.6001 64.23 68.6299 72.5801 71.6599 80.9301C71.7099 81.0401 71.7699 81.18 71.8999 81.49Z" fill="black"/>
<path d="M125.77 66.72C125.62 66.73 125.45 66.75 125.28 66.75C123.48 66.75 121.67 66.74 119.87 66.76C119.48 66.76 119.31 66.69 119.23 66.25C118.94 64.57 118.04 63.24 116.66 62.25C113.29 59.83 107.73 59.93 104.49 62.5C102.48 64.09 101.39 66.24 100.85 68.69C100.1 72.1 100.19 75.49 101.6 78.72C103.26 82.5 106.26 84.3801 110.36 84.5401C112.21 84.6101 114 84.36 115.65 83.47C118.05 82.19 119.27 80.11 119.64 77.48C119.65 77.41 119.63 77.33 119.63 77.21C116.38 77.21 113.15 77.21 109.87 77.21C109.87 75.22 109.87 73.2701 109.87 71.2801C115.17 71.2801 120.47 71.2801 125.83 71.2801C125.83 77.3801 125.83 83.49 125.83 89.64C123.86 89.64 121.91 89.64 119.88 89.64C119.88 88.43 119.88 87.2401 119.88 86.0301C119.22 86.7101 118.66 87.4 117.99 87.96C115.97 89.66 113.55 90.37 110.96 90.52C106.81 90.76 103.04 89.75 99.84 86.99C96.99 84.53 95.31 81.36 94.55 77.72C93.43 72.37 93.88 67.17 96.6 62.34C99.27 57.59 103.47 55.12 108.85 54.59C112.05 54.27 115.17 54.5901 118.13 55.9001C122.57 57.8701 125.04 61.36 125.79 66.11C125.81 66.26 125.82 66.42 125.83 66.57C125.83 66.61 125.8 66.65 125.77 66.72Z" fill="black"/>
<path d="M15.27 72.52C15.28 68.74 16.1099 65.1699 18.1799 61.9699C21.3499 57.0999 25.9399 54.7299 31.6799 54.4699C34.9399 54.3199 38.0599 54.8799 40.9399 56.4599C45.4599 58.9299 48.13 62.8 49.22 67.76C50.42 73.18 49.83 78.38 46.8 83.13C43.98 87.55 39.8199 89.8799 34.6499 90.4499C31.2899 90.8199 28.0199 90.43 24.9399 88.99C20.1299 86.74 17.2099 82.89 15.9299 77.81C15.4999 76.1 15.3701 74.31 15.1001 72.55C15.1601 72.53 15.22 72.53 15.27 72.52ZM32.5701 60.61C28.0801 60.53 24.41 62.97 22.74 67.16C21.79 69.54 21.5899 72.02 21.8899 74.53C22.1999 77.09 23.0899 79.4299 24.8999 81.3199C27.1999 83.7299 30.1201 84.6 33.3601 84.37C37.4401 84.08 40.4101 82.0699 42.1001 78.3199C43.3401 75.5699 43.51 72.6699 43.02 69.7199C42.11 64.1899 38.1201 60.71 32.5701 60.61Z" fill="black"/>
<path d="M32.5701 60.6099C38.1201 60.7099 42.11 64.1899 43.02 69.7199C43.51 72.6699 43.3401 75.5699 42.1001 78.3199C40.4101 82.0699 37.4401 84.0899 33.3601 84.3699C30.1101 84.5999 27.1999 83.7299 24.8999 81.3199C23.0899 79.4299 22.1999 77.09 21.8899 74.53C21.5899 72.01 21.79 69.54 22.74 67.16C24.41 62.97 28.0801 60.5199 32.5701 60.6099Z" fill="white"/>
</svg>
