<svg width="145" height="145" viewBox="0 0 145 145" fill="none" xmlns="http://www.w3.org/2000/svg">
<path d="M72.3701 144.58C112.234 144.58 144.55 112.264 144.55 72.4C144.55 32.5361 112.234 0.219971 72.3701 0.219971C32.5062 0.219971 0.189941 32.5361 0.189941 72.4C0.189941 112.264 32.5062 144.58 72.3701 144.58Z" fill="url(#paint0_linear_1_3627)"/>
<path d="M108.14 36.72C104.82 33.4 100.41 31.58 95.7199 31.58C91.0299 31.58 86.62 33.41 83.3 36.72C79.98 40.04 78.1598 44.45 78.1598 49.14V68.5601C76.4398 68.6901 74.5998 68.8099 72.6298 68.9399C70.7698 69.0599 68.74 69.2 66.58 69.35V49.14C66.58 44.45 64.7499 40.04 61.4399 36.72C58.1199 33.4 53.71 31.58 49.02 31.58C44.33 31.58 39.92 33.41 36.6 36.72C33.28 40.04 31.4599 44.45 31.4599 49.14V90.54C31.4499 90.85 31.4499 91.08 31.4599 91.24V95.64C31.4599 100.33 33.29 104.74 36.6 108.06C39.92 111.38 44.33 113.2 49.02 113.2C53.71 113.2 58.1199 111.37 61.4399 108.06C64.7599 104.74 66.58 100.33 66.58 95.64V76.37C68.9 76.2 71.09 76.06 73.09 75.92C74.86 75.8 76.5498 75.6899 78.1598 75.5699V95.63C78.1598 100.32 79.99 104.73 83.3 108.05C86.62 111.37 91.0299 113.19 95.7199 113.19C100.41 113.19 104.82 111.36 108.14 108.05C111.46 104.73 113.28 100.32 113.28 95.63V49.12C113.28 44.45 111.45 40.04 108.14 36.72ZM49.02 38.59C54.84 38.59 59.57 43.32 59.57 49.14V69.97C53.98 70.67 49.1398 71.9101 45.1298 73.6801C42.5798 74.8001 40.3599 76.1499 38.4699 77.6899V49.14C38.4799 43.33 43.21 38.59 49.02 38.59ZM49.02 106.2C43.2 106.2 38.4699 101.47 38.4699 95.65V90.67C38.5199 89.85 38.8598 87.4201 41.1498 84.8101C45.2698 80.1201 52.8 77.99 59.56 77.05V95.65C59.57 101.47 54.84 106.2 49.02 106.2ZM85.1699 49.14C85.1699 43.32 89.8999 38.59 95.7199 38.59C101.54 38.59 106.27 43.32 106.27 49.14V55.49C104.44 58.21 102.67 60.33 100.87 61.95C98.9 63.72 96.83 64.98 94.35 65.91C91.75 66.89 88.7699 67.48 85.1799 67.92V49.14H85.1699ZM95.7199 106.2C89.8999 106.2 85.1699 101.47 85.1699 95.65V74.97C94.1399 73.96 100.48 72.06 106.26 66.5V95.65C106.27 101.47 101.54 106.2 95.7199 106.2Z" fill="white"/>
<defs>
<linearGradient id="paint0_linear_1_3627" x1="17.9966" y1="136.18" x2="119.438" y2="17.1812" gradientUnits="userSpaceOnUse">
<stop offset="0.0487" stop-color="#02B4DB"/>
<stop offset="1" stop-color="#66F9BD"/>
</linearGradient>
</defs>
</svg>
