<svg width="206" height="205" viewBox="0 0 206 205" fill="none" xmlns="http://www.w3.org/2000/svg">
<path d="M154.026 153.422C182.213 125.234 182.213 79.5326 154.026 51.3448C125.838 23.157 80.1364 23.157 51.9486 51.3447C23.7609 79.5325 23.7609 125.234 51.9487 153.422C80.1364 181.61 125.838 181.609 154.026 153.422Z" fill="#ECEFF0"/>
<path d="M115.64 67.51L119.23 65.52C119.23 65.52 116.78 62.74 117.87 58.43C118.96 54.13 122.13 50.73 128.24 52.14C134.35 53.55 141.18 57.38 146.64 63.29C152.1 69.2 151.23 74.18 149 76.85C146.77 79.53 143.56 80.6899 139.24 79.4599C139.24 79.4599 137.44 83.88 137.24 86.93L115.64 67.51Z" fill="#571996"/>
<path d="M141.36 70.61C138.76 67.86 135.09 65.45 132.32 63.84C131.25 63.73 130.06 63.81 128.96 63.92C127.67 64.05 124.05 66.9101 122.89 68.4301C122.02 69.5701 122.56 71.7801 122.88 72.8001L135.78 83.0601C136.63 77.7901 141.36 70.61 141.36 70.61Z" fill="url(#paint0_linear_1_7219)"/>
<path d="M122.89 68.4201C124.05 66.9001 127.66 64.0501 128.96 63.9101C130.06 63.8001 131.25 63.72 132.32 63.83C130.05 62.51 128.38 61.72 128.38 61.72C123.61 65.78 117.72 68.6801 117.72 68.6801L122.88 72.7901C122.55 71.7701 122.02 69.5601 122.89 68.4201Z" fill="#8F7797"/>
<path d="M100.46 64.63C91.9801 64.63 84.0601 67 77.3101 71.11C64.4901 78.93 55.9401 93.0401 55.9401 109.15C55.9401 133.74 75.8701 153.67 100.46 153.67C111.96 153.67 122.45 149.31 130.35 142.14C139.33 133.99 144.98 122.23 144.98 109.15C144.98 84.5601 125.05 64.63 100.46 64.63Z" fill="#571996"/>
<path d="M142.36 109.15C142.36 86.0101 123.6 67.25 100.46 67.25C92.48 67.25 85.02 69.48 78.67 73.35C70.21 81.02 64.9 92.0901 64.9 104.4C64.9 127.54 83.66 146.3 106.8 146.3C114.78 146.3 122.24 144.07 128.59 140.2C137.05 132.54 142.36 121.46 142.36 109.15Z" fill="url(#paint1_linear_1_7219)"/>
<g opacity="0.57">
<path d="M142.49 108.98C142.49 93.47 133.66 78.8701 119.85 71.7701C113.83 68.6801 106.98 66.85 100.19 67.19C92.5901 67.57 82.5801 68.36 78.5901 76.76C91.2701 65.92 113.27 69.39 124.97 79.49C125.09 79.59 125.2 79.6901 125.32 79.7901C134.25 87.6901 139.42 99.2401 139.42 111.16C139.42 124.58 133.13 134.11 123.35 141.75C134.86 134.34 142.49 123.76 142.49 108.98Z" fill="url(#paint2_linear_1_7219)"/>
</g>
<path d="M64.9 104.4C64.9 92.0901 70.21 81.01 78.67 73.35C66.61 80.71 58.55 93.9901 58.55 109.15C58.55 132.29 77.31 151.05 100.45 151.05C111.28 151.05 121.15 146.94 128.59 140.2C122.24 144.07 114.78 146.3 106.8 146.3C83.67 146.3 64.9 127.54 64.9 104.4Z" fill="#89728E"/>
<path d="M113.45 90.1C117.134 90.1 120.12 87.1138 120.12 83.4301C120.12 79.7464 117.134 76.76 113.45 76.76C109.766 76.76 106.78 79.7464 106.78 83.4301C106.78 87.1138 109.766 90.1 113.45 90.1Z" fill="white"/>
<path d="M60.5401 108.79C60.5401 108.79 59.8501 123.77 70.1201 134.66C70.1201 134.66 79.8901 148.67 101.64 148.4V112.71L60.5401 108.79Z" fill="url(#paint3_linear_1_7219)"/>
<path d="M127.5 92.3801C127.5 93.9701 126.21 95.2501 124.63 95.2501C123.04 95.2501 121.76 93.9601 121.76 92.3801C121.76 90.8001 123.05 89.5101 124.63 89.5101C126.21 89.5001 127.5 90.7901 127.5 92.3801Z" fill="white"/>
<path d="M66.9901 117.54C66.9901 117.54 78.0101 148.32 101.63 148.41C125.25 148.5 140.29 126.9 140.31 109.24L66.9901 117.54Z" fill="url(#paint4_linear_1_7219)"/>
<path d="M136.79 109.63C136.56 126.95 122.72 147.85 100.98 148.39C101.19 148.4 101.41 148.4 101.63 148.4C125.25 148.49 140.29 126.89 140.31 109.23L136.79 109.63Z" fill="url(#paint5_linear_1_7219)"/>
<path d="M91.1601 105.22C90.5201 105.32 89.8901 105.4 89.2501 105.46C85.7301 105.8 81.8301 106.17 78.3801 105.25C74.1001 104.11 61.0501 102.7 60.5801 107.66C60.1101 112.62 62.7201 118.7 74.9701 121.44C87.2201 124.18 97.5201 125.86 116.73 118.96C135.94 112.07 135.33 113.27 137.88 112.2C140.42 111.13 143.9 104.95 132.33 102.72C120.75 100.49 115.46 99.3501 103.32 102.3C99.3301 103.27 95.2501 104.59 91.1601 105.22Z" fill="url(#paint6_linear_1_7219)"/>
<g opacity="0.29">
<path d="M123.17 127.75C123.17 125.81 121.6 124.24 119.66 124.24C119.11 124.24 118.58 124.37 118.12 124.6C117.2 125.23 116.6 126.29 116.6 127.49C116.6 129.43 118.17 131 120.11 131C120.66 131 121.19 130.87 121.65 130.64C122.57 130.01 123.17 128.95 123.17 127.75Z" fill="white"/>
</g>
<path opacity="0.35" d="M120.87 126.7C121.29 126.7 121.63 126.36 121.63 125.94C121.63 125.52 121.29 125.18 120.87 125.18C120.45 125.18 120.11 125.52 120.11 125.94C120.11 126.36 120.45 126.7 120.87 126.7Z" fill="white"/>
<path d="M120.11 131C118.17 131 116.6 129.43 116.6 127.49C116.6 126.29 117.2 125.23 118.12 124.6C116.96 125.17 116.15 126.37 116.15 127.75C116.15 129.69 117.72 131.26 119.66 131.26C120.4 131.26 121.08 131.03 121.65 130.64C121.19 130.87 120.66 131 120.11 131Z" fill="url(#paint7_linear_1_7219)"/>
<g opacity="0.29">
<path d="M110.71 137.38C110.71 136.23 109.78 135.29 108.62 135.29C108.29 135.29 107.98 135.37 107.7 135.5C107.15 135.88 106.8 136.51 106.8 137.22C106.8 138.37 107.73 139.31 108.89 139.31C109.22 139.31 109.53 139.23 109.81 139.1C110.36 138.72 110.71 138.09 110.71 137.38Z" fill="white"/>
</g>
<path opacity="0.35" d="M109.34 136.75C109.589 136.75 109.79 136.549 109.79 136.3C109.79 136.052 109.589 135.85 109.34 135.85C109.091 135.85 108.89 136.052 108.89 136.3C108.89 136.549 109.091 136.75 109.34 136.75Z" fill="white"/>
<path d="M108.9 139.31C107.75 139.31 106.81 138.38 106.81 137.22C106.81 136.51 107.17 135.88 107.71 135.5C107.02 135.84 106.54 136.55 106.54 137.37C106.54 138.52 107.47 139.46 108.63 139.46C109.07 139.46 109.48 139.32 109.81 139.09C109.53 139.23 109.22 139.31 108.9 139.31Z" fill="url(#paint8_linear_1_7219)"/>
<g opacity="0.29">
<path d="M99.8301 138.33C99.8301 137.14 98.8701 136.18 97.6801 136.18C97.3401 136.18 97.0201 136.26 96.7401 136.4C96.1801 136.79 95.8101 137.43 95.8101 138.17C95.8101 139.36 96.7701 140.32 97.9601 140.32C98.3001 140.32 98.6201 140.24 98.9001 140.1C99.4601 139.71 99.8301 139.06 99.8301 138.33Z" fill="white"/>
</g>
<path opacity="0.35" d="M98.8801 137.22C98.8801 137.48 98.6701 137.68 98.4201 137.68C98.1701 137.68 97.9601 137.47 97.9601 137.22C97.9601 136.96 98.1701 136.76 98.4201 136.76C98.6701 136.76 98.8801 136.97 98.8801 137.22Z" fill="white"/>
<path d="M97.9601 140.32C96.7701 140.32 95.81 139.36 95.81 138.17C95.81 137.44 96.1801 136.79 96.7401 136.4C96.0301 136.75 95.54 137.48 95.54 138.33C95.54 139.52 96.5 140.48 97.69 140.48C98.14 140.48 98.56 140.34 98.91 140.1C98.62 140.24 98.3001 140.32 97.9601 140.32Z" fill="url(#paint9_linear_1_7219)"/>
<g opacity="0.29">
<path d="M104.82 142.73C104.82 141.85 104.11 141.13 103.22 141.13C102.97 141.13 102.73 141.19 102.52 141.29C102.1 141.58 101.83 142.06 101.83 142.6C101.83 143.48 102.54 144.2 103.43 144.2C103.68 144.2 103.92 144.14 104.13 144.04C104.55 143.76 104.82 143.27 104.82 142.73Z" fill="white"/>
</g>
<path opacity="0.35" d="M103.77 142.25C103.958 142.25 104.11 142.098 104.11 141.91C104.11 141.722 103.958 141.57 103.77 141.57C103.582 141.57 103.43 141.722 103.43 141.91C103.43 142.098 103.582 142.25 103.77 142.25Z" fill="white"/>
<path d="M103.43 144.21C102.55 144.21 101.83 143.5 101.83 142.61C101.83 142.06 102.1 141.58 102.52 141.3C101.99 141.56 101.63 142.1 101.63 142.73C101.63 143.61 102.34 144.33 103.23 144.33C103.57 144.33 103.88 144.23 104.13 144.05C103.92 144.15 103.68 144.21 103.43 144.21Z" fill="url(#paint10_linear_1_7219)"/>
<g opacity="0.29">
<path d="M114.46 141.56C114.46 140.68 113.75 139.96 112.86 139.96C112.61 139.96 112.37 140.02 112.16 140.12C111.74 140.41 111.47 140.89 111.47 141.43C111.47 142.31 112.18 143.03 113.07 143.03C113.32 143.03 113.56 142.97 113.77 142.87C114.18 142.59 114.46 142.11 114.46 141.56Z" fill="white"/>
</g>
<path opacity="0.35" d="M113.41 141.08C113.598 141.08 113.75 140.928 113.75 140.74C113.75 140.552 113.598 140.4 113.41 140.4C113.222 140.4 113.07 140.552 113.07 140.74C113.07 140.928 113.222 141.08 113.41 141.08Z" fill="white"/>
<path d="M113.06 143.04C112.18 143.04 111.46 142.33 111.46 141.44C111.46 140.89 111.73 140.41 112.15 140.13C111.62 140.39 111.26 140.93 111.26 141.56C111.26 142.44 111.97 143.16 112.86 143.16C113.2 143.16 113.51 143.06 113.76 142.88C113.55 142.98 113.32 143.04 113.06 143.04Z" fill="url(#paint11_linear_1_7219)"/>
<g opacity="0.29">
<path d="M92.17 136.27C92.17 134.39 90.64 132.86 88.76 132.86C88.22 132.86 87.71 132.98 87.26 133.21C86.37 133.83 85.78 134.85 85.78 136.02C85.78 137.9 87.31 139.43 89.19 139.43C89.73 139.43 90.24 139.31 90.69 139.08C91.59 138.47 92.17 137.44 92.17 136.27Z" fill="white"/>
</g>
<path opacity="0.35" d="M89.9301 135.25C90.3387 135.25 90.6701 134.919 90.6701 134.51C90.6701 134.101 90.3387 133.77 89.9301 133.77C89.5214 133.77 89.1901 134.101 89.1901 134.51C89.1901 134.919 89.5214 135.25 89.9301 135.25Z" fill="white"/>
<path d="M89.1901 139.43C87.3101 139.43 85.7801 137.9 85.7801 136.02C85.7801 134.85 86.3701 133.82 87.2601 133.21C86.1301 133.77 85.3501 134.93 85.3501 136.28C85.3501 138.17 86.8801 139.69 88.7601 139.69C89.4801 139.69 90.1401 139.47 90.6901 139.09C90.2401 139.31 89.7301 139.43 89.1901 139.43Z" fill="url(#paint12_linear_1_7219)"/>
<path d="M134.66 78.4C134.6 78.4 134.54 78.39 134.48 78.38C134.03 78.28 133.74 77.83 133.84 77.38C134.82 72.92 137.68 69.9201 137.8 69.7901C138.12 69.4601 138.65 69.45 138.99 69.77C139.32 70.09 139.33 70.62 139.01 70.95C138.98 70.98 136.35 73.75 135.48 77.73C135.4 78.14 135.05 78.4 134.66 78.4Z" fill="url(#paint13_linear_1_7219)"/>
<path d="M123.73 62.71C123.73 62.71 125.67 61.3301 125.96 61.0401C125.96 61.0401 123.35 60.5 123.73 62.71Z" fill="#9A88A0"/>
<path d="M142.74 72.57C142.74 72.57 141.51 74.09 141.22 74.96C141.22 74.96 143.9 75.09 142.74 72.57Z" fill="#9A88A0"/>
<path d="M130.29 54.9301C130.29 54.9301 137.7 57.32 143.03 62.92C148.36 68.52 150.42 72.63 146.51 76.35L145.07 74.7L145.66 72.33C145.66 72.33 144.19 69.67 144.21 69.55C144.23 69.43 138.79 64.63 138.79 64.63C138.79 64.63 132.59 59.99 132.48 59.97C132.37 59.95 127.62 58.5 127.62 58.5L125.5 57.72L124.16 56.72L124.67 55.4301C124.67 55.4201 127.59 54.1901 130.29 54.9301Z" fill="url(#paint14_linear_1_7219)"/>
<path d="M139.97 77.49L140.21 76.95C140.21 76.95 144.27 77.5899 145.07 74.6899C145.87 71.7899 142.88 69.14 142.88 69.14C142.88 69.14 135.1 60.4299 125.96 58.6899C125.96 58.6899 120.36 58.11 121.88 63.77L121.08 64.33C121.08 64.33 118.67 61.74 120.61 57.15C122.55 52.56 128.95 54.43 130.29 54.92C130.29 54.92 125.05 54.99 125.96 56.79C126.87 58.6 132.38 58.4601 136.02 60.4301C139.66 62.3901 146.55 66.85 147.62 71.36C147.62 71.37 149.45 79.18 139.97 77.49Z" fill="#A88FAC"/>
<defs>
<linearGradient id="paint0_linear_1_7219" x1="123.052" y1="73.7781" x2="133.223" y2="73.4211" gradientUnits="userSpaceOnUse">
<stop stop-color="#9884C3"/>
<stop offset="1" stop-color="#B69AD4"/>
</linearGradient>
<linearGradient id="paint1_linear_1_7219" x1="76.2387" y1="129.291" x2="125.088" y2="89.1415" gradientUnits="userSpaceOnUse">
<stop stop-color="#726495"/>
<stop offset="1" stop-color="#F7ECFC"/>
</linearGradient>
<linearGradient id="paint2_linear_1_7219" x1="94.2817" y1="71.8427" x2="141.422" y2="127.847" gradientUnits="userSpaceOnUse">
<stop offset="0.0010549" stop-color="white"/>
<stop offset="1" stop-color="white"/>
</linearGradient>
<linearGradient id="paint3_linear_1_7219" x1="71.7523" y1="108.96" x2="97.8496" y2="136.396" gradientUnits="userSpaceOnUse">
<stop stop-color="#0502AB"/>
<stop offset="1" stop-color="#5E12BD"/>
</linearGradient>
<linearGradient id="paint4_linear_1_7219" x1="72.2537" y1="128.822" x2="135.096" y2="128.822" gradientUnits="userSpaceOnUse">
<stop stop-color="#1A07DC"/>
<stop offset="1" stop-color="#DB30C4"/>
</linearGradient>
<linearGradient id="paint5_linear_1_7219" x1="149.126" y1="95.4794" x2="110.314" y2="149.146" gradientUnits="userSpaceOnUse">
<stop offset="0.0010549" stop-color="white"/>
<stop offset="1" stop-color="white"/>
</linearGradient>
<linearGradient id="paint6_linear_1_7219" x1="66.365" y1="112.176" x2="136.32" y2="112.176" gradientUnits="userSpaceOnUse">
<stop stop-color="#05028D"/>
<stop offset="1" stop-color="#AB22BF"/>
</linearGradient>
<linearGradient id="paint7_linear_1_7219" x1="116.352" y1="126.089" x2="121.226" y2="131.057" gradientUnits="userSpaceOnUse">
<stop offset="1e-07" stop-color="white"/>
<stop offset="1" stop-color="white"/>
</linearGradient>
<linearGradient id="paint8_linear_1_7219" x1="106.659" y1="136.391" x2="109.558" y2="139.347" gradientUnits="userSpaceOnUse">
<stop offset="1e-07" stop-color="white"/>
<stop offset="1" stop-color="white"/>
</linearGradient>
<linearGradient id="paint9_linear_1_7219" x1="95.6576" y1="137.313" x2="98.64" y2="140.354" gradientUnits="userSpaceOnUse">
<stop offset="1e-07" stop-color="white"/>
<stop offset="1" stop-color="white"/>
</linearGradient>
<linearGradient id="paint10_linear_1_7219" x1="101.718" y1="141.973" x2="103.936" y2="144.233" gradientUnits="userSpaceOnUse">
<stop offset="1e-07" stop-color="white"/>
<stop offset="1" stop-color="white"/>
</linearGradient>
<linearGradient id="paint11_linear_1_7219" x1="111.354" y1="140.806" x2="113.572" y2="143.067" gradientUnits="userSpaceOnUse">
<stop offset="1e-07" stop-color="white"/>
<stop offset="1" stop-color="white"/>
</linearGradient>
<linearGradient id="paint12_linear_1_7219" x1="85.5361" y1="134.655" x2="90.2796" y2="139.491" gradientUnits="userSpaceOnUse">
<stop offset="1e-07" stop-color="white"/>
<stop offset="1" stop-color="white"/>
</linearGradient>
<linearGradient id="paint13_linear_1_7219" x1="138.093" y1="70.0678" x2="134.569" y2="78.1423" gradientUnits="userSpaceOnUse">
<stop offset="0.0010549" stop-color="white"/>
<stop offset="1" stop-color="white"/>
</linearGradient>
<linearGradient id="paint14_linear_1_7219" x1="124.158" y1="65.5175" x2="148.538" y2="65.5175" gradientUnits="userSpaceOnUse">
<stop stop-color="#9884C3"/>
<stop offset="1" stop-color="#B69AD4"/>
</linearGradient>
</defs>
</svg>
