<svg width="175" height="174" viewBox="0 0 175 174" fill="none" xmlns="http://www.w3.org/2000/svg">
<path d="M157.845 103.667C167.005 64.8714 142.982 25.9953 104.186 16.8345C65.3906 7.67382 26.5143 31.6975 17.3536 70.4931C8.19288 109.289 32.2167 148.165 71.0122 157.326C109.808 166.487 148.684 142.463 157.845 103.667Z" fill="#F4F4F4"/>
<path d="M62.8798 121.87C62.8098 121.83 62.7398 121.79 62.6698 121.76C61.9698 120.82 61.25 119.89 60.57 118.93C59.01 116.72 57.8199 114.3 56.6999 111.84C56.2699 110.58 55.8098 109.32 55.4098 108.05C54.4298 104.91 53.83 101.69 53.62 98.4101C53.51 96.6201 53.52 94.8101 53.61 93.0201C53.71 91.2001 53.8699 89.3602 54.1899 87.5602C54.9999 82.9602 56.5498 78.6001 58.8798 74.5301C61.4998 69.9601 64.9 66.0701 69.04 62.8201C73.39 59.4001 78.23 56.8801 83.54 55.3501C85.8 54.7001 88.1299 54.2801 90.4499 53.8501C91.7099 53.6201 92.9999 53.5201 94.2699 53.4901C96.1399 53.4501 98.0098 53.5001 99.8798 53.5801C100.99 53.6301 102.1 53.8201 103.21 53.9501C103.31 53.9901 103.42 54.0301 103.52 54.0701C103.63 54.1401 103.73 54.2101 103.84 54.2701C106.45 55.6801 108.89 57.3501 111.07 59.3601C114.02 62.0801 116.36 65.2401 118.03 68.9101C119.85 72.9001 120.72 77.1001 120.95 81.4501C121.05 83.2801 120.97 85.1301 120.84 86.9501C120.72 88.5501 120.5 90.1501 120.18 91.7201C119.39 95.6701 117.9 99.3701 115.85 102.84C114.69 104.8 113.4 106.68 111.85 108.36C110.48 109.84 108.98 111.2 107.53 112.6C107.08 113.04 106.61 113.46 106.15 113.9L106.14 113.91C105.99 114.01 105.85 114.11 105.7 114.22L105.68 114.24C105.55 114.32 105.42 114.41 105.29 114.49C97.58 119.93 88.97 122.62 79.58 122.85C77.1 122.91 74.6098 122.82 72.1298 122.73C70.4198 122.67 68.7199 122.49 67.0199 122.33C65.6399 122.21 64.2598 122.03 62.8798 121.87ZM88.8898 60.0101C87.5298 60.1701 85.9699 60.2301 84.4699 60.5401C77.0699 62.0301 71.12 65.8902 66.81 72.0502C61.74 79.2902 60.33 87.2402 63.31 95.6702C67.57 107.76 80.18 114.74 92.82 112.19C104.57 109.82 112.55 100.17 112.71 88.2001C112.78 83.0601 111.72 78.1501 109.62 73.4901C105.62 64.6501 98.5798 60.4601 88.8898 60.0101Z" fill="#015120"/>
<path d="M62.8799 121.87C64.2699 122.03 65.65 122.21 67.04 122.34C68.74 122.5 70.4399 122.67 72.1499 122.74C74.6299 122.83 77.1201 122.92 79.6001 122.86C88.9901 122.63 97.6001 119.94 105.31 114.5C105.44 114.42 105.57 114.33 105.7 114.25L105.72 114.23C105.87 114.13 106.01 114.03 106.16 113.92L106.17 113.91C106.33 113.82 106.5 113.75 106.65 113.65C109.37 111.82 111.89 109.75 114.28 107.51C117.26 104.72 119.97 101.67 122.48 98.45C125.88 94.07 128.96 89.4901 131.41 84.5101C132.53 82.2401 133.46 79.8801 134.47 77.5601C136.43 80.7301 137.85 84.1101 138.54 87.7801C139.12 90.8501 139.06 93.8901 138.04 96.8701C136.7 100.79 134.08 103.69 130.62 105.81C128.78 106.94 126.8 107.84 124.84 108.76C118.7 111.62 113.24 115.46 108.18 119.93C105.06 122.68 101.98 125.47 98.8201 128.16C96.5501 130.08 94.0399 131.64 91.1799 132.58C87.4899 133.79 83.7901 133.62 80.1001 132.58C73.6701 130.77 68.01 127.66 63.5 122.62C63.27 122.4 63.0799 122.13 62.8799 121.87Z" fill="#0195D9"/>
<path d="M56.6999 111.84C57.8199 114.3 59.01 116.71 60.57 118.93C61.25 119.89 61.9699 120.82 62.6699 121.76C61.1799 121.47 59.6699 121.24 58.1899 120.88C54.7199 120.05 51.3901 118.86 48.3601 116.94C44.1001 114.25 41.34 110.52 40.51 105.48C40.08 102.91 40.1998 100.35 40.6298 97.7901C41.2498 94.0501 42.4599 90.4901 43.9899 87.0301C45.9899 82.5201 47.3 77.8101 48.31 73.0001C49.2 68.7401 50.1 64.4801 51.08 60.2401C51.51 58.3801 52.2899 56.62 53.2299 54.94C55.2499 51.37 58.3199 49.1601 62.2199 48.0401C65.6899 47.0401 69.24 46.8501 72.82 47.0101C71.28 48.6401 69.7199 50.2501 68.1899 51.8901C65.7799 54.4801 63.6299 57.27 61.6599 60.2C57.9399 65.74 55 71.6601 53.04 78.0501C51.7 82.4201 50.85 86.88 50.76 91.45C50.71 93.84 50.8899 96.2601 51.1999 98.6301C51.6899 102.31 52.85 105.82 54.75 109.04C55.34 110.03 56.0499 110.92 56.6999 111.84Z" fill="#B1D134"/>
<path d="M103.51 54.0901C103.41 54.0501 103.3 54.0101 103.2 53.9701C101.69 53.2701 100.21 52.5001 98.6699 51.8801C95.4999 50.6001 92.2301 49.5901 88.8601 48.9801C85.7501 48.4201 82.63 47.8901 79.5 47.4801C77.33 47.2001 75.1199 47.1401 72.9299 46.9801C76.3499 43.7901 80.1699 41.3102 84.8799 40.5502C88.4399 39.9702 91.8501 40.5801 95.0801 42.1101C96.4201 42.7401 97.75 43.4502 98.96 44.3002C103.61 47.5902 108.8 49.5401 114.34 50.6301C118.59 51.4701 122.87 52.1801 127.13 52.9601C132.18 53.8801 135.59 57.4001 136.42 62.4501C137.08 66.4401 136.52 70.3201 135.48 74.1701C135.18 75.2601 134.78 76.3301 134.42 77.4001C134.38 77.3601 134.34 77.3201 134.31 77.2801C130.68 71.3301 125.97 66.3701 120.46 62.1601C116.87 59.4201 113.12 56.9301 108.8 55.4801C107.09 54.9001 105.29 54.5401 103.51 54.0901Z" fill="#EBE711"/>
<path d="M72.94 46.98C75.13 47.14 77.3401 47.19 79.5101 47.48C82.6401 47.89 85.7602 48.41 88.8702 48.98C92.2402 49.59 95.5 50.6001 98.68 51.8801C100.22 52.5001 101.7 53.27 103.21 53.97C102.1 53.84 101 53.65 99.88 53.6C98.01 53.52 96.1401 53.4701 94.2701 53.5101C92.9901 53.5401 91.7 53.6401 90.45 53.8701C88.13 54.3001 85.8001 54.7201 83.5401 55.3701C78.2201 56.9001 73.3901 59.42 69.0401 62.84C64.9101 66.09 61.5 69.9801 58.88 74.5501C56.55 78.6201 55 82.97 54.19 87.58C53.87 89.38 53.7102 91.2101 53.6102 93.0401C53.5102 94.8301 53.5002 96.6401 53.6202 98.4301C53.8302 101.71 54.43 104.93 55.41 108.07C55.81 109.34 56.27 110.6 56.7 111.86C56.05 110.93 55.3401 110.04 54.7701 109.07C52.8801 105.85 51.7201 102.35 51.2201 98.6601C50.9001 96.2901 50.7301 93.87 50.7801 91.48C50.8701 86.91 51.7201 82.45 53.0601 78.08C55.0201 71.69 57.95 65.77 61.68 60.23C63.65 57.3 65.8 54.5101 68.21 51.9201C69.74 50.2801 71.2902 48.6701 72.8402 47.0401C72.8602 47.0101 72.9 47 72.94 46.98Z" fill="#4DB748"/>
<path d="M103.51 54.09C105.28 54.55 107.09 54.9 108.82 55.48C113.14 56.93 116.89 59.4201 120.48 62.1601C125.99 66.3701 130.7 71.3301 134.33 77.2801C134.36 77.3301 134.4 77.3601 134.44 77.4001C134.45 77.4601 134.45 77.51 134.46 77.57C133.45 79.89 132.52 82.2501 131.4 84.5201C128.95 89.5001 125.87 94.08 122.47 98.46C119.96 101.69 117.25 104.73 114.27 107.52C111.88 109.76 109.36 111.83 106.64 113.66C106.49 113.76 106.32 113.84 106.16 113.92C106.62 113.49 107.09 113.06 107.54 112.62C108.99 111.21 110.49 109.86 111.86 108.38C113.4 106.71 114.7 104.83 115.86 102.86C117.91 99.39 119.4 95.6901 120.19 91.7401C120.5 90.1701 120.73 88.57 120.85 86.97C120.98 85.14 121.05 83.29 120.96 81.47C120.73 77.13 119.86 72.9201 118.04 68.9301C116.37 65.2701 114.03 62.1001 111.08 59.3801C108.9 57.3701 106.46 55.7101 103.85 54.2901C103.73 54.2301 103.62 54.15 103.51 54.09Z" fill="#01845D"/>
<path d="M106.15 113.93C106 114.03 105.86 114.13 105.71 114.24C105.86 114.13 106.01 114.03 106.15 113.93Z" fill="#01845D"/>
<path d="M105.69 114.25C105.56 114.33 105.43 114.42 105.3 114.5C105.43 114.41 105.56 114.33 105.69 114.25Z" fill="#01845D"/>
</svg>
