<svg width="205" height="205" viewBox="0 0 205 205" fill="none" xmlns="http://www.w3.org/2000/svg">
<path d="M153.905 153.558C182.093 125.37 182.093 79.6687 153.905 51.4809C125.717 23.2931 80.0156 23.2931 51.8278 51.4808C23.64 79.6686 23.64 125.37 51.8278 153.558C80.0156 181.746 125.717 181.746 153.905 153.558Z" fill="#F4F4F4"/>
<path d="M157.78 108.78C157.59 112.22 156.51 115.34 154.48 118.13C152.59 120.73 150.16 122.71 147.37 124.26C145.91 125.07 144.38 125.76 142.85 126.46C139.19 128.14 135.69 130.1 132.36 132.37C128.86 134.76 125.59 137.45 122.44 140.27C119.87 142.57 117.32 144.89 114.72 147.15C112.48 149.1 110.09 150.84 107.4 152.14C105.12 153.24 102.72 153.92 100.19 154.06C100.12 154.06 100.05 154.09 99.99 154.11C99.3 154.11 98.6 154.11 97.91 154.11C97.84 154.09 97.78 154.07 97.71 154.06C96.55 153.9 95.37 153.79 94.22 153.57C91.58 153.05 89.08 152.11 86.62 151.04C82.21 149.12 78.31 146.48 74.98 143C74.44 142.44 73.9401 141.83 73.4301 141.24C73.9101 141.3 74.38 141.35 74.86 141.41C75.99 141.55 77.12 141.71 78.25 141.83C79.22 141.94 80.2 142.03 81.17 142.1C82.41 142.19 83.65 142.27 84.89 142.32C85.89 142.36 86.89 142.36 87.89 142.38C87.97 142.4 88.04 142.43 88.12 142.43C89.42 142.43 90.73 142.43 92.03 142.43C92.11 142.43 92.18 142.4 92.26 142.38C93.06 142.34 93.86 142.33 94.66 142.26C95.89 142.16 97.12 142.06 98.34 141.87C99.8 141.65 101.25 141.38 102.7 141.07C104.65 140.65 106.56 140.1 108.42 139.38C109.96 138.78 111.5 138.15 113 137.47C114.12 136.96 115.21 136.39 116.28 135.78C117.42 135.13 118.52 134.42 119.63 133.73C119.69 133.69 119.75 133.66 119.81 133.62C119.82 133.62 119.83 133.62 119.84 133.62C120.3 133.31 120.76 133 121.23 132.69C121.32 132.65 121.41 132.61 121.49 132.56C123.44 131.23 125.35 129.85 127.15 128.32C128.44 127.22 129.74 126.12 130.98 124.97C132.1 123.92 133.16 122.8 134.22 121.68C135.02 120.84 135.79 119.97 136.55 119.08C137.55 117.91 138.55 116.75 139.48 115.54C140.79 113.85 142.09 112.14 143.31 110.38C144.38 108.84 145.38 107.23 146.34 105.62C147.25 104.09 148.11 102.53 148.95 100.95C149.55 99.82 150.09 98.6701 150.62 97.5101C151.26 96.0901 151.86 94.66 152.47 93.23C152.63 92.87 152.79 92.5 152.95 92.14C152.98 92.18 153.02 92.2301 153.04 92.2701C154.55 94.8501 155.81 97.55 156.68 100.42C157.27 102.38 157.67 104.37 157.78 106.42C157.78 107.21 157.78 108 157.78 108.78Z" fill="#ECE60A"/>
<path d="M48.36 121.48C48.36 120.06 48.36 118.63 48.36 117.21C48.38 117.15 48.4 117.09 48.4 117.03C48.58 115.8 48.7099 114.55 48.9399 113.33C49.4799 110.51 50.34 107.79 51.4 105.13C52.2 103.12 53.09 101.14 53.87 99.1201C55.62 94.5901 56.7 89.8799 57.66 85.1399C58.3 81.9499 58.93 78.75 59.64 75.57C60.24 72.86 61.08 70.22 62.37 67.75C63.36 65.86 64.61 64.17 66.24 62.77C68.16 61.13 70.37 60.06 72.78 59.36C74.72 58.8 76.7 58.47 78.72 58.32C80.66 58.17 82.59 58.08 84.53 58.23C84.53 58.26 84.53 58.29 84.53 58.33C84.49 58.35 84.46 58.37 84.42 58.38C84.4 58.4 84.38 58.4201 84.37 58.4301C84.24 58.5601 84.11 58.6901 83.99 58.8101C83.97 58.8301 83.9501 58.85 83.9301 58.87C83.9101 58.89 83.89 58.9101 83.87 58.9301C83.81 58.9901 83.76 59.04 83.7 59.1C83.68 59.12 83.66 59.14 83.64 59.16C83.62 59.18 83.6 59.2 83.58 59.22C83.56 59.24 83.54 59.26 83.52 59.28C83.5 59.3 83.48 59.32 83.46 59.34C83.44 59.36 83.42 59.38 83.4 59.4C83.38 59.42 83.36 59.44 83.34 59.46C83.3 59.48 83.26 59.5 83.23 59.52C83.21 59.54 83.19 59.56 83.17 59.58C83.15 59.6 83.13 59.62 83.11 59.64C83.09 59.66 83.07 59.68 83.05 59.7C83.03 59.72 83.01 59.74 82.99 59.76C82.97 59.78 82.9501 59.8 82.9301 59.82C82.9101 59.84 82.89 59.86 82.87 59.88C82.85 59.9 82.8301 59.92 82.8101 59.94C82.7901 59.96 82.77 59.98 82.75 60C82.73 60.02 82.7099 60.0401 82.6899 60.0601C82.6699 60.0801 82.65 60.1 82.63 60.12C82.61 60.14 82.5899 60.1601 82.5699 60.1801C82.5499 60.2001 82.53 60.22 82.51 60.24C82.49 60.26 82.47 60.2801 82.45 60.3001C82.43 60.3201 82.41 60.34 82.39 60.36C82.37 60.38 82.35 60.4001 82.33 60.4201C82.31 60.4401 82.29 60.46 82.27 60.48C82.25 60.5 82.23 60.52 82.21 60.54C82.19 60.56 82.17 60.58 82.15 60.6C82.08 60.69 82.0001 60.78 81.9301 60.88C81.9101 60.9 81.89 60.92 81.87 60.94C81.83 60.98 81.79 61.0201 81.76 61.0501C81.74 61.0701 81.72 61.09 81.7 61.11H81.71C81.67 61.13 81.63 61.1501 81.6 61.1701C81.58 61.2101 81.56 61.25 81.54 61.28V61.27C81.52 61.29 81.5 61.31 81.48 61.33C81.46 61.35 81.44 61.37 81.42 61.39C81.39 61.41 81.36 61.43 81.33 61.45C80.7 62.14 80.0601 62.82 79.4301 63.51C78.9201 64.07 78.41 64.62 77.92 65.19C77.17 66.08 76.43 66.97 75.72 67.89C74.73 69.17 73.74 70.46 72.8 71.79C71.92 73.04 71.06 74.32 70.27 75.64C69.2 77.42 68.17 79.2101 67.2 81.0501C66.42 82.5201 65.7199 84.0401 65.0699 85.5701C64.3399 87.3001 63.66 89.0601 63.03 90.8301C62.24 93.0701 61.59 95.36 61.11 97.7C60.87 98.87 60.64 100.04 60.46 101.22C60.3 102.25 60.2 103.29 60.09 104.32C60.03 104.95 60 105.58 59.96 106.21C59.95 106.33 59.92 106.44 59.91 106.56C59.89 106.65 59.86 106.73 59.86 106.82C59.85 107.25 59.86 107.67 59.86 108.1C59.84 108.15 59.8101 108.2 59.8101 108.25C59.8201 109.32 59.84 110.39 59.87 111.46C59.87 111.56 59.94 111.66 59.97 111.76C59.99 112.04 60 112.33 60.03 112.61C60.06 113 60.09 113.39 60.14 113.78C60.22 114.49 60.3 115.21 60.41 115.92C60.61 117.23 60.88 118.53 61.24 119.81C61.39 120.35 61.54 120.9 61.73 121.42C62.06 122.36 62.41 123.29 62.79 124.21C63.09 124.93 63.41 125.63 63.77 126.32C64.12 127 64.53 127.65 64.91 128.31C64.94 128.36 64.97 128.4 65.01 128.45C65.03 128.47 65.0499 128.49 65.0699 128.51C65.0899 128.55 65.11 128.58 65.13 128.62C65.15 128.64 65.1699 128.66 65.1899 128.68C65.2099 128.72 65.23 128.75 65.25 128.79C65.27 128.81 65.2901 128.83 65.3101 128.85C65.3301 128.89 65.35 128.92 65.37 128.96C65.39 128.98 65.4101 129 65.4301 129.02C65.4501 129.06 65.47 129.09 65.49 129.13C65.51 129.15 65.53 129.17 65.55 129.19C65.57 129.23 65.59 129.26 65.61 129.3C65.64 129.33 65.67 129.36 65.7 129.39C66 129.79 66.29 130.2 66.59 130.6C66.68 130.79 66.78 130.98 66.87 131.17C66.93 131.3 66.98 131.43 67.04 131.56C67.09 131.64 67.14 131.73 67.2 131.81C67.26 131.96 67.31 132.11 67.37 132.25C67.46 132.44 67.56 132.63 67.65 132.82C67.67 132.86 67.69 132.9 67.71 132.93C67.73 132.97 67.75 133 67.77 133.04C67.79 133.08 67.81 133.12 67.83 133.15C67.85 133.19 67.87 133.23 67.89 133.26C67.91 133.3 67.93 133.33 67.95 133.37C67.97 133.41 67.99 133.44 68.01 133.48C68.03 133.52 68.0499 133.56 68.0699 133.59C68.0899 133.63 68.11 133.66 68.13 133.7C68.21 133.85 68.3 134.01 68.38 134.16C68.72 134.77 69.03 135.39 69.41 135.98C70.11 137.09 70.83 138.19 71.59 139.27C72.08 139.97 72.6499 140.62 73.1899 141.3C73.1299 141.33 73.07 141.4 73.02 141.4C72.63 141.34 72.25 141.27 71.86 141.2C68.8 140.64 65.79 139.89 62.88 138.79C59.99 137.69 57.27 136.29 54.88 134.31C51.38 131.41 49.25 127.72 48.53 123.23C48.5 122.48 48.43 121.98 48.36 121.48Z" fill="#EEE712"/>
<path d="M157.78 106.42C157.8 106.43 157.81 106.43 157.83 106.42C157.83 107.2 157.83 107.99 157.83 108.77H157.8L157.77 108.78C157.78 108 157.78 107.21 157.78 106.42Z" fill="#F3EF66"/>
<path d="M101.73 50.82C101.73 50.84 101.73 50.8501 101.74 50.8701C101.06 50.8701 100.38 50.8701 99.7 50.8701C99.71 50.8501 99.71 50.84 99.7 50.82C100.38 50.82 101.05 50.82 101.73 50.82Z" fill="#F5F280"/>
<path d="M73.4201 141.24C73.3601 141.18 73.3 141.12 73.23 141.06C72.69 140.39 72.12 139.74 71.63 139.03C70.87 137.95 70.16 136.85 69.45 135.74C69.08 135.15 68.7601 134.53 68.4201 133.92C68.3401 133.77 68.2501 133.61 68.1701 133.46C68.1501 133.42 68.13 133.38 68.11 133.35C68.09 133.31 68.0701 133.27 68.0501 133.24C68.0301 133.2 68.01 133.17 67.99 133.13C67.97 133.09 67.9501 133.05 67.9301 133.02C67.9101 132.98 67.89 132.94 67.87 132.91C67.85 132.87 67.8301 132.84 67.8101 132.8C67.7901 132.76 67.77 132.72 67.75 132.69C67.73 132.65 67.71 132.62 67.69 132.58C67.6 132.39 67.5001 132.2 67.4101 132.01C67.3501 131.86 67.3 131.71 67.24 131.57C67.19 131.49 67.14 131.4 67.08 131.32C67.02 131.19 66.9701 131.06 66.9101 130.93C66.8401 130.74 66.76 130.55 66.69 130.37C66.68 130.33 66.6801 130.28 66.6701 130.24C65.9001 128.39 65.22 126.51 64.72 124.57C64.34 123.09 63.98 121.6 63.7 120.09C63.46 118.79 63.32 117.47 63.2 116.16C63.08 114.95 63.01 113.73 62.99 112.52C62.97 111.36 63.03 110.19 63.09 109.03C63.14 108.1 63.2 107.16 63.32 106.24C63.44 105.23 63.6301 104.22 63.8001 103.21C64.1201 101.34 64.59 99.5 65.15 97.69C65.77 95.72 66.5 93.7899 67.37 91.9099C68.18 90.1699 69.05 88.4501 70.11 86.8501C70.93 85.6201 71.79 84.41 72.7 83.25C73.54 82.17 74.46 81.1499 75.38 80.1399C75.98 79.4799 76.6401 78.87 77.3001 78.27C78.0701 77.56 78.8301 76.84 79.6601 76.21C80.9901 75.19 82.34 74.18 83.75 73.27C85.24 72.31 86.78 71.43 88.36 70.62C89.77 69.9 91.25 69.3 92.73 68.69C94.84 67.83 97.02 67.1901 99.23 66.6601C101.43 66.1301 103.65 65.7601 105.9 65.5401C107.08 65.4201 108.27 65.35 109.46 65.32C110.58 65.29 111.7 65.34 112.82 65.37C113.36 65.39 113.91 65.42 114.45 65.48C115.44 65.59 116.43 65.72 117.41 65.86C117.92 65.93 118.43 65.9901 118.89 66.2801C120.19 67.0901 121.52 67.86 122.81 68.7C124.37 69.71 125.8 70.8901 127.15 72.1601C128.41 73.3401 129.59 74.61 130.65 75.98C131.98 77.68 133.14 79.5 134.11 81.43C135.06 83.3 135.82 85.25 136.39 87.27C136.71 88.41 137.01 89.57 137.23 90.73C137.48 92.1 137.65 93.4901 137.79 94.8701C137.91 95.9801 137.94 97.1 138.02 98.21C138.02 98.87 138.02 99.52 138.02 100.18C138 100.37 137.98 100.56 137.97 100.75C137.9 101.74 137.85 102.74 137.74 103.73C137.64 104.67 137.53 105.62 137.34 106.55C137.05 107.95 136.71 109.34 136.33 110.73C135.73 112.95 134.88 115.08 133.89 117.14C132.83 119.35 131.57 121.45 130.14 123.44C128.94 125.11 127.62 126.68 126.2 128.16C125.47 128.92 124.68 129.63 123.91 130.35C123.51 130.72 123.08 131.06 122.66 131.4C122.15 131.82 121.63 132.22 121.11 132.64C120.84 132.83 120.56 133.01 120.3 133.21C120.12 133.34 119.96 133.49 119.79 133.63C119.78 133.63 119.77 133.63 119.76 133.63C119.7 133.67 119.64 133.7 119.58 133.74C118.46 134.43 117.37 135.14 116.23 135.79C115.16 136.4 114.07 136.97 112.95 137.48C111.44 138.16 109.91 138.8 108.37 139.39C106.51 140.11 104.6 140.66 102.65 141.08C101.21 141.39 99.7501 141.66 98.2901 141.88C97.0701 142.06 95.84 142.16 94.61 142.27C93.81 142.34 93.01 142.35 92.21 142.39C90.75 142.39 89.29 142.39 87.83 142.39C86.83 142.37 85.83 142.37 84.83 142.33C83.59 142.28 82.35 142.2 81.11 142.11C80.13 142.04 79.16 141.95 78.19 141.84C77.06 141.71 75.9301 141.56 74.8001 141.42C74.3701 141.35 73.8901 141.29 73.4201 141.24ZM72.2901 103.24C72.3101 103.64 72.34 104.34 72.39 105.04C72.55 107.41 73.03 109.71 73.82 111.95C76.09 118.34 80.14 123.31 85.88 126.88C89.7 129.25 93.88 130.62 98.37 131.02C100.9 131.25 103.42 131.15 105.92 130.71C109.65 130.05 113.12 128.71 116.33 126.69C119.84 124.47 122.73 121.63 124.88 118.07C127.21 114.2 128.4 109.97 128.71 105.49C128.9 102.84 128.75 100.21 128.32 97.5901C127.69 93.7301 126.53 90.03 124.83 86.51C122.87 82.46 120.03 79.17 116.24 76.73C111.68 73.81 106.67 72.58 101.28 72.82C98.53 72.94 95.85 73.45 93.27 74.39C86.23 76.93 80.65 81.34 76.69 87.71C73.79 92.35 72.3301 97.44 72.2901 103.24Z" fill="#CBA727"/>
<path d="M121.16 132.64C121.68 132.23 122.2 131.82 122.71 131.4C123.13 131.06 123.56 130.72 123.96 130.35C124.74 129.63 125.52 128.92 126.25 128.16C127.68 126.68 129 125.11 130.19 123.44C131.62 121.45 132.87 119.35 133.94 117.14C134.93 115.07 135.78 112.94 136.38 110.73C136.75 109.35 137.09 107.95 137.39 106.55C137.58 105.62 137.69 104.67 137.79 103.73C137.9 102.74 137.94 101.74 138.02 100.75C138.03 100.56 138.05 100.37 138.07 100.18C138.09 100.1 138.12 100.03 138.12 99.95C138.12 99.45 138.12 98.94 138.12 98.44C138.12 98.36 138.09 98.29 138.07 98.21C138 97.1 137.96 95.9802 137.84 94.8702C137.69 93.4802 137.52 92.1 137.28 90.73C137.07 89.56 136.77 88.4101 136.44 87.2701C135.87 85.2501 135.1 83.3 134.16 81.43C133.19 79.5 132.03 77.69 130.7 75.98C129.63 74.61 128.46 73.3501 127.2 72.1601C125.85 70.8901 124.42 69.71 122.86 68.7C121.57 67.86 120.24 67.0901 118.94 66.2801C118.48 66.0001 117.97 65.94 117.46 65.86C116.47 65.72 115.49 65.59 114.5 65.48C113.96 65.42 113.42 65.3801 112.87 65.3701C111.75 65.3401 110.63 65.29 109.51 65.32C108.32 65.35 107.13 65.4201 105.95 65.5401C103.7 65.7601 101.48 66.1301 99.28 66.6601C97.07 67.2001 94.89 67.83 92.78 68.69C91.31 69.29 89.83 69.9001 88.41 70.6201C86.83 71.4301 85.29 72.3101 83.8 73.2701C82.39 74.1801 81.04 75.19 79.71 76.21C78.88 76.84 78.12 77.5701 77.35 78.2701C76.69 78.8701 76.0301 79.48 75.4301 80.14C74.5101 81.15 73.59 82.1801 72.75 83.2501C71.84 84.4101 70.98 85.6202 70.16 86.8502C69.1 88.4502 68.23 90.17 67.42 91.91C66.54 93.78 65.82 95.71 65.2 97.69C64.63 99.5 64.16 101.34 63.85 103.21C63.68 104.22 63.5 105.23 63.37 106.24C63.26 107.17 63.19 108.1 63.14 109.03C63.08 110.19 63.02 111.36 63.04 112.52C63.06 113.73 63.14 114.95 63.25 116.16C63.38 117.47 63.51 118.79 63.75 120.09C64.03 121.59 64.39 123.09 64.77 124.57C65.27 126.51 65.95 128.39 66.72 130.24C66.74 130.28 66.74 130.33 66.74 130.37C66.72 130.37 66.7001 130.37 66.6801 130.36C66.3801 129.96 66.09 129.55 65.79 129.15C65.76 129.12 65.73 129.09 65.7 129.06C65.68 129.02 65.66 128.99 65.64 128.95C65.62 128.93 65.6 128.91 65.58 128.89C65.56 128.85 65.54 128.82 65.52 128.78C65.5 128.76 65.48 128.74 65.46 128.72C65.44 128.68 65.42 128.65 65.4 128.61C65.38 128.59 65.36 128.57 65.34 128.55C65.32 128.51 65.3 128.48 65.28 128.44C65.26 128.42 65.24 128.4 65.22 128.38C65.2 128.34 65.18 128.31 65.16 128.27C65.14 128.25 65.12 128.23 65.1 128.21C65.07 128.16 65.04 128.12 65 128.07C64.62 127.41 64.21 126.76 63.86 126.08C63.5 125.39 63.17 124.69 62.88 123.97C62.5 123.05 62.1599 122.12 61.8199 121.18C61.6299 120.65 61.49 120.11 61.33 119.57C60.97 118.29 60.7 116.99 60.5 115.68C60.39 114.97 60.31 114.26 60.23 113.54C60.18 113.15 60.15 112.76 60.12 112.37C60.1 112.09 60.0801 111.8 60.0601 111.52C60.0201 110.33 59.99 109.14 59.95 107.96C59.97 107.88 60 107.79 60 107.71C60.01 107.25 60 106.79 60 106.33C60.02 106.21 60.05 106.1 60.05 105.98C60.1 105.35 60.1201 104.72 60.1801 104.09C60.2901 103.05 60.39 102.02 60.55 100.99C60.73 99.8101 60.96 98.64 61.2 97.47C61.69 95.14 62.33 92.8502 63.12 90.6002C63.75 88.8302 64.43 87.0701 65.16 85.3401C65.81 83.8101 66.51 82.2901 67.29 80.8201C68.26 78.9901 69.29 77.1901 70.36 75.4101C71.15 74.0901 72.01 72.8201 72.89 71.5601C73.82 70.2301 74.8101 68.9401 75.8101 67.6601C76.5201 66.7401 77.27 65.85 78.01 64.96C78.5 64.38 79.01 63.8301 79.52 63.2801C80.15 62.5901 80.78 61.9 81.42 61.22C81.45 61.2 81.48 61.1801 81.51 61.1601C81.53 61.1401 81.5499 61.12 81.5699 61.1C81.5899 61.08 81.61 61.0601 81.63 61.0401V61.0501C81.65 61.0101 81.6699 60.97 81.6899 60.94C81.7299 60.92 81.76 60.9001 81.8 60.8801H81.79C81.81 60.8601 81.83 60.84 81.85 60.82C81.89 60.78 81.93 60.74 81.96 60.71C81.98 60.69 82 60.6701 82.02 60.6501C82.09 60.5601 82.17 60.4701 82.24 60.3701C82.26 60.3501 82.28 60.3301 82.3 60.3101C82.32 60.2901 82.34 60.2701 82.36 60.2501C82.38 60.2301 82.4 60.21 82.42 60.19C82.44 60.17 82.46 60.1501 82.48 60.1301C82.5 60.1101 82.52 60.09 82.54 60.07C82.56 60.05 82.58 60.0301 82.6 60.0101C82.62 59.9901 82.64 59.97 82.66 59.95C82.68 59.93 82.7 59.9101 82.72 59.8901C82.74 59.8701 82.76 59.85 82.78 59.83C82.8 59.81 82.82 59.7901 82.84 59.7701C82.86 59.7501 82.88 59.73 82.9 59.71C82.92 59.69 82.94 59.6701 82.96 59.6501C82.98 59.6301 83 59.61 83.02 59.59C83.04 59.57 83.06 59.5501 83.08 59.5301C83.1 59.5101 83.12 59.49 83.14 59.47C83.16 59.45 83.18 59.4301 83.2 59.4101C83.22 59.3901 83.24 59.37 83.26 59.35C83.28 59.33 83.2999 59.3101 83.3199 59.2901C83.3599 59.2701 83.3901 59.25 83.4301 59.23C83.4501 59.21 83.47 59.1901 83.49 59.1701C83.51 59.1501 83.53 59.13 83.55 59.11C83.57 59.09 83.59 59.0701 83.61 59.0501C83.63 59.0301 83.65 59.0101 83.67 58.9901C83.69 58.9701 83.71 58.9501 83.73 58.9301C83.75 58.9101 83.77 58.8901 83.79 58.8701C83.85 58.8201 83.9 58.76 83.96 58.7C83.98 58.68 84 58.6601 84.02 58.6401C84.04 58.6201 84.06 58.6 84.08 58.58C84.21 58.45 84.34 58.32 84.46 58.2C84.48 58.18 84.5 58.1601 84.51 58.1501C84.55 58.1301 84.58 58.11 84.62 58.1C84.67 58.04 84.71 57.9801 84.76 57.9301C87.08 55.7801 89.6 53.9101 92.48 52.5601C94.6 51.5701 96.81 50.91 99.15 50.71C99.36 50.69 99.57 50.6801 99.78 50.6601C100.46 50.6601 101.14 50.6601 101.82 50.6601C104.32 50.7901 106.68 51.4201 108.97 52.4101C110.92 53.2501 112.72 54.3401 114.47 55.5401C117.43 57.5801 120.64 59.1201 124.05 60.2601C126.85 61.2001 129.71 61.9001 132.62 62.4301C136.66 63.1701 140.71 63.85 144.75 64.58C146.97 64.98 149.02 65.79 150.8 67.22C152.77 68.8 154.02 70.8601 154.75 73.2601C155.47 75.6401 155.63 78.0701 155.49 80.5401C155.27 84.3601 154.34 88.03 153.1 91.64C153.07 91.74 153.07 91.85 153.05 91.95C152.89 92.31 152.73 92.6801 152.57 93.0401C151.95 94.4701 151.36 95.9001 150.72 97.3201C150.19 98.4801 149.65 99.6401 149.05 100.76C148.21 102.33 147.36 103.9 146.44 105.43C145.47 107.04 144.48 108.65 143.41 110.19C142.19 111.95 140.89 113.65 139.58 115.35C138.64 116.56 137.64 117.73 136.65 118.89C135.89 119.77 135.12 120.64 134.32 121.49C133.26 122.61 132.2 123.73 131.08 124.78C129.84 125.94 128.54 127.03 127.25 128.13C125.45 129.66 123.54 131.05 121.59 132.37C121.51 132.43 121.41 132.46 121.33 132.5C121.2 132.68 121.18 132.66 121.16 132.64ZM84.8199 58.21C86.8999 58.35 88.9801 58.5001 91.0601 58.6401C88.9901 58.4301 86.9099 58.22 84.8199 58.21Z" fill="#E5D317"/>
<path d="M87.88 142.39C89.34 142.39 90.8 142.39 92.26 142.39C92.18 142.41 92.11 142.44 92.03 142.44C90.73 142.44 89.42 142.44 88.12 142.44C88.04 142.44 87.96 142.4 87.88 142.39Z" fill="#E7DA42"/>
<path d="M121.16 132.64C121.18 132.66 121.2 132.68 121.22 132.7C120.76 133.01 120.3 133.32 119.83 133.63C120 133.49 120.16 133.34 120.34 133.21C120.61 133.01 120.89 132.83 121.16 132.64Z" fill="#E4CE42"/>
<path d="M119.62 133.74C119.68 133.7 119.74 133.67 119.8 133.63C119.74 133.66 119.68 133.7 119.62 133.74Z" fill="#E4CE42"/>
<path d="M60.02 108C60.06 109.19 60.09 110.38 60.13 111.56C60.1 111.46 60.03 111.36 60.03 111.26C60.01 110.19 59.99 109.12 59.97 108.05C59.97 108 60 107.95 60.02 107.9C60.02 107.94 60.02 107.97 60.02 108Z" fill="#EEE459"/>
<path d="M60.02 108C60.02 107.97 60.02 107.94 60.02 107.91C60.02 107.48 60.02 107.06 60.02 106.63C60.02 106.54 60.0499 106.46 60.0699 106.37C60.0699 106.83 60.0699 107.29 60.0699 107.75C60.0699 107.84 60.04 107.92 60.02 108Z" fill="#EBDC5B"/>
<path d="M66.7 130.38C66.72 130.38 66.74 130.38 66.76 130.39C66.83 130.58 66.91 130.77 66.98 130.95C66.88 130.76 66.79 130.57 66.7 130.38Z" fill="#F3ECB5"/>
<path d="M68.1801 133.46C68.2601 133.61 68.3501 133.77 68.4301 133.92C68.3401 133.77 68.2601 133.62 68.1801 133.46Z" fill="#F4EEAC"/>
<path d="M83.89 58.9201C83.83 58.9801 83.78 59.03 83.72 59.09C83.78 59.03 83.83 58.9701 83.89 58.9201Z" fill="#F5EFAC"/>
<path d="M84.6801 58.1401C84.6301 58.2001 84.59 58.2601 84.54 58.3101C84.54 58.2801 84.54 58.25 84.54 58.21C84.59 58.19 84.6301 58.1701 84.6801 58.1401Z" fill="#F5EFAC"/>
<path d="M65.0699 128.13C65.0999 128.18 65.13 128.22 65.17 128.27C65.14 128.22 65.0999 128.17 65.0699 128.13Z" fill="#F4EC9C"/>
<path d="M82.03 60.7801C81.99 60.8201 81.95 60.8601 81.92 60.8901C81.95 60.8501 81.99 60.8101 82.03 60.7801Z" fill="#F5EFAC"/>
<path d="M67.96 133.02C67.98 133.06 68 133.09 68.02 133.13C67.99 133.1 67.98 133.06 67.96 133.02Z" fill="#F4EEAC"/>
<path d="M67.85 132.81C67.87 132.85 67.89 132.89 67.91 132.92C67.88 132.88 67.87 132.84 67.85 132.81Z" fill="#F4EEAC"/>
<path d="M67.79 132.7C67.81 132.74 67.83 132.77 67.85 132.81C67.83 132.77 67.81 132.73 67.79 132.7Z" fill="#F4EEAC"/>
<path d="M68.01 133.13C68.03 133.17 68.0499 133.2 68.0699 133.24C68.0499 133.21 68.03 133.17 68.01 133.13Z" fill="#F4EEAC"/>
<path d="M67.74 132.59C67.76 132.63 67.78 132.67 67.8 132.7C67.78 132.66 67.76 132.62 67.74 132.59Z" fill="#F4EEAC"/>
<path d="M68.0699 133.24C68.0899 133.28 68.11 133.32 68.13 133.35C68.1 133.32 68.0799 133.28 68.0699 133.24Z" fill="#F4EEAC"/>
<path d="M83.39 59.4101C83.35 59.4301 83.31 59.45 83.28 59.47C83.32 59.45 83.36 59.4301 83.39 59.4101Z" fill="#F5EFAC"/>
<path d="M65.66 128.97C65.68 129.01 65.7 129.04 65.72 129.08C65.7 129.05 65.68 129.01 65.66 128.97Z" fill="#F4EC9C"/>
<path d="M65.4399 128.65C65.4599 128.69 65.48 128.72 65.5 128.76C65.48 128.72 65.4599 128.68 65.4399 128.65Z" fill="#F4EC9C"/>
<path d="M65.33 128.48C65.35 128.52 65.37 128.55 65.39 128.59C65.37 128.56 65.35 128.52 65.33 128.48Z" fill="#F4EC9C"/>
<path d="M65.22 128.32C65.24 128.36 65.26 128.39 65.28 128.43C65.26 128.39 65.24 128.35 65.22 128.32Z" fill="#F4EC9C"/>
<path d="M68.12 133.35C68.14 133.39 68.1601 133.42 68.1801 133.46C68.1601 133.43 68.14 133.39 68.12 133.35Z" fill="#F4EEAC"/>
<path d="M81.86 60.94C81.82 60.96 81.79 60.9801 81.75 61.0001C81.79 60.9801 81.83 60.96 81.86 60.94Z" fill="#F5EFAC"/>
<path d="M81.75 61.0001C81.73 61.0401 81.7099 61.08 81.6899 61.11C81.7099 61.07 81.73 61.0301 81.75 61.0001Z" fill="#F5EFAC"/>
<path d="M84.54 58.3101C84.5 58.3301 84.4701 58.35 84.4301 58.36C84.4701 58.35 84.51 58.3301 84.54 58.3101Z" fill="#F5EFAC"/>
<path d="M84.4301 58.3701C84.4101 58.3901 84.39 58.4101 84.38 58.4201C84.4 58.4101 84.4101 58.3901 84.4301 58.3701Z" fill="#F5EFAC"/>
<path d="M84 58.8101C83.98 58.8301 83.9599 58.8501 83.9399 58.8701C83.9599 58.8401 83.98 58.8201 84 58.8101Z" fill="#F5EFAC"/>
<path d="M82.35 60.3901C82.33 60.4101 82.31 60.43 82.29 60.45C82.32 60.43 82.33 60.4101 82.35 60.3901Z" fill="#F5EFAC"/>
<path d="M65.17 128.26C65.19 128.28 65.21 128.3 65.23 128.32C65.2 128.3 65.18 128.28 65.17 128.26Z" fill="#F4EC9C"/>
<path d="M65.27 128.43C65.29 128.45 65.31 128.47 65.33 128.49C65.31 128.46 65.29 128.45 65.27 128.43Z" fill="#F4EC9C"/>
<path d="M65.49 128.76C65.51 128.78 65.53 128.8 65.55 128.82C65.53 128.79 65.51 128.77 65.49 128.76Z" fill="#F4EC9C"/>
<path d="M82.9 59.85C82.88 59.87 82.86 59.8901 82.84 59.9101C82.86 59.8801 82.88 59.86 82.9 59.85Z" fill="#F5EFAC"/>
<path d="M83.01 59.7401C82.99 59.7601 82.97 59.7801 82.95 59.8001C82.97 59.7701 82.99 59.7601 83.01 59.7401Z" fill="#F5EFAC"/>
<path d="M83.12 59.6301C83.1 59.6501 83.0801 59.67 83.0601 59.69C83.0801 59.66 83.1 59.6501 83.12 59.6301Z" fill="#F5EFAC"/>
<path d="M83.17 59.57C83.15 59.59 83.13 59.6101 83.11 59.6301C83.14 59.6101 83.16 59.59 83.17 59.57Z" fill="#F5EFAC"/>
<path d="M83.28 59.46C83.26 59.48 83.24 59.5001 83.22 59.5201C83.25 59.5001 83.27 59.48 83.28 59.46Z" fill="#F5EFAC"/>
<path d="M83.5 59.3001C83.48 59.3201 83.4599 59.34 83.4399 59.36C83.4699 59.34 83.48 59.3201 83.5 59.3001Z" fill="#F5EFAC"/>
<path d="M81.92 60.8901C81.9 60.9101 81.88 60.93 81.86 60.95C81.88 60.92 81.9 60.9001 81.92 60.8901Z" fill="#F5EFAC"/>
<path d="M138.07 98.22C138.09 98.3 138.12 98.37 138.12 98.45C138.12 98.95 138.12 99.46 138.12 99.96C138.12 100.04 138.09 100.11 138.07 100.19C138.07 99.53 138.07 98.87 138.07 98.22Z" fill="#E3CB48"/>
<path d="M84.8199 58.21C86.9099 58.22 88.9901 58.4301 91.0601 58.6401C88.9801 58.5001 86.8999 58.36 84.8199 58.21Z" fill="#EEE372"/>
</svg>
