<svg width="151" height="152" viewBox="0 0 151 152" fill="none" xmlns="http://www.w3.org/2000/svg">
<path d="M75.5701 151.19C117.163 151.19 150.88 117.472 150.88 75.8799C150.88 34.2873 117.163 0.570068 75.5701 0.570068C33.9775 0.570068 0.26001 34.2873 0.26001 75.8799C0.26001 117.472 33.9775 151.19 75.5701 151.19Z" fill="#04D6B4"/>
<path d="M119.18 70.3798C116.03 65.2898 109.36 63.71 104.26 66.85L66.35 90.2599C66.29 94.0499 66.3398 101.94 66.3898 107.92L66.33 107.27C66.33 113.42 65.3699 116.3 65.4999 116.3C65.6299 116.3 66.4699 115.66 66.4699 115.66L115.66 85.2899C120.75 82.1599 122.33 75.4798 119.18 70.3798Z" fill="white"/>
<path d="M41 48.6299V49.6599V112.08C41 118.07 45.8501 122.92 51.8401 122.92C57.8301 122.92 62.6799 118.07 62.6799 112.08V63.49L47.6499 53.8999C45.0699 52.2599 41 48.6299 41 48.6299ZM41.3799 49.8999C41.4399 49.9399 41.5101 49.99 41.5901 50.03L41.3799 49.8999Z" fill="white"/>
<path d="M107.52 61.65L57.4801 30.4701C52.4001 27.3101 45.7101 28.87 42.5501 33.95C39.3901 39.03 40.9501 45.72 46.0301 48.88L85.7201 73.5602L98.9801 65.5702C102.66 63.3602 107.52 61.65 107.52 61.65Z" fill="white"/>
</svg>
