<svg width="146" height="145" viewBox="0 0 146 145" fill="none" xmlns="http://www.w3.org/2000/svg">
<path d="M73 144.75C112.836 144.75 145.13 112.456 145.13 72.6201C145.13 32.7838 112.836 0.48999 73 0.48999C33.1637 0.48999 0.870117 32.7838 0.870117 72.6201C0.870117 112.456 33.1637 144.75 73 144.75Z" fill="#FF3465"/>
<path d="M54.4399 35.3301C54.6799 35.3301 54.85 35.3301 55.02 35.3301C65.49 35.3301 75.9699 35.3201 86.4399 35.3401C88.2599 35.3401 90.0699 35.5302 91.8799 35.8502C97.3499 36.8102 101.93 39.3702 105.76 43.3502C108.94 46.6602 111.09 50.5401 112.14 55.0101C114.1 63.3301 112.73 72.72 107.31 79.49C103.59 84.13 98.8598 87.2101 93.0298 88.5201C91.6998 88.8201 90.3302 89.0399 88.9702 89.1299C87.1702 89.2499 85.3598 89.2401 83.5498 89.2501C79.7998 89.2701 76.05 89.2501 72.29 89.2501C72.12 89.2501 71.9502 89.2501 71.7202 89.2501C71.7202 96.1501 71.7202 103.02 71.7202 109.91C65.9502 109.91 60.2302 109.91 54.4702 109.91C54.4602 109.76 54.4399 109.61 54.4399 109.46C54.4399 106 54.4402 102.54 54.4302 99.0701C54.4302 98.7401 54.5298 98.6 54.8398 98.48C63.5498 95.24 68.5302 84.73 65.1602 75.99C63.3802 71.39 59.5099 67.8002 54.8999 66.1202C54.5599 66.0002 54.4302 65.86 54.4302 65.49C54.4402 55.6 54.4399 45.7001 54.4399 35.8101C54.4399 35.6801 54.4399 35.5301 54.4399 35.3301ZM71.71 49.42C71.71 58.05 71.71 66.62 71.71 75.23C71.91 75.23 72.08 75.23 72.25 75.23C75.91 75.23 79.5802 75.24 83.2402 75.22C84.0002 75.22 84.77 75.1701 85.52 75.0601C88.33 74.6701 90.63 73.33 92.46 71.18C94.38 68.93 95.2799 66.2702 95.4199 63.3502C95.5099 61.5902 95.3799 59.8499 94.9199 58.1399C93.5399 53.0899 89.2798 49.39 83.5898 49.4C79.7798 49.41 75.9702 49.4 72.1602 49.4C72.0202 49.42 71.88 49.42 71.71 49.42Z" fill="#FEFEFE"/>
<path d="M33.0201 82.42C33.0701 75.43 38.5299 70.5701 44.0699 70.0201C48.0199 69.6301 51.4599 70.7501 54.3199 73.5301C56.4799 75.6301 57.7103 78.22 57.9703 81.22C58.3103 85.11 57.1403 88.4901 54.3903 91.2701C52.0903 93.6 49.2501 94.86 46.0001 94.95C38.5601 95.17 32.9901 89.19 33.0201 82.42Z" fill="#FEFEFE"/>
</svg>
