<svg width="205" height="205" viewBox="0 0 205 205" fill="none" xmlns="http://www.w3.org/2000/svg">
<path d="M153.367 153.571C181.555 125.383 181.555 79.6815 153.367 51.4937C125.179 23.3059 79.4778 23.3059 51.2901 51.4936C23.1023 79.6814 23.1022 125.383 51.29 153.571C79.4778 181.759 125.179 181.758 153.367 153.571Z" fill="#F4F4F4"/>
<path d="M84.3 85.02L95.4099 87.3799L97.3201 78.3899L85.75 66.83L92.3301 60.25L75.45 56.66L72.22 71.87L80.6299 69.83L84.3 85.02Z" fill="#61DFE6"/>
<path d="M97.3201 78.3899L100.79 62.04L92.3301 60.25L85.75 66.83L97.3201 78.3899Z" fill="#47DAE2"/>
<path d="M77.72 97.1899L86.72 95.01L84.3 85.02L70.0701 82L72.22 71.87L55.45 75.92L59.6699 93.3799L66.8 86.26L77.72 97.1899Z" fill="#73E3E9"/>
<path d="M84.3 85.02L80.6299 69.83L72.22 71.87L70.0701 82L84.3 85.02Z" fill="#47DAE2"/>
<path d="M79.28 110.41L85.1101 104.58L77.72 97.1899L61.54 101.1L59.6699 93.3799L48.48 104.58L59.55 115.65L61.6699 106.38L79.28 110.41Z" fill="#7DE5EB"/>
<path d="M77.72 97.1899L66.8 86.26L59.6699 93.3799L61.54 101.1L77.72 97.1899Z" fill="#57DDE5"/>
<path d="M84.3 123.64L86.9199 112.15L79.28 110.41L66.8 122.89L59.55 115.65L55.8999 131.63L71.6201 135.23L69.5801 127.57L84.3 123.64Z" fill="#86E7EC"/>
<path d="M79.28 110.41L61.6699 106.38L59.55 115.65L66.8 122.89L79.28 110.41Z" fill="#57DDE5"/>
<path d="M96.99 129.85L94.6101 120.89L84.3 123.64L81.1499 137.41L71.6201 135.23L76.25 152.6L92.4199 148.28L85.49 141.35L96.99 129.85Z" fill="#8FE9ED"/>
<path d="M84.3 123.64L69.5801 127.57L71.6201 135.23L81.1499 137.41L84.3 123.64Z" fill="#61DFE6"/>
<path d="M110.48 78.74L112.62 87.6001L122.22 85.28L125.97 69.78L135.52 72.09L131.71 56.34L115.75 60.2L122.38 66.83L110.48 78.74Z" fill="#C7F4F6"/>
<path d="M115.75 60.2L104.07 48.51L92.3301 60.25L100.79 62.04L97.3201 78.3899L104.07 85.1499L110.48 78.74L122.38 66.83L115.75 60.2Z" fill="#57DDE5"/>
<path d="M122.22 85.28L119.88 94.96L129.28 97.23L140.8 85.71L147.22 92.1399L151.15 75.87L135.52 72.09L137.8 81.51L122.22 85.28Z" fill="#BEF2F5"/>
<path d="M122.22 85.28L137.8 81.51L135.52 72.09L125.97 69.78L122.22 85.28Z" fill="#99EBEF"/>
<path d="M129.28 97.23L122.48 104.03L129.52 111.07L145.92 107.32L147.76 115.38L159.11 104.03L147.22 92.1399L145.06 101.05L129.28 97.23Z" fill="#B4F0F3"/>
<path d="M129.28 97.23L145.06 101.05L147.22 92.1399L140.8 85.71L129.28 97.23Z" fill="#8FE9ED"/>
<path d="M147.76 115.38L140.8 122.35L129.52 111.07L120.67 113.09L123.05 123.53L138.02 127.51L135.69 136.23L151.7 132.57L147.76 115.38Z" fill="#ABEEF2"/>
<path d="M129.52 111.07L140.8 122.35L147.76 115.38L145.92 107.32L129.52 111.07Z" fill="#86E7EC"/>
<path d="M123.05 123.53L112.99 120.84L110.59 129.82L122.13 141.35L115.23 148.25L131.34 152.54L135.69 136.23L126.44 138.35L123.05 123.53Z" fill="#A2EDF1"/>
<path d="M123.05 123.53L126.44 138.35L135.69 136.23L138.02 127.51L123.05 123.53Z" fill="#78E5EB"/>
<path d="M110.59 129.82L103.81 123.04L96.99 129.85L101.28 145.92L92.4199 148.28L103.81 159.67L115.23 148.25L106.31 145.87L110.59 129.82Z" fill="#99EBEF"/>
<path d="M96.99 129.85L85.49 141.35L92.4199 148.28L101.28 145.92L96.99 129.85Z" fill="#66E1E6"/>
<path d="M110.59 129.82L106.31 145.87L115.23 148.25L122.13 141.35L110.59 129.82Z" fill="#73E3E9"/>
</svg>
