<svg width="173" height="174" viewBox="0 0 173 174" fill="none" xmlns="http://www.w3.org/2000/svg">
<path d="M156.938 103.11C165.7 64.2224 141.279 25.595 102.391 16.8329C63.5041 8.07079 24.8768 32.4921 16.1147 71.3793C7.35259 110.267 31.7738 148.894 70.661 157.656C109.548 166.418 148.176 141.997 156.938 103.11Z" fill="#F4F4F4"/>
<path d="M94.6401 70.4599C99.4201 65.8399 103.86 59.9901 104.31 53.1201C104.43 51.3501 104.27 49.55 103.75 47.86C103.61 47.41 102.97 46.4599 102.99 46.0099C102.77 50.6499 100.73 55.1599 97.5301 58.5099C94.3001 61.8999 89.6401 64 85.8801 66.6C83.7601 68.07 81.7301 69.68 79.7501 71.32C77.2301 73.4 74.75 75.55 72.36 77.78C71.57 75.63 72.81 72.0098 83.67 56.6398C94.53 41.2698 90.0001 27.02 90.0001 27.02C87.9601 37.87 84.4601 41.6 74.4001 52.8C64.3401 63.99 58.2301 75.0699 57.1201 84.9099C56.0101 94.7499 65.1301 105.83 65.1301 105.83C65.4101 104.29 65.77 102.76 66.24 101.26C70.6 87.2199 84.6801 80.0799 94.6401 70.4599Z" fill="url(#paint0_linear_1_7842)"/>
<path d="M108.15 65.78C107.87 67.32 107.51 68.8501 107.04 70.3501C102.65 84.3701 88.58 91.4999 78.62 101.13C73.84 105.75 69.4001 111.6 68.9501 118.47C68.8301 120.24 68.99 122.04 69.51 123.73C69.65 124.18 70.2901 125.13 70.2701 125.58C70.4901 120.94 72.53 116.43 75.73 113.08C78.96 109.69 83.62 107.59 87.38 104.99C89.5 103.52 91.5301 101.91 93.5201 100.27C96.0401 98.19 98.52 96.0401 100.91 93.8101C101.7 95.9601 100.46 99.58 89.6 114.95C78.75 130.33 83.2701 144.57 83.2701 144.57C85.3101 133.72 88.81 129.99 98.87 118.79C108.93 107.6 115.04 96.5199 116.15 86.6799C117.27 76.8599 108.15 65.78 108.15 65.78Z" fill="url(#paint1_linear_1_7842)"/>
<defs>
<linearGradient id="paint0_linear_1_7842" x1="80.6719" y1="134.976" x2="80.6719" y2="39.4421" gradientUnits="userSpaceOnUse">
<stop stop-color="#F16435"/>
<stop offset="1" stop-color="#FCCB15"/>
</linearGradient>
<linearGradient id="paint1_linear_1_7842" x1="92.5885" y1="134.976" x2="92.5885" y2="39.4421" gradientUnits="userSpaceOnUse">
<stop stop-color="#F16435"/>
<stop offset="1" stop-color="#FCCB15"/>
</linearGradient>
</defs>
</svg>
