<svg width="145" height="146" viewBox="0 0 145 146" fill="none" xmlns="http://www.w3.org/2000/svg">
<path d="M72.43 145.07C112.294 145.07 144.61 112.754 144.61 72.89C144.61 33.0261 112.294 0.709961 72.43 0.709961C32.5661 0.709961 0.25 33.0261 0.25 72.89C0.25 112.754 32.5661 145.07 72.43 145.07Z" fill="#F4F4F4"/>
<path d="M65.44 127.73C63.13 127.44 60.82 127.12 58.52 126.81C57.97 126.74 57.41 126.68 56.87 126.53C56.44 126.41 56 126.23 55.62 125.99C54.82 125.47 54.57 124.62 54.91 123.72C54.97 123.56 55.05 123.41 55.12 123.26C61.45 110.4 67.78 97.5401 74.11 84.6801C74.19 84.5201 74.28 84.35 74.39 84.14C81.81 87.46 89.2 90.77 96.61 94.09C96.53 94.24 96.48 94.35 96.42 94.45C91.43 102.5 86.4 110.52 81 118.3C79.72 120.15 78.33 121.92 76.98 123.72C76.74 124.04 76.45 124.34 76.18 124.64C73.6 127.48 69.08 128.19 65.44 127.73Z" fill="black"/>
<path d="M123.11 76.81C123.1 76.97 123.08 77.14 123.06 77.3C122.95 78.15 122.62 78.89 122 79.49C121.71 79.77 121.38 79.92 120.97 79.98C118.57 80.28 116.18 80.59 113.78 80.91C113.65 80.93 113.52 80.96 113.39 80.99C113.4 81.03 113.39 81.08 113.4 81.09C114.46 81.99 115.12 83.16 115.66 84.42C116.42 86.2 116.89 88.0699 117.26 89.9599C117.7 92.1999 117.96 94.47 118.16 96.74C118.29 98.23 117.98 99.6099 117.12 100.83C116.49 101.73 115.81 102.59 115.12 103.45C113.95 104.92 112.75 106.36 111.57 107.82C110.9 108.65 110.18 109.44 109.33 110.08C108.83 110.46 108.29 110.77 107.67 110.93C106.81 111.15 106.04 110.97 105.43 110.35C105.1 110.02 104.82 109.62 104.61 109.21C103.52 107.09 102.47 104.95 101.39 102.83C100 100.09 98.6001 97.35 97.2001 94.6C97.1201 94.45 97.0601 94.3 96.9801 94.12C102.4 89.73 107.82 85.3499 113.24 80.9599C113.15 79.7799 113.06 78.6199 112.97 77.4499C112.82 75.5099 112.66 73.57 112.51 71.63C112.32 69.24 112.13 66.8399 111.94 64.4499C111.79 62.6299 111.65 60.81 111.51 58.99C111.5 58.86 111.47 58.73 111.45 58.59L111.44 58.6C111.89 58.59 112.35 58.5199 112.79 58.5799C114.34 58.7999 115.89 59.04 117.44 59.3C118.15 59.42 118.86 59.58 119.56 59.77C120.2 59.94 120.79 60.23 121.31 60.66C121.78 61.05 122.06 61.53 122.1 62.18C122.31 65.08 122.55 67.97 122.77 70.87C122.92 72.79 123.27 74.84 123.11 76.81Z" fill="black"/>
<path d="M72.2701 57.51C72.9801 66.31 73.6801 75.05 74.3801 83.78C74.1301 84.04 73.8101 84.08 73.5201 84.11C72.1801 84.26 70.8301 84.44 69.4901 84.52C62.1501 84.95 54.7901 85.03 47.4401 85.05C42.9101 85.06 38.3801 85.05 33.8501 85.02C31.9701 85.01 30.1001 84.92 28.2301 84.84C27.2301 84.79 26.2501 84.59 25.3101 84.23C24.6701 83.99 24.0801 83.66 23.6001 83.16C23.1101 82.66 22.8501 82.07 22.8101 81.35C22.7301 80 22.6001 78.65 22.4901 77.3C22.3601 75.68 22.2301 74.0599 22.1201 72.4399C21.9701 70.3099 21.8401 68.1901 21.7101 66.0601C21.6501 64.9901 21.7701 63.93 22.1001 62.91C22.2601 62.41 22.5101 61.94 22.8601 61.55C23.3401 61.01 23.9201 60.71 24.6701 60.67C27.0501 60.53 29.4301 60.36 31.8001 60.2C33.4501 60.09 35.11 59.98 36.76 59.87C39.15 59.71 41.5501 59.55 43.9401 59.39C46.1701 59.24 48.3901 59.1 50.6201 58.95C52.9301 58.8 55.2401 58.64 57.5501 58.48C59.2401 58.37 60.9201 58.26 62.6101 58.14C64.9701 57.98 67.3301 57.82 69.6901 57.66C70.5301 57.61 71.3601 57.56 72.2701 57.51Z" fill="black"/>
<path d="M72.63 57.14C63.33 46.24 54.06 35.37 44.75 24.46C44.95 24.38 45.1 24.32 45.26 24.26C51.04 22.2 56.81 20.15 62.59 18.09C63.09 17.91 63.59 17.85 64.08 18.02C64.69 18.22 65.3 18.43 65.86 18.73C67.35 19.51 68.65 20.57 69.92 21.67C72.42 23.83 74.71 26.2 76.94 28.64C81.94 34.11 86.59 39.87 91.09 45.76C91.17 45.87 91.25 45.98 91.36 46.14C85.11 49.8 78.9 53.45 72.63 57.14Z" fill="black"/>
<path d="M111.44 58.6C111.31 58.5 111.2 58.38 111.06 58.29C104.91 54.35 98.7601 50.41 92.6201 46.48C92.4501 46.37 92.2801 46.26 92.0801 46.12C94.9701 40.6 97.0901 34.81 98.4201 28.72C98.5501 28.76 98.6501 28.79 98.7301 28.83C103.18 30.95 106.97 33.8601 109.8 37.9301C111.78 40.7801 112.93 43.93 113.24 47.4C113.53 50.65 113.03 53.8 112.05 56.89C111.87 57.47 111.65 58.03 111.44 58.6Z" fill="black"/>
</svg>
