<svg width="206" height="205" viewBox="0 0 206 205" fill="none" xmlns="http://www.w3.org/2000/svg">
<path d="M153.998 153.948C182.186 125.76 182.186 80.0584 153.999 51.8707C125.811 23.6829 80.1092 23.683 51.9214 51.8708C23.7336 80.0585 23.7336 125.76 51.9213 153.948C80.1091 182.136 125.811 182.135 153.998 153.948Z" fill="#F4F6F5"/>
<path d="M117.85 143.24C118.22 145.11 117.26 146.53 115.67 147.04C114.02 147.57 112.33 147 111.52 145.45C111.13 144.7 110.69 144.57 109.94 144.57C104.2 144.6 98.46 144.59 92.73 144.57C92.03 144.57 91.59 144.7 91.21 145.39C90.31 147.03 88.5899 147.6 86.8799 146.99C85.2999 146.43 84.2799 144.77 84.6299 143.05C84.7599 142.41 84.5402 142.16 84.1002 141.84C79.9002 138.84 75.7101 135.82 71.5201 132.81C71.0801 132.5 70.6203 132.22 70.2203 131.86C69.3703 131.11 68.62 130.73 67.4 131.34C66.05 132.01 64.3303 131.24 63.4703 129.94C62.5303 128.53 62.5601 126.93 63.7501 125.7C64.4001 125.04 64.3899 124.49 64.1299 123.71C62.2699 118.1 60.4602 112.48 58.6002 106.88C58.4902 106.55 58.05 106.18 57.69 106.09C55.78 105.62 54.6102 104.3 54.6202 102.48C54.6302 100.74 55.82 99.3301 57.67 99.0001C58.24 98.9001 58.53 98.6901 58.71 98.1401C60.53 92.4801 62.37 86.8301 64.23 81.1901C64.44 80.5701 64.3599 80.1702 63.8799 79.6802C62.5499 78.3302 62.4802 76.6101 63.6002 75.1101C64.6402 73.7201 66.4301 73.2701 68.0001 74.1101C68.5601 74.4101 68.94 74.3801 69.44 74.0201C74.34 70.4601 79.2502 66.9101 84.1602 63.3701C84.5802 63.0701 84.7602 62.8301 84.6402 62.2401C84.2902 60.4701 85.29 58.8301 86.94 58.2301C88.56 57.6501 90.3202 58.2301 91.1802 59.8201C91.6002 60.5801 92.0699 60.7401 92.8599 60.7401C98.5599 60.7101 104.26 60.7201 109.97 60.7301C110.65 60.7301 111.12 60.6702 111.48 59.9102C112.23 58.3402 113.96 57.6902 115.56 58.1802C117.26 58.7002 118.3 60.1501 118.08 61.9401C117.98 62.7401 118.21 63.1501 118.84 63.6101C123.65 67.0401 128.45 70.5101 133.22 73.9901C133.76 74.3801 134.16 74.4101 134.75 74.1001C136.35 73.2601 138.16 73.7701 139.21 75.2501C140.23 76.7001 140.11 78.4601 138.79 79.7401C138.32 80.1901 138.26 80.5601 138.45 81.1401C140.33 86.8501 142.18 92.5702 144.08 98.2802C144.19 98.6102 144.64 98.9802 144.99 99.0502C146.8 99.4302 148.14 100.9 148.13 102.62C148.12 104.4 146.87 105.76 144.99 106.17C144.64 106.25 144.2 106.64 144.08 106.99C141.89 113.62 139.75 120.26 137.57 126.89C137.35 127.56 137.53 127.93 138.02 128.35C140.62 130.55 143.22 132.75 145.77 135C146.33 135.5 146.67 135.26 147.17 135C149.88 133.54 152.92 134.49 154.32 137.2C155.65 139.78 154.57 142.88 151.88 144.19C150.1 145.06 147.71 144.7 146.26 143.36C144.64 141.86 144.05 139.71 144.86 137.79C145.16 137.07 145.09 136.67 144.49 136.17C141.91 134.01 139.36 131.81 136.81 129.6C136.37 129.22 136.07 129.24 135.61 129.57C129.98 133.65 124.33 137.71 118.72 141.81C118.3 142.11 118.13 142.75 117.85 143.24ZM85.6002 64.6101C85.5002 64.6501 85.3901 64.6701 85.3101 64.7401C80.3101 68.3301 75.3101 71.9201 70.3301 75.5301C69.5401 76.1001 69.7602 77.7502 70.6602 78.1602C72.0002 78.7602 73.37 79.2902 74.69 79.9302C75.44 80.2902 76.04 80.4201 76.67 79.7201C76.94 79.4301 77.4399 79.1302 77.7999 79.1702C79.4299 79.3502 79.79 78.2002 80.23 77.0602C80.46 76.4602 80.7498 75.8802 81.0098 75.3002C82.5698 71.7702 84.1403 68.2501 85.7003 64.7201C85.7103 64.6401 85.72 64.5701 85.73 64.4901C85.69 64.5301 85.6402 64.5701 85.6002 64.6101ZM117.14 140.64C117.39 140.5 117.65 140.39 117.88 140.22C122.67 136.76 127.45 133.3 132.23 129.84C132.94 129.32 133.65 128.8 134.49 128.18C131.98 127.1 129.66 126.07 127.31 125.11C127.07 125.01 126.68 125.23 126.37 125.34C125.58 125.64 124.8 125.95 124.03 126.29C123.69 126.44 123.26 126.63 123.1 126.92C122.62 127.8 122.25 128.73 121.84 129.65C120.23 133.27 118.62 136.9 117.01 140.52C116.97 140.57 116.93 140.62 116.89 140.67C116.98 140.66 117.06 140.65 117.14 140.64ZM101.33 101.79C104.31 101.79 107.28 101.8 110.26 101.79C111.36 101.79 112.23 100.33 111.68 99.3901C108.67 94.1801 105.66 88.9701 102.63 83.7601C102.1 82.8401 100.57 82.8802 100.03 83.8102C97.0299 88.9902 94.0301 94.1701 91.0401 99.3501C90.4801 100.33 91.3501 101.8 92.5001 101.8C95.4401 101.8 98.3801 101.79 101.33 101.79ZM101.39 103.52C98.4502 103.52 95.5099 103.52 92.5699 103.52C91.2899 103.52 90.4599 104.91 91.0899 105.99C94.0499 111.1 97.0103 116.22 99.9703 121.33C100.54 122.31 102.14 122.35 102.7 121.38C105.69 116.24 108.67 111.1 111.65 105.95C112.23 104.94 111.38 103.51 110.21 103.51C107.27 103.51 104.33 103.52 101.39 103.52ZM88.2901 105.77C87.7501 106.31 87.2501 106.61 87.0401 107.04C85.2501 110.75 83.5498 114.5 81.7598 118.2C81.2498 119.24 81.0598 119.98 81.7798 121.16C82.4098 122.19 83.0501 122.36 84.0001 122.48C88.3301 123.01 92.6701 123.57 97.0001 124.07C97.4001 124.12 97.9301 123.94 98.2501 123.68C98.7701 123.27 98.78 122.76 98.4 122.1C95.41 117 92.4898 111.87 89.5098 106.77C89.3098 106.44 88.8601 106.24 88.2901 105.77ZM88.2203 99.4601C88.8103 99.0101 89.3099 98.8101 89.5299 98.4401C92.5398 93.2701 95.4901 88.0702 98.5001 82.9102C98.8701 82.2802 98.6501 81.8701 98.2701 81.5101C98.0201 81.2701 97.56 81.0601 97.23 81.1001C92.97 81.6201 88.7103 82.1901 84.4503 82.7301C83.2703 82.8801 81.98 82.8202 81.71 84.4302C81.68 84.5902 81.4402 84.7001 81.4102 84.8601C81.3202 85.2301 81.1398 85.6901 81.2798 85.9801C83.1798 90.1101 85.1199 94.2201 87.0899 98.3201C87.2699 98.7001 87.7203 98.9601 88.2203 99.4601ZM115.25 106.17C114.53 106.32 113.73 105.76 113.17 106.76C110.22 111.95 107.23 117.12 104.2 122.27C103.8 122.96 104.1 123.38 104.47 123.76C104.71 124 105.19 124.16 105.53 124.12C109.86 123.61 114.19 123.02 118.52 122.52C119.62 122.39 120.63 122.36 120.93 121.01C120.99 120.76 121.31 120.57 121.42 120.32C121.53 120.07 121.64 119.71 121.54 119.5C119.47 115.06 117.37 110.63 115.25 106.17ZM105.21 81.1201C105.04 81.2301 104.61 81.4801 104.22 81.7801C103.66 82.2301 104.05 82.6701 104.29 83.0901C107.22 88.1701 110.18 93.2401 113.07 98.3501C113.47 99.0601 113.96 99.0801 114.63 99.1001C115.38 99.1301 115.5 98.6301 115.73 98.1501C117.43 94.5201 119.12 90.8901 120.85 87.2801C121.38 86.1701 122.07 85.1301 120.8 84.0701C120.68 83.9701 120.69 83.7101 120.57 83.5901C120.33 83.3401 120.07 82.9801 119.78 82.9401C115.07 82.3301 110.34 81.7501 105.21 81.1201ZM101.37 142.77C104.27 142.77 107.18 142.75 110.08 142.78C110.75 142.79 111.16 142.66 111.5 141.99C111.84 141.34 111.55 141.01 111.23 140.57C108.82 137.27 106.42 133.97 104.03 130.66C103.31 129.66 102.74 128.43 101.13 129.03C101.1 129.04 101.06 129.03 101.02 129.02C100.17 128.68 99.7399 129.17 99.2799 129.8C96.6899 133.41 94.06 136.98 91.48 140.6C91.24 140.93 91.1503 141.48 91.2203 141.88C91.3403 142.54 91.7901 142.81 92.5401 142.8C95.4901 142.74 98.4302 142.77 101.37 142.77ZM101.44 62.4701C98.47 62.4701 95.4901 62.5101 92.5201 62.4501C91.7501 62.4301 91.3503 62.7501 91.2203 63.3801C91.1403 63.7501 91.2202 64.2602 91.4302 64.5602C93.7802 67.8502 96.1801 71.1101 98.5601 74.3701C99.3101 75.4001 99.8999 76.7401 101.61 76.1401C101.64 76.1301 101.68 76.1502 101.71 76.1602C102.42 76.4302 102.82 76.0601 103.21 75.5101C105.89 71.8401 108.59 68.1902 111.31 64.5402C111.64 64.0902 111.74 63.7601 111.45 63.2101C111.16 62.6601 110.87 62.4401 110.24 62.4501C107.32 62.4901 104.38 62.4701 101.44 62.4701ZM80.94 125.59C81.28 126.33 81.62 127.08 81.96 127.83C83.69 131.68 85.4202 135.53 87.1602 139.37C87.6402 140.42 89.31 140.58 89.98 139.66C92.67 135.96 95.3701 132.25 98.0601 128.55C98.7501 127.6 98.1303 126.02 96.9903 125.88C92.5603 125.31 88.11 124.84 83.69 124.16C82.3 123.95 81.57 124.43 80.94 125.59ZM121.73 125.48C121.43 125.07 121.18 124.67 120.86 124.35C120.7 124.18 120.38 124.04 120.16 124.07C115.36 124.65 110.56 125.25 105.77 125.87C104.58 126.02 103.94 127.57 104.64 128.54C107.35 132.28 110.06 136.02 112.79 139.76C113.38 140.57 115.11 140.39 115.52 139.49C116.01 138.41 116.47 137.33 116.95 136.25C118.54 132.65 120.14 129.06 121.73 125.48ZM113.94 64.9102C113.57 65.0902 113.06 65.1801 112.84 65.4801C110.05 69.2501 107.3 73.0401 104.56 76.8501C103.96 77.6801 104.68 79.1702 105.7 79.3002C110.42 79.9202 115.14 80.5101 119.85 81.1901C120.86 81.3401 121.08 80.6201 121.47 80.1001C121.65 79.8601 121.59 79.3101 121.45 78.9901C119.56 74.7401 117.63 70.5101 115.75 66.2601C115.39 65.4801 115.06 64.8202 113.94 64.9102ZM80.8902 79.8501C81.6502 80.2601 81.69 81.3801 82.92 81.2001C87.59 80.5001 92.2703 79.9202 96.9503 79.3002C98.0503 79.1502 98.7399 77.6801 98.0899 76.7801C95.3699 73.0101 92.6302 69.2501 89.8902 65.5001C89.3302 64.7401 87.6103 64.9101 87.2203 65.7701C85.1103 70.4201 83.0302 75.0801 80.8902 79.8501ZM123.28 86.2401C121.3 90.5001 119.3 94.8101 117.29 99.1301C116.79 100.2 117.8 101.79 119 101.79C122.69 101.79 126.39 101.79 130.08 101.79C131.46 101.79 132.4 100.24 131.76 99.0201C129.71 95.1201 127.6 91.2501 125.61 87.3201C125.08 86.2801 124.45 85.9001 123.28 86.2401ZM71.7901 101.79C75.3301 101.79 78.9201 101.75 82.5001 101.81C83.7601 101.83 84.9402 101.87 85.4102 100.4C85.5302 100.02 85.7001 99.5201 85.5601 99.2101C83.6601 95.0801 81.7203 90.9701 79.7403 86.8801C79.5803 86.5501 79.1201 86.2902 78.7501 86.1702C78.2001 85.9902 77.7803 86.2002 77.4703 86.8002C75.2803 91.0302 73.0402 95.2301 70.8502 99.4601C70.7302 99.7001 70.8002 100.11 70.9302 100.38C71.1402 100.85 71.4701 101.29 71.7901 101.79ZM124.73 103.52C123.19 103.52 121.64 103.62 120.11 103.49C118.76 103.38 117.76 103.67 117.23 104.98C117.11 105.27 116.99 105.67 117.1 105.91C119.06 110.13 121.04 114.34 123.04 118.54C123.46 119.42 124.78 119.42 125.24 118.55C127.48 114.35 129.7 110.14 131.92 105.93C132.41 105 131.49 103.53 130.43 103.53C128.53 103.51 126.63 103.52 124.73 103.52ZM78.2203 103.52C76.3203 103.52 74.4201 103.51 72.5201 103.52C71.3901 103.52 70.4303 105.07 70.9503 106.06C73.0903 110.15 75.2399 114.24 77.3799 118.33C77.6399 118.83 77.8699 119.17 78.5699 119.15C79.2899 119.13 79.5599 118.83 79.8199 118.25C81.7099 114.2 83.6301 110.16 85.5401 106.11C85.9401 105.26 84.8502 103.52 83.9102 103.52C82.0202 103.51 80.1203 103.52 78.2203 103.52ZM133.98 105.95C133.68 106.44 133.54 106.64 133.43 106.86C131.26 110.93 129.12 115.02 126.91 119.07C126.53 119.76 126.52 120.22 127.01 120.87C127.37 121.35 127.4 122.06 127.6 122.65C127.69 122.92 127.78 123.32 127.98 123.41C130.38 124.5 132.8 125.53 135.33 126.64C134.88 119.74 134.44 113.01 133.98 105.95ZM85.6402 140.8C85.6902 140.74 85.7399 140.69 85.7999 140.63C83.7199 136.01 81.6499 131.38 79.5499 126.77C79.4399 126.53 79.02 126.41 78.73 126.29C77.98 125.99 77.1303 125.85 76.4903 125.4C75.9303 125.01 75.5303 124.96 74.9503 125.23C73.5903 125.86 72.1999 126.44 70.8199 127.03C69.6899 127.52 69.4903 129.18 70.4903 129.9C73.3003 131.94 76.12 133.96 78.94 135.99C81.16 137.61 83.4002 139.2 85.6402 140.8ZM117.06 64.4701C117.06 64.8101 117.03 64.9201 117.06 65.0001C119.08 69.5001 121.1 74.0101 123.16 78.5001C123.28 78.7601 123.72 78.9102 124.04 79.0402C124.81 79.3602 125.59 79.6801 126.39 79.9401C126.77 80.0601 127.26 80.2001 127.6 80.0701C129.07 79.5001 130.5 78.8401 131.94 78.2101C133.02 77.7401 133.22 76.1301 132.27 75.4501C129.08 73.1401 125.88 70.8402 122.68 68.5402C120.86 67.2202 119.04 65.9001 117.06 64.4701ZM133.75 99.0101C133.83 98.9801 133.92 98.9502 134 98.9102C134.02 98.7402 134.04 98.5701 134.06 98.4001C134.26 95.3301 134.47 92.2701 134.67 89.2001C134.83 86.6701 135 84.1401 135.14 81.6001C135.21 80.3201 133.71 79.3401 132.51 79.8601C131.1 80.4701 129.67 81.0401 128.28 81.7001C127.98 81.8401 127.76 82.2601 127.61 82.5901C127.33 83.2601 127.23 84.0401 126.85 84.6501C126.53 85.1701 126.54 85.4901 126.81 85.9901C128.67 89.4601 130.49 92.9402 132.34 96.4102C132.79 97.2902 133.28 98.1501 133.75 99.0101ZM68.7901 98.9302C68.8801 98.9602 68.9599 98.9901 69.0499 99.0201C69.2699 98.6301 69.51 98.2501 69.71 97.8501C71.74 93.9801 73.7501 90.1001 75.8101 86.2501C76.1801 85.5701 76.2103 85.0802 75.7203 84.4302C75.3603 83.9502 75.3301 83.2301 75.0801 82.6501C74.9401 82.3101 74.7403 81.8701 74.4503 81.7301C73.0003 81.0301 71.5098 80.4201 70.0298 79.7801C68.9898 79.3301 67.4899 80.4301 67.5699 81.5901C67.7899 84.6601 68 87.7302 68.21 90.8002C68.41 93.5102 68.6001 96.2202 68.7901 98.9302ZM69.0001 106.2C68.9301 106.21 68.8699 106.23 68.7999 106.24C68.7199 107.51 68.6399 108.78 68.5499 110.04C68.2299 114.64 67.8901 119.24 67.5801 123.84C67.5101 124.8 69.0302 125.86 69.9102 125.49C71.2602 124.92 72.6 124.33 73.96 123.78C74.69 123.48 75.27 123.21 75.17 122.2C75.12 121.74 75.4598 121.15 75.7798 120.76C76.2498 120.19 76.1902 119.73 75.8702 119.13C73.7402 115.12 71.6398 111.09 69.5298 107.07C69.3598 106.77 69.1701 106.49 69.0001 106.2ZM65.9102 82.4001C65.8502 82.3901 65.79 82.3801 65.73 82.3701C65.61 82.6801 65.4802 82.9902 65.3702 83.3002C63.7402 88.2902 62.1103 93.2802 60.4903 98.2802C60.3503 98.7102 60.1198 99.2801 60.2798 99.6001C60.6798 100.37 61.1499 101.3 61.8599 101.67C62.5299 102.03 63.5502 101.85 64.3902 101.73C64.6802 101.69 64.87 101.11 65.15 100.81C65.59 100.35 66.1001 99.9601 66.5201 99.4901C66.7501 99.2401 67.0198 98.8801 67.0098 98.5901C66.7698 94.4901 66.4803 90.3902 66.2003 86.2902C66.1103 85.0002 66.0102 83.7001 65.9102 82.4001ZM65.6602 122.84C65.7402 122.83 65.8202 122.82 65.9102 122.81C65.9302 122.68 65.9603 122.55 65.9703 122.42C66.2903 117.56 66.5702 112.71 66.9302 107.85C67.0102 106.74 67.1699 105.74 65.8399 105.26C65.5999 105.18 65.3598 104.88 65.2798 104.63C64.9098 103.41 63.96 103.5 62.98 103.49C62.14 103.48 61.4399 103.52 61.1299 104.47C61.0699 104.66 60.88 104.83 60.71 104.95C60.09 105.38 60.1302 105.9 60.3502 106.54C61.1802 109.01 61.9601 111.51 62.7701 113.99C63.7301 116.94 64.7002 119.89 65.6602 122.84ZM136.94 82.0901C136.87 82.4001 136.84 82.4901 136.83 82.5901C136.48 87.8401 136.15 93.0801 135.78 98.3301C135.73 98.9801 136 99.2501 136.51 99.5701C136.98 99.8601 137.48 100.29 137.68 100.78C138.04 101.68 138.59 101.87 139.49 101.83C140.41 101.79 141.27 101.87 141.57 100.73C141.62 100.54 141.81 100.37 141.98 100.24C142.53 99.8401 142.57 99.3801 142.35 98.7501C141.53 96.3101 140.77 93.8501 139.97 91.4001C138.99 88.3501 137.99 85.3101 136.94 82.0901ZM136.82 122.89C136.88 122.9 136.94 122.92 137 122.93C137.14 122.53 137.29 122.14 137.42 121.74C139.05 116.7 140.68 111.66 142.3 106.62C142.41 106.29 142.62 105.83 142.48 105.62C142.01 104.88 141.54 103.99 140.83 103.61C140.18 103.27 139.2 103.43 138.4 103.57C138.07 103.63 137.86 104.24 137.55 104.55C137.18 104.93 136.72 105.22 136.37 105.62C136.11 105.92 135.78 106.34 135.8 106.69C136.12 112.1 136.48 117.5 136.82 122.89Z" fill="#33A9DF"/>
</svg>
