<svg width="146" height="145" viewBox="0 0 146 145" fill="none" xmlns="http://www.w3.org/2000/svg">
<path d="M145.16 68.6899C145.1 67.8499 145.09 66.9999 145.01 66.1499C144.92 65.1499 144.8 64.1599 144.65 63.1699C144.43 61.6599 144.23 60.1499 143.94 58.6599C142.73 52.3499 140.69 46.3101 137.83 40.5601C131.9 28.6301 123.35 19.0401 112.16 11.8101C104.45 6.83006 96.07 3.46995 87.06 1.69995C85.52 1.39995 83.97 1.14994 82.41 0.939941C81.32 0.789941 80.22 0.720005 79.12 0.630005C78.06 0.540005 77 0.470024 75.94 0.400024C75.9 0.400024 75.86 0.359966 75.82 0.339966C74.04 0.339966 72.26 0.339966 70.48 0.339966C69.95 0.379966 69.41 0.419971 68.88 0.469971C66.67 0.709971 64.45 0.899961 62.25 1.20996C55.69 2.11996 49.42 4.05002 43.39 6.77002C36.45 9.90002 30.16 14.0499 24.53 19.1899C18.47 24.7199 13.5 31.0999 9.61002 38.3199C6.11002 44.8199 3.67004 51.7 2.29004 58.95C2.03004 60.33 1.79002 61.7101 1.58002 63.0901C1.44002 64.0501 1.36004 65.02 1.29004 65.99C1.20004 67.19 1.10003 68.4001 1.06003 69.6101C1.01003 71.4501 0.920044 73.2901 1.01004 75.1201C1.11004 77.3401 1.32003 79.56 1.59003 81.77C2.08003 85.82 2.96004 89.7899 4.16004 93.6899C7.12004 103.3 11.86 111.92 18.41 119.55C24.59 126.75 31.92 132.51 40.38 136.83C46.3 139.85 52.52 142.02 59.03 143.3C61.06 143.7 63.12 143.98 65.18 144.26C66.35 144.42 67.53 144.47 68.71 144.57C69.23 144.61 69.74 144.66 70.26 144.71C72.16 144.71 74.06 144.71 75.96 144.71C76.05 144.69 76.13 144.65 76.22 144.64C77.7 144.54 79.19 144.53 80.66 144.33C83.14 144 85.62 143.63 88.07 143.13C96.93 141.29 105.14 137.87 112.69 132.89C123.21 125.96 131.38 116.9 137.2 105.72C140.65 99.08 142.99 92.07 144.25 84.7C144.52 83.11 144.71 81.5099 144.91 79.8999C145 79.1399 145.02 78.3701 145.07 77.6101C145.12 76.8701 145.17 76.1299 145.23 75.3999C145.23 75.3599 145.27 75.32 145.29 75.28C145.29 73.48 145.29 71.6701 145.29 69.8701C145.25 69.4601 145.18 69.0799 145.16 68.6899ZM105.68 62.51C105.5 64.47 105.09 66.3699 104.28 68.1699C102.67 71.7499 99.89 73.9199 96.14 74.9099C96.01 74.9499 95.87 74.99 95.65 75.05C95.83 75.15 95.94 75.21 96.05 75.27C98 76.34 99.81 77.6001 101.26 79.3201C103.09 81.5001 104.03 84.0001 104.04 86.8601C104.06 91.0601 102.81 94.8899 100.63 98.4199C98.38 102.07 95.04 104.2 90.88 105.06C89.81 105.28 88.72 105.43 87.64 105.5C86.27 105.59 84.88 105.59 83.5 105.57C82.69 105.56 81.88 105.44 81.07 105.35C79.93 105.22 78.79 105.09 77.66 104.92C76.87 104.81 76.1 104.63 75.29 104.48C74.21 108.79 73.14 113.08 72.07 117.41C69.46 116.76 66.89 116.12 64.28 115.47C65.34 111.21 66.4 106.99 67.46 102.72C65.4 102.19 63.35 101.65 61.25 101.11C60.19 105.37 59.12 109.63 58.06 113.91C55.45 113.26 52.88 112.62 50.27 111.97C51.34 107.65 52.41 103.36 53.5 98.99C48.27 97.67 43.06 96.36 37.82 95.04C37.87 94.91 37.91 94.7899 37.96 94.6699C39.14 91.9399 40.33 89.21 41.51 86.47C41.63 86.19 41.75 86.14 42.04 86.21C43.71 86.65 45.39 87.08 47.07 87.48C47.61 87.61 48.14 87.7501 48.73 87.6201C49.92 87.3501 50.66 86.61 50.94 85.49C52.25 80.33 53.53 75.17 54.82 70.01C56.39 63.72 57.98 57.4299 59.5 51.1299C59.97 49.1799 59.32 47.43 57.32 46.54C56.2 46.05 54.97 45.78 53.78 45.45C52.66 45.15 51.52 44.91 50.35 44.63C51.04 41.87 51.72 39.1201 52.42 36.3101C57.65 37.6201 62.87 38.93 68.13 40.24C69.21 35.93 70.27 31.68 71.33 27.4C73.92 28.05 76.49 28.69 79.12 29.34C78.08 33.53 77.04 37.69 75.99 41.89C78.08 42.38 80.13 42.86 82.23 43.36C83.26 39.22 84.3 35.08 85.34 30.9C87.95 31.55 90.52 32.19 93.13 32.84C92.07 37.11 91.01 41.35 89.94 45.65C90.1 45.71 90.25 45.7699 90.4 45.8199C93.28 46.8499 96.08 48.04 98.66 49.71C100.58 50.96 102.3 52.4301 103.61 54.3301C105.32 56.8001 105.95 59.54 105.68 62.51Z" fill="#87888C"/>
<path d="M98.6701 49.71C96.0901 48.04 93.2901 46.8499 90.4101 45.8199C90.2601 45.7699 90.1101 45.71 89.9501 45.65C91.0201 41.36 92.0801 37.11 93.1401 32.84C90.5301 32.19 87.9601 31.55 85.3501 30.9C84.3101 35.08 83.2701 39.22 82.2401 43.36C80.1401 42.87 78.0801 42.38 76.0001 41.89C77.0501 37.7 78.0801 33.53 79.1301 29.34C76.5001 28.68 73.9301 28.04 71.3401 27.4C70.2701 31.68 69.2101 35.93 68.1401 40.24C62.8801 38.92 57.6701 37.6201 52.4301 36.3101C51.7301 39.1201 51.0501 41.87 50.3601 44.63C51.5301 44.91 52.6701 45.15 53.7901 45.45C54.9801 45.77 56.2001 46.04 57.3301 46.54C59.3301 47.42 59.9801 49.1699 59.5101 51.1299C57.9901 57.4299 56.3901 63.72 54.8301 70.01C53.5401 75.17 52.2701 80.34 50.9501 85.49C50.6601 86.61 49.9201 87.3501 48.7401 87.6201C48.1601 87.7501 47.6201 87.61 47.0801 87.48C45.4001 87.08 43.7201 86.65 42.0501 86.21C41.7601 86.13 41.6401 86.19 41.5201 86.47C40.3501 89.21 39.1601 91.9399 37.9701 94.6699C37.9201 94.7899 37.8801 94.9 37.8301 95.04C43.0701 96.36 48.2801 97.67 53.5101 98.99C52.4301 103.35 51.3601 107.65 50.2801 111.97C52.8901 112.62 55.4601 113.26 58.0701 113.91C59.1401 109.63 60.2001 105.37 61.2601 101.11C63.3601 101.66 65.4101 102.19 67.4701 102.72C66.4101 106.99 65.3501 111.21 64.2901 115.47C66.9001 116.12 69.4701 116.76 72.0801 117.41C73.1601 113.08 74.2301 108.8 75.3001 104.48C76.1101 104.63 76.8901 104.81 77.6701 104.92C78.8001 105.09 79.9401 105.22 81.0801 105.35C81.8901 105.44 82.7001 105.56 83.5101 105.57C84.8901 105.59 86.2701 105.59 87.6501 105.5C88.7401 105.43 89.8301 105.28 90.8901 105.06C95.0501 104.2 98.4001 102.07 100.64 98.4199C102.82 94.8899 104.07 91.0601 104.05 86.8601C104.03 84.0001 103.1 81.5001 101.27 79.3201C99.8201 77.6001 98.0201 76.34 96.0601 75.27C95.9501 75.21 95.8401 75.15 95.6601 75.05C95.8801 74.99 96.0201 74.9499 96.1501 74.9099C99.9001 73.9199 102.68 71.7499 104.29 68.1699C105.1 66.3699 105.52 64.47 105.69 62.51C105.96 59.55 105.32 56.8001 103.62 54.3301C102.31 52.4201 100.59 50.95 98.6701 49.71ZM82.8401 93.6699C81.1401 94.2099 79.3801 94.37 77.6101 94.28C76.2601 94.22 74.9101 94.0899 73.5701 93.9099C70.6901 93.5199 67.8801 92.78 65.0801 92.04C64.6501 91.93 64.2201 91.82 63.7601 91.7C65.1901 85.96 66.6101 80.27 68.0401 74.54C69.2101 74.81 70.3501 75.0701 71.4901 75.3301C74.2901 75.9801 77.0601 76.71 79.7201 77.79C81.7001 78.6 83.5901 79.55 85.2101 80.98C86.5201 82.14 87.5201 83.5 87.8501 85.25C88.6001 89.08 86.5501 92.4999 82.8401 93.6699ZM90.3901 62.05C90.1101 65.18 88.5401 67.78 84.4701 68.53C83.3401 68.74 82.1601 68.8301 81.0101 68.8101C79.9001 68.8001 78.8001 68.61 77.7001 68.45C75.1301 68.07 72.6401 67.36 70.1401 66.71C70.1201 66.7 70.1001 66.6899 70.0301 66.6399C71.3101 61.4899 72.6001 56.3301 73.9001 51.1101C75.3501 51.4501 76.7601 51.7501 78.1601 52.1001C80.5301 52.6801 82.8601 53.39 85.0501 54.5C86.5301 55.25 87.9001 56.15 88.9601 57.46C90.0301 58.8 90.5401 60.33 90.3901 62.05Z" fill="#FEFEFE"/>
<path d="M85.23 80.99C83.61 79.56 81.72 78.61 79.74 77.8C77.08 76.71 74.3 75.9801 71.51 75.3401C70.37 75.0801 69.22 74.82 68.06 74.55C66.63 80.27 65.21 85.97 63.78 91.71C64.24 91.83 64.67 91.94 65.1 92.05C67.91 92.79 70.71 93.5299 73.59 93.9199C74.93 94.0999 76.28 94.22 77.63 94.29C79.4 94.37 81.15 94.2099 82.86 93.6799C86.57 92.5099 88.62 89.09 87.89 85.27C87.53 83.5 86.54 82.14 85.23 80.99Z" fill="#87888C"/>
<path d="M85.04 54.5C82.85 53.39 80.52 52.6901 78.15 52.1001C76.75 51.7601 75.35 51.4501 73.89 51.1101C72.59 56.3201 71.3 61.4899 70.02 66.6399C70.09 66.6799 70.11 66.7 70.13 66.71C72.63 67.37 75.12 68.08 77.69 68.45C78.79 68.61 79.9 68.8001 81 68.8101C82.15 68.8201 83.33 68.73 84.46 68.53C88.53 67.79 90.1 65.18 90.38 62.05C90.53 60.33 90.03 58.8 88.94 57.46C87.89 56.15 86.52 55.25 85.04 54.5Z" fill="#87888C"/>
</svg>
