<svg width="100" height="99" viewBox="0 0 100 99" fill="none" xmlns="http://www.w3.org/2000/svg">
<path d="M43.9 78.17C39.56 78.82 35.6801 78.23 32.0401 76.26C24.6701 72.29 20.54 65.86 18.64 57.94C14.48 40.6 23.2001 15.8 44.0501 6.96C60.6601 -0.0800018 79.72 6.01993 90.38 21.6399C110.78 51.5299 93.37 92.37 57.63 98.41C55 98.85 52.3 98.8601 49.61 98.8101C52.16 97.9301 54.79 97.2499 57.23 96.1499C71.92 89.4899 80.4001 77.73 84.3001 62.45C86.8501 52.44 86.7701 42.49 82.1701 32.96C78.5201 25.39 73.1001 19.65 64.8101 17.24C54.8401 14.34 44.48 18.3901 37.72 27.5701C26.66 42.5901 29.1601 66.1201 43.1701 77.3601C43.3901 77.5201 43.55 77.76 43.9 78.17Z" fill="#0092F7"/>
<path d="M55.5501 20.9601C61.0601 20.1801 66.0101 21.6101 70.3801 25.0201C77.2401 30.3901 80.7901 37.72 81.2801 46.19C82.2601 63.43 76.3601 77.9601 62.1601 88.2301C44.9001 100.7 21.4701 95.9101 8.91008 77.8001C-11.7599 47.9901 5.75999 6.62012 41.57 0.770117C44.18 0.340117 46.8601 0.330186 49.5401 0.340186C44.4901 1.71019 39.7101 3.61013 35.4001 6.53013C23.2801 14.7301 16.6101 26.3902 14.0301 40.5702C12.4201 49.4302 12.99 58.0901 16.99 66.3001C20.7 73.9101 26.17 79.6801 34.57 82.0101C44.38 84.7401 54.56 80.8102 61.24 71.8602C72.58 56.6702 69.9701 33.0401 55.8901 21.7901C55.7001 21.6401 55.44 21.5701 55.22 21.4701C55.33 21.3101 55.4401 21.1301 55.5501 20.9601Z" fill="#0092F7"/>
</svg>
