<svg width="205" height="205" viewBox="0 0 205 205" fill="none" xmlns="http://www.w3.org/2000/svg">
<path d="M153.836 153.462C182.024 125.274 182.024 79.5728 153.836 51.3851C125.648 23.1973 79.9468 23.1972 51.7591 51.385C23.5713 79.5728 23.5712 125.274 51.759 153.462C79.9467 181.65 125.648 181.65 153.836 153.462Z" fill="#F2F2F2"/>
<path d="M87.6499 70.52C86.8299 74.29 86.0099 78.07 85.1899 81.84C84.3099 85.89 83.43 89.94 82.55 93.98C81.68 97.96 80.82 101.94 79.95 105.93C79.16 109.57 78.3701 113.22 77.5801 116.86C76.7401 120.71 75.9101 124.56 75.0701 128.41C74.1601 132.58 73.2601 136.74 72.3501 140.91C71.3901 145.34 70.43 149.77 69.46 154.2C69.44 154.3 69.3701 154.4 69.3301 154.49C69.3301 154.51 69.3301 154.53 69.3301 154.56C69.4401 154.51 69.5499 154.47 69.6499 154.41C79.1599 147.58 88.6799 140.75 98.1899 133.92C98.2799 133.86 98.36 133.79 98.46 133.71C94.93 112.4 91.4001 91.1101 87.8701 69.8101C87.7601 70.0501 87.6999 70.28 87.6499 70.52Z" fill="#384182"/>
<path d="M119.25 48.22C119.34 48.25 119.43 48.2801 119.53 48.3101C119.54 48.2901 119.55 48.28 119.56 48.26C118.22 46.8 116.89 45.33 115.55 43.87C113.07 43.87 110.59 43.87 108.1 43.87C108.12 43.89 108.15 43.9201 108.17 43.9301C111.87 45.3601 115.56 46.79 119.25 48.22Z" fill="#F0533C"/>
<path d="M88.9199 69.36C98.4599 90.72 107.98 112.02 117.5 133.32C117.52 133.32 117.54 133.31 117.56 133.31C120.45 113.75 123.34 94.18 126.24 74.59C113.79 72.84 101.38 71.11 88.9199 69.36Z" fill="#F0513A"/>
<path d="M88.5701 70.22C92.0601 91.31 95.55 112.41 99.05 133.52C104.95 133.6 110.82 133.67 116.76 133.75C107.37 112.53 97.9999 91.36 88.6399 70.2C88.6199 70.21 88.6001 70.21 88.5701 70.22Z" fill="#394282"/>
<path d="M125.88 73.64C124.7 68.61 123.53 63.62 122.35 58.61C111.63 61.98 100.96 65.34 90.29 68.7C90.29 68.72 90.29 68.74 90.3 68.76C102.14 70.38 113.98 72.01 125.88 73.64Z" fill="#F79535"/>
<path d="M127.05 75.8101C127 75.7501 126.93 75.7 126.85 75.62C126.83 75.76 126.82 75.8499 126.81 75.9399C126.53 77.8199 126.24 79.6899 125.96 81.5699C125.66 83.5999 125.36 85.64 125.06 87.67C124.76 89.69 124.45 91.71 124.15 93.73C123.87 95.61 123.6 97.49 123.32 99.36C122.97 101.68 122.62 104 122.28 106.32C121.86 109.16 121.43 112 121.01 114.84C120.59 117.69 120.16 120.54 119.74 123.39C119.36 125.95 118.98 128.52 118.6 131.08C118.64 131.08 118.68 131.08 118.72 131.08C118.74 131.02 118.76 130.95 118.78 130.89C120.53 124.41 122.27 117.93 124.02 111.46C125.97 104.22 127.93 96.97 129.88 89.73C130.56 87.21 131.24 84.69 131.93 82.16C131.98 81.99 132.01 81.84 131.87 81.67C130.24 79.72 128.65 77.7601 127.05 75.8101Z" fill="#394283"/>
<path d="M89.76 68.23C89.77 68.25 89.78 68.27 89.79 68.28C100.56 64.79 111.34 61.3099 122.11 57.8199C122.11 57.7999 122.1 57.78 122.1 57.76C118.69 56.28 115.29 54.7999 111.89 53.3199C104.5 58.2999 97.13 63.27 89.76 68.23Z" fill="#394283"/>
<path d="M136.33 53.64C131.03 52.04 125.73 50.48 120.39 48.9C121.17 51.71 121.93 54.47 122.71 57.26C127.27 56.07 131.8 54.87 136.33 53.64Z" fill="#F79635"/>
<path d="M116.42 54.42C113.48 51.05 110.54 47.68 107.59 44.3C105.25 45.38 102.95 46.45 100.6 47.54C105.9 49.88 111.14 52.19 116.38 54.5C116.39 54.46 116.4 54.44 116.42 54.42Z" fill="#F0523B"/>
<path d="M108.9 53.33C104.34 53.48 99.78 53.63 95.23 53.78C94.55 55.71 93.89 57.5999 93.2 59.5699C98.48 57.4899 103.7 55.44 108.91 53.39C108.91 53.37 108.91 53.35 108.9 53.33Z" fill="#3A4383"/>
<path d="M97.0701 52.92C99.7501 52.85 102.43 52.79 105.11 52.72C106.33 52.69 107.54 52.67 108.76 52.63C109.16 52.62 109.56 52.6 109.97 52.58C109.97 52.57 109.97 52.55 109.97 52.54C106.62 51.06 103.26 49.58 99.8701 48.09C98.4101 49.7 96.97 51.2901 95.48 52.9301C95.61 52.9401 95.69 52.9499 95.76 52.9399C96.2 52.9299 96.6401 52.93 97.0701 52.92Z" fill="#F0523B"/>
<path d="M119.37 49.4301C119.21 49.3501 119.08 49.29 118.95 49.24C116.21 48.05 113.46 46.85 110.72 45.66C110.24 45.45 109.75 45.25 109.27 45.05C109.25 45.04 109.22 45.04 109.2 45.03C109.21 45.05 109.22 45.07 109.23 45.09C109.29 45.17 109.34 45.26 109.4 45.33C112.01 48.4 114.62 51.48 117.24 54.55C117.29 54.6 117.34 54.65 117.42 54.73C118.08 52.95 118.72 51.2001 119.37 49.4301Z" fill="#F79636"/>
<path d="M121.7 56.9399C121.1 54.5599 120.51 52.25 119.93 49.95C119.91 49.95 119.89 49.95 119.87 49.95C119.28 51.7 118.7 53.45 118.11 55.21C119.29 55.78 120.46 56.3399 121.7 56.9399Z" fill="#F0533D"/>
<path d="M118.44 131.92C118.46 131.92 118.48 131.93 118.5 131.93C118.57 131.65 118.64 131.36 118.71 131.08C118.67 131.08 118.63 131.08 118.59 131.08C118.54 131.36 118.49 131.64 118.44 131.92Z" fill="#767EAA"/>
<path d="M89.0901 67.9301C89.2001 67.8601 89.3199 67.79 89.4299 67.72C93.3799 65.06 97.32 62.4 101.27 59.75C104.24 57.75 107.2 55.76 110.17 53.76C110.29 53.68 110.42 53.61 110.5 53.49C110.41 53.49 110.34 53.51 110.27 53.54C104.66 55.73 99.0499 57.93 93.4399 60.12C93.2599 60.19 93.14 60.29 93.05 60.46C91.76 62.85 90.4699 65.24 89.1799 67.62C89.1299 67.71 89.1001 67.8 89.0601 67.89C89.0501 67.91 89.04 67.93 89.03 67.95C89.04 67.94 89.0601 67.9301 89.0901 67.9301Z" fill="#F0523C"/>
</svg>
