<svg width="175" height="175" viewBox="0 0 175 175" fill="none" xmlns="http://www.w3.org/2000/svg">
<path d="M157.464 103.909C166.624 65.1137 142.6 26.2374 103.805 17.0766C65.0094 7.91591 26.1332 31.9397 16.9725 70.7353C7.81173 109.531 31.8354 148.407 70.631 157.568C109.427 166.729 148.303 142.705 157.464 103.909Z" fill="black"/>
<path d="M51.95 116.08C52.4 115.08 52.82 114.26 53.15 113.4C54.2 110.68 54.46 107.87 54.1 104.99C54.1 104.96 54.11 104.93 54.1 104.91C53.91 104.48 53.99 103.75 53.31 103.8C52.61 103.85 52.73 104.51 52.73 105C52.7 106.97 51.81 108.56 50.26 109.38C50.27 109.18 50.25 108.99 50.3 108.83C50.97 106.87 50.81 104.88 50.49 102.9C50.06 100.16 49.93 97.4398 50.6 94.7298C50.91 93.4998 51.33 92.2899 51.7 91.0699C51.85 90.5899 52.12 90.0098 51.5 89.7398C50.79 89.4398 50.6 90.1099 50.39 90.5799C49.77 91.9299 49.19 93.2897 48.59 94.6397C48.47 94.9097 48.32 95.1697 48.11 95.4097C47.9 92.6497 48.32 89.9998 49.32 87.4598C50.54 84.3598 51.81 81.2798 53.06 78.1898C53.12 78.0498 53.14 77.8999 53.24 77.5699C50.88 79.0399 48.96 80.7199 47.37 82.7999C47.28 82.7699 47.19 82.7298 47.11 82.6998C47.33 81.4098 47.46 80.0999 47.78 78.8399C48.72 75.1899 50.6 72.0899 53.37 69.5299C53.76 69.1699 54.2 68.8197 54.48 68.3797C54.68 68.0597 54.8 67.5198 54.67 67.1998C54.57 66.9598 54.02 66.7999 53.66 66.7999C53.14 66.7899 52.62 66.9499 51.95 67.0699C54.99 63.6399 58.41 60.8699 62.46 58.5599C61.76 58.1899 61.19 57.9797 60.72 57.6397C59.76 56.9397 58.77 56.2597 57.97 55.3997C57.61 55.0097 57.41 54.1397 57.58 53.6397C58.44 51.1497 58.04 48.6998 57.56 46.2398C56.97 43.1998 56.24 40.1699 55.85 37.0999C55.5 34.3599 55.88 31.6199 57.13 29.0899C57.97 27.3999 58.87 27.1497 60.45 28.1497C63.27 29.9297 65.87 31.9999 68.24 34.3399C71.72 37.7699 75.69 40.5798 79.78 43.2198C80.09 43.4198 80.68 43.4299 81.02 43.2699C84.73 41.5599 88.57 41.1699 92.54 42.0299C93.39 42.2099 94.22 42.5498 94.99 42.9598C96.52 43.7798 97.93 43.6099 99.24 42.5899C100.64 41.4899 101.97 40.2997 103.33 39.1497C107.99 35.2297 112.65 31.3097 117.32 27.3997C118.08 26.7597 118.48 26.7199 119.06 27.5199C119.71 28.3999 120.26 29.3998 120.64 30.4298C121.74 33.3798 122.31 36.4299 121.63 39.5799C121.43 40.5299 120.99 41.4299 120.65 42.3499C119.72 44.8799 118.92 47.4397 118.93 50.1597C118.93 51.1197 119.18 52.0999 119.46 53.0299C119.84 54.2399 119.63 55.0398 118.54 55.7498C117.81 56.2298 117.06 56.6798 116.34 57.1798C115.05 58.0798 115.04 59.4299 116.46 60.0599C119.88 61.5699 122.3 64.2799 124.88 66.8099C125.02 66.9499 125.12 67.1298 125.35 67.4498C124.6 67.2298 124.05 67.0098 123.49 66.9198C123.19 66.8698 122.7 66.9497 122.58 67.1397C122.42 67.3897 122.45 67.8597 122.57 68.1597C122.7 68.4897 123.02 68.7299 123.26 69.0199C124.53 70.5199 125.91 71.9399 127.05 73.5299C128.69 75.8499 129.39 78.5599 129.82 81.3399C129.9 81.8599 129.96 82.3698 129.88 82.9598C129.38 82.3198 128.93 81.6499 128.38 81.0599C127.68 80.2999 126.94 79.5598 126.12 78.9298C125.82 78.6998 125.25 78.8399 124.8 78.8099C124.78 79.1999 124.63 79.6298 124.76 79.9598C125.9 82.8598 127.15 85.7297 128.25 88.6397C129.03 90.7097 129.16 92.8999 129.11 95.0999C129.11 95.1999 129.06 95.2999 129 95.5699C128.25 93.9399 127.58 92.4598 126.9 90.9898C126.86 90.8898 126.83 90.7898 126.79 90.6898C126.56 90.2298 126.4 89.5499 125.72 89.7699C125.03 89.9899 125.33 90.6099 125.48 91.0699C126.22 93.2699 126.92 95.4799 126.96 97.8099C126.99 99.4199 126.89 101.05 126.71 102.65C126.47 104.83 126.2 107 126.91 109.14C126.93 109.21 126.89 109.29 126.86 109.48C125.69 108.55 124.77 107.55 124.53 106.07C124.49 105.83 124.48 105.59 124.45 105.35C124.4 104.95 124.53 104.44 123.89 104.38C123.21 104.31 123.19 104.86 123.11 105.28C122.77 107.16 122.76 109.04 123.12 110.92C123.46 112.68 124.23 114.23 125.25 115.68C125.43 115.93 125.59 116.2 125.76 116.45C125.71 116.51 125.66 116.58 125.61 116.64C124.98 116.21 124.28 115.86 123.73 115.35C122.81 114.5 122.02 113.52 121.11 112.66C120.85 112.41 120.32 112.16 120.06 112.27C119.49 112.49 119.78 113.04 119.93 113.44C121.01 116.26 122.2 119.03 123.16 121.89C123.74 123.63 123.97 125.5 124.35 127.31C124.38 127.43 124.33 127.57 124.31 127.86C123.41 127.45 122.55 127.11 121.74 126.68C120.59 126.08 119.44 125.46 118.35 124.75C116.11 123.29 113.71 122.96 111.17 123.64C107.28 124.69 104.01 126.65 101.9 130.22C100.36 132.83 100.34 135.62 101.03 138.48C101.31 139.63 101.55 140.79 101.82 141.99C93.23 144.01 84.7 144.31 76.08 142.72C76.44 141.16 76.78 139.64 77.15 138.14C78.81 131.27 74.53 126.64 69.61 124.6C68.09 123.97 66.42 123.59 64.78 123.35C62.73 123.05 60.97 124.04 59.25 125.05C57.69 125.96 56.07 126.75 54.47 127.58C54.34 127.65 54.18 127.67 53.86 127.77C53.96 126.11 54.04 124.55 54.15 123C54.39 119.61 55.4 116.45 57.1 113.51C57.21 113.31 57.3 113.05 57.27 112.83C57.24 112.61 57.09 112.33 56.91 112.22C56.76 112.14 56.42 112.21 56.28 112.34C55.97 112.62 55.73 112.98 55.47 113.32C54.62 114.5 53.52 115.44 51.95 116.08ZM77.56 98.0299C75.17 98.7799 72.85 99.5198 70.53 100.21C69.96 100.38 69.67 100.7 69.64 101.27C69.58 102.41 69.48 103.56 69.49 104.7C69.49 110.37 70.56 115.81 72.79 121.04C74.23 124.41 75.98 127.54 78.92 129.84C85.37 134.87 94.01 134.87 100.27 129.21C103.57 126.22 105.33 122.37 106.66 118.24C108.4 112.82 108.77 107.28 108.24 101.64C108.06 99.6797 108.06 99.6797 106.1 99.4097C105.79 99.3697 105.47 99.3098 105.16 99.2598C103.53 98.9498 101.9 98.6299 100.25 98.3199C102.3 93.5899 101.23 87.5697 100.03 84.1397C100.05 84.4897 100.04 84.7097 100.08 84.9097C100.6 87.6697 100.85 90.4498 100.54 93.2498C100.31 95.3098 99.81 97.2697 98.42 98.8997C96.29 101.39 91.91 101.54 89.43 100.68C88.73 100.44 89.11 99.8099 89.09 99.3599C89.08 99.1899 89.42 98.9299 89.65 98.8199C90.53 98.4099 91.54 98.1797 92.32 97.6397C95.51 95.3997 95.81 91.5199 93 89.0599C92.53 88.6499 91.85 88.3299 91.23 88.2699C89.67 88.1199 88.09 88.0599 86.52 88.1199C85.85 88.1399 85.08 88.3799 84.54 88.7799C81.77 90.8099 81.84 95.1598 84.71 97.2598C85.78 98.0398 87.07 98.5098 88.38 99.1898C88.38 99.2998 88.34 99.6198 88.39 99.9298C88.47 100.52 88.16 100.74 87.66 100.87C83.06 102.06 78.41 98.6999 77.46 95.3299C76.93 93.4399 76.79 91.5099 76.97 89.5599C77.02 89.0299 77.07 88.4998 77.13 87.9698C77.19 87.4498 77.27 86.9297 77.34 86.4097C76.18 90.2797 75.67 94.1499 77.56 98.0299ZM101.41 65.3797C100.51 65.4497 99.65 65.7198 99.22 66.4298C98.41 67.7498 97.69 69.1299 97.02 70.5299C96.86 70.8599 96.91 71.5998 97.13 71.7198C97.68 72.0498 97.91 71.4399 98.19 71.0699C98.5 70.6499 98.8 70.3098 99.44 70.4698C101.67 71.0498 102.78 70.6198 104.12 68.7098C104.6 68.0298 105.26 67.6899 106.07 67.6199C106.39 67.5899 106.73 67.6499 107.02 67.5599C107.26 67.4899 107.46 67.2499 107.67 67.0899C107.49 66.8699 107.33 66.5098 107.11 66.4598C105.22 66.0698 103.31 65.7397 101.41 65.3797ZM77.01 70.8599C77.27 70.8099 77.63 70.8097 77.93 70.6597C78.74 70.2697 79.21 70.6798 79.69 71.2498C79.91 71.5198 80.28 71.6599 80.58 71.8599C80.65 71.4799 80.86 71.0398 80.75 70.7298C80.38 69.7198 79.94 68.7299 79.44 67.7699C78.58 66.1099 77.35 65.1497 75.31 65.6397C73.79 66.0097 72.23 66.1798 70.71 66.4898C70.47 66.5398 70.29 66.8799 70.08 67.0899C70.35 67.2599 70.61 67.5699 70.88 67.5699C72.28 67.5699 73.29 68.1299 74.07 69.3099C74.71 70.2999 75.74 70.7599 77.01 70.8599ZM116.66 100.66C116.19 103.19 115.71 105.72 118.02 107.95C115.67 107.65 114.46 106.38 113.7 104.54C113.59 104.28 113.18 103.96 112.93 103.99C112.68 104.01 112.29 104.4 112.26 104.66C111.99 106.7 112.23 108.61 113.98 110.01C114.3 110.27 114.63 110.52 114.99 110.81C113.92 111.73 113.02 111.43 111.93 110.82C112.78 111.86 113.97 112.17 114.89 111.75C115.68 111.39 115.83 110.84 115.31 110.16C115.05 109.82 114.72 109.54 114.46 109.21C113.91 108.53 113.39 107.82 113.38 106.81C114.03 107.36 114.56 107.88 115.17 108.29C116.15 108.95 117.27 109.23 118.44 109.06C118.8 109.01 119.31 108.71 119.41 108.41C119.51 108.13 119.17 107.69 118.99 107.34C118.92 107.21 118.77 107.11 118.64 107.02C117.73 106.39 117.24 105.49 117.09 104.43C116.88 103.17 116.79 101.92 116.66 100.66ZM118.15 32.7098C118.22 31.4298 117.66 30.9199 116.63 31.2699C115.86 31.5299 115.09 31.8899 114.4 32.3199C110.9 34.5299 107.93 37.3399 105.32 40.5299C104.3 41.7799 103.32 43.0898 102.46 44.4598C101.64 45.7698 101.88 46.8898 103.04 47.9498C102.93 47.6098 102.89 47.3698 102.78 47.1798C102.43 46.6198 102.47 46.0599 102.77 45.5199C103.03 45.0599 103.26 44.5598 103.62 44.1798C106.34 41.3198 109.02 38.4398 111.84 35.6798C113.22 34.3298 114.81 33.1899 116.38 32.0599C117.35 31.3599 117.56 31.4998 118.15 32.7098ZM59.73 32.5699C60.4 31.5599 60.51 31.5299 61.49 32.0799C61.72 32.2099 61.95 32.3599 62.15 32.5299C63.1 33.3399 64.07 34.1298 64.99 34.9798C68.27 37.9898 71.31 41.2198 74.06 44.7298C74.92 45.8298 75.32 46.9498 74.41 48.2198C74.4 48.2398 74.45 48.3099 74.47 48.3499C75.67 47.2899 75.9 46.1298 75 44.6898C74.12 43.2798 73.12 41.9299 72.1 40.5999C69.59 37.3199 66.57 34.5598 63.17 32.2198C62.59 31.8198 61.92 31.4999 61.25 31.2899C60.29 30.9699 59.74 31.4399 59.73 32.5699ZM60.45 110.22C61.35 109.53 62.46 107.05 62.43 105.83C62.42 105.57 62.31 105.18 62.13 105.1C61.92 105.01 61.57 105.16 61.33 105.29C61.16 105.38 61.07 105.62 60.92 105.77C60.37 106.32 59.8 106.86 59.24 107.4C59.18 107.36 59.12 107.32 59.06 107.27C59.68 105.68 60.13 104.07 59.75 102.35C59.52 102.95 59.43 103.61 59.18 104.19C58.68 105.38 58.06 106.53 57.56 107.72C57.44 108 57.44 108.53 57.62 108.7C57.85 108.92 58.37 109.04 58.66 108.93C59.3 108.7 59.87 108.3 60.47 107.96C60.65 107.86 60.82 107.73 61.2 107.48C60.92 108.53 60.7 109.33 60.45 110.22ZM83.76 74.6297C84.91 73.0097 86.46 72.5798 88.34 72.9798C87.35 72.3798 86.34 72.3298 85.33 72.7398C84.5 73.0798 83.93 73.6797 83.76 74.6297ZM86.01 74.3797C84.99 74.4897 84.22 75.2799 84.11 76.3199C84.71 75.7099 85.36 75.0397 86.01 74.3797ZM95.74 142.02C95.74 141.72 95.74 141.37 95.74 141.12C95.36 141.07 94.96 141.02 94.48 140.95C94.64 141.18 94.77 141.37 94.89 141.54C94.76 141.78 94.65 141.99 94.53 142.2C94.98 142.14 95.37 142.08 95.74 142.02Z" fill="#DCDDDD"/>
<path d="M117.85 131.58C119.88 133.61 122.4 134.73 125.11 135.5C125.37 135.57 125.62 135.65 125.88 135.71C128.28 136.33 128.49 137.83 128.13 139.73C127.93 140.82 127.54 141.87 127.2 143.08C126.99 142.83 126.9 142.6 126.75 142.55C126.35 142.41 125.89 142.2 125.53 142.31C125.08 142.45 124.92 142.91 125.13 143.44C125.31 143.9 125.4 144.4 125.6 145.15C124.72 145 123.98 144.92 123.26 144.75C122.7 144.62 121.95 144.54 121.67 144.16C121.42 143.81 121.72 143.08 121.71 142.52C121.69 141.7 121.75 140.84 121.51 140.08C121.3 139.42 120.83 138.69 120.26 138.32C117.83 136.71 115.32 135.21 112.84 133.67C112.76 133.62 112.66 133.6 112.35 133.48C112.56 133.8 112.64 133.97 112.76 134.11C114.46 136.15 116.78 137.4 118.92 138.88C120.44 139.93 120.93 142.35 119.88 143.88C119.79 144.01 119.54 144.08 119.36 144.09C118.43 144.13 118.12 144.49 118.29 145.38C118.45 146.2 118 146.77 117.18 146.61C116.33 146.45 115.52 146.11 114.66 145.84C114.73 145.56 114.77 145.41 114.81 145.27C115.27 143.74 114.87 142.56 113.47 141.72C111.38 140.47 109.75 138.73 108.28 136.82C108.09 136.57 107.97 136.26 107.82 135.97C107.68 136.08 107.53 136.19 107.39 136.3C107.54 136.72 107.66 137.15 107.86 137.54C108.9 139.53 110.55 140.95 112.35 142.22C112.54 142.36 112.75 142.48 112.95 142.62C114.14 143.49 114.25 144.08 113.43 145.43C113.27 145.25 113.16 145 112.97 144.94C112.63 144.81 112.18 144.64 111.91 144.77C111.65 144.9 111.55 145.37 111.4 145.7C111.36 145.78 111.42 145.91 111.44 146.01C111.76 147.38 111.76 147.38 110.47 148C110.16 148.15 109.84 148.28 109.51 148.4C107.95 148.93 106.75 148.54 105.86 147.15C103.84 144.02 102.65 140.6 102.16 136.91C101.75 133.86 102.5 131.21 104.62 128.98C106.51 127 108.85 125.81 111.47 125.09C113.69 124.49 115.69 124.84 117.63 126.09C121.54 128.59 125.78 130.36 130.26 131.56C130.95 131.74 131.67 132.26 132.1 132.83C133.36 134.52 133.63 136.47 133.19 138.52C133.14 138.76 132.99 138.97 132.87 139.23C131.91 138.24 131.73 138.25 130.74 139.09C130.55 139.25 130.24 139.29 129.93 139.4C129.84 138.64 129.81 138 129.7 137.38C129.44 135.98 128.64 135.01 127.26 134.6C126.04 134.24 124.77 134.03 123.58 133.61C121.71 132.95 119.89 132.16 118.04 131.42C117.94 131.36 117.83 131.31 117.73 131.25C117.66 131.24 117.58 131.22 117.51 131.21C117.55 131.25 117.6 131.3 117.64 131.34C117.72 131.43 117.78 131.51 117.85 131.58ZM112.61 133.5C112.5 133.45 112.41 133.41 112.32 133.38C112.31 133.38 112.24 133.49 112.25 133.5C112.32 133.57 112.39 133.62 112.47 133.67C112.48 133.67 112.55 133.58 112.61 133.5Z" fill="#DBDCDC"/>
<path d="M65.92 133.37C63.29 135 60.68 136.66 58.04 138.26C56.99 138.89 56.55 139.84 56.51 140.96C56.47 141.98 56.61 143.01 56.68 144.22C55.68 144.48 54.55 144.81 53.39 145.06C52.82 145.18 52.6 144.89 52.84 144.32C52.95 144.05 53.03 143.77 53.11 143.49C53.26 142.98 53.2 142.52 52.68 142.27C52.18 142.03 51.75 142.19 51.41 142.61C51.33 142.71 51.26 142.82 51.07 143.1C50.51 141.37 49.93 139.81 50.02 138.08C50.02 138 50.04 137.92 50.05 137.84C50.2 136.89 50.7 136.24 51.64 135.95C52.63 135.65 53.62 135.35 54.59 135.01C56.75 134.26 58.7 133.16 60.36 131.57C60.39 131.49 60.43 131.42 60.46 131.34C60.36 131.37 60.25 131.39 60.15 131.42C58.15 132.2 56.17 133.02 54.16 133.74C53.22 134.08 52.19 134.18 51.23 134.49C49.33 135.12 48.41 136.41 48.34 138.42C48.33 138.68 48.34 138.95 48.34 139.39C47.98 139.27 47.65 139.25 47.45 139.07C46.5 138.25 46.34 138.23 45.41 139.08C44.86 138.52 44.68 137.84 44.84 136.35C45 134.88 45.34 133.45 46.46 132.37C46.79 132.05 47.22 131.75 47.66 131.64C52.4 130.37 56.87 128.48 61.01 125.86C62.82 124.71 64.69 124.57 66.67 125.09C70.04 125.97 72.93 127.62 74.87 130.62C76.23 132.73 76.34 135.02 76 137.45C75.52 140.88 74.19 143.97 72.51 146.94C71.68 148.41 70.41 148.92 68.8 148.42C68.42 148.3 68.05 148.15 67.69 147.97C66.43 147.35 66.42 147.34 66.79 145.99C66.94 145.43 66.92 144.99 66.35 144.71C65.79 144.44 65.38 144.63 65.08 145.15C65.03 145.24 64.94 145.3 64.87 145.38C64.01 144.47 64.13 143.52 65.08 142.75C66.5 141.59 67.93 140.44 69.24 139.17C70.05 138.39 70.7 137.42 70.78 136.22C70.7 136.14 70.62 136.07 70.53 135.99C70.21 136.39 69.88 136.77 69.59 137.19C68.2 139.15 66.39 140.65 64.43 142.01C63.25 142.82 62.97 143.7 63.39 145.04C63.57 145.62 63.48 145.92 62.86 146.06C62.27 146.19 61.71 146.5 61.12 146.58C60.23 146.71 59.83 146.22 60.01 145.35C60.2 144.44 59.71 144.03 58.24 144.09C58.1 143.05 57.89 141.99 57.84 140.92C57.8 140.03 58.39 139.43 59.13 138.94C60.79 137.83 62.45 136.72 64.03 135.51C64.78 134.94 65.36 134.15 66.02 133.46C66.04 133.4 66.06 133.34 66.08 133.28C66.02 133.32 65.97 133.35 65.92 133.37Z" fill="#DBDCDC"/>
<path d="M56.5 52.3701C56.54 52.2201 56.59 52.0599 56.63 51.9099C56.59 52.0599 56.55 52.2101 56.5 52.3701Z" fill="#F9B58A"/>
<path d="M59.4 58.31C59.19 58.15 59.01 58.0198 58.82 57.8898C56.55 56.3398 55.85 54.7 56.56 52.57L56.59 52.3898L56.72 51.9299C56.73 51.9099 56.74 51.88 56.74 51.86C56.76 51.8 56.78 51.7399 56.79 51.6799C56.97 49.2699 56.48 47 55.95 44.6C55.75 43.7 55.55 42.77 55.39 41.83L55.36 41.6699L55.24 41.77C54.79 42.13 54.35 42.47 53.92 42.81C52.98 43.55 52.08 44.2499 51.21 44.9899C48.25 47.5199 45.89 49.9599 44 52.4299C41.77 55.0899 39.85 57.9599 38.3 60.9599C38.16 61.2199 38.01 61.4799 37.87 61.7399C37.55 62.2999 37.22 62.8799 36.97 63.4899C36.3 65.0899 35.66 66.74 35.04 68.33C34.79 68.97 34.54 69.62 34.28 70.27C34.22 70.43 34.16 70.5999 34.1 70.7599C33.96 71.1099 33.82 71.48 33.74 71.85C33.27 74.14 32.8 76.4599 32.35 78.7099C32.2 79.4799 32.04 80.2499 31.89 81.0099C31.88 81.0399 31.87 81.07 31.86 81.09C31.83 81.16 31.8 81.24 31.79 81.32C31.35 85.51 31.3 89.19 31.64 92.57C31.92 96.41 32.63 100.2 33.75 103.82C33.79 103.97 33.83 104.11 33.87 104.26C33.96 104.57 34.04 104.89 34.15 105.2C35.63 109.7 37.41 113.55 39.57 116.96C39.6 117.02 39.63 117.08 39.66 117.14C39.72 117.27 39.79 117.4 39.87 117.53C42.15 121.2 44.84 124.59 47.85 127.6C48.02 127.77 48.19 127.98 48.36 128.17C48.78 128.67 49.21 129.19 49.75 129.3C49.83 129.32 49.9 129.32 49.98 129.32C50.43 129.32 50.92 129.07 51.41 128.83C51.65 128.71 51.9 128.58 52.13 128.5C52.14 128.5 52.16 128.49 52.17 128.49C52.22 128.48 52.28 128.47 52.32 128.42C52.36 128.37 52.4 128.32 52.45 128.26C52.58 128.11 52.72 127.95 52.73 127.77C52.78 127.12 52.81 126.45 52.84 125.81C52.89 124.71 52.94 123.56 53.09 122.46C53.26 121.18 53.55 119.89 53.83 118.64C53.95 118.09 54.08 117.52 54.2 116.96C54.22 116.86 54.24 116.76 54.27 116.62L54.37 116.12L54.18 116.24C52.66 117.23 51.04 117.8 48.95 118.07L49.54 117.11C51.47 114.86 52.58 112.14 52.85 109.02L52.87 108.82L52.71 108.93C52.49 109.08 52.31 109.26 52.13 109.44C51.97 109.6 51.81 109.76 51.64 109.88C50.76 110.49 50.01 110.93 49.28 111.27C49.09 111.36 48.63 111.2 48.41 111C48.32 110.92 48.33 110.48 48.45 110.27C49.87 107.88 49.54 105.25 49.26 102.92L48.76 97.27L47.46 100.06L47.35 100.01C46.88 97.7499 46.71 95.3699 46.85 92.9199C47.07 90.5499 47.72 88.0698 48.89 85.1298C49.17 84.4298 49.43 83.72 49.7 83.03C49.82 82.71 49.94 82.39 50.06 82.07L50.09 81.9899L49.67 81.7499L46.21 86.9699C45.92 85.0399 45.91 83.0399 46.16 80.7099C46.85 76.2299 48.82 72.3199 52.19 68.7599L52.38 68.56L52.11 68.6C51.62 68.68 51.17 68.8399 50.78 68.9799C50.09 69.2299 49.41 69.4699 48.72 69.7199L47.98 69.9899C47.98 69.9499 47.99 69.9098 48.01 69.8898C48.39 69.4398 48.78 68.98 49.15 68.53C50.11 67.37 51.1 66.18 52.15 65.07C53.04 64.13 54.03 63.2398 54.98 62.3798C55.4 61.9998 55.84 61.6099 56.26 61.2199L59.86 58.6201L59.76 58.54C59.61 58.48 59.5 58.39 59.4 58.31Z" fill="url(#paint0_linear_1_7790)"/>
<path d="M37.09 118.78L32.41 109.36C32.33 109.13 32.24 108.89 32.16 108.66C31.98 108.16 31.79 107.65 31.64 107.13C31.08 105.11 30.53 103.06 29.99 101.07C29.79 100.31 29.58 99.56 29.38 98.8C29.37 98.7 29.35 98.5899 29.34 98.4899C29.31 98.2599 29.28 98.02 29.24 97.79C29.19 97.48 29.12 97.16 29.06 96.85C28.93 96.24 28.81 95.6099 28.75 94.9899C28.63 93.5899 28.56 92.16 28.49 90.78C28.46 90.2 28.43 89.63 28.4 89.06C28.41 88.61 28.42 88.1599 28.42 87.7199C28.43 86.7499 28.45 85.7399 28.52 84.7499C28.65 83.1299 28.82 81.4898 28.99 79.8998C29.06 79.2198 29.14 78.54 29.2 77.85L31.97 67.4699L36.1 58.55L42.27 49.6999L48.59 43.2399L49.77 42.33C51.29 41.16 52.86 39.9599 54.4 38.7599C54.58 38.6199 54.76 38.3401 54.75 38.1201C54.73 37.5101 54.67 36.8999 54.61 36.2599C54.59 36.0199 54.57 35.78 54.55 35.53L54.54 35.3701L54.41 35.4599C51.54 37.3499 48.2 39.6898 45.24 42.6498L39.08 49.36C36.82 52.09 34.88 55.01 33.32 58.03C31.69 60.82 30.3 63.9099 29.19 67.2199C27.98 70.4499 27.1 73.84 26.5 77.6C25.84 81.38 25.56 85.1701 25.67 88.8701C25.69 92.4601 26.01 95.7599 26.65 98.9699C27.34 102.88 28.31 106.35 29.6 109.57C30.73 112.78 32.21 115.91 34 118.86L39.4 126.72L44.33 132.39L46.28 130.3L42.64 126.4L37.09 118.78Z" fill="url(#paint1_linear_1_7790)"/>
<path d="M88.35 31.5199C82.31 31.4599 76.15 32.41 70.03 34.35L69.86 34.3998L70 34.5099C70.27 34.7199 70.53 34.92 70.77 35.11C71.28 35.51 71.71 35.8499 72.17 36.1899L73.12 36.8898C75.29 38.4798 77.53 40.1299 79.77 41.7099C80.1 41.9499 80.75 42.02 81.16 41.86C83.59 40.94 85.92 40.4498 88.28 40.3798C91.1 40.2998 93.51 40.78 95.64 41.87C96.09 42.1 96.52 42.2199 96.93 42.2199C97.49 42.2199 98.03 42.01 98.54 41.58C99.18 41.04 99.82 40.4999 100.45 39.9599C101.16 39.3599 101.89 38.73 102.62 38.12C103.5 37.38 104.39 36.6598 105.32 35.8998C105.74 35.5598 106.16 35.22 106.59 34.86L106.72 34.7499L106.56 34.6999C100.51 32.6499 94.38 31.5799 88.35 31.5199Z" fill="url(#paint2_linear_1_7790)"/>
<path d="M88.53 25.7298C80.87 25.6398 73.06 27.0398 65.32 29.8898L65.17 29.9498L65.29 30.0499C65.49 30.2199 65.68 30.3899 65.86 30.5499C66.32 30.9499 66.75 31.3298 67.2 31.6698C67.42 31.8398 67.82 31.91 68.1 31.84C69.14 31.57 70.2 31.2799 71.22 30.9999C73.07 30.4899 74.98 29.9599 76.89 29.5599C82.34 28.4099 88.03 28.19 94.29 28.87C99.12 29.4 103.97 30.5499 108.68 32.3099C108.78 32.3499 108.94 32.3898 109.08 32.3898C109.18 32.3898 109.27 32.3699 109.34 32.3199C109.89 31.9299 110.43 31.5099 110.99 31.0699C111.18 30.9199 111.38 30.76 111.59 30.61L111.72 30.5099L111.57 30.4498C103.95 27.4098 96.19 25.8198 88.53 25.7298Z" fill="url(#paint3_linear_1_7790)"/>
<path d="M103.26 145.18C103.23 145.18 103.2 145.18 103.17 145.18C103.12 145.18 103.08 145.18 103.03 145.19C94.25 147.52 85.33 147.82 76.52 146.09C75.28 145.85 74.1 145.61 73.6 147.32C73.55 147.47 73.44 147.62 73.31 147.79C73.24 147.88 73.16 147.98 73.09 148.09L73.01 148.2L73.14 148.23C78.05 149.38 83 149.97 87.84 149.97C88.23 149.97 88.61 149.97 89 149.96C94.22 149.86 99.5 149.07 104.69 147.62L104.81 147.59L103.3 145.17L103.26 145.18Z" fill="url(#paint4_linear_1_7790)"/>
<path d="M141.93 103.48C141.96 103.37 141.95 103.25 141.95 103.13C141.95 103.09 141.94 103.04 141.94 103C142 102.82 142.06 102.65 142.12 102.48C142.26 102.09 142.4 101.7 142.5 101.29C143.55 96.96 144.05 93.12 144.04 89.53C144.02 88.76 144 87.9799 143.99 87.2199C143.96 85.4599 143.93 83.6501 143.77 81.8701C143.65 80.4401 143.37 79.0001 143.1 77.6201C142.98 77.0101 142.86 76.3699 142.75 75.7399C141.92 71.6199 140.58 67.6599 138.76 63.9799C137.29 60.6699 135.44 57.5599 133.29 54.7199C130.12 50.2899 126.34 46.4198 121.73 42.8998L121.62 42.81L121.58 42.9499C121.45 43.4499 121.32 43.9399 121.19 44.4199C120.9 45.4999 120.63 46.53 120.39 47.57C119.95 49.48 119.98 50.9299 120.48 52.2599C120.85 53.2399 120.94 54.0799 120.77 54.9099C120.22 56.1199 119.16 56.8299 118.11 57.4399C117.77 57.6399 117.45 57.86 117.09 58.11C116.91 58.23 116.73 58.3599 116.53 58.4899L116.4 58.58L116.54 58.6498C116.71 58.7398 116.86 58.8198 116.98 58.8798C117.2 58.9998 117.36 59.0799 117.52 59.1799C117.91 59.4299 118.31 59.6899 118.7 59.9299C119.7 60.5599 120.73 61.1999 121.67 61.9299C122.38 62.4699 123.02 63.1199 123.64 63.7599C123.92 64.0399 124.2 64.33 124.49 64.61L125 65.1298C125.39 65.5298 125.77 65.92 126.16 66.32C126.31 66.48 126.48 66.64 126.63 66.79C127.03 67.19 127.45 67.6 127.78 68.05C127.96 68.3 127.96 68.81 127.84 69.1C127.78 69.24 127.31 69.38 127.02 69.33C126.6 69.27 126.21 69.1499 125.74 68.9999C125.54 68.9399 125.33 68.87 125.12 68.81L124.8 68.7199L125.02 68.9699C125.19 69.1599 125.35 69.3399 125.51 69.5099C125.83 69.8599 126.13 70.19 126.43 70.52C127.96 72.24 128.96 74.2399 129.74 75.9599C129.88 76.5199 130.02 77.0898 130.16 77.6398C130.49 78.9498 130.84 80.3099 131.09 81.6699C131.29 82.7399 131.27 83.8699 131.25 84.9599V85.06C131.25 85.28 130.91 85.6799 130.69 85.7299C130.47 85.7799 130.09 85.57 129.84 85.35C129.69 85.22 129.59 85.04 129.49 84.84C129.43 84.73 129.37 84.6199 129.3 84.5099C128.77 83.7199 128.23 82.9198 127.7 82.1498L127.02 81.1498L126.85 81.36L129.77 89.4199C129.83 89.9399 129.9 90.4599 129.96 90.9599C130.11 92.1599 130.27 93.39 130.35 94.61C130.42 95.72 130.32 96.85 130.2 98.09C130.18 98.33 129.85 98.6899 129.63 98.7299C129.4 98.7699 129.02 98.45 128.83 98.3C128.73 98.22 128.67 98.0799 128.6 97.9099C128.56 97.8299 128.53 97.7399 128.48 97.6599L128.32 97.36L127.97 102.83C127.95 103 127.92 103.17 127.89 103.34C127.83 103.71 127.77 104.09 127.73 104.46C127.48 106.75 127.78 108.58 128.69 110.23C128.82 110.47 128.83 110.94 128.7 111.1C128.56 111.27 128.08 111.37 127.85 111.28C127.12 110.99 126.45 110.64 125.86 110.23C125.49 109.97 125.15 109.63 124.79 109.27C124.62 109.1 124.44 108.92 124.24 108.74L124.06 108.57L124.08 108.81C124.3 111.59 125.21 113.84 126.86 115.7C126.88 115.73 126.89 115.77 126.91 115.8C126.95 115.88 127 115.97 127.06 116.05C127.45 116.55 127.75 117.09 127.38 117.6C126.91 118.25 126.05 117.96 125.8 117.85C125.19 117.6 124.59 117.28 124 116.98C123.76 116.85 123.51 116.72 123.26 116.59C123.15 116.53 123.04 116.48 122.92 116.41L122.5 116.19L122.58 116.41C122.78 117 122.99 117.58 123.2 118.15C123.66 119.44 124.1 120.65 124.44 121.91C124.89 123.59 125.25 125.41 125.54 127.48C125.64 128.2 125.78 128.72 126.64 128.76H126.72L126.73 128.68C126.73 128.67 126.73 128.65 126.73 128.63C126.73 128.61 126.73 128.57 126.74 128.57C126.87 128.42 127.02 128.27 127.17 128.13L127.24 128.06C131.21 124.11 134.31 120.07 136.71 115.71C138.88 112.08 140.58 108.08 141.93 103.48Z" fill="url(#paint5_linear_1_7790)"/>
<path d="M149.08 77.9899C149.02 77.6599 148.97 77.3299 148.92 76.9999C148.81 76.2799 148.7 75.54 148.5 74.84C147.92 72.79 147.3 70.7099 146.69 68.6999C146.45 67.8899 146.2 67.08 145.96 66.27C144.7 62.67 143.03 59.1999 140.99 55.9499C138.9 52.4199 136.76 49.4899 134.46 46.9999L134.34 46.86L134.24 46.7599C134.14 46.6399 134.04 46.5198 133.95 46.3998C133.74 46.1298 133.52 45.8601 133.27 45.6201C132.94 45.3101 132.61 44.9999 132.27 44.6899C130.35 42.8899 128.36 41.0199 126.36 39.2299C125.68 38.6199 124.93 38.09 124.2 37.57C123.87 37.34 123.54 37.1 123.21 36.85L123.07 36.7399L122.89 40.04L122.93 40.07C122.97 40.1 123.02 40.1299 123.06 40.1599C123.16 40.2299 123.26 40.2998 123.35 40.3798C125.58 42.3698 127.81 44.36 130.03 46.35L131.26 47.4499L138.12 56.4099C138.22 56.5899 138.33 56.7699 138.44 56.9499C138.67 57.3299 138.91 57.7298 139.11 58.1298C140.12 60.1798 141.13 62.26 142.11 64.28C142.47 65.02 142.83 65.7599 143.19 66.4899C144.63 70.5099 145.66 74.2799 146.33 77.9999C146.37 78.3099 146.42 78.6299 146.46 78.9399C146.56 79.6099 146.66 80.3099 146.7 80.9999C146.82 82.8799 146.92 84.7898 147.02 86.6298C147.06 87.3698 147.1 88.12 147.14 88.86L146.56 96.3701L145.13 103.25L142.41 111.08C140.87 114.53 138.99 117.93 136.66 121.48C134.65 124.23 132.43 127.11 129.88 129.55L129.78 129.65L132.51 130.87L132.56 130.82C135.64 127.57 138.02 124.55 139.84 121.57C142.27 117.86 143.96 114.65 145.16 111.48L147.84 103.53H147.85L147.87 103.46L147.91 103.35H147.9L149.29 96.4499V96.4399C149.3 96.3099 149.31 96.18 149.31 96.05C149.33 95.76 149.34 95.4799 149.36 95.1899C149.47 93.6899 149.57 92.1899 149.68 90.6799L149.81 88.8701C149.94 85.1001 149.7 81.4299 149.08 77.9899Z" fill="url(#paint6_linear_1_7790)"/>
<path d="M77.56 98.03C75.67 94.15 76.18 90.2799 77.34 86.3999C77.27 86.9199 77.19 87.44 77.13 87.96C77.07 88.49 77.02 89.02 76.97 89.55C76.78 91.5 76.92 93.4301 77.46 95.3201C78.41 98.6901 83.06 102.05 87.66 100.86C88.15 100.73 88.47 100.51 88.39 99.9199C88.35 99.6099 88.38 99.2899 88.38 99.1799C87.07 98.4999 85.77 98.03 84.71 97.25C81.84 95.15 81.77 90.81 84.54 88.77C85.08 88.37 85.85 88.1401 86.52 88.1101C88.09 88.0601 89.67 88.11 91.23 88.26C91.84 88.32 92.53 88.64 93 89.05C95.81 91.51 95.51 95.3899 92.32 97.6299C91.54 98.1799 90.54 98.4001 89.65 98.8101C89.42 98.9201 89.07 99.1801 89.09 99.3501C89.12 99.8001 88.73 100.43 89.43 100.67C91.91 101.53 96.3 101.38 98.42 98.8899C99.81 97.2599 100.32 95.3 100.54 93.24C100.85 90.44 100.59 87.6599 100.08 84.8999C100.04 84.6999 100.05 84.4799 100.03 84.1299C101.23 87.5599 102.3 93.5801 100.25 98.3101C101.9 98.6301 103.53 98.94 105.16 99.25C105.47 99.31 105.79 99.3599 106.1 99.3999C108.06 99.6699 108.05 99.6699 108.24 101.63C108.77 107.26 108.4 112.81 106.66 118.23C105.33 122.36 103.57 126.21 100.27 129.2C94.01 134.86 85.37 134.86 78.92 129.83C75.98 127.53 74.23 124.4 72.79 121.03C70.56 115.8 69.49 110.35 69.49 104.69C69.49 103.55 69.59 102.4 69.64 101.26C69.67 100.69 69.95 100.37 70.53 100.2C72.85 99.52 75.17 98.78 77.56 98.03ZM106.79 100.99C104.61 100.57 102.52 100.21 100.46 99.74C99.73 99.57 99.22 99.62 98.84 100.29C98.72 100.5 98.55 100.67 98.42 100.87C97.18 102.66 95.64 104.12 93.4 104.37C91.15 104.62 88.88 104.76 86.63 104.7C85.34 104.66 84.02 104.25 82.8 103.77C81.03 103.08 79.8 101.68 78.9 100.03C78.58 99.44 78.21 99.26 77.56 99.47C76.05 99.96 74.53 100.42 73.01 100.87C70.42 101.63 70.99 101.2 70.87 103.78C70.63 108.92 71.5 113.9 73.29 118.71C74.57 122.14 76.01 125.5 78.8 128.02C82.9 131.71 87.67 133.17 93.06 131.77C97.72 130.56 101.08 127.54 103.22 123.29C105.34 119.09 106.61 114.59 107.04 109.89C107.32 106.93 107.21 103.98 106.79 100.99ZM82.22 101.81C82.19 101.91 82.16 102.01 82.13 102.11C83 102.46 83.85 102.91 84.76 103.13C87.34 103.75 89.96 103.37 92.56 103.24C93.83 103.18 94.66 102.72 95.17 102.15C93.42 102.15 91.69 102.16 89.97 102.14C89.22 102.13 88.46 102.03 87.71 102.04C86.5 102.06 85.29 102.18 84.08 102.16C83.46 102.16 82.84 101.93 82.22 101.81Z" fill="#030303"/>
<path d="M101.41 65.3799C103.31 65.7299 105.22 66.07 107.11 66.46C107.33 66.51 107.48 66.8701 107.67 67.0901C107.46 67.2501 107.26 67.4901 107.02 67.5601C106.72 67.6501 106.39 67.5901 106.07 67.6201C105.26 67.6901 104.6 68.03 104.12 68.71C102.77 70.62 101.67 71.05 99.44 70.47C98.81 70.31 98.5 70.6501 98.19 71.0701C97.92 71.4401 97.69 72.06 97.13 71.72C96.92 71.59 96.87 70.85 97.02 70.53C97.69 69.13 98.41 67.7499 99.22 66.4299C99.66 65.7299 100.51 65.4499 101.41 65.3799ZM100.4 68.3799C100.2 68.0499 100 67.7099 99.8 67.3799C99.7 67.3999 99.6 67.4199 99.5 67.4399C99.53 67.9099 99.56 68.3901 99.59 68.8601C100.1 69.8001 101.02 70.08 101.87 69.5C102.33 69.19 102.82 68.8499 103.11 68.3999C103.35 68.0299 103.43 67.46 103.35 67.02C103.31 66.8 102.75 66.67 102.33 66.45C102.08 67.63 101.96 68.8199 100.4 68.3799Z" fill="#030303"/>
<path d="M77.01 70.86C75.74 70.76 74.71 70.3 74.07 69.32C73.29 68.13 72.28 67.58 70.88 67.58C70.62 67.58 70.35 67.27 70.08 67.1C70.29 66.89 70.47 66.5499 70.71 66.4999C72.24 66.1899 73.8 66.0098 75.31 65.6498C77.35 65.1598 78.58 66.1199 79.44 67.7799C79.94 68.7399 80.38 69.7299 80.75 70.7399C80.86 71.0499 80.65 71.49 80.58 71.87C80.28 71.67 79.91 71.5299 79.69 71.2599C79.21 70.6799 78.74 70.2798 77.93 70.6698C77.63 70.7998 77.26 70.81 77.01 70.86ZM75.57 68.0599C75.57 67.5999 75.57 67.1398 75.57 66.6698C74.22 66.7498 74 67.1099 74.47 68.2299C74.78 68.5499 75.1 68.8798 75.41 69.1998C76.39 70.0298 77.04 70.07 77.79 69.37C78.5 68.7 78.55 68.1199 77.94 67.4799C77.14 68.6499 76.8 68.7299 75.57 68.0599Z" fill="#030303"/>
<path d="M116.66 100.66C116.79 101.91 116.88 103.17 117.06 104.41C117.21 105.47 117.7 106.37 118.61 107C118.74 107.09 118.89 107.19 118.96 107.32C119.14 107.67 119.48 108.11 119.38 108.39C119.28 108.69 118.77 108.99 118.41 109.04C117.24 109.21 116.12 108.93 115.14 108.27C114.54 107.86 114 107.34 113.35 106.79C113.36 107.8 113.88 108.5 114.43 109.19C114.7 109.52 115.02 109.81 115.28 110.14C115.8 110.82 115.65 111.37 114.86 111.73C113.95 112.15 112.75 111.84 111.9 110.8C112.99 111.41 113.89 111.71 114.96 110.79C114.6 110.51 114.27 110.25 113.95 109.99C112.2 108.59 111.97 106.68 112.23 104.64C112.26 104.38 112.65 103.99 112.9 103.97C113.14 103.95 113.56 104.26 113.67 104.52C114.44 106.37 115.65 107.63 117.99 107.93C115.71 105.73 116.19 103.2 116.66 100.66Z" fill="#050505"/>
<path d="M118.15 32.7098C117.56 31.4998 117.35 31.3599 116.37 32.0599C114.8 33.1899 113.21 34.3298 111.83 35.6798C109.01 38.4398 106.33 41.3198 103.61 44.1798C103.25 44.5598 103.02 45.0599 102.76 45.5199C102.46 46.0599 102.41 46.6198 102.77 47.1798C102.89 47.3698 102.92 47.6098 103.03 47.9498C101.87 46.8898 101.64 45.7698 102.45 44.4598C103.31 43.0898 104.28 41.7899 105.31 40.5299C107.92 37.3399 110.89 34.5299 114.39 32.3199C115.08 31.8799 115.84 31.5299 116.62 31.2699C117.66 30.9099 118.22 31.4298 118.15 32.7098Z" fill="#050505"/>
<path d="M59.73 32.5701C59.74 31.4401 60.29 30.9701 61.25 31.2801C61.92 31.5001 62.59 31.81 63.17 32.21C66.57 34.55 69.59 37.3101 72.1 40.5901C73.11 41.9201 74.12 43.26 75 44.68C75.9 46.13 75.67 47.2901 74.47 48.3501C74.45 48.3101 74.39 48.24 74.41 48.22C75.31 46.95 74.91 45.83 74.06 44.73C71.31 41.22 68.27 37.99 64.99 34.98C64.07 34.13 63.11 33.3401 62.15 32.5301C61.95 32.3601 61.72 32.2101 61.49 32.0801C60.5 31.5301 60.39 31.5601 59.73 32.5701Z" fill="#050505"/>
<path d="M60.45 110.22C60.7 109.33 60.9199 108.53 61.2099 107.48C60.8299 107.73 60.66 107.86 60.48 107.96C59.88 108.3 59.3 108.7 58.67 108.93C58.38 109.04 57.86 108.91 57.63 108.7C57.45 108.53 57.45 108.01 57.57 107.72C58.07 106.53 58.69 105.38 59.19 104.19C59.44 103.6 59.53 102.95 59.76 102.35C60.14 104.08 59.7 105.69 59.07 107.27C59.13 107.31 59.19 107.35 59.25 107.4C59.81 106.86 60.3699 106.32 60.9299 105.77C61.0799 105.62 61.17 105.38 61.34 105.29C61.59 105.16 61.94 105.01 62.14 105.1C62.32 105.18 62.43 105.57 62.44 105.83C62.46 107.05 61.35 109.54 60.45 110.22Z" fill="#050505"/>
<path d="M83.76 74.6299C83.93 73.6899 84.5 73.08 85.33 72.74C86.35 72.32 87.36 72.38 88.34 72.98C86.46 72.58 84.91 73.0099 83.76 74.6299Z" fill="#050505"/>
<path d="M86.01 74.3799C85.36 75.0399 84.71 75.7101 84.11 76.3201C84.21 75.2801 84.98 74.4899 86.01 74.3799Z" fill="#050505"/>
<path d="M95.74 142.02C95.37 142.08 94.98 142.14 94.54 142.21C94.65 142 94.77 141.79 94.9 141.55C94.78 141.37 94.65 141.19 94.49 140.96C94.96 141.02 95.36 141.08 95.75 141.13C95.74 141.37 95.74 141.73 95.74 142.02Z" fill="#D0D1D1"/>
<path d="M117.74 131.27C117.84 131.33 117.95 131.38 118.05 131.44C117.98 131.49 117.92 131.53 117.85 131.58C117.78 131.51 117.72 131.43 117.65 131.36C117.68 131.33 117.71 131.3 117.74 131.27Z" fill="#050505"/>
<path d="M112.61 133.5C112.55 133.58 112.48 133.67 112.47 133.66C112.39 133.62 112.31 133.56 112.25 133.49C112.24 133.48 112.31 133.36 112.32 133.37C112.41 133.41 112.49 133.45 112.61 133.5Z" fill="#050505"/>
<path d="M117.65 131.36C117.61 131.32 117.56 131.27 117.52 131.23C117.59 131.24 117.67 131.26 117.74 131.27C117.71 131.3 117.68 131.33 117.65 131.36Z" fill="#050505"/>
<path d="M60.14 131.44C60.24 131.41 60.35 131.39 60.45 131.36C60.42 131.44 60.38 131.51 60.35 131.59C60.29 131.54 60.22 131.49 60.14 131.44Z" fill="#050505"/>
<path d="M65.92 133.37C65.97 133.34 66.03 133.32 66.08 133.29C66.06 133.35 66.04 133.41 66.02 133.47C65.98 133.44 65.95 133.41 65.92 133.37Z" fill="#050505"/>
<path d="M106.79 100.99C107.21 103.98 107.32 106.93 107.05 109.88C106.62 114.58 105.35 119.07 103.23 123.28C101.08 127.53 97.73 130.55 93.07 131.76C87.68 133.16 82.91 131.71 78.81 128.01C76.01 125.49 74.57 122.13 73.3 118.7C71.51 113.89 70.64 108.9 70.88 103.77C71 101.19 70.43 101.62 73.02 100.86C74.54 100.41 76.06 99.9599 77.57 99.4599C78.22 99.2499 78.59 99.43 78.91 100.02C79.81 101.68 81.03 103.07 82.81 103.76C84.03 104.24 85.35 104.65 86.64 104.69C88.89 104.75 91.17 104.61 93.41 104.36C95.65 104.11 97.19 102.65 98.43 100.86C98.57 100.66 98.74 100.49 98.85 100.28C99.23 99.61 99.73 99.5599 100.47 99.7299C102.52 100.22 104.61 100.57 106.79 100.99ZM95.03 107.78C95.36 107.44 95.69 107.1 96.02 106.76C96.2 107.15 96.16 107.44 96.21 107.71C96.27 108.02 96.41 108.31 96.51 108.61C96.58 108.83 96.65 109.05 96.72 109.28C96.82 109.58 96.85 109.94 97.03 110.16C97.73 110.98 98.68 111.2 99.72 111.14C99.34 111.2 98.97 111.28 98.58 111.31C98.24 111.34 97.89 111.31 97.55 111.3C97.24 111.3 96.94 111.3 96.63 111.3C98.35 112.09 99.95 111.81 101.49 110.89C100.89 110.98 100.29 111.06 99.69 111.15C100.73 110.56 101.65 109.82 101.75 108.55C101.81 107.77 101.6 106.97 101.51 106.13C102.34 106.47 103.25 106.84 104.18 107.21C103.93 107.82 103.71 108.37 103.48 108.91C103.54 108.94 103.61 108.97 103.67 109.01C104.09 108.34 104.52 107.66 104.99 106.92C104.11 106.52 103.34 106.1 102.52 105.82C101.87 105.59 101.14 105.37 100.47 105.44C99.21 105.57 97.99 105.98 96.73 106.13C95.75 106.25 95.2 106.73 94.89 107.6C94.84 107.71 94.79 107.81 94.74 107.92C94.85 107.87 94.94 107.82 95.03 107.78ZM83.15 107.93C83.24 107.97 83.33 108.02 83.42 108.07C83.38 107.97 83.33 107.86 83.29 107.76C82.96 106.71 82.22 106.25 81.15 106.17C80.73 106.14 80.31 106.04 79.91 105.91C77.75 105.19 75.74 105.57 73.84 106.72C73.64 106.84 73.35 107.22 73.41 107.33C73.71 107.94 74.1 108.5 74.46 109.09C74.53 109.05 74.59 109.02 74.66 108.98C74.5 108.6 74.32 108.22 74.2 107.83C74.15 107.66 74.14 107.31 74.22 107.28C75.05 106.93 75.89 106.62 76.84 106.27C76.55 107.2 76.07 107.91 76.57 108.71C76.67 108.94 76.77 109.17 76.87 109.4C77.11 109.83 77.3 110.3 77.6 110.68C77.81 110.95 78.17 111.11 78.47 111.32C78.45 111.35 78.42 111.38 78.4 111.41C77.85 111.28 77.29 111.14 76.56 110.96C77.91 112.04 80.7 112.19 81.77 111.34C81.05 111.38 80.35 111.43 79.64 111.47C79.62 111.4 79.6 111.33 79.57 111.25C81.77 110.63 82.04 108.88 82.01 106.95C82.11 106.91 82.22 106.88 82.32 106.84C82.58 107.19 82.87 107.56 83.15 107.93ZM83.54 105.68C83.33 105.34 83.28 105.17 83.17 105.08C81.14 103.55 78.94 102.34 76.41 101.88C74.83 101.59 73.36 102.79 73.45 104.29C73.55 104.23 73.66 104.2 73.71 104.13C74.57 103.02 75.63 102.99 76.85 103.46C78.3 104.02 79.78 104.5 81.25 105C81.94 105.23 82.64 105.41 83.54 105.68ZM104.01 102.71C103.91 102.42 103.85 102.11 103.7 101.86C102.93 100.64 101.62 100.43 100.22 101.28C98.35 102.42 96.48 103.57 94.61 104.73C94.44 104.84 94.29 104.99 93.96 105.26C94.51 105.23 94.81 105.25 95.09 105.19C97.04 104.76 98.88 104.08 100.51 102.85C102.17 101.59 102.2 101.63 104.01 102.71ZM84.88 124.76C84.87 124.83 84.86 124.89 84.85 124.96C85.45 125.06 86.05 125.22 86.65 125.24C88.56 125.3 90.46 125.35 92.37 125.31C92.99 125.3 93.6 124.99 94.22 124.82C93.31 124.79 92.46 124.88 91.62 124.89C90.72 124.89 89.82 124.78 88.92 124.77C87.57 124.74 86.23 124.76 84.88 124.76ZM88.33 113.48C88.15 115.02 88 116.57 87.78 118.1C87.64 119.06 88.07 119.74 88.66 120.41C87.66 118.12 88.85 115.8 88.33 113.48Z" fill="#DBDCDC"/>
<path d="M82.22 101.81C82.84 101.94 83.45 102.16 84.07 102.17C85.28 102.19 86.49 102.06 87.7 102.05C88.45 102.04 89.21 102.14 89.96 102.15C91.68 102.17 93.41 102.16 95.16 102.16C94.66 102.73 93.82 103.19 92.55 103.25C89.95 103.37 87.33 103.76 84.75 103.14C83.85 102.92 83 102.47 82.12 102.12C82.17 102.01 82.19 101.91 82.22 101.81Z" fill="#D0D1D1"/>
<path d="M100.4 68.3799C101.96 68.8199 102.08 67.64 102.33 66.45C102.76 66.67 103.32 66.8 103.35 67.02C103.43 67.46 103.35 68.0299 103.11 68.3999C102.82 68.8499 102.33 69.19 101.87 69.5C101.02 70.08 100.09 69.8001 99.59 68.8601C99.86 68.7001 100.13 68.5399 100.4 68.3799Z" fill="#FAC981"/>
<path d="M100.4 68.3799C100.13 68.5399 99.86 68.7001 99.59 68.8601C99.56 68.3901 99.53 67.9099 99.5 67.4399C99.6 67.4199 99.7 67.3999 99.8 67.3799C100 67.7099 100.2 68.0399 100.4 68.3799Z" fill="#F39D8F"/>
<path d="M75.41 69.2C75.1 68.88 74.78 68.55 74.47 68.23C74.84 68.17 75.21 68.1201 75.57 68.0601C76.79 68.7301 77.14 68.65 77.95 67.48C78.55 68.11 78.51 68.7001 77.8 69.3701C77 69.3101 76.21 69.25 75.41 69.2Z" fill="#F39D8F"/>
<path d="M75.5699 68.0601C75.1999 68.1201 74.8299 68.17 74.4699 68.23C73.9999 67.12 74.2199 66.7499 75.5699 66.6699C75.5699 67.1399 75.5699 67.6001 75.5699 68.0601Z" fill="#FAC981"/>
<path d="M75.41 69.2C76.2 69.26 77 69.3101 77.79 69.3701C77.05 70.0701 76.4 70.02 75.41 69.2Z" fill="#EE7693"/>
<path d="M76.56 108.69C76.05 107.89 76.54 107.18 76.83 106.25C75.88 106.61 75.04 106.91 74.21 107.26C74.14 107.29 74.14 107.64 74.19 107.81C74.31 108.2 74.49 108.58 74.65 108.96C74.58 109 74.5201 109.03 74.4501 109.07C74.0901 108.49 73.7 107.93 73.4 107.31C73.35 107.2 73.63 106.82 73.83 106.7C75.73 105.55 77.74 105.18 79.9 105.89C80.3 106.02 80.7201 106.12 81.1401 106.15C82.2001 106.23 82.95 106.69 83.28 107.74C83.24 107.8 83.19 107.86 83.15 107.91C82.87 107.54 82.58 107.17 82.3 106.8C82.2 106.84 82.09 106.87 81.99 106.91C82.02 108.84 81.75 110.59 79.55 111.21C79.57 111.28 79.59 111.35 79.62 111.43C80.32 111.39 81.03 111.34 81.75 111.3C80.68 112.15 77.8901 112 76.5401 110.92C77.2701 111.1 77.8301 111.23 78.3801 111.37C78.4001 111.34 78.4301 111.31 78.4501 111.28C78.1601 111.07 77.8 110.91 77.58 110.64C77.28 110.26 77.0901 109.79 76.8501 109.36C77.0201 109.49 77.22 109.6 77.36 109.76C77.91 110.37 78.57 110.9 79.4 110.74C80.38 110.55 81.1301 109.95 81.3201 108.86C81.6901 107.59 81.4001 107.27 80.1301 107.54C80.1601 107.83 80.18 108.11 80.21 108.4C79.87 108.72 79.5101 109.35 79.2001 109.32C78.1201 109.23 78.44 108.14 78.18 107.45C77.53 107.64 76.7701 107.61 76.7601 108.56C76.7601 108.62 76.63 108.66 76.56 108.69Z" fill="#050505"/>
<path d="M96.52 108.61C96.42 108.31 96.28 108.02 96.22 107.71C96.17 107.44 96.21 107.15 96.03 106.76C95.7 107.1 95.37 107.44 95.04 107.78C95 107.72 94.95 107.66 94.91 107.6C95.22 106.73 95.77 106.25 96.75 106.13C98.01 105.98 99.23 105.57 100.49 105.44C101.16 105.37 101.89 105.59 102.54 105.82C103.35 106.1 104.12 106.52 105.01 106.92C104.54 107.67 104.11 108.34 103.69 109.01C103.63 108.98 103.56 108.95 103.5 108.91C103.72 108.37 103.94 107.82 104.2 107.21C103.27 106.83 102.36 106.46 101.53 106.13C101.62 106.97 101.83 107.77 101.77 108.55C101.67 109.82 100.75 110.56 99.71 111.15L99.75 111.14C98.71 111.2 97.76 110.98 97.06 110.16C96.87 109.94 96.85 109.58 96.75 109.28C96.93 109.42 97.15 109.54 97.3 109.72C97.88 110.37 98.56 110.84 99.45 110.6C100.37 110.36 101.02 109.75 101.21 108.76C101.25 108.49 101.29 108.23 101.32 107.96C100.9 107.75 100.48 107.55 100.07 107.34C100.03 107.49 99.99 107.65 99.96 107.8C99.94 108 99.93 108.2 99.91 108.41C99.57 108.69 99.21 109.22 98.9 109.19C98.57 109.16 98.29 108.6 97.98 108.27C98 107.96 98.01 107.64 98.03 107.33C96.87 107.36 96.74 107.47 96.75 108.43C96.65 108.48 96.58 108.55 96.52 108.61Z" fill="#030303"/>
<path d="M83.54 105.68C82.64 105.42 81.94 105.24 81.26 105.01C79.79 104.51 78.31 104.03 76.86 103.47C75.64 103 74.58 103.03 73.72 104.14C73.67 104.21 73.56 104.24 73.46 104.3C73.37 102.8 74.83 101.6 76.42 101.89C78.95 102.35 81.15 103.56 83.18 105.09C83.28 105.16 83.33 105.33 83.54 105.68Z" fill="#050505"/>
<path d="M104.01 102.71C102.2 101.64 102.17 101.6 100.51 102.85C98.88 104.08 97.04 104.76 95.09 105.19C94.81 105.25 94.51 105.23 93.96 105.26C94.29 104.99 94.43 104.84 94.61 104.73C96.48 103.58 98.34 102.42 100.22 101.28C101.62 100.43 102.93 100.64 103.7 101.86C103.86 102.1 103.91 102.42 104.01 102.71Z" fill="#050505"/>
<path d="M81.33 108.89C81.14 109.98 80.3901 110.57 79.4101 110.77C78.5801 110.93 77.9201 110.4 77.3701 109.79C77.2301 109.63 77.03 109.52 76.86 109.39C76.76 109.16 76.6601 108.93 76.5601 108.7C76.6301 108.66 76.7601 108.63 76.7601 108.59C76.7701 107.64 77.5301 107.67 78.1801 107.48C78.4501 108.17 78.1301 109.26 79.2001 109.35C79.5101 109.38 79.8701 108.75 80.2101 108.43C80.6001 108.55 81.22 108.1 81.33 108.89Z" fill="#FAC981"/>
<path d="M96.52 108.61C96.59 108.55 96.66 108.49 96.72 108.43C96.82 108.23 96.92 108.02 97.07 107.72C97.4 107.92 97.67 108.1 97.95 108.27C98.25 108.6 98.54 109.16 98.87 109.19C99.18 109.22 99.54 108.69 99.88 108.41C100.31 108.53 100.75 108.65 101.18 108.77C100.99 109.76 100.35 110.36 99.42 110.61C98.53 110.84 97.85 110.38 97.27 109.73C97.12 109.56 96.91 109.44 96.72 109.29C96.66 109.05 96.59 108.83 96.52 108.61Z" fill="#FAC981"/>
<path d="M84.88 124.76C86.23 124.76 87.57 124.74 88.92 124.77C89.82 124.79 90.72 124.89 91.62 124.89C92.47 124.89 93.31 124.79 94.22 124.82C93.6 124.99 92.99 125.3 92.37 125.31C90.46 125.35 88.56 125.3 86.65 125.24C86.05 125.22 85.45 125.06 84.85 124.96C84.86 124.89 84.87 124.82 84.88 124.76Z" fill="#050505"/>
<path d="M88.33 113.48C88.84 115.8 87.65 118.12 88.65 120.41C88.06 119.75 87.63 119.07 87.77 118.1C88.01 116.57 88.15 115.02 88.33 113.48Z" fill="#050505"/>
<path d="M99.73 111.14L99.69 111.15C100.29 111.06 100.89 110.98 101.5 110.89C99.97 111.81 98.36 112.09 96.64 111.3C96.95 111.3 97.25 111.3 97.56 111.3C97.9 111.3 98.25 111.33 98.59 111.31C98.97 111.27 99.35 111.19 99.73 111.14Z" fill="#050505"/>
<path d="M83.28 107.76C83.32 107.86 83.37 107.97 83.41 108.07C83.32 108.03 83.23 107.98 83.14 107.93C83.19 107.87 83.24 107.82 83.28 107.76Z" fill="#050505"/>
<path d="M95.03 107.78C94.94 107.83 94.84 107.87 94.75 107.92C94.8 107.81 94.85 107.71 94.9 107.6C94.95 107.65 94.99 107.71 95.03 107.78Z" fill="#030303"/>
<path d="M81.33 108.89C81.22 108.1 80.6 108.55 80.22 108.43C80.19 108.15 80.17 107.86 80.14 107.57C81.4 107.3 81.69 107.62 81.33 108.89Z" fill="#F39D8F"/>
<path d="M101.19 108.75C100.76 108.63 100.32 108.51 99.89 108.39C99.91 108.19 99.92 107.99 99.94 107.78C100.4 107.83 100.85 107.89 101.31 107.94C101.26 108.22 101.22 108.48 101.19 108.75Z" fill="#F9B58A"/>
<path d="M97.95 108.26C97.67 108.09 97.39 107.91 97.07 107.71C96.92 108.01 96.82 108.22 96.72 108.42C96.72 107.45 96.84 107.35 98 107.32C97.98 107.63 97.97 107.95 97.95 108.26Z" fill="#F6AD8A"/>
<path d="M101.3 107.95C100.84 107.9 100.39 107.84 99.9299 107.79C99.9699 107.64 100.01 107.48 100.04 107.33C100.46 107.54 100.88 107.74 101.3 107.95Z" fill="#F18F91"/>
<defs>
<linearGradient id="paint0_linear_1_7790" x1="45.6294" y1="148.927" x2="45.6294" y2="32.6582" gradientUnits="userSpaceOnUse">
<stop stop-color="#EF4B95"/>
<stop offset="1" stop-color="#FFD67F"/>
</linearGradient>
<linearGradient id="paint1_linear_1_7790" x1="40.2204" y1="148.927" x2="40.2204" y2="32.6581" gradientUnits="userSpaceOnUse">
<stop stop-color="#EF4B95"/>
<stop offset="1" stop-color="#FFD67F"/>
</linearGradient>
<linearGradient id="paint2_linear_1_7790" x1="88.2983" y1="148.927" x2="88.2983" y2="32.6579" gradientUnits="userSpaceOnUse">
<stop stop-color="#EF4B95"/>
<stop offset="1" stop-color="#FFD67F"/>
</linearGradient>
<linearGradient id="paint3_linear_1_7790" x1="88.4544" y1="148.926" x2="88.4544" y2="32.6585" gradientUnits="userSpaceOnUse">
<stop stop-color="#EF4B95"/>
<stop offset="1" stop-color="#FFD67F"/>
</linearGradient>
<linearGradient id="paint4_linear_1_7790" x1="88.92" y1="148.927" x2="88.92" y2="32.6568" gradientUnits="userSpaceOnUse">
<stop stop-color="#EF4B95"/>
<stop offset="1" stop-color="#FFD67F"/>
</linearGradient>
<linearGradient id="paint5_linear_1_7790" x1="130.232" y1="148.927" x2="130.232" y2="32.6587" gradientUnits="userSpaceOnUse">
<stop stop-color="#EF4B95"/>
<stop offset="1" stop-color="#FFD67F"/>
</linearGradient>
<linearGradient id="paint6_linear_1_7790" x1="136.368" y1="148.927" x2="136.368" y2="32.6581" gradientUnits="userSpaceOnUse">
<stop stop-color="#EF4B95"/>
<stop offset="1" stop-color="#FFD67F"/>
</linearGradient>
</defs>
</svg>
