<svg width="206" height="205" viewBox="0 0 206 205" fill="none" xmlns="http://www.w3.org/2000/svg">
<path d="M153.994 153.575C182.182 125.387 182.182 79.686 153.995 51.4982C125.807 23.3105 80.1053 23.3106 51.9175 51.4983C23.7297 79.6861 23.7296 125.388 51.9174 153.575C80.1052 181.763 125.807 181.763 153.994 153.575Z" fill="#F4F6F5"/>
<path d="M132.42 131.38C132.01 131.4 131.72 131.42 131.43 131.42C122.22 131.42 113.02 131.45 103.81 131.41C93.5799 131.37 85.3998 127.21 79.4998 118.85C70.5598 106.17 73.6098 88.2501 86.2098 79.2101C94.6198 73.1801 103.85 71.8202 113.51 75.4302C122.51 78.7902 128.37 85.3702 131.22 94.5902C132.12 97.5102 132.44 100.5 132.43 103.55C132.41 112.43 132.42 121.3 132.42 130.18C132.42 130.54 132.42 130.9 132.42 131.38ZM120.74 119.78C120.77 119.58 120.8 119.46 120.8 119.35C120.8 113.44 120.93 107.53 120.76 101.63C120.46 91.55 110.91 83.7702 100.97 85.3302C91.9301 86.7502 85.8396 94.0401 86.0296 103.19C86.2196 111.94 93.68 119.58 102.43 119.79C108.36 119.93 114.3 119.84 120.24 119.85C120.38 119.84 120.52 119.81 120.74 119.78Z" fill="#30D366"/>
<path d="M54.1498 69.9001C54.9498 70.5301 55.6901 71.13 56.4501 71.71C57.0401 72.16 56.53 72.5 56.35 72.86C54.84 75.79 53.1397 78.6299 51.8397 81.6499C49.4297 87.2299 48.2097 93.11 47.8397 99.18C47.2197 109.27 49.27 118.81 53.87 127.77C58.83 137.43 66.0701 144.99 75.4301 150.47C82.6201 154.68 90.4001 157.13 98.7201 157.81C107.92 158.57 116.79 157.21 125.25 153.54C137.28 148.32 146.44 139.92 152.63 128.34C156.08 121.89 158.1 115.01 158.81 107.73C159.75 97.99 158.18 88.6701 154.17 79.7701C149.78 70.0401 143.09 62.2401 134.23 56.3001C126.96 51.4301 118.97 48.4201 110.27 47.4001C98.9499 46.0701 88.1699 47.87 77.9999 53.08C77.1199 53.53 76.2598 54.02 75.3998 54.51C74.5698 54.98 73.7597 55.4901 72.8397 56.0301C72.1397 55.1501 71.4497 54.2701 70.7597 53.3901C89.2097 40.2901 120.45 38.3 142.98 58.62C167.7 80.9 168.94 117.82 147.63 141.68C125.92 165.99 89.4399 168.07 65.2499 147.58C40.2699 126.44 38.7998 92.1601 54.1498 69.9001Z" fill="#818E8F"/>
<path d="M62.8098 67.7701C59.5998 67.7801 57.0097 65.2401 56.9797 62.0501C56.9497 58.8301 59.5498 56.21 62.7698 56.2C65.9798 56.2 68.5696 58.7401 68.5896 61.9201C68.6196 65.1901 66.0698 67.7601 62.8098 67.7701Z" fill="#32D467"/>
</svg>
