<svg width="174" height="175" viewBox="0 0 174 175" fill="none" xmlns="http://www.w3.org/2000/svg">
<path d="M157.157 104.185C166.318 65.3896 142.294 26.5133 103.499 17.3526C64.7031 8.19188 25.8268 32.2156 16.6661 71.0112C7.50534 109.807 31.5292 148.683 70.3247 157.844C109.12 167.004 147.997 142.981 157.157 104.185Z" fill="black"/>
<path d="M150.28 86.69C150.27 121.55 122.04 149.79 87.1801 149.8C52.3501 149.81 24.0701 121.52 24.0701 86.69C24.0701 51.8 52.3601 23.5801 87.3001 23.6101C122.1 23.6401 150.28 51.88 150.28 86.69ZM87.1401 145.44C119.47 145.54 145.79 119.3 145.95 86.8101C146.12 54.5201 119.8 28.0501 87.3901 27.9101C55.0101 27.7701 28.5501 54.0001 28.4201 86.3701C28.3001 119 54.4901 145.34 87.1401 145.44Z" fill="white"/>
<path d="M116.45 63.7C115.36 65.06 114.39 66.27 113.43 67.46C112.49 66.56 111.58 65.7301 110.71 64.8601C107.13 61.3001 103.26 58.17 98.49 56.32C94.25 54.68 89.85 54.1501 85.35 54.4801C82.67 54.6701 80.29 55.7501 78.18 57.4201C74.41 60.3901 73.69 64.9001 76.38 68.8801C77.82 71.0101 79.76 72.6401 82.02 73.7201C86.56 75.9101 91.18 77.9301 95.81 79.9301C100.73 82.0601 105.66 84.1801 109.88 87.5901C117.56 93.8101 119.47 104.14 114.38 112.22C111.63 116.59 107.6 119.47 102.88 121.31C92 125.57 81.14 125.78 70.46 120.59C65.28 118.07 61.16 114.18 57.16 109.92C58.38 108.86 59.55 107.85 60.96 106.63C61.41 107.18 61.79 107.72 62.25 108.19C66.39 112.42 70.86 116.21 76.6 118.08C81.82 119.78 87.16 120.3 92.54 118.87C94.8 118.27 96.79 117.08 98.48 115.45C102.47 111.6 102.31 105.94 98.09 102.38C95.02 99.8001 91.32 98.3501 87.69 96.8001C82.98 94.7901 78.22 92.8801 73.61 90.6601C71.24 89.5201 69.04 87.9401 66.94 86.3401C56.07 78.0201 57.61 59.6301 70.76 53.1601C77.11 50.0401 83.82 49.2701 90.75 49.7601C98.73 50.3201 105.48 53.6901 111.38 58.9201C113.08 60.4501 114.69 62.05 116.45 63.7ZM104.18 115.53C104.5 115.34 104.86 115.18 105.15 114.95C106.15 114.13 107.2 113.36 108.09 112.45C112.33 108.13 113.57 102.1 111.26 97.1201C109.68 93.7101 106.98 91.31 103.77 89.58C99.99 87.54 96.08 85.7401 92.16 83.9901C87.2 81.7901 82.06 79.9501 77.49 76.9301C75.32 75.4901 73.34 73.8401 71.95 71.6001C69.34 67.3901 69.69 63.0501 71.46 58.6601C71.61 58.2901 71.76 57.9101 72.01 57.2901C71.53 57.5501 71.32 57.6401 71.13 57.7601C65.18 61.4301 62.79 70.3601 65.92 77.0501C67.78 81.0201 70.87 83.8101 74.63 85.7901C78.18 87.6701 81.92 89.1901 85.59 90.8501C90.07 92.8801 94.66 94.71 99.03 96.94C102.35 98.63 104.92 101.27 105.77 105.1C106.55 108.72 105.97 112.17 104.18 115.53Z" fill="white"/>
</svg>
