<svg width="206" height="205" viewBox="0 0 206 205" fill="none" xmlns="http://www.w3.org/2000/svg">
<path d="M154.031 153.411C182.219 125.224 182.219 79.5223 154.031 51.3345C125.843 23.1467 80.1418 23.1467 51.954 51.3345C23.7662 79.5223 23.7662 125.224 51.954 153.411C80.1418 181.599 125.843 181.599 154.031 153.411Z" fill="black"/>
<path d="M68.3699 103.33C68.1999 103.11 68.0299 102.89 67.8599 102.66C66.1499 100.37 64.6599 97.94 63.6399 95.26C62.9199 93.37 62.4199 91.43 62.1299 89.43C61.8399 87.4 61.7698 85.37 61.9298 83.33C62.1998 79.84 63.1298 76.54 64.6798 73.4C66.6498 69.4 69.4099 66.0299 72.8099 63.1599C76.1399 60.3599 79.8599 58.2299 83.8799 56.5999C86.8699 55.3899 89.9499 54.4999 93.1099 53.9099C96.2499 53.3199 99.4199 53.02 102.62 53.03C104.48 53.03 106.34 53.17 108.2 53.39C111.66 53.81 115.04 54.56 118.33 55.68C123.72 57.51 128.67 60.12 132.97 63.88C136.63 67.07 139.5 70.85 141.36 75.36C142.36 77.79 143.03 80.32 143.28 82.95C143.67 87.16 142.98 91.21 141.38 95.12C140.66 96.89 139.77 98.5699 138.73 100.17C138.63 100.33 138.53 100.49 138.41 100.67C138.48 100.77 138.54 100.87 138.61 100.96C139.94 102.66 141.09 104.46 142.08 106.38C142.87 107.91 143.46 109.52 143.92 111.17C144.37 112.8 144.68 114.46 144.82 116.14C144.92 117.39 144.97 118.65 144.9 119.9C144.74 123.14 144.02 126.26 142.74 129.24C140.98 133.33 138.41 136.82 135.15 139.83C132.63 142.16 129.82 144.05 126.79 145.63C123.02 147.6 119.04 148.97 114.89 149.88C112.46 150.41 110 150.74 107.51 150.9C105.24 151.04 102.97 151.04 100.71 150.86C97.6899 150.62 94.7099 150.12 91.7799 149.35C86.6799 148 81.8799 145.96 77.4899 143C73.8299 140.52 70.6698 137.53 68.1798 133.85C65.9598 130.56 64.4699 126.97 63.7499 123.06C63.3399 120.84 63.2699 118.6 63.4999 116.36C63.8699 112.71 64.9999 109.29 66.7399 106.08C67.2499 105.15 67.8099 104.27 68.3699 103.33ZM68.4999 103.49C68.2299 103.95 67.9899 104.34 67.7699 104.74C65.9199 108.17 64.8199 111.83 64.5199 115.72C64.3499 117.98 64.4598 120.23 64.8998 122.45C65.6798 126.43 67.3999 130 69.8299 133.22C72.3199 136.52 75.3999 139.17 78.9099 141.32C82.4799 143.51 86.2999 145.1 90.3399 146.18C93.3199 146.98 96.3599 147.47 99.4399 147.66C102.12 147.83 104.79 147.74 107.45 147.45C109.76 147.2 112.05 146.79 114.3 146.22C118.51 145.14 122.51 143.54 126.22 141.26C129.71 139.12 132.75 136.48 135.24 133.21C137 130.89 138.4 128.38 139.36 125.62C140.77 121.56 141.13 117.4 140.37 113.16C139.83 110.15 138.75 107.34 137.18 104.72C136.92 104.28 136.64 103.86 136.34 103.39C134.19 105.95 131.78 108.17 129.11 110.11C129.15 110.22 129.17 110.29 129.21 110.37C129.74 111.59 130.12 112.85 130.35 114.16C130.8 116.66 130.75 119.16 130.17 121.64C129.43 124.83 127.87 127.59 125.74 130.05C123.16 133.01 120 135.15 116.4 136.66C113.58 137.85 110.64 138.57 107.6 138.9C104.38 139.25 101.18 139.15 97.9999 138.57C93.8499 137.82 90.0299 136.26 86.5999 133.78C83.5399 131.57 81.0399 128.88 79.2999 125.5C78.2599 123.48 77.6299 121.34 77.4699 119.08C77.3199 117.01 77.5699 114.98 78.2199 113.01C78.3199 112.71 78.4199 112.4 78.5299 112.07C74.6899 109.84 71.3399 107.02 68.4999 103.49ZM138.26 100.49C138.33 100.39 138.39 100.33 138.43 100.27C138.83 99.55 139.26 98.8499 139.62 98.0999C141.09 95.0299 141.99 91.79 142.26 88.39C142.44 86.07 142.33 83.77 141.88 81.49C141.37 78.9 140.44 76.46 139.15 74.15C137.12 70.51 134.41 67.46 131.12 64.92C128.44 62.85 125.54 61.18 122.43 59.86C117.07 57.59 111.48 56.41 105.66 56.26C102.67 56.18 99.6999 56.4 96.7399 56.89C93.8199 57.37 90.9499 58.0799 88.1699 59.0999C83.8299 60.6799 79.8199 62.85 76.2799 65.83C72.6799 68.87 69.8699 72.4999 68.0299 76.8499C66.7599 79.8399 66.0998 82.9699 66.0398 86.2199C66.0098 87.9099 66.1798 89.59 66.5098 91.25C67.1598 94.54 68.4699 97.5599 70.3099 100.35C70.3599 100.42 70.4299 100.48 70.4999 100.56C72.6199 98.03 74.9999 95.82 77.6699 93.9C77.6199 93.78 77.5899 93.68 77.5499 93.58C76.8999 92.07 76.4399 90.51 76.2099 88.88C75.9399 87.05 75.9599 85.21 76.2699 83.39C76.7499 80.62 77.8399 78.1 79.4599 75.8C81.8399 72.41 84.9399 69.85 88.6299 68.02C92.9999 65.85 97.6498 64.8499 102.51 64.7899C105.04 64.7599 107.55 65.02 110.03 65.56C115.13 66.67 119.59 68.98 123.33 72.64C125.4 74.66 127.06 76.9799 128.17 79.6599C129.58 83.0599 129.89 86.55 128.94 90.13C128.78 90.74 128.57 91.3399 128.38 91.9699C132.16 94.2299 135.47 97.04 138.26 100.49ZM89.4099 88.37C89.4199 88.29 89.4299 88.2599 89.4199 88.2299C89.0899 86.1699 89.4399 84.23 90.3499 82.37C91.4599 80.11 93.2199 78.4799 95.4099 77.3499C99.5399 75.2099 103.87 74.89 108.3 76.26C111.17 77.15 113.56 78.76 115.28 81.26C116.41 82.9 116.97 84.7199 116.84 86.7199C116.83 86.9199 116.82 87.1199 116.81 87.3499C120.82 88.3199 124.61 89.82 128.19 91.88C128.23 91.77 128.25 91.71 128.27 91.64C128.78 89.71 129 87.75 128.85 85.74C128.64 83.08 127.85 80.61 126.46 78.34C124.68 75.43 122.28 73.16 119.4 71.37C115.59 69 111.4 67.7499 106.97 67.2899C104.17 66.9999 101.38 67.0899 98.6099 67.5399C95.6099 68.0299 92.7299 68.9199 90.0299 70.3499C87.0599 71.9199 84.5099 73.99 82.5199 76.71C81.2999 78.37 80.3498 80.16 79.7898 82.14C78.9398 85.16 79.0399 88.1699 79.9699 91.1599C80.0799 91.4999 80.2099 91.8399 80.3499 92.2299C83.2599 90.6199 86.2799 89.36 89.4099 88.37ZM78.6999 112.21C78.6599 112.32 78.6299 112.39 78.6099 112.47C78.4499 113.25 78.2698 114.03 78.1498 114.81C77.8398 116.88 77.9799 118.93 78.4599 120.96C79.0099 123.26 80.0499 125.32 81.4599 127.19C83.5399 129.95 86.1799 132.04 89.2399 133.61C92.6199 135.34 96.2299 136.31 99.9999 136.66C102.96 136.94 105.91 136.82 108.84 136.27C111.4 135.79 113.86 135.02 116.2 133.85C119.54 132.17 122.36 129.88 124.51 126.79C126.23 124.32 127.26 121.6 127.44 118.58C127.58 116.31 127.2 114.11 126.39 111.99C126.37 111.95 126.33 111.91 126.29 111.87C123.44 113.41 120.5 114.67 117.4 115.63C117.41 115.77 117.42 115.89 117.43 116.01C117.47 116.47 117.55 116.92 117.55 117.38C117.52 120.21 116.46 122.62 114.49 124.61C112.81 126.3 110.76 127.4 108.48 128.07C106.25 128.73 103.98 128.91 101.67 128.65C99.3099 128.39 97.1099 127.68 95.0899 126.42C93.3599 125.33 91.9299 123.93 90.9399 122.13C90.0599 120.53 89.6699 118.81 89.9099 116.98C89.9199 116.88 89.9099 116.77 89.9099 116.65C85.9599 115.71 82.2399 114.23 78.6999 112.21ZM91.3399 88.93C91.3599 89.04 91.3599 89.08 91.3699 89.11C91.3999 89.2 91.4399 89.28 91.4799 89.37C92.0999 90.66 93.0499 91.6599 94.2499 92.4099C96.3999 93.7599 98.7399 94.64 101.17 95.32C103.46 95.97 105.78 96.45 108.1 96.95C110.91 97.56 113.7 98.27 116.38 99.31C118.96 100.31 121.41 101.56 123.59 103.27C125.72 104.95 127.47 106.95 128.7 109.37C128.75 109.46 128.81 109.54 128.87 109.65C131.59 107.81 134.09 105.79 136.19 103.28C136.14 103.2 136.12 103.15 136.09 103.11C135.27 101.95 134.39 100.84 133.43 99.7899C129.75 95.7799 125.35 92.82 120.32 90.77C115.08 88.64 109.61 87.65 103.96 87.55C100.81 87.49 97.6699 87.75 94.5599 88.28C93.5099 88.48 92.4399 88.71 91.3399 88.93ZM70.5599 100.73C70.6499 100.86 70.7199 100.97 70.7999 101.08C72.8399 103.94 75.2699 106.42 78.0799 108.53C81.4599 111.07 85.1799 112.94 89.1899 114.24C92.8199 115.42 96.5399 116.09 100.34 116.35C103.03 116.53 105.72 116.48 108.39 116.23C110.66 116.02 112.92 115.66 115.14 115.13C115.24 115.11 115.34 115.07 115.46 115.03C115.35 114.8 115.27 114.6 115.16 114.42C114.56 113.31 113.69 112.46 112.64 111.79C111.21 110.88 109.68 110.18 108.08 109.61C105.6 108.72 103.03 108.14 100.46 107.58C98.0299 107.05 95.6099 106.54 93.2299 105.8C90.6499 105 88.1298 104.05 85.7598 102.72C83.0198 101.17 80.7699 99.09 79.0599 96.43C78.6399 95.77 78.2599 95.09 77.8399 94.38C75.1599 96.18 72.6699 98.2299 70.5599 100.73ZM126.07 111.26C126.01 111.12 125.96 110.99 125.89 110.88C125.45 110.17 125.03 109.44 124.54 108.76C122.9 106.5 120.78 104.79 118.34 103.46C116.69 102.56 114.96 101.85 113.18 101.24C110.76 100.4 108.28 99.75 105.81 99.06C103.33 98.37 100.85 97.67 98.4499 96.71C96.5999 95.97 94.8198 95.0999 93.1798 93.9699C91.5798 92.8699 90.3998 91.43 89.7598 89.57C89.7398 89.51 89.6999 89.46 89.6599 89.37C86.5199 90.22 83.4999 91.35 80.6099 92.8C80.6499 92.91 80.6599 92.96 80.6899 93.01C80.7199 93.07 80.7499 93.13 80.7799 93.19C82.1499 95.72 84.0398 97.7899 86.3998 99.4199C88.6698 100.99 91.1898 102.07 93.7898 102.95C96.1498 103.75 98.5699 104.39 100.97 105.05C103.45 105.74 105.93 106.45 108.33 107.4C110.2 108.15 112 109.04 113.67 110.17C115.04 111.1 116.1 112.31 116.79 113.82C116.91 114.08 117.01 114.34 117.13 114.63C120.21 113.8 123.19 112.7 126.07 111.26ZM90.1099 116.71C90.0999 116.9 90.0899 117.02 90.0899 117.14C90.0699 118.33 90.2999 119.48 90.7799 120.57C91.6399 122.55 93.0499 124.07 94.8099 125.28C97.3499 127.03 100.22 127.75 103.27 127.73C105.43 127.72 107.5 127.25 109.49 126.43C112.27 125.29 114.23 123.32 115.36 120.55C115.89 119.25 116.08 117.9 115.87 116.5C115.85 116.38 115.82 116.27 115.78 116.12C111.58 117.28 107.33 117.92 103.01 118.03C98.6698 118.14 94.3799 117.73 90.1099 116.71ZM116.62 87.28C116.62 87.02 116.62 86.82 116.62 86.62C116.57 84.91 116.02 83.3499 115.03 81.9699C112.71 78.7399 109.46 77.0799 105.57 76.5999C104.11 76.4199 102.66 76.46 101.21 76.68C99.3899 76.96 97.6399 77.47 96.0499 78.4C93.2099 80.06 91.4299 82.4899 90.9399 85.7899C90.8399 86.4699 90.8599 87.16 91.0199 87.88C99.4899 85.59 108 85.32 116.62 87.28Z" fill="white"/>
</svg>
