<svg width="205" height="205" viewBox="0 0 205 205" fill="none" xmlns="http://www.w3.org/2000/svg">
<path d="M153.521 153.562C181.709 125.374 181.709 79.6726 153.521 51.4848C125.334 23.297 79.6322 23.2969 51.4444 51.4847C23.2567 79.6725 23.2567 125.374 51.4445 153.562C79.6323 181.749 125.334 181.749 153.521 153.562Z" fill="black"/>
<path d="M164.93 89.7499C164.77 88.9299 164.59 88.12 164.39 87.32C162.99 81.5 160.78 75.99 157.91 70.91C157.5 70.19 157.08 69.47 156.64 68.77C145.38 50.59 125.25 38.4799 102.29 38.4799C89.21 38.4799 77.0499 42.41 66.9199 49.16C66.2899 49.58 65.66 50.0099 65.05 50.4599C56.69 56.4699 49.8399 64.4499 45.1799 73.7099C44.8399 74.3899 44.5099 75.0699 44.1899 75.7599C40.4799 83.8599 38.3999 92.87 38.3999 102.36C38.3999 104.46 38.5 106.53 38.7 108.58C38.63 108.96 38.5901 109.36 38.5901 109.76C38.5901 110.72 38.81 111.64 39.2 112.46C39.43 113.89 39.7 115.3 40.02 116.69C40.02 116.69 40.02 116.69 40.02 116.7C40.16 117.27 46.3999 142.73 69.3899 147.55C73.3499 148.38 77.8 148.6 82.8 147.97C117.19 143.66 136.85 118.61 136.37 90.2099L102.55 67.1999L69.02 89.7299C69.02 89.7299 68.54 117.89 87.95 133.71L97.0601 129.99C97.0601 129.99 78.5999 120.52 78.1299 94.04L102.55 77.02L127.86 93.9199C127.86 93.9199 127.86 115.13 113.48 125.68C113.48 125.68 87.19 146.44 65.78 137.9C65.78 137.9 52.9799 133.03 48.1899 115.15C49.9999 114.04 51.22 112.04 51.22 109.76C51.22 106.82 49.2 104.35 46.48 103.65C46.44 102.86 46.4199 102.05 46.4099 101.22C46.5599 93.5899 48.2499 86.3299 51.1599 79.7499C52.7299 80.2099 54.3901 80.4599 56.1101 80.4599C65.7701 80.4599 73.6299 72.5999 73.6299 62.9399C73.6299 60.2499 73.0199 57.71 71.9299 55.43C80.6699 49.77 91.09 46.4799 102.28 46.4799C121.98 46.4799 139.3 56.6699 149.25 72.0699C147.02 74.2199 145.63 77.24 145.63 80.58C145.63 87.04 150.84 92.3099 157.28 92.4099C157.86 95.6399 158.16 98.9701 158.16 102.37C158.16 107.75 157.4 112.96 155.98 117.88C151.64 129.62 144.26 144.85 119.22 154.44C112.36 157.07 104.77 158.03 97.3701 158.04C82.7401 158.07 68.83 154.39 62.7 152.51C60.61 151.87 59.4199 151.44 59.4199 151.44C76.3199 169.54 106.28 166.24 106.28 166.24C150.02 162.83 161.25 126.96 161.25 126.95C164.41 119.38 166.16 111.07 166.16 102.35C166.18 98.04 165.75 93.8199 164.93 89.7499ZM49.0601 109.75C49.0601 110.99 48.5099 112.1 47.6499 112.87C47.1899 110.75 46.8399 108.45 46.6399 105.98C48.0699 106.63 49.0601 108.08 49.0601 109.75ZM71.48 62.93C71.48 71.4 64.5901 78.29 56.1201 78.29C54.7301 78.29 53.3801 78.0999 52.1001 77.7599C56.2601 69.2999 62.4899 62.04 70.1299 56.65C70.9999 58.56 71.48 60.69 71.48 62.93ZM147.81 80.57C147.81 78.01 148.81 75.6899 150.44 73.9499C153.38 78.9299 155.57 84.3999 156.86 90.2099C151.82 89.8899 147.81 85.69 147.81 80.57Z" fill="url(#paint0_linear_1_7691)"/>
<path d="M102.56 88.04L98.4299 95.2299V107.32C93.8499 108.7 92.0901 112.27 92.0901 112.27H112.97C112.01 109.71 106.53 107.26 106.53 107.26V95.4899L102.56 88.04Z" fill="white"/>
<path d="M100.88 115.93L102.56 123.04L104.07 115.85L105.51 117.98L106.26 113.98H98.8501L99.6499 117.87L100.88 115.93Z" fill="url(#paint1_linear_1_7691)"/>
<path d="M150.96 118.96C150.96 115.75 148.35 113.15 145.15 113.15C141.95 113.15 139.34 115.76 139.34 118.96C139.34 122.16 141.95 124.77 145.15 124.77C148.35 124.77 150.96 122.16 150.96 118.96ZM141.49 118.96C141.49 116.95 143.13 115.31 145.14 115.31C147.15 115.31 148.79 116.95 148.79 118.96C148.79 120.97 147.15 122.61 145.14 122.61C143.13 122.61 141.49 120.97 141.49 118.96Z" fill="url(#paint2_linear_1_7691)"/>
<defs>
<linearGradient id="paint0_linear_1_7691" x1="102.297" y1="41.4138" x2="102.297" y2="208.034" gradientUnits="userSpaceOnUse">
<stop stop-color="#1AA79F"/>
<stop offset="1" stop-color="#B0DFD7"/>
</linearGradient>
<linearGradient id="paint1_linear_1_7691" x1="102.554" y1="114.516" x2="102.554" y2="124.528" gradientUnits="userSpaceOnUse">
<stop stop-color="#1AA79F"/>
<stop offset="1" stop-color="#B0DFD7"/>
</linearGradient>
<linearGradient id="paint2_linear_1_7691" x1="145.144" y1="112.599" x2="145.144" y2="124.462" gradientUnits="userSpaceOnUse">
<stop stop-color="#1AA79F"/>
<stop offset="1" stop-color="#B0DFD7"/>
</linearGradient>
</defs>
</svg>
