<svg width="157" height="157" viewBox="0 0 157 157" fill="none" xmlns="http://www.w3.org/2000/svg">
<path d="M145.977 89.3582C151.99 52.3091 126.83 17.4006 89.7813 11.3877C52.7322 5.37492 17.8236 30.5347 11.8108 67.5838C5.79794 104.633 30.9578 139.541 68.0069 145.554C105.056 151.567 139.965 126.407 145.977 89.3582Z" fill="#FF0101"/>
<path d="M128.49 56.92C129.6 54.94 130.59 52.89 131.48 50.8C135.74 40.76 137.14 30.23 136.31 19.41C135.94 14.54 135.36 2.66 128.54 2.19C124.13 1.88 119.74 5.80999 116.81 8.57999C109.45 15.53 101.79 25.28 98.21 30C98.11 29.96 98 29.91 97.9 29.87C85.66 24.94 71.99 24.94 59.75 29.87C59.65 29.91 59.54 29.95 59.44 30C55.86 25.28 48.2001 15.53 40.8401 8.57999C37.9101 5.80999 33.5202 1.88 29.1102 2.19C22.2902 2.66 21.7101 14.54 21.3401 19.41C20.5101 30.23 21.91 40.76 26.17 50.8C27.06 52.89 28.05 54.94 29.16 56.92C17.83 78.55 14.54 101.13 38.23 118.25C63.74 136.68 78.8201 135.38 78.8201 135.38C78.8201 135.38 93.9 136.68 119.41 118.25C143.12 101.13 139.82 78.55 128.49 56.92Z" fill="#FFA600"/>
<path d="M45.6898 64.5301C45.6898 64.5301 42.0599 70.95 47.5499 74.58C53.0399 78.21 68.2198 81 67.3798 78.3C66.5398 75.61 53.9698 64.2501 45.6898 64.5301Z" fill="black"/>
<path d="M52.77 51.61H52.76C49.72 51.77 46.2799 54.31 46.7099 57.64C47.3599 62.67 54.3399 63.23 58.9099 62.11C61.3799 61.51 61.7601 58.88 60.8401 56.84C59.4801 53.85 56.18 51.43 52.77 51.61Z" fill="white"/>
<path d="M102.67 101.49C103.73 100.31 98.2401 92.07 97.6001 91.16C94.5201 86.77 90.2301 82.69 85.3201 80.45C80.2601 78.15 75.3801 79.17 70.5901 81.67C63.7801 85.23 58.8 91.7 55.97 98.74C55.61 99.64 55.26 100.55 55.01 101.48C46.07 91.49 32.1301 89.43 20.6201 89.79C21.4801 100.08 26.6 109.82 38.25 118.24C63.76 136.67 78.8401 135.37 78.8401 135.37C78.8401 135.37 93.9199 136.67 119.43 118.24C131.08 109.82 136.2 100.09 137.06 89.79C125.55 89.44 111.61 91.51 102.67 101.49Z" fill="white"/>
<path d="M111.98 64.5301C111.98 64.5301 115.61 70.95 110.12 74.58C104.63 78.21 89.4501 81 90.2901 78.3C91.1201 75.61 103.69 64.2501 111.98 64.5301Z" fill="black"/>
<path d="M104.89 51.61H104.9C107.94 51.77 111.38 54.31 110.95 57.64C110.3 62.67 103.32 63.23 98.75 62.11C96.28 61.51 95.9001 58.88 96.8201 56.84C98.1801 53.85 101.49 51.43 104.89 51.61Z" fill="white"/>
<path d="M125.38 50.2899C125.38 50.2899 133.39 34.46 129.29 13.89C127.11 2.91997 104.42 32.6 104.42 32.6C104.42 32.6 117.19 38.6499 125.38 50.2899Z" fill="#FF8300"/>
<path d="M129.29 13.89C129.61 15.51 129.86 17.1 130.04 18.65C126.38 18.74 117.77 20.59 110.39 36.1C106.91 33.78 104.42 32.6 104.42 32.6C104.42 32.6 127.11 2.91001 129.29 13.89Z" fill="#FF9501"/>
<path d="M32.2799 50.2899C32.2799 50.2899 24.27 34.46 28.37 13.89C30.55 2.91997 53.2399 32.6 53.2399 32.6C53.2399 32.6 40.4699 38.6499 32.2799 50.2899Z" fill="#FF8300"/>
<path d="M72.75 116.73C72.75 116.73 72.75 117.76 73.21 118.14C73.67 118.51 74.95 118.88 75.24 118.31C75.53 117.73 75.74 117.67 75.74 117.67C75.74 117.67 77.2201 117.27 77.6001 118.18C77.9801 119.09 78.2701 119.92 78.8501 119.92C79.4301 119.92 79.7201 119.09 80.1001 118.18C80.4801 117.27 81.96 117.67 81.96 117.67C81.96 117.67 82.17 117.73 82.46 118.31C82.75 118.89 84.03 118.52 84.49 118.14C84.95 117.77 84.95 116.73 84.95 116.73H78.8701H72.75Z" fill="black"/>
<path d="M94.43 112.09C94.43 112.09 90.8701 112.09 90.0001 112.09C89.1301 112.09 89.0501 112.83 89.0501 112.83C89.0501 112.83 85.33 112.83 83.42 112.83C81.51 112.83 81.23 110.79 81.23 110.79H80.3702V105.62C84.3402 104.9 87.3502 101.42 87.3502 97.24V94.94C87.3502 93.2 85.94 91.79 84.2 91.79H73.46C71.72 91.79 70.3101 93.2 70.3101 94.94V97.24C70.3101 101.42 73.3201 104.9 77.2901 105.62V110.79H76.43C76.43 110.79 76.14 112.83 74.24 112.83C72.34 112.83 68.6102 112.83 68.6102 112.83C68.6102 112.83 68.53 112.09 67.66 112.09C66.79 112.09 63.23 112.09 63.23 112.09C63.23 112.09 62.57 112.21 63.4 113.04C64.23 113.87 64.6801 114.2 64.8101 115.11C64.9301 116.02 64.8101 116.81 65.5501 116.81C66.2901 116.81 66.2901 116.85 66.5801 117.97C66.8701 119.09 67.95 122.4 68.65 122.56C69.35 122.73 68.65 115.57 68.65 115.57C68.65 115.57 68.5599 114.45 70.1399 114.78C71.7199 115.11 77.4701 115.36 78.8301 115.36C80.1901 115.36 85.9501 115.11 87.5201 114.78C89.1001 114.45 89.0101 115.57 89.0101 115.57C89.0101 115.57 88.3101 122.73 89.0101 122.56C89.7101 122.39 90.7901 119.08 91.0801 117.97C91.3701 116.86 91.3702 116.81 92.1102 116.81C92.8502 116.81 92.7302 116.02 92.8502 115.11C92.9702 114.2 93.4301 113.87 94.2601 113.04C95.0901 112.22 94.43 112.09 94.43 112.09Z" fill="black"/>
<path d="M28.3701 13.89C28.0501 15.51 27.8001 17.1 27.6201 18.65C31.2801 18.74 39.89 20.59 47.27 36.1C50.75 33.78 53.24 32.6 53.24 32.6C53.24 32.6 30.5501 2.91001 28.3701 13.89Z" fill="#FF9501"/>
</svg>
