<svg width="175" height="175" viewBox="0 0 175 175" fill="none" xmlns="http://www.w3.org/2000/svg">
<path d="M158.038 104.378C167.199 65.5821 143.175 26.7057 104.379 17.545C65.5837 8.38427 26.7074 32.4082 17.5467 71.2038C8.38594 109.999 32.4098 148.876 71.2053 158.036C110.001 167.197 148.877 143.173 158.038 104.378Z" fill="black"/>
<path d="M56.96 117.42C75.66 117.42 94.28 117.42 112.98 117.42C112.98 120.13 112.98 122.71 112.98 125.37C91.58 125.37 70.2699 125.37 48.8799 125.37C48.8799 100.68 48.8799 76.08 48.8799 51.36C70.1999 51.36 91.5202 51.36 112.95 51.36C112.95 53.91 112.95 56.5001 112.95 59.2801C94.3502 59.2801 75.7 59.2801 56.95 59.2801C56.96 78.7501 56.96 98.0301 56.96 117.42Z" fill="white"/>
<path d="M129.07 79.2401C125.9 79.2401 122.9 79.2401 119.79 79.2401C119.71 78.8701 119.61 78.4901 119.55 78.1101C119.12 75.3801 117.55 73.6101 114.85 73.0101C112.34 72.4601 109.82 72.4301 107.48 73.7001C104.17 75.5101 103.86 79.5702 107.05 81.5602C109.05 82.8002 111.32 83.6701 113.57 84.4401C117.22 85.6901 120.84 86.9702 123.98 89.2902C129.97 93.7102 130.89 102.53 125.85 107.61C123.52 109.96 120.58 111.14 117.37 111.67C111.37 112.66 105.61 112.08 100.37 108.76C96.2101 106.12 94.1698 102.24 94.0298 97.2001C97.1598 97.2001 100.23 97.2001 103.38 97.2001C103.42 97.3701 103.5 97.5701 103.51 97.7801C103.85 101.67 105.82 103.79 109.69 104.41C112.04 104.79 114.37 104.84 116.61 103.9C118.33 103.18 119.42 101.93 119.57 100C119.72 98.0101 119.23 96.1801 117.4 95.2001C115.35 94.1001 113.16 93.2101 110.97 92.4101C107.19 91.0301 103.34 89.8101 100.14 87.2301C95.3401 83.3801 94.0299 77.2601 96.9399 72.2601C98.4699 69.6301 100.77 67.8502 103.58 66.8102C110.12 64.3902 116.61 64.3101 122.76 67.9401C126.92 70.3901 128.92 74.2401 129.07 79.2401Z" fill="white"/>
</svg>
