<svg width="146" height="146" viewBox="0 0 146 146" fill="none" xmlns="http://www.w3.org/2000/svg">
<path d="M72.95 145.07C112.814 145.07 145.13 112.754 145.13 72.89C145.13 33.0261 112.814 0.709961 72.95 0.709961C33.0861 0.709961 0.77002 33.0261 0.77002 72.89C0.77002 112.754 33.0861 145.07 72.95 145.07Z" fill="url(#paint0_linear_1_7349)"/>
<path d="M115.02 90.74C108.97 90.74 102.93 90.74 96.8799 90.74C96.4399 90.74 96.0699 90.6901 95.7499 90.3101C93.3099 87.3601 90.85 84.43 88.4 81.49C86.24 78.89 84.0999 76.2701 81.9299 73.6801C81.5999 73.2901 81.6099 73.01 81.9299 72.63C82.6799 71.76 83.3899 70.86 84.1199 69.97C87.7499 65.58 91.3899 61.19 94.9999 56.78C95.3899 56.3 95.79 56.11 96.4 56.12C102.72 56.14 109.05 56.13 115.37 56.14C115.93 56.14 116.09 55.99 116.09 55.42C116.06 51.35 116.06 47.29 116.09 43.22C116.1 42.57 115.88 42.4399 115.29 42.4399C107.65 42.4599 99.9999 42.44 92.3599 42.46C90.2399 42.46 88.4599 43.3101 87.0999 44.9301C83.8999 48.7401 80.7299 52.57 77.5499 56.41C74.3999 60.21 71.2799 64.03 68.1299 67.83C66.2199 70.14 64.2799 72.43 62.3599 74.73C60.5999 76.86 58.8599 79.01 57.0999 81.14C54.6599 84.09 52.1699 87 49.7599 89.97C49.2899 90.55 48.8299 90.77 48.0999 90.76C41.6699 90.73 35.2399 90.74 28.8099 90.74C27.9299 90.74 27.9099 90.76 27.9099 91.63C27.9099 95.55 27.9099 99.46 27.9099 103.38C27.9099 104.39 27.93 104.41 28.95 104.41C36.68 104.41 44.4099 104.42 52.1299 104.41C54.4299 104.41 56.3399 103.53 57.7899 101.7C58.5699 100.72 59.3699 99.75 60.1699 98.79C63.6299 94.61 67.0899 90.44 70.5499 86.26C71.2099 85.46 71.8799 84.68 72.5699 83.86C72.7199 84.01 72.82 84.08 72.9 84.17C74.28 85.85 75.64 87.53 77.03 89.2C80.35 93.21 83.7199 97.19 86.9999 101.23C88.4699 103.05 90.21 104.36 92.58 104.38C100.2 104.44 107.82 104.4 115.45 104.41C115.9 104.41 116.08 104.29 116.08 103.79C116.06 99.79 116.07 95.78 116.06 91.78C116.08 90.74 116.08 90.74 115.02 90.74Z" fill="#00D1FF"/>
<path d="M28.9799 56.13C35.4899 56.13 42.01 56.1499 48.52 56.1099C49.42 56.0999 49.9699 56.4399 50.4999 57.0899C52.4899 59.5599 54.51 61.9899 56.52 64.4499C56.83 64.8299 57.0699 64.8299 57.3699 64.4399C57.9199 63.7399 58.4899 63.0499 59.0599 62.3599C61.1499 59.8399 63.23 57.31 65.34 54.81C65.74 54.34 65.6799 54.01 65.2899 53.55C63.0299 50.87 60.77 48.1899 58.58 45.4399C56.99 43.4499 55 42.4399 52.46 42.4499C48.61 42.4599 44.75 42.4499 40.9 42.4499C36.9 42.4499 32.9 42.4499 28.89 42.4499C27.96 42.4499 27.9199 42.49 27.9199 43.42C27.9199 47.29 27.9199 51.17 27.9199 55.04C27.9199 56.11 27.9299 56.13 28.9799 56.13Z" fill="#00D1FF"/>
<defs>
<linearGradient id="paint0_linear_1_7349" x1="72.9465" y1="127.008" x2="72.9465" y2="10.4286" gradientUnits="userSpaceOnUse">
<stop stop-color="#170558"/>
<stop offset="1" stop-color="#08021E"/>
</linearGradient>
</defs>
</svg>
