<svg width="174" height="174" viewBox="0 0 174 174" fill="none" xmlns="http://www.w3.org/2000/svg">
<path d="M157.116 103.333C166.002 64.4698 141.7 25.7615 102.837 16.8758C63.9734 7.99013 25.2652 32.2919 16.3796 71.1552C7.49389 110.019 31.7955 148.727 70.6589 157.612C109.522 166.498 148.231 142.196 157.116 103.333Z" fill="#F4F4F4"/>
<path d="M85.1899 41.45C84.8799 44.25 84.63 46.59 84.35 48.94C83.65 54.75 84.63 60.3201 87.05 65.5901C90.01 72.0201 93.24 78.3401 96.17 84.7801C98.74 90.4301 101.19 96.15 103.44 101.93C104.38 104.35 104.83 107.01 105.21 109.6C105.56 112.02 104.65 114.24 103.36 116.3C99.59 122.34 94.97 127.63 89.5 132.17C88.87 132.7 88.13 133.11 87.41 133.53C86.82 133.88 86.4599 133.6 86.4399 132.96C86.4299 132.55 86.5 132.13 86.6 131.74C87.51 128.07 88.4599 124.41 89.3299 120.73C90.3099 116.59 89.51 112.64 87.79 108.87C84.72 102.14 81.54 95.4601 78.4 88.7701C75.21 81.9801 71.98 75.21 69.87 67.98C68.82 64.39 68.03 60.75 69.63 57.19C70.65 54.93 71.9999 52.7901 73.4399 50.7601C75.8699 47.3401 78.9 44.47 82.22 41.91C82.69 41.55 83.1899 41.23 83.7099 40.96C84.7399 40.43 85.2199 40.76 85.1899 41.45Z" fill="#4CA2F0"/>
<path d="M55.98 51C55.74 53.17 55.5699 54.94 55.3399 56.69C54.6999 61.6 55.67 66.2399 57.74 70.6699C61.06 77.7699 64.49 84.83 67.78 91.94C69.52 95.69 70.9899 99.5499 71.6999 103.65C72.0699 105.76 71.61 107.74 70.52 109.55C67.5 114.53 63.71 118.84 59.23 122.56C58.96 122.78 58.69 123.01 58.37 123.15C57.98 123.31 57.56 123.38 57.15 123.49C57.12 123.06 56.9799 122.61 57.0699 122.22C57.4799 120.5 58.01 118.81 58.41 117.09C58.84 115.23 59.32 113.37 59.51 111.48C59.82 108.45 58.82 105.66 57.55 102.96C54.15 95.7 50.73 88.4599 47.4 81.1699C45.6 77.2199 44.0199 73.1799 43.2199 68.8799C42.7599 66.3899 43.16 64.0301 44.4 61.8301C46.82 57.5201 50.1199 53.9901 54.0799 51.0501C54.2999 50.8801 54.54 50.7401 54.79 50.6201C55.65 50.1801 56.01 50.44 55.98 51Z" fill="#1C5299"/>
<path d="M131.16 105.16C131.14 106.96 130.57 108.57 129.63 110.08C126.65 114.87 122.97 119.06 118.63 122.67C118.15 123.07 117.61 123.39 117.06 123.69C116.55 123.96 116.25 123.72 116.26 123.16C116.27 122.82 116.36 122.48 116.45 122.15C117.14 119.36 117.88 116.57 118.53 113.77C119.32 110.34 118.66 107.07 117.2 103.94C114.02 97.1199 110.8 90.3099 107.63 83.4799C105.57 79.0399 103.71 74.5199 102.62 69.7199C102.02 67.0699 102.32 64.5198 103.63 62.1498C106.06 57.7598 109.42 54.1899 113.43 51.2099C113.62 51.0699 113.84 50.94 114.05 50.83C114.94 50.4 115.3 50.6 115.22 51.6C115.04 53.57 114.8 55.5399 114.58 57.4999C114.06 62.1599 115.03 66.5599 116.99 70.7599C120.3 77.8699 123.72 84.9199 127.03 92.0299C128.73 95.6799 130.14 99.4598 130.93 103.43C131.06 103.98 131.09 104.57 131.16 105.16Z" fill="#1C5299"/>
</svg>
