<svg width="175" height="175" viewBox="0 0 175 175" fill="none" xmlns="http://www.w3.org/2000/svg">
<path d="M103.993 157.949C142.788 148.788 166.812 109.912 157.651 71.1163C148.49 32.3207 109.614 8.29692 70.8186 17.4576C32.023 26.6184 7.99923 65.4946 17.16 104.29C26.3207 143.086 65.197 167.11 103.993 157.949Z" fill="#00A3FF"/>
<path d="M61.3301 76.12L87.5401 90.86L113.44 76.12L87.5401 35.94L61.3301 76.12Z" fill="white"/>
<path d="M87.54 35.94V90.86L113.44 76.12L87.54 35.94Z" fill="#99DAFF"/>
<path d="M61.3301 76.12L87.5401 60.81V90.86L61.3301 76.12Z" fill="#99DAFF"/>
<path d="M56.7701 81.57C52.6901 87.53 50.3 94.74 50.3 102.5C50.3 122.98 66.9001 139.58 87.3801 139.58V99.74L56.7701 81.57Z" fill="white"/>
<path d="M113.44 76.12L87.54 60.81V90.86L113.44 76.12Z" fill="#33B5FF"/>
<path d="M56.77 81.57L87.39 139.59V99.74L56.77 81.57Z" fill="#99DAFF"/>
<path d="M124.47 102.5C124.47 94.73 122.08 87.53 118 81.57L87.3801 99.74V139.58C107.87 139.59 124.47 122.98 124.47 102.5Z" fill="#99DAFF"/>
<path d="M118 81.57L87.3901 99.74V139.59L118 81.57Z" fill="#33B5FF"/>
</svg>
