<svg width="144" height="145" viewBox="0 0 144 145" fill="none" xmlns="http://www.w3.org/2000/svg">
<path d="M72 144.27C111.687 144.27 143.86 112.097 143.86 72.41C143.86 32.7229 111.687 0.550049 72 0.550049C32.3128 0.550049 0.139893 32.7229 0.139893 72.41C0.139893 112.097 32.3128 144.27 72 144.27Z" fill="#5546FF"/>
<path d="M86.4302 58.9399L101.34 35.35H90.0801L72.0601 63.4301L54.04 35.35H42.8401L57.99 58.9399H36.3701V67.98H107.63V58.9399H86.4302Z" fill="white"/>
<path d="M36.3701 85.88H57.5701L42.6599 109.47H53.9199L71.9399 81.39L89.96 109.47H101.16L86.0098 85.88H107.63V76.84H36.3701V85.88Z" fill="white"/>
</svg>
