<svg width="145" height="146" viewBox="0 0 145 146" fill="none" xmlns="http://www.w3.org/2000/svg">
<path d="M72.8301 145.07C112.694 145.07 145.01 112.754 145.01 72.89C145.01 33.0261 112.694 0.709961 72.8301 0.709961C32.9662 0.709961 0.649902 33.0261 0.649902 72.89C0.649902 112.754 32.9662 145.07 72.8301 145.07Z" fill="#F2F2F2"/>
<path d="M92.87 43.5401C73.01 29.6801 51.8899 25.6401 45.6999 34.5101C45.6299 34.6101 45.5699 34.7101 45.4999 34.8101L28.0299 61.09C21.8399 69.96 32.9299 88.3801 52.7899 102.24C72.6499 116.1 93.7699 120.14 99.9599 111.27C100.03 111.17 100.09 111.07 100.16 110.97L117.63 84.69C123.82 75.82 112.73 57.4001 92.87 43.5401Z" fill="url(#paint0_linear_1_7049)"/>
<path d="M113.8 71.3401C111.38 71.3501 109.85 73.16 108.19 74.7C106.34 76.41 104.5 78.2301 102.93 80.2101C99.9099 84.0401 97.76 88.5701 94.49 92.1501C92.43 94.4001 89.7301 96.5001 86.5801 96.7301C84.6601 96.8801 82.7401 96.2901 81.0601 95.3601C75.1301 92.0601 72.28 85.2801 66.77 81.4301C62.38 78.3601 58.3101 81.6601 55.0701 84.7501C52.0301 87.6601 49.2599 91.01 45.4399 92.94C44.7099 93.31 43.6999 93.7701 42.6599 94.1001C45.6999 96.9101 49.1 99.6501 52.8 102.24C72.66 116.1 93.78 120.14 99.97 111.27C100.04 111.17 100.1 111.07 100.17 110.97L117.64 84.69C119.95 81.37 119.85 76.7201 117.78 71.4701C116.34 71.3201 114.89 71.3401 113.8 71.3401Z" fill="#0D0E22"/>
<path d="M115.291 83.1493C120.879 75.1415 110.358 58.1489 91.7921 45.1953C73.2265 32.2418 53.6468 28.2326 48.0596 36.2404C42.4724 44.2482 52.9935 61.2406 71.559 74.1942C90.1246 87.1477 109.704 91.1571 115.291 83.1493Z" fill="white"/>
<path d="M43.9398 48.0201C43.5798 48.0201 43.2498 47.7801 43.1498 47.4201C42.8898 46.5101 42.6599 45.6701 42.5399 44.6701C42.4799 44.2201 42.7999 43.8101 43.2599 43.7501C43.7199 43.6901 44.1198 44.0101 44.1798 44.4701C44.2798 45.2801 44.4499 45.9501 44.7399 46.9701C44.8599 47.4101 44.6098 47.8601 44.1698 47.9901C44.0898 48.0101 44.0098 48.0201 43.9398 48.0201Z" fill="white"/>
<path d="M70.0601 78.37C69.9001 78.37 69.7401 78.32 69.5901 78.22C69.3901 78.08 69.18 77.9401 68.98 77.8001C63.18 73.7601 58.06 69.31 53.76 64.59C49.63 60.06 46.44 55.4201 44.53 51.1801C44.34 50.7601 44.53 50.28 44.94 50.09C45.35 49.9 45.84 50.0901 46.03 50.5001C47.87 54.5901 50.96 59.07 54.97 63.48C59.13 68.05 64.2999 72.53 69.9199 76.45C70.1199 76.59 70.32 76.73 70.52 76.87C70.9 77.13 70.99 77.6401 70.73 78.0201C70.58 78.2501 70.3201 78.37 70.0601 78.37Z" fill="white"/>
<path d="M95.8798 90.5001C95.8198 90.5001 95.7499 90.4901 95.6899 90.4801C94.3499 90.1601 92.95 89.7702 91.54 89.3102C91.11 89.1702 90.8699 88.7101 91.0099 88.2701C91.1499 87.8401 91.61 87.6001 92.05 87.7401C93.42 88.1801 94.77 88.5601 96.08 88.8701C96.52 88.9801 96.7999 89.4201 96.6899 89.8601C96.5899 90.2501 96.2498 90.5001 95.8798 90.5001Z" fill="white"/>
<path d="M104.54 91.64C102.71 91.64 100.74 91.46 98.6299 91.09C98.1799 91.01 97.8799 90.59 97.9599 90.14C98.0399 89.69 98.4699 89.39 98.9099 89.47C102.4 90.07 105.49 90.16 108.09 89.71C108.54 89.63 108.97 89.94 109.04 90.38C109.11 90.82 108.81 91.26 108.37 91.33C107.17 91.53 105.9 91.64 104.54 91.64Z" fill="white"/>
<path d="M98.09 71.0601C95.36 74.9701 85.7899 73.0101 76.7199 66.6801C67.6499 60.3501 62.4999 52.05 65.2299 48.13C67.9599 44.21 77.5301 46.18 86.6001 52.51C95.6801 58.84 100.82 67.1501 98.09 71.0601Z" fill="url(#paint1_linear_1_7049)"/>
<defs>
<linearGradient id="paint0_linear_1_7049" x1="46.5473" y1="27.5108" x2="75.081" y2="76.7741" gradientUnits="userSpaceOnUse">
<stop stop-color="#01B9FF"/>
<stop offset="1" stop-color="#FA52A1"/>
</linearGradient>
<linearGradient id="paint1_linear_1_7049" x1="58.9267" y1="20.3405" x2="87.4604" y2="69.6039" gradientUnits="userSpaceOnUse">
<stop stop-color="#01B9FF"/>
<stop offset="1" stop-color="#FA52A1"/>
</linearGradient>
</defs>
</svg>
