<svg width="174" height="175" viewBox="0 0 174 175" fill="none" xmlns="http://www.w3.org/2000/svg">
<path d="M157.369 104.389C166.529 65.5934 142.506 26.7172 103.71 17.5565C64.9145 8.39574 26.0382 32.4194 16.8775 71.215C7.71675 110.011 31.7406 148.887 70.5362 158.047C109.332 167.208 148.208 143.184 157.369 104.389Z" fill="#F4F6F5"/>
<path d="M127.21 77.75C127.07 77.59 126.94 77.44 126.8 77.28C122.33 72.7 116.98 69.5501 110.91 67.5801L110.79 67.5501C110.49 67.4301 110.19 67.31 109.88 67.2C104.57 65.21 99.1498 63.9501 93.4198 64.8001C92.4398 64.9501 91.4599 65.17 90.5299 65.5C84.9599 67.48 83.5798 72.48 87.6598 76.76C89.5198 78.71 91.9498 80.1199 94.1898 81.6799C97.5798 84.0399 101.27 86.04 104.41 88.7C108.57 92.23 111.27 96.7799 111.7 102.43C112.02 106.6 110.61 110.23 108.39 113.63C107.42 114.64 106.52 115.72 105.47 116.64C98.7099 122.55 90.48 124.56 81.82 125.22C70.51 126.08 59.5499 124.08 48.7599 120.88C48.4299 120.78 48.0798 120.76 47.6598 120.69C47.7398 120.91 47.7399 120.98 47.7799 121.01C47.9999 121.2 48.2299 121.38 48.4699 121.55C62.6599 131.58 78.3699 135.03 95.4499 132.15C102.69 130.93 109.61 128.61 115.83 124.55C116 124.44 116.18 124.33 116.35 124.22C116.53 124.11 116.72 124 116.9 123.89C124.08 119.54 129.74 113.79 132.93 105.93C136.99 95.9399 134.63 84.73 127.17 77.69L127.21 77.75ZM63.33 47.85L63.35 47.8001C53.89 52.1601 46.0599 58.3601 41.7499 68.0801C37.2399 78.2301 38.7099 87.8099 45.9499 96.1799C52.7699 104.06 61.8598 107.99 71.9398 109.89L72.0199 109.84C72.3199 109.92 72.6298 110.01 72.9298 110.09C76.7898 110.79 80.63 110.8 84.32 109.32C89.07 107.42 90.4598 102.88 87.1398 99.03C85.2498 96.83 82.7799 94.9401 80.2199 93.5501C74.3299 90.3501 68.9899 86.64 65.2199 80.98C65.1099 80.81 64.9998 80.63 64.8898 80.46C64.9298 80.38 64.9 80.3201 64.82 80.2901C64.74 80.0701 64.68 79.8499 64.58 79.6399C60.69 71.4499 62.4198 63.54 69.4098 57.78C76.0698 52.29 84.01 50.33 92.37 49.72C101.38 49.07 110.24 50.21 118.99 52.36C121.58 53 124.19 53.6 126.78 54.23C126.82 54.3 126.85 54.37 126.89 54.44C126.89 54.41 126.9 54.37 126.88 54.35C126.84 54.31 126.8 54.28 126.75 54.25C111.88 43.14 95.2898 39.71 77.1598 43.21C72.9398 44.56 68.7199 45.91 64.4999 47.26C64.3199 47.36 64.1299 47.46 63.9499 47.57L63.86 47.53L63.8 47.6C63.65 47.68 63.49 47.76 63.33 47.85Z" fill="#FAFAFA"/>
<path d="M64.51 47.2601C68.73 45.9101 72.9499 44.56 77.1699 43.21C76.4199 43.61 75.6999 44.0901 74.9099 44.4101C65.6799 48.1201 60.67 55.8401 60.3 65.5001C60.11 70.4401 61.4298 75.0702 63.8798 79.3602C64.0898 79.7302 64.5 79.9801 64.82 80.2801C64.9 80.3101 64.9198 80.37 64.8898 80.45C64.9998 80.62 65.1099 80.8 65.2199 80.97C68.9899 86.63 74.3299 90.3401 80.2199 93.5401C82.7799 94.9301 85.2498 96.8201 87.1398 99.0201C90.4598 102.87 89.06 107.41 84.32 109.31C80.62 110.79 76.7899 110.78 72.9299 110.08C72.6299 110 72.32 109.91 72.02 109.83L71.9399 109.88C71.5999 109.68 71.2699 109.43 70.9099 109.29C63.2499 106.38 56.47 102.22 51.29 95.71C45.61 88.57 43.85 80.49 45.79 71.7C47.76 62.76 53.1899 56.0001 60.2399 50.4101C61.3099 49.5601 62.32 48.6601 63.36 47.7801L63.34 47.83C63.5 47.75 63.66 47.67 63.81 47.59L63.8701 47.5201L63.9599 47.5601C64.1399 47.4601 64.32 47.3601 64.51 47.2601Z" fill="#0089CE"/>
<path d="M110.91 67.5901C116.98 69.5501 122.33 72.7001 126.8 77.2901C126.94 77.4501 127.07 77.6001 127.21 77.7601C127.21 77.7601 127.2 77.72 127.19 77.72C127.46 78.47 127.68 79.25 128.02 79.98C130.71 85.75 131.87 91.7299 131.02 98.1299C129.9 106.62 126.08 113.7 120.35 119.89C119.15 121.18 118.06 122.57 116.92 123.91C116.74 124.02 116.55 124.13 116.37 124.24C116.2 124.35 116.02 124.46 115.85 124.57C109.63 128.63 102.71 130.95 95.47 132.17C78.4 135.04 62.68 131.6 48.49 121.57C48.25 121.4 48.03 121.22 47.8 121.03C47.76 121 47.7599 120.93 47.6799 120.71C48.0899 120.78 48.45 120.81 48.78 120.9C59.57 124.1 70.5301 126.1 81.8401 125.24C90.5001 124.58 98.72 122.57 105.49 116.66C106.54 115.74 107.44 114.66 108.41 113.65C108.94 113.32 109.63 113.11 109.96 112.65C112.04 109.71 114.41 106.89 115.98 103.68C119.24 97.04 120.85 89.9901 119.73 82.5001C119.08 78.1201 117.72 74.11 114.44 70.96C113.27 69.83 112.09 68.7101 110.91 67.5901Z" fill="#0189CE"/>
<path d="M110.91 67.5903C112.09 68.7103 113.27 69.8301 114.44 70.9501C117.72 74.1001 119.08 78.1102 119.73 82.4902C120.85 89.9802 119.24 97.0301 115.98 103.67C114.41 106.87 112.04 109.69 109.96 112.64C109.63 113.11 108.94 113.32 108.41 113.64C110.63 110.24 112.03 106.6 111.72 102.44C111.29 96.7901 108.59 92.2401 104.43 88.7101C101.3 86.0501 97.6099 84.0501 94.2099 81.6901C91.9699 80.1301 89.5299 78.7102 87.6799 76.7702C83.5899 72.4902 84.97 67.4802 90.55 65.5102C91.48 65.1802 92.4599 64.9602 93.4399 64.8102C99.1599 63.9602 104.58 65.2201 109.9 67.2101C110.2 67.3301 110.5 67.4502 110.81 67.5602L110.91 67.5903Z" fill="#0378B5"/>
<path d="M64.8302 80.2901C64.5102 79.9901 64.1 79.7301 63.89 79.3701C61.43 75.0801 60.1201 70.45 60.3101 65.51C60.6801 55.85 65.68 48.1301 74.92 44.4201C75.7 44.1001 76.42 43.63 77.18 43.22C95.31 39.72 111.9 43.15 126.77 54.26L126.8 54.23C124.2 53.61 121.6 53 119 52.36C110.25 50.2 101.39 49.07 92.38 49.72C84.02 50.32 76.08 52.29 69.42 57.78C62.43 63.54 60.7002 71.4499 64.5902 79.6399C64.6902 79.8499 64.7502 80.0701 64.8302 80.2901Z" fill="#03A6D8"/>
<path d="M63.35 47.8001C62.31 48.6801 61.2899 49.5901 60.2299 50.4301C53.1899 56.0201 47.7599 62.77 45.7799 71.72C43.8399 80.51 45.5999 88.59 51.2799 95.73C56.4599 102.24 63.2398 106.39 70.8998 109.31C71.2598 109.45 71.5898 109.7 71.9298 109.9C61.8498 108 52.7598 104.07 45.9398 96.19C38.6998 87.81 37.2299 78.2401 41.7399 68.0901C46.0599 58.3601 53.89 52.1601 63.35 47.8001Z" fill="#0579B5"/>
<path d="M116.92 123.91C118.06 122.57 119.16 121.18 120.35 119.89C126.08 113.69 129.9 106.62 131.02 98.1299C131.86 91.7299 130.71 85.75 128.02 79.98C127.68 79.26 127.46 78.48 127.19 77.72C134.65 84.76 137.01 95.97 132.95 105.96C129.76 113.81 124.11 119.56 116.92 123.91Z" fill="#04A6D9"/>
<path d="M110.79 67.5601C110.49 67.4401 110.19 67.32 109.88 67.21C110.19 67.33 110.49 67.4501 110.79 67.5601Z" fill="#0189CE"/>
<path d="M72.01 109.84C72.31 109.92 72.6199 110.01 72.9199 110.09C72.6199 110.01 72.32 109.92 72.01 109.84Z" fill="#0579B5"/>
<path d="M126.76 54.2501C126.8 54.2801 126.85 54.31 126.89 54.35C126.91 54.37 126.9 54.41 126.9 54.44C126.86 54.37 126.83 54.3 126.79 54.23L126.76 54.2501Z" fill="#03A6D8"/>
<path d="M64.51 47.2601C64.33 47.3601 64.14 47.46 63.96 47.57C64.14 47.47 64.32 47.3601 64.51 47.2601Z" fill="#0579B5"/>
<path d="M115.85 124.57C116.02 124.46 116.2 124.35 116.37 124.24C116.2 124.35 116.03 124.46 115.85 124.57Z" fill="#04A6D9"/>
<path d="M65.22 80.98C65.11 80.81 64.9999 80.63 64.8899 80.46C64.9999 80.63 65.11 80.8 65.22 80.98Z" fill="#03A6D8"/>
</svg>
