<svg width="145" height="145" viewBox="0 0 145 145" fill="none" xmlns="http://www.w3.org/2000/svg">
<path d="M72.3301 144.69C112.15 144.69 144.43 112.41 144.43 72.5901C144.43 32.7704 112.15 0.48999 72.3301 0.48999C32.5103 0.48999 0.22998 32.7704 0.22998 72.5901C0.22998 112.41 32.5103 144.69 72.3301 144.69Z" fill="#14C8FF"/>
<path d="M113.06 52.1002C104.15 44.8602 95.2398 37.6299 86.3398 30.3799C84.9198 29.2299 83.34 28.4501 81.58 28.0201C79.15 27.4301 76.71 27.32 74.31 28.16C63.65 31.9 53.01 35.6702 42.33 39.3702C39.99 40.1802 37.94 41.33 36.31 43.21C34.93 44.8 33.8899 46.55 33.5099 48.65C33.3399 49.57 33.1799 50.49 33.0099 51.41C32.0899 56.52 31.1599 61.63 30.2399 66.74C29.3899 71.46 28.5598 76.19 27.6698 80.9C27.3298 82.72 27.12 84.5302 27.57 86.3602C28.23 89.0202 29.44 91.3599 31.61 93.1299C38.69 98.8699 45.76 104.62 52.84 110.36C54.75 111.91 56.66 113.47 58.58 115.01C60.93 116.9 63.7001 117.54 66.2201 117.64C67.9101 117.64 69.15 117.47 70.35 117.04C71.71 116.56 73.0598 116.09 74.4198 115.61C83.7298 112.34 93.0298 109.05 102.36 105.82C104.4 105.11 106.26 104.17 107.78 102.6C109.52 100.8 110.8 98.76 111.21 96.24C111.47 94.63 111.79 93.03 112.08 91.42C112.91 86.84 113.74 82.26 114.56 77.68C115.37 73.22 116.15 68.7501 116.99 64.3001C117.33 62.4901 117.54 60.6999 117.08 58.8799C116.42 56.2099 115.23 53.8602 113.06 52.1002ZM85.33 64.72C85.17 65.51 85 66.2901 84.87 67.0901C84.82 67.3901 84.6998 67.45 84.4198 67.45C80.4398 67.44 76.4702 67.43 72.4902 67.43C72.3502 67.43 72.2097 67.43 72.0497 67.43C71.7997 68.66 71.56 69.8601 71.33 71.0601C70.71 74.2101 70.0699 77.3601 69.4799 80.5201C69.3199 81.4001 69.2797 82.31 69.2997 83.2C69.3297 84.12 69.8799 84.74 70.7699 84.99C71.2399 85.12 71.7401 85.21 72.2201 85.21C75.0401 85.23 77.8699 85.22 80.6899 85.23C80.8299 85.23 80.9801 85.23 81.1801 85.23C80.5701 87.8 79.9698 90.3202 79.3798 92.8502C79.2098 92.8502 79.0598 92.8502 78.9198 92.8502C75.7898 92.8502 72.6499 92.8002 69.5199 92.8602C64.6299 92.9602 61.53 89.8302 60.59 85.6102C60.05 83.1902 60.2299 80.79 60.7599 78.4C61.5499 74.82 62.3198 71.2299 63.0898 67.6399C63.0998 67.6099 63.0898 67.57 63.0898 67.49C61.2598 67.49 59.44 67.49 57.55 67.49C57.66 66.93 57.75 66.41 57.85 65.9C58.11 64.53 58.3798 63.1701 58.6398 61.8001C58.6798 61.5901 58.7799 61.48 58.9799 61.4C63.9199 59.39 67.9001 56.1901 70.8901 51.7601C71.0301 51.5601 71.1698 51.48 71.4198 51.48C72.5598 51.49 73.6998 51.49 74.8398 51.49C74.9498 51.49 75.0501 51.49 75.2001 51.49C74.6001 54.52 74.0098 57.5201 73.3998 60.5501C77.6498 60.5501 81.8798 60.5501 86.1498 60.5501C85.8798 61.9701 85.61 63.34 85.33 64.72Z" fill="#FEFEFE"/>
</svg>
