<svg width="192" height="191" viewBox="0 0 192 191" fill="none" xmlns="http://www.w3.org/2000/svg">
<path d="M96.3401 167.06C135.911 167.06 167.99 134.981 167.99 95.41C167.99 55.8388 135.911 23.76 96.3401 23.76C56.7689 23.76 24.6899 55.8388 24.6899 95.41C24.6899 134.981 56.7689 167.06 96.3401 167.06Z" fill="url(#paint0_linear_1_7307)"/>
<path d="M143.978 143.096C170.307 116.767 170.307 74.0799 143.978 47.751C117.649 21.4221 74.9619 21.422 48.633 47.7509C22.3041 74.0798 22.304 116.767 48.6329 143.096C74.9618 169.425 117.649 169.425 143.978 143.096Z" fill="#000066"/>
<path d="M103.07 51.31L94.46 57.01L103.07 68.31L78.6201 87.29L85.97 96.04L109.41 76.91L118.91 87.29L126.51 79.5699L103.07 51.31Z" fill="white"/>
<path d="M90.6499 138.42L99.27 132.72L90.6599 121.42L115.11 102.44L107.76 93.6899L84.3201 112.83L74.8201 102.44L67.22 110.16L90.6499 138.42Z" fill="white"/>
<defs>
<linearGradient id="paint0_linear_1_7307" x1="24.6928" y1="95.4117" x2="167.985" y2="95.4117" gradientUnits="userSpaceOnUse">
<stop stop-color="#014CB0"/>
<stop offset="1" stop-color="#0082E4"/>
</linearGradient>
</defs>
</svg>
