<svg width="145" height="146" viewBox="0 0 145 146" fill="none" xmlns="http://www.w3.org/2000/svg">
<path d="M72.2 145.07C112.064 145.07 144.38 112.754 144.38 72.89C144.38 33.0261 112.064 0.709961 72.2 0.709961C32.336 0.709961 0.0200195 33.0261 0.0200195 72.89C0.0200195 112.754 32.336 145.07 72.2 145.07Z" fill="url(#paint0_linear_1_7416)"/>
<path d="M45.4399 28.0601C45.4399 28.0601 38.15 36.62 38.79 43.59C39.42 50.56 43.7001 48.98 43.8601 53.89C43.8601 53.89 52.3401 51.83 51.3501 43.27C50.3601 34.71 43.0699 34.7101 45.4399 28.0601Z" fill="white"/>
<path d="M43.9599 59.03C45.1699 61.68 45.3801 64.47 47.3401 66.86C51.1401 71.51 60.8001 70.46 62.8201 64.45C63.7901 61.57 62.66 58.69 61.76 55.96C59.34 48.59 59.04 40.06 61.31 32.61C62.43 28.96 64.2299 25.54 66.6899 22.61C68.0499 20.99 69.59 19.53 71.26 18.23C72.2 17.5 73.1899 16.83 74.1999 16.2C74.6199 15.94 77.2901 14.83 77.3601 14.47C77.3601 14.47 73.92 31.7 89.72 46.91C100.6 57.38 111.42 70.1299 112.29 85.9399C113.12 100.91 105.09 114.54 92.8701 122.8C85.7901 127.58 77.54 130.72 69.04 131.63C68.98 131.64 68.13 130 68.06 129.89C67.04 128.3 65.7999 126.84 64.4399 125.52C61.4699 122.63 57.85 120.55 54.05 118.96C50.51 117.47 46.98 116.51 43.79 114.28C37.85 110.13 33.6201 103.72 31.8601 96.71C31.1301 93.81 30.83 90.7999 30.98 87.8199C31.24 82.8599 32.88 77.8801 34.75 73.3101C35.77 70.8401 37.05 68.3 38.51 65.98C39.96 63.71 41.7699 60.6 43.9599 59.03Z" fill="white"/>
<path d="M94.6201 77.49H48.52V92.38H64.2V107.91H78.9399V92.38H94.6201V77.49Z" fill="#FE8810"/>
<defs>
<linearGradient id="paint0_linear_1_7416" x1="20.7483" y1="125.26" x2="120.067" y2="24.1672" gradientUnits="userSpaceOnUse">
<stop stop-color="#FFA513"/>
<stop offset="1" stop-color="#FF5B10"/>
</linearGradient>
</defs>
</svg>
