<svg width="205" height="205" viewBox="0 0 205 205" fill="none" xmlns="http://www.w3.org/2000/svg">
<path d="M153.278 153.553C181.465 125.366 181.465 79.6643 153.278 51.4765C125.09 23.2887 79.3884 23.2886 51.2006 51.4764C23.0128 79.6642 23.0129 125.366 51.2006 153.553C79.3884 181.741 125.09 181.741 153.278 153.553Z" fill="#F4F4F4"/>
<path d="M157.84 77.72C155.46 72.2 145.25 70.75 131.22 72.98C123.88 65.82 113.85 61.41 102.79 61.41C80.29 61.41 62.05 79.6499 62.05 102.15C62.05 102.26 62.05 102.38 62.05 102.49C50.19 111.42 43.83 120.15 46.28 125.82C48.7 131.42 59.16 132.83 73.5 130.46C80.91 138.12 91.29 142.88 102.78 142.88C125.28 142.88 143.52 124.64 143.52 102.14C143.52 101.41 143.5 100.69 143.46 99.97C143.44 99.67 143.43 99.3801 143.4 99.0901C145.38 97.7301 147.37 96.3 149.36 94.79L149.44 94.8501C156.42 88.2101 159.72 82.07 157.84 77.72ZM132.34 107.65C129.75 121.62 117.51 132.21 102.79 132.21C96.86 132.21 91.3401 130.49 86.6801 127.52C86.1001 127.15 85.52 126.77 84.95 126.38C86.17 126 86.17 126 86.78 125.8C87.41 125.59 88.04 125.38 88.67 125.17C89.96 124.73 91.25 124.29 92.53 123.84C95.04 122.96 97.54 122.05 100.03 121.11C101.66 120.5 103.28 119.87 104.9 119.23C101.94 117.07 99.94 113.67 99.7 109.79L99.66 109.81C97.95 110.43 96.24 111.05 94.53 111.67C91.17 112.88 87.82 114.08 84.45 115.25C78.66 117.26 72.72 118.92 66.65 119.82C63.49 120.29 60.26 120.59 57.08 120.26C57.08 120.26 59.71 117.78 64 114.56C66.59 112.62 69.79 110.4 73.38 108.31C73.34 108.1 73.29 107.88 73.25 107.66C72.92 105.88 72.74 104.04 72.74 102.16C72.74 99.6099 73.06 97.14 73.66 94.78C76.95 81.75 88.75 72.11 102.8 72.11C108.18 72.11 113.23 73.53 117.59 76.01C124.4 79.87 129.55 86.3 131.72 93.99C128.77 95.75 125.27 97.7001 121.13 99.8201C123.55 102.13 125.05 105.38 125.05 108.99C125.05 109.4 125.03 109.8 124.99 110.2C127.41 108.93 129.96 107.53 132.6 105.98C132.53 106.53 132.45 107.09 132.34 107.65ZM146.53 82.95L146.51 82.8799C146.53 82.8399 146.43 82.98 146.15 83.29L141.17 87.6699C141.11 87.7199 141.04 87.7701 140.98 87.8201C140.75 87.1801 140.45 86.4901 140.14 85.8501C139.75 84.9601 139.33 84.08 138.88 83.22C143.09 82.77 146.75 82.77 146.75 82.77L146.53 82.95Z" fill="url(#paint0_linear_1_7552)"/>
<path d="M121.13 99.8C118.85 97.62 115.76 96.28 112.36 96.28C105.35 96.28 99.67 101.96 99.67 108.97C99.67 114.06 102.67 118.45 107 120.47C108.63 121.23 110.44 121.66 112.36 121.66C118.29 121.66 123.28 117.59 124.66 112.08C124.82 111.46 124.93 110.82 124.99 110.17C125.03 109.77 125.05 109.37 125.05 108.96C125.05 105.36 123.55 102.11 121.13 99.8ZM112.36 102.48C113.21 102.48 114.02 102.65 114.76 102.94C117.15 103.89 118.85 106.23 118.85 108.96C118.85 112.54 115.95 115.45 112.36 115.45C108.77 115.45 105.87 112.55 105.87 108.96C105.87 108.22 106 107.51 106.23 106.85C107.11 104.31 109.52 102.48 112.36 102.48Z" fill="url(#paint1_linear_1_7552)"/>
<defs>
<linearGradient id="paint0_linear_1_7552" x1="50.8837" y1="100.473" x2="151.624" y2="103.723" gradientUnits="userSpaceOnUse">
<stop stop-color="#04D9FF"/>
<stop offset="0.509" stop-color="#2D5DFD"/>
<stop offset="1" stop-color="#7A60FF"/>
</linearGradient>
<linearGradient id="paint1_linear_1_7552" x1="99.9114" y1="108.115" x2="123.588" y2="109.74" gradientUnits="userSpaceOnUse">
<stop stop-color="#04D9FF"/>
<stop offset="0.5064" stop-color="#2D5DFD"/>
<stop offset="1" stop-color="#7A60FF"/>
</linearGradient>
</defs>
</svg>
