<svg width="174" height="175" viewBox="0 0 174 175" fill="none" xmlns="http://www.w3.org/2000/svg">
<path d="M157.141 104.34C166.302 65.5449 142.278 26.6687 103.482 17.508C64.6868 8.34728 25.8105 32.371 16.6497 71.1665C7.48902 109.962 31.5128 148.839 70.3084 157.999C109.104 167.16 147.98 143.136 157.141 104.34Z" fill="#F4F6F5"/>
<path d="M46.1999 94.85H59.0801V81.0301H46.75C45.78 86.1601 45.7099 90.77 46.1999 94.85Z" fill="url(#paint0_linear_1_7497)"/>
<path d="M73.5 141.62C82.98 142.7 98.5901 141.09 114.81 125.21L111.97 122.43C111.97 122.43 111.8 122.46 111.51 122.51L111.97 122.97C105 127.89 96.5001 130.79 87.3201 130.79C74.9901 130.79 63.8901 125.57 56.0901 117.24C37.3501 106.4 32.9101 84.7401 32.5601 81.0401H32.3701C32.0901 83.3201 31.9399 85.6301 31.9399 87.9901C31.9399 90.3201 32.0901 92.6101 32.3601 94.8701C35.1801 117.58 51.76 136.02 73.5 141.62Z" fill="url(#paint1_linear_1_7497)"/>
<path d="M96.3899 102.73C94.7899 99.76 93.6499 96.5801 92.9299 93.2901C91.2299 85.5201 94.0001 77.2601 98.3301 70.8001C103.46 63.1601 111.56 58.17 120.21 55.44C123.26 54.48 126.39 53.77 129.56 53.32C129.65 53.31 129.97 53.2501 130.39 53.1801C127.67 49.8101 124.57 46.76 121.14 44.11C111.78 36.89 100.06 32.59 87.3301 32.59C87.0001 32.59 86.6701 32.6 86.3401 32.61C107.66 37.69 115.34 50.23 115.34 50.23L112.14 53.1201L87 78.2601L76.72 67.98L66.8501 77.85L77.1299 88.1301L66.8501 98.4101L76.72 108.28L87 98.0001L111.34 122.34L111.98 122.44L115.32 119.45C107.43 115.96 100.54 110.44 96.3899 102.73Z" fill="url(#paint2_linear_1_7497)"/>
<path d="M68.8301 46.5001L73.8899 34.2401C56.3199 38.6201 42.0699 51.3801 35.6399 68.0301H35.8601C38.2101 64.4301 49.4301 48.8301 68.8301 46.5001Z" fill="url(#paint3_linear_1_7497)"/>
<path d="M86.3401 32.6C82.0501 32.68 77.8899 33.24 73.8899 34.23L68.8301 46.4901C71.5101 46.1701 74.3501 46.11 77.3301 46.36C80.5401 45.59 83.8801 45.1601 87.3201 45.1601C96.5701 45.1601 105.13 48.1 112.13 53.09L115.33 50.2C115.34 50.22 107.66 37.69 86.3401 32.6Z" fill="url(#paint4_linear_1_7497)"/>
<path d="M86.3401 32.6C82.0501 32.68 77.8899 33.24 73.8899 34.23L68.8301 46.4901C71.5101 46.1701 74.3501 46.11 77.3301 46.36C80.5401 45.59 83.8801 45.1601 87.3201 45.1601C96.5701 45.1601 105.13 48.1 112.13 53.09L115.33 50.2C115.34 50.22 107.66 37.69 86.3401 32.6Z" fill="url(#paint5_linear_1_7497)"/>
<path d="M68.8301 46.5001C49.4301 48.8301 38.2101 64.4301 35.8601 68.0301H49.45C55.12 57.2901 65.2301 49.2701 77.3301 46.3701C74.3501 46.1201 71.5101 46.1701 68.8301 46.5001Z" fill="#F9B93B"/>
<path d="M73.5 141.62C77.92 142.76 82.5501 143.38 87.3301 143.38C99.9901 143.38 111.65 139.13 120.98 131.98C121.12 131.87 121.25 131.76 121.38 131.65L114.8 125.21C98.59 141.09 82.98 142.69 73.5 141.62Z" fill="url(#paint6_linear_1_7497)"/>
<path d="M73.5 141.62C77.92 142.76 82.5501 143.38 87.3301 143.38C99.9901 143.38 111.65 139.13 120.98 131.98C121.12 131.87 121.25 131.76 121.38 131.65L114.8 125.21C98.59 141.09 82.98 142.69 73.5 141.62Z" fill="url(#paint7_linear_1_7497)"/>
<path d="M121.39 131.65C124.42 129.28 127.19 126.6 129.67 123.66C128.17 123.35 126.71 123.01 126.39 122.94C124.25 122.48 122.13 121.93 120.05 121.25C118.44 120.73 116.86 120.12 115.31 119.43L111.97 122.42L114.81 125.2L121.39 131.65Z" fill="#F9B93B"/>
<path d="M120.21 55.4301C111.56 58.1701 103.46 63.1501 98.33 70.7901C94 77.2401 91.2299 85.5101 92.9299 93.2801C93.6499 96.5701 94.7898 99.75 96.3898 102.72C100.55 110.43 107.43 115.95 115.32 119.43L117.65 117.34L130.39 122.8C130.57 122.58 130.75 122.38 130.93 122.16C138.33 112.74 142.74 100.87 142.74 87.97C142.74 75.14 138.38 63.33 131.06 53.94C130.85 53.67 130.62 53.4201 130.41 53.1601C129.99 53.2301 129.66 53.2901 129.58 53.3001C126.39 53.7601 123.26 54.4701 120.21 55.4301ZM121.93 113.18L96.8701 88.1201L122.04 62.95C127.13 69.99 130.13 78.63 130.13 87.98C130.14 97.4 127.09 106.11 121.93 113.18Z" fill="url(#paint8_linear_1_7497)"/>
<path d="M120.21 55.4301C111.56 58.1701 103.46 63.1501 98.33 70.7901C94 77.2401 91.2299 85.5101 92.9299 93.2801C93.6499 96.5701 94.7898 99.75 96.3898 102.72C100.55 110.43 107.43 115.95 115.32 119.43L117.65 117.34L130.39 122.8C130.57 122.58 130.75 122.38 130.93 122.16C138.33 112.74 142.74 100.87 142.74 87.97C142.74 75.14 138.38 63.33 131.06 53.94C130.85 53.67 130.62 53.4201 130.41 53.1601C129.99 53.2301 129.66 53.2901 129.58 53.3001C126.39 53.7601 123.26 54.4701 120.21 55.4301ZM121.93 113.18L96.8701 88.1201L122.04 62.95C127.13 69.99 130.13 78.63 130.13 87.98C130.14 97.4 127.09 106.11 121.93 113.18Z" fill="url(#paint9_linear_1_7497)"/>
<path d="M115.31 119.44C116.86 120.12 118.44 120.73 120.05 121.26C122.13 121.94 124.25 122.49 126.39 122.95C126.71 123.02 128.17 123.36 129.67 123.67C129.91 123.39 130.15 123.1 130.39 122.82L117.65 117.36L115.31 119.44Z" fill="#F9B93B"/>
<path d="M115.31 119.44C116.86 120.12 118.44 120.73 120.05 121.26C122.13 121.94 124.25 122.49 126.39 122.95C126.71 123.02 128.17 123.36 129.67 123.67C129.91 123.39 130.15 123.1 130.39 122.82L117.65 117.36L115.31 119.44Z" fill="url(#paint10_linear_1_7497)"/>
<path d="M56.1001 117.23C50.4101 111.16 46.4701 103.44 45.0801 94.85H46.2C45.7 90.77 45.78 86.1601 46.75 81.0301H45.0901H32.5601C32.9201 84.7301 37.3501 106.39 56.1001 117.23Z" fill="url(#paint11_linear_1_7497)"/>
<path d="M56.1001 117.23C50.4101 111.16 46.4701 103.44 45.0801 94.85H46.2C45.7 90.77 45.78 86.1601 46.75 81.0301H45.0901H32.5601C32.9201 84.7301 37.3501 106.39 56.1001 117.23Z" fill="url(#paint12_linear_1_7497)"/>
<defs>
<linearGradient id="paint0_linear_1_7497" x1="27.5923" y1="87.9431" x2="128.756" y2="87.9431" gradientUnits="userSpaceOnUse">
<stop stop-color="#F97C54"/>
<stop offset="1" stop-color="#F9A643"/>
</linearGradient>
<linearGradient id="paint1_linear_1_7497" x1="27.5927" y1="111.456" x2="128.755" y2="111.456" gradientUnits="userSpaceOnUse">
<stop stop-color="#F97C54"/>
<stop offset="1" stop-color="#F9A643"/>
</linearGradient>
<linearGradient id="paint2_linear_1_7497" x1="67.8922" y1="77.5061" x2="118.246" y2="77.5061" gradientUnits="userSpaceOnUse">
<stop stop-color="#F9B83B"/>
<stop offset="1" stop-color="#F97756"/>
</linearGradient>
<linearGradient id="paint3_linear_1_7497" x1="28.6561" y1="51.1311" x2="115.34" y2="51.1311" gradientUnits="userSpaceOnUse">
<stop stop-color="#F97D54"/>
<stop offset="0.9737" stop-color="#F9B03F"/>
</linearGradient>
<linearGradient id="paint4_linear_1_7497" x1="67.8922" y1="42.8544" x2="118.245" y2="42.8544" gradientUnits="userSpaceOnUse">
<stop stop-color="#F9B83B"/>
<stop offset="1" stop-color="#F97756"/>
</linearGradient>
<linearGradient id="paint5_linear_1_7497" x1="28.6563" y1="42.8544" x2="115.34" y2="42.8544" gradientUnits="userSpaceOnUse">
<stop stop-color="#F97D54"/>
<stop offset="0.9737" stop-color="#F9B03F"/>
</linearGradient>
<linearGradient id="paint6_linear_1_7497" x1="27.5929" y1="134.288" x2="128.755" y2="134.288" gradientUnits="userSpaceOnUse">
<stop stop-color="#F97C54"/>
<stop offset="1" stop-color="#F9A643"/>
</linearGradient>
<linearGradient id="paint7_linear_1_7497" x1="64.2285" y1="134.288" x2="125.564" y2="134.288" gradientUnits="userSpaceOnUse">
<stop stop-color="#F97756"/>
<stop offset="1" stop-color="#F97756"/>
</linearGradient>
<linearGradient id="paint8_linear_1_7497" x1="67.892" y1="87.9875" x2="118.246" y2="87.9875" gradientUnits="userSpaceOnUse">
<stop stop-color="#F9B83B"/>
<stop offset="1" stop-color="#F97756"/>
</linearGradient>
<linearGradient id="paint9_linear_1_7497" x1="92.4203" y1="87.9875" x2="146.718" y2="87.9875" gradientUnits="userSpaceOnUse">
<stop stop-color="#F9B53C"/>
<stop offset="1" stop-color="#F97B54"/>
</linearGradient>
<linearGradient id="paint10_linear_1_7497" x1="92.4207" y1="120.502" x2="146.718" y2="120.502" gradientUnits="userSpaceOnUse">
<stop stop-color="#F9B53C"/>
<stop offset="1" stop-color="#F97B54"/>
</linearGradient>
<linearGradient id="paint11_linear_1_7497" x1="27.5929" y1="99.131" x2="128.755" y2="99.131" gradientUnits="userSpaceOnUse">
<stop stop-color="#F97C54"/>
<stop offset="1" stop-color="#F9A643"/>
</linearGradient>
<linearGradient id="paint12_linear_1_7497" x1="32.534" y1="99.131" x2="58.4967" y2="99.131" gradientUnits="userSpaceOnUse">
<stop stop-color="#F9B93B"/>
<stop offset="1" stop-color="#F9B93B"/>
</linearGradient>
</defs>
</svg>
