<svg width="205" height="205" viewBox="0 0 205 205" fill="none" xmlns="http://www.w3.org/2000/svg">
<path d="M153.902 153.227C182.09 125.039 182.09 79.3377 153.902 51.15C125.714 22.9622 80.013 22.9622 51.8253 51.15C23.6375 79.3377 23.6374 125.039 51.8252 153.227C80.0129 181.415 125.715 181.415 153.902 153.227Z" fill="#F4F4F4"/>
<path d="M70.76 101.51C70.76 94.2301 76.6599 88.3301 83.9399 88.3301C87.6999 88.3301 91.08 89.9 93.48 92.43L103.06 82.8799C98.2001 77.8999 91.4299 74.7901 83.9399 74.7901C69.2099 74.7901 57.22 86.7801 57.22 101.51C57.22 108.97 60.3 115.73 65.25 120.58L74.83 111.03C72.33 108.63 70.76 105.25 70.76 101.51Z" fill="#FFA20D"/>
<path d="M103.18 69.47C110.46 69.47 116.36 75.37 116.36 82.65C116.36 86.41 114.79 89.79 112.26 92.19L121.81 101.77C126.79 96.9101 129.9 90.14 129.9 82.65C129.9 67.92 117.91 55.93 103.18 55.93C95.7201 55.93 88.96 59.01 84.11 63.96L93.66 73.5401C96.06 71.0301 99.4301 69.47 103.18 69.47Z" fill="#F43838"/>
<path d="M135.02 101.85C135.02 109.13 129.12 115.03 121.84 115.03C118.08 115.03 114.7 113.46 112.3 110.93L102.72 120.48C107.58 125.46 114.35 128.57 121.84 128.57C136.57 128.57 148.56 116.58 148.56 101.85C148.56 94.3901 145.48 87.63 140.53 82.78L130.95 92.3301C133.46 94.7301 135.02 98.1101 135.02 101.85Z" fill="#0B5CFF"/>
<path d="M102.61 133.89C95.33 133.89 89.4301 127.99 89.4301 120.71C89.4301 116.95 91 113.57 93.53 111.17L83.98 101.59C79 106.45 75.89 113.22 75.89 120.71C75.89 135.44 87.88 147.43 102.61 147.43C110.07 147.43 116.83 144.35 121.68 139.4L112.13 129.82C109.72 132.33 106.35 133.89 102.61 133.89Z" fill="#2ADD51"/>
</svg>
