<svg width="145" height="145" viewBox="0 0 145 145" fill="none" xmlns="http://www.w3.org/2000/svg">
<path d="M72.9399 144.65C112.721 144.65 144.97 112.401 144.97 72.62C144.97 32.8389 112.721 0.590027 72.9399 0.590027C33.1589 0.590027 0.910034 32.8389 0.910034 72.62C0.910034 112.401 33.1589 144.65 72.9399 144.65Z" fill="#FF0013"/>
<path d="M98.99 45.18L27.6899 31.92L66.1801 128.01L118.91 63.28L98.99 45.18ZM109.94 62.13L78.46 67.32L97.8101 51.05L109.94 62.13ZM93.0699 48.63L72.9301 65.67L40.34 39.06L93.0699 48.63ZM65.49 113.36L37.75 43.27L70.52 70.2L65.49 113.36ZM70.15 115.07L75.38 72.62L109.57 66.72L70.15 115.07Z" fill="white"/>
</svg>
