<svg width="175" height="175" viewBox="0 0 175 175" fill="none" xmlns="http://www.w3.org/2000/svg">
<path d="M157.453 104.373C166.614 65.5772 142.59 26.7008 103.794 17.5401C64.9988 8.37939 26.1224 32.4033 16.9617 71.1989C7.80098 109.994 31.8248 148.871 70.6204 158.031C109.416 167.192 148.292 143.168 157.453 104.373Z" fill="#F4F4F4"/>
<path d="M70.1599 58.1201L78.5901 72.5901H94.8899L86.9199 58.1201H70.1599Z" fill="#5C00E9"/>
<path d="M70.1599 54.9101H84.8999L77.53 41.73L70.1599 54.9101Z" fill="#243269"/>
<path d="M80.6001 40.5401L108.8 90.5301H125.1L96.8999 40.5401H80.6001Z" fill="#5C00E9"/>
<path d="M67.4199 59.86L75.75 74.3301L47.45 124.78L39.1201 109.85L67.4199 59.86Z" fill="#00BFE9"/>
<path d="M57.4299 113.43L65.03 125.79H50.29L57.4299 113.43Z" fill="#243269"/>
<path d="M59.1699 110.04L67.6001 124.78L75.75 110.04L67.46 95.5701L59.1699 110.04Z" fill="#00BFE9"/>
<path d="M70.1599 125.79L78.22 111.5H135.17L127.39 125.79H70.1599Z" fill="#5569FF"/>
<path d="M70.1599 93.92H87.28L95.3401 108.39H78.5901L70.1599 93.92Z" fill="#243269"/>
<path d="M100.65 108.39H117.04L125.1 93.92H108.62L100.65 108.39Z" fill="#5569FF"/>
<path d="M120.89 108.39H135.17L128.4 95.5701L120.89 108.39Z" fill="#243269"/>
<path d="M89.21 92.3201L97.54 106.89L106.15 92.3201L97.6799 77.6202L89.21 92.3201Z" fill="#243269"/>
<path d="M70.1599 90.5301H86.6399L95.3401 75.8799H78.22L70.1599 90.5301Z" fill="#243269"/>
</svg>
