<svg width="173" height="173" viewBox="0 0 173 173" fill="none" xmlns="http://www.w3.org/2000/svg">
<path d="M156.956 102.417C165.718 63.5302 141.297 24.9028 102.409 16.1407C63.5221 7.37862 24.8946 31.7999 16.1325 70.6871C7.37041 109.574 31.7917 148.202 70.679 156.964C109.566 165.726 148.194 141.305 156.956 102.417Z" fill="#FF4A4A"/>
<path d="M77.22 84.57C77.22 88.57 77.24 92.5601 77.23 96.5601C77.23 98.1501 76.67 98.6701 75.08 98.6701C73.66 98.6701 72.24 98.6801 70.82 98.6701C69.72 98.6601 69.13 98.1 69.05 96.99C69.02 96.56 69.04 96.1201 69.04 95.6801C69.04 88.1101 69.03 80.54 69.07 72.96C69.07 72.29 69.27 71.5 69.66 70.98C70.37 70.03 71.62 69.9701 72.61 70.6501C76.98 73.6201 81.35 76.59 85.71 79.57C86.62 80.19 87.24 80.2101 88.25 79.5301C92.62 76.5801 96.98 73.62 101.33 70.64C102.19 70.05 103.03 70.1801 103.85 70.5601C104.62 70.9201 104.91 71.66 104.91 72.5C104.91 80.59 104.91 88.6901 104.9 96.7801C104.9 98.0301 104.29 98.6401 103.04 98.6501C101.59 98.6701 100.13 98.5701 98.69 98.6801C97.51 98.7701 96.67 97.8201 96.69 96.6501C96.76 92.8801 96.72 89.11 96.72 85.34C96.72 85.03 96.72 84.73 96.72 84.23C95.28 85.13 93.99 85.93 92.71 86.73C91.31 87.6 89.89 88.45 88.51 89.35C87.38 90.09 86.39 89.98 85.27 89.25C82.68 87.57 80.01 86 77.38 84.39C77.32 84.46 77.27 84.51 77.22 84.57Z" fill="#FEFEFE"/>
<path d="M37.4699 90.2902C43.6199 90.2902 49.65 90.2902 55.76 90.2902C55.76 89.9002 55.76 89.5601 55.76 89.2201C55.76 83.4801 55.76 77.7401 55.76 72.0101C55.76 70.4801 56.3 69.9401 57.84 69.9401C59.17 69.9301 60.51 69.9301 61.84 69.9401C63.24 69.9501 63.9099 70.6201 63.9099 72.0101C63.9099 79.9301 63.9099 87.8501 63.9099 95.7701C63.9099 97.6501 63.08 98.4801 61.2 98.4801C51.43 98.4801 41.65 98.4601 31.88 98.4901C30.33 98.5001 29.25 97.4701 29.26 95.8801C29.31 87.9301 29.2799 79.9801 29.2899 72.0301C29.2899 70.5301 29.8799 69.9401 31.3699 69.9401C32.6999 69.9401 34.0399 69.9301 35.3699 69.9401C36.8299 69.9501 37.45 70.5802 37.45 72.0602C37.45 77.7702 37.45 83.4901 37.45 89.2001C37.47 89.5401 37.4699 89.8902 37.4699 90.2902Z" fill="#FEFEFE"/>
<path d="M127.26 69.9301C132.02 69.9301 136.78 69.9301 141.53 69.9301C143.86 69.9301 144.58 70.64 144.58 72.96C144.58 80.68 144.58 88.39 144.58 96.11C144.58 97.96 144.07 98.46 142.21 98.46C140.96 98.46 139.72 98.47 138.47 98.46C137.03 98.45 136.42 97.8501 136.42 96.4001C136.41 90.8301 136.42 85.26 136.42 79.69C136.42 78.3 136.14 78.0201 134.74 78.0201C129.75 78.0201 124.76 78.0201 119.77 78.0201C118.44 78.0201 118.13 78.3301 118.13 79.6601C118.13 85.2001 118.13 90.7301 118.13 96.2701C118.13 97.9001 117.57 98.46 115.94 98.46C114.61 98.46 113.27 98.47 111.94 98.46C110.59 98.45 109.97 97.8601 109.97 96.5001C109.96 88.4301 109.96 80.3701 109.97 72.3001C109.97 70.7901 110.91 69.9301 112.46 69.9301C117.39 69.9301 122.32 69.9301 127.26 69.9301Z" fill="#FEFEFE"/>
<path d="M123.34 87.5401C123.34 86.7601 123.33 85.97 123.34 85.19C123.36 84.3 123.84 83.6001 124.7 83.5801C126.51 83.5301 128.33 83.64 130.14 83.69C130.87 83.71 131.24 84.2501 131.26 84.8001C131.31 86.6101 131.24 88.4301 131.19 90.2401C131.16 91.2201 130.44 91.4901 129.66 91.5201C128.07 91.5701 126.47 91.5501 124.87 91.5201C123.98 91.5101 123.34 90.8101 123.33 89.8901C123.33 89.1001 123.34 88.3201 123.34 87.5401Z" fill="#FEFEFE"/>
</svg>
