<svg width="144" height="144" viewBox="0 0 144 144" fill="none" xmlns="http://www.w3.org/2000/svg">
<path d="M71.8101 143.27C111.332 143.27 143.37 111.232 143.37 71.71C143.37 32.1885 111.332 0.150024 71.8101 0.150024C32.2886 0.150024 0.25 32.1885 0.25 71.71C0.25 111.232 32.2886 143.27 71.8101 143.27Z" fill="#FE017A"/>
<path d="M66.7 48.06C65.64 45.94 64.14 43.88 63.4 41.56C62.82 39.76 62.92 37.84 62.36 36.02C61.24 32.37 58.49 29.68 54.48 29.93C54.48 29.93 53.65 40.74 59.64 45.4C65.63 50.06 67.2 49.06 66.7 48.06Z" fill="white"/>
<path d="M72.6 39.83C80.25 52.05 89.15 52.3 94.14 52.72C99.13 53.14 106.7 52.63 109.52 58.62C109.52 58.62 109.19 52.14 103.2 46.07C103.2 46.07 102.7 53.3 98.29 52.31C98.29 52.31 96.88 51.66 98.21 48.91C99.54 46.16 98.29 41.83 98.29 41.83C98.29 41.83 90.72 34.36 73.26 37.09C73.26 37.09 66.0301 26.36 54.4301 27.19C54.4401 27.19 64.95 27.61 72.6 39.83Z" fill="white"/>
<path d="M110.53 62.52C108.07 60.25 104.78 58.86 101.6 57.93C99.6999 57.37 97.76 56.98 95.8 56.72C84.16 55.14 80.8299 51.98 80.8299 51.98C80.8299 51.98 77.9999 61.88 93.7199 68.2C109.44 74.52 112.6 76.02 113.35 83.33C113.31 82.95 114.1 81.9 114.25 81.54C114.92 79.96 115.38 78.29 115.59 76.59C116.22 71.52 114.31 66 110.53 62.52Z" fill="white"/>
<path d="M104.56 77.71C100.89 75 96.65 72.94 92.64 70.77C92.64 70.77 91.31 77.92 95.05 83.33C98.79 88.74 107.27 98.46 102.12 106.95C102.31 106.64 103.37 106.3 103.69 106.11C104.98 105.33 106.2 104.4 107.28 103.34C110.73 99.97 112.38 95.21 111.88 90.43C111.36 85.51 108.54 80.65 104.56 77.71Z" fill="white"/>
<path d="M80.62 83.1C75.59 84.87 70.08 85.05 65.15 87.07C64.49 87.34 63.57 87.69 63.22 88.33C64.48 88.27 65.9001 87.64 67.1801 87.42C68.6201 87.18 70.08 87.04 71.53 86.91C74.39 86.67 77.26 86.53 80.08 85.96C82.71 85.43 85.36 84.47 87.28 82.58C89.16 80.74 90.1901 78.1 90.1801 75.47C90.1701 72.84 89.15 70.25 87.46 68.24C88.15 71.55 88.8 75.17 87.21 78.16C85.9 80.65 83.28 82.17 80.62 83.1Z" fill="white"/>
<path d="M100.3 41.58C100.63 45.24 100.63 49.06 99.88 50.06C99.88 50.06 101.71 48.9 101.79 42.45C101.79 42.45 101.17 38.42 108.23 45.78C108.23 45.78 104.24 41.21 101.83 38.63C99.42 36.05 101.04 28.73 101.04 28.73C101.04 28.73 99.63 31.52 99.42 36.05C99.42 36.05 99.46 37.21 98.42 36.84C97.38 36.47 93.6801 35.3 91.5601 34.84C91.5601 34.84 99.96 37.92 100.3 41.58Z" fill="white"/>
<path d="M57.4901 61.12C57.3101 63.99 60.16 64.7 62.44 64.29C62.6 64.26 62.7601 64.23 62.9201 64.19C66.0801 63.48 67.8701 61.53 66.5001 59.33C65.6201 57.91 63.93 56.74 62.22 56.71C61.95 56.7 61.6701 56.73 61.4001 56.79C59.4401 57.18 57.6201 59.08 57.4901 61.12ZM62.2501 57.38C63.5601 57.38 64.6201 58.11 64.6201 59C64.6201 59.9 63.5601 60.62 62.2501 60.62C60.9401 60.62 59.8801 59.89 59.8801 59C59.8801 58.1 60.9401 57.38 62.2501 57.38Z" fill="white"/>
<path d="M50.27 88.93C49.31 85.86 45.99 84.45 43.85 82.31C42.51 80.97 41.4401 79.27 41.1801 77.37C40.7901 74.42 42.82 71.6 43.95 69.02C44.92 66.79 45.55 64.56 45.65 62.13C45.82 58.3 46.81 56.14 50.64 55.56C54.47 54.98 58.54 52.98 58.96 47.74L16.38 1.59003L53.72 47.16C53.72 47.16 56.4701 49.16 54.4301 50.9C52.3901 52.65 48.57 53.06 46.15 49.32C43.74 45.58 31.9301 27.87 31.9301 27.87L44.15 49.66C44.15 49.66 45.73 52.15 44.4 53.24C43.07 54.32 41.66 57.23 41.41 59.73C41.16 62.22 40.41 68.21 34.26 75.28C28.11 82.35 28.6901 89.33 31.4301 93.66C34.1701 97.98 35.26 99.81 35.42 101.14C35.42 101.14 45.9 99.89 49.14 94.74C50.24 92.99 50.9 90.93 50.27 88.93ZM35.9 88.72C35.24 89.08 34.03 88.89 33.85 88.02C33.66 87.15 35.1 86.71 33.85 85.84C33.15 85.35 33.6 84.73 34.11 84.32C34.34 84.14 34.57 84.03 34.8 83.98C35.68 83.79 36.4401 84.51 36.8101 85.24C37.3601 86.32 37.05 88.1 35.9 88.72Z" fill="white"/>
<path d="M84.62 112.33C81.89 109.68 82.2801 105.02 81.1801 101.6C80.0801 98.2 78.13 94.96 74.96 93.15C74.51 92.89 74.03 92.66 73.55 92.47C67.02 89.85 59.05 92.59 53.45 96.23C52.65 96.75 51.88 97.31 51.13 97.9C50.78 98.18 49.22 99.96 48.89 99.93C48.89 99.93 57.37 100.62 61.8 106.48C63.19 108.32 65.1801 109.73 67.5601 109.71C71.0401 109.69 73.9 107.14 73.34 103.54C73.04 101.65 70.94 100.15 69.1 100.19C68.08 100.21 66.44 100.73 66.09 101.78C65.74 102.81 66.29 104.1 67.23 104.6C67.23 104.6 67.23 104.6 67.24 104.6C66.71 104.06 66.17 103.39 66.26 102.64C66.33 102 66.85 101.5 67.41 101.19C69.39 100.09 71.9501 101.4 72.0601 103.75C72.1301 105.27 71.08 106.73 69.67 107.29C68.26 107.85 66.58 107.55 65.35 106.66C61.41 103.81 64.5 97.87 68.92 98.17C73.47 98.48 76.84 102.68 78.71 107.63C80.58 112.58 85.57 119.19 94.36 113.2C93.48 113.8 91.87 113.94 90.85 114.05C88.63 114.31 86.27 113.94 84.62 112.33Z" fill="white"/>
</svg>
