<svg width="204" height="204" viewBox="0 0 204 204" fill="none" xmlns="http://www.w3.org/2000/svg">
<path d="M153.033 152.336C181.033 124.336 181.033 78.9387 153.033 50.9384C125.032 22.9381 79.6348 22.9381 51.6345 50.9384C23.6342 78.9387 23.634 124.336 51.6343 152.337C79.6347 180.337 125.032 180.337 153.033 152.336Z" fill="#7A51D1"/>
<path d="M124.49 106.31C124.49 117.14 115.68 125.96 104.84 125.96H99.8799C89.0499 125.96 80.23 117.15 80.23 106.31V74.55H64.8799V106.31C64.8799 115.66 68.5199 124.45 75.1299 131.06C81.7399 137.67 90.5299 141.31 99.8799 141.31H104.84C114.19 141.31 122.98 137.67 129.59 131.06C136.2 124.45 139.84 115.66 139.84 106.31V74.55H124.49V106.31Z" fill="white"/>
<path d="M94.6899 104.78C94.6899 109.02 98.1301 112.46 102.37 112.46C106.61 112.46 110.05 109.02 110.05 104.78V75.24C110.05 75.01 110.04 74.78 110.02 74.55H94.73C94.71 74.78 94.7 75.01 94.7 75.24V104.78H94.6899Z" fill="white"/>
</svg>
