<svg width="145" height="145" viewBox="0 0 145 145" fill="none" xmlns="http://www.w3.org/2000/svg">
<path d="M72.2599 144.23C112.058 144.23 144.32 111.968 144.32 72.17C144.32 32.3723 112.058 0.109985 72.2599 0.109985C32.4623 0.109985 0.199951 32.3723 0.199951 72.17C0.199951 111.968 32.4623 144.23 72.2599 144.23Z" fill="#2775CA"/>
<path d="M76.95 105.78C76.97 104.18 76.95 102.57 76.95 100.97C76.95 99.14 76.95 99.15 78.69 98.72C83.38 97.55 87.2901 95.23 89.9301 91.07C91.9401 87.9 92.5 84.42 92.14 80.71C91.72 76.41 89.9601 72.96 86.1801 70.7C82.3401 68.4 78.03 67.72 73.72 66.96C71.21 66.51 68.6901 65.96 66.2801 65.17C63.4701 64.25 62.41 62.02 62.51 59.15C62.6 56.47 64.02 54.23 66.71 53.46C68.59 52.92 70.64 52.8 72.62 52.77C77.08 52.71 80 55.18 80.95 58.69C81.28 59.89 82.17 60.51 83.48 60.48C85.04 60.44 86.6101 60.5 88.1701 60.46C89.7001 60.42 90.75 59.15 90.32 57.68C89.87 56.11 89.36 54.52 88.59 53.09C86.32 48.9 82.5601 46.67 78.0301 45.64C77.1801 45.45 76.92 45.07 76.94 44.25C76.98 42.29 76.98 40.32 76.94 38.35C76.92 36.89 75.97 35.95 74.52 35.93C73.08 35.9 71.63 35.91 70.19 35.93C68.49 35.94 67.6 36.83 67.58 38.52C67.56 40.33 67.54 42.13 67.59 43.94C67.62 44.84 67.2901 45.2 66.4001 45.36C63.5301 45.89 60.8701 46.98 58.5301 48.76C53.6901 52.46 52.2501 57.45 53.0601 63.27C53.7201 68.04 56.4301 71.35 60.8001 73.04C63.8401 74.21 67.1 74.82 70.27 75.62C73.02 76.32 75.8201 76.82 78.5301 77.63C80.3701 78.18 81.6701 79.51 82.1701 81.48C83.1601 85.36 81.4401 88.91 77.7901 90.6C75.6301 91.6 73.37 91.63 71.08 91.54C65.87 91.35 62.34 88.84 61.47 84.03C61.23 82.68 60.3101 81.95 59.0501 81.92C57.2901 81.88 55.52 81.87 53.76 81.93C52.39 81.98 51.38 83.12 51.58 84.43C52.11 87.78 53.3401 90.82 55.6501 93.38C58.5901 96.64 62.4 98.17 66.59 98.92C67.46 99.07 67.63 99.44 67.6 100.18C67.6 100.3 67.59 100.42 67.59 100.54C67.57 101.38 67.59 102.22 67.59 103.07C67.59 103.95 67.58 104.84 67.59 105.72C67.6 107.4 68.33 108.35 69.96 108.48C71.51 108.6 73.09 108.6 74.64 108.47C76.19 108.33 76.93 107.38 76.95 105.78Z" fill="white"/>
<path d="M58.9 118.65C58.9 115.67 58.46 115.05 55.67 113.92C52.17 112.49 48.81 110.78 45.81 108.46C31.52 97.4 25.41 82.8199 27.96 64.9699C29.58 53.6199 35.28 44.32 44.23 37.08C47.91 34.11 51.98 31.82 56.4 30.15C57.85 29.6 58.79 28.64 58.87 27.07C58.95 25.51 58.93 23.94 58.88 22.38C58.84 21.07 57.94 20.25 56.61 20.29C56.02 20.31 55.42 20.44 54.86 20.63C45.93 23.7 38.22 28.64 31.88 35.68C22.98 45.57 18.39 57.2299 17.79 70.4699C17.57 75.4099 18.16 80.31 19.36 85.11C22.2 96.46 28.05 105.98 36.94 113.58C42.36 118.22 48.49 121.64 55.29 123.84C57.63 124.6 58.89 123.67 58.9 121.17C58.9 120.61 58.9 120.05 58.9 119.49C58.9 119.21 58.9 118.93 58.9 118.65Z" fill="white"/>
<path d="M88.37 30.23C93.87 32.33 98.8401 35.34 103.03 39.45C114.44 50.66 119.23 64.25 116.4 80.03C113.55 95.91 104.32 107.05 89.58 113.59C88.66 114 87.9601 114.3 87.4201 114.59C87.3501 114.63 87.28 114.67 87.21 114.7C86.71 114.98 86.3701 115.25 86.1401 115.59C86.1101 115.64 86.0801 115.68 86.0501 115.73C86.0401 115.75 86.0201 115.78 86.0101 115.8C85.9801 115.85 85.96 115.9 85.94 115.95C85.91 116.03 85.88 116.11 85.85 116.2C85.83 116.26 85.8201 116.32 85.8001 116.38C85.7901 116.41 85.7901 116.44 85.7801 116.48C85.7701 116.54 85.75 116.61 85.74 116.68C85.73 116.75 85.72 116.82 85.71 116.9C85.63 117.53 85.6301 118.36 85.6301 119.49C85.6301 119.67 85.6401 119.85 85.6401 120.03C85.6401 120.09 85.6401 120.15 85.6501 120.21C85.6501 120.33 85.6501 120.45 85.6501 120.57C85.6501 120.69 85.64 120.81 85.62 120.93C85.29 123.38 86.97 124.63 89.48 123.79C110.94 116.6 125.83 97.07 126.74 73.93C126.99 67.51 126.05 61.22 124 55.13C120.04 43.32 112.88 33.92 102.56 26.94C98.4201 24.14 93.95 22 89.19 20.46C86.96 19.74 85.6401 20.7 85.6301 23C85.6301 24.08 85.6301 25.17 85.6301 26.25C85.6301 28.54 86.26 29.42 88.37 30.23Z" fill="white"/>
</svg>
