<svg width="205" height="205" viewBox="0 0 205 205" fill="none" xmlns="http://www.w3.org/2000/svg">
<path d="M153.214 153.447C181.402 125.26 181.402 79.5583 153.214 51.3705C125.026 23.1828 79.3248 23.1827 51.1371 51.3705C22.9493 79.5582 22.9494 125.26 51.1371 153.447C79.3249 181.635 125.026 181.635 153.214 153.447Z" fill="#ECEFF0"/>
<path d="M71.72 79C71.72 76.32 72.7201 73.8699 74.3601 71.9899L43.96 102.39L74.3601 132.79C72.7201 130.91 71.72 128.46 71.72 125.78V79Z" fill="#00A2E8"/>
<path d="M82.3799 136.45C79.6999 136.45 77.2501 135.45 75.3701 133.81L101.65 160.09L127.93 133.81C126.05 135.45 123.6 136.45 120.92 136.45H82.3799Z" fill="#00A2E8"/>
<path d="M131.58 125.79C131.58 128.47 130.58 130.92 128.94 132.8L159.34 102.4L128.94 72C130.58 73.88 131.58 76.33 131.58 79.01V125.79Z" fill="#3F48CC"/>
<path d="M120.92 68.3399C123.6 68.3399 126.05 69.3399 127.93 70.9799L101.65 44.6999L75.3701 70.9799C77.2501 69.3399 79.6999 68.3399 82.3799 68.3399H120.92Z" fill="#00A2E8"/>
<path d="M120.92 72.63H82.3799C78.8599 72.63 76.01 75.48 76.01 79V125.79C76.01 129.31 78.8599 132.16 82.3799 132.16H120.92C124.44 132.16 127.29 129.31 127.29 125.79V79C127.28 75.48 124.43 72.63 120.92 72.63Z" fill="#7092BE"/>
<path d="M127.93 70.9799L128.95 72C128.63 71.63 128.29 71.2899 127.93 70.9799Z" fill="#89FF4D"/>
<path d="M74.3501 71.9899L75.3701 70.9699C75.0101 71.2899 74.6701 71.6299 74.3501 71.9899Z" fill="#89FF4D"/>
<path d="M128.94 132.8L127.92 133.82C128.29 133.5 128.63 133.16 128.94 132.8Z" fill="#89FF4D"/>
<path d="M75.3701 133.82L74.3501 132.8C74.6701 133.16 75.0101 133.5 75.3701 133.82Z" fill="#89FF4D"/>
<path d="M131.58 125.79V79C131.58 76.32 130.58 73.8699 128.94 71.9899L127.92 70.9699C126.04 69.3299 123.59 68.3299 120.91 68.3299H82.3701C79.6901 68.3299 77.2401 69.3299 75.3601 70.9699L74.3401 71.9899C72.7001 73.8699 71.7 76.32 71.7 79V125.79C71.7 128.47 72.7001 130.92 74.3401 132.8L75.3601 133.82C77.2401 135.46 79.6901 136.46 82.3701 136.46H120.91C123.59 136.46 126.04 135.46 127.92 133.82L128.94 132.8C130.58 130.92 131.58 128.47 131.58 125.79ZM120.92 132.16H82.3799C78.8599 132.16 76.01 129.31 76.01 125.79V79C76.01 75.48 78.8599 72.63 82.3799 72.63H120.92C124.44 72.63 127.29 75.48 127.29 79V125.79C127.28 129.31 124.43 132.16 120.92 132.16Z" fill="white"/>
<path d="M108.49 103.72C106.47 101.6 103.21 100.88 100.81 99.0699C100.17 98.5799 99.57 98 99.23 97.27C96.82 92.08 106.09 94.14 107.99 94.67C108.5 93.5 108.55 91.94 108.76 90.64C108.76 90.64 107.23 89.91 105.11 89.43L105.5 85.15H101.04L100.71 89.0899C98.46 89.2999 96.18 90.2 94.53 92.52C92.41 95.5 93.45 98.52 96.03 100.75C98.35 102.76 102.11 102.98 104.03 105.47C105.52 107.41 105.15 110.45 102.33 110.69C98.4701 111.03 93.6699 108.46 93.6699 108.46V113.78C93.6699 113.78 95.68 114.61 98.52 114.94L98.1299 119.61H102.32L102.75 114.96C104.16 114.79 105.62 114.43 107.04 113.78C110.02 112.41 110.92 108.84 109.86 105.91C109.54 105.04 109.07 104.32 108.49 103.72Z" fill="white"/>
</svg>
