<svg width="205" height="205" viewBox="0 0 205 205" fill="none" xmlns="http://www.w3.org/2000/svg">
<path d="M153.91 153.548C182.098 125.36 182.098 79.6586 153.91 51.4708C125.723 23.283 80.0212 23.2829 51.8334 51.4707C23.6457 79.6585 23.6457 125.36 51.8334 153.548C80.0212 181.736 125.723 181.735 153.91 153.548Z" fill="#F4F4F4"/>
<path d="M75.27 94.11C88.25 96.37 112.25 107.8 124.24 109.07C134.89 110.2 150.76 107.74 159.52 102.94L159.95 102.51L102.73 45.2901L46.04 101.98C51.8 98.85 65.31 92.37 75.27 94.11Z" fill="#00FEB5"/>
<path d="M102.72 159.73L159.52 102.93C150.76 107.73 134.89 110.19 124.24 109.06C112.24 107.79 88.25 96.3601 75.27 94.1001C65.32 92.3701 51.8 98.8501 46.04 101.96L45.51 102.49L102.72 159.73Z" fill="#05B595"/>
<path d="M123.07 115.03C123.07 107.36 119.87 101.83 103.94 97.9901C95.2599 95.8901 91.39 94.0501 91.39 88.7501C91.39 85.7001 92.85 80.59 102.62 80.59C112.37 80.59 114.84 87.2001 115.45 90.0501L115.56 90.5501H122.09L122.01 89.84C121.54 85.67 119.66 81.9 116.71 79.2C113.86 76.6 110.03 75.02 105.55 74.57V67.0401H100.89V74.5001C89 75.2401 84.72 82.7101 84.72 89.1601C84.72 97.1401 89.31 101.08 102.27 104.19C114.18 107.06 116.19 109.98 116.19 115.44C116.19 121.75 111.83 125.08 103.58 125.08C95.84 125.08 90.98 121.53 89.15 114.54L89.03 114.06H82.39L82.5 114.79C84 124.44 90.65 130.28 100.89 131.11V137.95H105.55V131.16C116.11 130.44 123.07 124.14 123.07 115.03Z" fill="#303745"/>
</svg>
