<svg width="173" height="173" viewBox="0 0 173 173" fill="none" xmlns="http://www.w3.org/2000/svg">
<path d="M156.907 102.04C165.654 63.2172 141.273 24.654 102.451 15.9065C63.6283 7.15895 25.0651 31.5396 16.3175 70.3622C7.57003 109.185 31.9507 147.748 70.7733 156.496C109.596 165.243 148.159 140.862 156.907 102.04Z" fill="#50AF95"/>
<path d="M95.9601 71.62V60.61H122.24V42.96H51.0201V60.61H77.3001V71.62C55.9601 72.6 39.8901 76.87 39.8901 81.98C39.8901 87.1 55.9601 91.3601 77.3001 92.3401V129.38H95.9601V92.3401C117.3 91.3601 133.37 87.09 133.37 81.98C133.37 76.86 117.3 72.59 95.9601 71.62ZM95.9601 89.22C92.9601 89.35 89.8401 89.42 86.6301 89.42C83.4201 89.42 80.3001 89.35 77.3001 89.22C58.2601 88.39 44.0401 85.06 44.0401 81.08C44.0401 77.1 58.2701 73.77 77.3001 72.94V86.07C80.3001 86.18 83.4201 86.23 86.6301 86.23C89.8401 86.23 92.9601 86.17 95.9601 86.07V72.94C115 73.77 129.22 77.1 129.22 81.08C129.22 85.05 115 88.38 95.9601 89.22Z" fill="white"/>
</svg>
