<svg width="205" height="205" viewBox="0 0 205 205" fill="none" xmlns="http://www.w3.org/2000/svg">
<path d="M153.286 153.42C181.474 125.233 181.474 79.5311 153.286 51.3433C125.098 23.1556 79.3968 23.1555 51.209 51.3433C23.0212 79.5311 23.0212 125.232 51.209 153.42C79.3968 181.608 125.098 181.608 153.286 153.42Z" fill="#15BDFF"/>
<path d="M141.74 69.4H139.81C139.18 69.4 138.6 69.76 138.32 70.32L112.8 122.22C110.71 126.47 104.65 126.46 102.57 122.21L77.1201 70.3C76.8501 69.74 76.28 69.39 75.66 69.39H63.5101C62.0901 69.39 61.16 70.88 61.79 72.16L96.3901 142.34C98.8101 147.26 105.83 147.24 108.23 142.31L142.82 71.12C143.2 70.32 142.62 69.4 141.74 69.4Z" fill="white"/>
</svg>
