<svg width="145" height="145" viewBox="0 0 145 145" fill="none" xmlns="http://www.w3.org/2000/svg">
<path d="M72.9199 0.369995C33.0999 0.369995 0.830078 32.65 0.830078 72.46C0.830078 98.95 15.1199 122.11 36.4199 134.64L100.69 5.91003C92.1299 2.35003 82.7599 0.369995 72.9199 0.369995Z" fill="url(#paint0_linear_1_7698)"/>
<path d="M100.68 5.92004L36.4099 134.65C47.1199 140.95 59.5899 144.57 72.9199 144.57C112.74 144.57 145.01 112.29 145.01 72.48C145.01 42.49 126.71 16.79 100.68 5.92004Z" fill="url(#paint1_linear_1_7698)"/>
<path d="M116.73 39.95H84.62C83.97 39.95 83.38 40.31 83.08 40.88L66.9999 71.74L50.33 39.9399H29.6498C28.4598 39.9399 27.6899 41.2 28.2399 42.26L69.5599 121.84C71.1199 124.85 75.4399 124.84 76.9799 121.81L117.85 41.76C118.28 40.94 117.67 39.95 116.73 39.95ZM72.9699 120.22L67.0099 109.51L101.35 43.71H112.83L72.9699 120.22Z" fill="white"/>
<defs>
<linearGradient id="paint0_linear_1_7698" x1="46.5808" y1="42.0106" x2="8.38094" y2="113.773" gradientUnits="userSpaceOnUse">
<stop stop-color="#5D62FC"/>
<stop offset="1" stop-color="#3732B4"/>
</linearGradient>
<linearGradient id="paint1_linear_1_7698" x1="67.0934" y1="147.658" x2="127.153" y2="41.0074" gradientUnits="userSpaceOnUse">
<stop stop-color="#4A3ED2"/>
<stop offset="1" stop-color="#201C57"/>
</linearGradient>
</defs>
</svg>
