<svg width="175" height="176" viewBox="0 0 175 176" fill="none" xmlns="http://www.w3.org/2000/svg">
<path d="M157.437 105.07C166.888 66.3421 143.156 27.285 104.428 17.8333C65.7 8.38152 26.6428 32.1144 17.191 70.8422C7.73929 109.57 31.4723 148.627 70.2001 158.079C108.928 167.531 147.985 143.798 157.437 105.07Z" fill="black"/>
<path d="M130.33 85.6301C128.5 84.1001 126.72 82.6101 124.9 81.0801C126.64 79.6301 128.32 78.2201 130.02 76.8301C130.16 76.7201 130.39 76.6601 130.58 76.6601C133.94 76.6501 137.3 76.6501 140.66 76.6601C140.72 76.6601 140.79 76.7101 140.96 76.7701C137.39 79.7401 133.9 82.6601 130.33 85.6301Z" fill="#F68F21"/>
<path d="M32.3599 76.61C34.4999 76.63 36.6499 76.6701 38.7899 76.6401C39.4099 76.6301 39.6999 76.8101 39.9199 77.4101C41.5099 81.8601 43.1399 86.29 44.7599 90.72C44.8199 90.88 44.8899 91.04 45.0099 91.35C45.6799 89.53 46.2999 87.8401 46.9099 86.1401C47.9899 83.1901 49.0699 80.2401 50.1199 77.2901C50.2899 76.8301 50.4899 76.6301 51.0299 76.6401C53.5599 76.6801 56.0799 76.6701 58.6099 76.6401C59.1299 76.6301 59.3399 76.8001 59.5199 77.2801C61.1499 81.7901 62.7998 86.2901 64.4498 90.8001C64.4898 90.9101 64.5399 91.0201 64.6299 91.2701C64.7699 90.9301 64.8698 90.7201 64.9498 90.5001C66.5598 86.1101 68.1699 81.73 69.7499 77.33C69.9499 76.77 70.2099 76.6201 70.7699 76.6301C72.8899 76.6601 75.0099 76.6401 77.2699 76.6401C74.7899 83.4501 72.3199 90.2001 69.7899 97.1401C70.0999 96.8901 70.3199 96.77 70.4799 96.6C75.1199 91.18 79.7599 85.76 84.3999 80.34C85.3999 79.17 86.4099 78.01 87.3899 76.83C87.7199 76.43 88.0599 76.2601 88.5999 76.2601C91.0999 76.2901 93.5999 76.2901 96.0999 76.2601C96.6899 76.2501 97.0598 76.4401 97.4398 76.8801C101.66 81.8601 105.9 86.8201 110.14 91.7901C110.32 92.0001 110.5 92.2 110.73 92.44C112.95 90.61 115.14 88.8 117.39 86.94C110.4 81.14 103.44 75.38 96.3298 69.48C96.7598 69.48 96.9999 69.48 97.2299 69.48C100.24 69.48 103.24 69.49 106.25 69.47C106.79 69.47 107.19 69.6 107.61 69.95C118.39 78.88 129.17 87.81 139.96 96.73C140.27 96.98 140.57 97.24 140.98 97.58C140.65 97.6 140.44 97.6201 140.23 97.6201C137.15 97.6201 134.07 97.64 130.98 97.6C130.59 97.6 130.14 97.43 129.84 97.19C127.47 95.27 125.13 93.32 122.75 91.36C120.51 93.21 118.28 95.0201 116.09 96.8801C115.46 97.4201 114.84 97.6701 113.99 97.6501C111.57 97.5901 109.14 97.65 106.72 97.61C106.4 97.61 105.99 97.4201 105.78 97.1801C104.57 95.8201 103.43 94.4101 102.22 93.0601C101.99 92.8001 101.56 92.6 101.22 92.59C96.7498 92.56 92.2799 92.57 87.8099 92.57C87.5699 92.57 87.3299 92.57 86.9099 92.57C87.7999 91.52 88.6799 90.6501 89.3599 89.6401C90.1999 88.3901 91.2499 87.99 92.7299 88.1C94.4299 88.23 96.1399 88.1301 98.0499 88.1301C96.1099 85.8501 94.2899 83.7201 92.4099 81.5101C92.1299 81.8301 91.8699 82.1301 91.6199 82.4301C85.3599 89.7501 79.1099 97.0701 72.8499 104.39C69.8699 104.39 66.8899 104.39 63.9199 104.38C65.6299 102.33 67.3499 100.29 69.1299 98.1501C66.1799 98.1501 63.3699 98.1401 60.5699 98.1601C60.0599 98.1601 59.8199 98.0301 59.6499 97.5301C58.8199 95.1601 57.9399 92.81 57.0799 90.45C56.3599 88.47 55.6299 86.4901 54.8599 84.3801C54.7099 84.7601 54.6099 84.98 54.5199 85.22C53.0399 89.28 51.5499 93.3301 50.0999 97.4001C49.8799 98.0101 49.5898 98.1801 48.9698 98.1701C46.3198 98.1301 43.6599 98.1301 41.0099 98.1701C40.3999 98.1801 40.1399 98.0001 39.9399 97.4201C37.8299 91.5601 35.6899 85.71 33.5499 79.86C33.1799 78.86 32.7599 77.8801 32.3699 76.8801C32.3599 76.8101 32.3599 76.71 32.3599 76.61Z" fill="white"/>
</svg>
