<svg width="145" height="145" viewBox="0 0 145 145" fill="none" xmlns="http://www.w3.org/2000/svg">
<path d="M72.6699 0.109985C32.8099 0.109985 0.48999 32.43 0.48999 72.29C0.48999 112.15 32.8099 144.47 72.6699 144.47C112.53 144.47 144.85 112.15 144.85 72.29C144.85 32.43 112.54 0.109985 72.6699 0.109985ZM121.55 117.27C120.3 118.63 118.99 119.93 117.64 121.18C105.81 132.06 90.0199 138.71 72.6799 138.71C55.3299 138.71 39.54 132.06 27.71 121.17L27.6899 121.19L27.1299 120.63C26.1599 119.72 25.2201 118.78 24.3201 117.81L23.78 117.27L23.8 117.25C12.91 105.42 6.26001 89.62 6.26001 72.28C6.26001 52.95 14.52 35.55 27.7 23.41C39.53 12.51 55.3299 5.85999 72.6899 5.85999C109.38 5.85999 139.12 35.6 139.12 72.29C139.1 89.64 132.44 105.44 121.55 117.27Z" fill="#292138"/>
<path d="M72.6699 5.85999C55.3099 5.85999 39.5099 12.52 27.6799 23.41C14.4999 35.55 6.23999 52.95 6.23999 72.28C6.23999 89.63 12.89 105.42 23.78 117.25L23.76 117.27L24.3 117.81C25.21 118.78 26.1501 119.72 27.1101 120.63L27.6699 121.19L27.6899 121.17C39.5199 132.06 55.3099 138.71 72.6599 138.71C89.9999 138.71 105.79 132.06 117.62 121.18C118.98 119.93 120.28 118.63 121.53 117.27C132.43 105.44 139.08 89.64 139.08 72.28C139.1 35.6 109.36 5.85999 72.6699 5.85999ZM72.6699 10.54C88.7199 10.54 103.34 16.66 114.32 26.7L110.34 30.68C100.38 21.66 87.1699 16.17 72.6799 16.17C58.1699 16.17 44.95 21.68 34.99 30.71L31.01 26.73C41.98 16.67 56.6099 10.54 72.6699 10.54ZM97.71 59.13C99.18 67.73 91.5701 70.8 91.5701 70.8C102.49 73.37 101.64 84.06 101.64 84.06C101.89 100.76 80.6399 99.66 80.6399 99.66V111.45H73.5601V99.66H68.03V111.45H60.95V99.66H46.74L48.72 91.43H53.6299C54.8399 91.43 55.8301 90.45 55.8301 89.23V57.97C55.8301 56.24 54.4199 54.83 52.6899 54.83H46.74V47.58V47.09H49.2H60.95V35.75H68.03V47.09H73.5601V35.75H80.6399V47.09C88.1499 47.21 96.26 50.67 97.71 59.13ZM10.9199 72.29C10.9199 56.25 17.0401 41.64 27.0701 30.66L31.05 34.64C22.04 44.6 16.55 57.8 16.55 72.29C16.55 86.79 22.0501 100.01 31.0801 109.97L27.1001 113.95C17.0501 102.97 10.9199 88.34 10.9199 72.29ZM72.6699 134.03C56.6099 134.03 41.99 127.9 31.01 117.86L34.99 113.88C44.95 122.91 58.1699 128.41 72.6699 128.41C87.1699 128.41 100.38 122.91 110.34 113.89L114.32 117.87C103.34 127.91 88.7199 134.03 72.6699 134.03ZM114.25 109.98C123.29 100.02 128.79 86.8 128.79 72.29C128.79 57.79 123.29 44.57 114.26 34.61L118.24 30.63C128.29 41.61 134.42 56.24 134.42 72.29C134.42 88.35 128.29 102.98 118.24 113.96L114.25 109.98Z" fill="white"/>
<path d="M118.25 30.62L114.27 34.6C123.3 44.56 128.8 57.78 128.8 72.28C128.8 86.79 123.29 100.01 114.26 109.97L118.24 113.95C128.29 102.97 134.42 88.34 134.42 72.28C134.42 56.23 128.29 41.6 118.25 30.62Z" fill="#83808B"/>
<path d="M72.6699 128.41C58.1699 128.41 44.95 122.91 34.99 113.88L31.01 117.86C41.99 127.9 56.6199 134.03 72.6699 134.03C88.7199 134.03 103.34 127.91 114.32 117.87L110.34 113.89C100.38 122.91 87.1699 128.41 72.6699 128.41Z" fill="#83808B"/>
<path d="M72.6699 16.16C87.1599 16.16 100.37 21.65 110.33 30.67L114.31 26.69C103.33 16.65 88.7099 10.53 72.6599 10.53C56.5999 10.53 41.97 16.66 30.98 26.72L34.96 30.7C44.94 21.67 58.1599 16.16 72.6699 16.16Z" fill="#83808B"/>
<path d="M16.55 72.29C16.55 57.8 22.04 44.6 31.05 34.64L27.0701 30.66C17.0401 41.64 10.9199 56.25 10.9199 72.29C10.9199 88.35 17.0501 102.97 27.0901 113.95L31.0701 109.97C22.0501 100 16.55 86.79 16.55 72.29Z" fill="#83808B"/>
<path d="M80.6399 47.1V35.76H73.5601V47.1H68.03V35.76H60.95V47.1H49.2H46.74V47.59V54.84H52.6899C54.4199 54.84 55.8301 56.25 55.8301 57.98V89.24C55.8301 90.45 54.8499 91.44 53.6299 91.44H48.72L46.74 99.67H60.95V111.46H68.03V99.67H73.5601V111.46H80.6399V99.67C80.6399 99.67 101.89 100.78 101.64 84.07C101.64 84.07 102.49 73.38 91.5701 70.81C91.5701 70.81 99.18 67.74 97.71 59.14C96.26 50.67 88.1499 47.21 80.6399 47.1ZM73.5601 55.35C76.5001 55.49 79.9299 55.81 82.4199 57.54C84.4399 58.94 84.7901 61.42 84.1201 63.66C83.6301 65.29 82.49 66.52 80.99 67.3C79.29 68.18 77.34 68.53 75.46 68.77C73 69.08 70.51 69.17 68.04 69.28V55.44C68.03 55.25 73.2301 55.33 73.5601 55.35ZM83.1001 89.97C79.2001 91.35 74.7599 91.39 70.6799 91.5C69.8499 91.52 68.4599 91.54 67.6299 91.55L68.04 76.2C70.59 76.14 73.1499 76.21 75.6899 76.38C78.0999 76.54 80.6099 76.57 82.8999 77.43C85.2399 78.31 87.07 80.32 87.54 82.81C88.2 86.25 86.1501 88.89 83.1001 89.97Z" fill="#F19242"/>
<path d="M68.03 69.2801C70.51 69.1701 72.99 69.08 75.45 68.77C77.33 68.53 79.28 68.18 80.98 67.3C82.48 66.52 83.6201 65.29 84.1101 63.66C84.7901 61.42 84.4299 58.95 82.4099 57.54C79.9199 55.81 76.49 55.49 73.55 55.35C73.22 55.33 68.03 55.25 68.03 55.44V69.2801Z" fill="white"/>
<path d="M82.8899 77.43C80.5999 76.57 78.0999 76.53 75.6799 76.38C73.1399 76.21 70.58 76.15 68.03 76.2L67.6201 91.55C68.4501 91.54 69.8499 91.52 70.6699 91.5C74.7499 91.39 79.1901 91.35 83.0901 89.97C86.1501 88.89 88.19 86.26 87.53 82.81C87.06 80.32 85.2299 78.31 82.8899 77.43Z" fill="white"/>
</svg>
