<svg width="174" height="175" viewBox="0 0 174 175" fill="none" xmlns="http://www.w3.org/2000/svg">
<path d="M103.632 157.796C142.427 148.635 166.451 109.759 157.291 70.9634C148.13 32.1678 109.253 8.14411 70.4579 17.3048C31.6624 26.4656 7.63864 65.3418 16.7994 104.137C25.9601 142.933 64.8363 166.957 103.632 157.796Z" fill="#F2F2F2"/>
<path d="M102.4 90.58C102.69 88.98 103 87.38 103.27 85.78C104.09 80.95 104.89 76.11 105.71 71.27C106.01 69.54 106.76 68.71 108.21 68.43C109.16 68.25 110.4 68.82 110.93 69.79C111.21 70.32 111.37 70.92 111.51 71.51C112.82 76.98 114.1 82.45 115.4 87.92C115.52 88.43 115.68 88.93 115.91 89.74C116.26 89.16 116.47 88.86 116.63 88.54C117.65 86.49 118.69 84.44 119.68 82.37C120.33 81.01 121.38 80.41 122.85 80.41C126.04 80.42 129.23 80.44 132.42 80.39C133.25 80.38 133.58 80.71 133.67 81.48C135.26 95.5 131.66 107.97 122.37 118.66C115.14 126.97 106.02 132.13 95.1699 133.92C80.7799 136.29 67.8699 132.73 56.6899 123.32C49.5299 117.29 44.7398 109.68 42.1398 100.69C42.0898 100.52 42.0399 100.35 41.9999 100.17C41.6899 98.93 41.7199 98.88 42.9799 98.87C43.8399 98.86 44.71 98.93 45.56 98.85C46.5 98.77 46.9399 99.1 47.2299 100.04C49.3199 106.86 52.92 112.78 58.08 117.71C65.02 124.33 73.25 128.31 82.83 129.23C96.13 130.5 107.59 126.36 117.01 116.93C123.73 110.2 127.64 101.97 128.67 92.48C128.93 90.11 128.82 87.7 128.89 85.31C128.91 84.62 128.57 84.35 127.9 84.36C126.72 84.37 125.53 84.41 124.35 84.34C123.44 84.29 122.91 84.62 122.52 85.46C121.12 88.41 119.66 91.32 118.23 94.25C117.75 95.24 117.05 95.97 115.93 96.15C114.38 96.39 113.14 95.51 112.73 93.81C111.64 89.29 110.58 84.75 109.5 80.22C109.32 79.47 109.12 78.73 108.93 77.98C108.83 77.98 108.72 77.98 108.62 77.98C108.39 79.25 108.13 80.51 107.92 81.78C106.89 87.85 105.86 93.92 104.84 99.99C104.53 101.82 103.57 102.81 102.04 102.85C100.57 102.89 99.3799 101.93 99.2099 100.46C98.5499 94.88 97.9099 89.3 97.2599 83.72C96.8499 80.17 96.4199 76.61 95.9999 73.06C95.9799 72.86 95.9199 72.66 95.6999 72.44C95.6099 72.73 95.4899 73.01 95.4499 73.31C94.7799 79 94.1199 84.68 93.4599 90.37C92.7699 96.23 92.0798 102.1 91.3898 107.96C91.0898 110.48 90.8099 113.01 90.4799 115.53C90.2999 116.9 89.4099 117.62 88.2499 117.44C87.0499 117.26 86.4698 116.29 86.6398 114.87C87.3298 109.04 87.9899 103.21 88.6699 97.38C89.2699 92.23 89.9099 87.08 90.5099 81.93C91.1199 76.71 91.72 71.48 92.32 66.25C92.54 64.37 92.7399 62.48 92.9899 60.6C93.1999 59.04 94.35 58.01 95.8 58.02C97.25 58.03 98.39 59.08 98.58 60.64C99.25 66.4 99.9 72.16 100.56 77.92C101 81.79 101.45 85.67 101.9 89.54C101.94 89.88 102.07 90.21 102.15 90.55C102.24 90.57 102.32 90.58 102.4 90.58Z" fill="#27EA84"/>
<path d="M71.9799 84.94C71.6199 87.01 71.2498 89.0801 70.8998 91.1501C70.1598 95.5301 69.4498 99.9101 68.6798 104.28C68.2298 106.84 65.9798 107.94 64.1698 106.47C63.6398 106.04 63.24 105.27 63.07 104.59C61.67 98.9201 60.3399 93.24 58.9899 87.56C58.8699 87.06 58.6999 86.57 58.4699 85.79C58.1299 86.38 57.9299 86.7 57.7599 87.04C56.7299 89.09 55.6999 91.14 54.6999 93.2C54.0899 94.47 53.0799 95.08 51.6999 95.08C48.4399 95.09 45.1798 95.06 41.9198 95.1C41.0498 95.11 40.8099 94.68 40.7199 93.95C39.2199 80.91 42.2999 69.1 50.4399 58.77C58.2199 48.89 68.4598 43.01 80.9098 41.32C102.85 38.34 123.51 50.93 131.15 71.44C131.66 72.81 132.04 74.24 132.5 75.63C132.74 76.36 132.45 76.62 131.74 76.61C130.74 76.6 129.73 76.57 128.73 76.63C127.87 76.68 127.47 76.37 127.21 75.52C125.03 68.37 121.2 62.22 115.7 57.16C108.95 50.95 101.02 47.22 91.8798 46.26C79.9798 45.02 69.3399 48.22 60.2199 55.94C51.8799 62.99 47.0499 72.07 45.7499 82.93C45.4699 85.3 45.5899 87.71 45.5099 90.1C45.4799 90.84 45.82 91.13 46.54 91.12C47.76 91.1 48.9799 91.08 50.1999 91.13C51.0399 91.17 51.5 90.85 51.86 90.1C53.28 87.16 54.7499 84.25 56.1999 81.33C56.9899 79.75 57.8599 79.17 59.2699 79.31C60.5299 79.43 61.3599 80.2601 61.7499 81.9001C62.8899 86.6301 64 91.37 65.12 96.11C65.23 96.58 65.3699 97.04 65.4899 97.5C65.5999 97.5 65.71 97.5 65.82 97.49C66.13 95.76 66.4499 94.03 66.7399 92.3C67.6999 86.66 68.6498 81.01 69.6298 75.37C69.9498 73.5 70.9299 72.61 72.4999 72.62C73.8699 72.63 75.0199 73.55 75.1899 74.92C75.6499 78.61 76.0699 82.31 76.4999 86.01C77.0499 90.74 77.5898 95.47 78.1298 100.19C78.2398 101.13 78.3599 102.07 78.4799 103C78.5799 103 78.6799 103 78.7799 103.01C78.9199 102.07 79.0798 101.14 79.1798 100.2C80.0698 92.56 80.93 84.91 81.83 77.27C82.51 71.48 83.2199 65.69 83.9399 59.9C84.0999 58.61 85.02 57.8801 86.11 58.0301C87.22 58.1801 87.9199 59.25 87.7699 60.5C87.0799 66.44 86.4199 72.38 85.7199 78.31C84.9699 84.71 84.1899 91.1 83.4399 97.5C82.7699 103.19 82.0999 108.87 81.4599 114.56C81.2499 116.4 80.2698 117.44 78.6298 117.45C77.0098 117.46 75.9799 116.38 75.7799 114.57C75.0199 107.89 74.2299 101.2 73.4599 94.52C73.1399 91.75 72.8399 88.97 72.5299 86.2C72.4799 85.78 72.38 85.37 72.3 84.95C72.18 84.96 72.0799 84.95 71.9799 84.94Z" fill="#27EA84"/>
</svg>
