<svg width="175" height="174" viewBox="0 0 175 174" fill="none" xmlns="http://www.w3.org/2000/svg">
<path d="M104.133 157.393C142.928 148.232 166.952 109.356 157.792 70.5604C148.631 31.7649 109.754 7.74109 70.9589 16.9018C32.1633 26.0625 8.13963 64.9388 17.3004 103.734C26.4611 142.53 65.3373 166.554 104.133 157.393Z" fill="#0F1925"/>
<path d="M112.24 92.12C111.79 92.13 111.14 92.95 110.95 93.52C110.03 96.24 109.23 99.01 108.27 102.13C107.88 101.28 107.64 100.81 107.44 100.33C104.87 94.25 102.34 88.16 99.7202 82.1C97.4402 76.82 93.3401 73.9 87.6201 73.88C81.9901 73.86 77.8701 76.64 75.5601 81.85C73.0601 87.49 70.6299 93.1601 68.1599 98.8101C67.7099 99.8401 67.2001 100.83 66.5901 102.1C66.3201 101.21 66.15 100.69 65.99 100.16C61.9 86.52 57.79 72.88 53.74 59.23C53.35 57.93 52.7699 57.47 51.4199 57.53C48.9499 57.64 46.48 57.5601 44.01 57.5601C41.5 57.5601 38.9901 57.5601 36.3101 57.5601C36.4601 58.1601 36.5199 58.51 36.6299 58.84C38.1399 63.79 39.6499 68.75 41.1699 73.7C46.1399 89.91 51.1001 106.13 56.0701 122.33C57.1801 125.95 59.0299 127.27 62.8799 127.28C65.5399 127.28 68.1901 127.28 70.8501 127.28C74.4301 127.27 76.1602 126.11 77.4902 122.81C80.5802 115.15 83.6798 107.49 86.7798 99.83C86.9698 99.35 87.2298 98.8999 87.5698 98.1899C87.9898 99.1399 88.3101 99.79 88.5801 100.47C91.7001 108.06 94.8099 115.64 97.9199 123.23C99.0199 125.91 100.97 127.31 103.92 127.28C106.7 127.25 109.48 127.28 112.26 127.27C116.1 127.26 117.91 125.92 119.03 122.28C121.22 115.15 123.43 108.02 125.61 100.89C126.49 98.03 127.34 95.1601 128.26 92.0601C122.72 92.0501 117.48 92.02 112.24 92.12Z" fill="white"/>
<path d="M138.39 57.5699C133.27 57.5599 128.15 57.5099 123.03 57.6099C122.51 57.6199 121.73 58.3999 121.54 58.9699C119.9 64.0699 118.36 69.1999 116.79 74.3199C115.88 77.3099 114.98 80.3 114.06 83.31C114.43 83.43 114.6 83.53 114.78 83.54C119.84 83.55 124.9 83.59 129.96 83.51C130.44 83.5 131.16 82.7699 131.34 82.2399C132.74 78.0399 134.04 73.7999 135.37 69.5699C136.6 65.6499 137.83 61.74 139.07 57.79C138.72 57.66 138.55 57.5699 138.39 57.5699Z" fill="white"/>
</svg>
