<svg width="144" height="144" viewBox="0 0 144 144" fill="none" xmlns="http://www.w3.org/2000/svg">
<path d="M143.74 79.1501C143.59 80.5501 143.53 81.96 143.29 83.34C142.85 85.84 142.4 88.3401 141.8 90.8001C131.95 131.18 84.9599 152.6 46.8999 139.46C45.9499 139.13 45.0101 138.79 44.0801 138.42C34.4301 134.63 25.7201 128.62 18.8401 120.86C17.8701 119.77 16.9501 118.65 16.0601 117.5C13.0901 113.64 10.5499 109.52 8.38989 105.15C6.58989 101.5 5.02012 97.74 3.87012 93.82C3.01012 90.9 2.20999 87.96 1.48999 85C1.00999 82.99 0.729884 80.9401 0.379884 78.9101C0.349884 78.7601 0.509903 78.5101 0.649903 78.4201C2.8099 77.0301 4.96989 75.6601 7.13989 74.3001C8.62989 73.3601 10.1399 72.4401 11.6399 71.5201C11.7399 71.4601 11.83 71.3801 11.99 71.2701C11.75 71.1401 11.5699 71.0301 11.3799 70.9301C7.86988 69.1401 4.37011 67.3401 0.860108 65.5601C0.510108 65.3801 0.369893 65.1601 0.389893 64.7701C0.489893 61.6001 0.829884 58.46 1.37988 55.33C7.58988 19.63 44.9599 -2.17999 79.4399 0.840008C108.67 3.39001 132.38 25.1301 140.85 52.6401C141.92 56.1101 142.8 59.62 143.46 63.19C143.55 63.69 143.72 64.1801 143.86 64.6701C143.86 64.9101 143.86 65.1501 143.86 65.3801C143.69 65.4301 143.5 65.4701 143.34 65.5401C142.7 65.8501 142.07 66.18 141.44 66.49C139.34 67.53 137.23 68.56 135.12 69.6C134.04 70.14 132.96 70.68 131.82 71.25C131.94 71.32 132.01 71.3701 132.08 71.4101C134.38 72.8001 136.68 74.19 138.99 75.58C140.62 76.56 142.24 77.5501 143.86 78.5301C143.86 78.7001 143.86 78.8701 143.86 79.0401C143.8 79.0601 143.77 79.1001 143.74 79.1501ZM120.39 71.46C120.39 71.43 120.39 71.4 120.39 71.37C121.59 70.69 122.78 70 123.98 69.33C125.58 68.44 127.19 67.5601 128.79 66.6701C130.94 65.4801 133.08 64.29 135.23 63.1C136.17 62.58 137.1 62.06 138.14 61.48C137.06 58.22 136.06 54.96 134.91 51.75C133.59 48.08 132 44.52 130.11 41.11C129.16 39.4 128.2 37.7001 127.16 36.0501C124.99 32.6101 122.56 29.3601 119.76 26.4101C117.78 24.3301 115.71 22.31 113.5 20.47C111.35 18.69 109.03 17.1001 106.69 15.5601C103.56 13.4901 100.18 11.8901 96.6899 10.5201C92.5499 8.90006 88.2899 7.7101 83.8899 7.0601C82.2099 6.8101 80.5201 6.63 78.8301 6.46C77.5101 6.33 76.1801 6.20009 74.8501 6.17009C73.3801 6.14009 71.8999 6.19004 70.4299 6.25004C68.9499 6.31004 67.46 6.3801 65.99 6.5601C63.78 6.8201 61.5699 7.09005 59.3899 7.51005C55.8199 8.19005 52.3299 9.18008 48.9099 10.4101C45.3799 11.6801 42 13.2401 38.71 15.0201C36.14 16.4101 33.6801 17.98 31.3101 19.69C28.9201 21.42 26.62 23.27 24.51 25.33C22.87 26.94 21.29 28.63 19.79 30.37C18.49 31.87 17.2699 33.4401 16.1299 35.0601C13.6699 38.5901 11.61 42.35 10 46.34C8.72 49.52 7.67002 52.76 7.02002 56.13C6.67002 57.93 6.38006 59.7301 6.06006 61.5301C11.9101 64.8401 17.71 68.1201 23.55 71.4201C22.55 72.0601 21.63 72.65 20.72 73.24C18.49 74.67 16.25 76.0901 14.02 77.5201C11.47 79.1401 8.92012 80.7601 6.37012 82.4001C6.25012 82.4801 6.13992 82.7301 6.16992 82.8801C6.37992 84.0301 6.5801 85.18 6.8501 86.32C7.7501 90.05 8.81996 93.73 10.21 97.32C11.52 100.69 13.0799 103.95 14.8899 107.09C16.3199 109.56 17.8699 111.97 19.6899 114.18C20.9999 115.78 22.32 117.39 23.73 118.91C24.93 120.19 26.2301 121.39 27.5601 122.54C28.9301 123.73 30.33 124.88 31.79 125.96C34.88 128.23 38.1699 130.17 41.6499 131.8C44.6099 133.19 47.65 134.33 50.77 135.28C53.82 136.2 56.9301 136.9 60.0801 137.33C62.5101 137.67 64.9599 137.93 67.4199 138.04C69.7399 138.15 72.0699 138.07 74.3899 137.96C76.3299 137.87 78.27 137.67 80.2 137.46C83.52 137.09 86.78 136.41 90.01 135.56C94.96 134.25 99.73 132.45 104.3 130.13C111.31 126.58 117.61 122.07 122.91 116.23C124.11 114.91 125.26 113.53 126.39 112.15C128.33 109.77 129.97 107.18 131.43 104.48C133.3 101.02 134.82 97.4 135.91 93.61C136.82 90.46 137.44 87.25 137.88 84C138.03 82.88 137.84 82.32 136.84 81.71C131.31 78.33 125.86 74.88 120.39 71.46Z" fill="#B6B4B0"/>
<path d="M69.3201 0.329956C69.2801 0.359956 69.24 0.400054 69.2 0.430054C69.21 0.400054 69.22 0.369956 69.22 0.329956C69.25 0.329956 69.2801 0.329956 69.3201 0.329956Z" fill="#B6B4B0"/>
<path d="M143.74 79.15C143.77 79.11 143.8 79.07 143.84 79.03C143.84 79.06 143.84 79.1 143.84 79.13C143.8 79.13 143.77 79.14 143.74 79.15Z" fill="#B6B4B0"/>
<path d="M120.39 71.46C125.86 74.88 131.31 78.33 136.82 81.69C137.82 82.3 138.02 82.86 137.86 83.98C137.42 87.23 136.8 90.44 135.89 93.59C134.8 97.38 133.28 100.99 131.41 104.46C129.95 107.16 128.32 109.75 126.37 112.13C125.24 113.51 124.09 114.89 122.89 116.21C117.59 122.05 111.29 126.56 104.28 130.11C99.71 132.43 94.94 134.23 89.99 135.54C86.76 136.39 83.4999 137.07 80.1799 137.44C78.2499 137.65 76.3101 137.86 74.3701 137.94C72.0501 138.04 69.7199 138.12 67.3999 138.02C64.9499 137.91 62.5001 137.65 60.0601 137.31C56.9101 136.88 53.8 136.18 50.75 135.26C47.63 134.31 44.5899 133.17 41.6299 131.78C38.1499 130.15 34.86 128.22 31.77 125.94C30.31 124.87 28.9 123.71 27.54 122.52C26.21 121.36 24.91 120.17 23.71 118.89C22.3 117.38 20.9799 115.77 19.6699 114.16C17.8499 111.95 16.3001 109.54 14.8701 107.07C13.0601 103.94 11.5099 100.68 10.1899 97.3001C8.79994 93.7201 7.72008 90.0401 6.83008 86.3001C6.56008 85.1601 6.3499 84.01 6.1499 82.86C6.1199 82.71 6.2301 82.46 6.3501 82.38C8.8901 80.74 11.45 79.12 14 77.5C16.24 76.08 18.47 74.65 20.7 73.22C21.62 72.63 22.53 72.04 23.53 71.4C17.69 68.1 11.89 64.82 6.04004 61.51C6.36004 59.71 6.65 57.9 7 56.11C7.65 52.74 8.69998 49.5 9.97998 46.32C11.59 42.32 13.6501 38.5701 16.1101 35.0401C17.2401 33.4201 18.47 31.85 19.77 30.35C21.28 28.61 22.85 26.9301 24.49 25.3101C26.59 23.2401 28.89 21.4001 31.29 19.6701C33.66 17.9601 36.1199 16.4 38.6899 15C41.9799 13.21 45.3699 11.66 48.8899 10.39C52.3099 9.16003 55.8001 8.16001 59.3701 7.49001C61.5501 7.08001 63.77 6.80006 65.97 6.54006C67.44 6.37006 68.9299 6.3 70.4099 6.23C71.8799 6.17 73.3601 6.11004 74.8301 6.15004C76.1601 6.18004 77.4801 6.29996 78.8101 6.43996C80.5001 6.60996 82.1901 6.79006 83.8701 7.04006C88.2701 7.70006 92.5299 8.88002 96.6699 10.5C100.16 11.87 103.54 13.4701 106.67 15.5401C109 17.0801 111.33 18.67 113.48 20.45C115.69 22.29 117.76 24.31 119.74 26.39C122.54 29.33 124.97 32.59 127.14 36.03C128.18 37.68 129.14 39.38 130.09 41.09C131.98 44.5 133.57 48.06 134.89 51.73C136.04 54.94 137.05 58.2 138.12 61.46C137.08 62.04 136.14 62.56 135.21 63.08C133.06 64.27 130.92 65.46 128.77 66.65C127.17 67.54 125.56 68.4201 123.96 69.3101C122.76 69.9801 121.57 70.67 120.37 71.35C120.35 71.37 120.32 71.39 120.3 71.4C120.34 71.44 120.37 71.45 120.39 71.46ZM89.8101 98.58C90.5001 98.59 91.1899 98.6 91.8799 98.59C92.0399 98.59 92.2001 98.46 92.3501 98.4C92.2401 98.17 92.15 97.94 92.03 97.72C90.23 94.37 88.4399 91.03 86.6399 87.69C83.3499 81.57 80.06 75.45 76.78 69.36C81.5 61.32 86.2099 53.29 90.9299 45.25C89.8399 45.2 88.82 45.13 87.79 45.1C86.18 45.05 84.58 45.05 82.97 44.98C82.56 44.96 82.3699 45.1101 82.1699 45.4301C79.3899 49.9101 76.6001 54.39 73.8101 58.87C73.0801 60.04 72.3501 61.2201 71.5901 62.4301C71.4701 62.2401 71.37 62.1 71.29 61.96C67.94 56.32 64.58 50.68 61.24 45.03C60.92 44.49 60.6699 43.9401 59.8899 44.2901C59.8199 44.3201 59.7199 44.2801 59.6399 44.2901C58.9699 44.3401 58.3001 44.38 57.6201 44.44C56.4001 44.55 55.19 44.6901 53.98 44.8001C53.29 44.8601 52.5999 44.8701 51.9099 44.9201C51.8199 44.9301 51.7399 45.0001 51.6399 45.0601C51.7399 45.2301 51.8299 45.38 51.9199 45.52C56.7799 53.37 61.64 61.23 66.52 69.07C66.76 69.46 66.76 69.72 66.53 70.11C61.84 77.98 57.18 85.86 52.5 93.73C51.66 95.15 50.81 96.58 49.96 98.01C50.05 98.06 50.1099 98.12 50.1599 98.12C50.9899 98.19 51.8299 98.26 52.6699 98.32C53.9299 98.4 55.19 98.46 56.45 98.53C56.93 98.56 57.4199 98.6101 57.8999 98.6701C58.7999 98.7801 58.7199 98.88 59.1799 98.11C62.9399 91.77 66.6899 85.43 70.4399 79.09C70.5299 78.94 70.63 78.79 70.76 78.6C70.89 78.81 70.9901 78.97 71.0801 79.13C74.8001 85.53 78.53 91.92 82.24 98.33C82.43 98.66 82.63 98.77 82.99 98.75C84.27 98.69 85.5601 98.67 86.8401 98.63C86.9001 98.66 86.96 98.72 87.01 98.72C87.95 98.65 88.8801 98.61 89.8101 98.58Z" fill="#244B81"/>
<path d="M120.39 71.46C120.37 71.45 120.34 71.44 120.32 71.42C120.34 71.4 120.37 71.39 120.39 71.37C120.39 71.4 120.39 71.43 120.39 71.46Z" fill="#B6B4B0"/>
<path d="M86.8501 98.58C85.5701 98.62 84.28 98.64 83 98.7C82.63 98.72 82.44 98.61 82.25 98.28C78.54 91.88 74.8101 85.48 71.0901 79.08C71.0001 78.92 70.9 78.7701 70.77 78.5501C70.65 78.7401 70.54 78.8901 70.45 79.0401C66.7 85.3801 62.9399 91.7201 59.1899 98.0601C58.7299 98.8401 58.8099 98.73 57.9099 98.62C57.4299 98.56 56.94 98.51 56.46 98.48C55.2 98.4 53.9399 98.35 52.6799 98.27C51.8399 98.22 51.0099 98.14 50.1699 98.07C50.1099 98.07 50.06 98.01 49.97 97.96C50.82 96.53 51.66 95.1001 52.51 93.6801C57.18 85.8001 61.85 77.9301 66.54 70.0601C66.77 69.6701 66.77 69.4 66.53 69.02C61.65 61.17 56.7899 53.32 51.9299 45.47C51.8399 45.33 51.7599 45.18 51.6499 45.01C51.7499 44.96 51.8299 44.88 51.9199 44.87C52.6099 44.83 53.3 44.81 53.99 44.75C55.21 44.64 56.4199 44.51 57.6299 44.39C58.2999 44.33 58.9699 44.29 59.6499 44.24C59.7299 44.23 59.8299 44.27 59.8999 44.24C60.6899 43.89 60.93 44.45 61.25 44.98C64.59 50.63 67.95 56.2701 71.3 61.9101C71.39 62.0501 71.4801 62.19 71.6001 62.38C72.3601 61.17 73.0901 59.99 73.8201 58.82C76.6101 54.34 79.3999 49.87 82.1799 45.38C82.3799 45.06 82.57 44.9101 82.98 44.9301C84.58 45.0001 86.19 45.0001 87.8 45.0501C88.82 45.0801 89.8499 45.15 90.9399 45.2C86.2199 53.24 81.51 61.2701 76.79 69.3101C80.07 75.4001 83.3599 81.52 86.6499 87.64C88.4499 90.98 90.25 94.3301 92.04 97.6701C92.16 97.8901 92.2501 98.13 92.3601 98.35C91.5101 98.38 90.6601 98.4101 89.8101 98.4301C89.3501 98.4401 88.8999 98.43 88.4399 98.45C87.9099 98.51 87.3801 98.55 86.8501 98.58Z" fill="#FDFDFD"/>
<path d="M89.8101 98.47C90.6601 98.44 91.5101 98.41 92.3601 98.39C92.2001 98.46 92.0499 98.58 91.8899 98.58C91.1999 98.6 90.5101 98.5799 89.8201 98.5699C89.8101 98.5399 89.8101 98.51 89.8101 98.47Z" fill="#CCCCC9"/>
<path d="M89.8101 98.47C89.8101 98.5 89.8101 98.5399 89.8201 98.5699C88.8901 98.5999 87.96 98.64 87.03 98.67C86.97 98.67 86.9101 98.61 86.8601 98.58C87.3901 98.55 87.92 98.51 88.45 98.49C88.9 98.48 89.3501 98.48 89.8101 98.47Z" fill="#A8AAAC"/>
</svg>
