<svg width="145" height="145" viewBox="0 0 145 145" fill="none" xmlns="http://www.w3.org/2000/svg">
<path d="M72.2601 144.59C112.124 144.59 144.44 112.274 144.44 72.41C144.44 32.5461 112.124 0.22998 72.2601 0.22998C32.3962 0.22998 0.0800781 32.5461 0.0800781 72.41C0.0800781 112.274 32.3962 144.59 72.2601 144.59Z" fill="url(#paint0_linear_1_7340)"/>
<path d="M107.27 74.3101C107.27 74.5201 107.27 74.6701 107.27 74.8101C107.27 79.1501 107.27 83.49 107.27 87.83C107.27 90.67 106.02 92.83 103.59 94.26C99.89 96.44 96.16 98.56 92.45 100.71C87.31 103.68 82.1601 106.64 77.0301 109.62C75.6101 110.44 74.11 110.84 72.48 110.71C71.36 110.62 70.31 110.27 69.33 109.71C60.43 104.56 51.52 99.42 42.62 94.27C40.47 93.03 39.2001 91.17 38.8801 88.72C38.7601 87.78 38.8201 86.82 38.8201 85.87C38.8201 84.8 38.8401 83.7401 38.8401 82.6701C38.8401 75.3801 38.8401 68.0901 38.8301 60.8101C38.8301 59.3801 38.7901 57.9501 38.8401 56.5301C38.9401 53.9101 40.14 51.8701 42.37 50.5401C45.65 48.5801 48.9901 46.7001 52.3101 44.7901C58.0701 41.4701 63.81 38.13 69.59 34.86C71.89 33.56 74.3 33.57 76.59 34.88C85.43 39.93 94.23 45.04 103.07 50.08C105.44 51.43 106.84 53.3901 107.29 56.0401C107.85 59.3701 106.64 62.94 103.71 64.7C102.63 65.35 101.52 65.97 100.43 66.6C91.6001 71.68 82.7601 76.76 73.9301 81.85C73.3501 82.19 72.82 82.19 72.23 81.85C69.91 80.49 67.57 79.15 65.24 77.82C64.67 77.49 64.3901 77.02 64.3901 76.37C64.3901 73.69 64.3901 71.01 64.3901 68.33C64.3901 67.64 64.6901 67.1501 65.3001 66.8101C70.9001 63.5901 76.5 60.37 82.09 57.15C82.17 57.1 82.25 57.06 82.33 57.01C82.79 56.72 82.79 56.23 82.32 55.95C81.73 55.6 81.1301 55.2701 80.5401 54.9301C78.8001 53.9401 77.0601 52.93 75.3101 51.95C73.7901 51.1 72.25 51.09 70.74 51.95C65.97 54.69 61.21 57.43 56.47 60.2C54.94 61.09 54.23 62.48 54.23 64.25C54.24 67.56 54.23 70.8601 54.23 74.1701C54.23 76.2801 54.23 78.39 54.23 80.51C54.23 82.32 55.04 83.6601 56.59 84.5601C59.35 86.1601 62.11 87.76 64.87 89.36C66.75 90.45 68.63 91.53 70.5 92.62C71.25 93.06 72.0501 93.37 72.9201 93.39C73.7901 93.41 74.61 93.17 75.37 92.73C77.77 91.33 80.19 89.9401 82.6 88.5501C90.7 83.8601 98.8001 79.18 106.9 74.49C107 74.42 107.11 74.3801 107.27 74.3101Z" fill="white"/>
<defs>
<linearGradient id="paint0_linear_1_7340" x1="0.0828781" y1="72.4105" x2="144.442" y2="72.4105" gradientUnits="userSpaceOnUse">
<stop stop-color="#0C61B5"/>
<stop offset="1" stop-color="#0081CB"/>
</linearGradient>
</defs>
</svg>
