<svg width="172" height="172" viewBox="0 0 172 172" fill="none" xmlns="http://www.w3.org/2000/svg">
<path d="M156.578 101.301C164.782 62.2901 139.808 24.015 100.797 15.811C61.7865 7.60697 23.5113 32.5808 15.3073 71.5916C7.10329 110.602 32.0772 148.878 71.088 157.082C110.099 165.286 148.374 140.312 156.578 101.301Z" fill="#F4F4F4"/>
<path d="M131.46 63.4101C131.44 63.5001 131.41 63.6 131.41 63.69C131.34 65.11 131.3 66.53 131.18 67.94C131.05 69.49 130.91 71.05 130.67 72.59C130.3 75.03 129.92 77.47 129.41 79.88C128.02 86.5 125.86 92.87 122.99 99C120.22 104.91 116.86 110.47 112.9 115.66C112.41 116.3 111.9 116.93 111.41 117.57C111.32 117.68 111.26 117.81 111.19 117.93C111.15 117.9 111.1 117.86 111.06 117.83C111.06 117.7 111.05 117.56 111.06 117.43C111.27 115.52 111.36 113.6 111.18 111.68C110.75 106.88 109.02 102.59 106.16 98.75C104.16 96.06 101.68 93.92 98.7999 92.21C95.7199 90.39 93.1199 88.06 91.2099 85.01C89.7099 82.62 88.7799 80.01 88.2999 77.23C88.0799 75.93 87.9499 74.63 87.9899 73.32C88.1199 68.39 89.7299 63.99 92.8799 60.19C95.8999 56.55 99.7299 54.19 104.33 53.11C105.43 52.85 106.56 52.73 107.69 52.61C108.51 52.52 109.35 52.5101 110.17 52.5401C112.1 52.6001 113.98 52.9601 115.82 53.5501C118.99 54.5601 122.06 55.8301 125.04 57.2901C127.16 58.3301 129.22 59.47 131.31 60.57C131.35 60.59 131.39 60.6 131.43 60.61C131.46 61.53 131.46 62.4701 131.46 63.4101Z" fill="#6AAFDF"/>
<path d="M88.2599 48.44C88.2499 48.46 88.2599 48.4801 88.2599 48.5001C86.7299 48.5001 85.1899 48.5001 83.6599 48.5001C83.6699 48.4801 83.6699 48.46 83.6599 48.44C85.1999 48.44 86.7299 48.44 88.2599 48.44Z" fill="#FAD99E"/>
<path d="M83.6599 48.5001C85.1899 48.5001 86.73 48.5001 88.26 48.5001C92.45 48.7101 96.64 48.94 100.78 49.7C100.84 49.71 100.89 49.75 101.01 49.82C100.81 49.9 100.68 49.9601 100.55 50.0201C96.8699 51.3901 93.65 53.4601 90.95 56.3101C87.57 59.8701 85.4 64.0801 84.45 68.8901C84.27 69.8301 84.1599 70.78 84.0599 71.73C83.9799 72.51 83.9599 73.29 83.9299 74.07C83.7299 79.83 81.6699 84.79 77.5399 88.84C74.4099 91.91 70.67 93.82 66.34 94.6C64.7 94.9 63.05 95.0201 61.4 94.9101C56.96 94.6001 52.9399 93.11 49.4299 90.34C46.8199 88.28 44.78 85.74 43.4 82.72C43 81.85 42.7799 80.88 42.5599 79.94C42.2399 78.54 41.95 77.12 41.71 75.7C41.47 74.23 41.2899 72.7601 41.1099 71.2801C40.9699 70.1201 40.86 68.9601 40.77 67.7901C40.68 66.6501 40.62 65.5201 40.57 64.3801C40.53 63.2401 40.5299 62.09 40.4899 60.94C40.4799 60.7 40.55 60.57 40.76 60.45C46.69 57.06 52.9199 54.3301 59.4699 52.4001C62.0799 51.6301 64.7199 51.0001 67.3699 50.3801C68.9399 50.0101 70.54 49.7701 72.14 49.5101C73.23 49.3301 74.3399 49.21 75.4399 49.1C76.6299 48.97 77.82 48.8601 79.01 48.7701C80.27 48.6801 81.5299 48.64 82.7899 48.57C83.0999 48.55 83.3799 48.5201 83.6599 48.5001Z" fill="#F4A61C"/>
<path d="M46.6999 93.33C46.9599 93.52 47.2299 93.7101 47.4899 93.9101C50.8799 96.4301 54.6599 98.0101 58.8299 98.6601C60.6199 98.9401 62.4199 99.0201 64.2099 98.9101C68.1599 98.6501 71.8699 97.52 75.3299 95.57C77.8099 94.17 80.4699 93.2501 83.2999 92.9201C84.4999 92.7801 85.7199 92.7201 86.9199 92.7801C91.0999 92.9601 94.9299 94.25 98.3399 96.69C102.86 99.93 105.65 104.31 106.83 109.73C107.24 111.6 107.38 113.51 107.24 115.43C107.02 118.32 106.23 121.05 104.93 123.63C103.56 126.35 104.13 125.64 101.78 127.78C97.0499 132.09 91.9199 135.85 86.3999 139.08C86.1299 139.24 85.9199 139.25 85.6599 139.09C83.7299 137.87 81.7599 136.71 79.8699 135.43C74.7999 131.98 70.1499 128.02 65.8999 123.59C57.6299 114.98 51.2699 105.13 46.8499 94.0401C46.7699 93.8301 46.6999 93.6101 46.6299 93.4001C46.6499 93.3601 46.6799 93.35 46.6999 93.33Z" fill="#2CB9AC"/>
</svg>
