<svg width="145" height="145" viewBox="0 0 145 145" fill="none" xmlns="http://www.w3.org/2000/svg">
<path d="M72.6699 144.63C112.368 144.63 144.55 112.448 144.55 72.75C144.55 33.0518 112.368 0.869995 72.6699 0.869995C32.9717 0.869995 0.790039 33.0518 0.790039 72.75C0.790039 112.448 32.9717 144.63 72.6699 144.63Z" fill="#F2F2F2"/>
<path d="M29.1799 83.62C30.3299 83.03 31.5101 82.51 32.6201 81.85C34.9701 80.45 36.11 78.34 35.97 75.6C35.86 73.54 35.83 71.49 36.02 69.43C36.51 64.14 38.0499 59.18 40.6799 54.57C44.1099 48.57 48.8599 43.89 54.8999 40.54C58.2799 38.66 61.8799 37.37 65.6699 36.63C68.6599 36.05 71.69 35.83 74.73 36.02C81.37 36.42 87.46 38.44 93.02 42.1C93.44 42.37 93.84 42.66 94.28 42.96C94.2 43.01 94.1501 43.04 94.0901 43.07C91.9201 44.18 89.7401 45.28 87.5701 46.4C87.4401 46.47 87.34 46.46 87.21 46.39C84.2 44.73 81.0001 43.63 77.6201 43.07C74.9601 42.63 72.2901 42.53 69.6101 42.83C61.2101 43.79 54.34 47.56 49.05 54.15C46.01 57.94 44.0699 62.2601 43.1399 67.0301C42.6599 69.4701 42.4899 71.94 42.6299 74.42C42.6699 75.16 42.7501 75.91 42.8201 76.69C67.2801 64.23 91.6999 51.8 116.14 39.35C116.15 39.43 116.16 39.49 116.16 39.55C116.16 41.92 116.16 44.29 116.17 46.66C116.17 46.87 116.05 46.91 115.92 46.98C111.26 49.35 106.61 51.72 101.95 54.1C94.29 58 86.63 61.9 78.96 65.81C68.5 71.14 58.0401 76.46 47.5801 81.79C41.4501 84.91 35.3199 88.04 29.1799 91.16C29.1799 88.64 29.1799 86.13 29.1799 83.62Z" fill="black"/>
<path d="M29.1799 98.62C29.6799 98.37 30.1899 98.12 30.6899 97.87C42.6899 91.76 54.69 85.64 66.7 79.53C76.57 74.5 86.4501 69.48 96.3201 64.45C102.86 61.12 109.4 57.79 115.94 54.47C116 54.44 116.07 54.41 116.15 54.37C116.15 54.46 116.15 54.53 116.15 54.59C116.15 56.94 116.15 59.29 116.15 61.63C116.15 61.79 116.11 61.87 115.96 61.94C115 62.42 114.03 62.91 113.08 63.4C110.95 64.51 109.7 66.26 109.39 68.64C109.32 69.18 109.35 69.74 109.38 70.29C109.49 72.11 109.48 73.92 109.33 75.74C109.11 78.42 108.61 81.05 107.81 83.61C105.95 89.58 102.78 94.75 98.3 99.11C94.69 102.63 90.5101 105.28 85.8101 107.09C83.1901 108.1 80.49 108.8 77.71 109.16C76.38 109.33 75.04 109.39 73.71 109.5C73.61 109.51 73.5099 109.52 73.4099 109.53C72.9199 109.53 72.4199 109.53 71.9299 109.53C71.8599 109.52 71.79 109.51 71.72 109.5C70.41 109.39 69.09 109.33 67.78 109.18C65.63 108.93 63.53 108.43 61.47 107.77C58.57 106.84 55.82 105.58 53.24 103.96C52.5 103.5 51.79 103.01 51.04 102.51C51.14 102.45 51.21 102.42 51.27 102.39C53.41 101.3 55.5499 100.21 57.6899 99.11C57.8699 99.02 57.9899 99.02 58.1599 99.12C62.3299 101.41 66.8001 102.64 71.5601 102.82C74.5201 102.93 77.43 102.61 80.3 101.86C89.81 99.37 97.5299 92.36 100.93 83.14C101.93 80.43 102.53 77.62 102.72 74.74C102.83 73.05 102.8 71.37 102.63 69.68C102.6 69.39 102.56 69.1 102.52 68.79C102.43 68.83 102.37 68.86 102.31 68.89C100.41 69.86 98.5201 70.82 96.6201 71.79C84.7901 77.82 72.9501 83.85 61.1201 89.87C53.0501 93.98 44.9899 98.09 36.9199 102.2C34.3399 103.51 31.7599 104.83 29.1799 106.14C29.1799 103.64 29.1799 101.13 29.1799 98.62Z" fill="black"/>
</svg>
