<svg width="145" height="145" viewBox="0 0 145 145" fill="none" xmlns="http://www.w3.org/2000/svg">
<path d="M102.93 72.2L72.21 102.92L41.49 72.2V109.9H10.86C23.47 130.57 46.23 144.37 72.21 144.37C98.19 144.37 120.96 130.57 133.56 109.9H102.93V72.2Z" fill="#4C4C4C"/>
<path d="M25.74 34.84L72.21 81.31L118.68 34.84V95.09H140.42C142.76 88 144.03 80.43 144.03 72.55C144.03 32.89 111.88 0.72998 72.21 0.72998C32.54 0.72998 0.390015 32.88 0.390015 72.55C0.390015 80.42 1.66 88 4 95.09H25.74V34.84Z" fill="#FF6600"/>
<path d="M118.68 95.09V34.84L72.21 81.31L25.74 34.84V95.09H4C5.73 100.32 8.03998 105.28 10.85 109.9H41.48V72.2L72.2 102.92L102.92 72.2V109.9H133.55C136.37 105.28 138.68 100.32 140.4 95.09H118.68Z" fill="white"/>
</svg>
