<svg width="145" height="145" viewBox="0 0 145 145" fill="none" xmlns="http://www.w3.org/2000/svg">
<path d="M72.58 144.2C112.372 144.2 144.63 111.942 144.63 72.15C144.63 32.3579 112.372 0.0999756 72.58 0.0999756C32.7878 0.0999756 0.530029 32.3579 0.530029 72.15C0.530029 111.942 32.7878 144.2 72.58 144.2Z" fill="#23292F"/>
<path d="M35.97 104.92C42.54 98.01 48.92 91.29 55.3 84.57C56.24 83.58 57.18 82.6 58.12 81.62C66.33 72.92 78.79 72.81 87.09 81.45C94.39 89.05 101.61 96.72 108.87 104.36C108.98 104.47 109.13 104.54 109.18 104.84C108.96 104.86 108.74 104.9 108.53 104.9C105.32 104.91 102.11 104.93 98.91 104.9C98.56 104.9 98.12 104.72 97.88 104.46C92.35 98.68 86.8699 92.84 81.3199 87.08C76.5799 82.16 68.7301 82.22 64.0601 87.14C58.5701 92.93 53.09 98.72 47.6 104.49C47.4 104.7 47.0899 104.9 46.8199 104.9C43.2799 104.92 39.75 104.92 35.97 104.92Z" fill="white"/>
<path d="M108.89 39.39C105.96 42.64 103.06 45.9599 100.06 49.1799C95.7701 53.7999 91.42 58.3499 87.08 62.9199C80.85 69.4999 70.96 70.99 63.25 66.59C61.06 65.34 59.22 63.65 57.48 61.81C50.67 54.62 43.84 47.44 37.02 40.26C36.81 40.04 36.59 39.8199 36.26 39.4899C36.61 39.4599 36.8401 39.43 37.0601 39.42C40.3001 39.41 43.54 39.39 46.78 39.42C47.15 39.42 47.62 39.63 47.88 39.91C53.34 45.63 58.74 51.4199 64.24 57.1099C68.99 62.0199 76.78 61.96 81.52 57.01C86.95 51.34 92.2999 45.59 97.6899 39.89C97.9099 39.66 98.25 39.42 98.53 39.41C102.04 39.38 105.54 39.39 108.89 39.39Z" fill="white"/>
</svg>
