<svg width="205" height="205" viewBox="0 0 205 205" fill="none" xmlns="http://www.w3.org/2000/svg">
<path d="M153.824 153.434C182.012 125.246 182.012 79.5448 153.824 51.3571C125.636 23.1693 79.9351 23.1693 51.7473 51.357C23.5596 79.5448 23.5594 125.246 51.7472 153.434C79.935 181.622 125.637 181.622 153.824 153.434Z" fill="#437EEF"/>
<path d="M112.87 100.85L135.02 78.98L131.77 75.4H93.73V59.31L90.6399 57.03H80.3999V60.12L83.8101 63.37V75.4H68.8501V80.6H83.8101V110.51C83.8101 119.45 92.2601 122.3 100.07 122.3C107.87 122.3 111.41 115.96 111.9 114.86C112.39 113.76 112.88 111.2 111.17 110.51C109.46 109.82 108.49 111.44 108.49 111.44C108.49 111.44 106.05 116.68 100.08 116.68C94.1101 116.68 93.74 110.5 93.74 110.5V80.59H122.35L101.95 107.41V110C101.95 110 110.2 104.51 116.3 106.22C122.4 107.93 126.42 114.88 126.42 123.17C126.42 131.46 125.32 142.07 113.25 142.07C106.6 142.07 103.85 140.3 102.72 138.7C104.97 137.69 106.54 135.43 106.54 132.8C106.54 129.23 103.65 126.34 100.08 126.34C96.5101 126.34 93.6201 129.23 93.6201 132.8C93.6201 133.23 93.66 133.65 93.74 134.05C93.74 134.05 94.59 147.55 113 147.55C126.21 147.55 136.7 138.49 136.44 124.82C136.26 115.21 132.81 105.35 122.89 102.08C119.67 101.02 116.23 100.74 112.87 100.85Z" fill="white"/>
</svg>
