<svg width="205" height="205" viewBox="0 0 205 205" fill="none" xmlns="http://www.w3.org/2000/svg">
<path d="M153.6 153.542C181.788 125.354 181.788 79.6527 153.6 51.4649C125.412 23.2772 79.7109 23.2772 51.5232 51.4649C23.3354 79.6527 23.3355 125.354 51.5233 153.542C79.711 181.73 125.412 181.73 153.6 153.542Z" fill="#006AE2"/>
<path d="M125.07 87.5401C128.03 86.8801 131 86.2201 134.03 85.5501C134.68 87.9201 135.34 90.29 136 92.69C128.65 94.64 121.31 96.5901 113.94 98.5401C112.3 90.9101 110.66 83.3001 109.02 75.6401C111.2 75.1501 113.36 74.6601 115.58 74.1601C116.43 77.7401 117.29 81.31 118.17 84.99C118.29 84.78 118.37 84.6501 118.43 84.5201C119.41 82.5501 120.02 80.4601 120.22 78.2801C120.68 73.3701 119.28 68.9801 116.2 65.1801C114.63 63.2401 112.8 61.5201 110.49 60.4301C108.95 59.7001 107.31 59.3701 105.64 59.1301C104.4 58.9501 103.14 58.7301 101.9 58.7601C94.88 58.9101 88.65 62.76 86.01 70.45C85.55 71.79 85.2901 73.1601 85.1601 74.5601C85.1001 75.2601 85 75.9601 85 76.6601C85.02 80.3901 86.11 83.7701 88.34 86.7801C90.32 89.4601 92.76 91.6601 95.4 93.6601C95.92 94.0601 96.07 94.4301 96 95.0601C95.86 96.3901 95.81 97.7201 95.72 99.0601C95.64 100.31 95.55 101.55 95.46 102.85C95.35 102.78 95.27 102.75 95.2 102.7C91.52 100.01 88 97.1201 84.73 93.9301C80.92 90.2001 78.8001 85.64 77.9301 80.46C77.2701 76.54 77.74 72.69 79.02 68.94C80.52 64.53 82.78 60.6001 86.36 57.5201C89.53 54.7901 93.18 53.04 97.25 52.12C99.08 51.7 100.94 51.4101 102.82 51.4001C103.35 51.4001 103.89 51.35 104.42 51.32C107.75 51.16 110.86 51.98 113.82 53.47C118.39 55.77 122.07 59.0401 124.62 63.5101C126.16 66.2301 127.08 69.1601 127.41 72.2601C127.53 73.3701 127.58 74.5 127.57 75.62C127.56 79.09 126.81 82.43 125.67 85.7C125.47 86.28 125.26 86.86 125.06 87.44C125.03 87.44 125.05 87.4601 125.07 87.5401Z" fill="#FDFEFE"/>
<path d="M80.73 118.3C79.66 118.5 78.6199 118.7 77.5699 118.9C75.6799 119.27 73.79 119.64 71.89 120C71.82 120.01 71.66 119.86 71.64 119.76C71.32 118.53 71.01 117.29 70.71 116.06C70.45 115.02 70.19 113.97 69.92 112.87C77.32 111.12 84.71 109.36 92.14 107.6C93.58 115.27 95.02 122.92 96.46 130.62C94.24 131.06 92.06 131.49 89.85 131.93C89.08 128.29 88.32 124.7 87.54 120.99C87.32 121.41 87.13 121.73 86.97 122.07C85.95 124.2 85.35 126.44 85.21 128.8C84.91 133.89 86.58 138.29 89.98 142.03C90.94 143.08 92.02 144.04 93.15 144.92C94.78 146.2 96.75 146.72 98.75 147.09C100.01 147.33 101.27 147.56 102.55 147.72C103.16 147.8 103.8 147.72 104.43 147.65C105.42 147.54 106.41 147.44 107.37 147.21C113.26 145.78 117.12 142.07 119.28 136.48C119.89 134.9 120.24 133.27 120.31 131.58C120.34 130.91 120.45 130.23 120.45 129.56C120.44 126.81 119.84 124.21 118.5 121.79C117.11 119.26 115.23 117.13 113.13 115.18C112.17 114.29 111.15 113.45 110.15 112.61C109.91 112.41 109.86 112.21 109.93 111.93C109.98 111.73 110 111.52 110.02 111.31C110.14 109.93 110.25 108.54 110.38 107.16C110.49 106.04 110.62 104.93 110.75 103.77C110.83 103.81 110.89 103.82 110.93 103.86C114.81 106.85 118.51 110.03 121.84 113.63C124.95 116.99 126.61 121.03 127.47 125.44C127.89 127.6 127.96 129.79 127.72 131.98C127.29 135.94 125.96 139.61 123.96 143.03C120.5 148.94 115.33 152.55 108.73 154.17C107.3 154.52 105.82 154.75 104.36 154.88C102.71 155.03 101.04 155.07 99.38 155.04C96.65 154.99 94.1 154.17 91.67 152.95C87.12 150.67 83.46 147.41 80.9 142.98C79.45 140.47 78.58 137.77 78.13 134.92C77.91 133.54 77.88 132.15 77.88 130.75C77.9 127.08 78.78 123.59 80.05 120.19C80.27 119.6 80.5 119.01 80.72 118.43C80.74 118.41 80.73 118.38 80.73 118.3Z" fill="#FDFEFE"/>
<path d="M106.75 136.41C104.37 136.41 102.02 136.41 99.66 136.41C99.66 114.55 99.66 92.72 99.66 70.86C102.02 70.86 104.38 70.86 106.75 70.86C106.75 92.71 106.75 114.54 106.75 136.41Z" fill="#FEFEFE"/>
</svg>
