<svg width="174" height="175" viewBox="0 0 174 175" fill="none" xmlns="http://www.w3.org/2000/svg">
<path d="M157.078 104.21C166.239 65.4147 142.215 26.5383 103.419 17.3775C64.6237 8.21682 25.7474 32.2408 16.5867 71.0363C7.42598 109.832 31.4498 148.708 70.2453 157.869C109.041 167.03 147.917 143.006 157.078 104.21Z" fill="black"/>
<path d="M86.6899 142.93C117.369 142.93 142.24 118.059 142.24 87.38C142.24 56.7006 117.369 31.83 86.6899 31.83C56.0105 31.83 31.1399 56.7006 31.1399 87.38C31.1399 118.059 56.0105 142.93 86.6899 142.93Z" fill="url(#paint0_linear_1_3319)"/>
<path d="M113.65 104.44H84.8799L112.65 67.45V54H94.0298V41.54H78.8999V54H61.71V67.45V71.06H88.8599L59.72 109.18V121.38H68.3101H78.8999V133.22H94.0298V121.38H113.65V104.44Z" fill="black"/>
<defs>
<linearGradient id="paint0_linear_1_3319" x1="41.2804" y1="121.196" x2="130.586" y2="54.6836" gradientUnits="userSpaceOnUse">
<stop stop-color="#D48C26"/>
<stop offset="1" stop-color="#FCCF58"/>
</linearGradient>
</defs>
</svg>
