<svg width="167" height="167" viewBox="0 0 167 167" fill="none" xmlns="http://www.w3.org/2000/svg">
<path d="M95.4666 154.777C134.792 148.243 161.376 111.067 154.842 71.7413C148.308 32.4155 111.132 5.83223 71.806 12.3659C32.4803 18.8996 5.89708 56.0761 12.4308 95.4019C18.9645 134.728 56.1409 161.311 95.4666 154.777Z" fill="#49C1BF"/>
<path d="M52.72 44.4399L66.07 39.3199L114.54 62.78L102.1 68.23L52.72 44.4399Z" fill="#80D4D2"/>
<path d="M102.1 87.79V127.72L114.54 121.76V81.8101L102.1 87.79Z" fill="#BFE9E8"/>
<path d="M114.54 62.78L102.1 68.23V81.5701L114.54 75.6799V62.78Z" fill="#BFE9E8"/>
<path d="M102.1 81.5701V68.23L52.72 44.4399V57.4301L86.55 74.0601L52.72 90.8701V103.61L102.1 127.72V114.75L68.92 98.4299L102.1 81.5701Z" fill="white"/>
</svg>
