<svg width="174" height="175" viewBox="0 0 174 175" fill="none" xmlns="http://www.w3.org/2000/svg">
<path d="M157.158 103.976C166.318 65.1801 142.294 26.3038 103.499 17.143C64.7032 7.98232 25.827 32.0062 16.6663 70.8017C7.50557 109.597 31.5293 148.473 70.3249 157.634C109.12 166.795 147.997 142.771 157.158 103.976Z" fill="#F4F4F4"/>
<path d="M85.78 139.14C85.19 139.11 84.59 139.07 84 139.04C82.05 138.94 80.1101 138.71 78.1801 138.37C72.1201 137.31 66.4501 135.16 61.0601 132.2C61.0101 132.17 60.96 132.14 60.88 132.1C71.31 124.32 81.72 116.56 92.14 108.79C92.62 109.25 93.08 109.68 93.53 110.12C95.78 112.32 98.04 114.51 100.28 116.72C100.94 117.37 101.17 117.41 101.99 116.98C105.81 114.98 109.21 112.45 112.04 109.17C113.05 107.99 113.98 106.75 114.85 105.46C114.93 105.34 115.08 105.26 115.22 105.15C119.06 110.28 122.88 115.39 126.72 120.51C126.25 121.04 125.8 121.57 125.33 122.09C121.19 126.64 116.45 130.41 110.99 133.26C106.93 135.38 102.65 136.89 98.1801 137.87C94.8501 138.6 91.4799 139.02 88.0699 139.1C87.9599 139.1 87.85 139.12 87.73 139.13C87.08 139.14 86.43 139.14 85.78 139.14Z" fill="black"/>
<path d="M35.0601 85.8997C35.0901 85.3897 35.13 84.8699 35.16 84.3599C35.36 80.6399 36 76.9998 37.02 73.4298C38.08 69.7398 39.54 66.2099 41.33 62.8199C41.47 62.5599 41.61 62.3199 41.76 62.0699C41.9 61.8299 42.1 61.8099 42.26 62.0299C49.93 72.0899 57.6 82.1398 65.27 92.1998C65.39 92.3598 65.42 92.4697 65.28 92.6297C64.8 93.1697 64.35 93.7498 63.84 94.2598C61.82 96.3198 59.79 98.3698 57.76 100.42C57.67 100.51 57.58 100.59 57.5 100.69C56.97 101.3 56.91 101.81 57.28 102.52C59.34 106.46 62.08 109.86 65.45 112.75C66.54 113.69 67.71 114.53 68.91 115.32C68.98 115.37 69.05 115.42 69.15 115.49C69.05 115.57 68.97 115.64 68.88 115.71C64.28 119.18 59.68 122.64 55.09 126.11C54.88 126.27 54.68 126.44 54.45 126.58C54.03 126.85 53.59 126.86 53.16 126.6C52.94 126.47 52.72 126.31 52.52 126.14C48.24 122.31 44.61 117.96 41.76 112.96C39.29 108.63 37.53 104.03 36.42 99.1698C35.65 95.7998 35.2 92.3998 35.09 88.9398C35.09 88.8298 35.06 88.7199 35.05 88.5999C35.06 87.6899 35.0601 86.7997 35.0601 85.8997Z" fill="black"/>
<path d="M87.7801 35.2399C87.8701 35.2499 87.97 35.27 88.07 35.27C94.7 35.35 101.04 36.76 107.14 39.34C108.99 40.12 110.78 41.0199 112.54 41.9899C112.7 42.0799 112.8 42.1701 112.78 42.3701C112.77 42.4801 112.82 42.6099 112.85 42.7499C112.09 43.2899 111.33 43.8498 110.56 44.3898C105.18 48.2098 99.7901 52.02 94.4201 55.85C90.4601 58.68 86.5201 61.5498 82.5601 64.3998C82.3101 64.5798 82.0501 64.7401 81.7701 64.8701C81.3801 65.0501 81.0001 64.9899 80.6601 64.7099C80.4901 64.5699 80.35 64.4099 80.19 64.2499C78.39 62.4599 76.5801 60.6701 74.7801 58.8701C74.4801 58.5701 74.2001 58.2599 73.9001 57.9599C73.2701 57.3199 72.62 57.2 71.82 57.61C69.34 58.88 67.06 60.44 64.99 62.29C63.01 64.06 61.26 66.0399 59.69 68.1899C59.43 68.5499 59.15 68.8999 58.86 69.2599C58.8 69.1899 58.75 69.13 58.7 69.07C55.2 64.42 51.69 59.7798 48.19 55.1298C47.4 54.0798 47.44 53.6299 48.33 52.6599C50.96 49.7899 53.82 47.1698 56.98 44.8898C61.16 41.8698 65.7 39.5399 70.61 37.9199C73.72 36.8999 76.9001 36.1899 80.1501 35.7499C82.4001 35.4499 84.66 35.2599 86.94 35.2499C87.01 35.2499 87.0801 35.2299 87.1501 35.2199C87.3601 35.2399 87.5701 35.2399 87.7801 35.2399Z" fill="black"/>
<path d="M138.81 88.8998C138.78 89.4298 138.74 89.9599 138.71 90.4899C138.48 94.6099 137.74 98.64 136.52 102.58C135.62 105.48 134.48 108.28 133.1 110.99C132.76 111.66 132.34 112.28 131.95 112.94C131.92 112.9 131.85 112.83 131.8 112.75C126.36 105.6 120.93 98.45 115.49 91.3C113.55 88.75 111.6 86.2199 109.66 83.6799C109.46 83.4199 109.28 83.1501 109.13 82.8701C108.9 82.4501 108.95 82.0198 109.22 81.6298C109.35 81.4498 109.49 81.2798 109.64 81.1298C111.79 78.9298 113.95 76.74 116.11 74.54C116.2 74.45 116.29 74.3499 116.38 74.2499C116.84 73.6999 116.9 73.19 116.57 72.55C114.06 67.74 110.65 63.6899 106.27 60.4699C106.02 60.2799 105.76 60.0899 105.51 59.9099C105.26 59.7199 105 59.54 104.71 59.33C105.07 59.03 105.41 58.7099 105.79 58.4299C110.15 55.1399 114.51 51.85 118.86 48.56C119 48.45 119.14 48.3399 119.28 48.2399C119.89 47.8099 120.39 47.83 120.94 48.33C121.31 48.66 121.67 48.99 122.02 49.33C126.42 53.48 130.12 58.16 132.93 63.52C135.27 67.97 136.88 72.67 137.81 77.61C138.33 80.34 138.64 83.0998 138.76 85.8798C138.76 85.9698 138.79 86.0699 138.8 86.1599C138.81 87.0799 138.81 87.9898 138.81 88.8998Z" fill="black"/>
</svg>
