<svg width="144" height="145" viewBox="0 0 144 145" fill="none" xmlns="http://www.w3.org/2000/svg">
<path d="M71.95 144.19C111.632 144.19 143.8 112.022 143.8 72.3401C143.8 32.6584 111.632 0.48999 71.95 0.48999C32.2684 0.48999 0.0999756 32.6584 0.0999756 72.3401C0.0999756 112.022 32.2684 144.19 71.95 144.19Z" fill="#8247E5"/>
<path d="M51.02 30.57C52.64 30.65 53.9799 31.6799 55.4199 32.4799C57.1199 33.4299 58.7999 34.3998 60.4799 35.3798C63.9399 37.3898 67.3799 39.4299 70.8099 41.4799C71.6499 41.9799 72.49 42.4799 73.34 42.9799C74.91 43.8999 75.9599 45.22 76.3599 47.01C76.4599 47.45 76.4899 47.9201 76.4899 48.3701C76.4999 51.0401 76.4899 53.7098 76.4999 56.3798C76.4999 56.5798 76.44 56.69 76.27 56.79C73.32 58.49 70.3799 60.1999 67.4299 61.8999C67.3599 61.9399 67.2899 61.97 67.1799 62.02C67.1799 61.89 67.1799 61.7999 67.1799 61.7099C67.1799 59.1499 67.1899 56.59 67.1799 54.03C67.1599 51.74 66.1899 49.95 64.2199 48.75C60.7099 46.61 57.1999 44.4898 53.6799 42.3798C52.8399 41.8698 51.8899 41.65 50.9099 41.59C49.5599 41.51 48.3399 41.89 47.1699 42.58C43.8199 44.55 40.4499 46.4799 37.0999 48.4499C35.3599 49.4799 34.3399 51.02 34.0699 53.02C34.0499 53.17 34.0399 53.3199 34.0399 53.4699C34.0399 57.7199 34.0099 61.9699 34.0499 66.2199C34.0699 68.3499 35.0499 70.0499 36.8599 71.1699C40.1699 73.2199 43.5199 75.1999 46.8499 77.2299C47.7899 77.8099 48.7699 78.2498 49.8799 78.3798C51.2499 78.5398 52.5399 78.3201 53.7299 77.6101C58.1399 74.9601 62.53 72.2999 66.96 69.6799C68.83 68.5799 70.72 67.53 72.64 66.51C76.45 64.48 80.1399 62.23 83.8599 60.05C85.9999 58.8 88.13 57.52 90.27 56.28C91.03 55.84 91.8699 55.61 92.7399 55.51C94.1799 55.34 95.47 55.7199 96.71 56.4399C102.17 59.6299 107.65 62.7999 113.12 65.9699C114.14 66.5599 115.16 67.14 116.17 67.75C117.78 68.72 118.8 70.1099 119.14 71.9699C119.21 72.3599 119.22 72.7599 119.22 73.1499C119.22 80.8599 119.23 88.58 119.22 96.29C119.22 98.67 118.19 100.48 116.13 101.68C110.96 104.69 105.79 107.68 100.62 110.68C99.2999 111.45 97.9899 112.22 96.6599 112.97C94.9299 113.94 92.0499 114.16 90.2899 113.14C83.7199 109.34 77.1599 105.53 70.5999 101.71C68.5099 100.49 67.4299 98.6599 67.4199 96.2299C67.4099 93.6799 67.4199 91.13 67.4099 88.57C67.4099 88.26 76.5699 82.9999 76.7599 82.8999C76.7599 83.0399 76.76 88.3599 76.77 90.9299C76.77 91.2399 76.7999 91.5501 76.8599 91.8501C77.2399 93.6901 78.2299 95.08 79.8499 96.02C82.7699 97.72 85.6899 99.4201 88.6199 101.11C89.3699 101.54 90.1099 102.02 90.9099 102.35C92.7499 103.11 94.6099 103.11 96.3499 102.09C99.7899 100.08 103.22 98.0399 106.63 95.9699C108.63 94.7599 109.66 92.94 109.66 90.58C109.67 86.52 109.66 82.4599 109.66 78.4099C109.66 78.0899 109.64 77.7799 109.59 77.4699C109.26 75.5899 108.3 74.1299 106.63 73.1499C103.15 71.1199 99.6899 69.06 96.1799 67.09C94.1599 65.96 92.0399 65.89 89.9899 67.08C85.4099 69.73 80.84 72.4 76.27 75.06C69.26 79.13 62.2599 83.2 55.2499 87.26C54.4699 87.71 53.6999 88.2 52.8699 88.52C51.0299 89.25 49.2199 89.1398 47.4799 88.1298C44.5199 86.3998 41.55 84.6899 38.59 82.9699C35.02 80.8999 31.4399 78.83 27.8699 76.75C26.2499 75.81 25.2 74.44 24.83 72.58C24.77 72.26 24.7399 71.9301 24.6899 71.6001C24.6899 63.7601 24.6899 55.92 24.6899 48.08C24.7099 47.98 24.7399 47.88 24.7499 47.78C24.8199 46.76 25.1599 45.83 25.7399 44.99C26.2799 44.22 27.0199 43.71 27.8199 43.24C33.6899 39.82 39.5499 36.3799 45.4199 32.9499C46.8599 32.1099 48.3399 30.9398 50.0699 30.6298C50.3899 30.5698 50.71 30.55 51.02 30.57Z" fill="white"/>
</svg>
