<svg width="145" height="145" viewBox="0 0 145 145" fill="none" xmlns="http://www.w3.org/2000/svg">
<path d="M72.95 144.23C112.748 144.23 145.01 111.968 145.01 72.17C145.01 32.3723 112.748 0.109985 72.95 0.109985C33.1524 0.109985 0.890015 32.3723 0.890015 72.17C0.890015 111.968 33.1524 144.23 72.95 144.23Z" fill="#F3BA2F"/>
<path d="M72.97 47.67L90.38 65.02L100.48 54.98L72.97 27.5L45.47 54.98L55.57 65.02L72.97 47.67Z" fill="white"/>
<path d="M72.97 96.67L55.57 79.32L45.47 89.36L72.97 116.84L100.48 89.36L90.38 79.32L72.97 96.67Z" fill="white"/>
<path d="M38.3735 62.0305L28.2407 72.1633L38.3735 82.296L48.5062 72.1633L38.3735 62.0305Z" fill="white"/>
<path d="M72.9636 62.034L62.8308 72.1667L72.9636 82.2995L83.0963 72.1667L72.9636 62.034Z" fill="white"/>
<path d="M107.493 62.032L97.3606 72.1647L107.493 82.2974L117.626 72.1647L107.493 62.032Z" fill="white"/>
</svg>
