<svg width="140" height="100" viewBox="0 0 140 100" fill="none" xmlns="http://www.w3.org/2000/svg">
<path fill-rule="evenodd" clip-rule="evenodd" d="M83.3902 46.125C79.9872 49.5963 75.2451 51.75 70 51.75C64.7549 51.75 60.0128 49.5963 56.6098 46.125H83.3902ZM86.2416 42.375H53.7584C52.1631 39.6171 51.25 36.4152 51.25 33C51.25 22.6447 59.6447 14.25 70 14.25C80.3553 14.25 88.75 22.6447 88.75 33C88.75 36.4152 87.8369 39.6171 86.2416 42.375ZM92.1889 36.75C92.3935 35.5305 92.5 34.2777 92.5 33C92.5 20.5736 82.4264 10.5 70 10.5C57.5736 10.5 47.5 20.5736 47.5 33C47.5 34.2777 47.6065 35.5305 47.8111 36.75H43.75L40.9375 46.125H51.7227C55.8071 51.8028 62.4718 55.5 70 55.5C77.5282 55.5 84.1929 51.8028 88.2773 46.125H99.0625L96.25 36.75H92.1889Z" fill="#3251BA"/>
<path d="M19.29 67C13.256 67 9 71.27 9 77.164C9 83.058 13.256 87.328 19.29 87.328C22.874 87.328 25.828 85.732 27.564 83.184L24.372 80.888C23.196 82.596 21.432 83.576 19.262 83.576C15.804 83.576 13.088 81.098 13.074 77.164C13.074 73.356 15.706 70.752 19.262 70.752C21.446 70.752 23.224 71.76 24.33 73.454L27.69 71.396C26.094 68.652 22.902 67 19.29 67Z" fill="#3251BA"/>
<path d="M39.1766 67C33.1426 67 28.8866 71.312 28.8866 77.164C28.8866 83.016 33.1426 87.328 39.1766 87.328C45.2106 87.328 49.4806 83.016 49.4806 77.164C49.4806 71.312 45.2106 67 39.1766 67ZM39.1766 70.752C42.7886 70.752 45.3926 73.356 45.3926 77.164C45.3926 80.972 42.7886 83.576 39.1766 83.576C35.5786 83.576 32.9606 80.972 32.9606 77.164C32.9606 73.356 35.5786 70.752 39.1766 70.752Z" fill="#3251BA"/>
<path d="M56.0507 67.364H52.1447V86.964H56.0507V67.364Z" fill="#3251BA"/>
<path d="M77.1999 67.364H73.2799V80.454L63.3259 67.364H59.6719V86.964H63.5779L63.5919 73.874L73.5319 86.964H77.1999V67.364Z" fill="#3251BA"/>
<path d="M92.2823 67.364H88.3763V79.46C88.3763 82.288 87.1443 83.576 85.0723 83.576C83.2663 83.576 82.0623 82.736 81.2643 81.756L78.9963 84.598C80.0603 85.9 82.0063 87.314 85.2543 87.314C89.3423 87.314 92.2823 84.738 92.2823 79.824V67.364Z" fill="#3251BA"/>
<path d="M105.465 67.364H100.705L93.0748 86.964H97.1488L98.8568 82.4H107.215L108.923 86.964H113.095L105.465 67.364ZM103.043 71.228L105.871 78.802H100.201L103.043 71.228Z" fill="#3251BA"/>
<path d="M114.684 67.364V86.964H118.59V79.166H119.738L125.45 86.964H130.182L124.148 79.11C127.914 78.746 130.154 76.548 130.154 73.328C130.154 69.576 127.648 67.364 122.972 67.364H114.684ZM122.902 70.962C124.974 70.962 126.136 71.704 126.136 73.328C126.136 74.98 125.03 75.764 122.902 75.764H118.59V70.962H122.902Z" fill="#3251BA"/>
</svg>
